<svg xmlns="http://www.w3.org/2000/svg" xml:space="preserve" style="fill-rule:evenodd;clip-rule:evenodd;stroke-linejoin:round;stroke-miterlimit:2" viewBox="0 0 8334 2942"><path d="M1270.15 539.58v1862.5l-741.893-409.82-128.94-1144.373z" style="fill:#c82934"/><path d="M1270.15 539.58v1862.5l741.89-409.82 128.94-1144.373z" style="fill:#ae2632"/><clipPath id="a"><path d="m1924.91 1058.1.17.3c2.38 4.37 8.56 14.01 17 14.52l38.54-32.19 56.19-46.976-68.29 24.836-46.74 16.99c-.04.03-.05.06-.06.1-4.1 7.85.8 18.04 3.19 22.42"/></clipPath><g clip-path="url(#a)"><path d="M1899.31 972.917h158.333v120.833H1899.31z" style="fill:#fffffe"/></g><clipPath id="b"><path d="m1570.15 1090.74 325.1-35.72c1.39 5.36 3.81 10.97 6.1 15.27 3.07 5.73 6.43 10.2 9.99 13.37l-216.73 250.55c1.01.66 2.03 1.33 3.06 1.99 4.13 2.64 8.31 5.16 12.55 7.55l226.6-261.93c-10.62-.89-18.37-12.67-21.38-18.03l-.21-.38c-3.06-5.45-9.32-18.11-4.07-27.87 0-.06.03-.08.05-.13l-337.72 36.75c-1.23 4.33-2.61 8.73-2.91 12.8-.13 1.84-.27 3.78-.43 5.78"/></clipPath><g clip-path="url(#b)"><path d="M1549.31 1014.58h408.333v350H1549.31z" style="fill:#fffffe"/></g><clipPath id="c"><path d="m1057.71 1660.48-.04-.06-.02.02c.03 0 .04.02.06.04"/></clipPath><g clip-path="url(#c)"><path d="M1036.81 1639.58h41.725v41.729h-41.725z" style="fill:#fffffe"/></g><clipPath id="d"><path d="M1279.33 1500.72c-53.3 0-96.67-43.27-96.67-96.45 0-53.19 43.37-96.46 96.67-96.46 8.72 0 17.37 1.17 25.68 3.47.36.09.72.19 1.07.3 41.13 11.79 69.92 49.92 69.92 92.69 0 53.18-43.37 96.45-96.67 96.45m411.55-133.31c-.32-.19-.64-.42-.95-.63-1.42-.95-2.85-1.93-4.25-2.9-1.09-.77-2.18-1.53-3.27-2.3-12.88-9.18-25.24-19.42-36.92-30.56-10.73-10.22-20.51-21.01-29.8-32.49-.01 0-.02.01-.03.01l-.06.07-123.2 64.19c-22.42-28.96-43.37-68.91-53.04-104.49-.53-2.02-3.97-15.24-4.47-17.27l117.4-65.44a316 316 0 0 1-7.61-36c-2.05-13.68-1.78-32.42-1.35-47.42.07-2.16.12-4.26.19-6.26.01-.54.05-1.08.1-1.65.03-.31.05-.63.09-.94-4.04-4.73-20.9-1.15-40.79 8.42l-7.05 4.27-74.75 45.28-10.22 6.18-.15.09c-.59 12.95-1.39 30.43-1.4 32.23 0 21.27 2.03 42.18 6.03 62.47l-15.93 9.06-86.73 49.24c-3.43-16.72-6.07-60.18-6.86-89.47l-18.53 11.23-49.74 30.11-20.53 12.45-46.67 28.26-1.82 1.1c2.78 28.32 8.46 71.5 12.08 86.65l-73.04 46.63-24.46 15.11c-4-15.8-8.64-64.76-10.49-90.31l-112.243 67.99-.012.01-19.421 10.97.15 2.85c1.654 29.2 7.216 57.55 16.512 84.41l6.892-3.89 17.221-9.8 92.911-53.3c4.88 14.11 14.99 36.1 21.93 49.29.45.84.9 1.68 1.34 2.52 7.48 13.89 17.6 29.27 27.15 41.81l-103.65 47.8-17.68 8.93-.96.49c16.6 21.66 36.15 41.16 58.24 58.01l120.46-53.68 14.79-6.49 2.22-.98c-22.76-15.2-49.72-39.67-64.05-55.97l15.22-7.68 90.52-41.5c10.36 12.13 40.69 44.84 58.29 61.33l2.3-1.01 50.59-22.17 21.68-9.48 54.62-23.95 19.89-8.72c-20.07-14.57-54.57-42.73-68.03-57.54l70.81-35.78 18.13-9.15 14.25-7.2c.94 1.1 1.89 2.18 2.87 3.26 15.05 16.97 51.57 45.42 70.3 58.93l12.78-5.6 85.01-37.26 7.89-3.45c18.58-11.08 30.66-22.9 29.3-28.92"/></clipPath><g clip-path="url(#d)"><path d="M920.147 1060.42h791.667v620.833H920.147z" style="fill:#fffffe"/></g><clipPath id="e"><path d="m1070.15 1514.58-103.458 26.88-34.971 9.09-169.904 109.42 15.779 29.61L964.117 1606z"/></clipPath><g clip-path="url(#e)"><path d="M740.981 1493.75h350v216.667h-350z" style="fill:#fffffe"/></g><clipPath id="f"><path d="m515.981 1539.58 158.333-73.77-18.2-34.56z"/></clipPath><g clip-path="url(#f)"><path d="M495.147 1410.42h200v150h-200z" style="fill:#fffffe"/></g><clipPath id="g"><path d="M1111.16 1307.21c.8-.43.91-1.72.06-2.17l-159.477-86.76c-2.162-1.17-4.333-2.34-6.491-3.51-.763-.43-1.53-.08-1.855.69-.137.36-.279.7-.425 1.04l-276.991 211.27 19.641 36.81 180.113-82.78c7.458-1.42 16.096-1.38 25.037.53 9.338 2 16.563 6.52 22.492 12 6.583 6.05 11.583 13.27 16.154 19.47.354.42 1.046.52 1.488.24 63.346-40 95.594-57.73 159.914-95.82 6.63-3.93 13.56-7.34 20.34-11.01"/></clipPath><g clip-path="url(#g)"><path d="M645.147 1193.75h487.5v291.667h-487.5z" style="fill:#fffffe"/></g><clipPath id="h"><path d="m736.814 1960.42 170.833-60.62-18.745-35.21z"/></clipPath><g clip-path="url(#h)"><path d="M715.981 1843.75h212.5v137.5h-212.5z" style="fill:#fffffe"/></g><clipPath id="i"><path d="M1245.65 1770.73c5.38-59.95 10.77-119.92 16.16-179.87.09-.95-1.03-1.56-1.83-1.13-6.78 3.63-13.42 7.52-20.33 10.88-66.97 32.65-99.42 49.75-167.44 80.54-.48.22-.78.84-.63 1.37 2.62 7.18 5.82 15.28 7.21 24.05 1.26 7.91 1.02 16.39-2.48 25.24-3.35 8.47-8.08 15.67-13.36 21.09l-17.02 10.58-150.78 93.85 19.625 36.42 327.515-114.77 2.69-.94c.22-2.44.45-4.88.67-7.31"/></clipPath><g clip-path="url(#i)"><path d="M874.314 1568.75h408.333v345.833H874.314z" style="fill:#fffffe"/></g><clipPath id="j"><path d="m574.314 1777.08 191.667-84.88-14.896-27.62z"/></clipPath><g clip-path="url(#j)"><path d="M553.481 1643.75h233.333v154.167H553.481z" style="fill:#fffffe"/></g><clipPath id="k"><path d="m1304.87 1314.58-1.39.76c.59.14 1.19.31 1.76.5-.11-.43-.25-.84-.37-1.26"/></clipPath><g clip-path="url(#k)"><path d="M1282.65 1293.75h43.433v42.921h-43.433z" style="fill:#fffffe"/></g><clipPath id="l"><path d="M1353.5 1423.26c-.74 3.02-1.65 5.95-2.72 8.74-.5 1.32-1.01 2.61-1.59 3.89-12.53 28.7-41.28 47.71-72.8 47.71-5.15 0-10.29-.5-15.31-1.49-1.39-.27-2.77-.57-4.14-.92-2.94-.74-5.91-1.68-8.83-2.8-1.72-.66-3.41-1.37-5.06-2.15-27.79-12.91-46.09-41.2-46.09-72.07 0-4.38.37-8.74 1.09-13.03.29-1.81.66-3.62 1.08-5.41a79 79 0 0 1 5.87-16.38c.77-1.56 1.58-3.1 2.44-4.59 14.09-24.47 40.6-40.02 68.95-40.02 1.74 0 3.48.05 5.22.16q2.595.18 5.16.51c6.13.79 12.16 2.32 17.93 4.54.96.37 1.9.75 2.83 1.14 29.01 12.42 48.3 41.4 48.3 73.08 0 5.43-.56 10.84-1.67 16.13-.19.99-.41 1.98-.66 2.96m-52.39-105.2c-.28-.09-.49-.16-.72-.21l-.15-.04a89.2 89.2 0 0 0-23.85-3.23c-49.39 0-89.58 40.19-89.58 89.59 0 49.39 40.19 89.58 89.58 89.58 49.4 0 89.59-40.19 89.59-89.58 0-39.74-26.68-75.14-64.87-86.11"/></clipPath><g clip-path="url(#l)"><path d="M1165.98 1293.75h220.833v220.833H1165.98z" style="fill:#fffffe"/></g><path d="M93.75-900h65.625V0H93.75zM548.438 11.719q-111.914 0-175.196-73.242t-64.453-208.594v-77.344q0-139.453 60.938-218.848 60.937-79.394 167.578-79.394 103.125 0 157.324 67.383T750-372.07v60.937H373.242v35.742q0 108.985 46.582 168.164 46.583 59.18 131.543 59.18 93.75 0 151.758-68.555l33.984 43.36Q675 11.718 548.438 11.719m-11.133-596.485q-76.758 0-118.067 54.2-41.308 54.198-45.41 158.496h311.133v-16.993q-4.688-195.702-147.656-195.703M986.133-795.703v161.719h108.397v58.593H986.133v421.289q0 52.149 15.527 77.637c10.35 16.992 27.64 25.488 51.86 25.488 10.54 0 26.17-1.953 46.87-5.859l1.76 58.594q-22.26 9.96-63.87 9.961-114.256 0-117.186-157.032v-430.078h-97.852v-58.593h97.852v-161.719zM1553.32-155.859c0-27.344-11.33-51.27-33.98-71.778q-33.99-30.761-115.14-67.383c-54.1-24.414-91.89-44.726-113.38-60.937q-32.22-24.317-47.46-53.027t-15.24-67.969q0-73.242 52.74-120.996c35.16-31.836 80.66-47.754 136.52-47.754 60.16 0 108.21 16.992 144.14 50.976q53.91 50.978 53.91 134.766h-65.04c0-35.937-12.3-65.723-36.91-89.355s-56.64-35.45-96.1-35.45q-57.42 0-91.11 29.297t-33.69 76.172c0 25.391 8.59 46.094 25.78 62.109q25.785 24.024 111.33 65.04c58.98 25.781 99.61 47.07 121.87 63.867 22.27 16.797 39.06 35.449 50.39 55.957s16.99 44.824 16.99 72.949c0 52.344-18.16 93.945-54.49 124.805q-54.495 46.289-143.55 46.289-94.335 0-152.64-51.563c-38.87-34.375-58.3-78.711-58.3-133.008h65.63c1.95 39.454 15.13 70.02 39.55 91.7 24.41 21.679 59.67 32.519 105.76 32.519q59.76 0 96.09-29.297t36.33-77.929M2204.88-287.109q0 146.484-51.27 222.656c-34.18 50.781-85.06 76.172-152.63 76.172-74.61 0-129.89-32.227-165.82-96.68L1832.23 0h-60.35v-900h64.45v354.492c35.55-66.797 90.04-100.195 163.48-100.195 68.35 0 119.33 24.121 152.92 72.363 33.6 48.242 50.98 120.215 52.15 215.918zm-65.04-59.18c0-80.469-11.91-140.039-35.74-178.711s-62.89-58.008-117.19-58.008c-72.26 0-122.46 38.086-150.58 114.258v314.062q19.92 49.806 58.59 77.051c25.78 18.164 56.84 27.246 93.17 27.246 51.95 0 90.13-18.847 114.55-56.543q36.615-56.542 37.2-176.074zM2330.86-349.219c0-91.406 20.7-163.672 62.11-216.797s97.85-79.687 169.33-79.687c71.88 0 128.42 26.172 169.63 78.515s62.02 124.415 62.41 216.211v67.383c0 92.969-20.81 165.43-62.41 217.383q-62.4 77.93-168.45 77.93c-70.71 0-126.76-25.391-168.17-76.172-41.4-50.781-62.89-120.703-64.45-209.766zm65.62 65.625c0 73.047 14.75 130.469 44.24 172.266 29.5 41.797 70.41 62.695 122.76 62.695 53.51 0 94.43-20.117 122.75-60.351 28.32-40.235 42.68-97.852 43.07-172.852v-67.383c0-73.047-14.85-130.566-44.53-172.558-29.69-41.993-70.51-62.989-122.47-62.989-50.39 0-90.42 20.508-120.11 61.524-29.69 41.015-44.92 97.461-45.71 169.336zM2919.73-349.219c0-91.406 20.7-163.672 62.11-216.797 41.4-53.125 97.85-79.687 169.33-79.687 71.88 0 128.42 26.172 169.63 78.515q61.815 78.517 62.4 216.211v67.383q0 139.454-62.4 217.383c-41.6 51.953-97.75 77.93-168.46 77.93-70.7 0-126.75-25.391-168.16-76.172s-62.89-120.703-64.45-209.766zm65.62 65.625c0 73.047 14.75 130.469 44.24 172.266s70.41 62.695 122.75 62.695q80.28 0 122.76-60.351c28.32-40.235 42.67-97.852 43.06-172.852v-67.383c0-73.047-14.84-130.566-44.53-172.558-29.68-41.993-70.51-62.989-122.46-62.989q-75.585 0-120.12 61.524c-29.68 41.015-44.92 97.461-45.7 169.336zM3631.06-795.703v161.719h108.39v58.593h-108.39v421.289c0 34.766 5.17 60.645 15.52 77.637s27.64 25.488 51.86 25.488c10.54 0 26.17-1.953 46.87-5.859l1.76 58.594q-22.26 9.96-63.87 9.961-114.255 0-117.18-157.032v-430.078h-97.86v-58.593h97.86v-161.719zM3879.49-42.773c0-14.063 4.4-25.879 13.19-35.45 8.79-9.57 20.99-14.355 36.62-14.355 15.62 0 27.93 4.785 36.91 14.355 8.99 9.571 13.48 21.387 13.48 35.45 0 13.671-4.49 25-13.48 33.984-8.98 8.984-21.29 13.477-36.91 13.477-15.63 0-27.83-4.493-36.62-13.477s-13.19-20.313-13.19-33.984M4368.16-48.633c45.32 0 80.08-12.695 104.3-38.086s37.31-61.914 39.26-109.57h62.69q-4.68 97.266-62.1 152.637c-38.29 36.914-86.33 55.371-144.15 55.371-75.39 0-132.32-24.121-170.8-72.364-38.47-48.242-58.1-119.824-58.88-214.746v-77.343c0-96.875 19.24-169.922 57.71-219.141q57.72-73.828 171.39-73.828 94.335 0 148.83 59.473c36.32 39.648 55.66 95.019 58 166.113h-62.69c-1.95-52.344-15.24-92.871-39.84-121.582-24.61-28.711-59.38-43.067-104.3-43.067q-84.375 0-123.93 56.836c-26.37 37.891-39.55 96.094-39.55 174.61v72.07q0 121.875 39.84 177.246c26.57 36.914 67.97 55.371 124.22 55.371M4777.15-534.375q28.125-50.976 71.19-81.152t98.73-30.176q165.825 0 169.92 220.898V0h-64.45v-417.773q-.585-84.961-29.88-125.391c-19.54-26.953-50.2-40.43-92-40.43-33.98 0-64.55 12.793-91.69 38.379-27.15 25.586-47.76 60.645-61.82 105.176V0h-65.04v-900h65.04z" style="fill-rule:nonzero" transform="translate(2672.3 1881.25)"/><path d="M134.57-51.953q0-13.672-11.328-23.926T84.863-98.34q-27.05-12.207-37.793-20.312t-15.82-17.676q-5.078-9.57-5.078-22.656 0-24.414 17.578-40.332t45.508-15.918q30.078 0 48.047 16.992t17.968 44.922h-21.679q0-17.969-12.305-29.785-12.305-11.817-32.031-11.817-19.141 0-30.371 9.766t-11.231 25.39q0 12.696 8.594 20.703 8.594 8.009 37.109 21.68 29.493 12.89 40.625 21.289t16.797 18.653 5.664 24.316q0 26.172-18.164 41.602T90.43 3.906q-31.446 0-50.879-17.187-19.434-17.188-19.434-44.336h21.875q.977 19.727 13.184 30.566 12.207 10.84 35.254 10.84 19.921 0 32.031-9.766t12.109-25.976M251.953-48.047l1.758 11.719 2.344-12.695 43.164-162.305h18.164l42.773 160.937 3.125 16.602 2.539-14.844 36.524-162.695h22.265L372.852 0h-18.164l-45.899-167.969-.976-5.078-.782 5.274L261.914 0h-18.359l-51.367-211.328h22.07zM492.578 0h-21.875v-211.328h21.875zm-25-272.266q0-6.64 3.711-11.328t10.547-4.687 10.644 4.687q3.81 4.688 3.809 11.328t-3.809 11.231q-3.808 4.59-10.644 4.59t-10.547-4.59-3.711-11.231M658.203-51.953q0-13.672-11.328-23.926T608.496-98.34q-27.05-12.207-37.793-20.312t-15.82-17.676q-5.078-9.57-5.078-22.656 0-24.414 17.578-40.332t45.508-15.918q30.077 0 48.047 16.992 17.968 16.992 17.968 44.922h-21.679q0-17.969-12.305-29.785-12.304-11.817-32.031-11.817-19.141 0-30.371 9.766t-11.231 25.39q0 12.696 8.594 20.703 8.594 8.009 37.109 21.68 29.493 12.89 40.625 21.289t16.797 18.653q5.664 10.254 5.664 24.316 0 26.172-18.164 41.602T614.063 3.906q-31.446 0-50.879-17.187-19.434-17.188-19.434-44.336h21.875q.977 19.727 13.184 30.566 12.207 10.84 35.254 10.84 19.921 0 32.031-9.766t12.109-25.976M836.719-51.953q0-13.672-11.328-23.926T787.012-98.34t-37.793-20.312-15.821-17.676q-5.078-9.57-5.078-22.656 0-24.414 17.578-40.332t45.508-15.918q30.078 0 48.047 16.992t17.969 44.922h-21.68q0-17.969-12.304-29.785-12.306-11.817-32.032-11.817-19.14 0-30.371 9.766t-11.23 25.39q0 12.696 8.593 20.703 8.594 8.009 37.11 21.68 29.492 12.89 40.625 21.289t16.797 18.653 5.664 24.316q0 26.172-18.164 41.602T792.578 3.906q-31.445 0-50.879-17.187t-19.433-44.336h21.875q.976 19.727 13.183 30.566 12.207 10.84 35.254 10.84 19.921 0 32.031-9.766t12.11-25.976M991.602-115.43q.001-49.61 17.378-74.707 17.385-25.097 51.57-25.097c23.96 0 41.86 10.742 53.71 32.226V-300h21.68V0h-20.32l-.97-27.148q-17.775 31.054-54.3 31.054-33.39 0-50.88-25.39-17.477-25.39-17.868-72.071zm22.068 19.727q0 40.625 12.21 59.765c8.14 12.761 21.06 19.141 38.77 19.141 22.78 0 39.32-10.872 49.61-32.617v-109.57c-9.77-23.568-26.24-35.352-49.42-35.352-17.71 0-30.63 6.315-38.77 18.945-8.13 12.631-12.27 32.162-12.4 58.594zM1264.26 3.906c-24.87 0-44.34-8.138-58.4-24.414s-21.23-39.453-21.48-69.531v-25.781q0-46.484 20.31-72.95 20.31-26.464 55.86-26.464 34.365 0 52.44 22.461 18.06 22.46 18.45 68.75v20.312h-125.58v11.914c0 24.219 5.18 42.904 15.53 56.055s24.96 19.726 43.84 19.726c20.84 0 37.7-7.617 50.59-22.851l11.33 14.453c-13.8 18.88-34.77 28.32-62.89 28.32m-3.71-198.828q-25.59 0-39.36 18.067c-9.18 12.044-14.22 29.654-15.13 52.832h103.71v-5.665c-1.05-43.489-17.45-65.234-49.22-65.234" style="fill-rule:nonzero" transform="translate(5047.91 2317.9)"/><path d="m84.961-33.984 51.953-177.344h22.266L93.359 0H76.172L9.961-211.328h22.266zM321.094-265.234v53.906h36.133v19.531h-36.133v140.43q0 17.383 5.176 25.879 5.175 8.496 17.285 8.496 5.273 0 15.625-1.953l.586 19.531q-7.423 3.32-21.289 3.32-38.086 0-39.063-52.344v-143.359h-32.617v-19.531h32.617v-53.906zM487.305-191.016q-7.813-1.367-13.672-1.367-17.969 0-30.176 12.305t-17.285 34.18V0h-21.68v-211.328h21.289l.391 31.64q15.43-35.546 48.437-35.546 8.595 0 13.086 2.539z" style="fill-rule:nonzero" transform="translate(6394.01 2317.9)"/><path d="M140.625 0q-2.93-10.156-3.906-29.297-9.766 15.82-25.098 24.512T78.32 3.906q-27.344 0-42.578-15.429T20.508-55.469q0-31.054 21.191-49.219 21.192-18.164 58.496-18.359h36.328v-29.492q0-22.656-11.23-32.52-11.23-9.863-32.91-9.863-20.118 0-33.008 11.719T46.484-152.93l-21.679-.195q0-25.977 19.531-44.043t49.023-18.066q31.836 0 48.243 16.015 16.406 16.015 16.406 46.68v103.711q0 31.055 5.664 46.484V0zm-59.57-16.992q19.14 0 33.886-9.961t21.582-26.563v-51.367h-34.375q-29.687.391-44.726 13.184T42.383-57.227q0 40.235 38.672 40.235M241.406 0h-21.875v-211.328h21.875zm-25-272.266q0-6.64 3.711-11.328t10.547-4.687 10.645 4.687q3.808 4.688 3.808 11.328t-3.808 11.231q-3.809 4.59-10.645 4.59t-10.547-4.59-3.711-11.231M322.07-211.328l.586 33.594q9.376-17.188 23.926-27.344 14.551-10.156 33.106-10.156 55.273 0 56.64 73.632V0h-21.484v-139.258q-.196-28.32-9.961-41.797t-30.664-13.476q-16.992 0-30.567 12.793t-20.605 35.058V0h-21.68v-211.328zM518.164 0h-21.875v-211.328h21.875zm-25-272.266q0-6.64 3.711-11.328t10.547-4.687 10.644 4.687q3.809 4.688 3.809 11.328t-3.809 11.231q-3.808 4.59-10.644 4.59t-10.547-4.59-3.711-11.231M598.828-211.328l.586 33.594q9.375-17.188 23.926-27.344t33.105-10.156q55.273 0 56.641 73.632V0h-21.484v-139.258q-.196-28.32-9.961-41.797t-30.664-13.476q-16.993 0-30.567 12.793t-20.605 35.058V0h-21.68v-211.328zM763.086-115.43q0-50 17.187-74.902t51.563-24.902q36.524 0 54.297 33.398l1.172-29.492h20.117V6.055q-.196 38.281-18.262 58.203T836.523 84.18q-17.382 0-35.058-8.496t-26.856-20.801l10.157-15.625q21.68 24.804 50.195 24.805 26.367 0 38.379-14.063t12.207-42.773v-33.594Q867.773 3.906 831.641 3.906q-33.009 0-50.489-24.804-17.48-24.805-18.066-71.68zm21.875 19.727q0 40.625 12.305 59.765t38.672 19.141q35.155 0 49.609-33.398v-108.008q-14.649-36.133-49.219-36.133-26.562 0-38.867 18.945-12.305 18.946-12.5 58.594z" style="fill-rule:nonzero" transform="translate(6882.68 2317.9)"/></svg>