<svg xmlns="http://www.w3.org/2000/svg" width="1059" height="240" fill="none" viewBox="0 0 1059 240"><path fill="#19053a" d="M437.147 80.272h30.855v156.27h-23.477l-67.076-95.548v95.548h-30.856V80.272h23.477l67.077 95.325zm132.331 44.648h28.843v111.622h-28.843V224.04q-10.509 15.627-33.315 15.627-18.334 0-30.408-12.278-11.85-12.279-11.85-33.933V124.92h28.843v64.964q0 11.163 6.037 17.19 6.038 5.804 16.098 5.804 11.18 0 17.887-6.92 6.708-6.921 6.708-20.762zm128.82 0h31.75l-42.482 111.622h-32.867L612.217 124.92h31.749l27.055 78.136zm59.968-13.394q-7.155 0-12.521-5.135-5.143-5.358-5.143-12.501 0-7.144 5.143-12.502 5.366-5.358 12.521-5.358 7.378 0 12.521 5.358 5.366 5.358 5.366 12.502 0 7.143-5.366 12.501-5.143 5.135-12.521 5.135m-14.31 125.016V124.92h28.843v111.622zm120.306-114.747q22.583 0 38.458 17.19 16.098 16.966 16.098 41.746t-16.098 41.97q-15.875 16.966-38.458 16.966-23.477 0-36.221-16.296v13.171h-28.843V80.272h28.843v57.82q12.744-16.297 36.221-16.297m-27.501 81.707q8.72 8.706 22.135 8.707 13.415 0 22.136-8.707 8.943-8.93 8.943-22.771 0-13.84-8.943-22.547-8.72-8.93-22.136-8.93t-22.135 8.93q-8.72 8.706-8.72 22.547t8.72 22.771m116.708-91.976q-7.154 0-12.521-5.135-5.142-5.358-5.142-12.501 0-7.144 5.142-12.502 5.366-5.358 12.521-5.358 7.379 0 12.521 5.358 5.366 5.358 5.366 12.502 0 7.143-5.366 12.501-5.142 5.135-12.521 5.135m-14.31 125.016V124.92h28.843v111.622zm119.191-83.939h-25.27v46.434q0 5.804 2.91 8.483c1.94 1.786 4.77 2.828 8.5 3.126q5.58.223 13.86-.223v26.119c-19.83 2.232-33.84.372-42.04-5.581-8.05-5.953-12.07-16.594-12.07-31.924v-46.434h-19.453V124.92h19.453V93.666h28.84v31.254h25.27z"/><path fill="#85d3ff" d="M214.189 238.659h-21.191c-8.863 0-16.114-7.252-16.114-16.115s7.251-16.114 16.114-16.114h21.191c28.523 0 51.648-23.206 51.648-51.648s-23.205-51.648-51.648-51.648h-20.707c-8.863 0-16.115-7.251-16.115-16.115V75.095c0-23.608-19.257-42.866-42.865-42.866S91.637 51.487 91.637 75.095v10.232c0 8.864-7.252 16.115-16.115 16.115s-16.115-7.251-16.115-16.115V75.095C59.408 33.68 93.088 0 134.503 0s72.839 31.424 75.014 70.905h4.673c46.25 0 83.877 37.628 83.877 83.877s-37.627 83.877-83.877 83.877"/><path fill="#4760eb" d="M239.006 107.807c-1.934 0-3.948-.322-5.882-1.128a52.3 52.3 0 0 0-18.935-3.545h-20.707c-8.863 0-16.115-7.251-16.115-16.115V75.095c0-23.608-19.257-42.866-42.865-42.866S91.637 51.487 91.637 75.095v10.232c0 8.864-7.252 16.115-16.115 16.115s-16.115-7.251-16.115-16.115V75.095C59.408 33.68 93.088 0 134.503 0s72.839 31.424 75.014 70.905h4.673c10.555 0 20.949 1.933 30.699 5.801 8.299 3.223 12.328 12.65 9.105 20.869a16.07 16.07 0 0 1-14.987 10.232"/><path fill="#1b2aa2" d="M134.502 238.578c-8.863 0-16.115-7.252-16.115-16.115v-78.156c0-23.608-19.257-42.865-42.865-42.865s-42.865 19.257-42.865 42.865v78.156c0 8.863-7.252 16.115-16.115 16.115S.427 231.326.427 222.463v-78.156c0-41.415 33.68-75.095 75.095-75.095s75.094 33.68 75.094 75.095v78.156c0 8.863-7.251 16.115-16.114 16.115"/></svg>