<svg xmlns="http://www.w3.org/2000/svg" xml:space="preserve" style="fill-rule:evenodd;clip-rule:evenodd;stroke-linejoin:round;stroke-miterlimit:2" viewBox="0 0 318 138"><path d="M0 13V8.2h11.8q2.8 0 4.3-1.5t1.5-4q0-2.7-1.5-4.1Q14.5-3 11.8-3H-3.8v24.3h-5V-8.2h20.6q2.6 0 4.6.8t3.4 2 2 3.4q.9 1.9.8 4.4 0 2.3-.7 4.3a9.5 9.5 0 0 1-5.5 5.6q-2 .8-4.6.8z" style="fill:#091836;fill-rule:nonzero" transform="translate(8.9 116)"/><path d="M285.2 376.9h16.3v4.3h-16.3zm-8.9 17.1v-29.4h26.3v5.1h-21.2V389h21.3v5.1z" style="fill:#091836;fill-rule:nonzero" transform="translate(-241.2 -256.7)"/><path d="m0 29.9-4.4-7.5h-14l2.5-4.1h9l-6.5-11-13.4 22.6h-5.9l17-28.2q.3-.9 1-1.3t1.5-.4 1.4.4 1 1.3l17 28.2z" style="fill:#091836;fill-rule:nonzero" transform="translate(96.6 107.5)"/><path d="m0 29.5-16.5-13-.9-1a3 3 0 0 1 .1-2.4q.3-.5 1-1.1L-.5 0h7.9L-12 14.4l19.9 15zM-24.3 0h5.2v29.5h-5.2z" style="fill:#091836;fill-rule:nonzero" transform="translate(130.2 107.9)"/><path d="M0 29.5v-5.2h22q2.2 0 3.3-1 1-1.1 1-2.8 0-2-1-2.9-1.2-1-3.2-1H8.5q-2 0-3.7-.6a7.7 7.7 0 0 1-4.6-4.4q-.6-1.5-.6-3.3A9 9 0 0 1 0 5a7 7 0 0 1 2-2.7q1-1 2.7-1.7 1.8-.6 4-.6h21v5.1h-21q-2 0-2.8 1-1 .9-1 2.7 0 1.6 1 2.6t2.7 1H22q4.5 0 6.8 2 2.4 2.1 2.3 6.4 0 1.9-.5 3.5a7 7 0 0 1-4.6 4.5q-1.7.6-4 .7z" style="fill:#0580c4;fill-rule:nonzero" transform="translate(153.3 107.9)"/><path d="M0 29.5a14 14 0 0 1-13.2-9.1q-1-2.8-1.1-6 0-3.2 1-5.9A13 13 0 0 1-5.6 1Q-3 0 0 0h16v5.1H0q-2 0-3.7.8a9 9 0 0 0-4.8 5q-.6 1.6-.7 3.8 0 2 .7 3.8t2 3A9 9 0 0 0 0 24.4h16v5.2z" style="fill:#0580c4;fill-rule:nonzero" transform="translate(202.4 107.9)"/><path d="m0 29.9-4.4-7.5h-14l2.5-4.1h9l-6.5-11-13.4 22.6h-5.9l17-28.2q.3-.9 1-1.3t1.5-.4 1.4.4 1 1.3l17 28.2z" style="fill:#0580c4;fill-rule:nonzero" transform="translate(253.2 107.5)"/><path d="M0 29.5V0h5.1v24.3H25v5.2z" style="fill:#0580c4;fill-rule:nonzero" transform="translate(262.6 107.9)"/><path d="M541.3 376.9h16.4v4.3h-16.4zm-8.8 17.1v-29.4h26.3v5.1h-21.2V389h21.2v5.1z" style="fill:#0580c4;fill-rule:nonzero" transform="translate(-241.2 -256.7)"/><path d="m0-52-30.1 30.4a4 4 0 0 1-5.6 0l-14.1-15a4 4 0 0 0-5.6-.1l-5.2 5a4 4 0 0 0 0 5.6l25 25a4 4 0 0 0 5.4 0L.2-30.6a4 4 0 0 1 5.5 0L36.9.6q1 1 2.5 1h11.3c3.2 0 4.8-3.8 2.5-6L5.5-52A4 4 0 0 0 0-52" style="fill:#0580c4;fill-rule:nonzero" transform="translate(192.7 89)"/><path d="m0-45.3 13.6 13.6a4 4 0 0 0 5.5 0l5.3-5a4 4 0 0 0 0-5.7L.1-66.6a4 4 0 0 0-5.5 0l-85.1 83.3a3.6 3.6 0 0 0 2.5 6.1h11.4q1.5 0 2.5-1l68.6-67a4 4 0 0 1 5.5 0" style="fill:#091836;fill-rule:nonzero" transform="translate(162.2 67.7)"/></svg>