<svg xmlns="http://www.w3.org/2000/svg" width="310" height="80" viewBox="0 0 310 80"><title>logo_classic</title><g fill="none" fill-rule="evenodd"><path fill="#1e5a96" d="M102.864 42.836h5.066q2.211.001 3.366-1.211 1.155-1.213 1.156-3.117 0-1.945-1.156-3.187t-3.366-1.242h-5.066zm0 5.212v10h-6.815v-29.18h11.881q5.206 0 8.26 2.655 3.059 2.657 3.058 6.945 0 4.31-3.057 6.945-3.055 2.634-8.26 2.635zm43.26-19.18v19.12q0 4.99-3.327 7.736t-8.712 2.744q-5.448 0-8.785-2.744-3.338-2.745-3.338-7.736v-19.12h6.815v19.12q0 2.685 1.387 3.978 1.386 1.291 3.92 1.292 2.512 0 3.87-1.282 1.355-1.284 1.355-3.988v-19.12zm11.04 23.97h13.329v5.21h-21.69v-3.046l13.086-20.923h-13.147v-5.212h21.57v2.927zm23.817 0h13.328v5.21h-21.69v-3.046l13.087-20.923H172.56v-5.212h21.57v2.927zm22.691 0h12.604v5.21h-19.42v-29.18h6.816zm33.257-7.275h-11.48v7.275h13.53v5.21h-20.343v-29.18h20.382v5.21H225.45v6.273h11.479zm22.612 12.485h-6.774v-29.18h6.774zm24.73-23.97h-7.72v23.97h-6.814v-23.97h-7.658v-5.21h22.192zm24.8 13.73.04.119q-.202 5.13-3.045 7.837-2.846 2.705-8.252 2.704-5.427 0-8.825-3.326t-3.397-8.637v-6.093q0-5.292 3.267-8.627 3.265-3.338 8.493-3.338 5.547.001 8.48 2.785 2.939 2.787 3.318 7.917l-.038.12h-6.615q-.141-2.845-1.276-4.228-1.137-1.383-3.869-1.383-2.313 0-3.64 1.854-1.325 1.855-1.326 4.86v6.133q0 3.026 1.448 4.89 1.445 1.864 3.98 1.864 2.452 0 3.478-1.304 1.024-1.301 1.165-4.147zM11.69 68.348c-15.585-15.538-15.585-40.728 0-56.265 15.582-15.536 40.85-15.535 56.433 0 15.584 15.538 15.583 40.726 0 56.263-15.584 15.538-40.849 15.54-56.433.002"/><path fill="#fff" d="M59.56 41.312c-1.399 3.786-9.586 3.753-20.701 3.786 0 0 7.182-1.012 9.257-5.01 2.077-3.995 4.522-12.093 4.522-12.093-11.059 0-12.044 3.862-12.044 3.862s-6.99 19.484-9.482 26.673c-19.366 0-16.27-9.537-16.27-9.537l9.686-27.092h19.625l-1.31 3.902S44.442 21.9 55.258 21.9c0 0 11.09.049 9.786 3.922-1.3 3.873-5.484 15.49-5.484 15.49"/></g></svg>