<svg xmlns="http://www.w3.org/2000/svg" xml:space="preserve" style="fill-rule:evenodd;clip-rule:evenodd;stroke-linejoin:round;stroke-miterlimit:1.41421" viewBox="0 0 768 411"><path d="M151.266 20.26c-1.564-.368-2.115 0-3.127-.368-1.012-.367-5.885-3.493-11.31-2.85s-9.748 2.115-13.333 3.402c-3.586 1.288-7.266 5.057-6.988 5.702.276.643 3.126 1.285 3.862.919.735-.368.828-1.84 6.068-4.599 5.242-2.757 10.301-3.217 12.873-3.309 2.576-.092 4.783 1.839 4.783 1.839s-1.564 4.412-1.472 6.435c.091 2.025.185 6.621.552 7.541s1.285 1.471 1.285 1.471-.365 3.679-3.125 7.173c-2.759 3.493-8.734 3.769-11.954 4.046-9.746 1.102-21.516-2.759-21.516-2.759s-2.022.092-2.391.552c-.366.459-.183.92 0 2.207.184 1.288-4.045 13.792-4.045 14.711s.827 2.39 1.288 2.758c.459.369 2.483.736 3.493.369 1.013-.369 4.414-15.817 5.426-16.276 1.011-.46 8.367 1.933 17.928 1.564 9.564-.368 11.771-2.851 14.162-4.231s4.229-8.459 4.229-8.459l1.656.185s7.172 5.148 12.598 19.676c5.423 14.53 5.609 33.838 5.609 33.838l1.654 1.287s3.678-.459 6.619 0c2.946.461 6.254 1.932 6.991 1.655.734-.275 1.562-6.159.919-6.437-.644-.273-12.322.185-12.322.185s-2.115-18.206-5.517-29.332c-3.401-11.126-14.344-23.631-14.344-23.631s2.207-8 2.391-9.471c.183-1.471-1.379-5.426-2.942-5.793m5.699-14.528c-.183-1.654-.55-3.861-3.308-4.965-2.76-1.103-4.6 1.104-5.151 1.839-.552.736-2.021 8.459-2.757 11.033-.737 2.576 2.574 4.598 2.574 4.598s1.287.921 3.494.184c2.207-.736 5.334-11.034 5.148-12.689m-3.953 2.759c-.367 1.655-2.758 5.701-2.758 5.701s1.196-8.369 1.471-8.827c.275-.46.828-.827.828-.827s.828 2.296.459 3.953M.279 91.68c.84.361 2.08.72 3.38.72.74 0 1.46-.12 1.46-.84C5.119 89.8 0 91.041 0 87.28c0-2.4 2.359-3.38 4.439-3.38 1.24 0 2.5.141 3.66.6l-.28 2.5c-.759-.459-1.9-.7-2.799-.7-.781 0-1.661.14-1.661.72 0 1.62 5.36.34 5.36 4.3 0 2.78-2.5 3.48-4.86 3.48-1.62 0-2.72-.16-3.779-.5zm10.08-7.54h2.121V81.8l3.54-1.1v3.44h2.52v2.52h-2.52v3.84c0 1.26.299 1.9 1.44 1.9.359 0 .739-.08 1.1-.14l.119 2.34c-.679.08-1.36.2-2.259.2-3.221 0-4-1.42-4-3.9v-4.24h-2.061zm13.74 6.26c.2 1.44 1.3 2 3.06 2 .98 0 2.1-.22 3.18-.8v2.54c-1.16.46-2.48.66-3.82.66-3.44 0-6.06-2.02-6.06-5.46s2.34-5.44 5.58-5.44c3.86 0 5.26 2.74 5.26 5.84v.66zm3.96-2.04c0-1.2-.56-2.18-2-2.18-1.3 0-1.92.98-2 2.18zm5.44-4.22h3.32v1.88h.04c.72-1.46 2.24-2.12 3.88-2.12 2.88 0 4.46 2.74 4.46 5.26 0 3.08-1.66 5.64-4.76 5.64-1.26 0-2.62-.46-3.3-1.7h-.04v5.66h-3.6zm5.8 2.52c-1.32 0-2.2 1.16-2.2 2.72 0 1.52 1 2.661 2.2 2.661 1.36 0 2.18-1.141 2.18-2.801 0-1.38-.78-2.58-2.18-2.58m7.96-2.52h3.32v1.88h.04c.72-1.46 2.24-2.12 3.88-2.12 2.88 0 4.46 2.74 4.46 5.26 0 3.08-1.66 5.64-4.76 5.64-1.26 0-2.62-.46-3.3-1.7h-.04v5.66h-3.6zm5.8 2.52c-1.32 0-2.2 1.16-2.2 2.72 0 1.52 1 2.661 2.2 2.661 1.36 0 2.18-1.141 2.18-2.801 0-1.38-.78-2.58-2.18-2.58m11.66-4.22h-3.6V79.8h3.6zm-3.6 1.7h3.6v10.42h-3.6zm6.66 0h3.28v1.92h.04c.72-1.5 2.16-2.16 3.8-2.16 2.84 0 3.98 2 3.98 4.16v6.5h-3.6v-5.04c0-1.96-.68-2.62-1.66-2.62-1.48 0-2.24 1.02-2.24 3.26v4.4h-3.6zm24.78 9.2c0 4.28-2.08 5.66-6.28 5.66-1.72 0-3.14-.36-3.98-.66l.18-2.84c1.1.541 2.02.86 3.52.86 2.08 0 3.2-.98 3.2-3.02v-.56h-.04c-.86 1.22-2.06 1.78-3.5 1.78-2.86 0-4.64-2.16-4.64-5.24 0-3.1 1.46-5.42 4.7-5.42 1.54 0 2.78.84 3.54 2.12h.04v-1.88h3.26zm-5.78-1.54c1.28 0 2.3-1.08 2.3-2.68 0-1.16-.68-2.46-2.3-2.46-1.34 0-2.04 1.18-2.04 2.6 0 1.62.96 2.54 2.04 2.54" style="fill:#006fb6;fill-rule:nonzero" transform="translate(0 -1.933)scale(4.16667)"/><path d="M99.999 91.68c.841.361 2.081.72 3.381.72.74 0 1.46-.12 1.46-.84 0-1.76-5.121-.519-5.121-4.28 0-2.4 2.361-3.38 4.441-3.38 1.24 0 2.5.141 3.66.6l-.28 2.5c-.76-.459-1.9-.7-2.8-.7-.781 0-1.66.14-1.66.72 0 1.62 5.359.34 5.359 4.3 0 2.78-2.5 3.48-4.859 3.48-1.621 0-2.72-.16-3.781-.5zm9.681-7.54h2.12V81.8l3.54-1.1v3.44h2.52v2.52h-2.52v3.84c0 1.26.3 1.9 1.44 1.9.36 0 .74-.08 1.1-.14l.12 2.34c-.68.08-1.36.2-2.26.2-3.22 0-4-1.42-4-3.9v-4.24h-2.06zm9.699 5.22c0-3.46 2.621-5.46 6.06-5.46 3.44 0 6.061 2 6.061 5.46 0 3.44-2.621 5.44-6.061 5.44s-6.06-2-6.06-5.44m8.4 0c0-1.56-.679-2.94-2.34-2.94s-2.339 1.38-2.339 2.94c0 1.54.679 2.92 2.339 2.92 1.661 0 2.34-1.38 2.34-2.92m5.86-5.22h3.28v1.92h.04c.72-1.5 2.161-2.16 3.8-2.16 2.84 0 3.981 2 3.981 4.16v6.5h-3.601v-5.04c0-1.96-.68-2.62-1.66-2.62-1.479 0-2.239 1.02-2.239 3.26v4.4h-3.601zm16.88 6.26c.2 1.44 1.3 2 3.061 2 .979 0 2.099-.22 3.179-.8v2.54c-1.16.46-2.48.66-3.82.66-3.439 0-6.06-2.02-6.06-5.46s2.34-5.44 5.58-5.44c3.86 0 5.26 2.74 5.26 5.84v.66zm3.96-2.04c0-1.2-.56-2.18-2-2.18-1.3 0-1.92.98-2 2.18z" style="fill:#e1b231;fill-rule:nonzero" transform="translate(0 -1.933)scale(4.16667)"/></svg>