<svg xmlns="http://www.w3.org/2000/svg" width="1272" height="302" fill="none" viewBox="0 0 1272 302"><g clip-path="url(#a)"><path fill="#444" d="M164.16 264.17 0 169.29v-40.66l163.16-95.39-.61 42.25-127.91 74.22 129.7 72.79z"/><path fill="#4081cb" d="M365.87 28v38.41s-40.79-30-90.18-30c-53.43-.05-113.14 39.06-113.14 39.06V33.31C203.85 11.22 240.49 0 276.14 0c43.55 0 89.73 28 89.73 28"/><path fill="#4081cb" d="M277.03 247.57a99.55 99.55 0 0 0 91.972-61.454A99.547 99.547 0 0 0 277.03 48.47c-55.12 0-99.81 44.57-99.81 99.54a99.68 99.68 0 0 0 29.284 70.453 99.67 99.67 0 0 0 70.526 29.107"/><path fill="#444" d="m389.91 36.82 164.16 94.88v40.66l-163.16 95.39.6-42.25 127.92-74.22-129.7-72.79z"/><path fill="#4081cb" d="M188.13 273.27v-38.41s40.8 30.05 90.19 30.05c53.43 0 113.13-39.13 113.13-39.13v42.18c-41.29 22.09-77.94 33.31-113.58 33.31-43.55 0-89.74-28-89.74-28"/><path fill="#444" d="M623.19 72.11h44.32l39.38 114.07 39.6-114.07h42.3l-61.65 157.73h-42.75zm262.23 35.36q-14.28-4.72-24-4.73-7.65 0-12 2.81a9.16 9.16 0 0 0-3.311 3.513 9.16 9.16 0 0 0-1.069 4.707 11.24 11.24 0 0 0 3.82 8.66 29.3 29.3 0 0 0 9.45 5.62q5.63 2.14 16.65 5.52a216 216 0 0 1 27.11 9.45 47.34 47.34 0 0 1 18.34 14.45q7.65 9.78 7.65 25.54t-8.32 26.88q-8.33 11.15-22.84 16.76a88.7 88.7 0 0 1-32.29 5.63 116.9 116.9 0 0 1-39-6.86 107 107 0 0 1-33.63-18.79l16-32.17a99.4 99.4 0 0 0 28.24 17.32q16.3 6.75 28.91 6.75 9.22 0 14.51-3.38a11 11 0 0 0 5.29-9.89 11.65 11.65 0 0 0-.976-4.935 11.65 11.65 0 0 0-2.964-4.065 28.8 28.8 0 0 0-9.9-5.74q-6-2.15-16.76-5.06a206 206 0 0 1-26.77-9.12 47.3 47.3 0 0 1-18.12-14q-7.53-9.33-7.53-24.86a43.4 43.4 0 0 1 7.76-25.65q7.75-11 22-17t33.19-6a120.3 120.3 0 0 1 33.75 4.84 111.4 111.4 0 0 1 29.25 12.94l-15.53 32.85a138.2 138.2 0 0 0-26.91-11.99m63.61-35.36h41.17v64.36h63.68V72.11h41.15v157.73h-41.17v-60.53h-63.68v60.53h-41.15zm284.35 0h38.25v157.73h-36l-71.55-94.28v94.28h-38.47V72.11h36.22l71.78 95z"/></g><defs><clipPath id="a"><path fill="#fff" d="M0 0h1271.63v301.28H0z"/></clipPath></defs></svg>