<svg xmlns="http://www.w3.org/2000/svg" width="400.893" height="239.733" viewBox="0 0 400.893 239.733"><path d="M847.32 1145c0-37 4-67 11-89 8-22 18-46 32-72 5-8 7-16 7-23 0-10-6-20-19-30l-63-42c-9-6-18-9-26-9-10 0-20 5-30 14-14 15-26 31-36 47-10 17-20 36-31 59q-117-138-294-138c-84 0-151 24-200 72s-74 112-74 192c0 85 30 154 91 206s142 78 245 78c34 0 69-3 106-8s75-13 115-22v73c0 76-16 129-47 160-32 31-86 46-163 46-35 0-71-4-108-13s-73-20-108-34c-16-7-28-11-35-13s-12-3-16-3c-14 0-21 10-21 31v49c0 16 2 28 7 35s14 14 28 21q52.5 27 126 45c49 13 101 19 156 19 119 0 206-27 262-81 55-54 83-136 83-246v-324zm-406-152c33 0 67 6 103 18s68 34 95 64c16 19 28 40 34 64s10 53 10 87v42c-29 7-60 13-92 17s-63 6-94 6c-67 0-116-13-149-40s-49-65-49-115c0-47 12-82 37-106 24-25 59-37 105-37m803-108c-18 0-30 3-38 10-8 6-15 20-21 39l-235 773c-6 20-9 33-9 40 0 16 8 25 24 25h98c19 0 32-3 39-10 8-6 14-20 20-39l168-662 156 662c5 20 11 33 19 39s22 10 40 10h80c19 0 32-3 40-10 8-6 15-20 19-39l158-670 173 670c6 20 13 33 20 39 8 6 21 10 39 10h93c16 0 25-8 25-25 0-5-1-10-2-16s-3-14-7-25l-241-773q-9-30-21-39c-8-6-21-10-38-10h-86c-19 0-32 3-40 10s-15 20-19 40l-155 645-154-644c-5-20-11-33-19-40s-22-10-40-10zm1285-27c-52 0-104 6-154 18s-89 25-115 40c-16 9-27 19-31 28s-6 19-6 28v51c0 21 8 31 23 31q9 0 18-3c6-2 15-6 25-10 34-15 71-27 110-35 40-8 79-12 119-12 63 0 112 11 146 33s52 54 52 95c0 28-9 51-27 70s-52 36-101 52l-145 45c-73 23-127 57-160 102-33 44-50 93-50 145q0 63 27 111c18 32 42 60 72 82 30 23 64 40 104 52s82 17 126 17c22 0 45-1 67-4 23-3 44-7 65-11 20-5 39-10 57-16q27-9 42-18c14-8 24-16 30-25q9-12 9-33v-47c0-21-8-32-23-32-8 0-21 4-38 12q-85.5 39-192 39c-57 0-102-9-133-28s-47-48-47-89c0-28 10-52 30-71s57-38 110-55l142-45c72-23 124-55 155-96s46-88 46-140c0-43-9-82-26-116-18-34-42-64-73-88-31-25-68-43-111-56-45-14-92-21-143-21" style="fill:#252f3e;fill-opacity:1;fill-rule:nonzero;stroke:none" transform="matrix(.13333 0 0 -.13333 0 239.733)"/><path d="M2718.32 372c-329-243-807-372-1218-372-576 0-1095 213-1487 567-31 28-3 66 34 44 424-246 947-395 1488-395 365 0 766 76 1135 232 55 25 102-36 48-76m137 156c-42 54-278 26-385 13-32-4-37 24-8 45 188 132 497 94 533 50 36-45-10-354-186-502-27-23-53-11-41 19 40 99 129 322 87 375" style="fill:#f90;fill-opacity:1;fill-rule:nonzero;stroke:none" transform="matrix(.13333 0 0 -.13333 0 239.733)"/></svg>