<?xml version="1.0" encoding="UTF-8" standalone="no"?>
<!-- Created with Inkscape (http://www.inkscape.org/) -->

<svg
   version="1.1"
   id="svg1"
   width="400.89334"
   height="239.73334"
   viewBox="0 0 400.89334 239.73334"
   xmlns="http://www.w3.org/2000/svg"
   xmlns:svg="http://www.w3.org/2000/svg">
  <defs
     id="defs1" />
  <g
     id="g1">
    <path
       id="path1"
       d="m 847.32,1145 c 0,-37 4,-67 11,-89 8,-22 18,-46 32,-72 5,-8 7,-16 7,-23 0,-10 -6,-20 -19,-30 l -63,-42 c -9,-6 -18,-9 -26,-9 -10,0 -20,5 -30,14 -14,15 -26,31 -36,47 -10,17 -20,36 -31,59 -78,-92 -176,-138 -294,-138 -84,0 -151,24 -200,72 -49,48 -74,112 -74,192 0,85 30,154 91,206 61,52 142,78 245,78 34,0 69,-3 106,-8 37,-5 75,-13 115,-22 v 73 c 0,76 -16,129 -47,160 -32,31 -86,46 -163,46 -35,0 -71,-4 -108,-13 -37,-9 -73,-20 -108,-34 -16,-7 -28,-11 -35,-13 -7,-2 -12,-3 -16,-3 -14,0 -21,10 -21,31 v 49 c 0,16 2,28 7,35 5,7 14,14 28,21 35,18 77,33 126,45 49,13 101,19 156,19 119,0 206,-27 262,-81 55,-54 83,-136 83,-246 v -324 z m -406,-152 c 33,0 67,6 103,18 36,12 68,34 95,64 16,19 28,40 34,64 6,24 10,53 10,87 v 42 c -29,7 -60,13 -92,17 -32,4 -63,6 -94,6 -67,0 -116,-13 -149,-40 -33,-27 -49,-65 -49,-115 0,-47 12,-82 37,-106 24,-25 59,-37 105,-37 z m 803,-108 c -18,0 -30,3 -38,10 -8,6 -15,20 -21,39 l -235,773 c -6,20 -9,33 -9,40 0,16 8,25 24,25 h 98 c 19,0 32,-3 39,-10 8,-6 14,-20 20,-39 l 168,-662 156,662 c 5,20 11,33 19,39 8,6 22,10 40,10 h 80 c 19,0 32,-3 40,-10 8,-6 15,-20 19,-39 l 158,-670 173,670 c 6,20 13,33 20,39 8,6 21,10 39,10 h 93 c 16,0 25,-8 25,-25 0,-5 -1,-10 -2,-16 -1,-6 -3,-14 -7,-25 l -241,-773 c -6,-20 -13,-33 -21,-39 -8,-6 -21,-10 -38,-10 h -86 c -19,0 -32,3 -40,10 -8,7 -15,20 -19,40 l -155,645 -154,-644 c -5,-20 -11,-33 -19,-40 -8,-7 -22,-10 -40,-10 z m 1285,-27 c -52,0 -104,6 -154,18 -50,12 -89,25 -115,40 -16,9 -27,19 -31,28 -4,9 -6,19 -6,28 v 51 c 0,21 8,31 23,31 6,0 12,-1 18,-3 6,-2 15,-6 25,-10 34,-15 71,-27 110,-35 40,-8 79,-12 119,-12 63,0 112,11 146,33 34,22 52,54 52,95 0,28 -9,51 -27,70 -18,19 -52,36 -101,52 l -145,45 c -73,23 -127,57 -160,102 -33,44 -50,93 -50,145 0,42 9,79 27,111 18,32 42,60 72,82 30,23 64,40 104,52 40,12 82,17 126,17 22,0 45,-1 67,-4 23,-3 44,-7 65,-11 20,-5 39,-10 57,-16 18,-6 32,-12 42,-18 14,-8 24,-16 30,-25 6,-8 9,-19 9,-33 v -47 c 0,-21 -8,-32 -23,-32 -8,0 -21,4 -38,12 -57,26 -121,39 -192,39 -57,0 -102,-9 -133,-28 -31,-19 -47,-48 -47,-89 0,-28 10,-52 30,-71 20,-19 57,-38 110,-55 l 142,-45 c 72,-23 124,-55 155,-96 31,-41 46,-88 46,-140 0,-43 -9,-82 -26,-116 -18,-34 -42,-64 -73,-88 -31,-25 -68,-43 -111,-56 -45,-14 -92,-21 -143,-21"
       style="fill:#252f3e;fill-opacity:1;fill-rule:nonzero;stroke:none"
       transform="matrix(0.13333333,0,0,-0.13333333,0,239.73333)" />
    <path
       id="path2"
       d="m 2718.32,372 c -329,-243 -807,-372 -1218,-372 -576,0 -1095,213 -1486.9997,567 -31,28 -3,66 34,44 C 471.32,365 994.32,216 1535.32,216 c 365,0 766,76 1135,232 55,25 102,-36 48,-76 z m 137,156 c -42,54 -278,26 -385,13 -32,-4 -37,24 -8,45 188,132 497,94 533,50 36,-45 -10,-354 -186,-502 -27,-23 -53,-11 -41,19 40,99 129,322 87,375"
       style="fill:#ff9900;fill-opacity:1;fill-rule:nonzero;stroke:none"
       transform="matrix(0.13333333,0,0,-0.13333333,0,239.73333)" />
  </g>
</svg>
