<svg xmlns="http://www.w3.org/2000/svg" width="65.876" height="69.041" fill="none" viewBox="0 0 65.876 69.041"><path fill="#e83030" stroke="#141a1f" stroke-width="2.771" d="m27.463 44.21-5.505-9.69 5.505-9.69h10.974l5.506 9.69-5.506 9.69z"/><path fill="#6b91c7" stroke="#141a1f" stroke-width="2.771" d="m27.463 67.655-5.505-9.69 5.505-9.69h10.974l5.506 9.69-5.506 9.69z"/><path fill="#f9c31f" stroke="#141a1f" stroke-width="2.771" d="m27.463 20.765-5.505-9.69 5.505-9.69h10.974l5.506 9.69-5.506 9.69z"/><path fill="#795aa5" stroke="#141a1f" stroke-width="2.771" d="m47.803 55.932-5.506-9.69 5.506-9.69h10.974l5.506 9.69-5.506 9.69z"/><path fill="#f17423" stroke="#141a1f" stroke-width="2.771" d="m47.803 32.487-5.506-9.69 5.506-9.69h10.974l5.506 9.69-5.506 9.69z"/><path fill="#97c639" stroke="#141a1f" stroke-width="2.771" d="m7.1 55.932-5.506-9.69 5.506-9.69h10.974l5.506 9.69-5.506 9.69z"/><path fill="#c9db70" stroke="#141a1f" stroke-width="2.771" d="m7.1 32.487-5.506-9.69 5.506-9.69h10.974l5.506 9.69-5.506 9.69z"/></svg>