<svg xmlns="http://www.w3.org/2000/svg" viewBox="0 0 36.943 35.745"><title>KubeVirt_logo_color</title><g fill="none" fill-rule="evenodd"><path d="M.811 22.385c.06.42.22.82.46 1.18l5.68 7.02-5.68-7.04c-.24-.34-.4-.74-.46-1.16"/><path d="M.841 22.625c-.05-.192-.05-.346-.05-.5 0 .154 0 .308.05.5m10.71 12.42a2 2 0 0 1-.5-.2c.177.05.324.15.5.2m7.24-34.22c.154.05.346.05.5.1-.154-.05-.346-.05-.5-.1m17.29 21.76c0 .1-.05.2-.05.3 0-.1 0-.2.05-.3"/><path d="M19.031.865c.154.05.346.1.5.2-.154-.05-.307-.15-.5-.2"/><path d="m31.731 6.905-12.32-5.9-.12-.06.12.06zM18.791.855c-.12-.05-.26-.05-.38-.05-.26 0-.5 0-.76.1.24-.1.5-.1.76-.1.12 0 .26 0 .38.05m-1.4.03-12.32 5.94c-.14.06-.3.16-.42.26.14-.1.28-.18.42-.26zm1.06 34.12h-6.8c-.08 0-.18 0-.26-.05.08.05.18.05.26.05h13.58zm17.66-13.4-3.08-13.2c-.02-.08-.06-.16-.08-.24.04.08.06.16.08.24zm-2.66 4.62 2.16-2.68zm-29.58-17.9-3.04 13.28zm0 0c.1-.48.38-.9.76-1.22l.02-.02c-.4.3-.68.74-.78 1.24"/><path fill="#00aab2" fill-rule="nonzero" d="m11.011 19.965-4.8-9.8h8.1l3.24 5.98-1.12 2.06-.04.02-3.28-6.08h-3.58l5.64 11.96.8-1.52c.26-.48.86-.68 1.36-.42.48.26.68.86.42 1.36l-1.46 2.74-1.12 2.08 3.28 6.58 3.1-6.12c-.32.44-.96.54-1.4.22a.97.97 0 0 1-.3-1.24l.72-1.44c.28-.48.88-.64 1.36-.36.42.24.6.76.44 1.22l1.46-2.88c-.32.44-.96.54-1.4.2a.99.99 0 0 1-.3-1.24l1.44-2.86c.24-.5.84-.7 1.34-.44s.7.84.44 1.34l-.36.7 1.84-3.64c-.32.46-.94.58-1.38.26a.984.984 0 0 1-.34-1.26l1.42-2.86c.24-.5.84-.7 1.34-.44.5.24.7.84.44 1.34l-.8 1.62 2.28-4.5c-.28.48-.88.66-1.36.38-.24-.14-.42-.38-.48-.66h-1.2c-.56 0-1-.44-1-1s.44-1 1-1h4.18l-1 1.98 2.46-4.86c-.08-.08-.16-.14-.24-.2-.14-.1-.28-.2-.42-.28l-12.32-5.9-.12-.06a1 1 0 0 0-.26-.08c-.08-.02-.16-.04-.24-.04-.12-.02-.26-.02-.38-.02-.26 0-.5 0-.76.04-.08.02-.16.02-.26.04l-12.32 5.94c-.14.06-.3.16-.42.26l-.02.02zm10.02-6.5 1.76-3.36h.64a1.014 1.014 0 0 1 .88 1.48l-1.52 2.82c-.26.48-.86.68-1.36.42-.48-.26-.66-.86-.4-1.36m-3.08 5.84 1.5-2.82c.26-.48.86-.68 1.36-.42s.68.86.42 1.36l-1.5 2.82c-.26.48-.86.68-1.36.42s-.68-.88-.42-1.36"/><path fill="#fff" fill-rule="nonzero" d="m3.071 8.145-3.02 13.28v.04c-.16.9.06 1.8.58 2.54l.02.02.02.02 8.5 10.56.02.04.04.02c.64.64 1.48 1.02 2.38 1.08h13.62c1.06 0 1.94-.42 2.5-1.16l8.52-10.54.02-.02.02-.02c.52-.72.74-1.62.62-2.5l-.02-.08-3.08-13.22v-.06c-.28-.84-.88-1.56-1.68-1.96h-.04l-12.32-5.9c-.42-.2-.9-.3-1.36-.28-.4-.02-.8.02-1.2.1l-.08.02-.08.04-12.32 5.94c-.84.38-1.44 1.14-1.66 2.04m2.02-1.32 12.3-5.94c.08-.02.16-.04.24-.04.26-.04.52-.04.78-.04.12 0 .26 0 .38.02.08.02.18.02.26.04s.18.04.26.08l.12.06 12.32 5.9c.16.08.3.18.42.28.08.06.16.12.24.2.22.22.42.48.54.76.04.08.06.16.08.24l3.08 13.22c.04.32.02.66-.06.98 0 .04-.02.08-.02.12-.08.3-.22.6-.4.86l-2.16 2.68-6.36 7.86c-.32.44-.82.72-1.36.8-.16.02-.34.04-.5.04h-13.6c-.08 0-.18-.02-.26-.02a3.17 3.17 0 0 1-1.62-.82l-2.84-3.52-5.66-7.04c-.24-.34-.4-.74-.46-1.18-.02-.08-.02-.16-.02-.24 0-.18 0-.34.04-.52l3.04-13.28c.12-.5.4-.92.8-1.24.12-.1.26-.2.42-.26"/><path fill="#00797f" fill-rule="nonzero" d="m18.451 34.945-3.28-6.58-.04.06-4.12-8.46-6.4-12.86c-.38.3-.66.74-.76 1.22l-3.02 13.28c-.04.18-.04.34-.04.52 0 .08 0 .16.02.26.06.42.22.82.46 1.18l5.68 7.04 2.84 3.48c.36.36.8.6 1.26.74.1.04.22.06.34.08.08.02.18.02.26.02h6.8z"/><path fill="#3accc5" fill-rule="nonzero" d="m29.811 12.505-2.28 4.5-.62 1.24c-.02.04-.04.08-.06.1l-1.84 3.62-1.08 2.16c-.02.04-.06.1-.08.14l-1.46 2.9c0 .02 0 .02-.02.04l-.72 1.44c-.02.04-.06.1-.08.14l-3.1 6.12h6.78c.16 0 .34-.02.5-.04.54-.08 1.02-.36 1.36-.8l6.36-7.86 2.16-2.68c.18-.26.32-.54.4-.86.02-.04.02-.08.02-.12.08-.32.1-.64.06-.98l-3.06-13.2c-.02-.08-.06-.16-.08-.24-.12-.28-.32-.54-.54-.76l-2.46 4.84z"/><path fill="#fff" fill-rule="nonzero" d="M18.351 20.645c.48.26 1.1.08 1.36-.42l1.5-2.82c.26-.48.08-1.1-.42-1.36-.48-.26-1.1-.08-1.36.42l-1.5 2.82c-.24.5-.06 1.1.42 1.36m4.02 6.58c0-.02 0-.02.02-.04.2-.52-.06-1.1-.58-1.28a1 1 0 0 0-1.22.44l-.72 1.44a1 1 0 0 0 .46 1.34c.5.24 1.08.04 1.34-.44zm-7.2 1.14 1.12-2.08 1.46-2.74c.26-.48.08-1.1-.42-1.36-.48-.26-1.1-.08-1.36.42l-.8 1.52-5.64-11.98h3.58l3.28 6.08.04-.02 1.1-2.06-3.24-6h-8.1l4.8 9.8 4.16 8.46zm14.78-16.12 1-1.98h-4.18c-.56 0-1 .44-1 1s.44 1 1 1h1.2c.12.54.66.88 1.2.76.28-.06.52-.24.66-.48l.02-.02zm-2.42 4.78.8-1.62c.26-.5.06-1.1-.44-1.34s-1.1-.06-1.34.44v.02l-1.42 2.86a1 1 0 0 0 .46 1.34c.5.24 1.08.04 1.34-.44zm-2.52 4.98.36-.7c.24-.5.04-1.1-.44-1.34s-1.1-.04-1.34.44l-1.42 2.86a1 1 0 0 0 .46 1.34c.5.24 1.08.04 1.34-.44zm-3.56-7.18a.98.98 0 0 0 1.34-.42l1.5-2.82c.26-.48.08-1.1-.42-1.36a.93.93 0 0 0-.46-.12h-.62l-1.76 3.36c-.24.5-.06 1.08.42 1.36"/></g></svg>