<?xml version="1.0" encoding="UTF-8" standalone="no"?>
<svg
   width="304"
   height="160"
   viewBox="0 0 304 160"
   fill="none"
   version="1.1"
   id="svg4"
   xmlns="http://www.w3.org/2000/svg"
   xmlns:svg="http://www.w3.org/2000/svg">
  <g
     clip-path="url(#clip0_4630_42)"
     id="g4">
    <path
       fill-rule="evenodd"
       clip-rule="evenodd"
       d="M 272,64 C 257.089,64 244.561,53.8018 241.008,40 h -36.677 c -7.821,0 -14.496,5.6546 -15.782,13.3696 l -1.315,7.8912 c -1.249,7.4923 -5.039,14.013 -10.399,18.7392 5.36,4.7262 9.15,11.2469 10.399,18.7392 l 1.315,7.8908 c 1.286,7.715 7.961,13.37 15.782,13.37 h 4.677 c 3.553,-13.802 16.081,-24 30.992,-24 17.673,0 32,14.327 32,32 0,17.673 -14.327,32 -32,32 -14.911,0 -27.44,-10.198 -30.992,-24 h -4.677 c -15.643,0 -28.993,-11.309 -31.565,-26.739 l -1.315,-7.891 C 170.165,93.6546 163.49,88 155.669,88 H 142.992 C 139.44,101.802 126.911,112 112,112 97.0893,112 84.5605,101.802 81.0081,88 H 62.9919 C 59.4395,101.802 46.9107,112 32,112 14.3269,112 0,97.6731 0,80 0,62.3269 14.3269,48 32,48 46.9107,48 59.4395,58.1982 62.9919,72 H 81.0081 C 84.5605,58.1982 97.0893,48 112,48 c 14.911,0 27.44,10.1982 30.992,24 h 12.677 c 7.821,0 14.496,-5.6546 15.782,-13.3696 l 1.315,-7.8912 C 175.338,35.3092 188.688,24 204.331,24 h 36.677 C 244.56,10.1982 257.089,0 272,0 c 17.673,0 32,14.3269 32,32 0,17.6731 -14.327,32 -32,32 z m 0,-16 c 8.837,0 16,-7.1634 16,-16 0,-8.8366 -7.163,-16 -16,-16 -8.837,0 -16,7.1634 -16,16 0,8.8366 7.163,16 16,16 z M 32,96 c 8.8366,0 16,-7.1634 16,-16 0,-8.8366 -7.1634,-16 -16,-16 -8.8366,0 -16,7.1634 -16,16 0,8.8366 7.1634,16 16,16 z m 96,-16 c 0,8.8366 -7.163,16 -16,16 -8.837,0 -16,-7.1634 -16,-16 0,-8.8366 7.163,-16 16,-16 8.837,0 16,7.1634 16,16 z m 128,48 c 0,8.837 -7.163,16 -16,16 -8.837,0 -16,-7.163 -16,-16 0,-8.837 7.163,-16 16,-16 8.837,0 16,7.163 16,16 z"
       fill="#ea4b71"
       id="path1" />
  </g>
  <defs
     id="defs4">
    <clipPath
       id="clip0_4630_42">
      <rect
         width="576"
         height="160"
         fill="#ffffff"
         id="rect4"
         x="0"
         y="0" />
    </clipPath>
  </defs>
</svg>
