<svg xmlns="http://www.w3.org/2000/svg" width="304" height="160" fill="none" viewBox="0 0 304 160"><g clip-path="url(#a)"><path fill="#ea4b71" fill-rule="evenodd" d="M272 64c-14.911 0-27.439-10.198-30.992-24h-36.677a16 16 0 0 0-15.782 13.37l-1.315 7.89A31.93 31.93 0 0 1 176.835 80a31.93 31.93 0 0 1 10.399 18.74l1.315 7.89A16 16 0 0 0 204.331 120h4.677c3.553-13.802 16.081-24 30.992-24 17.673 0 32 14.327 32 32s-14.327 32-32 32c-14.911 0-27.44-10.198-30.992-24h-4.677c-15.643 0-28.993-11.309-31.565-26.739l-1.315-7.891A16 16 0 0 0 155.669 88h-12.677c-3.552 13.802-16.081 24-30.992 24-14.91 0-27.44-10.198-30.992-24H62.992C59.44 101.802 46.91 112 32 112 14.327 112 0 97.673 0 80s14.327-32 32-32c14.91 0 27.44 10.198 30.992 24h18.016C84.561 58.198 97.09 48 112 48s27.44 10.198 30.992 24h12.677a16 16 0 0 0 15.782-13.37l1.315-7.89C175.338 35.31 188.688 24 204.331 24h36.677C244.56 10.198 257.089 0 272 0c17.673 0 32 14.327 32 32s-14.327 32-32 32m0-16c8.837 0 16-7.163 16-16s-7.163-16-16-16-16 7.163-16 16 7.163 16 16 16M32 96c8.837 0 16-7.163 16-16s-7.163-16-16-16-16 7.163-16 16 7.163 16 16 16m96-16c0 8.837-7.163 16-16 16s-16-7.163-16-16 7.163-16 16-16 16 7.163 16 16m128 48c0 8.837-7.163 16-16 16s-16-7.163-16-16 7.163-16 16-16 16 7.163 16 16" clip-rule="evenodd"/></g><defs><clipPath id="a"><path fill="#fff" d="M0 0h576v160H0z"/></clipPath></defs></svg>