<svg xmlns="http://www.w3.org/2000/svg" fill="none" viewBox="0 0 52 44"><path fill="url(#a)" d="M9.72 2.994a.48.48 0 0 0 .138.338q.35.355.708.713c6.293 6.251 11.275 9.307 15.232 9.343 3.94.036 8.975-3.036 15.395-9.394q.28-.274.547-.548l.046-.046a.5.5 0 0 0 .14-.341v-.044a.48.48 0 0 0-.206-.352A28 28 0 0 0 37.99.465a.49.49 0 0 0-.55.09c-5.116 5.01-9.232 7.76-11.594 7.737-2.422-.021-6.55-2.79-11.625-7.79a.49.49 0 0 0-.548-.092A28 28 0 0 0 9.93 2.592a.48.48 0 0 0-.206.353v.046z"/><path fill="url(#b)" d="M2.278 14.43a.48.48 0 0 1 .362-.05q.482.125.972.258c8.56 2.323 13.697 5.11 15.707 8.52 2.001 3.393 1.858 9.29-.438 18.03q-.098.377-.202.747l-.017.062a.5.5 0 0 1-.225.292l-.037.022a.48.48 0 0 1-.409-.002 28 28 0 0 1-3.767-2.131.49.49 0 0 1-.199-.522c1.782-6.935 2.104-11.875.905-13.91-1.23-2.086-5.691-4.278-12.56-6.171a.49.49 0 0 1-.354-.43 28 28 0 0 1 .02-4.331.48.48 0 0 1 .203-.355l.04-.023z"/><path fill="url(#c)" d="M33.253 42.322a.48.48 0 0 1-.224-.289q-.134-.48-.264-.97c-2.267-8.575-2.422-14.417-.475-17.862 1.938-3.43 7.117-6.255 15.833-8.636q.377-.104.748-.2l.063-.016a.5.5 0 0 1 .365.049l.038.022c.117.082.19.21.203.354.123 1.453.137 2.91.038 4.33a.49.49 0 0 1-.354.432c-6.897 1.924-11.335 4.115-12.497 6.171-1.192 2.108-.86 7.068.935 13.963a.49.49 0 0 1-.195.521 28 28 0 0 1-3.762 2.15.48.48 0 0 1-.448-.022z"/><defs><linearGradient id="a" x1="5.388" x2="41.926" y1="6.876" y2="6.876" gradientUnits="userSpaceOnUse"><stop stop-color="#e8312c"/><stop offset=".615" stop-color="#e2335a"/><stop offset="1" stop-color="#f77216"/></linearGradient><linearGradient id="b" x1="3.474" x2="21.743" y1="8.738" y2="40.381" gradientUnits="userSpaceOnUse"><stop stop-color="#e8312c"/><stop offset=".615" stop-color="#e2335a"/><stop offset="1" stop-color="#f77216"/></linearGradient><linearGradient id="c" x1="27.725" x2="45.994" y1="44.133" y2="12.49" gradientUnits="userSpaceOnUse"><stop stop-color="#e8312c"/><stop offset=".615" stop-color="#e2335a"/><stop offset="1" stop-color="#f77216"/></linearGradient></defs></svg>