<svg clip-rule="evenodd" fill-rule="evenodd" stroke-linejoin="round" stroke-miterlimit="1.41421" viewBox="0 0 400 400" xmlns="http://www.w3.org/2000/svg"><g fill="#fff" transform="matrix(.398506 0 0 .398506 -184.85 -31.0118)"><path d="m1251.87 244.483h-39.48c-76.16-24.113-470.195-23.247-539.851-.008h-40.198l-78.589 16.427 777.988-.05z" transform="matrix(1.07031 0 0 2.58043 -38.932 -419.339)"/><path d="m1402.12 272.972-866.409.158-47.078 63.285.534 23.865 374.431 64.12-.188 22.011c19.437 29.294 45.678 45.457 78.058 49.77l-.451 19.816 15.478-.193 5.641 415.307-20.811 27.582-.023 38.446 24.568 17.971 7.898.02 23.466-18.388.103-38.153-20.472-27.702 3.349-415.378 17.462-.217-.405-19.629c52.849-11.482 57.659-26.109 78.299-49.448l-.63-21.994 374.48-67.066.01-20.038z"/></g></svg>