<svg clip-rule="evenodd" fill-rule="evenodd" stroke-linejoin="round" stroke-miterlimit="1.41421" viewBox="0 0 400 400" xmlns="http://www.w3.org/2000/svg"><g transform="matrix(1.99486 0 0 1.99486 .514653 .712432)"><path d="m35.903 107.327c.257 5.307 5.553 2.833 7.918 1.185 2.263-1.597 2.931-.258 3.137-3.35.154-2.06.36-4.07.257-6.13-3.445-.31-7.147.515-9.975 2.576-1.492 1.03-4.166 4.43-1.337 5.719m105.567 65.228c4.062 2.524 11.518 10.15 5.399 13.86-5.862 5.358-9.153-5.926-14.295-7.471 2.211-3.04 4.988-5.823 8.896-6.39zm-72.71 8.604c-4.782.721-7.455 5.05-11.466 7.265-3.754 2.215-5.194-.722-5.502-1.34-.566-.257-.515.258-1.44-.67-3.497-5.513 3.6-9.531 7.302-12.262 5.142-1.03 8.381 3.452 11.107 7.007zm95.284-74.502c-.257 5.307-5.554 2.834-7.92 1.185-2.262-1.597-2.93-.258-3.136-3.349-.154-2.061-.36-4.07-.257-6.131 3.445-.31 7.148.515 9.976 2.576 1.44 1.03 4.165 4.43 1.337 5.719" fill="#f6d2a2"/><path d="m150.006 41.944c18.357-6.492 4.01-31.686-11.981-20.557-10.49-9.017-24.94-10.666-40.109-10.666-14.86 1.185-29.001 3.916-38.874 12.572-15.94-10.305-30.647 14.426-11.93 20.66-5.245 20.404.72 41.219-.102 61.983-.772 18.65-5.657 43.64 4.679 60.384 8.793 14.324 27.716 19.425 43.296 19.991 19.9.722 44.017-4.173 53.684-23.494 9.256-18.394 6.684-41.321 5.502-61.158-1.183-20.042 1.028-40.394-4.165-59.715z" fill="#69d7e2"/><path d="m165.432 103.514c-.514-1.082-1.491-2.319-2.417-2.988-2.365-1.7-5.399-2.628-8.536-2.731-.103-3.194-.205-6.698-.205-11.129v-4.019c-.052-12.674-.206-18.239-.926-25.194-.566-5.462-1.44-10.511-2.674-15.251 4.165-1.597 6.89-4.225 7.97-7.626 1.029-3.142.515-6.698-1.234-9.84-1.8-3.092-4.679-5.41-8.021-6.338-3.6-.979-7.508-.257-11.262 2.267-3.342-2.834-7.198-4.997-11.518-6.646-7.662-2.834-16.557-3.916-28.641-3.916v.515l-.052-.515c-12.906 1.03-22.47 3.04-30.39 6.904-3.188 1.546-6.016 3.4-8.484 5.565-3.805-2.37-7.765-2.937-11.415-1.804-3.394 1.03-6.325 3.452-8.074 6.595-1.748 3.143-2.16 6.75-.977 9.841s3.908 5.513 7.97 7.007c-1.285 5.204-1.953 10.717-2.056 16.797-.103 5.925.154 10.665 1.08 21.382.668 7.986.925 11.644 1.028 16.075-3.496-.155-6.993.773-9.616 2.679-.925.67-1.954 1.855-2.416 2.988-.669 1.443-.412 2.731.925 3.504.206 2.473 1.594 3.606 3.703 3.4 1.542-.154 3.393-.979 4.987-2.112.36-.258.72-.464 1.08-.618.154-.052.257-.103.412-.155 0 0 .308-.103.41-.154.155-.052.31-.104.412-.207-.103 2.422-.308 4.947-.771 10.717-.514 6.492-.771 10.047-.874 14.014-.463 14.736 1.285 25.453 6.53 33.954 1.646 2.68 3.651 5.05 6.017 7.213-.463.31-2.417 1.752-3.034 2.216-2.16 1.648-3.651 3.04-4.525 4.585-1.132 2.01-1.132 4.019.154 6.131l.051.052.052.051c.565.567.874.722 1.285.722h.155c.051.103.102.154.154.257.154.258.308.464.463.67 1.285 1.494 3.085 1.855 5.502.412 1.285-.67 2.21-1.442 4.165-3.091l.103-.103c3.136-2.68 4.679-3.658 6.993-4.019l.823-.154c.308.154.617.257.977.412 7.301 2.937 15.786 4.534 24.373 4.843 11.107.412 21.803-.979 30.853-4.276 2.346-.857 4.631-1.873 6.839-3.04 1.337.515 2.468 1.597 4.628 4.122.102.103.102.103.154.206.103.103.103.154.154.206.103.154.257.257.36.412 1.697 2.01 2.828 2.988 4.114 3.555 1.697.721 3.342.36 5.039-1.185 2.982-1.855 3.188-4.74 1.234-8.038-1.388-2.318-3.805-4.74-6.068-6.285 2.754-2.719 5.047-5.869 6.788-9.326 4.936-9.892 6.839-21.434 6.736-36.272-.051-5.255-.257-9.841-.823-18.6v-.258c.257.104.515.258.772.464 1.594 1.082 3.445 1.958 4.988 2.113 2.108.206 3.496-.928 3.702-3.4 1.285-.825 1.542-2.113.874-3.556zm-16.352-84.034c3.085.825 5.76 2.989 7.405 5.874s2.108 6.131 1.182 9.016c-.977 3.04-3.445 5.462-7.301 6.904-.769-2.758-1.679-5.475-2.726-8.14 1.492-1.288 2.211-2.886 1.029-5.153-1.183-2.267-3.24-2.524-5.348-1.854-1.337-1.752-2.828-3.298-4.37-4.74 3.393-2.164 6.89-2.783 10.13-1.907zm-109.63 17.415c-1.08-2.782-.72-6.08.926-8.965s4.32-5.152 7.508-6.08c3.29-.979 6.839-.515 10.335 1.546-2.022 1.821-3.818 3.88-5.348 6.131-2.673-1.39-5.399-1.649-6.941 1.185-1.594 3.04.257 4.946 2.88 6.389-.374.898-.718 1.809-1.03 2.73-.373 1.159-.716 2.327-1.028 3.504-3.753-1.442-6.222-3.658-7.301-6.44zm6.223 70.226c-.052 0-.36.103-.36.154-.155.052-.309.103-.463.206-.412.155-.823.412-1.234.722-1.44 1.03-3.188 1.803-4.525 1.906-1.543.155-2.417-.515-2.571-2.37 1.08-.36 1.542-.618 1.954-1.237l-.823-.618c-.309.412-.617.567-1.543.876-.051 0-.051 0-.103.051-.822-.463-.977-1.185-.514-2.215.412-.927 1.337-2.01 2.108-2.576 2.469-1.803 5.76-2.68 9.05-2.473 0 1.288.052 2.576 0 3.812 0 .155 0 .258-.05.413-.052.721-.052 1.03-.104 1.39-.154 1.495-.257 1.701-.822 1.959zm15.529 77.748-.103.103c-1.903 1.648-2.828 2.318-4.011 2.988-1.954 1.185-3.29.927-4.217-.206-.154-.155-.257-.36-.36-.515-.05-.052-.102-.155-.154-.206v-.052c.103-.927.463-1.597 1.389-3.04.051-.051.051-.051.051-.103.566-.824.823-1.288 1.08-1.855l-.926-.412c-.205.464-.462.876-.977 1.7-.051.052-.051.052-.051.103-.926 1.34-1.337 2.164-1.543 3.092h-.205c-.172-.095-.329-.216-.463-.36-2.006-3.195-.412-5.926 4.113-9.326.566-.413 2.469-1.752 2.983-2.164.103 0 .206-.052.308-.103 2.777 2.37 6.017 4.43 9.616 6.13 0 .052.052.104.103.155-2.108.516-3.754 1.598-6.633 4.07zm86.336-5.616c1.594 2.679 1.542 4.843-.463 6.337-.155-.31-.257-.67-.463-1.185 0-.052 0-.052-.051-.103-.72-1.958-1.183-2.782-2.057-3.71l-.72.722c.771.72 1.131 1.494 1.85 3.297 0 .052 0 .052.052.103.257.67.412 1.082.566 1.443-1.337 1.133-2.52 1.34-3.754.773-1.08-.464-2.108-1.443-3.753-3.298-.115-.128-.219-.266-.309-.412-.051-.052-.103-.103-.154-.206-.103-.103-.103-.103-.155-.206-1.902-2.216-3.033-3.4-4.267-4.07 2.88-1.65 5.45-3.504 7.764-5.668 2.16 1.597 4.577 3.967 5.914 6.183zm.72-16.694c-4.423 8.914-12.239 15.2-22.729 19.012-8.947 3.246-19.54 4.586-30.492 4.174-18.872-.67-35.224-7.265-42.885-19.734-5.142-8.295-6.84-18.857-6.377-33.387.155-3.967.36-7.522.875-14.014.565-7.316.72-9.428.874-12.726.103-2.37.103-4.792.051-7.368-.103-4.534-.36-8.14-1.028-16.23-.926-10.716-1.183-15.405-1.08-21.278.154-7.729 1.183-14.53 3.342-20.97 3.497-10.46 9.924-17.518 19.18-22.103 7.765-3.813 17.175-5.771 29.979-6.801 11.98 0 20.722 1.081 28.281 3.864 9.05 3.349 15.786 9.222 20.414 18.239 2.983 7.316 4.731 15.2 5.657 24.267.72 6.904.874 12.469.925 25.092v4.019c.052 6.234.154 10.613.412 14.993.102 1.7.154 2.421.411 6.492.566 8.758.771 13.292.823 18.548.103 14.787-1.749 26.173-6.634 35.911zm15.734-56.417c-.051 0-.103-.052-.154-.052-.926-.309-1.234-.515-1.543-.876l-.822.619c.462.618.925.875 1.954 1.236-.206 1.855-1.08 2.525-2.571 2.37-1.337-.103-3.086-.927-4.526-1.906-.41-.31-.822-.515-1.234-.722-.051 0-.102-.051-.154-.051-.206-2.834-.206-3.555-.308-5.05l-.155-2.782c2.88.052 5.708.928 7.868 2.525.771.567 1.697 1.649 2.108 2.576.514.876.411 1.649-.463 2.113z"/><path d="m105.712 63.857c.051 2.627.566 5.513.103 8.295-.72 1.34-2.057 1.494-3.24 2.01-1.647-.26-3.048-1.352-3.702-2.886-.411-3.143.103-6.131.257-9.274 0-.103 1.954.051 3.702.567 1.492.463 2.88 1.236 2.88 1.288zm-14.552.206c-1.44 5.461 1.902 14.375 7.404 7.058-.411-3.09.052-6.08.206-9.12.051-.257-7.559 1.701-7.61 2.062z" fill="#fff"/><path d="m106.329 66.278c-.103-1.545-.154-2.164-.154-2.937v-.36l-.36-.103-6.48-2.01v-.36l-.668.154h-.051v.052l-7.302 1.855-.257.051-.103.258c-1.131 2.73-.874 6.852.566 9.377 1.645 2.885 4.32 2.937 7.044-.36.769 1.487 2.203 2.522 3.857 2.782h.154l.154-.052c.206-.103.412-.155.772-.31.051 0 .051 0 .103-.05 1.49-.516 2.108-.928 2.622-1.907l.052-.052v-.103c.154-.927.205-1.906.205-2.988 0-.773-.051-1.494-.154-2.937zm-8.227-1.906c-.052.927-.103 1.288-.155 1.803-.102 1.907-.102 3.35.052 4.792-2.417 3.091-4.32 3.091-5.605.773-1.234-2.164-1.491-5.822-.566-8.244l6.48-1.649c-.052.67-.104 1.34-.206 2.525zm7.199 7.625c-.36.619-.823.928-2.057 1.34-.052 0-.052 0-.103.051-.309.104-.514.207-.669.258-1.388-.256-2.563-1.183-3.136-2.473-.155-1.391-.155-2.834-.052-4.74.052-.515.052-.876.155-1.803.102-1.185.154-1.907.154-2.577l5.605 1.7c0 .67.051 1.289.154 2.628.103 1.391.154 2.113.154 2.937 0 .98-.051 1.855-.205 2.68z"/><g transform="translate(59.024 21.367)"><path d="m1.183 20.042c4.73 18.446 34.195 13.705 33.063-4.791-1.336-22.155-37.588-17.879-33.063 4.791" fill="#fff"/><path d="m34.76 15.2c-.308-5.36-2.673-9.532-6.581-12.16-3.497-2.37-8.125-3.298-12.701-2.73-4.578.616-8.793 2.677-11.57 5.923-3.085 3.608-4.268 8.348-3.188 13.809l.463-.103-.463.103c4.833 18.96 35.172 14.375 34.04-4.843zm-33.114 4.74c-1.028-5.204.103-9.635 2.983-12.984 2.621-3.04 6.581-5.05 10.951-5.616 4.37-.567 8.741.309 12.032 2.576 3.651 2.473 5.862 6.337 6.17 11.438 1.08 17.981-27.561 22.31-32.138 4.585z"/><ellipse cx="9.307" cy="17.003" rx="4.988" ry="5.41"/><ellipse cx="11.57" cy="18.239" fill="#fff" rx="1.183" ry="1.391"/></g><g transform="translate(100.911 19.36)"><path d="m.617 18.6c3.65 21.176 38.206 15.56 33.218-5.77-4.474-19.168-34.452-13.86-33.218 5.77" fill="#fff"/><path d="m34.298 12.726c-4.578-19.733-35.43-14.323-34.195 5.925v.052c1.697 9.995 10.593 15.096 20.414 13.447 4.474-.773 8.484-2.937 11.107-6.13 2.88-3.556 3.908-8.142 2.674-13.294zm-3.445 12.675c-2.469 2.988-6.222 5.049-10.49 5.77-9.307 1.546-17.638-3.246-19.283-12.623-1.131-19.063 27.973-24.164 32.292-5.616 1.131 4.895.206 9.171-2.52 12.469z"/><ellipse cx="9.102" cy="17.672" rx="4.885" ry="5.41"/><ellipse cx="11.364" cy="18.909" fill="#fff" rx="1.131" ry="1.391"/></g><path d="m92.221 52.932c-4.062.36-7.353 5.152-5.244 8.965 2.776 5.05 8.998-.464 12.855.052 4.473.103 8.124 4.74 11.672.824 3.96-4.328-1.697-8.553-6.17-10.408z" fill="#f6d2a2"/><path d="m112.019 56.384c-1.389-1.752-3.806-3.349-6.428-4.43l-.103-.052h-.103l-13.164.515c-4.576.412-7.867 5.719-5.656 9.738.874 1.545 2.057 2.318 3.651 2.421 1.183.052 2.417-.206 4.32-.876.154-.051.36-.103.616-.206 2.572-.876 3.6-1.133 4.628-.979h.052c1.234 0 2.262.361 4.216 1.134 2.16.876 2.828 1.133 3.908 1.236 1.492.103 2.777-.412 3.96-1.7 2.005-2.215 1.902-4.585.103-6.8zm-.875 6.08c-.977 1.082-1.954 1.442-3.136 1.39-.926-.05-1.543-.308-3.6-1.133-2.057-.875-3.188-1.185-4.525-1.236-1.285-.155-2.365.103-5.09 1.03-.258.103-.463.155-.618.206-3.753 1.289-5.553 1.185-6.787-1.082-1.851-3.349.977-7.883 4.833-8.243l13.01-.515c2.468 1.03 4.68 2.524 5.965 4.121 1.542 1.855 1.594 3.71-.052 5.462z" fill="#231f20"/><path d="m106.362 50.717c-1.594-5.874-14.963-4.998-14.655 2.009.669 5.204 16.198 3.813 14.655-2.01z"/></g></svg>