<svg xmlns="http://www.w3.org/2000/svg" xml:space="preserve" id="Upload_by_NICF-Nettie" width="420" x="0" y="0" viewBox="-59 104.3 476.1 632.6"><style>.st1{fill:#fff}</style><switch><g><path d="M417.1 662.7V174.5c.1-2.6-1.8-4.8-4.4-5l-455.1-65.3s-4-.5-5.7 2.4l-10.7 16.8-.2 595.3 12.3 16.4c.9 1.1 2.3 1.7 3.7 1.8 2 0 8.1-1 8.1-1l445.1-66.7c6.9-1 6.9-1.4 6.9-6.5" style="fill:#0d2880"/><path id="glanz" d="m-41.3 729.7 4.9-3.9-2.8-534.3-2.1-5.6z" class="st1"/><path d="m-41 110.6 3.4 5.3 441.4 58.5 4.1-.8z" class="st1"/><g id="Deutsch"><path id="_2" d="m21.3 509.7.1-123.1 14.1-15.4 30.7 34.3-.1 83.3-30.8 36.1zm36.5 38.4-14.1-14.4 30.5-36.1 82.8-4.1 26.7 30.8-12 15.2zm146-318.3-.3 112.3-12.2 14-26.5-32.9.2-79.4 26.7-30zm-39.2 157.8-98.5-.7-22.3-25 22.4-24.1 98.5 3.1 19.3 23.7zm-7-153.3-82.9-7.2L44 189.8l14.1-14 114.3 12.8 12 15.8z" class="st1"/><path id="_0" d="m338.7 404.7 22-28.8 9.9 13-.4 101.7-10 13.9-21.8-28.1zm-117.1 94 .3-110.8 11.4-13.9 24.9 30.9-.3 75.2-25.1 32.4zm29.5 34.8-11.4-13 24.9-32.4 67.7-3.4 21.9 28.1-10 13.8zm120.2-288-.5 102-10.1 12.7-21.7-29.8.3-72 22-27.4zm-112.8 81.6-25.1 30-11.4-14.3.3-111.2 11.4-13.4 24.9 33.6zm74.7-77.2-67.8-6-24.7-33.6 11.5-12.7 93.3 10.7 9.8 14.2z" class="st1"/></g><path id="minuten" d="M24.5 608.6c-2.4.3-3.3 1.7-3.3 3.8v58.2c0 2 .9 3.2 3.3 2.8l8.1-1.1c1.8 0 3.3-1.6 3.3-3.4v-41c-.1-1.9.7-3.8 2.1-5.1 2.4-2.5 5.7-4.7 9-5 5.4-.6 7.2 2.5 7.1 9.1l-.1 39.3c0 2 .9 3.1 3.2 2.8l7.8-1.1a3.4 3.4 0 0 0 3.2-3.4v-40.7c.1-1.8.8-3.4 2.1-4.7 2.3-2.5 5.6-4.6 8.7-4.9 5.3-.6 6.9 2.4 6.9 8.9l-.1 38.7c0 2 .8 3.1 3.1 2.8l7.6-1c1.8-.1 3.1-1.5 3.1-3.3v-.3l.1-42.5c0-10.5-5.6-17.3-15.7-16.3-7.3.8-12.9 4.5-16.9 7.9-.5.7-1.5.8-2.2.3l-.1-.1c-2.7-3.5-6.9-5.5-12.7-4.9-6.1.6-10.7 4-14.3 6.9-1.1.9-2.3.6-2.8-.6l-.4-1.1c-.4-1.3-1.8-2.1-3.1-1.8zm102.4-7.4c0-2-.8-3.2-3-2.9l-7.4.8c-2.2.2-3 1.5-3 3.6l-.1 55.5c0 1.9.8 3 3 2.7l7.4-1c2.2-.3 3-1.6 3-3.5zm-15-18c0 5.4 3.2 8.5 8.4 8s8.4-4.2 8.4-9.6-3.2-8.5-8.3-8c-5.2.5-8.5 4.2-8.5 9.6m28.7 71.3c0 1.9.8 3 2.9 2.7l7.1-1c2.1-.3 2.9-1.6 2.9-3.5l.1-38.3c-.1-1.8.6-3.5 1.9-4.8 2.5-2.5 5.7-4.2 9.1-4.8 4.9-.5 7.6 2.2 7.6 8.4l-.1 37c0 1.9.8 2.9 2.8 2.7l6.9-.9c2-.3 2.8-1.5 2.8-3.4l.1-40.7c0-10-6.4-16.4-15.5-15.5-5.5.6-10.8 3.8-14 6.5-.5.6-1.4.7-2 .1-.2-.2-.4-.4-.4-.7l-.3-1c-.3-1.2-1.5-2-2.8-1.7l-6.1.6c-2.1.2-2.9 1.6-2.9 3.5zm98.6-65.2c0-1.9-.7-3-2.6-2.8l-6.5.7c-1.9.2-2.7 1.4-2.7 3.3l-.1 36.8c0 1.8-.6 3.5-1.8 4.8-2.3 2.4-5.3 4.1-8.6 4.8-4.7.6-7.3-2.1-7.3-8.2l.1-36.1c0-2-.7-3-2.7-2.8l-6.7.7c-2 .2-2.8 1.5-2.8 3.4l-.1 40.3c0 9.9 6.3 16.1 15.1 14.9 5.2-.7 10.3-4 13.1-6.6.9-.9 1.9-.7 2.3.4l.3 1.1c.3 1.1 1.4 1.8 2.5 1.5l5.6-.8c2-.3 2.6-1.6 2.6-3.3zm17.1 36.2c0 11.2 4.5 16.8 13.5 15.6 5-.7 8-2.6 12.1-5.5 1.4-.6 2-2.2 1.3-3.6-.1-.1-.1-.2-.2-.3l-1.8-4.5c-.8-1.8-1.9-2.2-3.4-1.1-2.8 2-4.6 2.9-6.3 3.1-3 .4-3.9-2-3.9-6.5l.1-25.1c0-2.2 1-3.2 2.7-3.4l8.5-.9c1.6-.2 2.6-1.1 2.6-3.3v-5.2c0-2.1-1-2.9-2.6-2.7l-8.5.9c-1.8.2-2.7-.5-2.7-2.8v-8.7c0-1.9-.8-2.8-2.6-2.6l-6.2.6c-1.9.2-2.6 1.3-2.6 3.2v8.7c0 2.4-1.1 3.2-2.9 3.4l-3.8.4c-1.7.2-2.6 1.2-2.6 3.3v5.3c0 2.3.9 2.9 2.6 2.8l3.8-.4c1.8-.2 2.9.6 2.9 2.8zm67.5-15c1.4-.2 2.4-1.5 2.3-2.9v-4.1c.1-17.5-5.4-26.8-17.5-25.6-12 1.2-20.3 10.5-20.3 31.8-.1 20.4 8.8 27.5 20.2 26 6.2-.8 11-4.4 14.7-7.3 1.4-.8 2-2.5 1.4-3.9l-1.7-4.4c-.6-1.5-1.7-2-3.1-1.1-3.2 2.2-6.6 4.8-10.5 5.3-4.4.6-8.5-2.5-9.3-8.5-.2-1.7.5-2.6 1.6-2.7zm-24-9.7c0-6.2 3.1-11.2 7.9-11.8 4.5-.5 7.4 3.2 7.4 10 0 1.5-.6 2.3-2 2.5l-11.5 1.3c-1.3.3-1.9-.4-1.8-2m35.5 27.5c0 1.7.6 2.7 2.3 2.5l5.8-.8c1.7-.2 2.3-1.4 2.3-3.1l.2-34.4c-.1-1.6.5-3.1 1.5-4.3 1.9-2.2 4.5-3.7 7.4-4.2 4-.4 6.2 2.1 6.1 7.6l-.1 33.2c0 1.7.6 2.7 2.3 2.4l5.6-.8c1.7-.2 2.3-1.3 2.3-3l.2-36.6c0-9-5.2-14.8-12.5-14.1-4.4.5-8.7 3.3-11.3 5.7-.8.7-1.6.5-2-.5l-.3-.9c-.2-1-1.2-1.8-2.2-1.6l-5 .5c-1.7.2-2.4 1.4-2.4 3.1z" class="st1"/></g></switch></svg>