<svg xmlns="http://www.w3.org/2000/svg" width="420" fill-rule="evenodd" stroke-linejoin="round" stroke-miterlimit="1.414" clip-rule="evenodd" viewBox="0 0 400 400"><path fill="#f90" fill-rule="nonzero" d="M113.06 350.007 65.546 332.96v-69.64l47.512 16.19zm8.714 0 47.512-17.047v-69.64l-47.512 16.19zM70.43 258.112l48.086-13.535 44.587 14.376-44.587 15.137zm-13.936-5.394L8.982 235.673V166.03l47.512 16.189zm8.714 0 47.514-17.045V166.03l-47.514 16.19zM13.864 160.82l48.086-13.535 44.59 14.377-44.59 15.139zm153.496 91.898-47.514-17.045V166.03l47.513 16.189zm8.714 0 47.513-17.045V166.03l-47.513 16.189zM124.73 160.82l48.086-13.535 44.587 14.377-44.587 15.139zm99.195-5.395-47.514-17.04V68.741l47.514 16.185zm8.715 0 47.513-17.04V68.741l-47.514 16.185zm-51.345-91.893 48.086-13.537L273.97 64.37l-44.59 15.139zm153.495 91.893-47.513-17.04V68.741l47.513 16.185zm8.715 0 47.513-17.04V68.741l-47.513 16.185zM292.16 63.532l48.087-13.537 44.586 14.376-44.586 15.138z"/></svg>
