<svg xmlns="http://www.w3.org/2000/svg" width="400" height="400" viewBox="0 0 78.72 78.729"><path fill="#0089d6" d="m36.506 62.919 17.822-3.148.164-.039-9.164-10.903a1550.755 1550.755 0 0 1-9.163-10.953c0-.054 9.462-26.112 9.516-26.205.016-.03 6.458 11.087 15.61 26.95l15.703 27.22.118.207-29.128-.005-29.126-.003 17.648-3.119zM1.552 59.601c0-.015 4.32-7.512 9.598-16.66l9.597-16.635 11.183-9.387A3767.478 3767.478 0 0 1 43.151 7.52a1.965 1.965 0 0 1-.18.454L30.824 34.023 18.898 59.6l-8.673.012c-4.768.008-8.672 0-8.672-.015z" style="stroke-width:3.83902"/></svg>