<svg xmlns="http://www.w3.org/2000/svg" width="420" xml:space="preserve" style="fill-rule:evenodd;clip-rule:evenodd;stroke-linejoin:round;stroke-miterlimit:1.41421" viewBox="0 0 391 140"><path d="M5.289 92.796h7.474c5.635 0 7.647-4.025 7.647-7.073 0-6.611-4.082-7.761-9.486-7.761H5.289zm0-19.434h7.704c4.14-.058 6.152-2.587 6.152-6.611 0-3.45-1.954-6.268-6.382-6.268H5.289zM0 97.395V55.884h13.511c5.75 0 7.704 1.955 9.256 4.254 1.438 2.243 1.668 4.715 1.668 5.52 0 5.175-1.782 8.624-7.13 9.832v.287c5.922.691 8.51 4.255 8.51 9.946 0 10.637-7.762 11.672-12.476 11.672zm40.077 0V55.884h21.388v4.599H45.366v13.339h14.949v4.6H45.366v14.374H61.81v4.599zM94.182 66.98c0-4.886-2.012-7.532-7.359-7.532-1.667 0-7.646.288-7.646 8.97v14.028c0 9.085 2.644 11.385 7.646 11.385 3.795 0 6.325-1.035 7.417-1.84V79.572h-7.647v-4.6H99.53v20.181c-3.393 1.84-7.36 3.105-12.707 3.105-8.797 0-13.051-4.542-13.051-16.041V68.591c0-8.28 4.254-13.57 13.051-13.57 8.969 0 13.225 3.278 12.879 11.959zm31.856-6.209h-.115l-6.496 22.136h13.281zm-3.219-4.887h6.727l13.511 41.511h-5.922l-2.99-9.888h-16.041l-3.105 9.888h-5.347zm34.154 29.15v1.207c0 5.635 3.565 7.417 6.957 7.417 4.197 0 7.417-1.782 7.417-6.727 0-9.199-18.628-8.165-18.628-20.64 0-7.36 5.232-11.27 12.188-11.27 7.59 0 11.845 3.68 11.499 12.132h-5.519c.058-4.542-1.38-7.532-6.382-7.532-3.162 0-6.382 1.61-6.382 6.095 0 9.141 18.629 7.819 18.629 20.985 0 8.739-6.037 11.557-12.879 11.557-12.247.115-12.247-9.257-12.132-13.224zm52.437-2.588V68.418c0-8.682-5.978-8.97-7.646-8.97s-7.647.288-7.647 8.97v14.028c0 9.085 2.645 11.385 7.647 11.385s7.646-2.3 7.646-11.385m-20.697-.229V68.591c0-8.28 4.254-13.57 13.051-13.57s13.051 5.29 13.051 13.57v13.626c0 11.499-4.254 16.041-13.051 16.041s-13.051-4.542-13.051-16.041m39.215 15.178V55.884h20.584v4.599h-15.295v13.339h14.49v4.6h-14.49v18.973zm56.691-41.511v4.599h-10.923v36.912h-5.29V60.483h-10.923v-4.599z" style="fill:#04579c;fill-rule:nonzero"/><path d="M113.012 131.089h2.861c4.209 0 5.755-1.58 5.755-7.104v-4.802c0-4.802-1.48-6.577-4.637-6.577h-3.979zm-3.026-21.114h7.301c3.026 0 5.197 1.085 6.38 3.617.954 2.006 1.052 6.741 1.052 7.498 0 5.066-.459 7.992-1.446 9.57-1.283 2.04-3.683 3.059-7.828 3.059h-5.459zm23.955 23.744h-2.697v-16.607h2.697zm-2.861-23.744h3.026v2.893h-3.026zm14.853 9.044c-3.059 0-3.157 3.683-3.157 5.887 0 5.327 1.217 6.577 3.223 6.577 3.256 0 3.157-3.848 3.157-6.15 0-2.466.165-6.314-3.223-6.314m3.157-1.907h2.697v18.285c0 3.716-2.466 4.603-6.117 4.603-2.763 0-5.262-1.382-5.032-4.439h3.026c.033 1.546 1.052 2.401 2.532 2.401 1.875 0 2.894-1.151 2.894-2.861v-3.452h-.099c-.69 1.313-2.203 2.07-3.65 2.07-4.505 0-5.393-3.88-5.393-8.813 0-7.631 3.848-8.123 5.196-8.123 1.743 0 3.124.755 3.88 2.367h.066zm11.886 16.607h-2.697v-16.607h2.697zm-2.861-23.744h3.025v2.893h-3.025zm9.936 7.137v-3.191l2.696-1.217v4.408h3.618v2.038h-3.618v10.163c0 1.052 0 2.401 2.467 2.401.198 0 .625-.065 1.217-.133v2.073c-.888.065-1.776.262-2.664.262-2.565 0-3.716-1.052-3.716-2.96V119.15h-2.73v-2.038zm13.083 11.674c0 1.613.789 3.059 2.598 3.059 1.645 0 3.684-1.019 3.421-6.381-2.566.033-6.019-.197-6.019 3.322m6.084 2.533h-.065c-.823 1.907-2.105 2.729-4.178 2.729-3.518 0-4.538-2.269-4.538-5.459 0-5.032 4.933-5.263 8.716-5.164.065-2.203.098-4.603-2.796-4.603-1.809 0-2.763 1.216-2.598 2.959h-2.927c.131-3.716 2.105-4.998 5.623-4.998 4.276 0 5.394 2.203 5.394 4.998v7.991c0 1.317.132 2.664.329 3.947h-2.96zm9.245-21.344h2.697v23.744h-2.697zm17.976 14.272c0-4.834-1.349-5.425-3.323-5.425-1.71 0-3.124.822-3.157 5.425zm-6.48 2.04c0 4.638 1.25 5.558 3.356 5.558 1.841 0 2.795-1.48 2.893-3.157h2.96c-.033 3.683-2.302 5.36-5.788 5.36-3.519 0-6.314-1.053-6.314-8.386 0-4.868.559-8.879 6.314-8.879 4.735 0 5.92 2.597 5.92 8.089v1.415zm24.684 7.432v-23.744h3.025v21.114h8.715v2.63zm26.099-19.404h-3.091v-3.419h3.091zm-.954 10.195c0-4.537-1.414-5.524-3.485-5.524-2.072 0-3.486.987-3.486 5.524 0 5.394.69 7.335 3.486 7.335 2.794 0 3.485-1.941 3.485-7.335m-4.834-10.195h-3.091v-3.419h3.091zm-4.965 11.347c0-4.868.559-8.879 6.314-8.879s6.314 4.011 6.314 8.879c0 7.333-2.796 8.386-6.314 8.386-3.52 0-6.314-1.053-6.314-8.386m23.449 8.386c-3.585 0-5.822-1.579-5.723-5.393h3.059c0 .953.033 3.19 2.762 3.19 1.612 0 2.862-.821 2.862-2.532 0-2.961-8.287-3.026-8.287-7.992 0-1.744 1.051-4.538 5.721-4.538 2.96 0 5.492 1.413 5.262 4.702h-2.992c.032-1.742-.889-2.663-2.599-2.663-1.447 0-2.564.789-2.564 2.235 0 2.928 8.287 2.861 8.287 7.927 0 3.649-2.499 5.064-5.788 5.064m20.226-16.936h2.698v13.154a40 40 0 0 0 .164 3.453h-2.862v-2.005h-.098c-.888 1.512-2.466 2.334-4.209 2.334-2.894 0-4.473-1.447-4.473-4.276v-12.66h2.696v11.509c0 2.006.921 3.356 2.828 3.356 1.448 0 3.256-1.086 3.256-3.849zm18.221 16.607v-11.511c0-1.776-.624-3.222-2.927-3.222-2.96 0-3.387 2.631-3.387 4.899v9.834h-2.698v-13.155c0-1.151-.065-2.302-.164-3.452h2.862v2.136h.131c1.053-1.875 2.303-2.465 4.44-2.465 3.553 0 4.439 2.137 4.439 5.425v11.511zm14.703-14.7c-3.058 0-3.157 3.683-3.157 5.887 0 5.327 1.217 6.577 3.223 6.577 3.255 0 3.156-3.848 3.156-6.15 0-2.466.165-6.314-3.222-6.314m3.157-1.907h2.697v18.285c0 3.716-2.467 4.603-6.117 4.603-2.762 0-5.262-1.382-5.033-4.439h3.027c.032 1.546 1.052 2.401 2.532 2.401 1.875 0 2.894-1.151 2.894-2.861v-3.452h-.098c-.691 1.313-2.204 2.07-3.651 2.07-4.506 0-5.393-3.88-5.393-8.813 0-7.631 3.846-8.123 5.196-8.123 1.742 0 3.124.755 3.881 2.367h.065zm18.417 7.135c0-4.834-1.347-5.425-3.321-5.425-1.71 0-3.124.822-3.157 5.425zm-6.478 2.04c0 4.638 1.25 5.558 3.354 5.558 1.842 0 2.796-1.48 2.895-3.157h2.96c-.033 3.683-2.303 5.36-5.789 5.36-3.519 0-6.314-1.053-6.314-8.386 0-4.868.559-8.879 6.314-8.879 4.736 0 5.921 2.597 5.921 8.089v1.415zm24.471 7.432v-11.511c0-1.776-.625-3.222-2.927-3.222-2.961 0-3.388 2.631-3.388 4.899v9.834h-2.696v-13.155a41 41 0 0 0-.165-3.452h2.861v2.136h.132c1.052-1.875 2.302-2.465 4.438-2.465 3.553 0 4.441 2.137 4.441 5.425v11.511z" style="fill:#7c8184;fill-rule:nonzero"/><path d="M382.576 16.567h7.858v7.859h-7.858zm-15.714 39.288h7.857v7.859h-7.857zm-7.86-31.429h7.86v7.857h-7.86z" style="fill:#04579c;fill-rule:nonzero"/><path d="M351.147 16.567h7.857v7.859h-7.857zM343.289.85h7.858v7.859h-7.858zm-15.716 31.432h7.857v7.858h-7.857zm7.857 15.716h7.859v7.858h-7.859zm-15.715 31.43h7.858v7.858h-7.858zm-7.857-23.573h7.857v7.859h-7.857zM304 8.709h7.858v7.858H304z" style="fill:#04579c;fill-rule:nonzero"/></svg>
