<svg xmlns="http://www.w3.org/2000/svg" fill-rule="evenodd" stroke-linejoin="round" stroke-miterlimit="1.414" clip-rule="evenodd" viewBox="0 0 400 400"><path fill="#4da9e1" fill-rule="nonzero" d="M217.962 222.95c14.154-1.174 24.676-13.57 23.497-27.687s-13.607-24.61-27.763-23.437c-14.154 1.175-24.675 13.572-23.497 27.69s13.608 24.61 27.763 23.435zm29.966-.358a54.7 54.7 0 0 1-20.082 13.966l-.06.172a232.4 232.4 0 0 0 27.005 63.234 98.6 98.6 0 0 1-33.97 10.717l-1.68.218-1.996.151-4.001.304c-2.458 0-4.863.225-7.435.077a102.6 102.6 0 0 1-29.756-5.068 99 99 0 0 1-13.124-5.24 105 105 0 0 1-11.166-6.2 100 100 0 0 1-8.847-6.316c-2.605-1.954-4.645-3.935-6.416-5.479-3.384-3.24-5.25-5.196-5.25-5.196s1.571 2.176 4.516 5.881c1.553 1.778 3.342 4.053 5.694 6.384a103 103 0 0 0 8.128 7.656 110 110 0 0 0 10.655 7.972c4.165 2.765 8.52 5.23 13.035 7.382a113.5 113.5 0 0 0 15.02 5.97 115 115 0 0 0 16.405 3.86c2.767.536 5.758.714 8.648 1.068l4.019.238 2 .117 2.295.036c5.555.056 11.108-.288 16.614-1.03a117.2 117.2 0 0 0 27.548-7.273 230 230 0 0 0 10.615 13.34l-.512.315-4.423 2.73-.61.374-.155.095-.039.025c-.743.37.971-.477.778-.382l-.08.04-.326.167-1.343.68-2.83 1.434-1.486.751-.761.387-.386.194-.096.048-.049.026c-.133.056.995-.408.493-.2l-.198.086-3.283 1.437-3.454 1.514-.442.195-.056.023c.761-.271.18-.062.335-.117l-.11.05-.227.09-.915.358-1.86.725a135.4 135.4 0 0 1-52.998 8.914l-2.35-.085-2.658-.209-5.327-.425c-3.303-.522-6.608-.75-9.998-1.49a138.3 138.3 0 0 1-38.49-13.004c-2.939-1.465-5.773-3.004-8.462-4.675-2.767-1.552-5.31-3.322-7.82-5.014a141 141 0 0 1-13.457-10.52 134 134 0 0 1-10.352-10.174c-3.023-3.122-5.3-6.147-7.309-8.546-1.953-2.44-3.305-4.495-4.318-5.836l-1.51-2.086 1.297 2.227c.87 1.433 2.013 3.63 3.719 6.272 1.759 2.605 3.747 5.887 6.467 9.344a137 137 0 0 0 9.453 11.4 146 146 0 0 0 12.707 12.205c2.409 2.01 4.866 4.115 7.568 6.021 2.622 2.022 5.415 3.93 8.327 5.775a150 150 0 0 0 18.687 10.256 151.5 151.5 0 0 0 20.79 7.701c3.53 1.15 7.356 1.857 11.04 2.79l5.268.964 2.62.48 2.928.416a152 152 0 0 0 21.762 1.354 154 154 0 0 0 38.66-5.385l1.925-.534.947-.26 1.322-.422 3.591-1.155 3.41-1.098 3.701-1.425 2.96-1.139 1.406-.543.343-.132.085-.031.9-.444.164-.08.645-.313 4.68-2.266 5.845-2.833c3.974 3.792 8.068 7.47 12.315 10.986 0 0 20.24 20.785 31.386 12.237 10.48-8.034-1.593-33.232-1.593-33.232-16.217-46.097-46.526-85.96-86.655-113.972m-70.596-34.16-.117-.142a233.9 233.9 0 0 0-67.647-9.491 97.8 97.8 0 0 1 8.97-35.883l.707-1.534.927-1.77 1.86-3.546c1.3-2.078 2.384-4.235 3.873-6.331a102.2 102.2 0 0 1 20.075-22.486 99 99 0 0 1 11.408-8.324 105 105 0 0 1 11.188-6.155 100 100 0 0 1 10.06-4.138c3.047-1.165 5.805-1.845 8.055-2.523 4.547-1.156 7.205-1.698 7.205-1.698s-2.684.176-7.396.705c-2.335.37-5.216.679-8.446 1.433a103 103 0 0 0-10.816 2.823 110 110 0 0 0-12.425 4.79 106 106 0 0 0-13.181 7.116 113 113 0 0 0-13.04 9.542 115 115 0 0 0-11.972 11.833c-1.924 2.056-3.657 4.492-5.49 6.749l-2.33 3.273-1.157 1.629-1.25 1.922a115 115 0 0 0-7.926 14.6 116.6 116.6 0 0 0-8.685 28.54l-.067.396a232 232 0 0 0-16.68 2.137l.014-2.903.023-5.189v-.94c.08-.824-.108 1.073-.087.861l.008-.09.031-.364.135-1.495.277-3.148.148-1.656.075-.847.038-.428.008-.108.006-.055c.022-.142-.182 1.057-.091.524l.03-.217.516-3.536.544-3.724.07-.48.008-.058c-.176.79-.042.184-.078.346l.023-.12.045-.24.182-.962.37-1.954a134.5 134.5 0 0 1 20.496-49.554l1.317-1.944 1.586-2.135 3.183-4.28c2.193-2.52 4.136-5.194 6.563-7.67a138 138 0 0 1 31.45-25.668c2.8-1.708 5.612-3.293 8.457-4.683 2.787-1.52 5.638-2.73 8.406-3.957a142 142 0 0 1 16.075-5.81A135 135 0 0 1 187 46.048c4.256-.903 8.035-1.226 11.14-1.654 3.114-.369 5.576-.424 7.25-.57l2.576-.17-2.576-.092c-1.682-.024-4.156-.217-7.305-.178-3.143.108-6.991.049-11.371.52a137 137 0 0 0-14.702 1.954 146 146 0 0 0-17.112 4.283c-2.985.976-6.077 1.935-9.13 3.213-3.109 1.147-6.21 2.495-9.322 3.983a150 150 0 0 0-18.621 10.374 151 151 0 0 0-17.564 13.508c-2.848 2.376-5.476 5.24-8.222 7.86l-3.61 3.945-1.795 1.968-1.904 2.255a151 151 0 0 0-12.682 17.695 152.9 152.9 0 0 0-15.9 35.554l-.567 1.911-.28.94-.342 1.341-.92 3.65-.872 3.467a1747 1747 0 0 1-.75 3.888l-.599 3.109-.285 1.472-.07.36-.017.09-.1.996-.018.18-.075.711-.552 5.159-.98 9.174a234 234 0 0 0-16.015 4.932s-28.285 6.595-26.682 20.526c1.51 13.1 29.38 15.757 29.38 15.757a234.66 234.66 0 0 0 142.59-15.362 54.34 54.34 0 0 1-1.664-24.366zm199.2-15.138a151 151 0 0 0-3.494-21.844c-.728-3.63-1.995-7.303-2.99-10.964l-1.741-5.05-.87-2.512-1.075-2.747a151 151 0 0 0-9.513-19.569 153.2 153.2 0 0 0-23.701-30.932l-1.415-1.41-.694-.695-1.02-.936-2.772-2.55-2.636-2.424-3.064-2.517-2.45-2.012-1.16-.954-.282-.234-.07-.057-.832-.563-.149-.104-.588-.406-4.282-2.949-5.74-3.956a233 233 0 0 0 3.758-17.833c1.025-6.008 7.897-27.882-5.105-33.22-12.224-5.018-28.037 18.022-28.037 18.022a233.17 233.17 0 0 0-55.495 131.899 54.7 54.7 0 0 1 22.182 10.338l.179-.035a232.7 232.7 0 0 0 40.232-52.954 98.2 98.2 0 0 1 26.707 24.643l1.01 1.352 1.117 1.659 2.232 3.324c1.208 2.134 2.586 4.114 3.722 6.422a101.9 101.9 0 0 1 10.198 28.334 99 99 0 0 1 1.87 13.978c.282 4.243.308 8.498.074 12.744a100 100 0 0 1-1.168 10.79c-.435 3.224-1.153 5.971-1.633 8.265-1.166 4.531-1.96 7.114-1.96 7.114s1.131-2.434 2.917-6.814c.79-2.223 1.896-4.894 2.777-8.083a102 102 0 0 0 2.69-10.822 109 109 0 0 0 1.725-13.174c.367-4.975.38-9.97.039-14.948a112.6 112.6 0 0 0-2.166-15.985 114 114 0 0 0-4.691-16.145c-.89-2.668-2.207-5.354-3.318-8.034l-1.768-3.607-.88-1.793-1.096-2.012a115 115 0 0 0-9.065-13.925 117 117 0 0 0-20.525-20.883 234 234 0 0 0 6.548-16.157l.898.48 4.557 2.498.629.346.159.086.04.022c.688.463-.892-.609-.717-.489l.077.05.305.202 1.253.832 2.638 1.756 1.388.922.711.471.357.238.091.06.045.03c.116.087-.843-.664-.418-.326l.177.13 2.874 2.139 3.021 2.256.388.29.047.036c-.611-.532-.141-.125-.269-.233l.285.23.762.62 1.55 1.259a134.8 134.8 0 0 1 33.832 41.653l1.08 2.085 1.123 2.41 2.246 4.837c1.168 3.125 2.594 6.107 3.613 9.416a137.3 137.3 0 0 1 7.562 39.824c.165 3.27.218 6.49.078 9.647 0 3.167-.292 6.245-.536 9.256a140 140 0 0 1-2.574 16.859c-1.01 4.729-2.277 9.4-3.794 13.992-1.24 4.16-2.764 7.626-3.872 10.548-1.17 2.897-2.301 5.08-2.973 6.623l-1.082 2.337 1.313-2.213c.825-1.461 2.177-3.533 3.65-6.313 1.404-2.805 3.299-6.147 4.979-10.209a136 136 0 0 0 5.308-13.814 145 145 0 0 0 4.414-17.036c.572-3.08 1.197-6.249 1.538-9.53.477-3.273.77-6.635.95-10.072.43-7.09.35-14.2-.235-21.28"/></svg>