<svg xmlns="http://www.w3.org/2000/svg" height="50" viewBox="0 0 121 126"><g fill="none" fill-rule="evenodd"><path fill="#277a9f" d="M85.218 94.144c2.025-1.418 6.65 1.693 10.33 6.948s5.021 10.666 2.996 12.084-6.649-1.694-10.329-6.95c-3.68-5.255-5.022-10.665-2.997-12.082m-48.436 0c-2.025-1.418-6.65 1.693-10.33 6.948s-5.021 10.666-2.996 12.084 6.649-1.694 10.329-6.95c3.68-5.255 5.022-10.665 2.997-12.082m24.194 8.228c-2.472 0-4.476 5.201-4.476 11.617s2.004 11.617 4.476 11.617 4.475-5.2 4.475-11.617-2.004-11.617-4.476-11.617zm24.242-70.515c2.025 1.417 6.65-1.694 10.33-6.95 3.68-5.255 5.021-10.665 2.996-12.083-2.024-1.417-6.649 1.694-10.329 6.95-3.68 5.255-5.022 10.665-2.997 12.082zm-48.436 0c-2.025 1.417-6.65-1.694-10.33-6.95-3.68-5.255-5.021-10.665-2.996-12.083 2.024-1.417 6.649 1.694 10.329 6.95 3.68 5.255 5.022 10.665 2.997 12.082zm24.194-8.23c-2.472 0-4.476-5.2-4.476-11.616S58.504.394 60.976.394s4.475 5.2 4.475 11.617-2.004 11.617-4.476 11.617z"/><path stroke="#277a9f" stroke-width="7.161" d="M95.504 42.164C88.287 30.28 75.208 22.34 60.271 22.34c-14.528 0-27.298 7.512-34.627 18.857m.784 45.669c7.435 10.689 19.82 17.687 33.843 17.687 14.049 0 26.454-7.023 33.884-17.745"/><path fill="#277a9f" d="M.609 47.695h8.622v12.13h9.724v-12.13h8.622v32.582h-8.622V67.344H9.231v12.933H.609zm34.186 0h21.053v7.218H43.417v5.113h10.626v7.218H43.417v5.815h12.932v7.218H34.795zm27.87 0h8.622v25.364h12.33v7.218H62.666zm26.567 0h8.922l5.113 13.534 1.804 5.313h.2l1.805-5.313 4.913-13.534h8.922v32.582h-8.02v-9.624q0-1.254.125-2.758.126-1.504.276-3.082.15-1.579.35-3.083.202-1.504.352-2.707h-.2l-2.708 7.62-4.51 10.977h-3.209l-4.511-10.978-2.607-7.619h-.2q.15 1.204.35 2.707.201 1.504.351 3.083.15 1.578.276 3.083.126 1.503.125 2.757v9.624h-7.92V47.695z"/></g></svg>