<svg xmlns="http://www.w3.org/2000/svg" width="38" height="32" fill="none"><path fill="#0078fb" fill-rule="evenodd" d="M28.5 0h-19L0 16l9.5 16h19L38 16Zm-4.885 8.228h-9.23L9.771 16l4.614 7.772h9.23L28.229 16Z" clip-rule="evenodd"/><path fill="#737373" d="M16.23 11.331h5.508l2.754 4.638-2.754 4.638H16.23l-2.753-4.638z"/><path fill="#464646" d="m21.742 20.61-2.719-4.638-2.789 4.638Z"/><path fill="#c7c7c7" d="M21.742 11.331h-5.508l2.79 4.638z"/><path fill="#989898" d="M21.738 11.331 19.02 15.97h5.486l-2.768-4.638ZM19.02 15.97l-2.79-4.638-2.753 4.638Z"/><path fill="#0058fb" d="m28.498 32 9.5-16h-9.77l-4.615 7.772z"/><path fill="#0078fb" d="m28.498 32 4.886-8.227h-9.77L28.497 32Z"/><path fill="#4cbafb" d="M33.404 8.23h-9.79L28.227 16l5.176-7.772Z"/><path fill="#9ddafb" d="M33.402 8.238 28.227 16h9.77l-4.595-7.76Z"/><path fill="#0069e4" d="m19 32 4.615-8.227L28.5 32Z"/><path fill="#0101d7" d="M0 16h9.77l-5.155 7.772h9.77L19.141 32H9.5l-4.885-8.228Z"/><path fill="#0035fb" fill-rule="evenodd" d="M9.77 16.002 4.634 8.229 0 16.002zl4.615 7.772H4.633L9.77 16Z" clip-rule="evenodd"/><path fill="#0027fb" d="M23.612 8.228 19.138 0l-4.755 8.228h9.23z"/><path fill="#37a0fb" d="m28.498 0-4.885 8.228h9.79z"/></svg>