<svg xmlns="http://www.w3.org/2000/svg" fill-rule="evenodd" clip-rule="evenodd" viewBox="0 0 400 400"><path fill="#d33833" d="M332.55 193.149c0 74.877-59.344 135.576-132.548 135.576-73.203 0-132.546-60.7-132.546-135.576 0-74.878 59.343-135.579 132.546-135.579 73.204 0 132.548 60.701 132.548 135.579"/><path fill="#ef3d3a" fill-rule="nonzero" d="M72.856 226.727S63.261 85.343 193.536 81.303l-9.087-15.148-70.692 23.733-20.198 23.226-17.673 33.833-10.1 39.385 3.03 26.257"/><path fill="#231f20" fill-rule="nonzero" d="M109.218 100.661c-23.255 23.795-37.646 56.649-37.646 92.994 0 36.338 14.39 69.196 37.646 92.986 23.268 23.79 55.332 38.47 90.782 38.47s67.518-14.68 90.783-38.47c23.254-23.79 37.648-56.648 37.648-92.986 0-36.345-14.394-69.199-37.648-92.994C267.518 76.875 235.45 62.195 200 62.192c-35.45.003-67.514 14.683-90.782 38.47zm-5.886 191.735c-24.715-25.276-39.995-60.208-39.995-98.741 0-38.539 15.28-73.468 39.995-98.746C128.042 69.627 162.246 53.956 200 53.96c37.755-.004 71.962 15.667 96.668 40.95 24.717 25.277 39.999 60.21 39.996 98.745.003 38.533-15.279 73.465-39.996 98.741-24.706 25.281-58.913 40.95-96.668 40.95s-71.959-15.669-96.668-40.95z"/><path fill="#f0d6b7" d="m255.798 193.9-20.2 3.03-27.266 3.03-17.674.504-17.167-.504-13.13-4.04-11.613-12.623-9.09-25.753-2.019-5.554-12.118-4.039-7.07-11.614-5.049-16.663 5.555-14.644 13.128-4.545 10.603 5.05 5.05 11.109 6.06-1.01 2.02-2.524-2.02-11.614-.506-14.644 3.03-20.197-.118-11.537 9.207-14.72 16.158-11.614 28.278-12.119 31.305 4.545 27.267 19.693L281.044 61.1l8.078 14.644 2.02 36.356-6.06 31.307-11.108 27.77-10.604 14.645"/><path fill="#335061" d="m238.629 281.255-72.208 3.03v12.118l6.06 42.415-3.03 3.536-50.494-17.17-3.536-6.059-5.049-57.057L98.76 227.73l-2.525-8.079 40.394-27.77 12.625-5.051 11.108 13.633 9.593 8.585 11.11 3.534 5.049 1.515 6.06 26.256 4.544 5.555 11.614-4.04-8.08 15.654 43.93 20.702z"/><path fill="#6d6b6d" d="m118.957 105.03 13.128-4.545 10.603 5.05 5.05 11.109 6.06-1.01 1.515-6.06-3.03-11.612 3.03-27.773-2.525-15.149 9.089-10.603 19.692-15.653-5.554-7.574-27.772 13.633-11.614 9.09-6.564 14.137-10.1 13.634-3.029 16.158z"/><path fill="#dcd9d8" d="M139.659 57.566s7.574-18.683 37.87-27.772 1.515-6.565 1.515-6.565l-32.82 12.625-12.625 12.623-5.553 10.1zm-15.149 43.93S113.907 66.149 154.303 61.1l-1.515-6.06-27.772 6.566-8.08 26.256 2.021 17.168z"/><g fill="#f7e4cd"><path d="m140.67 148.455 6.61-6.406s2.984.347 3.488 3.881c.505 3.536 2.02 35.347 23.732 52.516 1.98 1.567-16.157-2.526-16.157-2.526l-16.16-25.247m91.398-31.811s1.177-15.306 5.299-14.129 4.122 5.3 4.122 5.3-10.01 6.475-9.42 8.83"/><path fill-rule="nonzero" d="M275.489 82.813s-8.323 1.758-9.089 9.09c-.767 7.333 9.089 1.514 10.604 1.01m-62.613-9.593s-11.11 1.514-11.11 8.582c0 7.07 12.625 6.566 16.16 3.536"/><path d="M145.718 116.14s-19.188-11.615-21.208-.505c-2.019 11.108-6.565 19.189 3.03 30.801l-6.564-2.02-6.059-15.652-2.02-15.148 11.613-12.12 13.13 1.01 7.574 6.06zm9.089-31.812s8.585-44.434 52.01-53.019c35.752-7.067 54.533 1.515 61.602 9.594 0 0-31.811-37.87-62.108-26.257-30.296 11.614-52.513 32.822-52.008 46.454.858 23.22.504 23.228.504 23.228m117.148-38.377s-14.643-.504-15.148 12.625c0 0-.002 2.02 1.008 4.039 0 0 11.616-13.13 18.684-6.06"/><path d="M207.835 63.982s-2.52-20.151-19.702-8.436c-11.108 7.575-10.098 18.178-8.078 20.198 2.019 2.02 1.469 6.088 3.007 3.296s1.031-11.88 6.586-14.405 14.66-5.345 18.187-.653"/></g><path fill="#49728b" d="m160.362 200.464-47.464 21.208s19.692 78.266 9.593 102.504l-7.07-2.524-.504-29.792-13.128-56.553-5.554-15.655 49.483-33.324zm4.881 43.289 6.733 8.217v30.296h-8.08s-1.009-21.207-1.009-23.732 1.009-11.615 1.009-11.615m1.514 39.892-22.722 1.009 6.566 4.544 16.157 2.526"/><path fill="#335061" d="m243.173 281.76 18.682-.504 4.545 46.455-19.188 2.524z"/><path fill="#335061" d="m248.222 281.76 28.277-1.514s11.613-29.287 11.613-30.801 10.1-42.416 10.1-42.416l-22.723-23.73-4.545-4.041-12.118 12.119v46.96z"/><path fill="#49728b" d="m260.845 278.226-17.672 3.535 2.524 14.139c6.564 3.03 17.673-5.05 17.673-5.05m-2.019-100.988 35.346 26.256 1.01-12.118-26.763-24.742z"/><path fill="#fff" d="m182.934 381.24-10.453-42.422-5.2-31.3-.86-23.234 47.314-2.519 29.438-.004-2.677 53.023 4.545 40.9-.505 7.575-38.375 3.03z"/><path fill="#dcd9d8" d="M236.608 281.256s-2.524 52.515 5.05 89.88c0 0-15.148 9.594-37.366 12.118l42.415-1.515 5.05-3.03-6.06-82.81-1.515-17.674"/><path fill="#fff" d="m267.26 323.676 19.693-5.555 37.365-2.02 5.555-17.167-10.1-29.792-11.612-1.515-16.159 5.05-15.503 7.569-8.23-1.51-6.414 2.52"/><path fill="#dcd9d8" d="M266.904 313.572s13.128-6.058 15.149-5.553l-5.554-27.773 6.564-2.524s4.545 26.257 4.545 29.286c0 0 28.275 1.515 30.8 1.515 0 0 6.06-11.614 4.545-23.733l5.555 16.159.504 9.089-8.078 12.118-9.09 2.02-15.147-.505-5.05-6.563-17.673 2.523-5.555 2.021"/><path fill="#fff" fill-rule="nonzero" d="m247.062 277.727-11.109-28.278-11.614-16.663s2.524-7.07 6.06-7.07h11.614l11.108 4.04-1.009 18.683z"/><path fill="#dcd9d8" d="M249.232 268.127s-14.139-27.265-14.139-31.305c0 0 2.524-6.06 6.06-4.545s11.11 5.553 11.11 5.553v-9.593l-17.17-3.536-11.613 1.515 19.693 46.456 4.039.505"/><path fill="#fff" fill-rule="nonzero" d="m187.479 201.48-13.988-1.52-13.13-4.04v4.544l6.415 7.074 20.198 9.09"/><path fill="#dcd9d8" d="M164.908 202.994s15.654 6.565 20.703 5.05l.503 6.054-14.136-3.024-8.585-6.06z"/><path fill="#d33833" d="M267.206 227.436c-8.568-.252-16.309-1.27-23.086-3.181.46-2.779-.402-5.505.29-7.506 1.89-1.36 5.056-1.34 7.911-1.66-2.469-1.213-5.938-1.693-8.787-.991-.067-1.929-.932-3.124-1.456-4.633 4.817-1.72 16.189-12.99 22.586-9.258 3.048 1.775 4.343 11.915 4.58 16.846.196 4.09-.372 8.216-2.038 10.383"/><path fill="none" stroke="#d33833" stroke-width="3.03" d="M267.206 227.436c-8.568-.252-16.309-1.27-23.086-3.181.46-2.779-.402-5.505.29-7.506 1.89-1.36 5.056-1.34 7.911-1.66-2.469-1.213-5.938-1.693-8.787-.991-.067-1.929-.932-3.124-1.456-4.633 4.817-1.72 16.189-12.99 22.586-9.258 3.048 1.775 4.343 11.915 4.58 16.846.196 4.09-.372 8.216-2.038 10.383z"/><path fill="#d33833" d="M226.234 213.43c-.022.648-.05 1.3-.075 1.955-2.676 1.757-6.994 1.736-9.93 3.213 4.328.19 7.735 1.232 10.682 2.701-.065 1.633-.127 3.265-.19 4.898-4.904 3.356-9.383 8.355-15.156 11.503-2.73 1.49-12.31 5.32-15.215 4.643-1.642-.382-1.79-2.42-2.448-4.343-1.398-4.116-4.62-10.667-4.902-16.863-.358-7.826-1.149-20.941 7.285-19.33 6.804 1.299 14.718 4.433 19.985 7.311 3.219 1.76 5.08 3.936 9.964 4.312"/><path fill="none" stroke="#d33833" stroke-width="3.03" d="M226.234 213.43c-.022.648-.05 1.3-.075 1.955-2.676 1.757-6.994 1.736-9.93 3.213 4.328.19 7.735 1.232 10.682 2.701-.065 1.633-.127 3.265-.19 4.898-4.904 3.356-9.383 8.355-15.156 11.503-2.73 1.49-12.31 5.32-15.215 4.643-1.642-.382-1.79-2.42-2.448-4.343-1.398-4.116-4.62-10.667-4.902-16.863-.358-7.826-1.149-20.941 7.285-19.33 6.804 1.299 14.718 4.433 19.985 7.311 3.219 1.76 5.08 3.936 9.964 4.312z"/><path fill="#d33833" d="M231.104 222.767c-.748-4.263-1.613-5.48-1.278-9.198 11.369-7.58 13.503 13.02 1.278 9.198"/><path fill="none" stroke="#d33833" stroke-width="3.03" d="M231.104 222.767c-.748-4.263-1.613-5.48-1.278-9.198 11.369-7.58 13.503 13.02 1.278 9.198z"/><path fill="#ef3d3a" d="M247.566 226.222s-3.536-5.05-1.01-6.565 5.05.002 6.565-2.524 0-4.04.504-7.07 3.032-3.535 5.555-4.04 9.595-1.514 10.604 1.01l-3.03-9.088-6.059-2.02-19.188 11.109-1.01 5.555v11.108m-45.95 19.188c-.606-7.88-1.248-15.75-1.962-23.622-1.07-11.755 2.824-9.704 13.013-9.704 1.557 0 9.583 1.856 10.157 3.03 2.754 5.624-4.605 4.375 3.172 8.616 6.565 3.58 18.163-2.174 15.51-10.131-1.484-1.77-7.735-.551-9.975-1.713l-11.834-6.135c-5.019-2.604-16.62-6.4-21.97-2.762-13.559 9.22.855 32.26 5.692 41.88"/><path fill="#231f20" d="M207.835 63.982c-13.762-3.205-20.602 5.76-24.773 15.058-3.725-.903-2.242-5.969-1.302-8.55 2.463-6.774 12.392-15.792 20.502-14.57 3.492.526 8.215 3.718 5.573 8.062m67.055 15.673.653.026c3.11 6.46 5.802 13.304 9.726 19.008-2.629 6.121-19.902 11.538-19.636.547 3.736-1.633 10.185-.334 13.496-2.42-1.915-5.255-4.678-9.728-4.238-17.161m-60.011.168c2.951 5.41 3.912 11.093 8.106 15.182 1.89 1.84 5.563 4.084 3.742 9.202-.426 1.208-3.536 3.9-5.33 4.428-6.558 1.936-21.838.4-16.664-7.775 5.423.252 12.713 3.521 16.766-.416-3.113-4.976-8.663-14.82-6.62-20.62m57.549 54.978c-9.874 6.343-20.883 13.24-37.062 11.64-3.457-3.005-4.775-9.693-1.416-14.11 1.748 3.005.65 8.533 5.521 9.364 9.18 1.571 19.864-5.615 26.467-8.127 4.095-6.903-.353-9.442-4.041-13.885-7.552-9.102-17.681-20.385-17.313-34.012 3.052-2.213 3.316 3.378 3.754 4.396 3.943 9.228 13.866 21.03 21.109 28.929 1.778 1.945 4.706 3.81 5.032 5.097.94 3.74-2.443 8.221-2.051 10.708m-130.166-6.677c-3.095-1.766-3.833-9.547-7.465-9.768-5.193-.315-4.246 10.094-4.225 16.18-3.575-3.245-4.202-13.235-1.577-18.366-2.994-1.469-4.33 1.621-5.988 2.71 2.133-15.496 22.67-7.187 19.255 9.244m136.453 13.13c-4.596 8.749-11.098 18.383-24.585 18.663-.274-2.825-.484-7.124.016-8.825 10.31-.99 16.675-6.238 24.569-9.838m-64.613 5.672c8.602 4.523 24.41 5.01 36.102 4.667.627 2.562.612 5.726.636 8.85-15.028.75-32.797-2.97-36.738-13.517m-1.636 8.435c5.95 14.934 26.393 13.215 43.634 12.803-.76 1.939-2.404 4.23-4.45 5.058-5.524 2.248-20.762 3.954-28.431-.12-4.864-2.586-7.99-8.428-10.654-11.853-1.288-1.654-7.695-5.88-.099-5.888"/><path fill="#81b0c4" d="M271.711 237.743c-6.98 11.955-13.66 24.234-21.94 34.779 3.471-10.209 4.957-27.295 5.481-40.32 7.264-3.4 13.484.764 16.459 5.54"/><path fill="#231f20" d="M309.273 280.71c-7.815 1.566-13.307 9.16-20.93 8.673 4.19-5.906 11.532-8.397 20.93-8.672m3.447 12.23c-6.37.673-13.851 1.705-20.312 1.173 3.059-4.672 14.842-3.06 20.312-1.173m2.208 10.545c-7.16.155-16.058.012-22.862-.559 4.025-4.323 18.219-1.604 22.862.56"/><path fill="#dcd9d8" d="M258.241 332.342c1.027 8.99 4.592 18.1 4.145 27.947-3.959 1.335-6.232 2.503-11.536 2.495-.374-8.368-1.493-21.16-1.159-29.138 2.609.173 6.455-1.863 8.55-1.304"/><path fill="#f0d6b7" d="M246.7 199.837c-3.595 2.346-6.657 5.276-10.109 7.782-7.656.378-11.834-.53-17.458-4.927.092-.353.657-.195.678-.628 8.196 3.652 18.613-1.488 26.889-2.227"/><path fill="#81b0c4" d="M203.677 255.7c2.252-9.756 11.075-14.81 19.087-20.183 8.27 10.495 13.298 23.992 18.837 37.017-13.085-3.945-26.455-10.345-37.924-16.833"/><path fill="#231f20" d="M249.691 333.646c-.334 7.978.785 20.77 1.16 29.138 5.303.008 7.576-1.16 11.535-2.495.447-9.846-3.118-18.956-4.145-27.947-2.095-.559-5.941 1.477-8.55 1.304zm-82.58-45.367c3.499 32.15 8.563 59.175 17.853 87.643 20.619 6.261 45.475 6.806 63.7 1.158-3.346-16.068-1.884-35.63-3.84-52.777-1.474-12.888-.722-25.855-2.743-39.004-22.083-4.594-53.296-1.074-74.97 2.98zm80.191-2.778c-.186 13.807.619 27.427 1.673 41.251 5.302-.795 8.9-1.327 13.826-2.407-1.6-13.309-1.403-28.284-4.661-40.058-3.766.037-7.082-.044-10.838 1.214zm26.896-2.226c-2.516-.577-5.446-.022-7.85.025 1.13 11.255 3.872 23.675 4.837 35.489 3.783.118 5.804-1.666 8.915-2.266.167-10.37-.906-24.659-5.902-33.248zm40.725 37.21c7.885-1.916 12.843-11.573 10.637-21.49-1.48-6.666-4.116-19.216-6.936-23.48-2.085-3.154-7.737-7.283-12.25-4.393-7.34 4.7-20.272 6.065-25.626 11.755 2.685 8.937 3.518 21.214 4.625 32.538 9.171.572 20.455-2.523 28.082.76-5.325 1.726-12.234 1.74-16.834 4.253 3.76 1.816 12.562 1.45 18.302.056zm-73.322-47.951c-5.539-13.025-10.568-26.522-18.837-37.017-8.012 5.373-16.835 10.427-19.087 20.184 11.469 6.488 24.839 12.888 37.924 16.833zm13.651-40.333c-.524 13.026-2.01 30.112-5.482 40.32 8.282-10.544 14.96-22.823 21.941-34.778-2.975-4.777-9.195-8.94-16.459-5.542zm-15.475-5.499c-3.137-.337-5.8 3.607-9.88 1.902-.935 1.033-1.784 2.152-2.737 3.161 9.01 10.858 13.105 26.264 20.064 39.025 3.734-12.258 3.304-25.687 4.126-39.066-5.13.326-7.977-4.64-11.573-5.022zm-9.951-13.133c-.335 3.719.53 4.935 1.278 9.198 12.225 3.822 10.09-16.778-1.278-9.198zm-13.556-4.45c-5.267-2.879-13.18-6.013-19.984-7.311-8.435-1.614-7.644 11.503-7.286 19.329.281 6.196 3.504 12.747 4.902 16.863.657 1.922.806 3.961 2.448 4.343 2.905.677 12.485-3.154 15.215-4.643 5.773-3.148 10.252-8.147 15.156-11.503.063-1.633.125-3.265.19-4.898-2.947-1.47-6.354-2.511-10.682-2.7 2.936-1.478 7.254-1.457 9.93-3.214.025-.654.053-1.307.075-1.955-4.884-.376-6.745-2.551-9.964-4.312zm-50.314-9.14c-4.372 4.439 12.263 10.49 17.559 10.815-.03-2.809 1.6-5.457 1.272-7.471-6.29-1.105-14.556-.376-18.83-3.344zm53.855 2.085c-.02.433-.586.275-.678.628 5.624 4.396 9.802 5.305 17.458 4.927 3.452-2.506 6.514-5.436 10.109-7.782-8.276.74-18.693 5.879-26.889 2.227zm49.432 14.989c-.236-4.93-1.531-15.071-4.579-16.846-6.397-3.734-17.769 7.539-22.586 9.258.524 1.509 1.389 2.704 1.456 4.633 2.849-.702 6.318-.222 8.787.992-2.855.32-6.021.298-7.91 1.659-.693 2 .17 4.727-.291 7.506 6.777 1.911 14.518 2.93 23.086 3.18 1.666-2.166 2.234-6.292 2.037-10.382zm-110.646-12.78c-1.372-.98-10.66-13.063-11.932-12.562-16.806 6.628-32.52 18.088-46.56 28.926 13.387 28.727 18.791 63.923 19.746 97.846 15.337 7.173 28.807 17.513 49.62 18.593-2.409-17.039-4.607-32.24-5.975-48.282-5.23-2.204-12.73.1-17.625-.683-.04-5.898 7.474-2.583 8.1-6.549.472-3-4.134-3.227-2.634-7.95 3.824 1.39 5.833 4.463 9.914 5.616 3.728-8.156-.053-22.586.485-29.403.101-1.28.64-7.091 3.507-6.072 2.537.903-.146 15.455.131 21.906.255 5.945-.716 11.696 1.691 15.427 20.11-2.737 40.544-4.506 62.303-5.103-4.786-2.054-10.473-3.998-16.708-7.512-3.38-1.906-14.034-5.87-15.01-9.08-1.555-5.116 4.083-7.84 5.048-12.226-10.15 5.537-12.13-5.307-14.533-12.988-2.175-6.958-3.414-12.155-3.948-16.168-8.745-4.169-18.093-8.39-25.62-13.737zm101.765-11.1c14.001-6.79 16.525 25.375 11.037 35.737.848 3.09 3.766 4.273 4.956 7.051-7.813 13.997-16.492 27.063-24.464 40.894 5.93-3.691 14.401-.66 21.38-3.423 2.551-1.009 4.398-6.849 6.33-11.52 5.312-12.854 10.89-29.058 13.37-41.323.561-2.795 2.088-8.885 1.746-11.372-.61-4.454-6.653-7.756-9.727-10.51-5.662-5.087-9.228-9.563-15.135-14.32-2.395 3.536-7.534 5.911-9.493 8.786zM126.575 69.006c-6.671 7.34-5.275 21.095-4.467 30.881 12.06-7.586 28.065.6 27.915 13.503 5.757-.153 2.151-7.19 1.109-11.725-3.404-14.809 5.734-30.898.415-44.44-10.33.783-18.814 5.002-24.972 11.78zM174.313 26.4c-15.104 4.28-34.46 15.255-40.668 28.824 4.806-.699 8.142-3.122 12.883-3.422 1.792-.117 4.139.751 6.2.24 4.103-1.019 7.566-10.22 10.662-13.643 3.018-3.344 6.646-4.772 9.127-7.82 1.595-.77 3.954-.717 4.043-3.111-.69-.74-1.418-1.303-2.247-1.068zm78.625 4.026c-15.677-8.845-42.213-15.498-58.89-7.185-13.454 6.71-31.644 17.81-37.844 31.877 5.792 13.574-1.717 26.012-2.195 39.794-.255 7.334 3.452 13.735 3.735 21.718-1.981 3.27-8.037 3.674-12.23 3.45-1.412-7.062-3.881-15-11.154-15.797-10.29-1.125-17.815 7.39-18.283 16.29-.553 10.466 8.04 27.813 20.217 26.608 4.705-.465 5.861-5.18 10.986-5.132 2.778 5.543-4.286 7.284-5.011 11.248-.19 1.024.584 5.026 1.036 6.903 2.212 9.139 7.142 20.967 11.996 27.924 6.16 8.826 18.263 10.156 31.281 11.02 2.327-5.009 10.893-4.597 16.474-3.286-6.69-2.65-12.908-9.073-18.061-14.758-5.922-6.523-11.92-13.52-12.222-22.045 11.188 15.52 20.432 29.075 40.775 35.903 15.393 5.162 33.371-2.366 45.199-10.672 4.908-3.453 7.838-8.93 11.326-13.944 13.054-18.777 19.145-45.577 17.806-71.553-.552-10.713-.527-21.39-4.122-28.597-3.757-7.537-16.463-14.279-23.901-7.462-1.379-7.329 6.185-11.861 15.07-9.224-6.336-8.176-12.984-18-21.988-23.08zm29.207 241.717c12.25-6.09 35.14-16.392 42.82.023 2.834 6.05 6.16 16.278 7.627 22.524 2.074 8.811-2.248 27.332-11.305 30.289-8 2.611-17.334 2.452-26.97.516-1.135-.944-2.398-2.589-3.281-4.303-6.88-.267-13.323.37-18.758 3.197.515 5.089-2.927 5.905-6.154 6.953-2.392 9.485 4.786 21.87 3.068 30.518-1.226 6.161-8.806 7.114-14.377 8.267-.182 3.423.243 6.282.624 9.178-1.274 4.694-6.988 7.367-12.402 8.021-17.813 2.142-44.859 3.104-61.993-3.057-4.781-11.728-8.547-25.991-12.53-39.382-16.71 1.784-30.225-7.211-42.966-13.104-4.413-2.045-10.514-3.172-12.163-6.683-1.598-3.4-.943-9.915-1.34-16.07-1.009-15.719-1.872-30.88-6.023-46.976-1.865-7.223-5.113-13.596-7.379-20.555-2.095-6.45-5.755-14.42-6.709-20.853-1.416-9.533 7.56-10.063 13.3-14.194 8.874-6.388 15.838-9.92 25.448-15.686 2.846-1.707 11.43-6.029 12.405-8.02 1.942-3.945-3.331-9.51-4.74-12.603-2.23-4.891-3.393-9.046-3.713-13.873-8.06-1.273-14.171-6.071-17.863-11.48-6.106-8.953-10.34-25.516-5.058-38.115.415-.992 2.481-2.943 2.786-4.467.601-3.001-1.132-6.991-1.24-10.183-.554-16.375 2.771-30.484 13.795-35.423 4.476-17.828 20.494-23.755 35.585-32.616 5.64-3.311 11.86-5.427 18.28-7.79 23.038-8.479 58.385-6.882 77.505 7.578 8.108 6.132 21.067 19.08 25.703 28.453 12.242 24.748 11.373 66.108 2.81 96.212-1.152 4.041-2.821 9.983-5.152 14.838-1.626 3.39-6.678 10.173-6.064 13.166.631 3.095 11.518 11.362 13.853 13.613 4.203 4.055 12.19 9.437 12.837 14.554.695 5.446-2.4 12.896-3.968 18.15-5.241 17.538-10.355 33.748-16.298 49.383"/><path fill="#f7e4cd" d="M200.415 150.747c.665-.884 4.32-2.228 9.432.234 0 0-6.06 1.01-5.555 11.112l-2.525-.505s-2.61-9.16-1.352-10.84"/><path fill="#1d1919" d="M244.688 237.579a2.778 2.778 0 1 1-5.555-.002 2.778 2.778 0 0 1 5.555.002m2.777 12.876a2.778 2.778 0 1 1-5.556-.002 2.778 2.778 0 0 1 5.556.002"/></svg>