<svg xmlns="http://www.w3.org/2000/svg" fill-rule="evenodd" stroke-linejoin="round" stroke-miterlimit="1.414" clip-rule="evenodd" viewBox="0 0 400 400"><path fill-rule="nonzero" d="M275.801 220.568c-14.867 0-28.195 6.587-37.323 16.957l-23.388-16.557c2.483-6.836 3.908-14.176 3.908-21.858 0-7.549-1.376-14.766-3.777-21.501l23.336-16.382c9.127 10.318 22.42 16.869 37.244 16.869 27.441 0 49.77-22.325 49.77-49.769 0-27.445-22.329-49.77-49.77-49.77-27.44 0-49.769 22.325-49.769 49.77 0 4.912.743 9.649 2.074 14.135l-23.351 16.39c-9.755-12.102-23.8-20.551-39.802-23.13v-28.144c22.544-4.735 39.53-24.765 39.53-48.699 0-27.445-22.328-49.769-49.769-49.769s-49.769 22.324-49.769 49.769c0 23.613 16.546 43.397 38.639 48.47v28.509c-30.151 5.292-53.155 31.606-53.155 63.252 0 31.8 23.232 58.21 53.601 63.323v30.104c-22.319 4.905-39.085 24.81-39.085 48.584 0 27.445 22.328 49.769 49.769 49.769s49.769-22.324 49.769-49.769c0-23.774-16.766-43.679-39.085-48.584v-30.105a64.26 64.26 0 0 0 39.129-22.757l23.544 16.664a49.5 49.5 0 0 0-2.039 13.999c0 27.444 22.329 49.769 49.769 49.769 27.441 0 49.77-22.325 49.77-49.769 0-27.445-22.329-49.77-49.77-49.77m0-116.372c13.307 0 24.13 10.828 24.13 24.131s-10.823 24.129-24.13 24.129-24.129-10.826-24.129-24.129 10.823-24.131 24.129-24.131M130.583 58.879c0-13.303 10.824-24.13 24.131-24.13s24.129 10.827 24.129 24.13-10.822 24.13-24.129 24.13-24.131-10.827-24.131-24.13m48.26 282.242c0 13.303-10.822 24.13-24.129 24.13s-24.131-10.827-24.131-24.13 10.824-24.13 24.131-24.13 24.129 10.827 24.129 24.13m-24.131-108.358c-18.559 0-33.656-15.095-33.656-33.653 0-18.559 15.097-33.657 33.656-33.657s33.656 15.098 33.656 33.657-15.098 33.653-33.656 33.653m121.089 61.705c-13.306 0-24.129-10.827-24.129-24.13s10.823-24.13 24.129-24.13 24.13 10.827 24.13 24.13-10.823 24.13-24.13 24.13"/></svg>