<svg height="200" width="200" xmlns="http://www.w3.org/2000/svg"><g fill="none" fill-rule="evenodd"><path d="M109.379 171.315c-.177.12-5.134-20.857-5.356-31.396C101.2 174.669 93.9 171.48 93.9 171.48c7.28 10.597 3.824 28.52 3.824 28.52h6.83s-1.24-14.861.26-21.659c.456-2.062 3.324-5.511 4.565-7.026" fill="#d3c7ad"/><path d="M101.434 177.597s-48.846-32.43-46.34-84.873C57.591 40.275 98.347 4.08 98.653 0c2.716 5.835 18.118 86.998 18.411 96.497 1.11 37.013-15.631 81.1-15.631 81.1" fill="#74b944"/><path d="M142.9 78.384C132.346 32.285 98.788 0 98.788 0v.07c12.844 53.983 2.6 176.712 2.6 176.712s52.49-34.95 41.512-98.398" fill="#46a046"/></g></svg>