<svg xmlns="http://www.w3.org/2000/svg" width="200" height="200"><path fill="#83cd29" fill-rule="evenodd" d="M99.66 200c-2.68 0-5.34-.701-7.683-2.057l-24.473-14.48c-3.652-2.044-1.87-2.767-.667-3.188 4.88-1.692 5.865-2.082 11.068-5.032.542-.304 1.26-.19 1.82.139l18.795 11.161c.686.377 1.645.377 2.275 0l73.286-42.301c.686-.39 1.122-1.176 1.122-1.984v-84.58c0-.828-.436-1.602-1.134-2.021L100.807 13.39a2.31 2.31 0 0 0-2.262 0L25.302 55.67a2.35 2.35 0 0 0-1.159 2.007v84.58c0 .81.449 1.576 1.153 1.96l20.079 11.6c10.893 5.446 17.568-.969 17.568-7.412v-83.51c0-1.18.947-2.113 2.125-2.113h9.298c1.159 0 2.118.933 2.118 2.113v83.51c0 14.537-7.914 22.875-21.699 22.875-4.238 0-7.572 0-16.882-4.589l-19.22-11.064c-4.748-2.743-7.683-7.875-7.683-13.37v-84.58c0-5.496 2.935-10.625 7.684-13.359l73.293-42.35c4.636-2.624 10.8-2.624 15.399 0l73.286 42.35a15.47 15.47 0 0 1 7.697 13.36v84.58a15.51 15.51 0 0 1-7.697 13.37l-73.286 42.315A15.4 15.4 0 0 1 99.66 200m22.641-58.273c-32.075 0-38.793-14.72-38.793-27.07 0-1.173.947-2.11 2.118-2.11h9.48c1.059 0 1.937.76 2.106 1.794 1.427 9.648 5.695 14.516 25.089 14.516 15.436 0 22.01-3.493 22.01-11.685 0-4.722-1.862-8.228-25.855-10.577C98.402 104.611 86 100.181 86 84.138c0-14.788 12.464-23.607 33.36-23.607 23.481 0 35.097 8.15 36.568 25.633a2.15 2.15 0 0 1-.555 1.631c-.405.42-.966.677-1.551.677h-9.516a2.11 2.11 0 0 1-2.057-1.656c-2.28-10.15-7.833-13.396-22.89-13.396-16.857 0-18.813 5.874-18.813 10.273 0 5.331 2.312 6.884 25.07 9.895 22.522 2.978 33.222 7.194 33.222 23.025 0 15.969-13.317 25.114-36.537 25.114"/></svg>