<svg xmlns="http://www.w3.org/2000/svg" width="420" fill-rule="evenodd" stroke-linejoin="round" stroke-miterlimit="1.414" clip-rule="evenodd" viewBox="0 0 400 400"><g fill-rule="nonzero"><path fill="#c22133" d="M376.324 120.688c-3.946-8.151-8.513-16.018-13.812-23.437l-56.61 20.602c6.582 6.738 12.114 14.312 16.638 22.412zM126.08 183.3l-56.627 20.602c.724 9.082 2.292 18.052 4.489 26.84l53.793-19.585c-1.75-9.098-2.37-18.474-1.655-27.857"/><path fill="#db212e" d="M251.753 104.65c11.779 5.498 21.98 12.994 30.588 21.783l56.61-20.602c-15.681-22.006-37.042-40.394-63.21-52.604-80.934-37.74-177.491-2.601-215.223 78.324-12.217 26.186-16.759 54-14.621 80.935l56.618-20.602c.94-12.27 3.93-24.566 9.418-36.353 24.522-52.578 87.242-75.394 139.82-50.88m60.381 103.454c-.904 12.26-3.998 24.557-9.503 36.353-24.514 52.586-87.243 75.403-139.812 50.889-11.796-5.506-22.075-12.942-30.648-21.748l-56.499 20.558c15.648 22.007 36.983 40.403 63.168 52.622 80.935 37.731 177.473 2.593 215.214-78.341 12.226-26.169 16.733-53.983 14.579-80.892z"/><path fill="#eb2126" d="m326.056 138.986-53.792 19.576c9.995 17.905 14.716 38.516 13.166 59.247l56.498-20.55a163.1 163.1 0 0 0-15.872-58.273M77.47 229.452l-53.793 19.594a163.8 163.8 0 0 0 25.298 54.835l56.49-20.567c-14.502-14.89-24.144-33.734-27.995-53.862"/><path fill="#ad213b" d="M368.125 105.774c-1.784-2.895-3.637-5.748-5.61-8.522l-56.61 20.602c2.49 2.55 4.782 5.256 6.97 8.03zm-242.26 88.897c-.138-3.774-.078-7.566.215-11.365l-56.628 20.601c.294 3.628.75 7.23 1.293 10.823l55.12-20.06z"/><path fill="#ba2133" d="m368.63 187.545-56.5 20.559a103.3 103.3 0 0 1-4.772 24.298l61.496-22.42c.44-7.514.37-15.01-.225-22.437M75.678 294.165a160 160 0 0 0 14.398 17.483l61.504-22.428a104.6 104.6 0 0 1-19.413-15.622z"/></g></svg>