<svg xmlns="http://www.w3.org/2000/svg" xml:space="preserve" style="fill-rule:evenodd;clip-rule:evenodd;stroke-linejoin:round;stroke-miterlimit:2" viewBox="0 0 318 138"><path d="M0 13.086V8.103h11.83c1.809 0 3.221-.513 4.234-1.54 1.013-1.026 1.519-2.376 1.519-4.052 0-1.701-.506-3.051-1.519-4.051-1.013-.999-2.425-1.499-4.234-1.499H-3.768V21.27h-5.104V-8.184H11.83c1.702 0 3.221.25 4.558.749 1.337.5 2.465 1.203 3.383 2.107.918.905 1.621 2.006 2.106 3.302.487 1.297.729 2.755.729 4.376 0 1.593-.242 3.045-.729 4.355-.485 1.31-1.188 2.438-2.106 3.383-.918.945-2.046 1.681-3.383 2.207-1.337.527-2.856.791-4.558.791H0Z" style="fill:#091836;fill-rule:nonzero" transform="translate(8.872 116.049)"/><path d="M285.205 376.885h16.327v4.335h-16.327v-4.335Zm-8.872 17.138V364.57h26.293v5.144h-21.189v19.163h21.23v5.146h-26.334Z" style="fill:#091836;fill-rule:nonzero" transform="translate(-241.208 -256.704)"/><path d="m0 29.859-4.416-7.414h-13.937l2.432-4.174h9.034L-13.45 7.253l-13.37 22.606h-5.874L-15.76 1.661c.297-.512.649-.918 1.053-1.215.406-.297.892-.446 1.459-.446.567 0 1.047.149 1.438.446.392.297.736.703 1.034 1.215L6.199 29.859H0Z" style="fill:#091836;fill-rule:nonzero" transform="translate(96.583 107.46)"/><path d="m0 29.453-16.489-12.965c-.46-.35-.749-.695-.871-1.033a3.253 3.253 0 0 1-.182-1.113c0-.46.08-.866.243-1.216.161-.351.512-.73 1.053-1.135L-.648 0h7.899l-19.284 14.382L7.859 29.453H0ZM-24.268 0h5.146v29.453h-5.146V0Z" style="fill:#091836;fill-rule:nonzero" transform="translate(130.21 107.866)"/><path d="M0 29.453v-5.146h22.08c1.378 0 2.438-.35 3.179-1.053.744-.701 1.116-1.634 1.116-2.795 0-1.27-.372-2.222-1.116-2.857-.741-.634-1.801-.952-3.179-.952H8.548c-1.378 0-2.627-.209-3.746-.628-1.122-.418-2.067-.999-2.837-1.742a7.657 7.657 0 0 1-1.783-2.653C-.237 10.6-.446 9.479-.446 8.265c0-1.189.196-2.29.588-3.303a7.04 7.04 0 0 1 1.742-2.613c.77-.729 1.722-1.302 2.855-1.722C5.874.209 7.17 0 8.629 0h21.149v5.144H8.629c-1.189 0-2.106.318-2.755.953-.648.634-.973 1.519-.973 2.653 0 1.135.331 2.013.994 2.634.662.621 1.561.931 2.694.931H22.08c2.999 0 5.273.703 6.826 2.107 1.553 1.405 2.329 3.539 2.329 6.401 0 1.243-.189 2.391-.566 3.443a7.446 7.446 0 0 1-1.703 2.736c-.755.769-1.708 1.371-2.855 1.803-1.148.432-2.491.648-4.031.648H0Z" style="fill:#0580c4;fill-rule:nonzero" transform="translate(153.302 107.866)"/><path d="M0 29.453c-2.053 0-3.949-.386-5.691-1.155a14.154 14.154 0 0 1-4.539-3.16c-1.283-1.336-2.282-2.923-2.998-4.76-.715-1.837-1.074-3.821-1.074-5.956 0-2.16.359-4.132 1.074-5.915.716-1.783 1.715-3.302 2.998-4.558 1.283-1.256 2.796-2.227 4.539-2.917C-3.949.344-2.053 0 0 0h15.962v5.144H0c-1.323 0-2.546.237-3.666.709a8.648 8.648 0 0 0-2.896 1.965 9.012 9.012 0 0 0-1.905 2.998c-.46 1.162-.689 2.446-.689 3.85 0 1.377.229 2.66.689 3.848.458 1.189 1.094 2.208 1.905 3.058a8.724 8.724 0 0 0 2.896 2.006c1.12.486 2.343.729 3.666.729h15.962v5.146H0Z" style="fill:#0580c4;fill-rule:nonzero" transform="translate(202.404 107.866)"/><path d="m0 29.859-4.415-7.414h-13.938l2.432-4.174h9.034L-13.45 7.253l-13.369 22.606h-5.875l16.935-28.198c.296-.512.648-.918 1.053-1.215.405-.297.892-.446 1.458-.446.567 0 1.047.149 1.438.446.392.297.737.703 1.034 1.215L6.199 29.859H0Z" style="fill:#0580c4;fill-rule:nonzero" transform="translate(253.248 107.46)"/><path d="M0 29.453V0h5.146v24.307h19.81v5.146H0Z" style="fill:#0580c4;fill-rule:nonzero" transform="translate(262.607 107.866)"/><path d="M541.33 376.885h16.328v4.335H541.33v-4.335Zm-8.872 17.138V364.57h26.294v5.144h-21.189v19.163h21.229v5.146h-26.334Z" style="fill:#0580c4;fill-rule:nonzero" transform="translate(-241.208 -256.704)"/><path d="m0-52.003-30.098 30.376a3.916 3.916 0 0 1-5.626-.063l-14.118-14.907a3.918 3.918 0 0 0-5.578-.112l-5.15 5.02a3.918 3.918 0 0 0-.036 5.575L-35.67-1.179a3.916 3.916 0 0 0 5.495.043L.172-30.555a3.917 3.917 0 0 1 5.488.035L36.864.507a3.578 3.578 0 0 0 2.524 1.041h11.32c3.192 0 4.786-3.863 2.523-6.114L5.545-52.023a3.917 3.917 0 0 0-5.545.02" style="fill:#0580c4;fill-rule:nonzero" transform="translate(192.727 88.969)"/><path d="m0-45.267 13.64 13.572a3.916 3.916 0 0 0 5.495.029l5.253-5.115a3.919 3.919 0 0 0 .03-5.583L.104-66.561a3.916 3.916 0 0 0-5.501-.024l-85.136 83.264c-2.293 2.242-.705 6.137 2.502 6.137h11.41a3.58 3.58 0 0 0 2.501-1.02L-5.5-45.291a3.916 3.916 0 0 1 5.5.024" style="fill:#091836;fill-rule:nonzero" transform="translate(162.181 67.702)"/></svg>