<svg xmlns="http://www.w3.org/2000/svg" xml:space="preserve" style="fill-rule:evenodd;clip-rule:evenodd;stroke-linejoin:round;stroke-miterlimit:2" viewBox="0 0 318 138"><path d="M0 13.086V8.103h11.83q2.714 0 4.234-1.54 1.52-1.538 1.519-4.052 0-2.551-1.519-4.051-1.52-1.499-4.234-1.499H-3.768V21.27h-5.104V-8.184H11.83q2.553 0 4.558.749 2.006.75 3.383 2.107t2.106 3.302q.73 1.945.729 4.376 0 2.39-.729 4.355-.728 1.965-2.106 3.383t-3.383 2.207-4.558.791z" style="fill:#091836;fill-rule:nonzero" transform="translate(8.872 116.049)"/><path d="M285.205 376.885h16.327v4.335h-16.327zm-8.872 17.138V364.57h26.293v5.144h-21.189v19.163h21.23v5.146z" style="fill:#091836;fill-rule:nonzero" transform="translate(-241.208 -256.704)"/><path d="m0 29.859-4.416-7.414h-13.937l2.432-4.174h9.034L-13.45 7.253l-13.37 22.606h-5.874L-15.76 1.661q.446-.769 1.053-1.215Q-14.098 0-13.248 0t1.438.446 1.034 1.215L6.199 29.859z" style="fill:#091836;fill-rule:nonzero" transform="translate(96.583 107.46)"/><path d="m0 29.453-16.489-12.965q-.689-.526-.871-1.033a3.3 3.3 0 0 1-.182-1.113q0-.69.243-1.216.242-.527 1.053-1.135L-.648 0h7.899l-19.284 14.382L7.859 29.453zM-24.268 0h5.146v29.453h-5.146z" style="fill:#091836;fill-rule:nonzero" transform="translate(130.21 107.866)"/><path d="M0 29.453v-5.146h22.08q2.067 0 3.179-1.053 1.116-1.053 1.116-2.795 0-1.905-1.116-2.857-1.112-.951-3.179-.952H8.548q-2.067 0-3.746-.628-1.682-.627-2.837-1.742a7.7 7.7 0 0 1-1.783-2.653q-.628-1.54-.628-3.362 0-1.783.588-3.303a7.04 7.04 0 0 1 1.742-2.613Q3.039 1.256 4.739.627 6.441 0 8.629 0h21.149v5.144H8.629q-1.782 0-2.755.953-.973.952-.973 2.653 0 1.703.994 2.634t2.694.931H22.08q4.498 0 6.826 2.107 2.33 2.108 2.329 6.401 0 1.865-.566 3.443a7.45 7.45 0 0 1-1.703 2.736q-1.133 1.154-2.855 1.803-1.721.648-4.031.648z" style="fill:#0580c4;fill-rule:nonzero" transform="translate(153.302 107.866)"/><path d="M0 29.453q-3.079 0-5.691-1.155a14.2 14.2 0 0 1-4.539-3.16q-1.924-2.004-2.998-4.76-1.073-2.754-1.074-5.956 0-3.24 1.074-5.915t2.998-4.558 4.539-2.917Q-3.079 0 0 0h15.962v5.144H0q-1.985 0-3.666.709a8.65 8.65 0 0 0-2.896 1.965 9 9 0 0 0-1.905 2.998q-.69 1.744-.689 3.85 0 2.066.689 3.848.688 1.783 1.905 3.058a8.7 8.7 0 0 0 2.896 2.006q1.68.729 3.666.729h15.962v5.146z" style="fill:#0580c4;fill-rule:nonzero" transform="translate(202.404 107.866)"/><path d="m0 29.859-4.415-7.414h-13.938l2.432-4.174h9.034L-13.45 7.253l-13.369 22.606h-5.875l16.935-28.198q.445-.769 1.053-1.215T-13.248 0t1.438.446 1.034 1.215L6.199 29.859z" style="fill:#0580c4;fill-rule:nonzero" transform="translate(253.248 107.46)"/><path d="M0 29.453V0h5.146v24.307h19.81v5.146z" style="fill:#0580c4;fill-rule:nonzero" transform="translate(262.607 107.866)"/><path d="M541.33 376.885h16.328v4.335H541.33zm-8.872 17.138V364.57h26.294v5.144h-21.189v19.163h21.229v5.146z" style="fill:#0580c4;fill-rule:nonzero" transform="translate(-241.208 -256.704)"/><path d="m0-52.003-30.098 30.376a3.916 3.916 0 0 1-5.626-.063l-14.118-14.907a3.92 3.92 0 0 0-5.578-.112l-5.15 5.02a3.92 3.92 0 0 0-.036 5.575L-35.67-1.179a3.916 3.916 0 0 0 5.495.043L.172-30.555a3.917 3.917 0 0 1 5.488.035L36.864.507a3.58 3.58 0 0 0 2.524 1.041h11.32c3.192 0 4.786-3.863 2.523-6.114L5.545-52.023a3.917 3.917 0 0 0-5.545.02" style="fill:#0580c4;fill-rule:nonzero" transform="translate(192.727 88.969)"/><path d="m0-45.267 13.64 13.572a3.916 3.916 0 0 0 5.495.029l5.253-5.115a3.92 3.92 0 0 0 .03-5.583L.104-66.561a3.916 3.916 0 0 0-5.501-.024l-85.136 83.264c-2.293 2.242-.705 6.137 2.502 6.137h11.41a3.58 3.58 0 0 0 2.501-1.02L-5.5-45.291a3.916 3.916 0 0 1 5.5.024" style="fill:#091836;fill-rule:nonzero" transform="translate(162.181 67.702)"/></svg>