<svg xmlns="http://www.w3.org/2000/svg" viewBox="0 0 283.46 187.31"><path d="M0 45.75h42.38c18.24 0 28.91 11.79 28.91 27.36 0 13.75-8 24.14-21.89 26.8l26.71 55.26h-9.96l-26.01-54.7H9.12v27.38H0zm42.1 46.02c13.05 0 20.07-7.44 20.07-18.66S55.15 54.45 42.1 54.45H9.12v37.33H42.1Zm116.97 60.04c0 20.06-13.89 35.5-34.24 35.5s-34.52-15.43-34.52-35.5v-98c0-19.92 14.03-35.64 34.52-35.64s34.24 15.72 34.24 35.64zm-59.64 0c0 15.43 10.52 26.8 25.4 26.8s25.12-11.23 25.12-26.8v-98c0-15.43-10.52-26.94-25.12-26.94s-25.4 11.51-25.4 26.94zm156.68 35.34V54.49h-18.23v-8.73h45.58v8.73h-18.24v132.66zM177.31.04h9.12v100.43l30.3-29.41h11.93l-27.64 27.03 44.1 57.06h-11.18l-39.37-50.74-8.14 7.86v24.79h-9.12z" style="fill:#0a1432"/></svg>