<svg xmlns="http://www.w3.org/2000/svg" width="50" height="50" fill="none"><g clip-path="url(#a)"><g clip-path="url(#b)"><path fill="#bccbd1" d="M2.98 28.665c1.728.06 3.158-1.55 3.158-3.635 0-2.026-1.43-3.635-3.158-3.576C1.31 21.514 0 23.123 0 25.09c0 1.907 1.311 3.516 2.98 3.575m40.524-14.72c.12 1.967 1.669 3.635 3.337 3.695 1.669.12 2.801-1.311 2.682-3.159-.179-1.847-1.609-3.456-3.218-3.635-1.669-.179-2.92 1.192-2.801 3.1zM4.052 42.49c-1.55-.238-2.562.835-2.205 2.444.358 1.49 1.788 2.92 3.278 3.278 1.55.298 2.682-.656 2.384-2.265-.239-1.609-1.788-3.218-3.457-3.456ZM5.125 1.847c-1.49.358-2.92 1.788-3.278 3.278-.298 1.55.655 2.682 2.205 2.444C5.72 7.33 7.27 5.78 7.508 4.112c.298-1.55-.774-2.563-2.383-2.265m1.371 34.267c-.12-1.966-1.669-3.635-3.337-3.694C1.49 32.3.358 33.73.537 35.578c.178 1.847 1.609 3.457 3.158 3.635 1.669.18 2.92-1.192 2.801-3.099m40.524-14.66c-1.728-.06-3.158 1.55-3.158 3.576s1.43 3.695 3.158 3.635c1.669-.06 2.98-1.668 2.98-3.635 0-1.907-1.311-3.576-2.98-3.576m-33.67 7.39c2.026 0 3.754-1.669 3.754-3.814s-1.668-3.874-3.754-3.814c-2.027.06-3.636 1.728-3.636 3.814 0 2.085 1.61 3.814 3.636 3.814M3.1 17.7c1.727-.06 3.217-1.788 3.336-3.695.12-1.908-1.132-3.278-2.8-3.1-1.61.239-2.98 1.848-3.219 3.636-.119 1.847 1.073 3.278 2.682 3.158ZM24.97 6.138c2.087 0 3.696-1.43 3.636-3.158C28.546 1.31 26.937 0 24.971 0c-1.967 0-3.576 1.311-3.636 2.98 0 1.728 1.61 3.158 3.636 3.158zm20.977 1.431c1.55.238 2.563-.835 2.205-2.444-.357-1.49-1.788-2.92-3.278-3.277-1.549-.298-2.681.655-2.443 2.205.298 1.668 1.848 3.277 3.516 3.516m-32.538 9.654c2.026-.06 3.754-1.788 3.814-3.814s-1.55-3.516-3.516-3.397c-1.967.12-3.576 1.788-3.695 3.695-.12 2.026 1.37 3.576 3.397 3.516m22.885-7.211c-1.967-.12-3.576 1.43-3.516 3.397.06 2.026 1.787 3.754 3.813 3.814s3.517-1.55 3.397-3.516c-.06-1.907-1.728-3.576-3.694-3.695m.298 22.825c-2.027.06-3.755 1.788-3.814 3.814s1.549 3.516 3.516 3.456c1.966-.119 3.575-1.788 3.694-3.695.12-2.026-1.43-3.635-3.396-3.575m9.296 9.713c-1.669.239-3.218 1.788-3.456 3.397-.298 1.61.834 2.563 2.383 2.265 1.49-.298 2.92-1.788 3.278-3.278.358-1.55-.596-2.681-2.205-2.383zM46.9 32.36c-1.727.12-3.217 1.788-3.396 3.754-.12 1.907 1.132 3.278 2.8 3.1 1.61-.239 3.04-1.848 3.219-3.636.179-1.847-1.013-3.278-2.622-3.218zM36.055 43.564c-1.966.119-3.635 1.609-3.754 3.337-.12 1.61 1.311 2.801 3.158 2.622 1.848-.179 3.397-1.609 3.636-3.158.238-1.669-1.133-2.92-3.04-2.801M13.409 32.837c-2.026-.06-3.516 1.49-3.397 3.516.12 1.967 1.788 3.576 3.695 3.695 1.967.06 3.576-1.43 3.516-3.397-.06-2.086-1.788-3.755-3.814-3.814M14.422.536c-1.848.18-3.397 1.61-3.635 3.159-.18 1.669 1.192 2.92 3.099 2.8 1.966-.118 3.635-1.668 3.754-3.336.12-1.67-1.311-2.801-3.218-2.623m10.548 20.62c-2.146 0-3.874 1.728-3.874 3.933 0 2.146 1.728 3.874 3.933 3.874 2.146 0 3.874-1.728 3.874-3.933 0-2.146-1.728-3.874-3.933-3.874m.06 22.765c-2.027 0-3.696 1.43-3.636 3.159.06 1.669 1.669 2.98 3.635 2.98 1.907 0 3.516-1.311 3.576-2.98.06-1.728-1.55-3.159-3.576-3.159z"/><path fill="#109aaf" fill-rule="evenodd" d="M36.65 21.216c-1.966 0-3.695-.715-5.065-2.146l-.596-.595c-1.43-1.43-2.146-3.1-2.146-5.066-.06-1.967.656-3.576 1.967-4.768.298-.238.298-.238.596-.536 1.311-1.192 2.92-1.728 4.708-1.61 1.967.12 3.337-1.131 3.158-2.8-.178-1.61-1.847-2.98-3.635-3.218C33.79.357 32.36 1.49 32.48 3.159c.119 1.609-.477 3.039-1.788 4.23-.298.24-.298.24-.537.537-1.37 1.252-3.039 1.848-5.006 1.848-2.145 0-3.873 1.609-3.873 3.635s1.669 3.754 3.814 3.754c2.026 0 3.814.716 5.244 2.146l.596.596c1.43 1.43 2.146 3.158 2.086 5.185 0 2.085-.715 3.814-2.086 5.244l-.596.596c-1.43 1.43-3.158 2.145-5.184 2.086-2.205 0-3.874 1.668-3.874 3.754.06 1.907-.656 3.516-1.967 4.768-.298.238-.298.238-.596.536-1.31 1.192-2.86 1.728-4.708 1.61-1.966-.12-3.337 1.131-3.158 2.8.238 1.61 1.847 2.98 3.635 3.218 1.848.179 3.278-1.013 3.159-2.622-.12-1.61.476-3.04 1.787-4.231.298-.239.298-.239.537-.537 1.31-1.251 3.04-1.847 5.006-1.847 2.086 0 3.814-1.61 3.873-3.635 0-1.967.716-3.695 2.146-5.066l.596-.596c1.43-1.43 3.099-2.145 5.065-2.145 2.027 0 3.695-1.728 3.695-3.814-.06-2.265-1.668-3.993-3.695-3.993z" clip-rule="evenodd"/></g></g><defs><clipPath id="a"><path fill="#fff" d="M0 0h214.286v50H0z"/></clipPath><clipPath id="b"><path fill="#fff" d="M0 0h50v50H0z"/></clipPath></defs></svg>