<svg xmlns="http://www.w3.org/2000/svg" fill-rule="evenodd" stroke-linejoin="round" stroke-miterlimit="1.414" clip-rule="evenodd" viewBox="0 0 400 400"><path fill="#68bd45" fill-rule="nonzero" d="M377.64 180.391 305.827 56.055c-6.234-10.799-21.545-19.68-34.014-19.68H128.187c-12.433 0-27.78 8.881-34.014 19.645L22.36 180.355c-6.252 10.799-6.252 28.42 0 39.29L94.173 343.98c6.234 10.8 21.545 19.645 34.014 19.645h143.626c12.433 0 27.762-8.881 34.014-19.645l71.813-124.335c6.252-10.782 6.252-28.437 0-39.254zM184.476 105.15a14.628 14.628 0 0 1-.009-.513c0-8.127 6.687-14.814 14.814-14.814 8.126 0 14.813 6.687 14.813 14.814 0 .171-.003.342-.009.513v88.473c.006.171.009.342.009.513 0 8.127-6.687 14.814-14.813 14.814-8.127 0-14.814-6.687-14.814-14.814 0-.171.003-.342.009-.513zm14.814 188.777c-55.033-.045-100.293-45.342-100.293-100.375 0-31.686 15.004-61.57 40.416-80.498a13.164 13.164 0 0 1 7.86-2.604c7.221 0 13.164 5.942 13.164 13.164 0 4.157-1.97 8.077-5.304 10.559a74.103 74.103 0 0 0-29.912 59.458c0 40.623 33.428 74.051 74.051 74.051s74.05-33.428 74.05-74.051v-.008a74.454 74.454 0 0 0-30.071-59.556 13.206 13.206 0 0 1-5.415-10.658c0-7.238 5.956-13.194 13.195-13.194 2.796 0 5.521.888 7.78 2.537 25.629 18.911 40.787 48.932 40.787 80.783 0 55.041-45.267 100.346-100.308 100.392z"/></svg>