<?xml version="1.0" standalone="no"?>
<!DOCTYPE svg PUBLIC "-//W3C//DTD SVG 1.1//EN" "http://www.w3.org/Graphics/SVG/1.1/DTD/svg11.dtd">
<svg width="100%" height="100%" viewBox="0 0 768 411" version="1.1" xmlns="http://www.w3.org/2000/svg" xmlns:xlink="http://www.w3.org/1999/xlink" xml:space="preserve" style="fill-rule:evenodd;clip-rule:evenodd;stroke-linejoin:round;stroke-miterlimit:1.41421;">
    <g transform="matrix(1,0,0,1,-0,-1.93275)">
        <g transform="matrix(4.16667,0,0,4.16667,0,0)">
            <path d="M151.266,20.26C149.702,19.892 149.151,20.26 148.139,19.892C147.127,19.525 142.254,16.399 136.829,17.042C131.403,17.685 127.081,19.157 123.496,20.444C119.91,21.732 116.23,25.501 116.508,26.146C116.784,26.789 119.634,27.431 120.37,27.065C121.105,26.697 121.198,25.225 126.438,22.466C131.68,19.709 136.739,19.249 139.311,19.157C141.887,19.065 144.094,20.996 144.094,20.996C144.094,20.996 142.53,25.408 142.622,27.431C142.713,29.456 142.807,34.052 143.174,34.972C143.542,35.891 144.459,36.443 144.459,36.443C144.459,36.443 144.094,40.122 141.334,43.616C138.575,47.109 132.6,47.385 129.38,47.662C119.634,48.764 107.864,44.903 107.864,44.903C107.864,44.903 105.842,44.995 105.473,45.455C105.107,45.914 105.29,46.375 105.473,47.662C105.657,48.95 101.428,61.454 101.428,62.373C101.428,63.292 102.255,64.763 102.716,65.131C103.175,65.5 105.199,65.867 106.209,65.5C107.222,65.131 110.623,49.683 111.635,49.224C112.646,48.764 120.002,51.157 129.563,50.788C139.127,50.42 141.334,47.937 143.725,46.557C146.116,45.178 147.954,38.098 147.954,38.098L149.61,38.283C149.61,38.283 156.782,43.431 162.208,57.959C167.631,72.489 167.817,91.797 167.817,91.797L169.471,93.084C169.471,93.084 173.149,92.625 176.09,93.084C179.036,93.545 182.344,95.016 183.081,94.739C183.815,94.464 184.643,88.58 184,88.302C183.356,88.029 171.678,88.487 171.678,88.487C171.678,88.487 169.563,70.281 166.161,59.155C162.76,48.029 151.817,35.524 151.817,35.524C151.817,35.524 154.024,27.524 154.208,26.053C154.391,24.582 152.829,20.627 151.266,20.26Z" style="fill:rgb(0,111,182);fill-rule:nonzero;"/>
            <path d="M156.965,5.732C156.782,4.078 156.415,1.871 153.657,0.767C150.897,-0.336 149.057,1.871 148.506,2.606C147.954,3.342 146.485,11.065 145.749,13.639C145.012,16.215 148.323,18.237 148.323,18.237C148.323,18.237 149.61,19.158 151.817,18.421C154.024,17.685 157.151,7.387 156.965,5.732ZM153.012,8.491C152.645,10.146 150.254,14.192 150.254,14.192C150.254,14.192 151.45,5.823 151.725,5.365C152,4.905 152.553,4.538 152.553,4.538C152.553,4.538 153.381,6.834 153.012,8.491Z" style="fill:rgb(0,111,182);fill-rule:nonzero;"/>
            <path d="M0.279,91.68C1.119,92.041 2.359,92.4 3.659,92.4C4.399,92.4 5.119,92.28 5.119,91.56C5.119,89.8 0,91.041 0,87.28C0,84.88 2.359,83.9 4.439,83.9C5.679,83.9 6.939,84.041 8.099,84.5L7.819,87C7.06,86.541 5.919,86.3 5.02,86.3C4.239,86.3 3.359,86.44 3.359,87.02C3.359,88.64 8.719,87.36 8.719,91.32C8.719,94.1 6.219,94.8 3.859,94.8C2.239,94.8 1.139,94.64 0.08,94.3L0.279,91.68Z" style="fill:rgb(0,111,182);fill-rule:nonzero;"/>
            <path d="M10.359,84.14L12.48,84.14L12.48,81.8L16.02,80.7L16.02,84.14L18.54,84.14L18.54,86.66L16.02,86.66L16.02,90.5C16.02,91.76 16.319,92.4 17.46,92.4C17.819,92.4 18.199,92.32 18.56,92.26L18.679,94.6C18,94.68 17.319,94.8 16.42,94.8C13.199,94.8 12.42,93.38 12.42,90.9L12.42,86.66L10.359,86.66L10.359,84.14Z" style="fill:rgb(0,111,182);fill-rule:nonzero;"/>
            <path d="M24.099,90.4C24.299,91.84 25.399,92.4 27.159,92.4C28.139,92.4 29.259,92.18 30.339,91.6L30.339,94.14C29.179,94.6 27.859,94.8 26.519,94.8C23.079,94.8 20.459,92.78 20.459,89.34C20.459,85.9 22.799,83.9 26.039,83.9C29.899,83.9 31.299,86.64 31.299,89.74L31.299,90.4L24.099,90.4ZM28.059,88.36C28.059,87.16 27.499,86.18 26.059,86.18C24.759,86.18 24.139,87.16 24.059,88.36L28.059,88.36Z" style="fill:rgb(0,111,182);fill-rule:nonzero;"/>
            <path d="M33.499,84.14L36.819,84.14L36.819,86.02L36.859,86.02C37.579,84.56 39.099,83.9 40.739,83.9C43.619,83.9 45.199,86.64 45.199,89.16C45.199,92.24 43.539,94.8 40.439,94.8C39.179,94.8 37.819,94.34 37.139,93.1L37.099,93.1L37.099,98.76L33.499,98.76L33.499,84.14ZM39.299,86.66C37.979,86.66 37.099,87.82 37.099,89.38C37.099,90.9 38.099,92.041 39.299,92.041C40.659,92.041 41.479,90.9 41.479,89.24C41.479,87.86 40.699,86.66 39.299,86.66Z" style="fill:rgb(0,111,182);fill-rule:nonzero;"/>
            <path d="M47.259,84.14L50.579,84.14L50.579,86.02L50.619,86.02C51.339,84.56 52.859,83.9 54.499,83.9C57.379,83.9 58.959,86.64 58.959,89.16C58.959,92.24 57.299,94.8 54.199,94.8C52.939,94.8 51.579,94.34 50.899,93.1L50.859,93.1L50.859,98.76L47.259,98.76L47.259,84.14ZM53.059,86.66C51.739,86.66 50.859,87.82 50.859,89.38C50.859,90.9 51.859,92.041 53.059,92.041C54.419,92.041 55.239,90.9 55.239,89.24C55.239,87.86 54.459,86.66 53.059,86.66Z" style="fill:rgb(0,111,182);fill-rule:nonzero;"/>
            <path d="M64.719,82.44L61.119,82.44L61.119,79.8L64.719,79.8L64.719,82.44ZM61.119,84.14L64.719,84.14L64.719,94.56L61.119,94.56L61.119,84.14Z" style="fill:rgb(0,111,182);fill-rule:nonzero;"/>
            <path d="M67.779,84.14L71.059,84.14L71.059,86.06L71.099,86.06C71.819,84.56 73.259,83.9 74.899,83.9C77.739,83.9 78.879,85.9 78.879,88.06L78.879,94.56L75.279,94.56L75.279,89.52C75.279,87.56 74.599,86.9 73.619,86.9C72.139,86.9 71.379,87.92 71.379,90.16L71.379,94.56L67.779,94.56L67.779,84.14Z" style="fill:rgb(0,111,182);fill-rule:nonzero;"/>
            <path d="M92.559,93.34C92.559,97.62 90.479,99 86.279,99C84.559,99 83.139,98.64 82.299,98.34L82.479,95.5C83.579,96.041 84.499,96.36 85.999,96.36C88.079,96.36 89.199,95.38 89.199,93.34L89.199,92.78L89.159,92.78C88.299,94 87.099,94.56 85.659,94.56C82.799,94.56 81.019,92.4 81.019,89.32C81.019,86.22 82.479,83.9 85.719,83.9C87.259,83.9 88.499,84.74 89.259,86.02L89.299,86.02L89.299,84.14L92.559,84.14L92.559,93.34ZM86.779,91.8C88.059,91.8 89.079,90.72 89.079,89.12C89.079,87.96 88.399,86.66 86.779,86.66C85.439,86.66 84.739,87.84 84.739,89.26C84.739,90.88 85.699,91.8 86.779,91.8Z" style="fill:rgb(0,111,182);fill-rule:nonzero;"/>
            <path d="M99.999,91.68C100.84,92.041 102.08,92.4 103.38,92.4C104.12,92.4 104.84,92.28 104.84,91.56C104.84,89.8 99.719,91.041 99.719,87.28C99.719,84.88 102.08,83.9 104.16,83.9C105.4,83.9 106.66,84.041 107.82,84.5L107.54,87C106.78,86.541 105.64,86.3 104.74,86.3C103.959,86.3 103.08,86.44 103.08,87.02C103.08,88.64 108.439,87.36 108.439,91.32C108.439,94.1 105.939,94.8 103.58,94.8C101.959,94.8 100.86,94.64 99.799,94.3L99.999,91.68Z" style="fill:rgb(225,178,49);fill-rule:nonzero;"/>
            <path d="M109.68,84.14L111.8,84.14L111.8,81.8L115.34,80.7L115.34,84.14L117.86,84.14L117.86,86.66L115.34,86.66L115.34,90.5C115.34,91.76 115.64,92.4 116.78,92.4C117.14,92.4 117.52,92.32 117.88,92.26L118,94.6C117.32,94.68 116.64,94.8 115.74,94.8C112.52,94.8 111.74,93.38 111.74,90.9L111.74,86.66L109.68,86.66L109.68,84.14Z" style="fill:rgb(225,178,49);fill-rule:nonzero;"/>
            <path d="M119.379,89.36C119.379,85.9 122,83.9 125.439,83.9C128.879,83.9 131.5,85.9 131.5,89.36C131.5,92.8 128.879,94.8 125.439,94.8C122,94.8 119.379,92.8 119.379,89.36ZM127.779,89.36C127.779,87.8 127.1,86.42 125.439,86.42C123.779,86.42 123.1,87.8 123.1,89.36C123.1,90.9 123.779,92.28 125.439,92.28C127.1,92.28 127.779,90.9 127.779,89.36Z" style="fill:rgb(225,178,49);fill-rule:nonzero;"/>
            <path d="M133.639,84.14L136.919,84.14L136.919,86.06L136.959,86.06C137.679,84.56 139.12,83.9 140.759,83.9C143.599,83.9 144.74,85.9 144.74,88.06L144.74,94.56L141.139,94.56L141.139,89.52C141.139,87.56 140.459,86.9 139.479,86.9C138,86.9 137.24,87.92 137.24,90.16L137.24,94.56L133.639,94.56L133.639,84.14Z" style="fill:rgb(225,178,49);fill-rule:nonzero;"/>
            <path d="M150.519,90.4C150.719,91.84 151.819,92.4 153.58,92.4C154.559,92.4 155.679,92.18 156.759,91.6L156.759,94.14C155.599,94.6 154.279,94.8 152.939,94.8C149.5,94.8 146.879,92.78 146.879,89.34C146.879,85.9 149.219,83.9 152.459,83.9C156.319,83.9 157.719,86.64 157.719,89.74L157.719,90.4L150.519,90.4ZM154.479,88.36C154.479,87.16 153.919,86.18 152.479,86.18C151.179,86.18 150.559,87.16 150.479,88.36L154.479,88.36Z" style="fill:rgb(225,178,49);fill-rule:nonzero;"/>
        </g>
    </g>
</svg>
