<svg xmlns="http://www.w3.org/2000/svg" width="420" xml:space="preserve" viewBox="0 0 2125.2 251.4"><path d="M479.5 107.6c-3.7-6.9-11-13.5-21.5-13.5-9.2 0-17 4.1-17 11.2 0 6.7 5.9 9.3 12.2 10.5l18.8 4c23.3 4.7 36.3 18.2 36.3 36 0 20.6-18.4 41.7-51.5 41.7-29.5 0-43.3-14.8-50.2-25.4l26.4-16.9c3.5 7.9 12.1 14.8 23.3 14.8 10.9 0 17.8-5.7 17.8-11.2 0-5.8-4-9-14-11.2l-17-3.6c-25.4-5.7-35-20.2-35-37.2 0-22 20.2-39.3 49.6-39.3 25.6 0 40.7 12.8 48.2 23.5zm114.5 0c-3.7-6.9-11-13.5-21.5-13.5-9.2 0-17 4.1-17 11.2 0 6.7 5.9 9.3 12.2 10.5l18.8 4c23.3 4.7 36.3 18.2 36.3 36 0 20.6-18.4 41.7-51.5 41.7-29.5 0-43.3-14.8-50.2-25.4l26.4-16.9c3.5 7.9 12.1 14.8 23.3 14.8 10.9 0 17.8-5.7 17.8-11.2 0-5.8-4-9-14-11.2l-17-3.6c-25.4-5.7-35-20.2-35-37.2 0-22 20.2-39.3 49.6-39.3 25.6 0 40.7 12.8 48.2 23.5zM70.8 13.4c34.5 0 54.5 20.5 63.3 36.3l-31 18.3C99 59.2 88.8 45.2 70.5 45.2c-16.4 0-27.8 9-27.8 20.1 0 10.4 6.5 17.7 19.8 20.1l23.9 4.9c34.9 7 51.4 24.2 51.4 51.5 0 26.8-23.2 55.4-67.8 55.4-32.2 0-57.8-15.1-70.1-39.2L31 139.1c4.3 8.7 16.6 26.1 38.6 26.1 17.8 0 30-8.8 30-20.5 0-10.6-7.4-17.9-21.9-20.7l-25-5C22.8 112.9 5.3 93.4 5.3 67.5c0-31.3 26.7-54.1 65.5-54.1m637.4 0c34.5 0 54.5 20.5 63.3 36.3l-31 18.3c-4.1-8.9-14.3-22.8-32.7-22.8-16.4 0-27.8 9-27.8 20.1 0 10.4 6.5 17.7 19.8 20.1l23.9 4.9c34.9 7 51.4 24.2 51.4 51.5 0 26.8-23.2 55.4-67.8 55.4-32.2 0-56.7-15.1-69-39.2l30.5-18.7c4.3 8.7 16 26 38 26 17.8 0 30-8.8 30-20.5 0-10.6-7.4-17.9-21.9-20.7l-25-5c-29.9-6.2-47.4-25.7-47.4-51.6.2-31.3 26.9-54.1 65.7-54.1M256.8 70.5l21.8 78.1L300 70.5h34.8L296.6 194h-32.8l-24.5-81-25.4 81h-31.6L143.5 70.5h37.1l21.3 77.8 22-77.8zm110.8-58.3c11.7 0 21.2 9.3 21.2 20.7s-9.5 20.7-21.2 20.7c-11.2 0-20.7-9.3-20.7-20.7s9.4-20.7 20.7-20.7M350.7 194V70.5h34.2V194zM816.2 12.2c11.7 0 21.2 9.3 21.2 20.7s-9.5 20.7-21.2 20.7c-11.2 0-20.7-9.3-20.7-20.7s9.4-20.7 20.7-20.7M799.3 194V70.5h34.2V194zm79.2 1.1c7.5 11.5 21 18.5 33.3 18.5 20.4 0 33.6-11.2 33.6-32.1V173c-4.5 6.7-17.1 15.7-34.3 15.7-32.5 0-56.9-26.3-56.9-60 0-31.9 23.4-60.7 56.9-60.7 19.8 0 32.1 11 35.5 17.4V70.5H980v106.6c0 34.9-21 66.6-67 66.6-24.5 0-45.6-11.5-57.7-27.1zm68.2-66.4c0-18.1-12.7-29.9-28.7-29.9-16.3 0-29.3 11-29.3 29.9s11.8 29.9 29.3 29.9c17.3 0 28.7-11.7 28.7-29.9m94.4 65.3h-34.2V70.5h33v14.3c7.9-11.3 22.1-17.5 35.5-17.5 30.8 0 46 24.6 46 50.6V194h-34.2v-72.5c0-13-8-22.7-22.1-22.7-12.8 0-23.9 10.5-23.9 23.8V194z"/><path d="M1331.6 74.2c-6.8-14.2-22.9-29.1-48.7-29.1-26.1 0-55.7 17.8-55.7 59.9 0 40.2 26.6 60.4 55.7 60.4 32.1 0 44.3-20.7 46.3-33.2H1280v-31.3h83.8V194h-29l-1.1-20.1c-8 12.1-26.5 23.8-53.3 23.8-48.7 0-89.7-35.1-89.7-92.6s43.3-92.9 92.3-92.9c40.5 0 67.3 20.8 79 44zm134.1 30c-3.8-.8-6.7-1-9.8-1-17.1 0-30.8 8.3-30.8 34.9V194H1391V70.5h33.5v18.3c7.5-16.3 23.2-19.3 33.7-19.3 2.8 0 5 .3 7.5.5zm136.9 28c0 37.9-27.7 65.5-65.3 65.5-37.7 0-65.3-27.6-65.3-65.5 0-38.2 27.7-65.5 65.3-65.5s65.3 27.4 65.3 65.5m-34.2 0c0-22.6-14.8-34.6-31.1-34.6s-31.1 12-31.1 34.6c0 22.3 14.8 34.6 31.1 34.6s31.1-12 31.1-34.6m132.4 48.2c-7 11.4-20 16.9-33 16.9-29.9 0-47.8-21.8-47.8-48.7V70.5h34.2v71c0 14.6 6.5 24.9 22 24.9 14.8 0 22.8-10 22.8-24.4V70.5h34.2V194H1702c-.2-2.6-.9-8.7-1.2-13.6m59.1 59.9V70.5h33.2v15.1c5.5-9.5 19.3-17.8 37.9-17.8 36.9 0 57.6 27.6 57.6 64.3 0 37.4-23.2 65-58.8 65-17.1 0-29.6-6.8-35.7-15.1v58.3zm64.6-142.4c-17.1 0-30.6 12.5-30.6 34.4 0 21.8 13.5 34.6 30.6 34.6s30.6-12.5 30.6-34.6c0-21.9-13.5-34.4-30.6-34.4" style="fill:#eb0000"/></svg>
