<svg xmlns="http://www.w3.org/2000/svg" fill-rule="evenodd" clip-rule="evenodd" viewBox="0 0 4255 1897"><clipPath id="a"><path d="M0 0h200v200H0z"/></clipPath><clipPath id="b"><path d="M0 0h256v279H0z"/></clipPath><clipPath id="c"><path d="M0 0h512v512H0z"/></clipPath><path fill="none" d="M0 0h4254.618v1896.429H0z"/><g fill="#3273dc"><g fill-rule="nonzero"><path d="M260.31 341.939c-1.165 0-1.456-.583-.874-1.456l6.115-7.861c.582-.873 2.038-1.456 3.202-1.456h103.94c1.165 0 1.456.874.873 1.747l-4.949 7.57c-.582.873-2.038 1.747-2.912 1.747zm-43.963 26.785c-1.165 0-1.456-.582-.874-1.455l6.114-7.861c.583-.874 2.038-1.456 3.203-1.456h132.763c1.165 0 1.747.873 1.456 1.747l-2.33 6.987c-.29 1.165-1.455 1.747-2.62 1.747zm70.457 26.786c-1.164 0-1.455-.873-.873-1.747l4.076-7.279c.582-.873 1.747-1.746 2.911-1.746h58.23c1.165 0 1.747.873 1.747 2.038l-.582 6.987c0 1.165-1.165 2.038-2.038 2.038zm302.212-58.812c-18.342 4.658-30.862 8.152-48.913 12.81-4.367 1.165-4.658 1.456-8.443-2.91-4.367-4.95-7.57-8.153-13.684-11.065-18.342-9.025-36.102-6.405-52.698 4.368-19.798 12.81-29.988 31.735-29.697 55.318.291 23.292 16.304 42.507 39.305 45.71 19.798 2.62 36.393-4.367 49.495-19.216 2.62-3.202 4.95-6.696 7.861-10.772h-56.191c-6.115 0-7.57-3.785-5.532-8.735 3.785-9.025 10.772-24.165 14.848-31.735.874-1.747 2.912-4.658 7.279-4.658h105.978c-.582 7.86-.582 15.722-1.747 23.583-3.203 20.963-11.064 40.178-23.874 57.065-20.963 27.659-48.33 44.837-82.977 49.495-28.533 3.785-55.027-1.747-78.32-19.216-21.544-16.304-33.772-37.849-36.975-64.635-3.785-31.735 5.532-60.267 24.748-85.306 20.671-27.077 48.04-44.254 81.521-50.369 27.368-4.95 53.571-1.746 77.154 14.267 15.431 10.19 26.495 24.165 33.773 41.052 1.747 2.62.583 4.076-2.911 4.95z"/><path d="M685.386 497.703c-26.495-.582-50.66-8.152-71.04-25.621-17.178-14.849-27.95-33.773-31.444-56.192-5.24-32.9 3.785-62.014 23.583-87.926 21.254-27.95 46.875-42.508 81.521-48.622 29.697-5.24 57.648-2.33 82.977 14.848 23.001 15.722 37.267 36.976 41.052 64.926 4.95 39.305-6.405 71.332-33.482 98.7-19.215 19.507-42.798 31.735-69.875 37.267-7.861 1.455-15.722 1.747-23.292 2.62zm69.293-117.624c-.291-3.785-.291-6.696-.873-9.608-5.24-28.823-31.735-45.128-59.394-38.722-27.077 6.114-44.546 23.291-50.951 50.66-5.241 22.709 5.823 45.71 26.785 55.026 16.013 6.988 32.027 6.114 47.457-1.747 23.001-11.937 35.52-30.57 36.976-55.609z"/></g><g fill-rule="nonzero"><path d="m670.78 1061.603-16.05-9.267 178.818-309.714 16.052 9.267z"/><path d="M651.053 1027.592h357.638v18.535H651.053z"/><path d="M837.016 1141.288 658.13 1038.005l9.268-16.051 178.885 103.282zm155.398-269.182L813.528 768.823l9.268-16.051 178.886 103.282z"/><path d="m667.447 872.035-9.268-16.05L837.065 752.7l9.268 16.052z"/><path d="M989.116 1061.607 810.297 751.893l16.051-9.268 178.82 309.714zM665.234 843.693h18.535v206.566h-18.535z"/><path d="M976.087 843.693h18.535v206.566h-18.535z"/><path d="m833.86 1133.443-8.095-14.021 155.582-89.828 8.095 14.02z"/><path d="M1019.187 1056.288c-10.72 18.647-34.614 25.011-53.26 14.292s-25.012-34.614-14.293-53.26 34.614-25.011 53.26-14.292c18.76 10.83 25.124 34.613 14.293 53.26M708.11 876.632c-10.719 18.647-34.614 25.011-53.26 14.292s-25.012-34.614-14.292-53.26 34.613-25.012 53.26-14.292c18.647 10.83 25.011 34.613 14.292 53.26m-67.44 179.656c-10.72-18.647-4.355-42.43 14.291-53.26 18.647-10.72 42.43-4.355 53.26 14.292 10.72 18.646 4.355 42.43-14.291 53.26-18.759 10.72-42.542 4.355-53.26-14.292m311.076-179.656c-10.72-18.647-4.355-42.43 14.292-53.26 18.647-10.72 42.43-4.355 53.26 14.292 10.72 18.646 4.355 42.43-14.292 53.26-18.646 10.72-42.541 4.355-53.26-14.292M829.928 1165.6c-21.55 0-38.968-17.418-38.968-38.968s17.418-38.968 38.968-38.968 38.968 17.418 38.968 38.968c0 21.438-17.418 38.968-38.968 38.968m0-359.312c-21.55 0-38.968-17.418-38.968-38.968s17.418-38.969 38.968-38.969 38.968 17.419 38.968 38.969-17.418 38.968-38.968 38.968"/></g><path d="m1459.757 228.792 130.58 75.482v150.725l-130.58-75.402zm144.913 75.482v150.725l130.58-75.323V228.792zm-289.825-159.642v150.804l130.58 75.402V220.034zm144.912 402.33 130.58 75.402V471.56l-130.58-75.402z"/><path fill-rule="nonzero" d="M3136.723 413.986c-17.267 0-32.747 7.65-43.35 19.695l-27.164-19.23c2.884-7.94 4.54-16.465 4.54-25.388 0-8.767-1.599-17.15-4.387-24.972l27.104-19.027c10.6 11.984 26.04 19.592 43.257 19.592 31.872 0 57.807-25.93 57.807-57.805 0-31.876-25.935-57.806-57.807-57.806-31.87 0-57.805 25.93-57.805 57.806 0 5.705.863 11.207 2.41 16.418l-27.122 19.036c-11.33-14.056-27.643-23.87-46.23-26.865v-32.688c26.185-5.5 45.914-28.764 45.914-56.562 0-31.877-25.934-57.805-57.805-57.805s-57.806 25.928-57.806 57.805c0 27.425 19.218 50.404 44.878 56.296v33.112c-35.02 6.147-61.738 36.71-61.738 73.465 0 36.935 26.984 67.61 62.256 73.548v34.965c-25.922 5.697-45.396 28.816-45.396 56.429 0 31.876 25.934 57.805 57.806 57.805s57.805-25.929 57.805-57.805c0-27.613-19.474-50.732-45.396-56.43V462.61a74.64 74.64 0 0 0 45.447-26.432l27.345 19.355c-1.518 5.164-2.368 10.611-2.368 16.26 0 31.875 25.935 57.805 57.805 57.805 31.872 0 57.807-25.93 57.807-57.805 0-31.877-25.935-57.807-57.807-57.807zm0-135.162c15.456 0 28.027 12.576 28.027 28.027s-12.571 28.025-28.027 28.025c-15.454 0-28.025-12.574-28.025-28.025s12.57-28.027 28.025-28.027zm-168.666-52.634c0-15.451 12.572-28.027 28.028-28.027s28.025 12.576 28.025 28.027-12.57 28.026-28.025 28.026-28.028-12.575-28.028-28.026zm56.053 327.815c0 15.45-12.57 28.026-28.025 28.026s-28.028-12.575-28.028-28.026 12.572-28.027 28.028-28.027 28.025 12.576 28.025 28.027zm-28.028-125.855c-21.556 0-39.09-17.532-39.09-39.087 0-21.555 17.534-39.091 39.09-39.091 21.555 0 39.09 17.536 39.09 39.091s-17.535 39.087-39.09 39.087zm140.641 71.669c-15.454 0-28.025-12.575-28.025-28.026s12.57-28.027 28.025-28.027c15.456 0 28.027 12.575 28.027 28.027s-12.571 28.026-28.027 28.026z"/><path d="M464.88 1680.771c-.408.276-11.807-47.963-12.318-72.198-6.491 79.91-23.278 72.577-23.278 72.577 16.74 24.37 8.793 65.585 8.793 65.585h15.707s-2.852-34.174.597-49.807c1.05-4.742 7.644-12.673 10.498-16.157"/><path d="M446.609 1695.217s-112.326-74.576-106.563-195.173c5.742-120.612 99.464-203.845 100.168-213.228 6.245 13.419 41.664 200.06 42.338 221.904 2.552 85.115-35.945 186.497-35.945 186.497"/><path d="M541.964 1467.068c-24.27-106.01-101.44-180.252-101.44-180.252v.161c29.536 124.14 5.979 406.366 5.979 406.366s120.706-80.37 95.46-226.275"/></g><g clip-path="url(#a)" transform="matrix(2 0 0 2 3196.871 715.062)"><path fill="#3273dc" d="M99.66 200c-2.68 0-5.34-.701-7.683-2.057l-24.473-14.48c-3.652-2.044-1.87-2.767-.667-3.188 4.88-1.692 5.865-2.082 11.068-5.032.542-.304 1.26-.19 1.82.139l18.795 11.161c.686.377 1.645.377 2.275 0l73.286-42.301c.686-.39 1.122-1.176 1.122-1.984v-84.58c0-.828-.436-1.602-1.134-2.021L100.807 13.39a2.312 2.312 0 0 0-2.262 0L25.302 55.67a2.356 2.356 0 0 0-1.159 2.007v84.58c0 .81.449 1.576 1.153 1.96l20.079 11.6c10.893 5.446 17.568-.969 17.568-7.412v-83.51c0-1.18.947-2.113 2.125-2.113h9.298c1.159 0 2.118.933 2.118 2.113v83.51c0 14.537-7.914 22.875-21.699 22.875-4.238 0-7.572 0-16.882-4.589l-19.22-11.064c-4.748-2.743-7.683-7.875-7.683-13.37v-84.58c0-5.496 2.935-10.625 7.684-13.359l73.293-42.35c4.636-2.624 10.8-2.624 15.399 0l73.286 42.35a15.484 15.484 0 0 1 7.697 13.36v84.58a15.521 15.521 0 0 1-7.697 13.37l-73.286 42.315A15.378 15.378 0 0 1 99.66 200zm22.641-58.273c-32.075 0-38.793-14.72-38.793-27.07 0-1.173.947-2.11 2.118-2.11h9.48c1.059 0 1.937.76 2.106 1.794 1.427 9.648 5.695 14.516 25.089 14.516 15.436 0 22.01-3.493 22.01-11.685 0-4.722-1.862-8.228-25.855-10.577C98.402 104.611 86 100.181 86 84.138c0-14.788 12.464-23.607 33.36-23.607 23.481 0 35.097 8.15 36.568 25.633a2.152 2.152 0 0 1-.555 1.631c-.405.42-.966.677-1.551.677h-9.516a2.118 2.118 0 0 1-2.057-1.656c-2.28-10.15-7.833-13.396-22.89-13.396-16.857 0-18.813 5.874-18.813 10.273 0 5.331 2.312 6.884 25.07 9.895 22.522 2.978 33.222 7.194 33.222 23.025 0 15.969-13.317 25.114-36.537 25.114z"/></g><g fill="#3273dc" transform="translate(1578.947 710.804) scale(1.2411)"><path fill-rule="nonzero" d="M388.61 200.038c0-24.989-31.294-48.671-79.273-63.356 11.072-48.902 6.151-87.808-15.532-100.264-4.998-2.922-10.841-4.306-17.223-4.306v17.146c3.537 0 6.382.692 8.765 1.999 10.457 5.998 14.994 28.834 11.457 58.206-.846 7.227-2.23 14.839-3.922 22.605-15.07-3.69-31.524-6.535-48.824-8.381-10.38-14.224-21.145-27.142-31.986-38.444 25.066-23.298 48.594-36.062 64.587-36.062V32.035c-21.145 0-48.825 15.07-76.813 41.213-27.988-25.989-55.668-40.905-76.812-40.905v17.146c15.916 0 39.521 12.687 64.587 35.83-10.765 11.303-21.529 24.144-31.756 38.368-17.377 1.846-33.831 4.691-48.901 8.458a231.575 231.575 0 0 1-3.998-22.298c-3.614-29.372.845-52.208 11.225-58.282 2.307-1.384 5.306-1.999 8.843-1.999V32.42c-6.459 0-12.303 1.384-17.377 4.305-21.606 12.456-26.45 51.286-15.301 100.033-47.826 14.763-78.966 38.368-78.966 63.28 0 24.99 31.294 48.671 79.273 63.357-11.072 48.902-6.151 87.808 15.532 100.264 4.998 2.922 10.841 4.306 17.3 4.306 21.145 0 48.825-15.07 76.813-41.213 27.987 25.989 55.667 40.905 76.812 40.905 6.459 0 12.302-1.384 17.377-4.305 21.606-12.457 26.45-51.286 15.301-100.034 47.672-14.685 78.812-38.367 78.812-63.28zM288.5 148.753c-2.845 9.919-6.382 20.145-10.38 30.372-3.153-6.152-6.459-12.303-10.073-18.454-3.537-6.151-7.304-12.148-11.072-17.992 10.918 1.615 21.452 3.614 31.525 6.074zm-35.216 81.887c-5.997 10.38-12.148 20.222-18.53 29.372A399.911 399.911 0 0 1 200 261.55c-11.61 0-23.221-.538-34.6-1.461-6.382-9.15-12.61-18.915-18.607-29.218-5.844-10.072-11.149-20.299-15.993-30.602 4.767-10.303 10.149-20.606 15.916-30.679 5.997-10.38 12.148-20.222 18.53-29.372A400.308 400.308 0 0 1 200 138.681c11.61 0 23.221.538 34.6 1.461 6.382 9.149 12.61 18.914 18.607 29.218 5.844 10.072 11.149 20.298 15.993 30.602-4.844 10.303-10.149 20.606-15.916 30.678zm24.836-9.995a329.226 329.226 0 0 1 10.61 30.602c-10.072 2.46-20.683 4.536-31.678 6.151 3.768-5.921 7.535-11.995 11.072-18.223 3.537-6.151 6.843-12.379 9.996-18.53zm-77.966 82.041c-7.151-7.382-14.302-15.609-21.375-24.605 6.92.308 13.993.538 21.144.538 7.228 0 14.378-.153 21.375-.538a300.195 300.195 0 0 1-21.144 24.605zm-57.206-45.288c-10.918-1.615-21.452-3.614-31.525-6.074 2.845-9.919 6.382-20.145 10.38-30.372 3.153 6.152 6.459 12.303 10.073 18.454s7.304 12.148 11.072 17.992zm56.821-160.007c7.151 7.381 14.302 15.609 21.376 24.605-6.92-.308-13.994-.539-21.145-.539-7.228 0-14.378.154-21.375.539a300.221 300.221 0 0 1 21.144-24.605zm-56.898 45.288c-3.767 5.92-7.535 11.995-11.072 18.223-3.537 6.151-6.843 12.302-9.996 18.453a329.519 329.519 0 0 1-10.61-30.602 373.731 373.731 0 0 1 31.678-6.074zm-69.585 96.265c-27.219-11.61-44.826-26.834-44.826-38.906 0-12.071 17.607-27.372 44.826-38.906 6.613-2.845 13.84-5.382 21.299-7.765 4.382 15.07 10.149 30.755 17.3 46.825-7.074 15.993-12.764 31.602-17.07 46.595-7.612-2.383-14.839-4.998-21.529-7.843zm41.367 109.875c-10.457-5.997-14.994-28.833-11.457-58.205.846-7.227 2.23-14.839 3.922-22.605 15.07 3.69 31.524 6.535 48.824 8.381 10.38 14.224 21.145 27.142 31.986 38.444-25.066 23.298-48.594 36.061-64.587 36.061-3.46-.076-6.382-.768-8.688-2.076zm182.381-58.589c3.614 29.371-.845 52.208-11.225 58.282-2.307 1.384-5.306 1.999-8.843 1.999-15.916 0-39.521-12.687-64.587-35.83 10.765-11.303 21.529-24.144 31.756-38.368 17.377-1.846 33.831-4.691 48.901-8.458 1.769 7.766 3.153 15.224 3.998 22.375zm29.603-51.286c-6.613 2.845-13.84 5.383-21.299 7.766-4.382-15.07-10.149-30.755-17.3-46.825 7.074-15.993 12.764-31.602 17.07-46.595 7.612 2.383 14.839 4.997 21.606 7.842 27.219 11.611 44.826 26.835 44.826 38.906-.077 12.072-17.684 27.373-44.903 38.906z"/><circle cx="199.923" cy="200.038" r="35.138"/></g><path fill="#3273dc" fill-rule="nonzero" d="M2339.82 1186.939h320l-200 60zm0-20 120-20v-220zm140-20 180 20-180-400z"/><path fill="#3273dc" d="M3899.684 566.942c7.97-5.588 26.184 6.67 40.685 27.365 14.492 20.705 19.772 42.005 11.802 47.593-7.98 5.589-26.194-6.67-40.685-27.374-14.492-20.695-19.782-42.006-11.802-47.584zm-190.78 0c-7.97-5.588-26.184 6.67-40.686 27.365-14.491 20.705-19.782 42.005-11.801 47.593 7.97 5.589 26.183-6.67 40.685-27.374 14.491-20.695 19.782-42.006 11.801-47.584zm95.295 32.407c-9.737 0-17.627 20.487-17.627 45.757s7.89 45.758 17.627 45.758 17.628-20.487 17.628-45.758-7.89-45.757-17.628-45.757zm95.485-277.748c7.97 5.588 26.184-6.67 40.685-27.365 14.492-20.705 19.772-42.005 11.802-47.593-7.98-5.588-26.194 6.67-40.685 27.375-14.492 20.695-19.782 42.005-11.802 47.583zm-190.78 0c-7.97 5.588-26.184-6.67-40.686-27.365-14.491-20.705-19.782-42.005-11.801-47.593 7.97-5.588 26.183 6.67 40.685 27.375 14.491 20.695 19.782 42.005 11.801 47.583zm95.295-32.407c-9.737 0-17.627-20.487-17.627-45.757s7.89-45.757 17.627-45.757 17.628 20.486 17.628 45.757-7.89 45.757-17.628 45.757z"/><path fill="none" stroke="#3273dc" stroke-width="28.189" d="M3940.197 362.206a162.145 162.145 0 0 0-138.78-78.085 162.105 162.105 0 0 0-136.387 74.274m3.087 179.881a162.095 162.095 0 0 0 133.3 69.658 162.065 162.065 0 0 0 133.46-69.886"/><path fill="#3273dc" d="M3566.43 383.993h33.956v47.772h38.303v-47.772h33.956v128.329h-33.956v-50.939h-38.303v50.939h-33.955zm134.652 0h82.919v28.427h-48.963v20.14h41.856v28.426h-41.856v22.899h50.938v28.437h-84.894zm109.768 0h33.955v99.892h48.576v28.437h-82.531zm104.636 0h35.146l20.14 53.3 7.106 20.934h.794l7.107-20.933 19.345-53.3h35.147v128.328h-31.593v-37.906c0-3.296.168-6.909.496-10.859s.685-8 1.082-12.149c.397-4.139.853-8.188 1.38-12.139s.992-7.504 1.389-10.66h-.794l-10.66 30.005-17.767 43.246h-12.635l-17.767-43.246-10.273-30.005h-.784c.387 3.156.853 6.71 1.38 10.66s.982 8 1.379 12.14a960.94 960.94 0 0 1 1.082 12.148c.337 3.94.496 7.563.496 10.859v37.906h-31.196z"/><path fill="#3273dc" fill-rule="nonzero" d="M2328.335 257.915c-100.831 0-182.58 81.738-182.58 182.573 0 100.831 81.749 182.576 182.58 182.576s182.576-81.745 182.576-182.576c0-100.835-81.748-182.573-182.576-182.573zm0 341.706c-28.688 0-51.948-19.165-51.948-42.798h103.896c0 23.63-23.26 42.798-51.948 42.798zm85.801-56.971h-171.612v-31.118h171.615v31.118zm-.615-47.134h-170.507c-.567-.654-1.147-1.299-1.695-1.963-17.566-21.329-21.703-32.464-25.72-43.812-.068-.374 21.3 4.366 36.453 7.775 0 0 7.797 1.804 19.196 3.882-10.945-12.83-17.444-29.14-17.444-45.81 0-36.598 28.07-68.58 17.944-94.43 9.856.803 20.398 20.802 21.11 52.071 10.478-14.48 14.863-40.922 14.863-57.135 0-16.787 11.06-36.286 22.125-36.953-9.862 16.255 2.555 30.19 13.594 64.759 4.14 12.984 3.611 34.835 6.808 48.693 1.06-28.782 6.009-70.777 24.267-85.276-8.054 18.26 1.193 41.106 7.517 52.09 10.204 17.72 16.39 31.147 16.39 56.539 0 17.025-6.286 33.054-16.89 45.584 12.058-2.261 20.383-4.301 20.383-4.301l39.153-7.64c.004-.003-5.686 23.395-27.547 45.927z"/><g clip-path="url(#b)" transform="matrix(1.48 0 0 1.48001 3691.452 1261.297)"><path fill="#3273dc" fill-rule="nonzero" d="M255.59 122.775c-.46-4.675-1.226-10.039-2.759-16.017-1.533-5.901-3.832-12.416-7.204-19.16s-7.74-13.718-13.412-20.539c-2.222-2.682-4.675-5.288-7.28-7.817 3.908-15.558-4.752-29.046-4.752-29.046-14.945-.92-24.448 4.675-27.973 7.204-.613-.23-1.15-.537-1.763-.767-2.529-.996-5.135-1.992-7.894-2.835a129.763 129.763 0 0 0-8.277-2.299c-2.835-.69-5.671-1.227-8.583-1.687-.537-.076-.996-.153-1.533-.229C157.646 8.737 138.946 0 138.946 0c-20.922 13.258-24.831 31.805-24.831 31.805s-.077.383-.23 1.073c-1.149.307-2.299.69-3.449.996-1.609.46-3.218 1.073-4.751 1.686a124.16 124.16 0 0 0-4.752 1.916 117.51 117.51 0 0 0-9.35 4.599c-2.989 1.686-5.901 3.525-8.737 5.441l-.766-.307c-28.969-11.036-54.643 2.223-54.643 2.223-2.376 30.809 11.572 50.198 14.331 53.724-.69 1.916-1.303 3.832-1.916 5.748-2.146 6.974-3.755 14.101-4.751 21.535-.154 1.073-.307 2.146-.384 3.219C7.894 146.916 0 173.97 0 173.97c22.302 25.674 48.359 27.283 48.359 27.283l.077-.076c3.295 5.901 7.127 11.495 11.419 16.783a111.736 111.736 0 0 0 5.671 6.362c-8.124 23.298 1.15 42.611 1.15 42.611 24.831.919 41.155-10.883 44.603-13.565a84.514 84.514 0 0 0 7.511 2.222 109.708 109.708 0 0 0 23.298 3.449c1.916.076 3.909.153 5.825.076h2.759l1.226-.076v.076c11.726 16.708 32.265 19.084 32.265 19.084 14.638-15.405 15.481-30.733 15.481-34.028v-1.38c3.065-2.145 5.978-4.445 8.737-6.974 5.824-5.288 10.959-11.342 15.251-17.857l1.149-1.839c16.554.92 28.28-10.269 28.28-10.269-2.759-17.244-12.569-25.674-14.638-27.284 0 0-.077-.076-.23-.153s-.153-.153-.153-.153c-.077-.077-.23-.154-.383-.23.076-1.073.153-2.07.23-3.142.153-1.84.153-3.756.153-5.595v-2.912l-.077-1.15-.076-1.533c0-.536-.077-.996-.154-1.456-.076-.46-.076-.996-.153-1.456l-.153-1.456-.23-1.456c-.307-1.916-.613-3.756-1.073-5.672-1.763-7.433-4.675-14.484-8.43-20.845a70.37 70.37 0 0 0-14.025-16.707c-5.365-4.752-11.419-8.584-17.704-11.42-6.361-2.835-12.952-4.675-19.543-5.518-3.295-.459-6.591-.613-9.886-.536h-2.453l-1.226.077c-.46 0-.919.076-1.303.076a51.703 51.703 0 0 0-4.981.69c-6.591 1.226-12.799 3.602-18.24 6.897-5.441 3.296-10.193 7.358-14.025 11.956s-6.821 9.733-8.89 15.021-3.219 10.806-3.525 16.094c-.077 1.303-.077 2.683-.077 3.986v.996l.077 1.073c.076.613.076 1.303.153 1.916.23 2.682.766 5.288 1.456 7.74 1.456 4.982 3.755 9.503 6.591 13.335 2.835 3.832 6.284 6.975 9.886 9.504 3.602 2.452 7.511 4.215 11.343 5.364 3.832 1.15 7.664 1.61 11.266 1.61h1.992c.23 0 .46 0 .69-.077.383 0 .766-.077 1.15-.077.076 0 .23 0 .306-.076l.383-.077c.23 0 .46-.076.69-.076.46-.077.843-.154 1.303-.23.46-.077.843-.154 1.226-.307.843-.153 1.61-.46 2.376-.69 1.533-.536 3.066-1.149 4.368-1.839 1.38-.69 2.606-1.533 3.832-2.299.307-.23.69-.46.997-.767 1.226-.996 1.456-2.835.459-4.061-.843-1.073-2.375-1.38-3.602-.69l-.919.46a24.935 24.935 0 0 1-3.296 1.379c-1.149.383-2.375.69-3.602.92-.613.076-1.226.153-1.916.23-.306 0-.613.076-.996.076h-1.839c-.384 0-.767 0-1.15-.076h-.46c-.153 0-.383 0-.536-.077-.383-.077-.69-.077-1.073-.153-2.836-.383-5.671-1.226-8.354-2.453-2.759-1.226-5.364-2.912-7.74-5.058s-4.445-4.675-6.055-7.587c-1.609-2.912-2.759-6.131-3.295-9.503-.23-1.686-.383-3.449-.307-5.135 0-.46.077-.92.077-1.379v-.614c0-.229.077-.459.077-.689.076-.92.229-1.84.383-2.759 1.303-7.358 4.981-14.562 10.653-20.003 1.456-1.38 2.988-2.606 4.598-3.755 1.609-1.15 3.372-2.146 5.211-2.989a35.712 35.712 0 0 1 5.672-2.069c1.915-.537 3.908-.844 5.977-1.073.997-.077 1.993-.154 3.066-.154h2.376l.843.077c2.222.153 4.368.46 6.514.996 4.292.92 8.507 2.529 12.415 4.675 7.818 4.369 14.485 11.113 18.547 19.237 2.069 4.061 3.525 8.43 4.215 12.951.153 1.15.307 2.3.383 3.449l.154 1.686v3.296c0 .536-.077 1.456-.077 1.992-.077 1.227-.23 2.529-.383 3.756-.153 1.226-.383 2.452-.613 3.678-.23 1.227-.537 2.453-.843 3.602a64.253 64.253 0 0 1-2.299 7.128 62.428 62.428 0 0 1-7.205 13.105c-5.901 8.124-13.948 14.715-23.144 18.93-4.599 2.069-9.427 3.602-14.408 4.368-2.453.46-4.982.69-7.511.766h-3.832c-1.38 0-2.682-.076-4.062-.229-5.365-.384-10.653-1.38-15.864-2.836-5.135-1.456-10.116-3.525-14.868-5.978-9.427-5.058-17.933-11.956-24.524-20.309-3.296-4.139-6.208-8.66-8.584-13.335s-4.292-9.657-5.671-14.638c-1.38-5.058-2.223-10.193-2.606-15.405l-.077-.996v-6.821c.077-2.529.307-5.211.614-7.817.306-2.606.766-5.288 1.302-7.894.537-2.605 1.15-5.211 1.916-7.817a102.936 102.936 0 0 1 5.442-14.791c4.368-9.35 10.039-17.704 16.86-24.371 1.686-1.686 3.449-3.219 5.288-4.752a78.251 78.251 0 0 1 5.748-4.138c1.916-1.303 3.985-2.453 6.055-3.526a39.932 39.932 0 0 1 3.142-1.533l3.219-1.379c2.146-.92 4.368-1.686 6.667-2.376.537-.153 1.15-.306 1.686-.536.537-.154 1.15-.307 1.686-.46 1.15-.307 2.3-.613 3.449-.843.537-.153 1.15-.23 1.763-.383.613-.154 1.149-.23 1.763-.384.613-.076 1.149-.229 1.762-.306l.843-.153.92-.154c.613-.076 1.149-.153 1.763-.23.689-.076 1.302-.153 1.992-.229.537-.077 1.456-.154 1.993-.23.383-.077.843-.077 1.226-.154l.843-.076.383-.077h.46c.69-.077 1.303-.077 1.993-.153l.996-.077h.766c.537 0 1.15-.076 1.686-.076a98.503 98.503 0 0 1 6.745 0c4.445.153 8.813.689 13.028 1.456 8.507 1.609 16.478 4.291 23.758 7.893 7.281 3.526 13.719 7.894 19.39 12.646.383.306.69.613 1.073.919.306.307.689.614.996.92.69.613 1.303 1.226 1.993 1.839.689.614 1.303 1.227 1.916 1.84s1.226 1.226 1.839 1.916c2.376 2.529 4.598 5.058 6.591 7.664a98.861 98.861 0 0 1 9.733 15.251l.92 1.839c.306.613.613 1.226.843 1.839.306.614.536 1.15.843 1.763.23.613.536 1.15.766 1.763.92 2.299 1.839 4.521 2.529 6.591 1.15 3.372 1.993 6.361 2.683 8.966a2.043 2.043 0 0 0 2.299 1.61c1.149-.077 1.992-.996 1.992-2.146.077-2.759 0-6.054-.383-9.81z"/></g><g clip-path="url(#c)" transform="translate(1022.402 1230.33) scale(.77224)"><path fill="#3273dc" fill-rule="nonzero" d="M502.341 278.804 278.798 502.342c-12.868 12.877-33.748 12.877-46.633 0l-46.415-46.424 58.88-58.884c13.687 4.621 29.38 1.52 40.284-9.387 10.97-10.975 14.043-26.803 9.305-40.537l56.754-56.749c13.733 4.734 29.568 1.674 40.538-9.311 15.323-15.319 15.323-40.152 0-55.484-15.334-15.332-40.162-15.332-55.503 0-11.524 11.536-14.375 28.472-8.531 42.672l-52.934 52.931V181.884a39.522 39.522 0 0 0 10.371-7.418c15.323-15.321 15.323-40.152 0-55.497-15.323-15.316-40.169-15.316-55.48 0-15.323 15.345-15.323 40.176 0 55.497a39.183 39.183 0 0 0 12.852 8.561V323.6a38.883 38.883 0 0 0-12.852 8.563c-11.606 11.601-14.398 28.637-8.445 42.892l-58.049 58.058L9.656 279.839c-12.875-12.887-12.875-33.768 0-46.644L233.21 9.656c12.87-12.875 33.743-12.875 46.633 0l222.498 222.503c12.879 12.879 12.879 33.77 0 46.645"/></g><g fill="#3273dc"><path d="M3158.051 1430.357h-238.49a187.15 187.15 0 0 0-7.5 52.603c0 18.264 2.62 35.918 7.5 52.604h238.49c28.633 0 52.589-23.38 52.589-52.604s-23.373-52.603-52.589-52.603"/><path d="M3076.114 1430.357H2919.56a187.15 187.15 0 0 0-7.5 52.603c0 18.264 2.62 35.918 7.5 52.604h157.006a213.048 213.048 0 0 0 6.324-51.715 212.857 212.857 0 0 0-6.775-53.492m171.185-61.368c-34.185-44.434-87.88-73.066-148.262-73.066-73.929 0-137.832 42.92-168.176 105.207h248.223c27.367 0 51.825-12.538 68.214-32.141m.645 227.101c-16.286-19.156-40.559-31.302-67.688-31.302h-249.394c30.344 62.29 94.247 105.21 168.176 105.21 60.763 0 114.753-28.996 148.906-73.909"/><path d="M3004.808 1321.382a187.857 187.857 0 0 0-73.946 79.75h139.178c-14.589-32.742-37.284-60.364-65.234-79.752m68.352 243.41h-142.296a187.836 187.836 0 0 0 79.694 82.979c27.34-20.618 49.175-49.334 62.602-82.979m-917.548-148.576h-122.262v93.879h64.571l141.07 292.27 99.571.14-.083-93.275-41.426-.479z"/><path d="m2138.123 1668.228-51.902-106.788-115.43 242.15h103.875z"/></g></svg>