<svg xmlns="http://www.w3.org/2000/svg" id="Logo" viewBox="0 0 283.46 199.67"><defs><style>.cls-1{fill:#0a1432;stroke-width:0}</style></defs><path d="M10.53 115.48h16.42v40.19l21.67-21.8h21.15l-26.53 26.79 27.97 37.04H51.38l-19.44-25.61-4.99 5.12v20.49H10.53zM104.57 131.89c19.83 0 33.23 14.97 33.23 34.02s-13.4 33.75-33.23 33.75-33.36-14.71-33.36-33.75 13.53-34.02 33.36-34.02m0 52.02c9.72 0 16.81-7.62 16.81-17.99s-7.09-18.26-16.81-18.26-16.94 7.88-16.94 18.26 7.09 17.99 16.94 17.99M148.41 115.48h16.42v40.19l21.67-21.8h21.15l-26.53 26.79 27.97 37.04h-19.83l-19.44-25.61-4.99 5.12v20.49h-16.42zM242.63 131.89c19.83 0 33.23 14.97 33.23 34.02s-13.4 33.75-33.23 33.75-33.36-14.71-33.36-33.75 13.53-34.02 33.36-34.02m0 52.02c9.72 0 16.81-7.62 16.81-17.99s-7.09-18.26-16.81-18.26-16.94 7.88-16.94 18.26 7.09 17.99 16.94 17.99M0 29.55h10.51V11.16h16.42v18.39h27.32v14.19H26.93v27.58c0 6.04 3.42 9.19 8.8 9.19 5.65 0 9.19-4.33 8.54-12.35l15.63 1.58c.79 15.76-9.72 25.61-23.51 25.61-16.29 0-25.87-9.46-25.87-24.69V43.74H0zM79.03 0c5.65 0 10.24 4.73 10.24 10.24s-4.6 10.24-10.24 10.24-10.11-4.6-10.11-10.24S73.51 0 79.03 0m-8.02 29.55h16.42v63.83H71.01zM101.78 29.55h15.76v6.83c3.41-5.52 8.67-8.93 15.5-8.93 8.41 0 14.32 3.68 17.07 10.9 3.42-6.7 9.32-10.9 17.47-10.9 12.08 0 18.91 7.22 18.91 21.8l.26 44.13h-15.89V53.06c0-7.75-2.89-10.9-8.54-10.9-6.31 0-10.38 4.86-10.38 15.63l.26 35.59h-15.37V53.06c0-7.75-3.02-10.9-8.8-10.9-6.3 0-10.51 4.86-10.51 15.37v35.85h-15.76V29.55ZM226.56 41.02c-1.94-3.73-2.97-7.46-2.97-11.89 0-11.08 8.11-18.89 19.08-18.89 10.4 0 18.17 7.81 18.17 18.89 0 8.16-5.14 14.81-13.37 18.65l14.85 18.89c.34-1.63.57-3.26.57-5.13 0-3.5-.69-7.23-2.17-11.19l13.14-3.61c1.26 5.01 1.94 9.68 1.94 14.11 0 6.76-1.48 12.71-4.11 17.72l11.77 15.04h-16.68l-3.77-4.9c-5.71 4.31-13.03 6.65-21.48 6.65-20.22 0-32.68-11.43-32.68-29.85 0-11.66 6.51-19.94 17.71-24.48Zm14.97 40.69c5.14 0 9.6-1.28 13.14-3.61l-20.68-26.35c-7.31 2.57-10.85 7.23-10.85 13.87 0 9.09 6.06 16.09 18.39 16.09m-2.17-44.3c5.48-1.87 9.14-4.66 9.14-8.51 0-4.2-2.63-6.41-6.06-6.41s-6.63 2.33-6.63 6.41c0 3.61 1.26 5.48 3.54 8.51Z" class="cls-1"/></svg>