<svg xmlns="http://www.w3.org/2000/svg" xml:space="preserve" id="Ebene_1" width="420" x="0" y="0" version="1.1" viewBox="0 0 800 800"><style>.st0{fill:#444}.st1{fill:#4081cb}</style><path d="M287.1 513.6 123 418.7V378l163.1-95.4-.6 42.3-127.9 74.2 129.7 72.8z" class="st0"/><path d="M488.8 277.4v38.4s-40.8-30-90.2-30c-53.4 0-113.1 39.1-113.1 39.1v-42.2c41.3-22.1 77.9-33.3 113.6-33.3 43.5 0 89.7 28 89.7 28" class="st1"/><path d="M399.9 497c55-.1 99.4-44.8 99.3-99.8s-44.8-99.4-99.8-99.3c-54.9.1-99.3 44.7-99.3 99.5.1 55.1 44.8 99.6 99.8 99.6" class="st1"/><path d="M512.9 286.2 677 381.1v40.6l-163.1 95.4.6-42.2 127.9-74.2-129.7-72.8z" class="st0"/><path d="M311.1 522.7v-38.4s40.8 30 90.2 30c53.4 0 113.1-39.1 113.1-39.1v42.2c-41.3 22.1-78 33.3-113.6 33.3-43.5-.1-89.7-28.1-89.7-28" class="st1"/></svg>