<?xml version="1.0" encoding="utf-8"?>
<!-- Generator: Adobe Illustrator 25.4.1, SVG Export Plug-In . SVG Version: 6.00 Build 0)  -->
<svg version="1.1" id="Ebene_1" xmlns="http://www.w3.org/2000/svg" xmlns:xlink="http://www.w3.org/1999/xlink" x="0px" y="0px"
	 viewBox="0 0 800 800" style="enable-background:new 0 0 800 800;" xml:space="preserve">
<style type="text/css">
	.st0{fill:#444444;}
	.st1{fill:#4081CB;}
</style>
<g>
	<polyline class="st0" points="287.1,513.6 123,418.7 123,378 286.1,282.6 285.5,324.9 157.6,399.1 287.3,471.9 287.1,513.6 	"/>
	<path class="st1" d="M488.8,277.4v38.4c0,0-40.8-30-90.2-30c-53.4,0-113.1,39.1-113.1,39.1v-42.2c41.3-22.1,77.9-33.3,113.6-33.3
		C442.6,249.4,488.8,277.4,488.8,277.4"/>
	<path class="st1" d="M399.9,497c55-0.1,99.4-44.8,99.3-99.8s-44.8-99.4-99.8-99.3c-54.9,0.1-99.3,44.7-99.3,99.5
		C300.2,452.5,344.9,497,399.9,497C399.9,497,399.9,497,399.9,497"/>
	<polyline class="st0" points="512.9,286.2 677,381.1 677,421.7 513.9,517.1 514.5,474.9 642.4,400.7 512.7,327.9 512.9,286.2 	"/>
	<path class="st1" d="M311.1,522.7v-38.4c0,0,40.8,30,90.2,30c53.4,0,113.1-39.1,113.1-39.1v42.2c-41.3,22.1-78,33.3-113.6,33.3
		C357.3,550.6,311.1,522.6,311.1,522.7"/>
</g>
</svg>
