<?xml version="1.0" encoding="utf-8"?>
<!-- Generator: Adobe Illustrator 19.2.1, SVG Export Plug-In . SVG Version: 6.00 Build 0)  -->
<svg version="1.1" id="layer" xmlns="http://www.w3.org/2000/svg" xmlns:xlink="http://www.w3.org/1999/xlink" x="0px" y="0px"
	 viewBox="0 0 652 652" style="enable-background:new 0 0 652 652;" xml:space="preserve">
<style type="text/css">
	.st0{fill:#151515;}
	.st1{fill:#DB002F;}
</style>
<g>
	<g>
		<path class="st0" d="M237.4,375c-8.6,8.6-20.6,13.5-33.4,13.5c-12.4,0-24.4-4.9-33.4-13.5c-11.6-12.4-12-24-12-54s0-41.6,12.4-54
			c8.6-8.6,20.6-13.5,33.4-13.5c12.4,0,24.4,4.9,33.4,13.5c12,12,12.4,24,12.4,54C249.8,351,249.4,362.6,237.4,375z M229.5,272.7
			c-6.7-6.7-15.7-10.1-25.1-10.1c-9.4,0-18.4,3.4-25.1,10.1c-9.4,9.4-10.1,19.9-10.1,48.3s0.7,38.6,10.1,48.3
			c6.7,6.7,15.7,10.1,25.1,10.1c9.4,0,18.4-3.4,25.1-10.1c9.4-9.4,10.1-19.9,10.1-48.3C239.7,292.5,238.9,282.4,229.5,272.7z"/>
		<path class="st0" d="M352.8,387.3h-8.6l-43.8-132.7h10.5l37.5,115.1l37.1-115.1h10.5L352.8,387.3z"/>
		<path class="st0" d="M461.9,387.3V254.7H472v132.7H461.9z"/>
		<path class="st0" d="M575.1,388.5c-19.9,0-32.2-5.2-44.2-17.6l7.1-7.1c12,12,21.7,15.7,37.5,15.7c21,0,34.1-10.1,34.1-27.4
			c0-7.9-2.2-14.2-7.1-18.7c-4.9-4.1-8.2-5.2-19.1-7.1L568,324c-10.1-1.5-18-4.9-23.6-9.7c-7.1-6-10.5-14.2-10.5-24.4
			c0-22.1,15.7-36.4,41.2-36.4c16.5,0,27,4.5,38.2,14.2l-6.4,6.4c-8.2-7.1-16.5-12.4-32.2-12.4c-19.1,0-30.7,10.5-30.7,27.4
			c0,7.5,2.2,13.5,6.7,17.2c4.5,3.7,12.4,7.1,19.9,8.2l14.2,2.2c12.4,1.9,18,4.1,23.6,8.6c7.1,6,11.6,15,11.6,25.9
			C619.7,374.2,602.4,388.5,575.1,388.5z"/>
	</g>
	<g>
		<path class="st1" d="M98.4,382.8l-33-45.3l-33,45.3H20.1l40.5-54.3h9.7l40.5,54.3H98.4z"/>
		<path class="st1" d="M32,254.7L65,300l33-45.3h12.4L69.9,309h-9.7l-40.1-54.3H32z"/>
	</g>
</g>
</svg>
