<svg xmlns="http://www.w3.org/2000/svg" xml:space="preserve" viewBox="0 0 652 652"><path d="M237.4 375c-8.6 8.6-20.6 13.5-33.4 13.5-12.4 0-24.4-4.9-33.4-13.5-11.6-12.4-12-24-12-54s0-41.6 12.4-54c8.6-8.6 20.6-13.5 33.4-13.5 12.4 0 24.4 4.9 33.4 13.5 12 12 12.4 24 12.4 54-.4 30-.8 41.6-12.8 54m-7.9-102.3c-6.7-6.7-15.7-10.1-25.1-10.1s-18.4 3.4-25.1 10.1c-9.4 9.4-10.1 19.9-10.1 48.3s.7 38.6 10.1 48.3c6.7 6.7 15.7 10.1 25.1 10.1s18.4-3.4 25.1-10.1c9.4-9.4 10.1-19.9 10.1-48.3.1-28.5-.7-38.6-10.1-48.3m123.3 114.6h-8.6l-43.8-132.7h10.5l37.5 115.1 37.1-115.1H396zm109.1 0V254.7H472v132.7h-10.1zm113.2 1.2c-19.9 0-32.2-5.2-44.2-17.6l7.1-7.1c12 12 21.7 15.7 37.5 15.7 21 0 34.1-10.1 34.1-27.4 0-7.9-2.2-14.2-7.1-18.7-4.9-4.1-8.2-5.2-19.1-7.1L568 324c-10.1-1.5-18-4.9-23.6-9.7-7.1-6-10.5-14.2-10.5-24.4 0-22.1 15.7-36.4 41.2-36.4 16.5 0 27 4.5 38.2 14.2l-6.4 6.4c-8.2-7.1-16.5-12.4-32.2-12.4-19.1 0-30.7 10.5-30.7 27.4 0 7.5 2.2 13.5 6.7 17.2s12.4 7.1 19.9 8.2l14.2 2.2c12.4 1.9 18 4.1 23.6 8.6 7.1 6 11.6 15 11.6 25.9-.3 23-17.6 37.3-44.9 37.3" style="fill:#151515"/><path d="m98.4 382.8-33-45.3-33 45.3H20.1l40.5-54.3h9.7l40.5 54.3zM32 254.7 65 300l33-45.3h12.4L69.9 309h-9.7l-40.1-54.3z" style="fill:#db002f"/></svg>