<svg xmlns="http://www.w3.org/2000/svg" width="25" height="20" fill="none"><path fill="#191919" d="M24.779 7.108v11.57q0 .15-.033.29L23.612 20H.655A1.53 1.53 0 0 1 0 19.538v-1.716c.124-.15.283-.28.47-.381l11.006-5.8a2 2 0 0 1 .146-.068h1.276c.204.083.391.207.542.365v1.886q-.165.175-.396.296l-5.937 3.127H21.13l.512-.467V8.597l-.627-.992-8.155-4.3h-1.255L2.04 8.35q-.09.046-.185.082h-1.2A1.6 1.6 0 0 1 0 7.967V6.249c.124-.15.28-.281.47-.382L11.448.083q.09-.049.185-.083h1.202q.094.034.184.083l10.978 5.784q.09.048.17.103l.6.95q.01.093.012.188"/></svg>