<svg xmlns="http://www.w3.org/2000/svg" width="25" height="20" fill="none"><path fill="#191919" d="M24.779 7.108v11.57c0 .099-.011.197-.033.29L23.612 20H.655A1.528 1.528 0 0 1 0 19.538v-1.716c.124-.15.283-.28.47-.381l11.006-5.8a1.52 1.52 0 0 1 .146-.068h1.276c.204.083.391.207.542.365v1.886c-.11.116-.242.216-.396.296l-5.937 3.127H21.13l.512-.467V8.597l-.627-.992-8.155-4.3h-1.255L2.04 8.35c-.06.032-.121.057-.185.082h-1.2A1.58 1.58 0 0 1 0 7.967V6.249c.124-.15.28-.281.47-.382L11.448.083c.06-.033.121-.06.185-.083h1.202c.063.023.124.05.184.083l10.978 5.784c.06.033.116.065.17.103l.6.95c.006.062.012.125.012.188Z"/></svg>