<svg xmlns="http://www.w3.org/2000/svg" fill="none" viewBox="0 0 107 40"><g clip-path="url(#a)"><path fill="#2659ff" d="M28.943 33.86c0 1.068-.864 2.067-1.92 2.22L2.04 39.699c-1.056.153-1.92-.596-1.92-1.665V1.964C.12.898.984.149 2.04.302l24.982 3.62c1.056.152 1.92 1.151 1.92 2.22v27.72z"/><path fill="#0d2880" d="M32.682 12.48h3.288l4.599 10.904 4.598-10.904h3.289v15.054h-2.751V17.92l-4.04 9.614h-2.191l-4.04-9.614v9.614h-2.751zm17.643 4.215h2.708v10.84h-2.708zm4.527 0h2.708v1.634c.688-1.054 1.912-1.806 3.437-1.806 2.364 0 3.954 1.548 3.954 3.914v7.097h-2.708v-6.452c0-1.268-.795-2.15-2.063-2.15-1.654 0-2.621 1.419-2.621 3.85v4.752H54.85V16.695m21.817 10.84h-2.708V25.9c-.688 1.055-1.912 1.806-3.437 1.806-2.364 0-3.954-1.548-3.954-3.913v-7.098h2.708v6.452c0 1.268.795 2.15 2.063 2.15 1.654 0 2.622-1.419 2.622-3.849v-4.753h2.708v10.84zm1.805-10.837v-3.181h2.707v3.18h2.728v2.279H81.18v4.75c0 1.032.558 1.592 1.396 1.592.409 0 .88-.065 1.267-.259l.194 2.365a5.1 5.1 0 0 1-1.74.28c-2.19 0-3.823-1.182-3.823-3.72v-5.007m11.654-2.454c3.653 0 5.437 2.71 5.437 5.226 0 .388-.021.861-.043 1.076h-8.036c.236 1.634 1.289 2.603 2.837 2.603 1.267 0 2.17-.603 2.45-1.656l2.535.689c-.602 2.043-2.492 3.248-5.028 3.248-3.588 0-5.502-2.775-5.502-5.593s1.762-5.592 5.351-5.592zm2.536 4.323c-.13-1.29-.968-2.259-2.536-2.259-1.332 0-2.278.797-2.579 2.259zm4.115-4.151h2.708v1.634c.688-1.054 1.913-1.806 3.438-1.806 2.364 0 3.954 1.548 3.954 3.914v7.097h-2.708v-6.452c0-1.268-.796-2.15-2.063-2.15-1.654 0-2.622 1.419-2.622 3.85v4.752H96.78zM51.7 15.349a1.623 1.623 0 1 0-.001-3.247 1.623 1.623 0 0 0 .001 3.247"/><path fill="#fff" d="M15.206 11.209v6.805l-.776 1.034-1.683-2.28-.24-.326v-3.91l.237-.295 1.7-2.126.762 1.1zm-1.525-2.144-.813-1.178-6.584-.777-.94 1.058 1.89 2.542.233.313 4.327.36.272-.336 1.616-1.984zM6.418 23.45v-.01l-1.966-2.39-.954 1.174v7.606l.936 1.05 1.982-2.625.27-.357v-4.124l-.266-.321zm5.59 5.427-.212-.26-4.327.364-.296.4-1.832 2.457.937 1.059 6.583-.787.816-1.177zm7.115-15.87-.211-.312-1.55-2.305-.73.938v6.706l.744 1.035 1.537-2.122.211-.29V13.01m6.13-1.842L23.9 13.075l-.187.264v3.483l.188.288 1.338 2.032.618-.926V12.14l-.606-.973zm-.61-.925-.647-1.042-5.188-.61-.733.945 1.478 2.232.181.273 3.411.284.215-.3zm.596 10.6L23.9 22.88l-.189.29v3.474l.189.266 1.352 1.908.606-.974v-6.077zm-6.327 2.202v-.008l-1.537-2.119-.744 1.035v6.706l.729.938 1.55-2.304.21-.312V23.33l-.208-.287zm4.4 4.852-.168-.235-3.411.288-.233.35-1.433 2.155.734.947 5.188-.62.647-1.04-1.324-1.846m-10.724-9.503h-.001l-.132-.176-5.722-.095-.145.18h-.001L5.213 20l1.29 1.587.232.286 5.722-.103.159-.213 1.17-1.566-1.197-1.6z"/></g><defs><clipPath id="a"><path fill="#fff" d="M0 0h107v40H0z"/></clipPath></defs></svg>