<svg xmlns="http://www.w3.org/2000/svg" fill="none" viewBox="0 0 2896 637"><path fill="#217aff" d="M2068.38 220.024h88.43v322.355h-88.43z"/><path fill="#010f32" d="M902.808 546.143c-69.613 0-119.785-33.238-119.785-94.7 0-68.357 50.799-107.242 148.008-107.242H995v-15.679c0-29.477-20.694-47.664-58.951-47.664-33.867 0-56.443 15.68-60.207 39.51h-85.293c6.271-62.088 63.971-104.105 149.263-104.105 90.308 0 142.358 40.137 142.358 117.277v114.14c0 16.935 6.28 20.068 20.07 20.068h10.66v74.632h-44.52c-43.9 0-59.58-20.696-59.58-49.546v-1.881c-22.579 34.494-55.19 55.189-105.363 55.189zm16.933-63.343c47.036 0 75.885-28.85 75.885-72.749v-6.271h-65.224c-37.629 0-57.699 13.796-57.699 41.392 0 23.203 18.188 37.002 47.664 37.002zm230.789-259.639h77.14l7.52 40.137c18.82-25.086 47.67-43.9 94.7-43.9 39.52 0 77.14 15.053 97.21 55.189 21.95-33.865 58.95-54.563 108.5-54.563 66.48 0 119.78 36.375 119.78 136.719v188.146h-88.42V361.133c0-45.781-17.57-70.24-55.82-70.24-38.26 0-63.97 26.967-63.97 73.376v179.365h-89.06V359.879c0-45.783-17.56-70.242-56.44-70.242-38.26 0-63.34 28.223-63.34 74.632v178.109h-88.43z"/><path fill="#217aff" d="M1821.57 546.143c-69.61 0-119.78-33.238-119.78-94.7 0-68.357 50.8-107.242 148.01-107.242h63.97v-15.679c0-29.477-20.7-47.664-58.95-47.664-33.87 0-56.45 15.68-60.21 39.51h-85.29c6.27-62.088 63.97-104.105 149.26-104.105 90.31 0 142.36 40.137 142.36 117.277v114.14c0 16.935 6.27 20.068 20.07 20.068h10.66v74.632h-44.53c-43.9 0-59.57-20.696-59.57-49.546v-1.881c-22.58 34.494-55.19 55.189-105.37 55.189zm16.94-63.343c47.04 0 75.89-28.85 75.89-72.749v-6.271h-65.23c-37.63 0-57.7 13.796-57.7 41.392 0 23.203 18.19 37.002 47.67 37.002z"/><path fill="#010f32" d="M2357.15 546.143c-89.06 0-150.52-40.767-154.28-109.126h84.66c3.14 26.969 27.6 45.783 70.25 45.783 37.62 0 61.45-11.916 61.45-35.121s-23.2-26.34-70.24-31.983c-77.76-8.78-138.6-25.086-138.6-94.071 0-63.971 55.82-105.361 138.6-105.361 86.55 0 146.13 37.629 151.15 102.225h-84.67c-2.5-24.459-26.34-38.883-63.34-38.883-35.12 0-55.81 11.289-55.81 32.611 0 24.458 22.57 28.222 69.61 33.867 77.77 8.779 139.23 23.203 139.23 95.325 0 63.969-60.21 104.734-146.76 104.734zm183.75-164.314c0-100.344 65.85-166.195 165.57-166.195 95.32 0 161.8 60.834 161.8 156.162 0 9.406 0 18.813-.63 30.104h-235.18v3.763c0 45.781 31.36 73.376 75.89 73.376 35.75 0 61.46-15.679 68.98-44.527h87.8c-10.03 61.461-67.1 111.634-153.65 111.634h.63-.63c-105.99-.003-170.58-65.229-170.58-164.317m238.32-38.256c-5.65-38.883-32.61-60.834-72.75-60.834-37.63 0-66.48 22.578-72.75 60.207z"/><path fill="#217aff" d="m335.086 215.864-1.392.039-1.369-.039c-6.84.01-14.51.389-22.69 1.09l-5.449.559-57.461 8.922.002.02-3.35.67c-19.89 4.219-38.48 9.209-52.246 14.25l-1.688.67-.918.141c-9.633 3.25-17.742 11.609-20.771 22.809l-.771 7.381-.152-1.5-.213 5-.021.199.01.041-.041.99c-1.65 46.238-1.178 148.929 18.848 166.509 15.404 13.528 62.93 49.979 100.131 75.409l16.091 10.602.131.108 4.188 2.73 5.031 3.01 2.58 1.369a52.4 52.4 0 0 0 20.101 3.951c7.141-.01 13.93-1.439 20.118-4.021l3.15-1.682 4.58-2.729 3.57-2.32 5.129-4.151-.279.33-5.08 4.161 17.371-11.36c37.488-25.432 85.379-61.881 100.908-75.409 20.182-17.58 20.65-120.271 18.99-166.509l-.27-6.281-.209 2.061-.34-3.211c-2.183-10.271-8.49-19.1-17.201-24.771l-5.222-2.729.603.061.16.051-2.271-.91-.039-.02-.18-.092-.98-.289-10.07-3.359c-12.061-3.73-26.35-7.33-41.39-10.49l-2.657-.531-.201.111-60.51-9.4-3.4-.35c-8.243-.703-15.971-1.082-22.861-1.091M64.291 10.164c27.971.354 91.188 8.404 112.278 10.605 5.625.588 9.025.967 11.088 1.238l.951.146 7.693.955 3.51.777 10.642 2.107 1.297.102 1.668.486 2.203.436 1.651.688 3.636 1.063c12.44 4.848 25.563 14.746 36.412 28.547 10.852 13.8 17.377 28.887 19.155 42.125l.072 1.57.358.916 5.828 32.938 6.139-.971 8.222-.84c12.34-1.064 23.891-1.652 34.198-1.658l2.07.051 2.101-.053c10.381.008 22.03.596 34.471 1.66l5.108.52 10.281 1.621 5.879-33.268.361-.916.068-1.57c1.781-13.238 8.311-28.326 19.16-42.125 10.852-13.8 23.97-23.699 36.41-28.547l3.631-1.063 1.649-.688 2.209-.436 1.67-.486 1.291-.102 10.64-2.107 3.512-.777 7.699-.955.949-.146c2.061-.27 5.461-.65 11.09-1.238 22.49-2.35 92.92-11.352 117.381-10.568 6.109.195 10.709.807 14.24 1.725l.539.188h.51c1.682.23 3.32.697 4.891 1.418 10.98 5.057 14.779 20.904 9.779 37.34l-.799 2.107-1.701 5.834c-1.779 4.977-4.279 10.105-7.469 15.127-4.781 7.533-10.451 13.754-16.23 18.228l-3.141 2.102-1.58 1.432c-13.029 10.178-32.738 16.666-54.799 16.666-9.801 0-19.15-1.281-27.642-3.598l-11.789-4.129-1.229-.139-2.83-.879a33.3 33.3 0 0 0-6.67-.672c-8 0-15.33 2.838-21.062 7.561l-.479.555-.738.56c-1.352 1.256-2.66 2.725-3.91 4.385l-1.131 1.74-.99 1.145-.379.982-1.08 1.66c-3.371 6.049-6.07 13.588-7.59 21.957l-.34 4.25.969.15.312-.17 4.01.811c22.66 4.82 44.211 10.299 62.399 15.969l15.181 5.121 1.479.449.26.141.049.01 3.441 1.391-.24-.07-.91-.1 7.869 4.17c13.121 8.639 22.65 22.07 25.932 37.719l.51 4.881.318-3.141.4 9.57c2.51 70.4 1.791 226.759-28.629 253.54-23.4 20.59-95.611 76.102-152.132 114.831l-26.18 17.279 7.66-6.32.42-.51-7.73 6.32-5.389 3.539-6.91 4.149-4.739 2.562a78.5 78.5 0 0 1-30.33 6.119c-10.75.019-21-2.119-30.312-6.011l-3.892-2.1-7.58-4.58-6.309-4.15-.211-.17-24.246-16.129c-56.09-38.729-127.74-94.241-150.965-114.831-30.19-26.78-30.904-183.139-28.416-253.54l.063-1.51-.016-.07.03-.301.552-5.328 1.162-11.24c4.567-17.051 16.791-29.781 31.313-34.73l1.385-.201 2.543-1.039c20.754-7.66 48.783-15.27 78.767-21.689l5.051-1.021-.004-.02.531-.08-.31-3.92c-1.524-8.369-4.225-15.91-7.594-21.957l-1.074-1.66-.387-.982-.988-1.145-1.125-1.74c-1.256-1.66-2.563-3.131-3.912-4.385l-.746-.56-.479-.555a32.96 32.96 0 0 0-21.055-7.561c-2.285 0-4.517.23-6.673.672l-2.825.879-1.234.139-11.784 4.129c-8.498 2.316-17.841 3.598-27.646 3.598-22.062 0-41.772-6.488-54.799-16.666L58.56 94.27l-3.144-2.102c-5.78-4.473-11.448-10.695-16.233-18.228-3.188-5.02-5.685-10.149-7.465-15.127l-1.7-5.834-.804-2.107c-4.998-16.436-1.193-32.283 9.78-37.34a17.2 17.2 0 0 1 4.896-1.418h.51l.537-.188c3.531-.918 8.13-1.529 14.242-1.725 1.54-.048 3.247-.06 5.112-.037M2182.3 109.223c-41.51-6.822-58.87-30.08-61.9-61.896-.61-6.484-4-11.746-7.8-11.746-3.79 0-7.18 5.262-7.79 11.746-3.03 31.816-20.39 55.074-61.9 61.896-6.43 1.057-11.75 4-11.75 7.797 0 3.799 5.32 6.744 11.75 7.799 41.51 6.822 58.87 30.08 61.9 61.896.61 6.484 4 11.746 7.79 11.746 3.8 0 7.19-5.262 7.8-11.746 3.03-31.816 20.39-55.074 61.9-61.896 6.43-1.055 11.74-4 11.74-7.799 0-3.797-5.31-6.74-11.74-7.797"/></svg>