<svg xmlns="http://www.w3.org/2000/svg" xml:space="preserve" viewBox="0 0 395 188"><linearGradient id="a" x1="96.992" x2="214.221" y1="152.567" y2="35.338" gradientTransform="matrix(1 0 0 -1 -.259 188.533)" gradientUnits="userSpaceOnUse"><stop offset="0" style="stop-color:#ffed57"/><stop offset=".132" style="stop-color:#ff5d64"/><stop offset=".359" style="stop-color:#ff3254"/><stop offset=".545" style="stop-color:#ff416a"/><stop offset=".578" style="stop-color:#e54278"/><stop offset=".69" style="stop-color:#8f43a7"/><stop offset=".77" style="stop-color:#5a45c4"/><stop offset=".808" style="stop-color:#4545cf"/></linearGradient><path d="M186.4 93.8c-.2-5.6 9.3-15.1 16.2-22.1 9.4-9.5 17.5-17.6 17.2-26.4-.1-3.6-1.7-6.9-4.8-9.7-12.1-10.1-24.2 1.5-34.9 14.2-10.2 12.1-21.6 28.6-33.6 28.1-6.1-.1-13.6-4.4-21-12.3-7.5-8.1-12.2-16.6-14.2-21.8 5.8 2.9 15.8 10.5 24.9 20.2 2.2 2.2 3.7 3.4 5 4.2.2.1.4.2.7.4.1.1.3.1.4.2 1.3.6 2.8 1 4.4.9 2.5-.2 5-1.8 7.4-4.6-11.6-14.9-32.9-34.3-45.3-35.4-4.4-.4-7.1 1.3-8.7 2.9-5.1 5.1-1.5 14.1-.3 17 6.7 16.5 26.2 41 46.4 41.1 18 .8 32.3-19 43.8-32.6 4.8-5.6 13.6-13.4 16.4-12.9 0 0 .5.1.6.4.4 3-8.7 12.1-13.5 17-9.9 10-20 20.2-19.9 31.2-.1 10.9 10.1 21.2 19.9 31.2 4.8 4.9 13.9 14 13.5 17 0 .4-.6.4-.6.4-2.8.5-11.7-7.2-16.4-12.9-11.5-13.5-28.7-33.4-46.7-32.5-20.2.2-39.6 24.7-46.4 41.1-1.2 2.9-4.9 11.9.3 17 1.5 1.5 4.3 3.2 8.7 2.9 12.4-1.1 33.7-20.5 45.3-35.4-2.4-2.8-4.9-4.4-7.4-4.6-1.6-.1-3.1.3-4.4.9-.1.1-.3.1-.4.2-.2.1-.4.2-.7.4-1.2.8-2.8 2-5 4.2-9.1 9.7-19.1 17.3-24.9 20.2 2-5.1 6.7-13.7 14.2-21.8 7.4-7.9 14.8-12.3 21-12.3 12-.5 26.3 16 36.5 28.1 10.7 12.7 22.8 24.3 34.9 14.2 3.1-2.7 4.7-6 4.8-9.7.3-8.8-7.8-16.9-17.2-26.4-7-7-16.4-16.6-16.2-22.2" style="fill:url(#a)"/><path d="M330.9 57c11.7 0 21.2 10 21.2 22.4s-9.5 22.4-21.2 22.4-21.2-10-21.2-22.4S319.2 57 330.9 57m0-12.8c-18.8 0-34.1 15.8-34.1 35.2s15.3 35.2 34.1 35.2S365 98.8 365 79.4s-15.3-35.2-34.1-35.2M98.6 80.9C97.9 62.1 82.9 47 64.6 47c-18.8 0-34.1 15.8-34.1 35.2s15.3 35.2 34.1 35.2c8 0 15.4-2.9 21.2-7.7v1.7c0 3.6 2.9 6.4 6.4 6.4 3.6 0 6.4-2.9 6.4-6.4zm-34 23.7c-11.7 0-21.2-10-21.2-22.4 0-12.3 9.5-22.4 21.2-22.4 11.5 0 20.8 9.6 21.2 21.5v1.6c-.5 12.1-9.8 21.7-21.2 21.7m156.5-23.1v40.4c0 3.5 2.9 6.4 6.4 6.4s6.4-2.8 6.4-6.4v-14.7c5.8 4.7 13.2 7.6 21.2 7.6 18.8 0 34.1-15.6 34.1-34.8s-15.3-34.8-34.1-34.8S221 60.8 221 80zm34.1 20.6c-11.7 0-21.2-9.9-21.2-22.1s9.5-22.1 21.2-22.1 21.2 9.9 21.2 22.1-9.5 22.1-21.2 22.1" style="fill:#3d3d3d"/></svg>