<svg xmlns="http://www.w3.org/2000/svg" xml:space="preserve" viewBox="0 0 737.8 228.6"><path d="m162.9 68-11.7 32.5L139.5 68H92.9v33.9L79.2 68H66l-20.9 51.7h15.7l11.6-32.5 11.7 32.5h23.1v-18.5h17.3V89.4h-17.3v-8.8h21.4l15.8 39.1h13.2L178.5 68z" style="fill:#c73b28"/><path d="M212.9 76.7h17.6c4.3 0 7.4 1.1 9.4 3.1 1.4 1.4 2.2 3.2 2.2 5.6v.1c0 4-2.3 6.3-5.3 7.7 4.2 1.4 6.8 3.7 6.8 8.4v.1c0 5.9-4.8 9.5-13 9.5h-17.7zm15.3 13.7c2.9 0 4.5-1 4.5-3v-.1c0-1.9-1.5-3-4.3-3h-6.2v6h6zm1.4 13c2.9 0 4.6-1.1 4.6-3.1v-.1c0-1.9-1.5-3.1-4.7-3.1h-7.3v6.3zm19.2-26.7h27.7v8.1h-18.3V90h16.5v7.5h-16.5v5.5h18.5v8.1h-27.9zm33.8 0h9.5v26h16.7v8.4h-26.2zm34 8.3h-10.3v-8.3h30.1V85h-10.3v26.1h-9.5zm23.6-8.3h16.3c5.3 0 8.9 1.4 11.2 3.7 2 2 3 4.6 3 8v.1c0 5.3-2.8 8.8-7.1 10.6l8.2 12h-11l-6.9-10.4h-4.2v10.4h-9.5zM356 93.2c3.2 0 5.1-1.6 5.1-4.1V89c0-2.7-2-4.1-5.2-4.1h-6.2v8.3zm32.7-16.8h9.2l14.6 34.7h-10.2l-2.5-6.1h-13.3l-2.5 6.1h-10zm8.4 21.1-3.8-9.8-3.9 9.8zm18.8-20.8H426l8.2 13.3 8.2-13.3h10.1v34.4H443V91.3l-8.8 13.5h-.2l-8.7-13.4v19.7h-9.4zm43.5 0H487v8.1h-18.2V90h16.5v7.5h-16.5v5.5h18.5v8.1h-27.9zM506.7 94v-.1c0-9.6 7.4-17.8 17.7-17.8 6 0 9.7 1.7 13.2 4.7l-3.8 4.6c-2.7-2.3-5.3-3.7-9.6-3.7-6.3 0-11.2 5.6-11.2 12.1v.1c0 7.1 4.7 12.3 11.7 12.3 3.2 0 6.2-1 8.3-2.6v-6.4h-8.8v-5.3h14.6v14.5c-3.4 2.9-8.3 5.4-14.3 5.4-10.7-.1-17.8-7.8-17.8-17.8m40-17.3H562c4.3 0 7.7 1.3 9.9 3.4 1.8 1.9 2.8 4.4 2.8 7.4v.1c0 5.7-3.4 9-8.2 10.4l9.3 13h-7.1l-8.4-12h-7.6v12h-6zm14.9 17c4.3 0 7.1-2.3 7.1-5.8v-.1c0-3.7-2.7-5.7-7.1-5.7h-8.8v11.6zm18.1.3v-.1c0-9.7 7.5-17.8 18-17.8 10.6 0 17.9 8 17.9 17.7v.1c0 9.7-7.5 17.8-18 17.8s-17.9-8-17.9-17.7m29.6 0v-.1c0-6.7-4.9-12.2-11.7-12.2S586 87.2 586 93.8v.1c0 6.7 4.9 12.2 11.7 12.2 6.9 0 11.6-5.4 11.6-12.1m12.7 2.5V76.7h6v19.6c0 6.4 3.3 9.8 8.7 9.8s8.6-3.2 8.6-9.6V76.7h6v19.5c0 10.3-5.8 15.4-14.8 15.4-8.8 0-14.5-5.1-14.5-15.1m37.7-19.8h13.6c8 0 13.1 4.6 13.1 11.5v.1c0 7.7-6.2 11.8-13.8 11.8h-6.8v11.1h-6V76.7zm13.1 17.9c4.6 0 7.4-2.6 7.4-6.1v-.1c0-4-2.9-6.1-7.4-6.1h-7v12.4h7zm-459.9 62.9 1.3-1.5c2 1.8 3.8 2.6 6.4 2.6 2.5 0 4.2-1.3 4.2-3.2v-.1c0-1.7-.9-2.7-4.9-3.6-4.3-.9-6.3-2.3-6.3-5.4v-.1c0-2.9 2.6-5.1 6.1-5.1 2.7 0 4.7.8 6.6 2.3l-1.2 1.6c-1.7-1.4-3.5-2-5.4-2-2.4 0-4 1.3-4 3v.1c0 1.8 1 2.8 5.1 3.6 4.2.9 6.1 2.4 6.1 5.3v.1c0 3.2-2.7 5.3-6.4 5.3-2.9.1-5.3-.9-7.6-2.9m19.2-16v2h6.3v16.7h2.1v-16.7h6.3v-2zm20.7 0v18.7h13.6v-1.9h-11.5v-6.5h10.2v-2h-10.2v-6.3h11.4v-2zm19.9 0v18.7h13.6v-1.9h-11.5v-6.5H285v-2h-10.2v-6.3h11.4v-2zm19.9 0v18.7h12.6v-1.9h-10.5v-16.8zm26 16 1.3-1.5c2 1.8 3.8 2.6 6.4 2.6 2.5 0 4.2-1.3 4.2-3.2v-.1c0-1.7-.9-2.7-4.9-3.6-4.3-.9-6.3-2.3-6.3-5.4v-.1c0-2.9 2.6-5.1 6.1-5.1 2.7 0 4.7.8 6.6 2.3l-1.2 1.6c-1.7-1.4-3.5-2-5.4-2-2.4 0-4 1.3-4 3v.1c0 1.8 1 2.8 5.1 3.6 4.2.9 6.1 2.4 6.1 5.3v.1c0 3.2-2.7 5.3-6.4 5.3-3 .1-5.4-.9-7.6-2.9m20.7-16h2.1v18.7h-2.1zm23.6 0v15l-11.7-15h-2v18.7h2v-15.3l12.1 15.3h1.7v-18.7zm8.8 9.4c0-5.3 4-9.7 9.5-9.7 3.4 0 5.4 1.2 7.3 3l-1.4 1.5c-1.6-1.5-3.3-2.6-5.9-2.6-4.1 0-7.2 3.4-7.2 7.7v.1c0 4.3 3.1 7.7 7.2 7.7 2.6 0 4.2-1 6-2.7l1.4 1.4c-2 2-4.1 3.3-7.5 3.3-5.4 0-9.4-4.3-9.4-9.7m22.8-9.4v18.7h13.7v-1.9h-11.6v-6.5h10.3v-2h-10.3v-6.3h11.5v-2zm31.3-.1-4.6 1.6.5 1.7 3.5-1.1v16.6h2.1v-18.8zm8.1 13.8c0-2.3 1.6-3.8 3.8-4.6-1.7-.8-3.2-2.1-3.2-4.3v-.1c0-2.9 3-4.9 6.4-4.9s6.4 2.1 6.4 4.9v.1c0 2.2-1.5 3.5-3.2 4.3 2.2.8 3.8 2.3 3.8 4.6v.1c0 3.2-3 5.3-7 5.3-4-.1-7-2.3-7-5.4m11.9 0c0-2.1-2.2-3.6-4.9-3.6s-4.9 1.5-4.9 3.5v.1c0 1.9 1.8 3.5 4.9 3.5s4.9-1.6 4.9-3.5m-.6-8.8c0-1.9-1.8-3.3-4.3-3.3-2.4 0-4.3 1.4-4.3 3.2v.1c0 2 1.9 3.4 4.3 3.4s4.3-1.4 4.3-3.4m8.7 11.9 1.2-1.6c1.5 1.3 2.9 2 4.6 2 3.4 0 5.6-3.4 5.6-8.2-1 1.6-2.7 3-5.3 3-3.8 0-6.5-2.4-6.5-5.8v-.1c0-3.5 2.7-6.4 6.7-6.4 2.1 0 3.7.7 4.9 1.9 1.4 1.4 2.3 3.5 2.3 7.2v.1c0 5.9-3.2 10.1-7.8 10.1-2.4 0-4.2-.9-5.7-2.2m10.9-10.9c0-2.4-2-4.3-4.8-4.3s-4.5 2.1-4.5 4.4v.1c0 2.4 1.9 4.1 4.6 4.1 2.9-.1 4.7-2.2 4.7-4.3m10.8 11.3c-1.5-1.5-2.3-3.4-2.3-7.2v-.1c0-5.7 2.9-10.2 7.8-10.2 2.2 0 3.9.8 5.5 2.1l-1.2 1.6c-1.4-1.2-2.7-1.8-4.4-1.8-3.4 0-5.5 3.4-5.5 8.2 1-1.5 2.6-2.9 5.3-2.9 3.5 0 6.5 2.2 6.5 5.7v.1c0 3.6-2.9 6.2-6.7 6.2-2.1.1-3.8-.6-5-1.7m9.5-4.3c0-2.3-1.9-4.1-4.6-4.1-2.8 0-4.7 2-4.7 4.1v.1c0 2.4 2 4.2 4.7 4.2 2.8 0 4.6-1.9 4.6-4.3"/></svg>