<svg xmlns="http://www.w3.org/2000/svg" xmlns:xlink="http://www.w3.org/1999/xlink" xml:space="preserve" width="400" height="61.342"><defs><linearGradient id="a"><stop offset="0" style="stop-color:#d20037;stop-opacity:1"/><stop offset="1" style="stop-color:#ca0030;stop-opacity:1"/></linearGradient><linearGradient xlink:href="#a" id="b" x1="365.818" x2="533.075" y1="76.17" y2="76.17" gradientTransform="matrix(.8272 0 0 1.05477 -12.123 -843.245)" gradientUnits="userSpaceOnUse"/></defs><path d="M290.485-773.512h138.357v21.218H290.485z" style="fill:url(#b);fill-opacity:1;stroke:none" transform="translate(-839.815 2236.287)scale(2.89108)"/><path d="M313.944 758.355v3.634h6.245v3.1h-6.245v2.54h7.895v3.168h-11.863V755.03h12.532v3.325zm35.634 12.42v-9.41l-5.733 9.41h-3.858V755.03h3.77v9.434l4.824-8.002 5.646 14.313zm17.518 0-2.406-9.497-2.544 9.497h-5.351V755.03h3.637v10.37l2.943-10.37h2.607l2.9 10.37v-10.37h3.614v15.745zm44.974 0h-4.106V755.03l4.106.003zm7.26-12.221v12.243h-4.077V755.03h10.636v3.524z" style="fill:#fff;fill-opacity:1;fill-rule:nonzero;stroke:none" transform="matrix(2.89108 0 0 -2.89108 -839.815 2236.287)"/><path d="M324.425 770.775V755.03h4.014v5.31h2.05l2.855-5.31h4.372l-3.211 5.958c2.139.689 3.188 2.562 3.188 4.546 0 1.719-.711 3.057-1.651 3.88-1.581 1.361-3.7 1.361-5.44 1.361zm5.575-3.28c1.004 0 2.163-.02 2.786-.422.269-.178.759-.623.759-1.561 0-.622-.245-1.38-1.048-1.739-.557-.268-1.226-.268-2.696-.268l-1.362.023v3.968zm52.19 3.547c-1.426 0-3.346-.288-5.128-1.785-2.474-2.094-2.743-4.837-2.743-6.309 0-2.142.692-4.26 2.165-5.843 2.005-2.141 4.434-2.34 5.706-2.34 1.45 0 3.367.29 5.129 1.78 2.477 2.121 2.721 4.886 2.721 6.312 0 4.419-2.876 8.185-7.85 8.185m0-3.433c2.521.044 3.614-2.097 3.614-4.728 0-1.316-.247-2.675-1.137-3.635-.402-.445-1.204-1.049-2.477-1.049-2.452 0-3.634 2.095-3.634 4.838 0 2.589 1.226 4.529 3.634 4.574m9.702 3.166V755.03h8.184c1.56.024 4.057.044 5.107 2.386.267.604.38 1.25.38 1.876 0 .89-.224 2.563-1.807 3.544-.67.425-1.14.467-1.585.493.558.064 1.516.176 2.298 1.223.423.605.623 1.339.623 2.052 0 1.183-.422 2.25-1.159 2.945-1.271 1.205-3.122 1.226-5.174 1.226zm7.158-3.3c.713 0 2.096-.022 2.096-1.448 0-1.295-1.316-1.318-2.008-1.338h-3.276v2.787zm.18-5.91c.533 0 1.2-.022 1.715-.38.334-.222.625-.647.625-1.27 0-.49-.202-.96-.513-1.227-.469-.422-1.183-.446-1.741-.446h-3.454v3.323zm-100.895 5.911h2.73c.714 0 2.096-.023 2.096-1.449 0-1.295-1.315-1.318-2.007-1.338l-3.918-.003-3.8-9.656h8.654c1.562.024 4.06.045 5.106 2.386.27.604.38 1.25.38 1.876 0 .89-.223 2.562-1.805 3.544-.671.424-1.139.467-1.583.492.556.067 1.515.178 2.296 1.223.425.605.626 1.34.626 2.053 0 1.183-.426 2.25-1.161 2.946-1.271 1.203-3.122 1.225-5.174 1.225h-1.14zm2.906-5.911c.538 0 1.208-.022 1.718-.377.335-.225.625-.649.625-1.273 0-.49-.2-.96-.511-1.226-.47-.423-1.183-.447-1.74-.447h-3.458v3.323z" style="fill:#fff;fill-opacity:1;fill-rule:evenodd;stroke:none" transform="matrix(2.89108 0 0 -2.89108 -839.815 2236.287)"/></svg>