<svg xmlns="http://www.w3.org/2000/svg" xmlns:xlink="http://www.w3.org/1999/xlink" xml:space="preserve" width="600.049" height="299.6" viewBox="0 0 600.049 299.6"><path d="m42.7 249 20.4 27.7H48.6l-13.7-18.8-13.6 18.8H7.5l20.4-27.6-20-26.5h14.5l13.1 18.1 13.3-18.1h13.9zm60.8 2.9H70.8v-10.7h32.7zm54.4-29.2-2.8 11.7c-2.5-1.3-6.1-2-9-2-7.5 0-12.9 5.3-12.9 14.5v29.8h-11.8v-54.1h11.7v6.1c3.6-5.1 9.1-7.5 15.7-7.5 3.6 0 6.4.4 9.1 1.5m62.8 54h-11.8v-6.5c-3.7 4.8-9.3 7.9-17 7.9-15.1 0-27-11.9-27-28.5 0-16.5 11.9-28.4 27-28.4 7.7 0 13.3 3.2 17 8v-6.5h11.8zM177 249.6c0 9.5 6.2 17.3 16.3 17.3 9.8 0 16.3-7.5 16.3-17.3 0-9.9-6.5-17.3-16.3-17.3-10.1 0-16.3 7.9-16.3 17.3m72.7 50h-13.1l19.4-34-24-43h13.3l17.4 31 16.8-31h13z" style="fill:#e6002b"/><g transform="translate(-25.3 -175.3)"><defs><path id="a" d="M127.5 264.9c0 17.1 14.7 31.1 31.1 31.1 16.3 0 31.1-13.9 31.1-31.1s-14.7-31.1-31.1-31.1-31.1 13.9-31.1 31.1m-102.2 0c0 32.7 28 59.1 60.6 59.1 11.8 0 23-3.5 32.5-9.5.7-.4.7-1.4.1-1.9-6.8-5.4-12.5-12.2-16.7-19.9-.3-.6-1-.8-1.6-.5-4.4 2.4-9.3 3.7-14.3 3.7-16.3 0-31.1-13.9-31.1-31.1s14.7-31.1 31.1-31.1c5.1 0 10 1.3 14.3 3.7.6.3 1.3.1 1.6-.5 4.1-7.7 9.8-14.5 16.7-19.9.6-.5.6-1.5-.1-1.9-9.5-6-20.7-9.5-32.5-9.5-32.6.1-60.6 26.6-60.6 59.3M306.7 225c-7.5-12-20.6-19.3-36.8-19.3-12.8 0-26.1 3.1-34.1 15.1v-8.9c0-2.6-2.1-4.7-4.7-4.7h-18.9c-2.6 0-4.7 2.1-4.7 4.7v13.4c0 .3.1.5.3.8 9 10.6 14.5 24.1 14.5 38.8s-5.5 28.2-14.5 38.8c-.2.2-.3.5-.3.7v13.4c0 2.6 2.1 4.7 4.7 4.7h20.1c2.6 0 4.7-2.1 4.7-4.7v-58.6c0-16.9 11.4-25.4 24.4-25.4 13.8 0 22.2 8.9 22.2 25.2v58.8c0 2.6 2.1 4.7 4.7 4.7h20.1c2.6 0 4.7-2.1 4.7-4.7v-58.6c0-16.9 11.2-25.4 24.1-25.4 13.7 0 21.9 8.9 21.9 25.2v58.8c0 2.6 2.1 4.7 4.7 4.7h20.7c2.6 0 4.7-2.1 4.7-4.7v-68.2c0-26.1-17.8-43.9-44.3-43.9-14.6 0-29.5 5-38.2 19.3m157.2 8.8c11.8 0 23.1 7.2 26.6 17.7h-53.2c3.5-10.4 14.8-17.7 26.6-17.7m-59 31c0 32.7 26.3 59.2 59 59.2 17.1 0 32.1-4.4 44.3-13.9 2.1-1.6 2.4-4.7.7-6.7L497 288.7c-1.6-1.9-4.4-2.3-6.4-.9-7.5 5.2-16.4 8.1-25.8 8.1-14.3 0-25.5-9.4-29.1-22.2h81.1c2.5 0 4.5-1.9 4.7-4.4.1-1.5.2-3 .2-4.5 0-32.5-25.4-58.8-57.8-59.2-32.4.1-58.9 26.7-59 59.2M552 175.3c-2.6 0-4.7 2.1-4.7 4.7v27.2h-17c-2.6 0-4.7 2.1-4.7 4.7v18.6c0 2.6 2.1 4.7 4.7 4.7h17V279c0 29.1 14.3 44.9 42.1 44.9 14.1 0 24.6-4 33.7-9.5 2.1-1.3 2.8-3.9 1.8-6.1l-7.2-15.3c-1.1-2.4-4.1-3.4-6.5-2.2-5.3 2.7-11.2 5-16.8 5-9.4 0-17.5-5.1-17.5-19.1v-41.5H611c2.6 0 4.7-2.1 4.7-4.7v-18.6c0-2.6-2.1-4.7-4.7-4.7h-34.2V180c0-2.6-2.1-4.7-4.7-4.7z"/></defs><clipPath id="b"><use xlink:href="#a" style="overflow:visible"/></clipPath><linearGradient id="c" x1="-272.537" x2="-265.708" y1="749.551" y2="749.551" gradientTransform="matrix(115.5897 0 0 -115.5897 31463.613 86890.109)" gradientUnits="userSpaceOnUse"><stop offset="0" style="stop-color:#e83b0c"/><stop offset=".06" style="stop-color:#e83410"/><stop offset=".149" style="stop-color:#e71f1b"/><stop offset=".25" style="stop-color:#e6002b"/><stop offset=".382" style="stop-color:#db0042"/><stop offset=".5" style="stop-color:#cf005a"/><stop offset=".638" style="stop-color:#bf0f68"/><stop offset=".75" style="stop-color:#af1e76"/><stop offset="1" style="stop-color:#6e1d74"/></linearGradient><path d="M25.3 175.3h600.6V324H25.3z" style="clip-path:url(#b);fill:url(#c)"/></g></svg>