<?xml version="1.0" encoding="UTF-8" standalone="no"?>
<!-- Generator: Adobe Illustrator 19.0.0, SVG Export Plug-In . SVG Version: 6.00 Build 0)  -->

<svg
   version="1.1"
   id="layer"
   x="0px"
   y="0px"
   viewBox="-153 -46 600.04913 300.29999"
   xml:space="preserve"
   width="600.04913"
   height="300.29999"
   xmlns:xlink="http://www.w3.org/1999/xlink"
   xmlns="http://www.w3.org/2000/svg"
   xmlns:svg="http://www.w3.org/2000/svg"><defs
   id="defs5"><defs
     id="defs1">
		<path
   id="SVGID_1_"
   d="m -29,215.7 c 0,17.1 14.7,31.1 31.1,31.1 16.3,0 31.1,-13.9 31.1,-31.1 0,-17.2 -14.7,-31.1 -31.1,-31.1 -16.4,0 -31.1,13.9 -31.1,31.1 m -102.2,0 c 0,32.7 28,59.2 60.6,59.2 11.8,0 23,-3.5 32.5,-9.5 0.7,-0.4 0.7,-1.4 0.1,-1.9 -6.8,-5.5 -12.5,-12.2 -16.6,-19.9 -0.3,-0.6 -1,-0.8 -1.6,-0.5 -4.4,2.4 -9.3,3.7 -14.3,3.7 -16.3,0 -31.1,-13.9 -31.1,-31.1 0,-17.2 14.7,-31.1 31.1,-31.1 5.1,0 10,1.3 14.3,3.7 0.6,0.3 1.3,0.1 1.6,-0.5 4.1,-7.7 9.8,-14.5 16.6,-19.9 0.6,-0.5 0.6,-1.5 -0.1,-1.9 -9.5,-6 -20.7,-9.5 -32.5,-9.5 -32.6,0 -60.6,26.5 -60.6,59.2 m 281.4,-39.9 c -7.5,-12 -20.6,-19.3 -36.8,-19.3 -12.8,0 -26.1,3.1 -34.1,15.1 v -8.9 c 0,-2.6 -2.1,-4.7 -4.7,-4.7 h -19 c -2.6,0 -4.7,2.1 -4.7,4.7 v 13.4 c 0,0.3 0.1,0.5 0.3,0.8 9,10.6 14.5,24.1 14.5,38.8 0,14.7 -5.6,28.2 -14.5,38.8 -0.2,0.2 -0.3,0.5 -0.3,0.8 v 13.4 c 0,2.6 2.1,4.7 4.7,4.7 h 20.1 c 2.6,0 4.7,-2.1 4.7,-4.7 V 210 c 0,-16.9 11.4,-25.4 24.4,-25.4 13.8,0 22.2,8.9 22.2,25.2 v 58.8 c 0,2.6 2.1,4.7 4.7,4.7 h 20.1 c 2.6,0 4.7,-2.1 4.7,-4.7 V 210 c 0,-16.9 11.2,-25.4 24.1,-25.4 13.7,0 21.9,8.9 21.9,25.2 v 58.8 c 0,2.6 2.1,4.7 4.7,4.7 h 20.7 c 2.6,0 4.7,-2.1 4.7,-4.7 v -68.3 c 0,-26.1 -17.8,-43.9 -44.3,-43.9 -14.5,0.1 -29.4,5.1 -38.1,19.4 m 157.2,8.8 c 11.8,0 23.1,7.3 26.6,17.7 h -53.1 c 3.4,-10.4 14.7,-17.7 26.5,-17.7 m -59,31 c 0,32.7 26.3,59.2 59,59.2 17.1,0 32.1,-4.4 44.2,-13.9 2.1,-1.6 2.4,-4.7 0.7,-6.7 l -11.9,-14.7 c -1.6,-1.9 -4.4,-2.3 -6.4,-0.9 -7.5,5.2 -16.4,8.1 -25.8,8.1 -14.3,0 -25.5,-9.4 -29.1,-22.2 h 81.1 c 2.5,0 4.5,-1.9 4.7,-4.4 0.1,-1.5 0.2,-3 0.2,-4.5 0,-32.5 -25.4,-58.8 -57.8,-59.2 -32.3,0.1 -58.8,26.7 -58.9,59.2 m 147.1,-89.5 c -2.6,0 -4.7,2.1 -4.7,4.7 V 158 h -17 c -2.6,0 -4.7,2.1 -4.7,4.7 v 18.6 c 0,2.6 2.1,4.7 4.7,4.7 h 17 v 43.8 c 0,29.1 14.3,44.9 42.1,44.9 14.1,0 24.6,-4 33.7,-9.5 2.1,-1.3 2.8,-3.9 1.8,-6.1 l -7.2,-15.3 c -1.1,-2.4 -4.1,-3.4 -6.5,-2.2 -5.3,2.7 -11.2,5 -16.8,5 -9.4,0 -17.5,-5.1 -17.5,-19.1 V 186 h 34.2 c 2.6,0 4.7,-2.1 4.7,-4.7 v -18.6 c 0,-2.6 -2.1,-4.7 -4.7,-4.7 h -34.2 v -27.1 c 0,-2.6 -2.1,-4.7 -4.7,-4.7 h -20.2 z" />
	</defs><clipPath
     id="SVGID_2_">
		<use
   xlink:href="#SVGID_1_"
   style="overflow:visible"
   id="use1" />
	</clipPath><linearGradient
     id="SVGID_3_"
     gradientUnits="userSpaceOnUse"
     x1="-124.2645"
     y1="702.47229"
     x2="-118.9837"
     y2="702.47229"
     gradientTransform="matrix(167.2756,0,0,-167.2756,20491.977,117706.95)">
		<stop
   offset="0"
   style="stop-color:#E8440A"
   id="stop1" />
		<stop
   offset="0.25"
   style="stop-color:#E50022"
   id="stop2" />
		<stop
   offset="0.5"
   style="stop-color:#DF0068"
   id="stop3" />
		<stop
   offset="0.75"
   style="stop-color:#C3007D"
   id="stop4" />
		<stop
   offset="1"
   style="stop-color:#731080"
   id="stop5" />
	</linearGradient></defs>
<style
   type="text/css"
   id="style1">
	.st0{fill:#E50022;}
	.st1{clip-path:url(#SVGID_2_);fill:url(#SVGID_3_);}
</style>
<path
   class="st0"
   d="m -100.5,183.1 v -6.5 h 11.9 v 50.3 c 0,17 -11,27.4 -29,27.4 -8.1,0 -16.9,-2.2 -22.6,-6.3 l 4.3,-10 c 5.5,3.3 11.7,5.5 18.3,5.5 11.1,0 17.2,-6.1 17.2,-16.1 v -4.3 c -4.1,5.2 -10.2,7.9 -18,7.9 -12.4,0 -25.1,-10.4 -25.1,-27.9 0,-17.5 12.7,-27.9 25.1,-27.9 7.7,0 13.8,2.7 17.9,7.9 m -31,20 c 0,9.1 6,16.8 16,16.8 9.5,0 16,-7.3 16,-16.8 0,-9.5 -6.4,-16.8 -16,-16.8 -10,0 -16,7.6 -16,16.8 m 98.9,-26.4 -2.8,11.7 c -2.5,-1.3 -6.1,-2 -9,-2 -7.5,0 -12.9,5.3 -12.9,14.5 v 29.7 h -11.8 v -54.1 h 11.7 v 6.1 c 3.6,-5.1 9.1,-7.5 15.7,-7.5 3.7,0.1 6.4,0.5 9.1,1.6 m 65.2,26.9 c 0,16.2 -12.4,28.4 -29.1,28.4 -16.7,0 -29.1,-12.2 -29.1,-28.4 0,-16.2 12.4,-28.4 29.1,-28.4 16.7,0 29.1,12.2 29.1,28.4 m -46,0 c 0,10.2 7.3,17.3 16.9,17.3 9.7,0 17,-7.1 17,-17.3 0,-10.2 -7.3,-17.3 -17,-17.3 -9.6,0 -16.9,7.1 -16.9,17.3 m 111.3,4.1 c 0,17.2 -12.4,24.3 -25.1,24.3 -12.7,0 -25.1,-7.1 -25.1,-24.3 v -31.2 h 11.9 v 30.1 c 0,10.4 5.8,14.3 13.2,14.3 7.4,0 13.2,-3.8 13.2,-14.3 v -30.1 h 11.9 z m 74.9,-4.1 c 0,16.5 -11.9,28.4 -27,28.4 -7.7,0 -13.2,-3.1 -16.9,-7.8 v 29 h -11.8 v -76.7 h 11.8 v 6.4 c 3.7,-4.7 9.3,-7.8 16.9,-7.8 15.1,0.1 27,12 27,28.5 m -44.8,0 c 0,9.9 6.5,17.3 16.3,17.3 10.2,0 16.3,-7.8 16.3,-17.3 0,-9.5 -6.1,-17.3 -16.3,-17.3 -9.7,0 -16.3,7.5 -16.3,17.3"
   id="path1" />
<path
   id="rect5"
   clip-path="url(#SVGID_2_)"
   style="fill:url(#SVGID_3_)"
   class="st1"
   d="M -131.2,126.1 H 469.39998 V 274.8 H -131.2 Z"
   transform="translate(-21.8,-172.1)" />
</svg>
