<?xml version="1.0" encoding="UTF-8" standalone="no"?>
<!-- Created with Inkscape (http://www.inkscape.org/) -->

<svg
   version="1.1"
   id="svg2"
   width="1600"
   height="462.66666"
   viewBox="0 0 1600 462.66666"
   sodipodi:docname="PF_Logo_on_Yellow_RGB.eps"
   xmlns:inkscape="http://www.inkscape.org/namespaces/inkscape"
   xmlns:sodipodi="http://sodipodi.sourceforge.net/DTD/sodipodi-0.dtd"
   xmlns="http://www.w3.org/2000/svg"
   xmlns:svg="http://www.w3.org/2000/svg">
  <defs
     id="defs6" />
  <sodipodi:namedview
     id="namedview4"
     pagecolor="#ffffff"
     bordercolor="#000000"
     borderopacity="0.25"
     inkscape:showpageshadow="2"
     inkscape:pageopacity="0.0"
     inkscape:pagecheckerboard="0"
     inkscape:deskcolor="#d1d1d1" />
  <g
     id="g8"
     inkscape:groupmode="layer"
     inkscape:label="ink_ext_XXXXXX"
     transform="matrix(1.3333333,0,0,-1.3333333,0,462.66667)">
    <g
       id="g10"
       transform="scale(0.1)">
      <path
         d="M 12000,0 H 0 V 3470 H 12000 V 0"
         style="fill:#ffcc00;fill-opacity:1;fill-rule:nonzero;stroke:none"
         id="path12" />
      <path
         d="m 2382.32,1955.15 c -20.63,1.47 -41.26,1.47 -61.89,1.47 -197.74,0 -371.71,-42.67 -512.61,-125.68 117.99,156.07 177.3,360.95 173.6,600.85 V 2470 h -448.54 l 0.57,-44.08 c 2.94,-163.11 -35.37,-285.08 -113.47,-360.02 -101.68,-96.99 -266.72,-111.68 -387.56,-105.8 l -32.42,1.68 v -445.86 l 17.68,-1.07 c 20.63,-1.47 41.26,-1.47 61.89,-1.47 197.74,0 371.71,42.67 512.61,125.68 -117.99,-156.07 -177.3,-360.95 -173.6,-600.85 V 1000 h 448.54 l -0.57,44.08 c -2.94,163.11 35.37,285.08 113.47,360.02 101.68,96.99 266.72,111.68 387.56,105.8 l 32.42,-1.68 v 445.86 l -17.68,1.07"
         style="fill:#ffffff;fill-opacity:1;fill-rule:nonzero;stroke:none"
         id="path14" />
      <path
         d="m 4764.7,1203.85 c 195.71,0 325.93,107.05 325.93,266.02 0,178.14 -163.77,198.91 -302.77,216.49 -101.45,13.58 -190.92,27.16 -190.92,101.45 0,51.93 44.73,89.47 138.2,89.47 98.26,0 150.98,-42.34 172.55,-117.43 l 168.56,43.14 c -31.16,127.81 -139,220.48 -333.92,220.48 -197.32,0 -324.33,-94.26 -324.33,-253.23 0,-179.75 162.16,-203.71 303.56,-225.28 103.85,-15.98 188.53,-28.76 188.53,-99.86 0,-56.71 -52.45,-93.26 -141.92,-93.26 -93.46,0 -165.64,41.34 -189.61,126.82 l -170.15,-43.94 c 42.34,-144.59 181.34,-230.87 356.29,-230.87 z m -827.61,158.17 c -125.42,0 -227.67,108.65 -227.67,243.65 0,135.01 102.25,243.65 227.67,243.65 125.42,0 227.67,-108.64 227.67,-243.65 0,-135 -102.25,-243.65 -227.67,-243.65 z m -1.6,643.88 c -227.67,0 -388.24,-181.34 -388.24,-401.03 0,-218.08 158.17,-401.02 389.84,-401.02 230.07,0 388.24,182.94 388.24,401.02 0,219.69 -158.17,401.03 -389.84,401.03 z m 2759.36,93.49 c 54.32,0 100.66,44.73 100.66,99.05 0,55.12 -46.34,99.06 -100.66,99.06 -52.72,0 -99.05,-44.74 -99.05,-99.06 0,-55.12 46.33,-99.05 99.05,-99.05 z m 3760.65,-413.83 362.6,0.35 c 0,98.26 -76.1,169 -167.2,169 -103,0 -185.8,-75.89 -195.4,-169.35 z m 522.2,-265.06 c -41.4,-125.4 -148.5,-216.65 -318.8,-216.65 -238.1,0 -390.6,179.74 -390.6,397.83 0,230.07 152.5,396.23 378.6,396.23 157.4,-0.8 353.1,-95.86 353.1,-387.44 l -1.6,-50.33 h -550.1 c -4.8,-110.24 89.2,-204.51 209,-204.51 61.5,0 133.4,18.38 159.8,106.25 z m -967.8,58.17 c -31.96,-103.05 -107.05,-113.43 -154.98,-113.43 -98.26,0 -211.7,63.91 -211.7,233.26 0,166.96 115.04,236.46 211.7,236.46 50.32,0 128.61,-11.98 153.38,-113.44 l 173.5,44.62 c -34.7,143.65 -176.4,230.19 -326.08,230.19 -234.87,0 -385.85,-179.74 -385.85,-396.23 0,-216.49 140.6,-394.63 385.05,-396.23 159.78,-1.46 275.88,83.71 317.58,232.65 z m -1326.35,503.28 0.01,-758.9 h 176.54 v 432.97 c 0,124.62 98.26,178.15 179.74,178.15 72.7,0 127.82,-43.94 127.82,-151.78 v -459.34 h 176.54 v 480.91 c 0,186.13 -91.07,296.37 -264.42,296.37 -99.85,0 -199.71,-53.52 -229.27,-153.38 l -13.58,135 h -153.38 z m -379.84,-401.84 v 59.11 c 0,127.82 -87.87,198.12 -194.92,198.12 -136.6,0 -198.11,-126.22 -198.11,-233.26 0,-107.85 43.13,-234.87 198.11,-234.87 127.02,-0.79 194.92,94.27 194.92,210.9 z m -575.17,23.17 c 0,194.92 113.44,396.23 364.27,396.23 115.04,0 201.31,-64.71 214.89,-121.43 l 11.99,103.05 h 154.97 v -583.96 c 0,-23.16 11.99,-50.32 64.71,-49.52 v -130.22 l -39.94,-4.79 c -103.05,-6.39 -187.73,53.52 -191.73,126.22 v 1.6 c -21.56,-70.3 -113.43,-136.61 -214.89,-136.61 -251.63,0 -364.27,215.69 -364.27,399.43 z m -782.06,-380.23 h 176.54 v 432.97 c 0,124.63 98.26,178.15 179.74,178.15 72.7,0 127.82,-43.94 127.82,-151.78 v -459.34 h 176.55 v 480.91 c 0,186.13 -91.07,296.37 -264.42,296.37 -99.86,0 -199.72,-53.52 -229.27,-153.38 l -13.58,135 h -153.38 z m -168.55,758.9 h -176.54 v -758.9 h 176.54 z m -308.75,262.83 H 5810.13 V 1223.85 h 186.13 v 417.8 h 437.77 v 164.56 h -437.77 v 271.61 h 472.92 z M 5591.5,1357.23 c -106.24,0 -144.59,25.56 -144.59,115.04 v 342.7 h 193.32 v 151.78 h -218.08 c 35.15,32.76 66.3,78.29 61.51,182.94 H 5315.9 c 0,-8.79 -8.79,-170.16 -158.17,-234.86 v -99.86 h 115.03 v -361.08 c 0,-173.35 109.45,-250.04 284.39,-250.04 30.36,0 61.52,1.6 91.87,6.39 v 150.19 c -19.97,-1.6 -38.34,-3.2 -57.52,-3.2 z m -2656.17,722.16 v -319.54 h 207.7 c 99.86,0 159.77,63.11 161.37,159.77 -1.6,96.66 -61.51,159.77 -161.37,159.77 z m 557.6,-159.77 c 0,-169.36 -118.23,-325.93 -322.74,-325.93 H 2935.33 V 1223.82 H 2750 v 1021.73 h 420.99 c 203.71,0 321.94,-156.57 321.94,-325.93"
         style="fill:#004b5a;fill-opacity:1;fill-rule:nonzero;stroke:none"
         id="path16" />
    </g>
  </g>
</svg>
