<?xml version="1.0" encoding="UTF-8" standalone="no"?>
<!-- Created with Inkscape (http://www.inkscape.org/) -->

<svg
   version="1.0"
   width="790.42346"
   height="255.00531"
   id="svg2"
   xmlns="http://www.w3.org/2000/svg"
   xmlns:svg="http://www.w3.org/2000/svg"
   xmlns:rdf="http://www.w3.org/1999/02/22-rdf-syntax-ns#"
   xmlns:cc="http://creativecommons.org/ns#"
   xmlns:dc="http://purl.org/dc/elements/1.1/">
  <metadata
     id="metadata231">
    <rdf:RDF>
      <cc:Work
         rdf:about="">
        <dc:format>image/svg+xml</dc:format>
        <dc:type
           rdf:resource="http://purl.org/dc/dcmitype/StillImage" />
      </cc:Work>
    </rdf:RDF>
  </metadata>
  <defs
     id="defs4" />
  <path
     style="fill:#000000;fill-opacity:1;fill-rule:nonzero;stroke:none"
     id="path2943"
     d="m 136.29151,29.785512 c 1.40139,0.88983 3.0412,1.40155 5.26363,1.40155 2.94078,0 5.36787,-1.50402 5.36787,-4.88753 0,-4.6851 -10.94085,-5.26585 -10.94085,-11.5213 0,-3.82865 3.35055,-6.22231 7.55704,-6.22231 1.16143,0 3.0412,0.17114 4.68328,0.78533 l -0.37655,2.15548 c -1.05864,-0.58273 -2.73585,-0.88968 -4.34218,-0.88968 -2.4603,0 -5.16112,1.02554 -5.16112,4.10221 0,4.78736 10.93863,4.8207 10.93863,11.79495 0,4.8206 -4.13547,6.73393 -7.82872,6.73393 -2.32449,0 -4.13547,-0.47833 -5.40113,-1.02554 l 0.2401,-2.42709" />
  <path
     style="fill:#000000;fill-opacity:1;fill-rule:nonzero;stroke:none"
     id="path2945"
     d="m 167.81015,17.716952 c -1.16125,-0.51167 -2.56278,-0.88779 -3.72639,-0.88779 -4.20439,0 -6.56474,3.04328 -6.56474,7.28134 0,3.96651 2.3937,7.28344 6.32465,7.28344 1.36813,0 2.63379,-0.30924 3.93326,-0.78752 l 0.20452,2.01774 c -1.47059,0.51162 -2.83891,0.61398 -4.47817,0.61398 -5.60843,0 -8.34264,-4.27349 -8.34264,-9.12764 0,-5.36806 3.45279,-9.12764 8.616,-9.12764 2.08448,0 3.58847,0.47829 4.20481,0.68296 l -0.1713,2.05113" />
  <path
     style="fill:#000000;fill-opacity:1;fill-rule:nonzero;stroke:none"
     id="path2947"
     d="m 174.30618,7.187762 h 2.15318 v 11.14537 h 0.0693 c 0.92291,-1.91313 2.87157,-3.35027 5.43434,-3.35027 4.68492,0 5.94891,3.11225 5.94891,7.41914 v 10.42683 h -2.15373 v -10.39359 c 0,-3.00759 -0.58035,-5.60608 -4.13556,-5.60608 -3.8283,0 -5.16322,3.62392 -5.16322,6.6672 v 9.33247 h -2.15318 V 7.187762" />
  <path
     style="fill:#000000;fill-opacity:1;fill-rule:nonzero;stroke:none"
     id="path2949"
     d="m 213.89538,32.828832 h -2.59826 l -4.75208,-15.07629 h -0.0688 l -4.75194,15.07629 h -2.59821 l -5.60621,-17.43666 h 2.35812 l 4.58077,15.07839 h 0.0687 l 4.85441,-15.07839 h 2.59839 l 4.61608,15.07839 h 0.0666 l 4.82074,-15.07839 h 2.15359 l -5.74187,17.43666" />
  <path
     style="fill:#000000;fill-opacity:1;fill-rule:nonzero;stroke:none"
     id="path2951"
     d="m 235.87682,22.880282 c 0,-3.04327 -1.23008,-6.05112 -4.44249,-6.05112 -3.18112,0 -5.12973,3.17914 -5.12973,6.05112 z m 1.06115,9.40125 c -1.50363,0.61628 -3.45261,0.95661 -5.06089,0.95661 -5.77741,0 -7.93073,-3.89752 -7.93073,-9.12764 0,-5.33242 2.94097,-9.12764 7.34984,-9.12764 4.92329,0 6.94107,3.96651 6.94107,8.64936 v 1.09451 H 226.3046 c 0,3.6929 1.98415,6.66721 5.74383,6.66721 1.57275,0 3.86393,-0.64973 4.88954,-1.2992 v 2.18679" />
  <path
     style="fill:#000000;fill-opacity:1;fill-rule:nonzero;stroke:none"
     id="path2953"
     d="m 245.00447,15.392172 h 2.1535 v 17.43666 h -2.1535 z m 2.1535,-4.64946 h -2.1535 v -2.8699 h 2.1535 v 2.8699" />
  <path
     style="fill:#000000;fill-opacity:1;fill-rule:nonzero;stroke:none"
     id="path2955"
     d="m 253.65629,31.017822 10.49573,-13.77915 h -10.0866 v -1.8465 h 12.58012 v 1.8465 l -10.4935,13.74372 h 10.4935 v 1.84644 h -12.98925 v -1.81101" />
  <path
     style="fill:#000000;fill-opacity:1;fill-rule:nonzero;stroke:none"
     id="path2957"
     d="m 283.7375,22.880282 c 0,-3.04327 -1.23018,-6.05112 -4.44259,-6.05112 -3.18103,0 -5.13005,3.17914 -5.13005,6.05112 z m 1.06114,9.40125 c -1.50408,0.61628 -3.45265,0.95661 -5.06089,0.95661 -5.7775,0 -7.93114,-3.89752 -7.93114,-9.12764 0,-5.33242 2.94138,-9.12764 7.3502,-9.12764 4.92335,0 6.94112,3.96651 6.94112,8.64936 v 1.09451 h -11.93307 c 0,3.6929 1.98456,6.66721 5.74416,6.66721 1.57283,0 3.86397,-0.64973 4.88962,-1.2992 v 2.18679" />
  <path
     style="fill:#000000;fill-opacity:1;fill-rule:nonzero;stroke:none"
     id="path2959"
     d="m 292.86733,19.289752 c 0,-1.91318 0,-2.63178 -0.13577,-3.89758 h 2.15364 v 3.35027 h 0.0666 c 0.78769,-1.94647 2.25792,-3.75958 4.48036,-3.75958 0.51169,0 1.12803,0.10232 1.50395,0.20453 v 2.25815 c -0.44467,-0.13795 -1.02557,-0.20687 -1.57275,-0.20687 -3.4193,0 -4.34235,3.8308 -4.34235,6.9742 v 8.61596 h -2.15364 v -13.53908" />
  <path
     style="fill:#000000;fill-opacity:1;fill-rule:nonzero;stroke:none"
     id="path2961"
     d="m 306.91814,15.392172 h 2.15318 v 17.43666 h -2.15318 z m 2.15318,-4.64946 h -2.15318 v -2.8699 h 2.15318 v 2.8699" />
  <path
     style="fill:#000000;fill-opacity:1;fill-rule:nonzero;stroke:none"
     id="path2963"
     d="m 315.84113,30.299372 c 1.29888,0.64962 2.87212,1.09457 4.54683,1.09457 2.05117,0 3.86224,-1.13025 3.86224,-3.11241 0,-4.13544 -8.37586,-3.48582 -8.37586,-8.54684 0,-3.45269 2.80292,-4.75183 5.67504,-4.75183 0.92355,0 2.76957,0.20453 4.30677,0.78752 l -0.20452,1.87984 c -1.12757,-0.51391 -2.66527,-0.82106 -3.86173,-0.82106 -2.22239,0 -3.76192,0.68306 -3.76192,2.90553 0,3.24796 8.58037,2.8386 8.58037,8.54684 0,3.693 -3.45251,4.95661 -6.08462,4.95661 -1.67521,0 -3.35001,-0.20483 -4.88721,-0.81866 l 0.20461,-2.12011" />
  <path
     style="fill:#000000;fill-opacity:1;fill-rule:nonzero;stroke:none"
     id="path2965"
     d="m 344.48764,17.716952 c -1.16133,-0.51167 -2.56277,-0.88779 -3.72642,-0.88779 -4.20426,0 -6.56479,3.04328 -6.56479,7.28134 0,3.96651 2.39378,7.28344 6.32478,7.28344 1.36817,0 2.63379,-0.30924 3.93317,-0.78752 l 0.20452,2.01774 c -1.47069,0.51162 -2.83882,0.61398 -4.47803,0.61398 -5.60852,0 -8.3426,-4.27349 -8.3426,-9.12764 0,-5.36806 3.45256,-9.12764 8.61596,-9.12764 2.08475,0 3.58824,0.47829 4.20467,0.68296 l -0.17126,2.05113" />
  <path
     style="fill:#000000;fill-opacity:1;fill-rule:nonzero;stroke:none"
     id="path2967"
     d="m 350.98359,7.187762 h 2.15323 v 11.14537 h 0.0692 c 0.9231,-1.91313 2.87172,-3.35027 5.43449,-3.35027 4.68533,0 5.94877,3.11225 5.94877,7.41914 v 10.42683 h -2.15364 v -10.39359 c 0,-3.00759 -0.58049,-5.60608 -4.13551,-5.60608 -3.82844,0 -5.16335,3.62392 -5.16335,6.6672 v 9.33247 h -2.15323 V 7.187762" />
  <path
     style="fill:#000000;fill-opacity:1;fill-rule:nonzero;stroke:none"
     id="path2969"
     d="m 383.28955,22.880282 c 0,-3.04327 -1.23008,-6.05112 -4.44258,-6.05112 -3.18107,0 -5.13014,3.17914 -5.13014,6.05112 z m 1.06106,9.40125 c -1.5039,0.61628 -3.45257,0.95661 -5.0608,0.95661 -5.7775,0 -7.93114,-3.89752 -7.93114,-9.12764 0,-5.33242 2.94138,-9.12764 7.35025,-9.12764 4.92329,0 6.94107,3.96651 6.94107,8.64936 v 1.09451 h -11.93316 c 0,3.6929 1.98465,6.66721 5.74433,6.66721 1.5727,0 3.86388,-0.64973 4.88945,-1.2992 v 2.18679" />
  <path
     style="fill:#000000;fill-opacity:1;fill-rule:nonzero;stroke:none"
     id="path2971"
     d="m 403.80268,8.965282 h 11.69028 v 2.05093 h -9.33217 v 8.51375 h 8.85429 v 2.05103 h -8.85429 v 9.19672 h 9.74399 v 2.05112 h -12.1021 V 8.965282" />
  <path
     style="fill:#000000;fill-opacity:1;fill-rule:nonzero;stroke:none"
     id="path2973"
     d="m 423.32392,15.392172 h 2.15363 v 17.43666 h -2.15363 z m 2.15363,-4.64946 h -2.15363 v -2.8699 h 2.15363 v 2.8699" />
  <path
     style="fill:#000000;fill-opacity:1;fill-rule:nonzero;stroke:none"
     id="path2975"
     d="m 440.07545,31.393942 c 3.82848,0 5.16107,-4.10445 5.16107,-7.28344 0,-3.17898 -1.33259,-7.28134 -5.16107,-7.28134 -4.10221,0 -5.16335,3.89753 -5.16335,7.28134 0,3.38591 1.06114,7.28344 5.16335,7.28344 z m 7.31653,1.43489 h -2.15546 v -2.76967 h -0.0669 c -1.16315,2.22237 -2.94082,3.17898 -5.43671,3.17898 -4.78525,0 -7.17894,-3.96426 -7.17894,-9.12764 0,-5.29919 2.05113,-9.12764 7.17894,-9.12764 3.41885,0 5.12736,2.49602 5.43671,3.35027 h 0.0669 V 7.187762 h 2.15546 v 25.64107" />
  <path
     style="fill:#000000;fill-opacity:1;fill-rule:nonzero;stroke:none"
     id="path2977"
     d="m 461.61455,30.982392 c 3.89541,0 5.29867,-3.6929 5.29867,-6.87189 0,-4.20457 -1.23008,-7.28134 -5.16199,-7.28134 -4.10039,0 -5.16194,3.89753 -5.16194,7.28134 0,3.41925 1.36681,6.87189 5.02526,6.87189 z m 7.45372,0.41155 c 0,4.85414 -2.18695,8.8184 -8.16897,8.8184 -2.29173,0 -4.37835,-0.64957 -5.26682,-0.92323 l 0.16857,-2.15344 c 1.33492,0.68521 3.24845,1.23246 5.13014,1.23246 5.54009,0 6.01843,-4.03547 6.01843,-8.95869 h -0.0683 c -1.16174,2.52951 -3.07988,3.41939 -5.29866,3.41939 -5.57645,0 -7.35435,-4.85429 -7.35435,-8.71833 0,-5.29919 2.05117,-9.12764 7.18126,-9.12764 2.32354,0 3.82703,0.307 5.4353,2.39371 h 0.0684 v -1.9844 h 2.15505 v 16.00177" />
  <path
     style="fill:#000000;fill-opacity:1;fill-rule:nonzero;stroke:none"
     id="path2979"
     d="m 487.56119,22.880282 c 0,-3.04327 -1.23012,-6.05112 -4.44214,-6.05112 -3.1801,0 -5.13014,3.17914 -5.13014,6.05112 z m 1.06158,9.40125 c -1.50352,0.61628 -3.4535,0.95661 -5.06178,0.95661 -5.77706,0 -7.9274,-3.89752 -7.9274,-9.12764 0,-5.33242 2.93857,-9.12764 7.34879,-9.12764 4.92042,0 6.93882,3.96651 6.93882,8.64936 v 1.09451 h -11.93229 c 0,3.6929 1.98644,6.66721 5.74531,6.66721 1.57172,0 3.86342,-0.64973 4.88855,-1.2992 v 2.18679" />
  <path
     style="fill:#000000;fill-opacity:1;fill-rule:nonzero;stroke:none"
     id="path2981"
     d="m 496.69148,19.496622 c 0,-1.33477 0,-2.70065 -0.13667,-4.10445 h 2.08676 v 3.1123 h 0.0682 c 0.71528,-1.57284 2.01376,-3.52161 5.64039,-3.52161 4.31005,0 5.94575,2.87199 5.94575,6.7006 v 11.14537 h -2.15049 v -10.59812 c 0,-3.28134 -1.16185,-5.40155 -4.13692,-5.40155 -3.93184,0 -5.16206,3.45274 -5.16206,6.35812 v 9.64155 h -2.15497 v -13.33221" />
  <path
     style="fill:#000000;fill-opacity:1;fill-rule:nonzero;stroke:none"
     id="path2983"
     d="m 525.17121,31.393942 c 3.75876,0 5.77711,-3.24796 5.77711,-7.28344 0,-4.03323 -2.01835,-7.28134 -5.77711,-7.28134 -3.76325,0 -5.7815,3.24811 -5.7815,7.28134 0,4.03548 2.01825,7.28344 5.7815,7.28344 z m 0,-16.41108 c 5.64044,0 8.13707,4.37586 8.13707,9.12764 0,4.75178 -2.49663,9.12764 -8.13707,9.12764 -5.64034,0 -8.13702,-4.37586 -8.13702,-9.12764 0,-4.75178 2.49668,-9.12764 8.13702,-9.12764" />
  <path
     style="fill:#000000;fill-opacity:1;fill-rule:nonzero;stroke:none"
     id="path2985"
     d="m 538.70723,30.299372 c 1.29843,0.64962 2.87485,1.09457 4.5469,1.09457 2.05026,0 3.86347,-1.13025 3.86347,-3.11241 0,-4.13544 -8.37392,-3.48582 -8.37392,-8.54684 0,-3.45269 2.8019,-4.75183 5.6722,-4.75183 0.92491,0 2.77009,0.20453 4.30551,0.78752 l -0.2005,1.87984 c -1.12979,-0.51391 -2.66527,-0.82106 -3.86357,-0.82106 -2.22329,0 -3.7632,0.68306 -3.7632,2.90553 0,3.24796 8.58349,2.8386 8.58349,8.54684 0,3.693 -3.45345,4.95661 -6.08686,4.95661 -1.67659,0 -3.34869,-0.20483 -4.8886,-0.81866 l 0.20508,-2.12011" />
  <path
     style="fill:#000000;fill-opacity:1;fill-rule:nonzero;stroke:none"
     id="path2987"
     d="m 554.67158,30.299372 c 1.29843,0.64962 2.87479,1.09457 4.54684,1.09457 2.05027,0 3.86353,-1.13025 3.86353,-3.11241 0,-4.13544 -8.37851,-3.48582 -8.37851,-8.54684 0,-3.45269 2.80643,-4.75183 5.67684,-4.75183 0.92481,0 2.77003,0.20453 4.30546,0.78752 l -0.20504,1.87984 c -1.12535,-0.51391 -2.66073,-0.82106 -3.85893,-0.82106 -2.22339,0 -3.76335,0.68306 -3.76335,2.90553 0,3.24796 8.58359,2.8386 8.58359,8.54684 0,3.693 -3.45345,4.95661 -6.08686,4.95661 -1.67664,0 -3.34864,-0.20483 -4.88871,-0.81866 l 0.20514,-2.12011" />
  <path
     style="fill:#000000;fill-opacity:1;fill-rule:nonzero;stroke:none"
     id="path2989"
     d="m 582.60477,22.880282 c 0,-3.04327 -1.23486,-6.05112 -4.44673,-6.05112 -3.18025,0 -5.13024,3.17914 -5.13024,6.05112 z m 1.05678,9.40125 c -1.50341,0.61628 -3.44886,0.95661 -5.05714,0.95661 -5.77706,0 -7.93208,-3.89752 -7.93208,-9.12764 0,-5.33242 2.93867,-9.12764 7.34894,-9.12764 4.925,0 6.94335,3.96651 6.94335,8.64936 v 1.09451 H 573.0278 c 0,3.6929 1.98644,6.66721 5.74515,6.66721 1.57183,0 3.86358,-0.64973 4.8886,-1.2992 v 2.18679" />
  <path
     style="fill:#000000;fill-opacity:1;fill-rule:nonzero;stroke:none"
     id="path2991"
     d="m 591.73037,19.496622 c 0,-1.33477 0,-2.70065 -0.13673,-4.10445 h 2.08661 v 3.1123 h 0.0684 c 0.71544,-1.57284 2.01382,-3.52161 5.64044,-3.52161 4.30541,0 5.94555,2.87199 5.94555,6.7006 v 11.14537 h -2.15043 v -10.59812 c 0,-3.28134 -1.16181,-5.40155 -4.13683,-5.40155 -3.93188,0 -5.16205,3.45274 -5.16205,6.35812 v 9.64155 h -2.15492 v -13.33221" />
  <path
     style="fill:#000000;fill-opacity:1;fill-rule:nonzero;stroke:none"
     id="path2993"
     d="m 612.07307,30.299372 c 1.29843,0.64962 2.87026,1.09457 4.5469,1.09457 2.05026,0 3.85899,-1.13025 3.85899,-3.11241 0,-4.13544 -8.37403,-3.48582 -8.37403,-8.54684 0,-3.45269 2.8019,-4.75183 5.67674,-4.75183 0.92037,0 2.77008,0.20453 4.30556,0.78752 l -0.20508,1.87984 c -1.12536,-0.51391 -2.66532,-0.82106 -3.86353,-0.82106 -2.2188,0 -3.75871,0.68306 -3.75871,2.90553 0,3.24796 8.58359,2.8386 8.58359,8.54684 0,3.693 -3.45809,4.95661 -6.08686,4.95661 -1.67664,0 -3.35328,-0.20483 -4.89324,-0.81866 l 0.20967,-2.12011" />
  <path
     style="fill:#000000;fill-opacity:1;fill-rule:nonzero;stroke:none"
     id="path2995"
     d="m 640.72134,17.716952 c -1.16176,-0.51167 -2.565,-0.88779 -3.7268,-0.88779 -4.20534,0 -6.5653,3.04328 -6.5653,7.28134 0,3.96651 2.39197,7.28344 6.32376,7.28344 1.37148,0 2.63341,-0.30924 3.93642,-0.78752 l 0.20045,2.01774 c -1.46701,0.51162 -2.83839,0.61398 -4.47389,0.61398 -5.60853,0 -8.3467,-4.27349 -8.3467,-9.12764 0,-5.36806 3.45335,-9.12764 8.62,-9.12764 2.08212,0 3.58559,0.47829 4.20059,0.68296 l -0.16853,2.05113" />
  <path
     style="fill:#000000;fill-opacity:1;fill-rule:nonzero;stroke:none"
     id="path2997"
     d="m 647.21827,7.187762 h 2.15044 v 11.14537 h 0.0684 c 0.9248,-1.91313 2.87484,-3.35027 5.43525,-3.35027 4.68372,0 5.95029,3.11225 5.95029,7.41914 v 10.42683 h -2.15054 v -10.39359 c 0,-3.00759 -0.58315,-5.60608 -4.13687,-5.60608 -3.83156,0 -5.16649,3.62392 -5.16649,6.6672 v 9.33247 h -2.15044 V 7.187762" />
  <path
     style="fill:#000000;fill-opacity:1;fill-rule:nonzero;stroke:none"
     id="path2999"
     d="m 678.70039,24.041532 h -0.61047 c -3.73129,0 -8.16898,0.37821 -8.16898,4.20666 0,2.2891 1.63565,3.14575 3.61745,3.14575 5.06183,0 5.162,-4.41145 5.162,-6.29124 z m 0.20509,5.98429 h -0.0638 c -0.95682,2.08447 -3.38972,3.21232 -5.54016,3.21232 -4.95702,0 -5.74505,-3.35032 -5.74505,-4.92306 0,-5.84416 6.22343,-6.11776 10.73388,-6.11776 h 0.41002 v -0.88998 c 0,-2.97421 -1.05694,-4.47818 -3.96375,-4.47818 -1.80872,0 -3.51723,0.40951 -5.13009,1.4349 v -2.08437 c 1.33508,-0.64957 3.59023,-1.19683 5.13009,-1.19683 4.30561,0 6.11883,1.94877 6.11883,6.49592 v 7.69279 c 0,1.40146 0,2.46039 0.17307,3.65726 h -2.12306 v -2.80301" />
  <path
     style="fill:#000000;fill-opacity:1;fill-rule:nonzero;stroke:none"
     id="path3001"
     d="m 690.11789,17.238672 h -3.51727 v -1.8465 h 3.51727 v -1.26356 c 0,-3.65731 0.13668,-7.35016 4.6197,-7.35016 0.67898,0 1.60384,0.10236 2.01386,0.34257 l -0.13667,1.87969 c -0.44653,-0.24011 -1.0935,-0.37581 -1.7085,-0.37581 -2.94321,0 -2.63346,3.17898 -2.63346,5.26345 v 1.50382 h 3.93193 v 1.8465 h -3.93193 v 15.59016 h -2.15493 v -15.59016" />
  <path
     style="fill:#000000;fill-opacity:1;fill-rule:nonzero;stroke:none"
     id="path3003"
     d="m 710.21906,17.238672 h -3.9638 v 11.28328 c 0,1.57279 0.58325,2.87199 2.3282,2.87199 0.82005,0 1.36684,-0.17129 1.97736,-0.41155 l 0.14116,1.77742 c -0.51478,0.20473 -1.57182,0.47833 -2.63335,0.47833 -3.82708,0 -3.96829,-2.63172 -3.96829,-5.81086 v -10.18861 h -3.417 v -1.8465 h 3.417 v -4.20452 l 2.15492,-0.75204 v 4.95656 h 3.9638 v 1.8465" />
  <path
     style="fill:#000000;fill-opacity:1;fill-rule:nonzero;stroke:none"
     id="path3005"
     d="m 153.04309,58.788232 c -1.50386,-0.78543 -3.65978,-1.02554 -5.33466,-1.02554 -6.18655,0 -9.67515,4.3756 -9.67515,10.29112 0,6.01539 3.386,10.28889 9.67515,10.28889 1.57283,0 3.96652,-0.20494 5.33466,-1.02554 l 0.13572,2.05123 c -1.2992,0.78727 -3.96457,1.02539 -5.47038,1.02539 -7.52147,0 -12.03285,-4.95646 -12.03285,-12.33997 0,-7.2481 4.64934,-12.34225 12.03285,-12.34225 1.40152,0 4.23989,0.24016 5.47038,0.88988 l -0.13572,2.18679" />
  <path
     style="fill:#000000;fill-opacity:1;fill-rule:nonzero;stroke:none"
     id="path3007"
     d="m 167.84573,78.549622 c 3.76187,0 5.7775,-3.24796 5.7775,-7.28374 0,-4.03298 -2.01563,-7.28093 -5.7775,-7.28093 -3.75959,0 -5.7776,3.24795 -5.7776,7.28093 0,4.03578 2.01801,7.28374 5.7776,7.28374 z m 0,-16.41133 c 5.64169,0 8.13744,4.37612 8.13744,9.12759 0,4.75193 -2.49575,9.1279 -8.13744,9.1279 -5.63955,0 -8.13571,-4.37597 -8.13571,-9.1279 0,-4.75147 2.49616,-9.12759 8.13571,-9.12759" />
  <path
     style="fill:#000000;fill-opacity:1;fill-rule:nonzero;stroke:none"
     id="path3009"
     d="m 182.71735,66.652002 c 0,-1.33447 0,-2.70039 -0.13568,-4.10414 h 2.08434 v 3.11225 h 0.069 c 0.71657,-1.5727 2.01549,-3.52182 5.63941,-3.52182 4.30896,0 5.94877,2.87225 5.94877,6.70055 v 11.14553 h -2.15368 v -10.59828 c 0,-3.28119 -1.16129,-5.40114 -4.13547,-5.40114 -3.93327,0 -5.16335,3.45248 -5.16335,6.35801 v 9.64141 h -2.15332 v -13.33237" />
  <path
     style="fill:#000000;fill-opacity:1;fill-rule:nonzero;stroke:none"
     id="path3011"
     d="m 205.86209,64.394002 h -3.52131 v -1.84614 h 3.52131 v -1.26387 c 0,-3.65716 0.13586,-7.35016 4.61403,-7.35016 0.68505,0 1.60869,0.10251 2.01773,0.34038 l -0.13572,1.88203 c -0.44463,-0.24016 -1.09436,-0.37581 -1.71084,-0.37581 -2.9386,0 -2.63148,3.17908 -2.63148,5.26345 v 1.50398 h 3.93091 v 1.84614 h -3.93091 v 15.59037 h -2.15372 v -15.59037" />
  <path
     style="fill:#000000;fill-opacity:1;fill-rule:nonzero;stroke:none"
     id="path3013"
     d="m 225.48593,55.813622 h 2.70035 l -4.30681,4.92327 h -1.57279 z m 3.58819,14.2222 c 0,-3.04313 -1.23049,-6.05087 -4.44245,-6.05087 -3.18148,0 -5.13009,3.17913 -5.13009,6.05087 z m 1.06115,9.40124 c -1.50386,0.61608 -3.45248,0.95672 -5.0613,0.95672 -5.7771,0 -7.93064,-3.89753 -7.93064,-9.1279 0,-5.33242 2.94078,-9.12759 7.35029,-9.12759 4.92316,0 6.94071,3.96661 6.94071,8.64956 v 1.09442 h -11.93275 c 0,3.69269 1.98406,6.66735 5.74383,6.66735 1.57266,0 3.86438,-0.64962 4.88986,-1.29934 v 2.18678" />
  <path
     style="fill:#000000;fill-opacity:1;fill-rule:nonzero;stroke:none"
     id="path3015"
     d="m 244.69767,78.549622 c 3.82857,0 5.16121,-4.1046 5.16121,-7.28374 0,-3.17873 -1.33264,-7.28093 -5.16121,-7.28093 -4.10216,0 -5.16331,3.89773 -5.16331,7.28093 0,3.38606 1.06115,7.28374 5.16331,7.28374 z m 7.31658,1.43475 h -2.15537 v -2.76968 h -0.067 c -1.16361,2.22237 -2.94092,3.17909 -5.43667,3.17909 -4.78529,0 -7.17898,-3.96457 -7.17898,-9.1279 0,-5.29863 2.05103,-9.12759 7.17898,-9.12759 3.41926,0 5.12777,2.49628 5.43667,3.35053 h 0.067 v -11.14538 h 2.15537 v 25.64093" />
  <path
     style="fill:#000000;fill-opacity:1;fill-rule:nonzero;stroke:none"
     id="path3017"
     d="m 266.91931,55.813622 h 2.70077 l -4.30905,4.92327 h -1.57092 z m 3.58838,14.2222 c 0,-3.04313 -1.23013,-6.05087 -4.44264,-6.05087 -3.18106,0 -5.13004,3.17913 -5.13004,6.05087 z m 1.06101,9.40124 c -1.50386,0.61608 -3.45247,0.95672 -5.0608,0.95672 -5.77741,0 -7.9311,-3.89753 -7.9311,-9.1279 0,-5.33242 2.94133,-9.12759 7.35025,-9.12759 4.92316,0 6.94103,3.96661 6.94103,8.64956 v 1.09442 h -11.93307 c 0,3.69269 1.98465,6.66735 5.74433,6.66735 1.57261,0 3.86388,-0.64962 4.88936,-1.29934 v 2.18678" />
  <path
     style="fill:#000000;fill-opacity:1;fill-rule:nonzero;stroke:none"
     id="path3019"
     d="m 279.63748,66.445282 c 0,-1.91318 0,-2.63178 -0.13577,-3.89742 h 2.15368 v 3.35236 h 0.0665 c 0.78774,-1.94861 2.25797,-3.76193 4.4804,-3.76193 0.5116,0 1.12807,0.10257 1.5039,0.20463 v 2.25785 c -0.44508,-0.13749 -1.02556,-0.20677 -1.57265,-0.20677 -3.41935,0 -4.3424,3.82891 -4.3424,6.97435 v 8.61602 h -2.15368 v -13.53909" />
  <path
     style="fill:#000000;fill-opacity:1;fill-rule:nonzero;stroke:none"
     id="path3021"
     d="m 303.50111,71.199462 h -0.61643 c -3.72597,0 -8.17083,0.37581 -8.17083,4.20426 0,2.28941 1.64158,3.1459 3.62391,3.1459 5.05852,0 5.16335,-4.4116 5.16335,-6.29139 z m 0.20452,5.98194 h -0.0688 c -0.95673,2.08452 -3.38373,3.21238 -5.53918,3.21238 -4.95656,0 -5.74193,-3.35038 -5.74193,-4.92307 0,-5.8441 6.22213,-6.11801 10.73397,-6.11801 h 0.41141 v -0.88968 c 0,-2.9742 -1.06115,-4.47807 -3.96643,-4.47807 -1.81335,0 -3.52186,0.40905 -5.12791,1.43464 v -2.08437 c 1.33268,-0.64972 3.58842,-1.19693 5.12791,-1.19693 4.30681,0 6.11962,1.94912 6.11962,6.49617 v 7.69269 c 0,1.40141 0,2.46034 0.17125,3.65722 h -2.11992 v -2.80297" />
  <path
     style="fill:#000000;fill-opacity:1;fill-rule:nonzero;stroke:none"
     id="path3023"
     d="m 320.9689,64.394002 h -3.96639 v 11.28348 c 0,1.5728 0.58266,2.87214 2.32444,2.87214 0.821,0 1.36818,-0.17134 1.98461,-0.41186 l 0.13577,1.77773 c -0.51169,0.20468 -1.57325,0.47829 -2.63211,0.47829 -3.82835,0 -3.96644,-2.63198 -3.96644,-5.81071 v -10.18907 h -3.41917 v -1.84614 h 3.41917 v -4.20468 l 2.15373,-0.75178 v 4.95646 h 3.96639 v 1.84614" />
  <path
     style="fill:#000000;fill-opacity:1;fill-rule:nonzero;stroke:none"
     id="path3025"
     d="m 327.49824,62.547862 h 2.15309 v 17.43651 h -2.15309 z m 2.15309,-4.64937 h -2.15309 v -2.86984 h 2.15309 v 2.86984" />
  <path
     style="fill:#000000;fill-opacity:1;fill-rule:nonzero;stroke:none"
     id="path3027"
     d="m 344.55639,78.549622 c 3.76192,0 5.77755,-3.24796 5.77755,-7.28374 0,-4.03298 -2.01563,-7.28093 -5.77755,-7.28093 -3.75963,0 -5.777,3.24795 -5.777,7.28093 0,4.03578 2.01737,7.28374 5.777,7.28374 z m 0,-16.41133 c 5.64183,0 8.13803,4.37612 8.13803,9.12759 0,4.75193 -2.4962,9.1279 -8.13803,9.1279 -5.63945,0 -8.13521,-4.37597 -8.13521,-9.1279 0,-4.75147 2.49576,-9.12759 8.13521,-9.12759" />
  <path
     style="fill:#000000;fill-opacity:1;fill-rule:nonzero;stroke:none"
     id="path3029"
     d="m 359.42819,66.652002 c 0,-1.33447 0,-2.70039 -0.13576,-4.10414 h 2.08442 v 3.11225 h 0.0692 c 0.7163,-1.5727 2.01514,-3.52182 5.63905,-3.52182 4.3091,0 5.94886,2.87225 5.94886,6.70055 v 11.14553 h -2.15327 v -10.59828 c 0,-3.28119 -1.16125,-5.40114 -4.13597,-5.40114 -3.93272,0 -5.16331,3.45248 -5.16331,6.35801 v 9.64141 h -2.15323 v -13.33237" />
  <path
     style="fill:#000000;fill-opacity:1;fill-rule:nonzero;stroke:none"
     id="path3031"
     d="m 391.60067,77.454802 c 1.29938,0.64973 2.87212,1.09482 4.54733,1.09482 2.05112,0 3.86174,-1.1304 3.86174,-3.1123 0,-4.1354 -8.37586,-3.48613 -8.37586,-8.54715 0,-3.45248 2.80342,-4.75188 5.67504,-4.75188 0.92351,0 2.77007,0.20463 4.30723,0.78553 l -0.20502,1.88204 c -1.12762,-0.51392 -2.66473,-0.82091 -3.8616,-0.82091 -2.22248,0 -3.76197,0.68286 -3.76197,2.90522 0,3.24811 8.58261,2.8385 8.58261,8.54715 0,3.69275 -3.45479,4.95646 -6.08686,4.95646 -1.67475,0 -3.35,-0.20494 -4.88944,-0.81867 l 0.2068,-2.12031" />
  <path
     style="fill:#000000;fill-opacity:1;fill-rule:nonzero;stroke:none"
     id="path3033"
     d="m 422.50287,75.882162 c 0,1.33253 0,2.70065 0.13801,4.10221 h -2.08662 v -3.11006 h -0.067 c -0.71849,1.5706 -2.01746,3.51947 -5.64124,3.51947 -4.30736,0 -5.94886,-2.87209 -5.94886,-6.70055 v -11.14537 h 2.15364 v 10.59781 c 0,3.28354 1.16315,5.40395 4.13774,5.40395 3.93099,0 5.16117,-3.45488 5.16117,-6.36026 v -9.6415 h 2.15313 v 13.3343" />
  <path
     style="fill:#000000;fill-opacity:1;fill-rule:nonzero;stroke:none"
     id="path3035"
     d="m 430.57161,62.547862 h 2.15364 v 17.43651 h -2.15364 z m 2.15364,-4.64937 h -2.15364 v -2.86984 h 2.15364 v 2.86984" />
  <path
     style="fill:#000000;fill-opacity:1;fill-rule:nonzero;stroke:none"
     id="path3037"
     d="m 439.49455,77.454802 c 1.29939,0.64973 2.87213,1.09482 4.54742,1.09482 2.05118,0 3.8617,-1.1304 3.8617,-3.1123 0,-4.1354 -8.37581,-3.48613 -8.37581,-8.54715 0,-3.45248 2.80337,-4.75188 5.67495,-4.75188 0.92355,0 2.77006,0.20463 4.30736,0.78553 l -0.20502,1.88204 c -1.12766,-0.51392 -2.66487,-0.82091 -3.86179,-0.82091 -2.22243,0 -3.76191,0.68286 -3.76191,2.90522 0,3.24811 8.58042,2.8385 8.58042,8.54715 0,3.69275 -3.45261,4.95646 -6.08412,4.95646 -1.6753,0 -3.35056,-0.20494 -4.88772,-0.81867 l 0.20452,-2.12031" />
  <path
     style="fill:#000000;fill-opacity:1;fill-rule:nonzero;stroke:none"
     id="path3039"
     d="m 455.46072,77.454802 c 1.30166,0.64973 2.87348,1.09482 4.55011,1.09482 2.05021,0 3.85896,-1.1304 3.85896,-3.1123 0,-4.1354 -8.37577,-3.48613 -8.37577,-8.54715 0,-3.45248 2.80379,-4.75188 5.67859,-4.75188 0.92032,0 2.77012,0.20463 4.30546,0.78553 l -0.20502,1.88204 c -1.12534,-0.51392 -2.66524,-0.82091 -3.86348,-0.82091 -2.21879,0 -3.75873,0.68286 -3.75873,2.90522 0,3.24811 8.58353,2.8385 8.58353,8.54715 0,3.69275 -3.45799,4.95646 -6.08686,4.95646 -1.67662,0 -3.3532,-0.20494 -4.89364,-0.81867 l 0.20685,-2.12031" />
  <path
     style="fill:#000000;fill-opacity:1;fill-rule:nonzero;stroke:none"
     id="path3041"
     d="m 483.3924,70.035822 c 0,-3.04313 -1.23011,-6.05087 -4.44208,-6.05087 -3.18469,0 -5.13011,3.17913 -5.13011,6.05087 z m 1.06158,9.40124 c -1.5081,0.61608 -3.45355,0.95672 -5.06178,0.95672 -5.77701,0 -7.93206,-3.89753 -7.93206,-9.1279 0,-5.33242 2.94318,-9.12759 7.34892,-9.12759 4.92516,0 6.9433,3.96661 6.9433,8.64956 v 1.09442 h -11.93215 c 0,3.69269 1.98182,6.66735 5.74053,6.66735 1.57636,0 3.86358,-0.64962 4.89324,-1.29934 v 2.18678" />
  <path
     style="fill:#000000;fill-opacity:1;fill-rule:nonzero;stroke:none"
     id="path3043"
     d="m 153.04309,105.9436 c -1.50386,-0.78537 -3.65978,-1.02553 -5.33466,-1.02553 -6.18655,0 -9.67515,4.3757 -9.67515,10.29112 0,6.01554 3.386,10.28904 9.67515,10.28904 1.57283,0 3.96652,-0.20509 5.33466,-1.02569 l 0.13572,2.05123 c -1.2992,0.78721 -3.96457,1.02554 -5.47038,1.02554 -7.52147,0 -12.03285,-4.95646 -12.03285,-12.34012 0,-7.2481 4.64934,-12.3422 12.03285,-12.3422 1.40152,0 4.23989,0.23791 5.47038,0.88743 l -0.13572,2.18918" />
  <path
     style="fill:#000000;fill-opacity:1;fill-rule:nonzero;stroke:none"
     id="path3045"
     d="m 167.84573,125.70495 c 3.76187,0 5.7775,-3.24796 5.7775,-7.28369 0,-4.03293 -2.01563,-7.28088 -5.7775,-7.28088 -3.75959,0 -5.7776,3.24795 -5.7776,7.28088 0,4.03573 2.01801,7.28369 5.7776,7.28369 z m 0,-16.41118 c 5.64169,0 8.13744,4.37597 8.13744,9.12749 0,4.75193 -2.49575,9.12805 -8.13744,9.12805 -5.63955,0 -8.13571,-4.37612 -8.13571,-9.12805 0,-4.75152 2.49616,-9.12749 8.13571,-9.12749" />
  <path
     style="fill:#000000;fill-opacity:1;fill-rule:nonzero;stroke:none"
     id="path3047"
     d="m 182.71735,113.80743 c 0,-1.33452 0,-2.70044 -0.13568,-4.1042 h 2.08434 v 3.11226 h 0.069 c 0.71657,-1.57265 2.01549,-3.52172 5.63941,-3.52172 4.30896,0 5.94877,2.87199 5.94877,6.7006 v 11.14538 h -2.15368 v -10.59828 c 0,-3.2813 -1.16129,-5.40109 -4.13547,-5.40109 -3.93327,0 -5.16335,3.45248 -5.16335,6.35781 v 9.64156 h -2.15332 v -13.33232" />
  <path
     style="fill:#000000;fill-opacity:1;fill-rule:nonzero;stroke:none"
     id="path3049"
     d="m 205.86209,111.54943 h -3.52131 v -1.8462 h 3.52131 v -1.26371 c 0,-3.65716 0.13586,-7.35031 4.61403,-7.35031 0.68505,0 1.60869,0.10246 2.01773,0.34262 l -0.13572,1.87995 c -0.44463,-0.24016 -1.09436,-0.37597 -1.71084,-0.37597 -2.9386,0 -2.63148,3.17913 -2.63148,5.2636 v 1.50382 h 3.93091 v 1.8462 h -3.93091 v 15.59032 h -2.15372 v -15.59032" />
  <path
     style="fill:#000000;fill-opacity:1;fill-rule:nonzero;stroke:none"
     id="path3051"
     d="m 229.07412,117.19104 c 0,-3.04343 -1.23049,-6.05066 -4.44245,-6.05066 -3.18148,0 -5.13009,3.17867 -5.13009,6.05066 z m 1.06115,9.40155 c -1.50386,0.61633 -3.45248,0.95672 -5.0613,0.95672 -5.7771,0 -7.93064,-3.89778 -7.93064,-9.12805 0,-5.33227 2.94078,-9.12749 7.35029,-9.12749 4.92316,0 6.94071,3.9664 6.94071,8.64962 v 1.09441 h -11.93275 c 0,3.69259 1.98406,6.66715 5.74383,6.66715 1.57266,0 3.86438,-0.64957 4.88986,-1.2993 v 2.18694" />
  <path
     style="fill:#000000;fill-opacity:1;fill-rule:nonzero;stroke:none"
     id="path3053"
     d="m 244.69767,125.70495 c 3.82857,0 5.16121,-4.1044 5.16121,-7.28369 0,-3.17868 -1.33264,-7.28088 -5.16121,-7.28088 -4.10216,0 -5.16331,3.89752 -5.16331,7.28088 0,3.38606 1.06115,7.28369 5.16331,7.28369 z m 7.31658,1.4348 h -2.15537 v -2.76968 h -0.067 c -1.16361,2.22252 -2.94092,3.17924 -5.43667,3.17924 -4.78529,0 -7.17898,-3.96467 -7.17898,-9.12805 0,-5.29873 2.05103,-9.12749 7.17898,-9.12749 3.41926,0 5.12777,2.49618 5.43667,3.35043 h 0.067 v -11.14538 h 2.15537 v 25.64093" />
  <path
     style="fill:#000000;fill-opacity:1;fill-rule:nonzero;stroke:none"
     id="path3055"
     d="m 270.50769,117.19104 c 0,-3.04343 -1.23013,-6.05066 -4.44264,-6.05066 -3.18106,0 -5.13004,3.17867 -5.13004,6.05066 z m 1.06101,9.40155 c -1.50386,0.61633 -3.45247,0.95672 -5.0608,0.95672 -5.77741,0 -7.9311,-3.89778 -7.9311,-9.12805 0,-5.33227 2.94133,-9.12749 7.35025,-9.12749 4.92316,0 6.94103,3.9664 6.94103,8.64962 v 1.09441 h -11.93307 c 0,3.69259 1.98465,6.66715 5.74433,6.66715 1.57261,0 3.86388,-0.64957 4.88936,-1.2993 v 2.18694" />
  <path
     style="fill:#000000;fill-opacity:1;fill-rule:nonzero;stroke:none"
     id="path3057"
     d="m 279.63748,113.60056 c 0,-1.91308 0,-2.63152 -0.13577,-3.89733 h 2.15368 v 3.35017 h 0.0665 c 0.78774,-1.94641 2.25797,-3.75963 4.4804,-3.75963 0.5116,0 1.12807,0.10252 1.5039,0.20458 v 2.25795 c -0.44508,-0.13764 -1.02556,-0.20687 -1.57265,-0.20687 -3.41935,0 -4.3424,3.8312 -4.3424,6.9743 v 8.61602 h -2.15368 v -13.53919" />
  <path
     style="fill:#000000;fill-opacity:1;fill-rule:nonzero;stroke:none"
     id="path3059"
     d="m 303.50111,118.35244 h -0.61643 c -3.72597,0 -8.17083,0.37821 -8.17083,4.20661 0,2.28946 1.64158,3.1459 3.62391,3.1459 5.05852,0 5.16335,-4.41155 5.16335,-6.29134 z m 0.20452,5.98439 h -0.0688 c -0.95673,2.08432 -3.38373,3.21248 -5.53918,3.21248 -4.95656,0 -5.74193,-3.35053 -5.74193,-4.92322 0,-5.8441 6.22213,-6.11786 10.73397,-6.11786 h 0.41141 v -0.88968 c 0,-2.97435 -1.06115,-4.47817 -3.96643,-4.47817 -1.81335,0 -3.52186,0.40905 -5.12791,1.43474 v -2.08447 c 1.33268,-0.64977 3.58842,-1.19688 5.12791,-1.19688 4.30681,0 6.11962,1.94907 6.11962,6.49587 v 7.69294 c 0,1.40151 0,2.46029 0.17125,3.65717 h -2.11992 v -2.80292" />
  <path
     style="fill:#000000;fill-opacity:1;fill-rule:nonzero;stroke:none"
     id="path3061"
     d="m 311.84139,125.32919 10.49569,-13.77976 h -10.08652 v -1.8462 h 12.58012 v 1.8462 l -10.4935,13.74371 h 10.4935 v 1.84661 h -12.98929 v -1.81056" />
  <path
     style="fill:#000000;fill-opacity:1;fill-rule:nonzero;stroke:none"
     id="path3063"
     d="m 331.29337,109.70323 h 2.15359 v 17.43652 h -2.15359 z m 2.15359,-4.64946 h -2.15359 v -2.86975 h 2.15359 v 2.86975" />
  <path
     style="fill:#000000;fill-opacity:1;fill-rule:nonzero;stroke:none"
     id="path3065"
     d="m 348.35157,125.70495 c 3.76191,0 5.77759,-3.24796 5.77759,-7.28369 0,-4.03293 -2.01568,-7.28088 -5.77759,-7.28088 -3.7596,0 -5.77701,3.24795 -5.77701,7.28088 0,4.03573 2.01741,7.28369 5.77701,7.28369 z m 0,-16.41118 c 5.64183,0 8.13803,4.37597 8.13803,9.12749 0,4.75193 -2.4962,9.12805 -8.13803,9.12805 -5.63946,0 -8.13521,-4.37612 -8.13521,-9.12805 0,-4.75152 2.49575,-9.12749 8.13521,-9.12749" />
  <path
     style="fill:#000000;fill-opacity:1;fill-rule:nonzero;stroke:none"
     id="path3067"
     d="m 363.22342,113.80743 c 0,-1.33452 0,-2.70044 -0.13587,-4.1042 h 2.08444 v 3.11226 h 0.0693 c 0.71621,-1.57265 2.01509,-3.52172 5.63942,-3.52172 4.30918,0 5.9484,2.87199 5.9484,6.7006 v 11.14538 h -2.15319 v -10.59828 c 0,-3.2813 -1.16133,-5.40109 -4.13556,-5.40109 -3.93322,0 -5.16376,3.45248 -5.16376,6.35781 v 9.64156 h -2.15318 v -13.33232" />
  <path
     style="fill:#000000;fill-opacity:1;fill-rule:nonzero;stroke:none"
     id="path3069"
     d="m 395.52929,117.19104 c 0,-3.04343 -1.23008,-6.05066 -4.44259,-6.05066 -3.18093,0 -5.13005,3.17867 -5.13005,6.05066 z m 1.06114,9.40155 c -1.50399,0.61633 -3.45256,0.95672 -5.06088,0.95672 -5.7775,0 -7.93064,-3.89778 -7.93064,-9.12805 0,-5.33227 2.94087,-9.12749 7.34979,-9.12749 4.92325,0 6.94112,3.9664 6.94112,8.64962 v 1.09441 h -11.93317 c 0,3.69259 1.98456,6.66715 5.74425,6.66715 1.57274,0 3.86393,-0.64957 4.88953,-1.2993 v 2.18694" />
  <path
     style="fill:#000000;fill-opacity:1;fill-rule:nonzero;stroke:none"
     id="path3071"
     d="m 416.07846,124.09632 c 1.40134,0.89024 3.0411,1.40191 5.26308,1.40191 2.94087,0 5.36837,-1.50397 5.36837,-4.88779 0,-4.68489 -10.94085,-5.2658 -10.94085,-11.52135 0,-3.8284 3.3505,-6.2221 7.55704,-6.2221 1.16134,0 3.04125,0.17129 4.68274,0.78497 l -0.37592,2.15599 c -1.05877,-0.58274 -2.73626,-0.88988 -4.34226,-0.88988 -2.46076,0 -5.16112,1.02553 -5.16112,4.10236 0,4.787 10.93812,4.8206 10.93812,11.79454 0,4.8209 -4.13551,6.73434 -7.82817,6.73434 -2.32495,0 -4.13551,-0.47828 -5.40168,-1.02554 l 0.24065,-2.42745" />
  <path
     style="fill:#000000;fill-opacity:1;fill-rule:nonzero;stroke:none"
     id="path3073"
     d="m 442.29793,127.13975 h -2.52947 l -5.91559,-17.43652 h 2.36043 l 4.82078,15.07839 h 0.067 l 5.0608,-15.07839 h 2.25569 l -6.11966,17.43652" />
  <path
     style="fill:#000000;fill-opacity:1;fill-rule:nonzero;stroke:none"
     id="path3075"
     d="m 454.09254,109.70323 h 2.15505 v 17.43652 h -2.15505 z m 2.15505,-4.64946 h -2.15505 v -2.86975 h 2.15505 v 2.86975" />
  <path
     style="fill:#000000;fill-opacity:1;fill-rule:nonzero;stroke:none"
     id="path3077"
     d="m 462.74449,125.32919 10.4971,-13.77976 h -10.0871 v -1.8462 h 12.57922 v 1.8462 l -10.4926,13.74371 h 10.4926 v 1.84661 h -12.98922 v -1.81056" />
  <path
     style="fill:#000000;fill-opacity:1;fill-rule:nonzero;stroke:none"
     id="path3079"
     d="m 480.59046,125.32919 10.49713,-13.77976 h -10.08716 v -1.8462 h 12.57931 v 1.8462 l -10.4926,13.74371 h 10.4926 v 1.84661 h -12.98928 v -1.81056" />
  <path
     style="fill:#000000;fill-opacity:1;fill-rule:nonzero;stroke:none"
     id="path3081"
     d="m 510.66934,117.19104 c 0,-3.04343 -1.23007,-6.05066 -4.44208,-6.05066 -3.18011,0 -5.1301,3.17867 -5.1301,6.05066 z m 1.06173,9.40155 c -1.50351,0.61633 -3.44891,0.95672 -5.05724,0.95672 -5.78165,0 -7.93209,-3.89778 -7.93209,-9.12805 0,-5.33227 2.93862,-9.12749 7.34884,-9.12749 4.92506,0 6.93887,3.9664 6.93887,8.64962 v 1.09441 h -11.93229 c 0,3.69259 1.98644,6.66715 5.7452,6.66715 1.57183,0 3.86348,-0.64957 4.88871,-1.2993 v 2.18694" />
  <path
     style="fill:#000000;fill-opacity:1;fill-rule:nonzero;stroke:none"
     id="path3083"
     d="m 519.79973,113.60056 c 0,-1.91308 0,-2.63152 -0.13214,-3.89733 h 2.15044 v 3.35017 h 0.0683 c 0.78824,-1.94641 2.2552,-3.75963 4.47859,-3.75963 0.51478,0 1.12989,0.10252 1.50351,0.20458 v 2.25795 c -0.44193,-0.13764 -1.02513,-0.20687 -1.57183,-0.20687 -3.41705,0 -4.34191,3.8312 -4.34191,6.9743 v 8.61602 h -2.15497 v -13.53919" />
  <path
     style="fill:#000000;fill-opacity:1;fill-rule:nonzero;stroke:none"
     id="path3085"
     d="m 543.6642,118.35244 h -0.61511 c -3.72685,0 -8.17347,0.37821 -8.17347,4.20661 0,2.28946 1.64468,3.1459 3.62653,3.1459 5.05719,0 5.16205,-4.41155 5.16205,-6.29134 z m 0.20504,5.98439 h -0.0684 c -0.95682,2.08432 -3.38515,3.21248 -5.54017,3.21248 -4.95692,0 -5.74056,-3.35053 -5.74056,-4.92322 0,-5.8441 6.22353,-6.11786 10.73398,-6.11786 h 0.41007 v -0.88968 c 0,-2.97435 -1.06158,-4.47817 -3.9638,-4.47817 -1.81331,0 -3.52181,0.40905 -5.13004,1.43474 v -2.08447 c 1.33488,-0.64977 3.59013,-1.19688 5.13004,-1.19688 4.30546,0 6.11877,1.94907 6.11877,6.49587 v 7.69294 c 0,1.40151 0,2.46029 0.16854,3.65717 h -2.11847 v -2.80292" />
  <path
     style="fill:#000000;fill-opacity:1;fill-rule:nonzero;stroke:none"
     id="path3087"
     d="m 153.04309,153.09679 c -1.50386,-0.78543 -3.65978,-1.02559 -5.33466,-1.02559 -6.18655,0 -9.67515,4.37561 -9.67515,10.29128 0,6.01529 3.386,10.28873 9.67515,10.28873 1.57283,0 3.96652,-0.20493 5.33466,-1.02538 l 0.13572,2.05097 c -1.2992,0.78737 -3.96457,1.0257 -5.47038,1.0257 -7.52147,0 -12.03285,-4.95662 -12.03285,-12.34002 0,-7.24785 4.64934,-12.34246 12.03285,-12.34246 1.40152,0 4.23989,0.23787 5.47038,0.88759 l -0.13572,2.18918" />
  <path
     style="fill:#000000;fill-opacity:1;fill-rule:nonzero;stroke:none"
     id="path3089"
     d="m 167.84573,172.85814 c 3.76187,0 5.7775,-3.24796 5.7775,-7.28369 0,-4.03298 -2.01563,-7.28104 -5.7775,-7.28104 -3.75959,0 -5.7776,3.24806 -5.7776,7.28104 0,4.03573 2.01801,7.28369 5.7776,7.28369 z m 0,-16.41133 c 5.64169,0 8.13744,4.37611 8.13744,9.12764 0,4.75193 -2.49575,9.12805 -8.13744,9.12805 -5.63955,0 -8.13571,-4.37612 -8.13571,-9.12805 0,-4.75153 2.49616,-9.12764 8.13571,-9.12764" />
  <path
     style="fill:#000000;fill-opacity:1;fill-rule:nonzero;stroke:none"
     id="path3091"
     d="m 182.71735,160.96097 c 0,-1.33487 0,-2.70085 -0.13568,-4.1044 h 2.08434 v 3.1121 h 0.069 c 0.71657,-1.57279 2.01549,-3.52186 5.63941,-3.52186 4.30896,0 5.94877,2.87224 5.94877,6.70059 v 11.14533 h -2.15368 V 163.6945 c 0,-3.28104 -1.16129,-5.40109 -4.13547,-5.40109 -3.93327,0 -5.16335,3.45259 -5.16335,6.35791 v 9.64141 h -2.15332 v -13.33176" />
  <path
     style="fill:#000000;fill-opacity:1;fill-rule:nonzero;stroke:none"
     id="path3093"
     d="m 205.86209,158.70241 h -3.52131 v -1.84584 h 3.52131 v -1.26401 c 0,-3.65717 0.13586,-7.35017 4.61403,-7.35017 0.68505,0 1.60869,0.10247 2.01773,0.34248 l -0.13572,1.87989 c -0.44463,-0.24011 -1.09436,-0.37577 -1.71084,-0.37577 -2.9386,0 -2.63148,3.17909 -2.63148,5.26346 v 1.50412 h 3.93091 v 1.84584 h -3.93091 v 15.59032 h -2.15372 v -15.59032" />
  <path
     style="fill:#000000;fill-opacity:1;fill-rule:nonzero;stroke:none"
     id="path3095"
     d="m 229.07412,164.34433 c 0,-3.04297 -1.23049,-6.05092 -4.44245,-6.05092 -3.18148,0 -5.13009,3.17924 -5.13009,6.05092 z m 1.06115,9.40129 c -1.50386,0.61649 -3.45248,0.95688 -5.0613,0.95688 -5.7771,0 -7.93064,-3.89769 -7.93064,-9.12805 0,-5.33243 2.94078,-9.12764 7.35029,-9.12764 4.92316,0 6.94071,3.96665 6.94071,8.64961 v 1.09436 h -11.93275 c 0,3.69275 1.98406,6.66736 5.74383,6.66736 1.57266,0 3.86438,-0.64973 4.88986,-1.2993 v 2.18678" />
  <path
     style="fill:#000000;fill-opacity:1;fill-rule:nonzero;stroke:none"
     id="path3097"
     d="m 244.69767,172.85814 c 3.82857,0 5.16121,-4.10461 5.16121,-7.28369 0,-3.17873 -1.33264,-7.28104 -5.16121,-7.28104 -4.10216,0 -5.16331,3.89768 -5.16331,7.28104 0,3.38606 1.06115,7.28369 5.16331,7.28369 z m 7.31658,1.43459 h -2.15537 v -2.76947 h -0.067 c -1.16361,2.22236 -2.94092,3.17924 -5.43667,3.17924 -4.78529,0 -7.17898,-3.96472 -7.17898,-9.12805 0,-5.29863 2.05103,-9.12764 7.17898,-9.12764 3.41926,0 5.12777,2.49632 5.43667,3.35057 h 0.067 v -11.14553 h 2.15537 v 25.64088" />
  <path
     style="fill:#000000;fill-opacity:1;fill-rule:nonzero;stroke:none"
     id="path3099"
     d="m 270.50769,164.34433 c 0,-3.04297 -1.23013,-6.05092 -4.44264,-6.05092 -3.18106,0 -5.13004,3.17924 -5.13004,6.05092 z m 1.06101,9.40129 c -1.50386,0.61649 -3.45247,0.95688 -5.0608,0.95688 -5.77741,0 -7.9311,-3.89769 -7.9311,-9.12805 0,-5.33243 2.94133,-9.12764 7.35025,-9.12764 4.92316,0 6.94103,3.96665 6.94103,8.64961 v 1.09436 h -11.93307 c 0,3.69275 1.98465,6.66736 5.74433,6.66736 1.57261,0 3.86388,-0.64973 4.88936,-1.2993 v 2.18678" />
  <path
     style="fill:#000000;fill-opacity:1;fill-rule:nonzero;stroke:none"
     id="path3101"
     d="m 279.63748,160.75369 c 0,-1.91307 0,-2.63162 -0.13577,-3.89712 h 2.15368 v 3.34997 h 0.0665 c 0.78774,-1.94642 2.25797,-3.75973 4.4804,-3.75973 0.5116,0 1.12807,0.10257 1.5039,0.20508 v 2.25801 c -0.44508,-0.13805 -1.02556,-0.20749 -1.57265,-0.20749 -3.41935,0 -4.3424,3.83126 -4.3424,6.9745 v 8.61582 h -2.15368 v -13.53904" />
  <path
     style="fill:#000000;fill-opacity:1;fill-rule:nonzero;stroke:none"
     id="path3103"
     d="m 303.50111,165.50558 h -0.61643 c -3.72597,0 -8.17083,0.37805 -8.17083,4.20666 0,2.28945 1.64158,3.1459 3.62391,3.1459 5.05852,0 5.16335,-4.4117 5.16335,-6.29139 z m 0.20452,5.98429 h -0.0688 c -0.95673,2.08447 -3.38373,3.21263 -5.53918,3.21263 -4.95656,0 -5.74193,-3.35058 -5.74193,-4.92328 0,-5.8442 6.22213,-6.11795 10.73397,-6.11795 h 0.41141 v -0.88968 c 0,-2.97421 -1.06115,-4.47818 -3.96643,-4.47818 -1.81335,0 -3.52186,0.409 -5.12791,1.43475 v -2.08437 c 1.33268,-0.64988 3.58842,-1.19698 5.12791,-1.19698 4.30681,0 6.11962,1.94907 6.11962,6.49601 v 7.6928 c 0,1.4015 0,2.46028 0.17125,3.65711 h -2.11992 v -2.80286" />
  <path
     style="fill:#000000;fill-opacity:1;fill-rule:nonzero;stroke:none"
     id="path3105"
     d="m 311.84139,172.48232 10.49569,-13.77991 h -10.08652 v -1.84584 h 12.58012 v 1.84584 l -10.4935,13.74387 h 10.4935 v 1.84645 h -12.98929 v -1.81041" />
  <path
     style="fill:#000000;fill-opacity:1;fill-rule:nonzero;stroke:none"
     id="path3107"
     d="m 331.29337,156.85657 h 2.15359 v 17.43616 h -2.15359 z m 2.15359,-4.64961 h -2.15359 v -2.86975 h 2.15359 v 2.86975" />
  <path
     style="fill:#000000;fill-opacity:1;fill-rule:nonzero;stroke:none"
     id="path3109"
     d="m 355.15468,170.19067 c 0,1.33259 0,2.7007 0.13801,4.10206 h -2.08663 v -3.10986 h -0.0669 c -0.71849,1.57056 -2.01796,3.51963 -5.64183,3.51963 -4.30677,0 -5.94827,-2.8699 -5.94827,-6.70055 v -11.14538 h 2.1531 v 10.59767 c 0,3.28354 1.16365,5.4039 4.13779,5.4039 3.93099,0 5.16111,-3.45483 5.16111,-6.36031 v -9.64126 h 2.15364 v 13.3341" />
  <path
     style="fill:#000000;fill-opacity:1;fill-rule:nonzero;stroke:none"
     id="path3111"
     d="m 363.22342,160.96097 c 0,-1.33487 0,-2.70085 -0.13587,-4.1044 h 2.08444 v 3.1121 h 0.0693 c 0.71621,-1.57279 2.01509,-3.52186 5.63942,-3.52186 4.30918,0 5.9484,2.87224 5.9484,6.70059 v 11.14533 h -2.15319 V 163.6945 c 0,-3.28104 -1.16133,-5.40109 -4.13556,-5.40109 -3.93322,0 -5.16376,3.45259 -5.16376,6.35791 v 9.64141 h -2.15318 v -13.33176" />
  <path
     style="fill:#000000;fill-opacity:1;fill-rule:nonzero;stroke:none"
     id="path3113"
     d="m 395.39357,171.76321 c 1.29942,0.64988 2.87207,1.09493 4.54737,1.09493 2.05108,0 3.86174,-1.13036 3.86174,-3.11226 0,-4.13559 -8.37536,-3.48628 -8.37536,-8.54714 0,-3.45248 2.80278,-4.75193 5.67496,-4.75193 0.923,0 2.76965,0.20508 4.30677,0.78782 l -0.20452,1.87974 c -1.12808,-0.51386 -2.66523,-0.82096 -3.86215,-0.82096 -2.22248,0 -3.76192,0.68291 -3.76192,2.90533 0,3.24806 8.58033,2.8385 8.58033,8.54714 0,3.6926 -3.45251,4.95662 -6.08403,4.95662 -1.67525,0 -3.35055,-0.20509 -4.88776,-0.81882 l 0.20457,-2.12047" />
  <path
     style="fill:#000000;fill-opacity:1;fill-rule:nonzero;stroke:none"
     id="path3115"
     d="m 418.74319,174.29273 h -2.52896 l -5.91565,-17.43616 h 2.36053 l 4.82069,15.07809 h 0.0665 l 5.06134,-15.07809 h 2.25574 l -6.12021,17.43616" />
  <path
     style="fill:#000000;fill-opacity:1;fill-rule:nonzero;stroke:none"
     id="path3117"
     d="m 430.53835,156.85657 h 2.15364 v 17.43616 h -2.15364 z m 2.15364,-4.64961 h -2.15364 v -2.86975 h 2.15364 v 2.86975" />
  <path
     style="fill:#000000;fill-opacity:1;fill-rule:nonzero;stroke:none"
     id="path3119"
     d="m 439.18757,172.48232 10.49573,-13.77991 h -10.08628 v -1.84584 h 12.58012 v 1.84584 l -10.49341,13.74387 h 10.49341 v 1.84645 h -12.98957 v -1.81041" />
  <path
     style="fill:#000000;fill-opacity:1;fill-rule:nonzero;stroke:none"
     id="path3121"
     d="m 458.63951,160.75369 c 0,-1.91307 0,-2.63162 -0.13668,-3.89712 h 2.155 v 3.34997 h 0.0683 c 0.78364,-1.94642 2.25523,-3.75973 4.47853,-3.75973 0.51028,0 1.12539,0.10257 1.5035,0.20508 v 2.25801 c -0.44645,-0.13805 -1.02506,-0.20749 -1.57184,-0.20749 -3.42153,0 -4.34185,3.83126 -4.34185,6.9745 v 8.61582 h -2.155 v -13.53904" />
  <path
     d="m 482.50397,165.5056 h -0.61507 c -3.72688,0 -8.17352,0.37806 -8.17352,4.20663 0,2.28945 1.64017,3.1459 3.62674,3.1459 5.05706,0 5.16185,-4.4117 5.16185,-6.29138 z m 0.20497,5.98426 h -0.0683 c -0.95677,2.08448 -3.38509,3.21264 -5.54009,3.21264 -4.95697,0 -5.74065,-3.35055 -5.74065,-4.92325 0,-5.84421 6.21898,-6.11798 10.7295,-6.11798 h 0.41456 v -0.8897 c 0,-2.97418 -1.06161,-4.47817 -3.96836,-4.47817 -1.81325,0 -3.52176,0.40904 -5.12553,1.43474 v -2.08434 c 1.3304,-0.64987 3.58564,-1.19701 5.12553,-1.19701 4.31001,0 6.1188,1.94908 6.1188,6.49604 v 7.69277 c 0,1.40153 0,2.46031 0.17318,3.65713 h -2.11865 v -2.80287"
     id="path3131"
     style="fill:#000000;fill-opacity:1;fill-rule:nonzero;stroke:none" />
  <path
     d="M 96.889107,7.919662 C 96.889107,7.919662 78.807217,0 48.534611,0 h -0.0092 C 18.252576,0 0.16635458,7.919662 0.16635458,7.919662 c 0,0 -1.61939698,35.064552 5.24568002,54.89072 12.1243334,34.86003 43.1092304,44.652678 43.1092304,44.652678 h 0.0087 0.009 c 0,0 30.980161,-9.792648 43.108821,-44.652678 6.86489,-19.826168 5.24121,-54.89072 5.24121,-54.89072"
     id="path3133"
     style="fill:#ff0000;fill-opacity:1;fill-rule:nonzero;stroke:none" />
  <path
     style="fill:#ffffff;fill-opacity:1;fill-rule:nonzero;stroke:none"
     id="path3135"
     d="m 80.666857,38.147902 v 19.3186 h -22.53952 v 22.5402 H 38.808161 v -22.5402 H 16.268374 v -19.3186 h 22.539787 v -22.53545 h 19.31462 l 0.0046,22.53545 h 22.53952" />
</svg>
