<svg xmlns="http://www.w3.org/2000/svg" width="377.794" height="102.012" viewBox="0 0 99.958 26.991"><defs><radialGradient id="b" cx="70.69" cy="120.71" r="20.17" gradientTransform="matrix(.26458 0 0 -.26458 16.611 122.27)" gradientUnits="userSpaceOnUse"><stop offset="0" stop-color="#003789"/><stop offset="1" stop-color="#5fc7ff" stop-opacity=".98"/></radialGradient><radialGradient id="c" cx="84.22" cy="123.44" r="24.08" gradientTransform="matrix(.26458 0 0 -.26458 16.611 122.27)" gradientUnits="userSpaceOnUse"><stop offset="0" stop-color="#ec0a1c"/><stop offset="1" stop-color="#bb0e15"/></radialGradient><radialGradient id="d" cx="106.44" cy="89.14" r="41.36" gradientTransform="matrix(.26458 0 0 -.26458 16.611 122.27)" gradientUnits="userSpaceOnUse"><stop offset="0" stop-color="#5bc0ff" stop-opacity=".98"/><stop offset="1" stop-color="#003789"/></radialGradient><radialGradient id="e" cx="53.82" cy="72.57" r="27.02" gradientTransform="matrix(.26458 0 0 -.26458 16.611 122.27)" gradientUnits="userSpaceOnUse"><stop offset="0" stop-color="#42b4f3" stop-opacity=".98"/><stop offset="1" stop-color="#003a80"/></radialGradient><radialGradient id="f" cx="88.49" cy="104.89" r="47.74" gradientTransform="matrix(.26458 0 0 -.26458 16.611 122.27)" gradientUnits="userSpaceOnUse"><stop offset="0" stop-color="#5fc7ff"/><stop offset="1" stop-color="#003785" stop-opacity=".98"/></radialGradient><radialGradient id="g" cx="47.21" cy="114.1" r="55.18" gradientTransform="matrix(.26458 0 0 -.26458 16.611 122.27)" gradientUnits="userSpaceOnUse"><stop offset="0" stop-color="#ec0a1c"/><stop offset="1" stop-color="#9e0d18"/></radialGradient><linearGradient id="a" x1="69.55" x2="60.12" y1="48.21" y2="84.19" gradientTransform="matrix(.26458 0 0 -.26458 16.611 122.27)" gradientUnits="userSpaceOnUse"><stop offset="0" stop-color="#350706"/><stop offset=".36" stop-color="#3f0808"/><stop offset=".98" stop-color="#5b0c0e"/><stop offset="1" stop-color="#5c0c0e"/></linearGradient></defs><path d="M91.901 95.957a6.4 6.4 0 0 0-2.016-.41c-.767 0-1.368.2-1.368.9 0 1.65 4.25.634 4.25 4.032 0 2.299-1.866 3.175-3.97 3.175a9.8 9.8 0 0 1-2.817-.418l.166-2.017a9.5 9.5 0 0 0 2.551.469c.815 0 1.482-.265 1.482-.966 0-1.767-4.247-.635-4.247-4.016 0-2.117 1.78-2.982 3.747-2.982a8.1 8.1 0 0 1 2.667.418zm-7.765 0a6.5 6.5 0 0 0-2.014-.41c-.767 0-1.384.2-1.384.9 0 1.65 4.265.634 4.265 4.032 0 2.299-1.88 3.175-3.968 3.175a10.2 10.2 0 0 1-2.85-.418l.183-2.017a9.7 9.7 0 0 0 2.566.469c.794 0 1.466-.265 1.466-.966 0-1.767-4.265-.635-4.265-4.016 0-2.117 1.799-2.982 3.746-2.982a8.4 8.4 0 0 1 2.702.418zm39.25-2.249c1.853 0 2.932 1 2.932 3.175v6.564h-2.466V97.4c0-.982-.283-1.633-1.323-1.633s-1.966.916-1.966 2.564v5.133h-2.413V97.4c0-.916-.301-1.633-1.352-1.633-1.098 0-1.947 1.016-1.947 2.665v5.027h-2.498V93.91c1.63-.201 2.247.466 2.316 1.532a3.29 3.29 0 0 1 2.981-1.733c1.715 0 2.398.95 2.646 1.852.416-.947 1.482-1.852 3.098-1.852zm-50.228.201c-.53 2.831-1.9 7.297-2.765 9.546h-2.598l-1.834-6.35h-.031l-1.834 6.35h-2.582c-.834-2.217-2.334-6.831-2.765-9.546h2.447l1.617 6.564h.034l1.932-6.564h2.45l1.88 6.514h.035l1.633-6.514zm-15.875 2.048a6.4 6.4 0 0 0-2.016-.41c-.767 0-1.35.2-1.35.9 0 1.65 4.234.634 4.234 4.032 0 2.299-1.865 3.175-3.969 3.175a9.8 9.8 0 0 1-2.815-.418l.148-2.017a9.7 9.7 0 0 0 2.567.469c.814 0 1.481-.265 1.481-.966 0-1.767-4.233-.635-4.233-4.016 0-2.117 1.78-2.982 3.746-2.982a8.2 8.2 0 0 1 2.667.418zm48.977 7.697c-2.715 0-4.614-1.482-4.614-4.813 0-2.982 2-5.133 4.897-5.133 2.699 0 4.448 1.519 4.448 4.762 0 3.117-1.897 5.181-4.73 5.181zm.1-7.843c-1.097 0-2.148.815-2.148 2.91 0 1.816.683 2.832 2.117 2.832 1.217 0 2.15-.982 2.15-2.91 0-1.853-.666-2.832-2.116-2.832zm-32.085 7.647h2.45v-9.549c-1.151-.116-2.45.201-2.45 2zm1.338-10.748a1.535 1.535 0 0 0 1.588-1.516 1.543 1.543 0 0 0-3.083 0 1.53 1.53 0 0 0 1.495 1.516m22.858 10.912c-2.834 0-4.683-1.416-4.683-4.797 0-2.868 1.587-5.083 5.064-5.083a7.1 7.1 0 0 1 2.333.4l-.529 2a5 5 0 0 0-1.73-.35c-1.783 0-2.516 1.165-2.516 2.911 0 1.702.666 2.834 2.415 2.834a4.9 4.9 0 0 0 1.932-.418l.283 1.966c-.476.304-1.492.537-2.559.537z" class="cls-2" style="fill:#015;stroke-width:.264583" transform="translate(-26.36 -85.183)"/><path d="M35.373 92.12A1.69 1.69 0 0 0 34 93.18c-.244.542-.376 1.14-.733 1.627-.741 1.016-2.662.778-2.956 2.172-.43 2.048 2.233 2.48 3.025 3.905.579 1.059.296 2.686 1.391 3.424a1.9 1.9 0 0 0 .545.244 1 1 0 0 0 .104.02z" class="cls-3" style="fill:#fff;stroke-width:.264583" transform="translate(-26.36 -85.183)"/><path d="m35.376 104.577-.104-.021a1.9 1.9 0 0 1-.547-.244c-1.096-.738-.813-2.38-1.39-3.423a3 3 0 0 0-.793-.868l-.03-.024c-.126.127-.314.326-.618.63a9 9 0 0 0-.664.764 9.4 9.4 0 0 1 1.746 2.435c.529 1.188.672 2.481 1.085 3.704a4.8 4.8 0 0 0 .613 1.29 1.6 1.6 0 0 0 .704.586v-4.842z" class="cls-4" style="fill:url(#a);stroke-width:.264583" transform="translate(-26.36 -85.183)"/><path d="M34.074 89.512c.116.127.264.28.397.418.132.137.312.323.505.508.12.113.265.264.389.37v-5.596a1.5 1.5 0 0 0-.394-.026 3.4 3.4 0 0 0-.977.2 2.5 2.5 0 0 0-.77.435 1.46 1.46 0 0 0-.508.825 2.1 2.1 0 0 0 .223 1.323 5 5 0 0 0 .468.794s.132.161.206.243c.151.154.307.328.46.506" class="cls-5" style="fill:url(#b);stroke-width:.264583" transform="translate(-26.36 -85.183)"/><path d="M43.003 93.84a7.2 7.2 0 0 0-.632-2.45 6.3 6.3 0 0 0-1.254-1.794 4 4 0 0 0-.156-.15 6.6 6.6 0 0 0-.942-.733 7 7 0 0 0-1.04-.548 6.2 6.2 0 0 0-1.87-.463 3.35 3.35 0 0 0-1.736.265v2.83c.317.292.698.64.892.813.134.119.264.233.4.35l.393.33.41.346c.17.143.778.635.85.696l.119.096 1.537 1.246.034.026c.207.167 1.268 1.021 1.789 1.469.521.447.913.793.95.833a13 13 0 0 0 .23-1.408 10 10 0 0 0 .026-1.754" class="cls-6" style="fill:url(#c);stroke-width:.264583" transform="translate(-26.36 -85.183)"/><path d="M46.337 102.05a6.9 6.9 0 0 0-.868-1.963 13.4 13.4 0 0 0-1.923-2.328c-.265-.265-.53-.503-.794-.754a10 10 0 0 1-.225.833c-.069.225-.193.595-.24.736-.072.203-.21.569-.302.793-.127.331-.328.794-.508 1.18-.26.556-.405.82-.693 1.35-.13.235-.241.46-.403.74q-.08.142-.182.308c-.03.045-.363.584-.397.645-.066.103-.14.222-.185.289-.4.61-.434.64-.498.73-.148.2.053-.074-.227.32l-.664.937c-.098.135-.429.568-.794 1.02s-.74.948-.908 1.147l-1.166 1.375v2.765q.74-.06 1.532-.203a18 18 0 0 0 1.995-.495 17 17 0 0 0 1.688-.63 15 15 0 0 0 1.444-.73 11.7 11.7 0 0 0 1.699-1.193 8.7 8.7 0 0 0 1.564-1.726 6.9 6.9 0 0 0 1-2.209 7 7 0 0 0 .2-1.378 5.4 5.4 0 0 0-.145-1.559" class="cls-7" style="fill:url(#d);stroke-width:.264583" transform="translate(-26.36 -85.183)"/><path d="M34.672 108.834a4.8 4.8 0 0 1-.614-1.291c-.413-1.233-.545-2.527-1.085-3.704a9.5 9.5 0 0 0-1.743-2.434 7 7 0 0 0-.511.756 4.4 4.4 0 0 0-.35.754 4 4 0 0 0-.116.453 3 3 0 0 0-.053.476 3.3 3.3 0 0 0 .037.617 3.7 3.7 0 0 0 .17.661 4.6 4.6 0 0 0 .375.794l.067.108a6.4 6.4 0 0 0 1.127 1.352 9 9 0 0 0 .775.638c.182.13.368.265.558.373.265.159.516.307.78.445.36.185.927.441 1.29.587a1.6 1.6 0 0 1-.707-.585" class="cls-8" style="fill:url(#e);stroke-width:.264583" transform="translate(-26.36 -85.183)"/><path d="M42.747 97.002a46 46 0 0 0-.95-.833c-.487-.416-1.588-1.302-1.789-1.469l-.034-.026-1.537-1.244a2 2 0 0 1-.12-.098c-.07-.058-.68-.55-.849-.693l-.41-.344-.391-.325c-.143-.117-.265-.23-.402-.352-.194-.17-.575-.53-.892-.81-.122-.114-.265-.264-.386-.368a13 13 0 0 1-.506-.508c-.164-.174-.28-.29-.397-.418-.164-.177-.32-.352-.46-.516l-.159-.185c.093.151.286.429.384.566.264.392.214.31.479.707.18.264.484.757.65 1.037a1 1 0 0 1 .059.108 4.5 4.5 0 0 1 .264.596 1 1 0 0 1 .067.29v17.299l1.166-1.376c.167-.198.548-.682.908-1.145s.683-.887.794-1.021l.664-.948c.28-.394.08-.119.227-.32.064-.09.098-.119.498-.73l.185-.288c.034-.061.368-.601.397-.649.069-.108.127-.209.182-.304.162-.28.265-.505.403-.74a21.4 21.4 0 0 0 1.738-4.054c.132-.434.198-.717.225-.836z" class="cls-9" style="fill:url(#f);stroke-width:.264583" transform="translate(-26.36 -85.183)"/><path d="M31.227 101.391a9 9 0 0 1 .664-.764c.304-.304.492-.5.62-.63-1.06-.833-2.528-1.458-2.2-3.013.294-1.395 2.215-1.157 2.956-2.173.357-.487.49-1.085.733-1.627a1.69 1.69 0 0 1 1.373-1.058 1 1 0 0 0-.066-.294 4 4 0 0 0-.265-.593 1 1 0 0 0-.058-.11 36 36 0 0 0-.65-1.038c-.266-.397-.207-.315-.48-.704a15 15 0 0 1-.383-.569l-.048-.058a5 5 0 0 1-.468-.793l-.07-.167-.856.635c-.678.497-1.36.99-2.02 1.51-.433.342-.86.696-1.267 1.059a12 12 0 0 0-1.13 1.164c-.653.794-1.169 1.683-1.243 2.699a3.5 3.5 0 0 0 0 .497 4 4 0 0 0 .069.53 4.2 4.2 0 0 0 .778 1.693 9.7 9.7 0 0 0 1.455 1.495l.265.235c.621.53 1.254 1.058 1.852 1.64.169.16.33.326.492.495l-.05-.055z" class="cls-10" style="fill:url(#g);stroke-width:.264583" transform="translate(-26.36 -85.183)"/></svg>