<?xml version="1.0" encoding="utf-8"?>
<!-- Generator: Adobe Illustrator 21.1.0, SVG Export Plug-In . SVG Version: 6.00 Build 0)  -->
<svg version="1.1" id="Ebene_1" xmlns="http://www.w3.org/2000/svg" xmlns:xlink="http://www.w3.org/1999/xlink" x="0px" y="0px"
	 viewBox="0 0 1302.3 231.4" style="enable-background:new 0 0 1302.3 231.4;" xml:space="preserve">
<style type="text/css">
	.st0{fill:#EB0000;}
</style>
<g id="XMLID_2_">
	<g id="XMLID_7_">
		<g id="XMLID_43_">
			<path d="M660.4,95.3c-3.7-6.9-11-13.5-21.5-13.5c-9.2,0-17,4.1-17,11.2c0,6.7,5.9,9.3,12.2,10.5l18.8,4
				c23.3,4.7,36.3,18.2,36.3,36c0,20.6-18.4,41.7-51.5,41.7c-29.5,0-43.3-14.8-50.2-25.4l26.4-16.9c3.5,7.9,12.1,14.8,23.3,14.8
				c10.9,0,17.8-5.7,17.8-11.2c0-5.8-4-9-14-11.2l-17-3.6c-25.4-5.7-35-20.2-35-37.2c0-22,20.2-39.3,49.6-39.3
				c25.6,0,40.7,12.8,48.2,23.5L660.4,95.3z"/>
		</g>
		<g id="XMLID_33_">
			<path d="M774.9,95.3c-3.7-6.9-11-13.5-21.5-13.5c-9.2,0-17,4.1-17,11.2c0,6.7,5.9,9.3,12.2,10.5l18.8,4
				c23.3,4.7,36.3,18.2,36.3,36c0,20.6-18.4,41.7-51.5,41.7c-29.5,0-43.3-14.8-50.2-25.4l26.4-16.9c3.5,7.9,12.1,14.8,23.3,14.8
				c10.9,0,17.8-5.7,17.8-11.2c0-5.8-4-9-14-11.2l-17-3.6c-25.4-5.7-35-20.2-35-37.2c0-22,20.2-39.3,49.6-39.3
				c25.6,0,40.7,12.8,48.2,23.5L774.9,95.3z"/>
		</g>
	</g>
</g>
<g id="XMLID_8_">
	<g id="XMLID_10_">
		<g>
			<path id="XMLID_55_" d="M251.7,1.2c34.5,0,54.5,20.5,63.3,36.3L284,55.8C279.9,47,269.7,33,251.4,33c-16.4,0-27.8,9-27.8,20.1
				c0,10.4,6.5,17.7,19.8,20.1l23.9,4.9c34.9,7,51.4,24.2,51.4,51.5c0,26.8-23.2,55.4-67.8,55.4c-32.2,0-57.8-15.1-70.1-39.2
				L212,127c4.3,8.7,16.6,26.1,38.6,26.1c17.8,0,30-8.8,30-20.5c0-10.6-7.4-17.9-21.9-20.7l-25-5c-29.9-6.2-47.4-25.7-47.4-51.6
				C186.2,24,212.9,1.2,251.7,1.2"/>
		</g>
		<g>
			<path id="XMLID_57_" d="M889.1,1.2c34.5,0,54.5,20.5,63.3,36.3l-30.9,18.4C917.3,47,907.1,33,888.8,33c-16.4,0-27.8,9-27.8,20.1
				c0,10.4,6.5,17.7,19.8,20.1l23.9,4.9c34.9,7,51.4,24.2,51.4,51.5c0,26.8-23.2,55.4-67.8,55.4c-32.2,0-56.7-15.1-69-39.2
				l30.5-18.7c4.3,8.7,16,26,38,26c17.8,0,30-8.8,30-20.5c0-10.6-7.4-17.9-21.9-20.7l-25-5c-29.9-6.2-47.4-25.7-47.4-51.6
				C823.6,24,850.3,1.2,889.1,1.2"/>
		</g>
		<g id="XMLID_51_">
			<path d="M437.7,58.3l21.8,78.1l21.3-78.1h34.8l-38.2,123.5h-32.8l-24.5-81l-25.4,81h-31.6L324.4,58.3h37.1l21.3,77.8l22-77.8
				H437.7z"/>
		</g>
		<g id="XMLID_41_">
			<path d="M548.5,0c11.7,0,21.2,9.3,21.2,20.7s-9.5,20.7-21.2,20.7c-11.2,0-20.7-9.3-20.7-20.7S537.2,0,548.5,0z M531.6,181.8V58.3
				h34.2v123.5H531.6z"/>
		</g>
		<g id="XMLID_67_">
			<path d="M997.1,0c11.7,0,21.2,9.3,21.2,20.7s-9.5,20.7-21.2,20.7c-11.2,0-20.7-9.3-20.7-20.7S985.8,0,997.1,0z M980.2,181.8V58.3
				h34.2v123.5H980.2z"/>
		</g>
	</g>
</g>
<circle class="st0" cx="24.7" cy="38.1" r="24.7"/>
<circle class="st0" cx="24.7" cy="145.9" r="24.7"/>
<circle class="st0" cx="83.1" cy="92" r="24.7"/>
<path id="XMLID_105_" d="M1059.4,182.9c7.5,11.5,21,18.5,33.3,18.5c20.4,0,33.6-11.2,33.6-32.1v-8.4c-4.5,6.7-17.1,15.7-34.3,15.7
	c-32.5,0-56.9-26.3-56.9-60c0-31.9,23.4-60.7,56.9-60.7c19.8,0,32.1,11,35.5,17.4V58.3h33.4v106.6c0,34.9-21,66.6-67,66.6
	c-24.5,0-45.6-11.5-57.7-27.1L1059.4,182.9z M1127.6,116.5c0-18.1-12.7-29.9-28.7-29.9c-16.3,0-29.3,11-29.3,29.9
	s11.8,29.9,29.3,29.9C1116.2,146.4,1127.6,134.6,1127.6,116.5z"/>
<path id="XMLID_118_" d="M1222,181.7h-34.2V58.3h33v14.3c7.9-11.3,22.1-17.5,35.5-17.5c30.8,0,46,24.6,46,50.6v76.1H1268v-72.5
	c0-13-8-22.7-22.1-22.7c-12.8,0-23.9,10.5-23.9,23.8V181.7z"/>
</svg>
