<svg xmlns="http://www.w3.org/2000/svg" width="790.423" height="255.005"><path d="M136.292 29.786c1.4.89 3.04 1.401 5.263 1.401 2.94 0 5.368-1.504 5.368-4.887 0-4.686-10.94-5.266-10.94-11.522 0-3.828 3.35-6.222 7.556-6.222 1.162 0 3.041.171 4.683.785l-.376 2.156c-1.059-.583-2.736-.89-4.342-.89-2.46 0-5.161 1.026-5.161 4.102 0 4.788 10.938 4.821 10.938 11.795 0 4.82-4.135 6.734-7.828 6.734-2.325 0-4.136-.478-5.402-1.025zm31.518-12.069c-1.161-.512-2.563-.888-3.726-.888-4.205 0-6.565 3.043-6.565 7.282 0 3.966 2.394 7.283 6.325 7.283 1.368 0 2.633-.31 3.933-.788l.204 2.018c-1.47.512-2.838.614-4.478.614-5.608 0-8.342-4.273-8.342-9.127 0-5.369 3.452-9.128 8.616-9.128 2.084 0 3.588.478 4.204.683zm6.496-10.529h2.153v11.145h.07c.923-1.913 2.871-3.35 5.434-3.35 4.685 0 5.949 3.112 5.949 7.419v10.427h-2.154V22.435c0-3.007-.58-5.606-4.135-5.606-3.829 0-5.164 3.624-5.164 6.667v9.333h-2.153zm39.589 25.641h-2.598l-4.752-15.076h-.069l-4.752 15.076h-2.598l-5.606-17.437h2.358l4.58 15.079h.07l4.854-15.079h2.598l4.616 15.079h.067l4.82-15.079h2.154zm21.982-9.949c0-3.043-1.23-6.05-4.443-6.05-3.18 0-5.13 3.178-5.13 6.05zm1.061 9.402c-1.504.616-3.453.956-5.06.956-5.778 0-7.932-3.897-7.932-9.127 0-5.333 2.941-9.128 7.35-9.128 4.923 0 6.941 3.966 6.941 8.65v1.094h-11.932c0 3.693 1.984 6.667 5.743 6.667 1.573 0 3.864-.65 4.89-1.3zm8.066-16.89h2.154V32.83h-2.154zm2.154-4.65h-2.154v-2.87h2.154zm6.498 20.276 10.496-13.78h-10.087v-1.846h12.58v1.847l-10.493 13.743h10.494v1.847h-12.99zm30.082-8.138c0-3.043-1.23-6.05-4.443-6.05-3.181 0-5.13 3.178-5.13 6.05zm1.06 9.402c-1.503.616-3.452.956-5.06.956-5.778 0-7.931-3.897-7.931-9.127 0-5.333 2.941-9.128 7.35-9.128 4.923 0 6.94 3.966 6.94 8.65v1.094h-11.932c0 3.693 1.984 6.667 5.744 6.667 1.573 0 3.864-.65 4.89-1.3zm8.069-12.992c0-1.913 0-2.632-.135-3.898h2.153v3.35h.067c.787-1.946 2.258-3.76 4.48-3.76a6.4 6.4 0 0 1 1.504.205v2.259c-.445-.138-1.025-.207-1.573-.207-3.419 0-4.342 3.83-4.342 6.974v8.616h-2.154zm14.051-3.898h2.153V32.83h-2.153zm2.153-4.65h-2.153v-2.87h2.153zm6.77 19.558c1.299.649 2.872 1.094 4.547 1.094 2.051 0 3.862-1.13 3.862-3.112 0-4.136-8.376-3.486-8.376-8.547 0-3.453 2.803-4.752 5.675-4.752.924 0 2.77.204 4.307.787l-.204 1.88c-1.128-.514-2.666-.82-3.862-.82-2.222 0-3.762.682-3.762 2.905 0 3.248 8.58 2.838 8.58 8.547 0 3.693-3.452 4.956-6.084 4.956-1.675 0-3.35-.205-4.887-.819zm28.647-12.583c-1.162-.512-2.563-.888-3.727-.888-4.204 0-6.565 3.043-6.565 7.282 0 3.966 2.394 7.283 6.325 7.283 1.368 0 2.634-.31 3.933-.788l.205 2.018c-1.47.512-2.839.614-4.478.614-5.609 0-8.343-4.273-8.343-9.127 0-5.369 3.453-9.128 8.616-9.128 2.085 0 3.588.478 4.205.683zm6.496-10.529h2.153v11.145h.069c.923-1.913 2.872-3.35 5.435-3.35 4.685 0 5.948 3.112 5.948 7.419v10.427h-2.153V22.435c0-3.007-.58-5.606-4.136-5.606-3.828 0-5.163 3.624-5.163 6.667v9.333h-2.153zM383.29 22.88c0-3.043-1.23-6.05-4.443-6.05-3.181 0-5.13 3.178-5.13 6.05zm1.06 9.402c-1.503.616-3.452.956-5.06.956-5.778 0-7.931-3.897-7.931-9.127 0-5.333 2.941-9.128 7.35-9.128 4.923 0 6.941 3.966 6.941 8.65v1.094h-11.933c0 3.693 1.984 6.667 5.744 6.667 1.573 0 3.864-.65 4.89-1.3zm19.453-23.317h11.69v2.051h-9.332v8.514h8.854v2.051h-8.854v9.197h9.744v2.05h-12.102zm19.521 6.427h2.154V32.83h-2.154zm2.154-4.65h-2.154v-2.87h2.154zm14.597 20.652c3.829 0 5.162-4.105 5.162-7.283 0-3.18-1.333-7.282-5.162-7.282-4.102 0-5.163 3.898-5.163 7.282s1.061 7.283 5.163 7.283m7.317 1.435h-2.155v-2.77h-.067c-1.164 2.223-2.941 3.18-5.437 3.18-4.785 0-7.179-3.965-7.179-9.128 0-5.3 2.051-9.128 7.179-9.128 3.419 0 5.127 2.496 5.437 3.35h.067V7.188h2.155zm14.223-1.847c3.895 0 5.298-3.693 5.298-6.871 0-4.205-1.23-7.282-5.162-7.282-4.1 0-5.162 3.898-5.162 7.282 0 3.419 1.367 6.871 5.026 6.871m7.453.412c0 4.854-2.187 8.818-8.169 8.818-2.291 0-4.378-.65-5.267-.923l.169-2.153c1.335.685 3.248 1.232 5.13 1.232 5.54 0 6.019-4.035 6.019-8.959h-.069c-1.161 2.53-3.08 3.42-5.298 3.42-5.577 0-7.355-4.854-7.355-8.718 0-5.3 2.051-9.128 7.182-9.128 2.323 0 3.827.307 5.435 2.394h.068v-1.985h2.155zm18.493-8.514c0-3.043-1.23-6.05-4.442-6.05-3.18 0-5.13 3.178-5.13 6.05zm1.062 9.402c-1.504.616-3.454.956-5.062.956-5.777 0-7.927-3.897-7.927-9.127 0-5.333 2.938-9.128 7.348-9.128 4.92 0 6.94 3.966 6.94 8.65v1.094h-11.933c0 3.693 1.986 6.667 5.745 6.667 1.572 0 3.864-.65 4.889-1.3zm8.068-12.785c0-1.335 0-2.701-.136-4.105h2.087v3.112h.068c.715-1.572 2.014-3.521 5.64-3.521 4.31 0 5.946 2.872 5.946 6.7V32.83h-2.15v-10.6c0-3.282-1.162-5.402-4.137-5.402-3.932 0-5.163 3.453-5.163 6.358v9.642h-2.155zm28.48 11.897c3.759 0 5.777-3.248 5.777-7.283 0-4.034-2.018-7.282-5.777-7.282-3.763 0-5.781 3.248-5.781 7.282 0 4.035 2.018 7.283 5.781 7.283m0-16.411c5.64 0 8.137 4.376 8.137 9.128s-2.496 9.127-8.137 9.127c-5.64 0-8.137-4.376-8.137-9.127s2.497-9.128 8.137-9.128M538.707 30.3c1.299.649 2.875 1.094 4.547 1.094 2.05 0 3.864-1.13 3.864-3.112 0-4.136-8.374-3.486-8.374-8.547 0-3.453 2.802-4.752 5.672-4.752.925 0 2.77.204 4.305.787l-.2 1.88c-1.13-.514-2.665-.82-3.864-.82-2.223 0-3.763.682-3.763 2.905 0 3.248 8.584 2.838 8.584 8.547 0 3.693-3.454 4.956-6.087 4.956-1.677 0-3.349-.205-4.889-.819zm15.965 0c1.298.649 2.874 1.094 4.546 1.094 2.05 0 3.864-1.13 3.864-3.112 0-4.136-8.379-3.486-8.379-8.547 0-3.453 2.807-4.752 5.677-4.752.925 0 2.77.204 4.306.787l-.205 1.88c-1.126-.514-2.661-.82-3.86-.82-2.223 0-3.763.682-3.763 2.905 0 3.248 8.584 2.838 8.584 8.547 0 3.693-3.453 4.956-6.087 4.956-1.676 0-3.348-.205-4.889-.819zm27.933-7.42c0-3.043-1.235-6.05-4.447-6.05-3.18 0-5.13 3.178-5.13 6.05zm1.057 9.402c-1.504.616-3.45.956-5.058.956-5.777 0-7.932-3.897-7.932-9.127 0-5.333 2.939-9.128 7.35-9.128 4.924 0 6.943 3.966 6.943 8.65v1.094h-11.937c0 3.693 1.986 6.667 5.745 6.667 1.572 0 3.864-.65 4.889-1.3zm8.068-12.785c0-1.335 0-2.701-.136-4.105h2.086v3.112h.069c.715-1.572 2.013-3.521 5.64-3.521 4.306 0 5.946 2.872 5.946 6.7V32.83h-2.15v-10.6c0-3.282-1.163-5.402-4.138-5.402-3.932 0-5.162 3.453-5.162 6.358v9.642h-2.155zM612.073 30.3c1.299.649 2.87 1.094 4.547 1.094 2.05 0 3.859-1.13 3.859-3.112 0-4.136-8.374-3.486-8.374-8.547 0-3.453 2.802-4.752 5.677-4.752.92 0 2.77.204 4.305.787l-.205 1.88c-1.125-.514-2.665-.82-3.863-.82-2.22 0-3.76.682-3.76 2.905 0 3.248 8.585 2.838 8.585 8.547 0 3.693-3.459 4.956-6.087 4.956-1.677 0-3.354-.205-4.894-.819zm28.648-12.583c-1.161-.512-2.565-.888-3.726-.888-4.206 0-6.566 3.043-6.566 7.282 0 3.966 2.392 7.283 6.324 7.283 1.371 0 2.633-.31 3.936-.788l.2 2.018c-1.466.512-2.838.614-4.473.614-5.609 0-8.347-4.273-8.347-9.127 0-5.369 3.454-9.128 8.62-9.128 2.082 0 3.586.478 4.2.683zm6.497-10.529h2.15v11.145h.07c.924-1.913 2.874-3.35 5.434-3.35 4.684 0 5.95 3.112 5.95 7.419v10.427h-2.15V22.435c0-3.007-.583-5.606-4.137-5.606-3.831 0-5.166 3.624-5.166 6.667v9.333h-2.15zM678.7 24.042h-.61c-3.731 0-8.17.378-8.17 4.206 0 2.29 1.637 3.146 3.618 3.146 5.062 0 5.162-4.412 5.162-6.291zm.205 5.984h-.063c-.957 2.084-3.39 3.212-5.54 3.212-4.958 0-5.746-3.35-5.746-4.923 0-5.844 6.224-6.118 10.734-6.118h.41v-.89c0-2.974-1.057-4.478-3.963-4.478-1.81 0-3.518.41-5.13 1.435V16.18c1.335-.65 3.59-1.197 5.13-1.197 4.305 0 6.118 1.949 6.118 6.496v7.693c0 1.401 0 2.46.174 3.657h-2.124zm11.213-12.787H686.6v-1.847h3.517V14.13c0-3.658.137-7.35 4.62-7.35.679 0 1.603.102 2.013.342l-.136 1.88c-.447-.24-1.094-.376-1.709-.376-2.943 0-2.633 3.179-2.633 5.263v1.504h3.932v1.847h-3.932v15.59h-2.155zm20.102 0h-3.965v11.283c0 1.573.584 2.872 2.328 2.872.82 0 1.367-.171 1.978-.412l.141 1.778c-.515.205-1.572.478-2.633.478-3.827 0-3.969-2.632-3.969-5.81v-10.19h-3.417v-1.846h3.417v-4.204l2.155-.752v4.956h3.964zM153.043 58.788c-1.504-.785-3.66-1.025-5.335-1.025-6.186 0-9.675 4.375-9.675 10.29 0 6.016 3.386 10.29 9.675 10.29 1.573 0 3.967-.205 5.335-1.026l.136 2.051c-1.3.788-3.965 1.026-5.47 1.026-7.522 0-12.033-4.957-12.033-12.34 0-7.248 4.649-12.342 12.032-12.342 1.402 0 4.24.24 5.47.89zm14.803 19.762c3.762 0 5.777-3.248 5.777-7.284 0-4.033-2.015-7.281-5.777-7.281-3.76 0-5.778 3.248-5.778 7.28 0 4.037 2.018 7.285 5.778 7.285m0-16.412c5.641 0 8.137 4.376 8.137 9.128s-2.496 9.128-8.137 9.128c-5.64 0-8.136-4.376-8.136-9.128s2.496-9.128 8.136-9.128m14.871 4.514c0-1.334 0-2.7-.135-4.104h2.084v3.112h.069c.717-1.573 2.015-3.522 5.64-3.522 4.308 0 5.948 2.873 5.948 6.7v11.146h-2.153V69.386c0-3.281-1.162-5.401-4.136-5.401-3.933 0-5.163 3.452-5.163 6.358v9.641h-2.154zm23.145-2.258h-3.521v-1.846h3.521v-1.264c0-3.657.136-7.35 4.614-7.35.685 0 1.609.102 2.018.34l-.136 1.882c-.445-.24-1.094-.376-1.71-.376-2.94 0-2.632 3.18-2.632 5.264v1.504h3.93v1.846h-3.93v15.59h-2.154zm19.624-8.58h2.7l-4.307 4.923h-1.572zm3.588 14.222c0-3.043-1.23-6.051-4.442-6.051-3.182 0-5.13 3.18-5.13 6.05zm1.061 9.401c-1.504.616-3.452.957-5.061.957-5.777 0-7.93-3.898-7.93-9.128 0-5.333 2.94-9.128 7.35-9.128 4.923 0 6.94 3.967 6.94 8.65v1.094h-11.932c0 3.693 1.984 6.668 5.743 6.668 1.573 0 3.865-.65 4.89-1.3zm14.563-.887c3.828 0 5.16-4.105 5.16-7.284s-1.332-7.281-5.16-7.281c-4.102 0-5.164 3.898-5.164 7.28 0 3.387 1.062 7.285 5.164 7.285m7.316 1.434h-2.155v-2.77h-.067c-1.164 2.223-2.941 3.18-5.437 3.18-4.785 0-7.179-3.965-7.179-9.128 0-5.299 2.051-9.128 7.18-9.128 3.418 0 5.127 2.497 5.436 3.35h.067V54.344h2.155zm14.906-24.17h2.7l-4.309 4.923h-1.57zm3.588 14.222c0-3.043-1.23-6.051-4.443-6.051-3.181 0-5.13 3.18-5.13 6.05zm1.06 9.401c-1.503.616-3.452.957-5.06.957-5.778 0-7.931-3.898-7.931-9.128 0-5.333 2.941-9.128 7.35-9.128 4.923 0 6.941 3.967 6.941 8.65v1.094h-11.933c0 3.693 1.985 6.668 5.744 6.668 1.573 0 3.864-.65 4.89-1.3zm8.069-12.992c0-1.913 0-2.631-.135-3.897h2.153V65.9h.067c.788-1.948 2.258-3.762 4.48-3.762a6.4 6.4 0 0 1 1.504.205V64.6c-.445-.138-1.025-.207-1.572-.207-3.42 0-4.343 3.829-4.343 6.974v8.616h-2.154zm23.864 4.755h-.616c-3.726 0-8.171.375-8.171 4.204 0 2.29 1.641 3.146 3.624 3.146 5.058 0 5.163-4.412 5.163-6.292zm.205 5.981h-.07c-.956 2.085-3.383 3.213-5.538 3.213-4.957 0-5.742-3.35-5.742-4.923 0-5.844 6.222-6.118 10.734-6.118h.411v-.89c0-2.974-1.061-4.478-3.966-4.478-1.814 0-3.522.409-5.128 1.435v-2.085c1.332-.65 3.588-1.197 5.128-1.197 4.306 0 6.12 1.95 6.12 6.496v7.693c0 1.402 0 2.46.17 3.657h-2.12zm17.263-12.787h-3.966v11.283c0 1.573.582 2.873 2.324 2.873.821 0 1.368-.172 1.985-.412l.135 1.777c-.511.205-1.573.479-2.632.479-3.828 0-3.966-2.632-3.966-5.81v-10.19h-3.42v-1.846h3.42v-4.205l2.154-.752v4.957h3.966zm6.529-1.846h2.153v17.436h-2.153zm2.153-4.65h-2.153v-2.87h2.153zm14.905 20.652c3.762 0 5.778-3.248 5.778-7.284 0-4.033-2.016-7.281-5.778-7.281-3.76 0-5.777 3.248-5.777 7.28 0 4.037 2.018 7.285 5.777 7.285m0-16.412c5.642 0 8.138 4.376 8.138 9.128s-2.496 9.128-8.138 9.128c-5.64 0-8.135-4.376-8.135-9.128s2.496-9.128 8.135-9.128m14.872 4.514c0-1.334 0-2.7-.136-4.104h2.085v3.112h.069c.716-1.573 2.015-3.522 5.64-3.522 4.308 0 5.948 2.873 5.948 6.7v11.146h-2.153V69.386c0-3.281-1.162-5.401-4.136-5.401-3.933 0-5.164 3.452-5.164 6.358v9.641h-2.153zM391.6 77.455c1.3.65 2.873 1.095 4.548 1.095 2.051 0 3.862-1.13 3.862-3.113 0-4.135-8.376-3.486-8.376-8.547 0-3.452 2.803-4.752 5.675-4.752.923 0 2.77.205 4.307.786l-.205 1.882c-1.127-.514-2.665-.821-3.861-.821-2.223 0-3.762.683-3.762 2.905 0 3.248 8.582 2.839 8.582 8.547 0 3.693-3.455 4.957-6.087 4.957-1.674 0-3.35-.205-4.89-.819zm30.903-1.573c0 1.333 0 2.7.138 4.102h-2.087v-3.11h-.067c-.718 1.57-2.017 3.52-5.641 3.52-4.307 0-5.949-2.872-5.949-6.7V62.547h2.154v10.598c0 3.283 1.163 5.404 4.138 5.404 3.93 0 5.16-3.455 5.16-6.36v-9.642h2.154zm8.069-13.334h2.153v17.436h-2.153zm2.153-4.65h-2.153v-2.87h2.153zm6.77 19.557c1.299.65 2.872 1.095 4.547 1.095 2.051 0 3.862-1.13 3.862-3.113 0-4.135-8.376-3.486-8.376-8.547 0-3.452 2.803-4.752 5.675-4.752.923 0 2.77.205 4.307.786l-.205 1.882c-1.128-.514-2.665-.821-3.862-.821-2.222 0-3.762.683-3.762 2.905 0 3.248 8.58 2.839 8.58 8.547 0 3.693-3.452 4.957-6.083 4.957-1.676 0-3.35-.205-4.888-.819zm15.965 0c1.302.65 2.874 1.095 4.55 1.095 2.051 0 3.86-1.13 3.86-3.113 0-4.135-8.376-3.486-8.376-8.547 0-3.452 2.804-4.752 5.679-4.752.92 0 2.77.205 4.305.786l-.205 1.882c-1.125-.514-2.665-.821-3.863-.821-2.22 0-3.76.683-3.76 2.905 0 3.248 8.584 2.839 8.584 8.547 0 3.693-3.458 4.957-6.086 4.957-1.677 0-3.354-.205-4.894-.819zm27.932-7.419c0-3.043-1.23-6.051-4.442-6.051-3.184 0-5.13 3.18-5.13 6.05zm1.062 9.401c-1.508.616-3.454.957-5.062.957-5.777 0-7.932-3.898-7.932-9.128 0-5.333 2.943-9.128 7.35-9.128 4.924 0 6.942 3.967 6.942 8.65v1.094H473.82c0 3.693 1.982 6.668 5.74 6.668 1.577 0 3.864-.65 4.894-1.3zm-331.411 26.507c-1.504-.786-3.66-1.026-5.335-1.026-6.186 0-9.675 4.376-9.675 10.291 0 6.016 3.386 10.29 9.675 10.29 1.573 0 3.967-.206 5.335-1.026l.136 2.05c-1.3.788-3.965 1.026-5.47 1.026-7.522 0-12.033-4.956-12.033-12.34 0-7.248 4.649-12.342 12.032-12.342 1.402 0 4.24.238 5.47.887zm14.803 19.761c3.762 0 5.777-3.248 5.777-7.284 0-4.033-2.015-7.28-5.777-7.28-3.76 0-5.778 3.247-5.778 7.28 0 4.036 2.018 7.284 5.778 7.284m0-16.411c5.641 0 8.137 4.376 8.137 9.127s-2.496 9.128-8.137 9.128c-5.64 0-8.136-4.376-8.136-9.128s2.496-9.127 8.136-9.127m14.871 4.513c0-1.334 0-2.7-.135-4.104h2.084v3.112h.069c.717-1.572 2.015-3.521 5.64-3.521 4.308 0 5.948 2.872 5.948 6.7v11.146h-2.153v-10.6c0-3.28-1.162-5.4-4.136-5.4-3.933 0-5.163 3.452-5.163 6.357v9.642h-2.154zm23.145-2.257h-3.521v-1.847h3.521v-1.263c0-3.658.136-7.35 4.614-7.35.685 0 1.609.102 2.018.342l-.136 1.88c-.445-.24-1.094-.376-1.71-.376-2.94 0-2.632 3.179-2.632 5.263v1.504h3.93v1.846h-3.93v15.59h-2.154zm23.212 5.641c0-3.043-1.23-6.05-4.442-6.05-3.182 0-5.13 3.178-5.13 6.05zm1.061 9.402c-1.504.616-3.452.956-5.061.956-5.777 0-7.93-3.897-7.93-9.128 0-5.332 2.94-9.127 7.35-9.127 4.923 0 6.94 3.966 6.94 8.65v1.094h-11.932c0 3.692 1.984 6.667 5.743 6.667 1.573 0 3.865-.65 4.89-1.3zm14.563-.888c3.828 0 5.16-4.104 5.16-7.284 0-3.178-1.332-7.28-5.16-7.28-4.102 0-5.164 3.897-5.164 7.28 0 3.386 1.062 7.284 5.164 7.284m7.316 1.435h-2.155v-2.77h-.067c-1.164 2.223-2.941 3.18-5.437 3.18-4.785 0-7.179-3.965-7.179-9.129 0-5.298 2.051-9.127 7.18-9.127 3.418 0 5.127 2.496 5.436 3.35h.067V101.5h2.155zm18.494-9.949c0-3.043-1.23-6.05-4.443-6.05-3.181 0-5.13 3.178-5.13 6.05zm1.06 9.402c-1.503.616-3.452.956-5.06.956-5.778 0-7.931-3.897-7.931-9.128 0-5.332 2.941-9.127 7.35-9.127 4.923 0 6.941 3.966 6.941 8.65v1.094h-11.933c0 3.692 1.985 6.667 5.744 6.667 1.573 0 3.864-.65 4.89-1.3zm8.069-12.993c0-1.913 0-2.631-.135-3.897h2.153v3.35h.067c.788-1.946 2.258-3.76 4.48-3.76a6.4 6.4 0 0 1 1.504.205v2.258c-.445-.137-1.025-.207-1.572-.207-3.42 0-4.343 3.832-4.343 6.975v8.616h-2.154zm23.864 4.752h-.616c-3.726 0-8.171.379-8.171 4.207 0 2.29 1.641 3.146 3.624 3.146 5.058 0 5.163-4.412 5.163-6.291zm.205 5.985h-.07c-.956 2.084-3.383 3.212-5.538 3.212-4.957 0-5.742-3.35-5.742-4.923 0-5.844 6.222-6.118 10.734-6.118h.411v-.89c0-2.974-1.061-4.478-3.966-4.478-1.814 0-3.522.41-5.128 1.435v-2.084c1.332-.65 3.588-1.197 5.128-1.197 4.306 0 6.12 1.949 6.12 6.496v7.693c0 1.401 0 2.46.17 3.657h-2.12zm8.135.993 10.496-13.78h-10.086v-1.847h12.58v1.846l-10.494 13.744h10.494v1.847h-12.99zm19.452-15.627h2.154v17.437h-2.154zm2.154-4.65h-2.154v-2.869h2.154zm14.905 20.652c3.761 0 5.777-3.248 5.777-7.284 0-4.033-2.016-7.28-5.777-7.28-3.76 0-5.777 3.247-5.777 7.28 0 4.036 2.017 7.284 5.777 7.284m0-16.411c5.641 0 8.138 4.376 8.138 9.127s-2.497 9.128-8.138 9.128c-5.64 0-8.136-4.376-8.136-9.128s2.496-9.127 8.136-9.127m14.871 4.513c0-1.334 0-2.7-.135-4.104h2.084v3.112h.07c.715-1.572 2.014-3.521 5.639-3.521 4.309 0 5.948 2.872 5.948 6.7v11.146h-2.153v-10.6c0-3.28-1.161-5.4-4.136-5.4-3.933 0-5.163 3.452-5.163 6.357v9.642h-2.154zm32.307 3.384c0-3.043-1.23-6.05-4.443-6.05-3.181 0-5.13 3.178-5.13 6.05zm1.06 9.402c-1.504.616-3.452.956-5.06.956-5.778 0-7.931-3.897-7.931-9.128 0-5.332 2.94-9.127 7.35-9.127 4.923 0 6.94 3.966 6.94 8.65v1.094h-11.932c0 3.692 1.984 6.667 5.744 6.667 1.573 0 3.864-.65 4.89-1.3zm19.488-2.497c1.402.89 3.042 1.402 5.264 1.402 2.94 0 5.368-1.504 5.368-4.888 0-4.684-10.94-5.265-10.94-11.52 0-3.83 3.35-6.223 7.556-6.223 1.161 0 3.041.171 4.683.785l-.376 2.156c-1.059-.583-2.736-.89-4.342-.89-2.461 0-5.161 1.026-5.161 4.102 0 4.787 10.938 4.821 10.938 11.795 0 4.82-4.136 6.734-7.829 6.734-2.324 0-4.135-.478-5.401-1.025zm26.22 3.044h-2.53l-5.915-17.437h2.36l4.821 15.079h.067l5.06-15.079h2.257zm11.795-17.437h2.155v17.437h-2.155zm2.155-4.65h-2.155v-2.869h2.155zm6.496 20.277 10.498-13.78h-10.088v-1.847h12.58v1.846l-10.493 13.744h10.493v1.847h-12.99zm17.846 0 10.498-13.78H481v-1.847h12.58v1.846l-10.493 13.744h10.493v1.847h-12.99zm30.08-8.139c0-3.043-1.23-6.05-4.443-6.05-3.18 0-5.13 3.178-5.13 6.05zm1.061 9.402c-1.503.616-3.449.956-5.057.956-5.782 0-7.932-3.897-7.932-9.128 0-5.332 2.938-9.127 7.349-9.127 4.925 0 6.938 3.966 6.938 8.65v1.094h-11.932c0 3.692 1.987 6.667 5.745 6.667 1.572 0 3.864-.65 4.89-1.3zM519.8 113.6c0-1.913 0-2.631-.132-3.897h2.15v3.35h.068c.789-1.946 2.256-3.76 4.479-3.76.515 0 1.13.103 1.503.205v2.258c-.442-.137-1.025-.207-1.571-.207-3.417 0-4.342 3.832-4.342 6.975v8.616H519.8zm23.864 4.752h-.615c-3.727 0-8.173.379-8.173 4.207 0 2.29 1.644 3.146 3.626 3.146 5.057 0 5.162-4.412 5.162-6.291zm.205 5.985h-.068c-.957 2.084-3.385 3.212-5.54 3.212-4.957 0-5.74-3.35-5.74-4.923 0-5.844 6.223-6.118 10.733-6.118h.41v-.89c0-2.974-1.061-4.478-3.964-4.478-1.813 0-3.521.41-5.13 1.435v-2.084c1.335-.65 3.59-1.197 5.13-1.197 4.306 0 6.12 1.949 6.12 6.496v7.693c0 1.401 0 2.46.168 3.657h-2.119zm-390.826 28.76c-1.504-.786-3.66-1.026-5.335-1.026-6.186 0-9.675 4.376-9.675 10.291 0 6.016 3.386 10.29 9.675 10.29 1.573 0 3.967-.206 5.335-1.026l.136 2.05c-1.3.788-3.965 1.026-5.47 1.026-7.522 0-12.033-4.956-12.033-12.34 0-7.247 4.649-12.342 12.032-12.342 1.402 0 4.24.238 5.47.888zm14.803 19.761c3.762 0 5.777-3.248 5.777-7.284 0-4.033-2.015-7.28-5.777-7.28-3.76 0-5.778 3.247-5.778 7.28 0 4.036 2.018 7.284 5.778 7.284m0-16.411c5.641 0 8.137 4.376 8.137 9.127s-2.496 9.129-8.137 9.129c-5.64 0-8.136-4.377-8.136-9.129s2.496-9.127 8.136-9.127m14.871 4.514c0-1.335 0-2.7-.135-4.104h2.084v3.112h.069c.717-1.573 2.015-3.522 5.64-3.522 4.308 0 5.948 2.872 5.948 6.7v11.146h-2.153v-10.599c0-3.28-1.162-5.4-4.136-5.4-3.933 0-5.163 3.452-5.163 6.357v9.642h-2.154zm23.145-2.259h-3.521v-1.845h3.521v-1.264c0-3.658.136-7.35 4.614-7.35.685 0 1.609.102 2.018.342l-.136 1.88c-.445-.24-1.094-.376-1.71-.376-2.94 0-2.632 3.18-2.632 5.263v1.505h3.93v1.845h-3.93v15.59h-2.154zm23.212 5.642c0-3.043-1.23-6.05-4.442-6.05-3.182 0-5.13 3.179-5.13 6.05zm1.061 9.402c-1.504.616-3.452.956-5.061.956-5.777 0-7.93-3.897-7.93-9.128 0-5.332 2.94-9.127 7.35-9.127 4.923 0 6.94 3.966 6.94 8.65v1.094h-11.932c0 3.693 1.984 6.667 5.743 6.667 1.573 0 3.865-.65 4.89-1.3zm14.563-.888c3.828 0 5.16-4.104 5.16-7.284 0-3.178-1.332-7.28-5.16-7.28-4.102 0-5.164 3.897-5.164 7.28 0 3.387 1.062 7.284 5.164 7.284m7.316 1.435h-2.155v-2.77h-.067c-1.164 2.223-2.941 3.18-5.437 3.18-4.785 0-7.179-3.965-7.179-9.129 0-5.298 2.051-9.127 7.18-9.127 3.418 0 5.127 2.496 5.436 3.35h.067v-11.145h2.155zm18.494-9.949c0-3.043-1.23-6.05-4.443-6.05-3.181 0-5.13 3.179-5.13 6.05zm1.06 9.402c-1.503.616-3.452.956-5.06.956-5.778 0-7.931-3.897-7.931-9.128 0-5.332 2.941-9.127 7.35-9.127 4.923 0 6.941 3.966 6.941 8.65v1.094h-11.933c0 3.693 1.985 6.667 5.744 6.667 1.573 0 3.864-.65 4.89-1.3zm8.069-12.992c0-1.913 0-2.632-.135-3.897h2.153v3.35h.067c.788-1.947 2.258-3.76 4.48-3.76.512 0 1.128.102 1.504.205v2.258c-.445-.138-1.025-.208-1.572-.208-3.42 0-4.343 3.832-4.343 6.975v8.616h-2.154zm23.864 4.752h-.616c-3.726 0-8.171.378-8.171 4.206 0 2.29 1.641 3.146 3.624 3.146 5.058 0 5.163-4.412 5.163-6.291zm.205 5.984h-.07c-.956 2.084-3.383 3.212-5.538 3.212-4.957 0-5.742-3.35-5.742-4.923 0-5.844 6.222-6.118 10.734-6.118h.411v-.89c0-2.974-1.061-4.478-3.966-4.478-1.814 0-3.522.41-5.128 1.435v-2.084c1.332-.65 3.588-1.197 5.128-1.197 4.306 0 6.12 1.949 6.12 6.496v7.693c0 1.401 0 2.46.17 3.657h-2.12zm8.135.992 10.496-13.78h-10.086v-1.845h12.58v1.845l-10.494 13.744h10.494v1.847h-12.99zm19.452-15.625h2.154v17.436h-2.154zm2.154-4.65h-2.154v-2.87h2.154zm21.708 17.983c0 1.333 0 2.701.138 4.103h-2.087v-3.11h-.067c-.718 1.57-2.018 3.52-5.642 3.52-4.306 0-5.948-2.87-5.948-6.701v-11.145h2.153v10.597c0 3.284 1.164 5.404 4.138 5.404 3.93 0 5.161-3.455 5.161-6.36v-9.641h2.154zm8.068-9.229c0-1.335 0-2.7-.135-4.104h2.084v3.112h.07c.715-1.573 2.014-3.522 5.639-3.522 4.309 0 5.948 2.872 5.948 6.7v11.146h-2.153v-10.599c0-3.28-1.161-5.4-4.136-5.4-3.933 0-5.163 3.452-5.163 6.357v9.642h-2.154zm32.171 10.802c1.299.65 2.872 1.095 4.547 1.095 2.051 0 3.862-1.13 3.862-3.112 0-4.136-8.376-3.486-8.376-8.547 0-3.453 2.803-4.752 5.675-4.752.923 0 2.77.205 4.307.788l-.204 1.88c-1.129-.514-2.666-.822-3.863-.822-2.222 0-3.762.683-3.762 2.906 0 3.248 8.58 2.838 8.58 8.547 0 3.692-3.452 4.956-6.083 4.956-1.675 0-3.35-.205-4.888-.818zm23.349 2.53h-2.529l-5.915-17.436h2.36l4.82 15.078h.067l5.062-15.078h2.255zm11.795-17.436h2.154v17.436h-2.154zm2.154-4.65h-2.154v-2.87h2.154zm6.496 20.275 10.495-13.78h-10.086v-1.845h12.58v1.845l-10.493 13.744h10.493v1.847h-12.99zm19.452-11.728c0-1.913 0-2.632-.137-3.897h2.155v3.35h.068c.784-1.947 2.255-3.76 4.479-3.76.51 0 1.125.102 1.503.205v2.258c-.446-.138-1.025-.208-1.572-.208-3.421 0-4.342 3.832-4.342 6.975v8.616h-2.155zm23.864 4.752h-.615c-3.727 0-8.174.378-8.174 4.206 0 2.29 1.64 3.146 3.627 3.146 5.057 0 5.162-4.412 5.162-6.291zm.205 5.984h-.068c-.957 2.084-3.385 3.212-5.54 3.212-4.957 0-5.741-3.35-5.741-4.923 0-5.844 6.219-6.118 10.73-6.118h.414v-.89c0-2.974-1.062-4.478-3.968-4.478-1.814 0-3.522.41-5.126 1.435v-2.084c1.33-.65 3.586-1.197 5.126-1.197 4.31 0 6.118 1.949 6.118 6.496v7.693c0 1.401 0 2.46.174 3.657h-2.12z" style="fill:#000;fill-opacity:1;fill-rule:nonzero;stroke:none"/><path d="M96.89 7.92S78.806 0 48.534 0h-.01C18.253 0 .166 7.92.166 7.92s-1.619 35.064 5.246 54.89c12.124 34.86 43.11 44.653 43.11 44.653h.017s30.98-9.793 43.109-44.653c6.865-19.826 5.241-54.89 5.241-54.89" style="fill:red;fill-opacity:1;fill-rule:nonzero;stroke:none"/><path d="M80.667 38.148v19.319h-22.54v22.54H38.808v-22.54h-22.54v-19.32h22.54V15.613h19.315l.004 22.536z" style="fill:#fff;fill-opacity:1;fill-rule:nonzero;stroke:none"/></svg>