<svg xmlns="http://www.w3.org/2000/svg" data-name="Calque 1" viewBox="0 0 396.9 396.9"><path d="M139.15 169.2v-17.93l-84.19.18v18l29-.06a5.8 5.8 0 0 1 3.7 1.06s.69.91.7 4.21l.16 72h18.3l-.17-77.29Zm31.61-18.6c-5.06 0-8.72 2.93-10.88 8.66l-34.43 87.26h20.24l18.76-48.14 6.08-15.06 15.23 38 10 25h20.34l-35-87.52c-1.01-2.45-3.4-8.2-10.34-8.2m74.14 77.21a5.84 5.84 0 0 1-3.73-1.1c-.17-.21-.66-1.42-.67-4.2l-.15-71.69H222l.15 72.63c0 3.16 0 10.54 5.74 16.41 5.17 5.3 12.39 6.42 17.57 6.42h.08l34.61-.08v-18.45Zm54.18-29.36 43.87-47.82h-24.86l-39.59 43.16a6.64 6.64 0 0 0-1.92 4.64 6.5 6.5 0 0 0 1.62 4.28l40.1 43.37 24.86-.06Z"/><path d="M200 2.5h-.44C90.49 2.74 2.26 91.36 2.5 200.43S91.12 397.5 200 397.5h.44c109.08-.24 197.31-88.86 197.07-197.93S308.88 2.5 200 2.5Zm126.49 323.44a177.34 177.34 0 0 1-126.1 52.56H200A178.5 178.5 0 0 1 73.51 74.06a177.34 177.34 0 0 1 126.1-52.56h.4a178.5 178.5 0 0 1 126.48 304.44Z" style="stroke:#000;stroke-miterlimit:10;stroke-width:1.9001894238170414px" transform="translate(-1.55 -1.55)"/></svg>