<svg xmlns="http://www.w3.org/2000/svg" width="160" height="37" fill="none" class="main-logo" viewBox="0 0 160 37"><path fill="#282828" d="M57.992 32.657c-2.337 2.32-5.523 3.606-8.852 3.606-3.34 0-6.514-1.287-8.851-3.606-3.23-3.21-3.285-6.31-3.285-14.259 0-7.937.055-11.048 3.285-14.258C42.626 1.82 45.81.534 49.14.534s6.515 1.286 8.852 3.606c3.23 3.21 3.285 6.321 3.285 14.258-.011 7.948-.055 11.06-3.285 14.259M55.853 5.624c-1.785-1.78-4.177-2.715-6.713-2.715-2.535 0-4.927.934-6.713 2.715-2.535 2.518-2.733 5.222-2.733 12.774 0 7.553.198 10.257 2.733 12.775 1.797 1.78 4.178 2.715 6.713 2.715s4.928-.934 6.713-2.715c2.536-2.518 2.734-5.233 2.734-12.775 0-7.541-.198-10.256-2.734-12.774m32.915 30.341h-2.282L74.846.84h2.833l9.954 30.44L97.576.841h2.832zM120.606.84h-2.69v35.125h2.69zm27.445 35.423c-5.269 0-8.554-1.43-11.783-4.64l1.896-1.88c3.185 3.156 5.765 4.145 10.042 4.145 5.566 0 9.105-2.66 9.105-7.256 0-2.066-.651-3.803-1.94-4.936-1.29-1.077-2.238-1.429-5.126-1.869l-4.123-.637c-2.678-.396-4.828-1.286-6.316-2.573-1.885-1.572-2.778-3.748-2.778-6.464 0-5.87 4.222-9.619 10.99-9.619 4.376 0 7.154 1.187 10.197 3.804l-1.742 1.726c-2.183-1.924-4.376-3.254-8.598-3.254-5.126 0-8.212 2.814-8.212 7.255 0 2.023.595 3.551 1.841 4.585s3.284 1.868 5.269 2.165l3.825.594c3.34.495 4.828 1.088 6.316 2.32 1.94 1.572 3.086 3.99 3.086 6.804-.011 5.926-4.585 9.73-11.949 9.73" class="fill-color1"/><path fill="#db002f" d="M21.583 35.965 12.49 23.53 3.384 35.965H0l11.144-14.951h2.635l11.144 14.95zM3.384.785l9.105 12.39L21.583.785h3.34L13.78 15.692h-2.635L0 .785z" class="fill-color2"/></svg>