<svg xmlns="http://www.w3.org/2000/svg" fill-rule="evenodd" stroke-linejoin="round" stroke-miterlimit="1.414" clip-rule="evenodd" viewBox="0 0 400 400"><path fill="#fff" d="M333.59 53.285h-16.84C284.266 28.49 116.2 29.38 86.49 53.277H69.345l-33.52 16.892 331.83-.051zm40.313 24.485-345.269.062-18.76 25.22.212 9.51 149.213 25.552-.075 8.772c7.746 11.673 18.203 18.115 31.107 19.833l-.18 7.897 6.168-.077 2.248 165.503-8.293 10.991-.01 15.321 9.791 7.162 3.147.008 9.352-7.328.04-15.204-8.157-11.04 1.334-165.53 6.959-.087-.162-7.822c21.061-4.576 22.978-10.405 31.203-19.705l-.251-8.765 149.233-26.726.004-7.986z" style="fill:#3273dc;fill-opacity:1"/></svg>