<svg height="200" viewBox="0 0 200 200" width="200" xmlns="http://www.w3.org/2000/svg"><g fill="none" fill-rule="evenodd"><path d="m109.379 171.315c-.177.12-5.134-20.857-5.356-31.396-2.823 34.75-10.123 31.561-10.123 31.561 7.28 10.597 3.824 28.52 3.824 28.52h6.83s-1.24-14.861.26-21.659c.456-2.062 3.324-5.511 4.565-7.026" fill="#d3c7ad"/><path d="m101.434 177.597s-48.846-32.43-46.34-84.873c2.497-52.449 43.253-88.644 43.559-92.724 2.716 5.835 18.118 86.998 18.411 96.497 1.11 37.013-15.631 81.1-15.631 81.1" fill="#74b944"/><path d="m142.9 78.384c-10.554-46.099-44.112-78.384-44.112-78.384v.07c12.844 53.983 2.6 176.712 2.6 176.712s52.49-34.95 41.512-98.398" fill="#46a046"/></g></svg>