<svg clip-rule="evenodd" fill-rule="evenodd" viewBox="0 0 433 446" xmlns="http://www.w3.org/2000/svg"><path d="m314.101 315.707c2.598-21.643 1.82-24.817 17.94-21.311l4.093.359c12.396.564 28.611-1.993 38.137-6.419 20.507-9.515 32.667-25.402 12.446-21.228-46.124 9.516-49.295-6.103-49.295-6.103 48.705-72.265 69.065-164 51.491-186.454-47.934-61.249-130.906-32.286-132.295-31.534l-.442.082c-9.113-1.891-19.313-3.021-30.77-3.206-20.873-.343-36.711 5.472-48.726 14.584 0 0-148.018-60.981-141.131 76.691 1.464 29.287 41.979 221.608 90.301 163.518 17.661-21.242 34.729-39.202 34.729-39.202 8.475 5.631 18.622 8.503 29.265 7.471l.822-.701c-.257 2.637-.144 5.217.33 8.27-12.447 13.909-8.789 16.351-33.677 21.474-25.179 5.189-10.386 14.429-.731 16.843 11.709 2.928 38.796 7.076 57.102-18.546l-.729 2.923c4.884 3.907 4.554 28.079 5.246 45.35.693 17.272 1.85 33.389 5.37 42.891 3.521 9.501 7.675 33.976 40.383 26.967 27.336-5.859 48.236-14.29 50.141-92.72" fill-rule="nonzero" stroke="#000" stroke-width="34.29"/><path d="m386.722 267.107c-46.129 9.515-49.3-6.103-49.3-6.103 48.705-72.271 69.065-164.007 51.494-186.459-47.934-61.245-130.909-32.28-132.294-31.528l-.446.08c-9.113-1.892-19.313-3.019-30.776-3.206-20.873-.342-36.705 5.472-48.72 14.583 0 0-148.02-60.979-141.136 76.692 1.464 29.289 41.979 221.61 90.302 163.52 17.662-21.242 34.728-39.202 34.728-39.202 8.476 5.631 18.623 8.503 29.261 7.471l.826-.701c-.257 2.637-.14 5.217.331 8.27-12.449 13.909-8.791 16.351-33.677 21.474-25.181 5.189-10.388 14.429-.73 16.843 11.709 2.928 38.798 7.076 57.101-18.546l-.73 2.923c4.878 3.907 8.303 25.413 7.729 44.907-.574 19.495-.958 32.88 2.886 43.334 3.843 10.454 7.674 33.976 40.388 26.967 27.336-5.859 41.502-21.039 43.472-46.362 1.399-18.002 4.564-15.341 4.764-31.436l2.538-7.619c2.927-24.404.465-32.277 17.306-28.615l4.093.36c12.396.564 28.619-1.994 38.141-6.42 20.503-9.515 32.663-25.402 12.447-21.227z" fill="#336791" fill-rule="nonzero"/><g stroke="#fff"><g fill="none" stroke-linecap="round" stroke-width="11.43"><g stroke-linejoin="round"><path d="m215.667 281.095c-1.27 45.408.319 91.133 4.762 102.246 4.446 11.112 13.96 32.727 46.677 25.718 27.334-5.86 37.279-17.2 41.595-42.23 3.178-18.417 9.306-69.562 10.092-80.041"/><path d="m176.452 53.459s-148.121-60.539-141.235 77.132c1.464 29.289 41.981 221.616 90.304 163.523 17.658-21.244 33.628-37.906 33.628-37.906"/><path d="m256.46 42.41c-5.128 1.608 82.394-31.995 132.133 31.562 17.57 22.453-2.79 114.189-51.494 186.461"/></g><path d="m337.098 260.433s3.174 15.623 49.304 6.101c20.211-4.174 8.048 11.715-12.451 21.234-16.823 7.808-54.54 9.809-55.156-.98-1.586-27.837 19.851-19.38 18.304-26.355-1.399-6.282-10.986-12.447-17.327-27.821-5.536-13.419-75.927-116.326 19.521-101.042 3.497-.724-24.894-90.79-114.22-92.254-89.306-1.465-86.376 109.827-86.376 109.827" stroke-linejoin="bevel"/><g stroke-linejoin="round"><path d="m190.666 269.953c-12.45 13.908-8.789 16.35-33.676 21.474-25.181 5.191-10.387 14.428-.731 16.842 11.709 2.93 38.797 7.078 57.1-18.551 5.574-7.803-.033-20.254-7.689-23.428-3.699-1.532-8.646-3.452-15.004 3.663z"/><path d="m189.851 269.71c-1.254-8.177 2.687-17.908 6.911-29.292 6.348-17.081 20.994-34.165 9.278-88.347-8.733-40.377-67.308-8.403-67.344-2.928-.036 5.473 2.649 27.749-.979 53.691-4.734 33.851 21.54 62.48 51.794 59.551"/></g></g><path d="m175.914 148.322c-.264 1.87 3.423 6.86 8.231 7.526 4.8.67 8.908-3.23 9.169-5.098.26-1.869-3.423-3.929-8.232-4.599-4.803-.67-8.913.306-9.167 2.171z" fill="#fff" fill-rule="nonzero" stroke-width="3.81"/><path d="m322.112 144.51c.261 1.87-3.422 6.859-8.231 7.526-4.803.669-8.912-3.23-9.175-5.098-.254-1.87 3.43-3.929 8.234-4.599 4.805-.669 8.912.306 9.172 2.172z" fill="#fff" fill-rule="nonzero" stroke-width="1.91"/><path d="m339.293 131.57c.792 14.667-3.159 24.657-3.657 40.271-.737 22.694 10.82 48.671-6.594 74.679" fill="none" stroke-linecap="round" stroke-linejoin="round" stroke-width="11.43"/></g></svg>