<svg clip-rule="evenodd" fill-rule="evenodd" stroke-linejoin="round" stroke-miterlimit="1.41421" viewBox="0 0 400 400" xmlns="http://www.w3.org/2000/svg"><g fill="#61dafb"><path d="m388.61 200.038c0-24.989-31.294-48.671-79.273-63.356 11.072-48.902 6.151-87.808-15.532-100.264-4.998-2.922-10.841-4.306-17.223-4.306v17.146c3.537 0 6.382.692 8.765 1.999 10.457 5.998 14.994 28.834 11.457 58.206-.846 7.227-2.23 14.839-3.922 22.605-15.07-3.69-31.524-6.535-48.824-8.381-10.38-14.224-21.145-27.142-31.986-38.444 25.066-23.298 48.594-36.062 64.587-36.062v-17.146c-21.145 0-48.825 15.07-76.813 41.213-27.988-25.989-55.668-40.905-76.812-40.905v17.146c15.916 0 39.521 12.687 64.587 35.83-10.765 11.303-21.529 24.144-31.756 38.368-17.377 1.846-33.831 4.691-48.901 8.458-1.769-7.689-3.076-15.147-3.998-22.298-3.614-29.372.845-52.208 11.225-58.282 2.307-1.384 5.306-1.999 8.843-1.999v-17.146c-6.459 0-12.303 1.384-17.377 4.305-21.606 12.456-26.45 51.286-15.301 100.033-47.826 14.763-78.966 38.368-78.966 63.28 0 24.99 31.294 48.671 79.273 63.357-11.072 48.902-6.151 87.808 15.532 100.264 4.998 2.922 10.841 4.306 17.3 4.306 21.145 0 48.825-15.07 76.813-41.213 27.987 25.989 55.667 40.905 76.812 40.905 6.459 0 12.302-1.384 17.377-4.305 21.606-12.457 26.45-51.286 15.301-100.034 47.672-14.685 78.812-38.367 78.812-63.28zm-100.11-51.285c-2.845 9.919-6.382 20.145-10.38 30.372-3.153-6.152-6.459-12.303-10.073-18.454-3.537-6.151-7.304-12.148-11.072-17.992 10.918 1.615 21.452 3.614 31.525 6.074zm-35.216 81.887c-5.997 10.38-12.148 20.222-18.53 29.372-11.457 1-23.067 1.538-34.754 1.538-11.61 0-23.221-.538-34.6-1.461-6.382-9.15-12.61-18.915-18.607-29.218-5.844-10.072-11.149-20.299-15.993-30.602 4.767-10.303 10.149-20.606 15.916-30.679 5.997-10.38 12.148-20.222 18.53-29.372 11.457-.999 23.067-1.537 34.754-1.537 11.61 0 23.221.538 34.6 1.461 6.382 9.149 12.61 18.914 18.607 29.218 5.844 10.072 11.149 20.298 15.993 30.602-4.844 10.303-10.149 20.606-15.916 30.678zm24.836-9.995c4.152 10.303 7.689 20.606 10.61 30.602-10.072 2.46-20.683 4.536-31.678 6.151 3.768-5.921 7.535-11.995 11.072-18.223 3.537-6.151 6.843-12.379 9.996-18.53zm-77.966 82.041c-7.151-7.382-14.302-15.609-21.375-24.605 6.92.308 13.993.538 21.144.538 7.228 0 14.378-.153 21.375-.538-6.92 8.996-14.07 17.223-21.144 24.605zm-57.206-45.288c-10.918-1.615-21.452-3.614-31.525-6.074 2.845-9.919 6.382-20.145 10.38-30.372 3.153 6.152 6.459 12.303 10.073 18.454s7.304 12.148 11.072 17.992zm56.821-160.007c7.151 7.381 14.302 15.609 21.376 24.605-6.92-.308-13.994-.539-21.145-.539-7.228 0-14.378.154-21.375.539 6.92-8.996 14.071-17.224 21.144-24.605zm-56.898 45.288c-3.767 5.92-7.535 11.995-11.072 18.223-3.537 6.151-6.843 12.302-9.996 18.453-4.152-10.303-7.688-20.606-10.61-30.602 10.072-2.383 20.683-4.459 31.678-6.074zm-69.585 96.265c-27.219-11.61-44.826-26.834-44.826-38.906 0-12.071 17.607-27.372 44.826-38.906 6.613-2.845 13.84-5.382 21.299-7.765 4.382 15.07 10.149 30.755 17.3 46.825-7.074 15.993-12.764 31.602-17.07 46.595-7.612-2.383-14.839-4.998-21.529-7.843zm41.367 109.875c-10.457-5.997-14.994-28.833-11.457-58.205.846-7.227 2.23-14.839 3.922-22.605 15.07 3.69 31.524 6.535 48.824 8.381 10.38 14.224 21.145 27.142 31.986 38.444-25.066 23.298-48.594 36.061-64.587 36.061-3.46-.076-6.382-.768-8.688-2.076zm182.381-58.589c3.614 29.371-.845 52.208-11.225 58.282-2.307 1.384-5.306 1.999-8.843 1.999-15.916 0-39.521-12.687-64.587-35.83 10.765-11.303 21.529-24.144 31.756-38.368 17.377-1.846 33.831-4.691 48.901-8.458 1.769 7.766 3.153 15.224 3.998 22.375zm29.603-51.286c-6.613 2.845-13.84 5.383-21.299 7.766-4.382-15.07-10.149-30.755-17.3-46.825 7.074-15.993 12.764-31.602 17.07-46.595 7.612 2.383 14.839 4.997 21.606 7.842 27.219 11.611 44.826 26.835 44.826 38.906-.077 12.072-17.684 27.373-44.903 38.906z" fill-rule="nonzero"/><circle cx="199.923" cy="200.038" r="35.138"/></g></svg>