<?xml version="1.0" encoding="UTF-8" standalone="no"?>
<!DOCTYPE svg PUBLIC "-//W3C//DTD SVG 1.1//EN" "http://www.w3.org/Graphics/SVG/1.1/DTD/svg11.dtd">
<svg width="100%" height="100%" viewBox="0 0 4255 1897" version="1.1" xmlns="http://www.w3.org/2000/svg" xmlns:xlink="http://www.w3.org/1999/xlink" xml:space="preserve" xmlns:serif="http://www.serif.com/" style="fill-rule:evenodd;clip-rule:evenodd;">
    <g id="Artboard1" transform="matrix(0.83098,0,0,0.592634,0,0)">
        <rect x="0" y="0" width="5120" height="3200" style="fill:none;"/>
        <g transform="matrix(3.50367,0,0,4.91278,618.251,632.987)">
            <g transform="matrix(1,0,0,1,-127.25,-112.5)">
                <g>
                    <path d="M40.2,101.1C39.8,101.1 39.7,100.9 39.9,100.6L42,97.9C42.2,97.6 42.7,97.4 43.1,97.4L78.8,97.4C79.2,97.4 79.3,97.7 79.1,98L77.4,100.6C77.2,100.9 76.7,101.2 76.4,101.2L40.2,101.1Z" style="fill:rgb(50,115,220);fill-rule:nonzero;"/>
                    <path d="M25.1,110.3C24.7,110.3 24.6,110.1 24.8,109.8L26.9,107.1C27.1,106.8 27.6,106.6 28,106.6L73.6,106.6C74,106.6 74.2,106.9 74.1,107.2L73.3,109.6C73.2,110 72.8,110.2 72.4,110.2L25.1,110.3Z" style="fill:rgb(50,115,220);fill-rule:nonzero;"/>
                    <path d="M49.3,119.5C48.9,119.5 48.8,119.2 49,118.9L50.4,116.4C50.6,116.1 51,115.8 51.4,115.8L71.4,115.8C71.8,115.8 72,116.1 72,116.5L71.8,118.9C71.8,119.3 71.4,119.6 71.1,119.6L49.3,119.5Z" style="fill:rgb(50,115,220);fill-rule:nonzero;"/>
                    <g id="CXHf1q_3_">
                        <path d="M153.1,99.3C146.8,100.9 142.5,102.1 136.3,103.7C134.8,104.1 134.7,104.2 133.4,102.7C131.9,101 130.8,99.9 128.7,98.9C122.4,95.8 116.3,96.7 110.6,100.4C103.8,104.8 100.3,111.3 100.4,119.4C100.5,127.4 106,134 113.9,135.1C120.7,136 126.4,133.6 130.9,128.5C131.8,127.4 132.6,126.2 133.6,124.8L114.3,124.8C112.2,124.8 111.7,123.5 112.4,121.8C113.7,118.7 116.1,113.5 117.5,110.9C117.8,110.3 118.5,109.3 120,109.3L156.4,109.3C156.2,112 156.2,114.7 155.8,117.4C154.7,124.6 152,131.2 147.6,137C140.4,146.5 131,152.4 119.1,154C109.3,155.3 100.2,153.4 92.2,147.4C84.8,141.8 80.6,134.4 79.5,125.2C78.2,114.3 81.4,104.5 88,95.9C95.1,86.6 104.5,80.7 116,78.6C125.4,76.9 134.4,78 142.5,83.5C147.8,87 151.6,91.8 154.1,97.6C154.7,98.5 154.3,99 153.1,99.3Z" style="fill:rgb(50,115,220);fill-rule:nonzero;"/>
                        <path d="M186.2,154.6C177.1,154.4 168.8,151.8 161.8,145.8C155.9,140.7 152.2,134.2 151,126.5C149.2,115.2 152.3,105.2 159.1,96.3C166.4,86.7 175.2,81.7 187.1,79.6C197.3,77.8 206.9,78.8 215.6,84.7C223.5,90.1 228.4,97.4 229.7,107C231.4,120.5 227.5,131.5 218.2,140.9C211.6,147.6 203.5,151.8 194.2,153.7C191.5,154.2 188.8,154.3 186.2,154.6ZM210,114.2C209.9,112.9 209.9,111.9 209.7,110.9C207.9,101 198.8,95.4 189.3,97.6C180,99.7 174,105.6 171.8,115C170,122.8 173.8,130.7 181,133.9C186.5,136.3 192,136 197.3,133.3C205.2,129.2 209.5,122.8 210,114.2Z" style="fill:rgb(50,115,220);fill-rule:nonzero;"/>
                    </g>
                </g>
            </g>
        </g>
        <g transform="matrix(1.34368,0,0,1.88408,998.734,1597.91)">
            <g transform="matrix(1,0,0,1,-200,-200)">
                <g>
                    <g transform="matrix(-0.866,-0.5,0.5,-0.866,163.32,363.314)">
                        <rect x="122" y="-0.4" width="16.6" height="320.3" style="fill:rgb(50,115,220);fill-rule:nonzero;"/>
                    </g>
                    <rect x="39.8" y="272.2" width="320.3" height="16.6" style="fill:rgb(50,115,220);fill-rule:nonzero;"/>
                    <g transform="matrix(-0.866,-0.5,0.5,-0.866,83.0693,663.341)">
                        <rect x="37.9" y="312.2" width="185" height="16.6" style="fill:rgb(50,115,220);fill-rule:nonzero;"/>
                    </g>
                    <g transform="matrix(-0.866,-0.5,0.5,-0.866,463.341,283.069)">
                        <rect x="177.1" y="71.1" width="185" height="16.6" style="fill:rgb(50,115,220);fill-rule:nonzero;"/>
                    </g>
                    <g transform="matrix(-0.5,-0.866,0.866,-0.5,126.79,232.122)">
                        <rect x="122.1" y="-13" width="16.6" height="185" style="fill:rgb(50,115,220);fill-rule:nonzero;"/>
                    </g>
                    <g transform="matrix(-0.5,-0.866,0.866,-0.5,266.083,473.377)">
                        <rect x="109.6" y="151.6" width="320.3" height="16.6" style="fill:rgb(50,115,220);fill-rule:nonzero;"/>
                    </g>
                    <rect x="52.5" y="107.5" width="16.6" height="185" style="fill:rgb(50,115,220);fill-rule:nonzero;"/>
                    <rect x="330.9" y="107.5" width="16.6" height="185" style="fill:rgb(50,115,220);fill-rule:nonzero;"/>
                    <g transform="matrix(-0.5,-0.866,0.866,-0.5,126.795,714.288)">
                        <rect x="262.4" y="240.1" width="14.5" height="160.9" style="fill:rgb(50,115,220);fill-rule:nonzero;"/>
                    </g>
                    <path d="M369.5,297.9C359.9,314.6 338.5,320.3 321.8,310.7C305.1,301.1 299.4,279.7 309,263C318.6,246.3 340,240.6 356.7,250.2C373.5,259.9 379.2,281.2 369.5,297.9" style="fill:rgb(50,115,220);fill-rule:nonzero;"/>
                    <path d="M90.9,137C81.3,153.7 59.9,159.4 43.2,149.8C26.5,140.2 20.8,118.8 30.4,102.1C40,85.4 61.4,79.7 78.1,89.3C94.8,99 100.5,120.3 90.9,137" style="fill:rgb(50,115,220);fill-rule:nonzero;"/>
                    <path d="M30.5,297.9C20.9,281.2 26.6,259.9 43.3,250.2C60,240.6 81.3,246.3 91,263C100.6,279.7 94.9,301 78.2,310.7C61.4,320.3 40.1,314.6 30.5,297.9" style="fill:rgb(50,115,220);fill-rule:nonzero;"/>
                    <path d="M309.1,137C299.5,120.3 305.2,99 321.9,89.3C338.6,79.7 359.9,85.4 369.6,102.1C379.2,118.8 373.5,140.1 356.8,149.8C340.1,159.4 318.7,153.7 309.1,137" style="fill:rgb(50,115,220);fill-rule:nonzero;"/>
                    <path d="M200,395.8C180.7,395.8 165.1,380.2 165.1,360.9C165.1,341.6 180.7,326 200,326C219.3,326 234.9,341.6 234.9,360.9C234.9,380.1 219.3,395.8 200,395.8" style="fill:rgb(50,115,220);fill-rule:nonzero;"/>
                    <path d="M200,74C180.7,74 165.1,58.4 165.1,39.1C165.1,19.8 180.7,4.2 200,4.2C219.3,4.2 234.9,19.8 234.9,39.1C234.9,58.4 219.3,74 200,74" style="fill:rgb(50,115,220);fill-rule:nonzero;"/>
                </g>
            </g>
        </g>
        <g transform="matrix(1.46557,0,0,2.05499,1835.24,647.108)">
            <g transform="matrix(1,0,0,1,-200,-200)">
                <g transform="matrix(6.53789,0,0,6.53789,27.3996,2.88249)">
                    <path d="M18.2,10.72L34.6,20.2L34.6,39.13L18.2,29.66L18.2,10.72Z" style="fill:rgb(50,115,220);"/>
                    <path d="M36.4,20.2L36.4,39.13L52.8,29.67L52.8,10.72L36.4,20.2Z" style="fill:rgb(50,115,220);"/>
                    <g>
                        <path d="M0,0.15L0,19.09L16.4,28.56L16.4,9.62L0,0.15Z" style="fill:rgb(50,115,220);"/>
                        <path d="M18.2,50.68L34.6,60.15L34.6,41.34L34.6,41.21L18.2,31.74L18.2,50.68Z" style="fill:rgb(50,115,220);"/>
                    </g>
                </g>
            </g>
        </g>
        <g transform="matrix(1.39771,0,0,1.95984,3668.78,658.243)">
            <g transform="matrix(1,0,0,1,-200,-200)">
                <path d="M275.801,220.568C260.934,220.568 247.606,227.155 238.478,237.525L215.09,220.968C217.573,214.132 218.998,206.792 218.998,199.11C218.998,191.561 217.622,184.344 215.221,177.609L238.557,161.227C247.684,171.545 260.977,178.096 275.801,178.096C303.242,178.096 325.571,155.771 325.571,128.327C325.571,100.882 303.242,78.557 275.801,78.557C248.361,78.557 226.032,100.882 226.032,128.327C226.032,133.239 226.775,137.976 228.106,142.462L204.755,158.852C195,146.75 180.955,138.301 164.953,135.722L164.953,107.578C187.497,102.843 204.483,82.813 204.483,58.879C204.483,31.434 182.155,9.11 154.714,9.11C127.273,9.11 104.945,31.434 104.945,58.879C104.945,82.492 121.491,102.276 143.584,107.349L143.584,135.858C113.433,141.15 90.429,167.464 90.429,199.11C90.429,230.91 113.661,257.32 144.03,262.433L144.03,292.537C121.711,297.442 104.945,317.347 104.945,341.121C104.945,368.566 127.273,390.89 154.714,390.89C182.155,390.89 204.483,368.566 204.483,341.121C204.483,317.347 187.717,297.442 165.398,292.537L165.398,262.432C181.086,259.79 194.873,251.508 204.527,239.675L228.071,256.339C226.764,260.785 226.032,265.475 226.032,270.338C226.032,297.782 248.361,320.107 275.801,320.107C303.242,320.107 325.571,297.782 325.571,270.338C325.571,242.893 303.242,220.568 275.801,220.568ZM275.801,104.196C289.108,104.196 299.931,115.024 299.931,128.327C299.931,141.63 289.108,152.456 275.801,152.456C262.495,152.456 251.672,141.63 251.672,128.327C251.672,115.024 262.495,104.196 275.801,104.196ZM130.583,58.879C130.583,45.576 141.407,34.749 154.714,34.749C168.021,34.749 178.843,45.576 178.843,58.879C178.843,72.182 168.021,83.009 154.714,83.009C141.407,83.009 130.583,72.182 130.583,58.879ZM178.843,341.121C178.843,354.424 168.021,365.251 154.714,365.251C141.407,365.251 130.583,354.424 130.583,341.121C130.583,327.818 141.407,316.991 154.714,316.991C168.021,316.991 178.843,327.818 178.843,341.121ZM154.712,232.763C136.153,232.763 121.056,217.668 121.056,199.11C121.056,180.551 136.153,165.453 154.712,165.453C173.27,165.453 188.368,180.551 188.368,199.11C188.368,217.668 173.27,232.763 154.712,232.763ZM275.801,294.468C262.495,294.468 251.672,283.641 251.672,270.338C251.672,257.035 262.495,246.208 275.801,246.208C289.108,246.208 299.931,257.035 299.931,270.338C299.931,283.641 289.108,294.468 275.801,294.468Z" style="fill:rgb(50,115,220);fill-rule:nonzero;"/>
            </g>
        </g>
        <g transform="matrix(2.76733,0,0,3.88029,533.48,2559.38)">
            <g transform="matrix(1,0,0,1,-100,-100)">
                <g>
                    <path d="M109.379,171.315C109.202,171.435 104.245,150.458 104.023,139.919C101.2,174.669 93.9,171.48 93.9,171.48C101.18,182.077 97.724,200 97.724,200L104.554,200C104.554,200 103.314,185.139 104.814,178.341C105.27,176.279 108.138,172.83 109.379,171.315" style="fill:rgb(50,115,220);"/>
                    <path d="M101.434,177.597C101.434,177.597 52.588,145.167 55.094,92.724C57.591,40.275 98.347,4.08 98.653,0C101.369,5.835 116.771,86.998 117.064,96.497C118.174,133.51 101.433,177.597 101.433,177.597" style="fill:rgb(50,115,220);"/>
                    <path d="M142.9,78.384C132.346,32.285 98.788,0 98.788,0L98.788,0.07C111.632,54.053 101.388,176.782 101.388,176.782C101.388,176.782 153.878,141.832 142.9,78.384" style="fill:rgb(50,115,220);"/>
                </g>
            </g>
        </g>
        <g transform="matrix(2.4068,0,0,3.37477,4087.79,1544.06)">
            <g transform="matrix(1,0,0,1,-100,-100)">
                <clipPath id="_clip1">
                    <rect x="0" y="0" width="200" height="200"/>
                </clipPath>
                <g clip-path="url(#_clip1)">
                    <path d="M99.66,200C96.98,200 94.32,199.299 91.977,197.943L67.504,183.463C63.852,181.419 65.634,180.696 66.837,180.275C71.717,178.583 72.702,178.193 77.905,175.243C78.447,174.939 79.165,175.053 79.725,175.382L98.52,186.543C99.206,186.92 100.165,186.92 100.795,186.543L174.081,144.242C174.767,143.852 175.203,143.066 175.203,142.258L175.203,57.678C175.203,56.85 174.767,56.076 174.069,55.657L100.807,13.39C100.105,12.996 99.247,12.996 98.545,13.39L25.302,55.67C24.591,56.089 24.15,56.852 24.143,57.677L24.143,142.257C24.143,143.067 24.592,143.833 25.296,144.217L45.375,155.817C56.268,161.263 62.943,154.848 62.943,148.405L62.943,64.895C62.943,63.715 63.89,62.782 65.068,62.782L74.366,62.782C75.525,62.782 76.484,63.715 76.484,64.895L76.484,148.405C76.484,162.942 68.57,171.28 54.785,171.28C50.547,171.28 47.213,171.28 37.903,166.691L18.683,155.627C13.935,152.884 11,147.752 11,142.257L11,57.677C11,52.181 13.935,47.052 18.684,44.318L91.977,1.968C96.613,-0.656 102.777,-0.656 107.376,1.968L180.662,44.318C185.417,47.081 188.354,52.179 188.359,57.678L188.359,142.258C188.35,147.759 185.414,152.858 180.662,155.628L107.376,197.943C105.03,199.296 102.368,200.006 99.66,200ZM122.301,141.727C90.226,141.727 83.508,127.007 83.508,114.657C83.508,113.484 84.455,112.547 85.626,112.547L95.106,112.547C96.165,112.547 97.043,113.307 97.212,114.341C98.639,123.989 102.907,128.857 122.301,128.857C137.737,128.857 144.311,125.364 144.311,117.172C144.311,112.45 142.449,108.944 118.456,106.595C98.402,104.611 86,100.181 86,84.138C86,69.35 98.464,60.531 119.36,60.531C142.841,60.531 154.457,68.681 155.928,86.164C155.978,86.761 155.777,87.353 155.373,87.795C154.968,88.215 154.407,88.472 153.822,88.472L144.306,88.472C143.321,88.47 142.462,87.778 142.249,86.816C139.969,76.666 134.416,73.42 119.359,73.42C102.502,73.42 100.546,79.294 100.546,83.693C100.546,89.024 102.858,90.577 125.616,93.588C148.138,96.566 158.838,100.782 158.838,116.613C158.838,132.582 145.521,141.727 122.301,141.727Z" style="fill:rgb(50,115,220);"/>
                </g>
            </g>
        </g>
        <g transform="matrix(1.49354,0,0,2.09421,2198.81,1618.24)">
            <g transform="matrix(1,0,0,1,-200,-200)">
                <g>
                    <path d="M388.61,200.038C388.61,175.049 357.316,151.367 309.337,136.682C320.409,87.78 315.488,48.874 293.805,36.418C288.807,33.496 282.964,32.112 276.582,32.112L276.582,49.258C280.119,49.258 282.964,49.95 285.347,51.257C295.804,57.255 300.341,80.091 296.804,109.463C295.958,116.69 294.574,124.302 292.882,132.068C277.812,128.378 261.358,125.533 244.058,123.687C233.678,109.463 222.913,96.545 212.072,85.243C237.138,61.945 260.666,49.181 276.659,49.181L276.659,32.035C255.514,32.035 227.834,47.105 199.846,73.248C171.858,47.259 144.178,32.343 123.034,32.343L123.034,49.489C138.95,49.489 162.555,62.176 187.621,85.319C176.856,96.622 166.092,109.463 155.865,123.687C138.488,125.533 122.034,128.378 106.964,132.145C105.195,124.456 103.888,116.998 102.966,109.847C99.352,80.475 103.811,57.639 114.191,51.565C116.498,50.181 119.497,49.566 123.034,49.566L123.034,32.42C116.575,32.42 110.731,33.804 105.657,36.725C84.051,49.181 79.207,88.011 90.356,136.758C42.53,151.521 11.39,175.126 11.39,200.038C11.39,225.028 42.684,248.709 90.663,263.395C79.591,312.297 84.512,351.203 106.195,363.659C111.193,366.581 117.036,367.965 123.495,367.965C144.64,367.965 172.32,352.895 200.308,326.752C228.295,352.741 255.975,367.657 277.12,367.657C283.579,367.657 289.422,366.273 294.497,363.352C316.103,350.895 320.947,312.066 309.798,263.318C357.47,248.633 388.61,224.951 388.61,200.038ZM288.5,148.753C285.655,158.672 282.118,168.898 278.12,179.125C274.967,172.973 271.661,166.822 268.047,160.671C264.51,154.52 260.743,148.523 256.975,142.679C267.893,144.294 278.427,146.293 288.5,148.753ZM253.284,230.64C247.287,241.02 241.136,250.862 234.754,260.012C223.297,261.012 211.687,261.55 200,261.55C188.39,261.55 176.779,261.012 165.4,260.089C159.018,250.939 152.79,241.174 146.793,230.871C140.949,220.799 135.644,210.572 130.8,200.269C135.567,189.966 140.949,179.663 146.716,169.59C152.713,159.21 158.864,149.368 165.246,140.218C176.703,139.219 188.313,138.681 200,138.681C211.61,138.681 223.221,139.219 234.6,140.142C240.982,149.291 247.21,159.056 253.207,169.36C259.051,179.432 264.356,189.658 269.2,199.962C264.356,210.265 259.051,220.568 253.284,230.64ZM278.12,220.645C282.272,230.948 285.809,241.251 288.73,251.247C278.658,253.707 268.047,255.783 257.052,257.398C260.82,251.477 264.587,245.403 268.124,239.175C271.661,233.024 274.967,226.796 278.12,220.645ZM200.154,302.686C193.003,295.304 185.852,287.077 178.779,278.081C185.699,278.389 192.772,278.619 199.923,278.619C207.151,278.619 214.301,278.466 221.298,278.081C214.378,287.077 207.228,295.304 200.154,302.686ZM142.948,257.398C132.03,255.783 121.496,253.784 111.423,251.324C114.268,241.405 117.805,231.179 121.803,220.952C124.956,227.104 128.262,233.255 131.876,239.406C135.49,245.557 139.18,251.554 142.948,257.398ZM199.769,97.391C206.92,104.772 214.071,113 221.145,121.996C214.225,121.688 207.151,121.457 200,121.457C192.772,121.457 185.622,121.611 178.625,121.996C185.545,113 192.696,104.772 199.769,97.391ZM142.871,142.679C139.104,148.599 135.336,154.674 131.799,160.902C128.262,167.053 124.956,173.204 121.803,179.355C117.651,169.052 114.115,158.749 111.193,148.753C121.265,146.37 131.876,144.294 142.871,142.679ZM73.286,238.944C46.067,227.334 28.46,212.11 28.46,200.038C28.46,187.967 46.067,172.666 73.286,161.132C79.899,158.287 87.126,155.75 94.585,153.367C98.967,168.437 104.734,184.122 111.885,200.192C104.811,216.185 99.121,231.794 94.815,246.787C87.203,244.404 79.976,241.789 73.286,238.944ZM114.653,348.819C104.196,342.822 99.659,319.986 103.196,290.614C104.042,283.387 105.426,275.775 107.118,268.009C122.188,271.699 138.642,274.544 155.942,276.39C166.322,290.614 177.087,303.532 187.928,314.834C162.862,338.132 139.334,350.895 123.341,350.895C119.881,350.819 116.959,350.127 114.653,348.819ZM297.034,290.23C300.648,319.601 296.189,342.438 285.809,348.512C283.502,349.896 280.503,350.511 276.966,350.511C261.05,350.511 237.445,337.824 212.379,314.681C223.144,303.378 233.908,290.537 244.135,276.313C261.512,274.467 277.966,271.622 293.036,267.855C294.805,275.621 296.189,283.079 297.034,290.23ZM326.637,238.944C320.024,241.789 312.797,244.327 305.338,246.71C300.956,231.64 295.189,215.955 288.038,199.885C295.112,183.892 300.802,168.283 305.108,153.29C312.72,155.673 319.947,158.287 326.714,161.132C353.933,172.743 371.54,187.967 371.54,200.038C371.463,212.11 353.856,227.411 326.637,238.944Z" style="fill:rgb(50,115,220);fill-rule:nonzero;"/>
                    <circle cx="199.923" cy="200.038" r="35.138" style="fill:rgb(50,115,220);"/>
                </g>
            </g>
        </g>
        <g transform="matrix(2.4068,0,0,3.37477,3008.28,1699.09)">
            <g transform="matrix(1,0,0,1,-80,-120)">
                <g>
                    <path d="M0,210L160,210L60,240L0,210Z" style="fill:rgb(50,115,220);fill-rule:nonzero;"/>
                    <path d="M0,200L60,190L60,80L0,200Z" style="fill:rgb(50,115,220);fill-rule:nonzero;"/>
                    <path d="M70,190L160,200L70,0L70,190Z" style="fill:rgb(50,115,220);fill-rule:nonzero;"/>
                </g>
            </g>
        </g>
        <g transform="matrix(11.9445,0,0,16.7483,4575.71,749.656)">
            <g transform="matrix(1,0,0,1,-60.5,-25)">
                <g>
                    <path d="M70.309,37.359C71.112,36.796 72.947,38.031 74.408,40.116C75.868,42.202 76.4,44.348 75.597,44.911C74.793,45.474 72.958,44.239 71.498,42.153C70.038,40.068 69.505,37.921 70.309,37.359ZM51.088,37.359C50.285,36.796 48.45,38.031 46.989,40.116C45.529,42.202 44.996,44.348 45.8,44.911C46.603,45.474 48.438,44.239 49.899,42.153C51.359,40.068 51.892,37.921 51.088,37.359ZM60.689,40.624C59.708,40.624 58.913,42.688 58.913,45.234C58.913,47.78 59.708,49.844 60.689,49.844C61.67,49.844 62.465,47.78 62.465,45.234C62.465,42.688 61.67,40.624 60.689,40.624Z" style="fill:rgb(50,115,220);"/>
                    <path d="M70.309,12.641C71.112,13.204 72.947,11.969 74.408,9.884C75.868,7.798 76.4,5.652 75.597,5.089C74.793,4.526 72.958,5.761 71.498,7.847C70.038,9.932 69.505,12.079 70.309,12.641ZM51.088,12.641C50.285,13.204 48.45,11.969 46.989,9.884C45.529,7.798 44.996,5.652 45.8,5.089C46.603,4.526 48.438,5.761 49.899,7.847C51.359,9.932 51.892,12.079 51.088,12.641ZM60.689,9.376C59.708,9.376 58.913,7.312 58.913,4.766C58.913,2.22 59.708,0.156 60.689,0.156C61.67,0.156 62.465,2.22 62.465,4.766C62.465,7.312 61.67,9.376 60.689,9.376Z" style="fill:rgb(50,115,220);"/>
                    <path d="M74.391,16.732C71.527,12.016 66.336,8.865 60.409,8.865C54.644,8.865 49.576,11.846 46.668,16.348M46.979,34.471C49.93,38.712 54.845,41.489 60.409,41.489C65.984,41.489 70.907,38.702 73.855,34.448" style="fill:none;stroke:rgb(50,115,220);stroke-width:2.84px;"/>
                    <path d="M36.734,18.927L40.155,18.927L40.155,23.74L44.014,23.74L44.014,18.927L47.435,18.927L47.435,31.856L44.014,31.856L44.014,26.724L40.155,26.724L40.155,31.856L36.734,31.856L36.734,18.927ZM50.3,18.927L58.654,18.927L58.654,21.791L53.721,21.791L53.721,23.82L57.938,23.82L57.938,26.684L53.721,26.684L53.721,28.991L58.853,28.991L58.853,31.856L50.3,31.856L50.3,18.927L50.3,18.927ZM61.359,18.927L64.78,18.927L64.78,28.991L69.674,28.991L69.674,31.856L61.359,31.856L61.359,18.927L61.359,18.927ZM71.901,18.927L75.442,18.927L77.471,24.297L78.187,26.406L78.267,26.406L78.983,24.297L80.932,18.927L84.473,18.927L84.473,31.856L81.29,31.856L81.29,28.037C81.29,27.705 81.307,27.341 81.34,26.943C81.373,26.545 81.409,26.137 81.449,25.719C81.489,25.302 81.535,24.894 81.588,24.496C81.641,24.098 81.688,23.74 81.728,23.422L81.648,23.422L80.574,26.445L78.784,30.802L77.511,30.802L75.721,26.445L74.686,23.422L74.607,23.422C74.646,23.74 74.693,24.098 74.746,24.496C74.799,24.894 74.845,25.302 74.885,25.719C74.925,26.137 74.961,26.545 74.994,26.943C75.028,27.34 75.044,27.705 75.044,28.037L75.044,31.856L71.901,31.856L71.901,18.927L71.901,18.927Z" style="fill:rgb(50,115,220);"/>
                </g>
            </g>
        </g>
        <g transform="matrix(3.87731,0,0,5.43669,2805.79,741.466)">
            <g transform="matrix(1,0,0,1,-57.6665,-57)">
                <path d="M56.667,0.667C25.372,0.667 0,26.036 0,57.332C0,88.627 25.372,113.998 56.667,113.998C87.962,113.998 113.333,88.627 113.333,57.332C113.333,26.036 87.961,0.667 56.667,0.667ZM56.667,106.722C47.763,106.722 40.544,100.774 40.544,93.439L72.79,93.439C72.79,100.773 65.571,106.722 56.667,106.722ZM83.297,89.04L30.034,89.04L30.034,79.382L83.298,79.382L83.298,89.04L83.297,89.04ZM83.106,74.411L30.186,74.411C30.01,74.208 29.83,74.008 29.66,73.802C24.208,67.182 22.924,63.726 21.677,60.204C21.656,60.088 28.288,61.559 32.991,62.617C32.991,62.617 35.411,63.177 38.949,63.822C35.552,59.84 33.535,54.778 33.535,49.604C33.535,38.245 42.247,28.319 39.104,20.296C42.163,20.545 45.435,26.752 45.656,36.457C48.908,31.963 50.269,23.756 50.269,18.724C50.269,13.514 53.702,7.462 57.136,7.255C54.075,12.3 57.929,16.625 61.355,27.354C62.64,31.384 62.476,38.166 63.468,42.467C63.797,33.534 65.333,20.5 71,16C68.5,21.667 71.37,28.758 73.333,32.167C76.5,37.667 78.42,41.834 78.42,49.715C78.42,54.999 76.469,59.974 73.178,63.863C76.92,63.161 79.504,62.528 79.504,62.528L91.656,60.157C91.657,60.156 89.891,67.418 83.106,74.411Z" style="fill:rgb(50,115,220);fill-rule:nonzero;"/>
            </g>
        </g>
        <g transform="matrix(1.78104,0,0,2.49735,4670.26,2476.67)">
            <g transform="matrix(1,0,0,1,-128,-139.5)">
                <clipPath id="_clip2">
                    <rect x="0" y="0" width="256" height="279"/>
                </clipPath>
                <g clip-path="url(#_clip2)">
                    <path d="M255.59,122.775C255.13,118.1 254.364,112.736 252.831,106.758C251.298,100.857 248.999,94.342 245.627,87.598C242.255,80.854 237.887,73.88 232.215,67.059C229.993,64.377 227.54,61.771 224.935,59.242C228.843,43.684 220.183,30.196 220.183,30.196C205.238,29.276 195.735,34.871 192.21,37.4C191.597,37.17 191.06,36.863 190.447,36.633C187.918,35.637 185.312,34.641 182.553,33.798C179.871,32.955 177.112,32.188 174.276,31.499C171.441,30.809 168.605,30.272 165.693,29.812C165.156,29.736 164.697,29.659 164.16,29.583C157.646,8.737 138.946,0 138.946,0C118.024,13.258 114.115,31.805 114.115,31.805C114.115,31.805 114.038,32.188 113.885,32.878C112.736,33.185 111.586,33.568 110.436,33.874C108.827,34.334 107.218,34.947 105.685,35.56C104.075,36.173 102.543,36.787 100.933,37.476C97.791,38.856 94.649,40.389 91.583,42.075C88.594,43.761 85.682,45.6 82.846,47.516C82.463,47.363 82.08,47.209 82.08,47.209C53.111,36.173 27.437,49.432 27.437,49.432C25.061,80.241 39.009,99.63 41.768,103.156C41.078,105.072 40.465,106.988 39.852,108.904C37.706,115.878 36.097,123.005 35.101,130.439C34.947,131.512 34.794,132.585 34.717,133.658C7.894,146.916 0,173.97 0,173.97C22.302,199.644 48.359,201.253 48.359,201.253L48.436,201.177C51.731,207.078 55.563,212.672 59.855,217.96C61.694,220.183 63.533,222.252 65.526,224.322C57.402,247.62 66.676,266.933 66.676,266.933C91.507,267.852 107.831,256.05 111.279,253.368C113.732,254.211 116.261,254.977 118.79,255.59C126.454,257.583 134.271,258.732 142.088,259.039C144.004,259.115 145.997,259.192 147.913,259.115L150.672,259.115L151.898,259.039L151.898,259.115C163.624,275.823 184.163,278.199 184.163,278.199C198.801,262.794 199.644,247.466 199.644,244.171L199.644,243.941L199.644,243.481L199.644,242.791C202.709,240.646 205.622,238.346 208.381,235.817C214.205,230.529 219.34,224.475 223.632,217.96C224.015,217.347 224.398,216.734 224.781,216.121C241.335,217.041 253.061,205.852 253.061,205.852C250.302,188.608 240.492,180.178 238.423,178.568C238.423,178.568 238.346,178.492 238.193,178.415C238.04,178.338 238.04,178.262 238.04,178.262C237.963,178.185 237.81,178.108 237.657,178.032C237.733,176.959 237.81,175.962 237.887,174.89C238.04,173.05 238.04,171.134 238.04,169.295L238.04,167.915L238.04,167.226L238.04,166.842L238.04,166.383L237.963,165.233L237.887,163.7C237.887,163.164 237.81,162.704 237.733,162.244C237.657,161.784 237.657,161.248 237.58,160.788L237.427,159.332L237.197,157.876C236.89,155.96 236.584,154.12 236.124,152.204C234.361,144.771 231.449,137.72 227.694,131.359C223.862,124.998 219.11,119.403 213.669,114.652C208.304,109.9 202.25,106.068 195.965,103.232C189.604,100.397 183.013,98.557 176.422,97.714C173.127,97.255 169.831,97.101 166.536,97.178L165.31,97.178L165.003,97.178C164.927,97.178 164.543,97.178 164.62,97.178L164.083,97.178L162.857,97.255C162.397,97.255 161.938,97.331 161.554,97.331C159.868,97.484 158.182,97.714 156.573,98.021C149.982,99.247 143.774,101.623 138.333,104.918C132.892,108.214 128.14,112.276 124.308,116.874C120.476,121.472 117.487,126.607 115.418,131.895C113.349,137.183 112.199,142.701 111.893,147.989C111.816,149.292 111.816,150.672 111.816,151.975L111.816,152.971L111.893,154.044C111.969,154.657 111.969,155.347 112.046,155.96C112.276,158.642 112.812,161.248 113.502,163.7C114.958,168.682 117.257,173.203 120.093,177.035C122.928,180.867 126.377,184.01 129.979,186.539C133.581,188.991 137.49,190.754 141.322,191.903C145.154,193.053 148.986,193.513 152.588,193.513L154.58,193.513C154.81,193.513 155.04,193.513 155.27,193.436C155.653,193.436 156.036,193.359 156.42,193.359C156.496,193.359 156.65,193.359 156.726,193.283L157.109,193.206C157.339,193.206 157.569,193.13 157.799,193.13C158.259,193.053 158.642,192.976 159.102,192.9C159.562,192.823 159.945,192.746 160.328,192.593C161.171,192.44 161.938,192.133 162.704,191.903C164.237,191.367 165.77,190.754 167.072,190.064C168.452,189.374 169.678,188.531 170.904,187.765C171.211,187.535 171.594,187.305 171.901,186.998C173.127,186.002 173.357,184.163 172.36,182.937C171.517,181.864 169.985,181.557 168.758,182.247C168.452,182.4 168.145,182.553 167.839,182.707C166.766,183.243 165.693,183.703 164.543,184.086C163.394,184.469 162.168,184.776 160.941,185.006C160.328,185.082 159.715,185.159 159.025,185.236C158.719,185.236 158.412,185.312 158.029,185.312L156.19,185.312C155.806,185.312 155.423,185.312 155.04,185.236L154.963,185.236L154.81,185.236L154.58,185.236C154.427,185.236 154.197,185.236 154.044,185.159C153.661,185.082 153.354,185.082 152.971,185.006C150.135,184.623 147.3,183.78 144.617,182.553C141.858,181.327 139.253,179.641 136.877,177.495C134.501,175.349 132.432,172.82 130.822,169.908C129.213,166.996 128.063,163.777 127.527,160.405C127.297,158.719 127.144,156.956 127.22,155.27C127.22,154.81 127.297,154.35 127.297,153.891L127.297,153.814L127.297,153.661L127.297,153.277C127.297,153.048 127.374,152.818 127.374,152.588C127.45,151.668 127.603,150.748 127.757,149.829C129.06,142.471 132.738,135.267 138.41,129.826C139.866,128.446 141.398,127.22 143.008,126.071C144.617,124.921 146.38,123.925 148.219,123.082C150.059,122.239 151.898,121.549 153.891,121.013C155.806,120.476 157.799,120.169 159.868,119.94C160.865,119.863 161.861,119.786 162.934,119.786L165.31,119.786L166.153,119.863C168.375,120.016 170.521,120.323 172.667,120.859C176.959,121.779 181.174,123.388 185.082,125.534C192.9,129.903 199.567,136.647 203.629,144.771C205.698,148.832 207.154,153.201 207.844,157.722C207.997,158.872 208.151,160.022 208.227,161.171L208.381,162.857L208.381,166.153C208.381,166.689 208.304,167.609 208.304,168.145C208.227,169.372 208.074,170.674 207.921,171.901C207.768,173.127 207.538,174.353 207.308,175.579C207.078,176.806 206.771,178.032 206.465,179.181C205.852,181.557 205.085,183.933 204.166,186.309C202.326,190.907 199.874,195.352 196.961,199.414C191.06,207.538 183.013,214.129 173.817,218.344C169.218,220.413 164.39,221.946 159.409,222.712C156.956,223.172 154.427,223.402 151.898,223.478L151.438,223.478L151.055,223.478L150.212,223.478L148.986,223.478L148.373,223.478L148.296,223.478L148.066,223.478C146.686,223.478 145.384,223.402 144.004,223.249C138.639,222.865 133.351,221.869 128.14,220.413C123.005,218.957 118.024,216.888 113.272,214.435C103.845,209.377 95.339,202.479 88.748,194.126C85.452,189.987 82.54,185.466 80.164,180.791C77.788,176.116 75.872,171.134 74.493,166.153C73.113,161.095 72.27,155.96 71.887,150.748L71.81,149.752L71.81,149.522L71.81,149.292L71.81,148.832L71.81,147.989L71.81,147.759L71.81,147.453L71.81,146.84L71.81,145.614L71.81,145.384C71.81,145.384 71.81,145.46 71.81,145.307L71.81,144.847L71.81,142.931C71.887,140.402 72.117,137.72 72.424,135.114C72.73,132.508 73.19,129.826 73.726,127.22C74.263,124.615 74.876,122.009 75.642,119.403C77.099,114.268 78.938,109.287 81.084,104.612C85.452,95.262 91.123,86.908 97.944,80.241C99.63,78.555 101.393,77.022 103.232,75.489C105.072,74.033 106.988,72.653 108.98,71.351C110.896,70.048 112.965,68.898 115.035,67.825C116.031,67.289 117.104,66.752 118.177,66.292L121.396,64.913C123.542,63.993 125.764,63.227 128.063,62.537C128.6,62.384 129.213,62.231 129.749,62.001C130.286,61.847 130.899,61.694 131.435,61.541C132.585,61.234 133.735,60.928 134.884,60.698C135.421,60.545 136.034,60.468 136.647,60.315C137.26,60.161 137.796,60.085 138.41,59.931C139.023,59.855 139.559,59.702 140.172,59.625L141.015,59.472L141.935,59.318C142.548,59.242 143.084,59.165 143.698,59.088C144.387,59.012 145,58.935 145.69,58.859C146.227,58.782 147.146,58.705 147.683,58.629C148.066,58.552 148.526,58.552 148.909,58.475L149.752,58.399L150.135,58.322L150.595,58.322C151.285,58.245 151.898,58.245 152.588,58.169L153.584,58.092C153.584,58.092 153.967,58.092 153.661,58.092L154.35,58.092C154.887,58.092 155.5,58.016 156.036,58.016C158.259,57.939 160.558,57.939 162.781,58.016C167.226,58.169 171.594,58.705 175.809,59.472C184.316,61.081 192.287,63.763 199.567,67.365C206.848,70.891 213.286,75.259 218.957,80.011C219.34,80.317 219.647,80.624 220.03,80.93C220.336,81.237 220.719,81.544 221.026,81.85C221.716,82.463 222.329,83.076 223.019,83.689C223.708,84.303 224.322,84.916 224.935,85.529C225.548,86.142 226.161,86.755 226.774,87.445C229.15,89.974 231.372,92.503 233.365,95.109C237.35,100.243 240.569,105.455 243.098,110.36L244.018,112.199C244.324,112.812 244.631,113.425 244.861,114.038C245.167,114.652 245.397,115.188 245.704,115.801C245.934,116.414 246.24,116.951 246.47,117.564C247.39,119.863 248.309,122.085 248.999,124.155C250.149,127.527 250.992,130.516 251.682,133.121C251.911,134.194 252.908,134.884 253.981,134.731C255.13,134.654 255.973,133.735 255.973,132.585C256.05,129.826 255.973,126.531 255.59,122.775Z" style="fill:rgb(50,115,220);fill-rule:nonzero;"/>
                </g>
            </g>
        </g>
        <g transform="matrix(0.929308,0,0,1.30306,1468.26,2409.62)">
            <g transform="matrix(1,0,0,1,-256,-256)">
                <clipPath id="_clip3">
                    <rect x="0" y="0" width="512" height="512"/>
                </clipPath>
                <g clip-path="url(#_clip3)">
                    <path d="M502.341,278.804L278.798,502.342C265.93,515.219 245.05,515.219 232.165,502.342L185.75,455.918L244.63,397.034C258.317,401.655 274.01,398.554 284.914,387.647C295.884,376.672 298.957,360.844 294.219,347.11L350.973,290.361C364.706,295.095 380.541,292.035 391.511,281.05C406.834,265.731 406.834,240.898 391.511,225.566C376.177,210.234 351.349,210.234 336.008,225.566C324.484,237.102 321.633,254.038 327.477,268.238L274.543,321.169L274.543,181.884C278.275,180.034 281.801,177.57 284.914,174.466C300.237,159.145 300.237,134.314 284.914,118.969C269.591,103.653 244.745,103.653 229.434,118.969C214.111,134.314 214.111,159.145 229.434,174.466C233.221,178.249 237.607,181.111 242.286,183.027L242.286,323.6C237.607,325.516 233.232,328.353 229.434,332.163C217.828,343.764 215.036,360.8 220.989,375.055L162.94,433.113L9.656,279.839C-3.219,266.952 -3.219,246.071 9.656,233.195L233.21,9.656C246.08,-3.219 266.953,-3.219 279.843,9.656L502.341,232.159C515.22,245.038 515.22,265.929 502.341,278.804" style="fill:rgb(50,115,220);fill-rule:nonzero;"/>
                </g>
            </g>
        </g>
        <g transform="matrix(1.3313,0,0,1.86672,3706.47,2502.32)">
            <g transform="matrix(1,0,0,1,-200,-200)">
                <g transform="matrix(1.98904,0,0,1.98904,2.44591,1.09632)">
                    <path d="M134.791,76.094L26.408,76.094C24.141,83.86 22.993,91.91 23,100C23,108.3 24.19,116.323 26.408,123.906L134.791,123.906C147.803,123.906 158.69,113.281 158.69,100C158.69,86.719 148.068,76.094 134.791,76.094" style="fill:rgb(50,115,220);"/>
                    <path d="M97.554,76.094L26.408,76.094C24.141,83.86 22.993,91.91 23,100C23,108.3 24.19,116.323 26.408,123.906L97.76,123.906C99.676,116.219 100.641,108.326 100.634,100.404C100.642,92.203 99.608,84.034 97.555,76.094" style="fill:rgb(50,115,220);"/>
                    <g transform="matrix(1,0,0,1,31.497,15)">
                        <path d="M143.853,33.205C128.318,13.012 103.916,0 76.475,0C42.878,0 13.837,19.505 0.047,47.812L112.853,47.812C125.29,47.812 136.405,42.114 143.853,33.205" style="fill:rgb(50,115,220);"/>
                    </g>
                    <path d="M175.643,151.412C168.242,142.707 157.211,137.187 144.882,137.187L31.544,137.187C45.334,165.495 74.375,185 107.972,185C135.586,185 160.122,171.823 175.643,151.412" style="fill:rgb(50,115,220);"/>
                    <path d="M65.149,26.57C50.62,35.072 38.926,47.684 31.544,62.813L94.794,62.813C88.164,47.933 77.85,35.38 65.148,26.569" style="fill:rgb(50,115,220);"/>
                    <path d="M96.211,137.188L31.544,137.188C39.373,153.235 52.043,166.427 67.761,174.898C80.186,165.528 90.109,152.478 96.211,137.188" style="fill:rgb(50,115,220);"/>
                </g>
            </g>
        </g>
        <g transform="matrix(1.19865,0,0,1.19865,-597.64,-513.177)">
            <g transform="matrix(1.2034,0,0,1.77177,-0.705211,-125.862)">
                <path d="M2213.27,1437.91L2111.27,1437.91L2111.27,1512.5L2165.14,1512.5L2282.83,1744.72L2365.9,1744.83L2365.83,1670.72L2331.27,1670.34L2213.27,1437.91Z" style="fill:rgb(50,115,220);"/>
            </g>
            <g transform="matrix(1.2034,0,0,1.68738,0.306463,2.26325)">
                <path d="M2197.84,1644.14L2154.54,1555.05L2058.24,1757.07L2144.9,1757.07L2197.84,1644.14Z" style="fill:rgb(50,115,220);"/>
            </g>
        </g>
    </g>
</svg>
