<svg clip-rule="evenodd" fill-rule="evenodd" stroke-linejoin="round" stroke-miterlimit="1.414" viewBox="0 0 400 400" xmlns="http://www.w3.org/2000/svg"><g fill-rule="nonzero"><path d="M247.66 384.528h4.489l73.248-36.63 1.22-1.722V53.803l-1.22-1.732-73.248-36.599h-4.543z" fill="#5294cf"/><path d="M152.337 384.528h-4.55L74.6 347.898l-1.485-2.553-.753-290.053L74.6 52.07l73.187-36.599h4.606z" fill="#1f5b98"/><path d="M147.916 15.472h104.162v369.056H147.916z" fill="#2d72b8"/><path d="m363.74 191.709-2.475-.549-35.343-3.295-.525.26-73.313-2.93H147.916l-73.316 2.93V132.22l-.077.04.077-.163 73.316-16.988h104.168l73.313 16.988 26.952 14.326v-9.21l11.391-1.246-1.18-2.3-36.064-25.788-1.099.357-73.313-22.718H147.916L74.6 108.235V52.07L36.26 96.988v39.229l.296-.215 11.093 1.21v9.4l-11.39 6.095v39.033l.297-.031 11.093.164v16.383l-9.57.144-1.82-.175v39.049l11.39 6.125v9.508l-10.913 1.204-.477-.358v39.224L74.6 347.899V291.74l73.316 22.717h104.168l73.53-22.784.978.429 35.588-25.408 1.56-2.532-11.39-1.256v-9.317l-1.493-.598-24.361 13.132-.881 1.842-73.531 16.89v.02H147.916v-.02L74.6 267.894v-56.11l73.316 2.921v.071h104.168l73.313-2.993 1.67.768 34.257-2.95 2.416-1.18-11.39-.165v-16.383z" fill="#1a476f"/><path d="M325.397 291.74v56.16l38.343-44.922V264.01l-38.121 27.665zm0-23.723.222-.05 38.121-20.504v-39.207l-38.343 3.527zm.222-135.87-.222-.05v56.029l38.343 3.583V152.52zm0-23.692 38.121 27.51V96.999l-38.343-44.927v56.164l.222.077z" fill="#2d72b8"/></g></svg>