<svg clip-rule="evenodd" fill-rule="evenodd" stroke-linejoin="round" stroke-miterlimit="1.414" viewBox="0 0 400 400" xmlns="http://www.w3.org/2000/svg"><g fill="#f90" fill-rule="nonzero"><path d="m113.06 350.007-47.514-17.047v-69.64l47.512 16.19zm8.714 0 47.512-17.047v-69.64l-47.512 16.19zm-51.344-91.895 48.086-13.535 44.587 14.376-44.587 15.137zm-13.936-5.394-47.512-17.045v-69.643l47.512 16.189zm8.714 0 47.514-17.045v-69.643l-47.514 16.19zm-51.344-91.898 48.086-13.535 44.59 14.377-44.59 15.139z"/><path d="m167.36 252.718-47.514-17.045v-69.643l47.513 16.189zm8.714 0 47.513-17.045v-69.643l-47.513 16.189zm-51.344-91.898 48.086-13.535 44.587 14.377-44.587 15.139z"/><path d="m223.925 155.425-47.514-17.04v-69.644l47.514 16.185zm8.715 0 47.513-17.04v-69.644l-47.514 16.185zm-51.345-91.893 48.086-13.537 44.589 14.375-44.59 15.139z"/><path d="m334.79 155.425-47.513-17.04v-69.644l47.513 16.185zm8.715 0 47.513-17.04v-69.644l-47.513 16.185zm-51.345-91.893 48.087-13.537 44.586 14.376-44.586 15.138z"/></g></svg>