<svg clip-rule="evenodd" fill-rule="evenodd" stroke-linejoin="round" stroke-miterlimit="1.41421" viewBox="0 0 400 400" xmlns="http://www.w3.org/2000/svg"><g fill="#f90" fill-rule="nonzero"><g transform="matrix(1.49296 0 0 1.49296 64.583029 244.436491)"><path d="m32.47 70.712-31.824-11.418v-46.646l31.824 10.844z"/><path d="m38.307 70.712 31.824-11.418v-46.646l-31.824 10.844z"/><path d="m3.916 9.16 32.209-9.066 29.865 9.629-29.865 10.139z"/></g><g transform="matrix(1.49296 0 0 1.49296 8.90861 146.629397)"><path d="m31.873 71.059-31.824-11.417v-46.647l31.824 10.843z"/><path d="m37.71 71.059 31.825-11.417v-46.647l-31.825 10.843z"/><path d="m3.319 9.505 32.209-9.066 29.867 9.63-29.867 10.14z"/></g><g transform="matrix(1.49296 0 0 1.49296 118.752843 146.629397)"><path d="m32.557 71.059-31.825-11.417v-46.647l31.825 10.843z"/><path d="m38.394 71.059 31.825-11.417v-46.647l-31.825 10.843z"/><path d="m4.003 9.505 32.209-9.066 29.865 9.63-29.865 10.14z"/></g><g transform="matrix(1.49296 0 0 1.49296 175.932017 48.8229)"><path d="m32.146 71.403-31.825-11.414v-46.647l31.825 10.841z"/><path d="m37.983 71.403 31.825-11.414v-46.647l-31.825 10.841z"/><path d="m3.592 9.852 32.209-9.067 29.865 9.629-29.865 10.14z"/></g><g transform="matrix(1.49296 0 0 1.49296 285.776549 48.8229)"><path d="m32.83 71.403-31.825-11.414v-46.647l31.825 10.841z"/><path d="m38.667 71.403 31.825-11.414v-46.647l-31.825 10.841z"/><path d="m4.276 9.852 32.209-9.067 29.864 9.629-29.864 10.14z"/></g></g></svg>