<svg xmlns="http://www.w3.org/2000/svg" width="1054.264" height="338.504" fill-rule="evenodd" stroke-linejoin="round" stroke-miterlimit="1.414" clip-rule="evenodd"><defs><path id="a" d="M278.047 227.267h240.017v165.097H278.047Z"/></defs><path fill="#fff" d="M323.716 18.265h-16.84C274.392-6.53 106.326-5.64 76.616 18.257H59.471l-33.52 16.892 331.83-.051zm40.313 24.485-345.269.062L0 68.032l.212 9.51 149.213 25.552-.075 8.772c7.746 11.673 18.203 18.115 31.107 19.833l-.18 7.897 6.168-.077 2.248 165.503-8.293 10.99-.01 15.322 9.791 7.162 3.147.008 9.352-7.328.04-15.204-8.157-11.04 1.334-165.53 6.96-.087-.163-7.822c21.061-4.576 22.978-10.405 31.203-19.705l-.25-8.765 149.232-26.726v-7.986z" style="fill:#fff;fill-opacity:1"/><text xml:space="preserve" style="font-size:151.181px;line-height:1.25;font-family:sans-serif;letter-spacing:0;white-space:pre;shape-inside:url(#a);display:inline" transform="translate(636.126 -35.02)"><tspan x="278.047" y="532.962"><tspan dx="0 84.661278 79.823555 65.461456 84.736816 36.283417 84.35907 36.283417 75.136902" style="font-family:Lato;-inkscape-font-specification:Lato">bespinian</tspan></tspan></text><g style="font-size:170.079px;line-height:1.25;letter-spacing:0;fill:#fff;fill-opacity:1"><path d="M44.037 182.852v125.263h9.78q3.231 0 3.912-3.232l.765-7.824q4.336 5.867 10.12 9.1 5.867 3.146 14.37 3.146 8.589 0 15.477-3.317a33.6 33.6 0 0 0 11.65-9.44q4.848-6.121 7.399-14.71t2.552-19.049q0-9.78-2.296-17.603-2.212-7.825-6.463-13.268-4.252-5.527-10.375-8.418-6.037-2.891-13.606-2.89-8.93-.001-15.818 3.74-6.804 3.742-12.246 10.035v-51.533zm362.268 1.189q-2.212 0-4.168.852a10.5 10.5 0 0 0-3.317 2.38q-1.445 1.446-2.295 3.487a10.3 10.3 0 0 0-.851 4.166q0 2.212.851 4.168a12.4 12.4 0 0 0 2.295 3.402 11.2 11.2 0 0 0 3.317 2.295q1.957.851 4.168.852 2.21 0 4.166-.852 2.04-.85 3.486-2.295a11.6 11.6 0 0 0 2.383-3.402 9.5 9.5 0 0 0 .933-4.168 9.5 9.5 0 0 0-.933-4.166 10 10 0 0 0-2.383-3.487q-1.446-1.53-3.486-2.38a10.3 10.3 0 0 0-4.166-.852m135.722 0q-2.212 0-4.168.852a10.5 10.5 0 0 0-3.316 2.38q-1.445 1.446-2.295 3.487a10.3 10.3 0 0 0-.852 4.166q0 2.212.852 4.168a12.4 12.4 0 0 0 2.295 3.402 11.2 11.2 0 0 0 3.316 2.295q1.956.851 4.168.852 2.21 0 4.166-.852 2.041-.85 3.487-2.295a11.6 11.6 0 0 0 2.382-3.402 9.54 9.54 0 0 0 .936-4.168 9.5 9.5 0 0 0-.936-4.166 10 10 0 0 0-2.382-3.487q-1.446-1.53-3.487-2.38a10.3 10.3 0 0 0-4.166-.852m-195.931 36.398q-9.184 0-16.326 4.08-7.144 4.084-12.586 10.801l-1.362-10.205q-.764-3.146-3.996-3.146h-9.1v115.314h15.223v-38.097q4.337 4.761 9.95 7.482 5.696 2.636 13.605 2.637 8.674 0 15.562-3.403 6.975-3.486 11.737-9.437 4.846-6.038 7.398-14.203 2.551-8.25 2.551-17.774 0-10.714-2.297-18.963-2.295-8.249-6.547-13.777-4.252-5.612-10.29-8.418-6.039-2.89-13.522-2.89zm259.966 0q-10.035 0-18.285 3.4-8.248 3.404-15.39 10.292l2.72 4.846a8 8 0 0 0 1.872 2.04q1.106.765 2.636.766 1.955 0 3.91-1.361 2.042-1.444 4.764-3.145 2.805-1.786 6.547-3.146 3.827-1.446 9.44-1.447 8.333 0 12.671 5.187 4.337 5.102 4.336 15.137v6.719q-14.71.34-24.83 2.72-10.12 2.297-16.414 5.953-6.292 3.658-9.098 8.42-2.805 4.677-2.806 9.78 0 5.867 1.87 10.205 1.957 4.251 5.188 7.058 3.316 2.806 7.739 4.252 4.421 1.36 9.44 1.36 4.93 0 8.927-.936 4.082-.85 7.654-2.465a41.6 41.6 0 0 0 6.803-4.082q3.231-2.466 6.633-5.613l1.7 8.164q.681 2.125 1.872 2.89 1.191.682 3.402.682h6.717v-55.107q0-7.228-1.955-13.266-1.956-6.037-5.783-10.289t-9.44-6.633q-5.61-2.38-12.84-2.38zm-431.49.17q-9.354 0-16.838 3.317-7.484 3.23-12.672 9.013-5.186 5.698-7.992 13.522-2.721 7.823-2.722 16.838 0 11.14 3.062 19.728 3.062 8.59 8.504 14.457 5.526 5.783 13.01 8.844 7.569 2.976 16.498 2.977a53.6 53.6 0 0 0 9.44-.85 49.7 49.7 0 0 0 9.185-2.38 42.8 42.8 0 0 0 8.418-4.083q3.912-2.55 6.719-5.953l-4.252-5.527q-1.021-1.446-2.893-1.446-1.446 0-3.486 1.36-1.956 1.275-4.932 2.806-2.976 1.53-7.142 2.891-4.083 1.275-9.782 1.275-6.123.001-11.054-1.955a23.1 23.1 0 0 1-8.504-6.037q-3.572-4.083-5.614-10.12-1.956-6.039-2.21-14.202h57.572q2.126 0 2.892-1.19.764-1.19.764-4.763 0-9.184-2.72-16.326-2.722-7.23-7.57-12.076-4.761-4.933-11.394-7.485-6.548-2.635-14.287-2.635m81.127 0q-7.312 0-13.01 2.041t-9.609 5.528q-3.912 3.4-5.953 7.992a22.6 22.6 0 0 0-2.041 9.44q0 5.526 1.871 9.439 1.956 3.826 5.102 6.463t7.142 4.424a111 111 0 0 0 8.25 3.06l8.248 2.637q4.082 1.19 7.229 2.89 3.146 1.617 5.017 3.998 1.955 2.296 1.955 5.868 0 2.89-1.105 5.441-1.02 2.551-3.23 4.508-2.212 1.956-5.528 3.146-3.315 1.106-7.738 1.106-5.187 0-8.674-1.192-3.487-1.189-5.953-2.634a76 76 0 0 1-4.082-2.637q-1.701-1.191-3.233-1.191-1.445 0-2.38.595t-1.616 1.701l-3.572 5.784q5.102 4.592 12.416 7.568 7.314 2.891 16.328 2.89 7.908 0 13.946-2.124 6.038-2.127 10.205-5.784 4.167-3.741 6.293-8.76 2.126-5.101 2.127-11.054-.001-5.187-1.958-8.844-1.871-3.741-5.017-6.293-3.146-2.55-7.143-4.252a95 95 0 0 0-8.248-3.062q-4.168-1.445-8.164-2.635-3.997-1.276-7.144-2.893-3.147-1.615-5.102-3.826-1.87-2.21-1.871-5.527 0-2.637 1.105-4.848 1.191-2.295 3.317-3.996 2.211-1.701 5.273-2.637 3.061-1.02 6.887-1.021 4.423 0 7.654 1.021 3.232.936 5.528 2.125 2.38 1.106 3.998 2.041 1.615.936 2.89.936 2.127 0 3.147-1.871l3.4-5.527q-4.932-4.677-11.734-7.313-6.718-2.72-15.223-2.72zm226.12 0q-4.592 0-8.589 1.02a32.2 32.2 0 0 0-7.484 2.807 38 38 0 0 0-6.633 4.335 51 51 0 0 0-5.953 5.7l-1.19-9.356q-.766-3.146-3.997-3.146h-9.098v86.146h15.22v-63.44q4.933-5.527 10.716-8.759 5.867-3.231 12.585-3.232 9.1 0 13.522 5.443 4.508 5.357 4.508 15.137v54.851h15.222v-54.851q0-7.314-1.87-13.352-1.871-6.037-5.528-10.289-3.572-4.336-9.016-6.633-5.357-2.38-12.416-2.38zm220.251 0q-4.591 0-8.588 1.02a32.2 32.2 0 0 0-7.484 2.807 38 38 0 0 0-6.633 4.335 51 51 0 0 0-5.953 5.7l-1.19-9.356q-.765-3.146-3.997-3.146h-9.098v86.146h15.22v-63.44q4.933-5.527 10.715-8.759 5.868-3.231 12.586-3.232 9.1 0 13.522 5.443 4.508 5.357 4.508 15.137v54.851H730.9v-54.851q0-7.314-1.87-13.352-1.872-6.037-5.528-10.289-3.572-4.336-9.016-6.633-5.357-2.38-12.416-2.38zm-303.164 1.36v86.146h15.137V221.97Zm135.723 0v86.146h15.137V221.97Zm-359.717 9.78q5.187 0 9.27 1.786 4.08 1.7 6.888 4.932 2.891 3.146 4.336 7.568 1.53 4.338 1.531 9.61h-47.11q1.53-11.226 7.821-17.518 6.378-6.379 17.264-6.379zm-92.607.935q10.63 0 16.328 7.484 5.782 7.398 5.781 23.215 0 17.007-6.463 25.597-6.462 8.59-18.623 8.59-5.953 0-10.97-2.297-4.933-2.295-9.1-7.908v-41.67q4.678-6.207 10.12-9.61 5.528-3.4 12.927-3.401m258.86 0q5.186 0 9.269 1.787 4.08 1.786 6.888 5.697 2.806 3.827 4.252 9.865 1.53 6.037 1.53 14.455 0 15.903-6.463 24.492t-18.537 8.59q-6.124 0-11.057-2.297-4.931-2.295-9.098-7.908v-41.67q4.676-6.207 10.203-9.61 5.613-3.4 13.012-3.401zm280.118 36.652v17.86a46.4 46.4 0 0 1-5.271 4.845 33 33 0 0 1-5.614 3.658 28.2 28.2 0 0 1-6.207 2.381q-3.317.766-7.314.766-2.976 0-5.611-.682-2.552-.764-4.508-2.295-1.871-1.616-2.977-4.082t-1.105-5.867q0-3.572 2.04-6.465 2.127-2.89 6.72-5.016 4.677-2.125 11.99-3.402 7.398-1.36 17.857-1.701" aria-label="bespinian" style="font-family:Lato;-inkscape-font-specification:Lato;fill:#fff;fill-opacity:1" transform="translate(323.364 -32.415)"/></g></svg>