<svg xmlns="http://www.w3.org/2000/svg" width="917.636" height="242.207" viewBox="0 0 917.636 242.207"><defs><clipPath id="a" clipPathUnits="userSpaceOnUse"><path d="M-2136.08 818.28H131.635V-898.01H-2136.08Z"/></clipPath><clipPath id="b" clipPathUnits="userSpaceOnUse"><path d="M-1768.636 846.28H499.08V-870.01h-2267.717Z"/></clipPath><clipPath id="c" clipPathUnits="userSpaceOnUse"><path d="M-1543.192 850.945H724.525V-865.344h-2267.717Z"/></clipPath><clipPath id="d" clipPathUnits="userSpaceOnUse"><path d="M-1809.192 806.8H458.525V-909.489h-2267.717Z"/></clipPath><clipPath id="e" clipPathUnits="userSpaceOnUse"><path d="M-1801.258 793.613H466.46V-922.676h-2267.717Z"/></clipPath><clipPath id="f" clipPathUnits="userSpaceOnUse"><path d="M-1622.661 811.118H645.056v-1716.29h-2267.717Z"/></clipPath><clipPath id="g" clipPathUnits="userSpaceOnUse"><path d="M-1786.636 764.28H481.08V-952.01h-2267.717Z"/></clipPath><clipPath id="h" clipPathUnits="userSpaceOnUse"><path d="M-1737.192 773.28H530.525V-943.01h-2267.717Z"/></clipPath><clipPath id="i" clipPathUnits="userSpaceOnUse"><path d="M-1841.858 749.28H425.859V-967.01h-2267.717Z"/></clipPath><clipPath id="j" clipPathUnits="userSpaceOnUse"><path d="M-1811.358 835.041H456.359V-881.248h-2267.717Z"/></clipPath><clipPath id="k" clipPathUnits="userSpaceOnUse"><path d="M-1958.324 817.87H309.393V-898.42h-2267.717Z"/></clipPath></defs><path d="M0 0h2267.717v1714.468H0Z" style="fill:#275fbd;fill-opacity:1;fill-rule:nonzero;stroke:none" transform="matrix(1.33333 0 0 -1.33333 -1942.915 1391.558)"/><path d="M0 0c-14.237 6.348-16.842 17.684-26.667 20.889-14.326 4.673-26.487 1.349-30.666 0-.037 6.631-4.208 12.298-9.778 13.862-6.985 1.961-15.302-2.773-17.334-11.195C-86.054 43.037-98.812 59.187-116 64c-18.927 5.299-34.683-5.54-36.889-7.111-2.79 7.118-9.589 10.788-15.111 9.333-4.962-1.307-7.21-6.31-7.556-7.111-5.208 16.952-19.777 29.213-36.888 31.111-23.847 2.645-38.823-16.368-39.556-17.333-.262 6.954-2.054 32.702-22.222 52.444-25.576 25.037-60.331 20.47-70.667 19.111-32.627-4.287-62.222-18.888-69.111-52.222-2.488-12.039 4.724-33.704 5.111-34.222-.894.336-9.683 3.459-18-2-8.372-5.496-8.958-14.892-9-15.827-15.435 25.715-46.666 33.863-68 21.827-15.911-8.977-25.037-28.459-23-49-8.604 12.389-23.168 13.575-29 8-4.575-4.373-5.001-14.076 0-22.746-2.314 2.193-16.617 15.305-38 13.746-17.99-1.312-29.218-12.15-32-15-4.402-3.498-10.73-7.587-19-10-18.415-5.373-33.672 1.297-34 0-.358-1.414 17.413-10.774 39.167-8.833 8.218.733 14.931 2.894 19.666 4.833.183-.31.384-.606.576-.908 3.856 4.223 8.168 6.103 9.813 6.797 11.174 4.716 19.511-.651 44.788-2.421.36.826.695 1.668.99 2.532a30 30 0 0 1 2.849-2.757c10.852-.51 14.439.596 17.373 2.646 5.594 3.908 5.981 9.179 11.778 12.222 5.721 3.003 12.371 1.56 16.889 0 .893 6.903 3.813 10.032 5.333 11.333 8.628 7.385 24.658-14.079 40-9.111 9.771 3.164 12.72 14.164 18.445 12.722 3.737-.942 5.635-6.423 6.666-11.166a9.55 9.55 0 0 0 4.223 1.333c2.74.192 4.782-.875 5.555-1.333-.559 2.698-1.86 10.769 2.445 19.111 6.895 13.363 21.957 15.374 23.333 15.535-1.932-2.167-8.783-10.371-9.111-22.868C-418.184 13.899-418.22.139-409-8c14.737-13.008 42.115-1.946 55.573 6.758 33.027-25.431 81.402-39.435 122.316-20.855 19.232 8.734 31.643 22.319 38.667 31.593 2.327-6.679 8.896-10.373 14.666-9.052 4.212.965 7.606 4.512 8.889 9.052 2.36-2.488 26.744-27.36 60.445-21.874 18.593 3.026 30.732 13.782 35.555 18.6 8.246-3.526 18.71-7.1 31.111-9.333 21.026-3.786 38.965-2.157 51.111 0A50.7 50.7 0 0 0 0 0" clip-path="url(#a)" style="display:inline;fill:#fff;fill-opacity:1;fill-rule:nonzero;stroke:none" transform="matrix(1.33333 0 0 -1.33333 905.192 194.212)"/><path d="M0 0c-17.796-5.346-37.912.802-52.196 15.562C-43.344-.671-25.828-9.932-8.444-7.654c23.573 3.09 33.573 25.646 34 26.654C22.56 14.723 14.367 4.316 0 0" clip-path="url(#b)" style="fill:#fff;fill-opacity:1;fill-rule:nonzero;stroke:none" transform="matrix(1.33333 0 0 -1.33333 415.266 231.546)"/><path d="M0 0c12.041.173 23.034 7.73 28.01 19.134-25.278 1.77-33.614 7.136-44.788 2.42-1.645-.694-5.957-2.574-9.813-6.797C-20.727 5.516-10.667-.153 0 0" clip-path="url(#c)" style="fill:#d2def5;fill-opacity:1;fill-rule:nonzero;stroke:none" transform="matrix(1.33333 0 0 -1.33333 114.674 237.766)"/><path d="M0 0c-1.944 2.415-4.635 4.804-7.934 4.965-7.064.343-9.125-11.511-18.399-17.556-13.385-8.724-40.968-19.961-55.778-6.889-9.22 8.139-9.184 21.899-9.111 24.667.328 12.498 7.178 20.701 9.111 22.868-1.377-.16-16.438-2.171-23.333-15.535-4.305-8.342-3.004-16.413-2.445-19.111-.773.458-2.815 1.525-5.555 1.333a9.55 9.55 0 0 1-4.223-1.333c-1.031 4.744-2.929 10.225-6.666 11.166-5.725 1.442-8.674-9.557-18.445-12.721-15.342-4.969-31.373 16.495-40 9.111-1.52-1.302-4.44-4.431-5.333-11.334-4.518 1.56-11.168 3.004-16.889 0-5.797-3.043-6.185-8.314-11.778-12.222-2.934-2.05-6.522-3.156-17.373-2.645 3.938-3.372 11.592-8.415 22.151-8.244 13.153.213 21.409 8.365 23 10 8.426-17.565 26.764-25.606 41-20.665 13.749 4.772 18.461 19.844 19 21.665 4.241-7.14 12.167-11.084 20-10 9.974 1.381 14.595 10.195 15 11 .392-.831.813-1.64 1.249-2.438 14.284-14.76 34.399-20.908 52.195-15.562 14.368 4.316 22.56 14.723 25.556 19l15-6.492z" clip-path="url(#d)" style="fill:#d2def5;fill-opacity:1;fill-rule:nonzero;stroke:none" transform="matrix(1.33333 0 0 -1.33333 469.34 178.906)"/><path d="M0 0c9.627-4.581 21.943-8.998 36.601-11 47.747-6.523 85.221 17.367 97.333 25.868-3.869-8.605-15.421-31.075-40.667-43.201C61.293-43.691 20.452-36.165-10.066-9.167z" clip-path="url(#e)" style="fill:#dee7f6;fill-opacity:1;fill-rule:nonzero;stroke:none" transform="matrix(1.33333 0 0 -1.33333 458.762 161.323)"/><path d="M0 0c4.868 12.689 16.197 22.146 29.53 23.949 14.093 1.906 28.154-5.484 36-17.547-.762-2.001-7.898-18.909-27.333-24.453C21.43-22.833 7.833-14.987 5.53-13.606v11.333C3.678-1.384 1.852-.889 0 0" clip-path="url(#f)" style="fill:#dee7f6;fill-opacity:1;fill-rule:nonzero;stroke:none" transform="matrix(1.33333 0 0 -1.33333 220.633 184.663)"/><path d="M0 0c-1.227-.184-4.771-24.299 9.778-39.333 4.657-4.813 9.773-7.253 12.778-8.445v12a34 34 0 0 0-5 11.889 33.7 33.7 0 0 0-.667 8.556c-2.954.12-7.329.776-10.889 3.777C.532-6.944.67.1 0 0" clip-path="url(#g)" style="fill:#dee7f6;fill-opacity:1;fill-rule:nonzero;stroke:none" transform="matrix(1.33333 0 0 -1.33333 439.266 122.212)"/><path d="M0 0c-1.013 18.097 8.148 35.268 23.667 44.333C38.511 53.004 57 52.99 72 44.333c-4.083-2.802-14.639-10.854-20-25.666C50.478 14.461 47.295 5.474 49.333-6c2.585-14.551 10.877-25.208 14.062-28-4.704-6.588-15.796-19.508-36.228-24.833-8.212-2.14-27.265-7.106-37.834 4.333-6.157 6.664-9.477 18.062-5.166 28.167 3.621 8.489 11.128 12.306 13.5 13.5C18.275-2.46 42.912-19.159 44.833-20.5 44.567-19.043 41.816-5.346 28.5 1.167 14.314 8.105 1.012.595 0 0" clip-path="url(#h)" style="fill:#d2def5;fill-opacity:1;fill-rule:nonzero;stroke:none" transform="matrix(1.33333 0 0 -1.33333 373.34 134.212)"/><path d="M0 0c-2.573.151-19.101 1.128-29.333-9.667-1.115-1.175-2.45-2.051-3.334-3.333a32 32 0 0 1-1.34-1.288c-1.491-1.526-5.682-8.288-6.493-17.545-.962-10.987 5.345-18.953 7.833-21.667 14.063-15.338 39.825-8.733 43.334-7.833 4.705 1.206 27.954 7.166 31 22.445C45.057-21.882 21.831-1.281 0 0" clip-path="url(#i)" style="fill:#d2def5;fill-opacity:1;fill-rule:nonzero;stroke:none" transform="matrix(1.33333 0 0 -1.33333 512.896 102.212)"/><path d="M0 0c23.833-11.046 46.663-11.193 56-10.239 39.915 4.079 67.013 32.994 73 39.667-9.034-7.549-22.759-16.729-41.167-21.667-53.004-14.217-98.156 19.257-105 24.5-4.207-9.903-3.422-14.355-1.5-16.5 2.777-3.098 8.291-1.79 11.5-6.166 1.471-2.006 1.8-4.309 1.834-6C-4.117 2.691-2.44 1.131 0 0" clip-path="url(#j)" style="fill:#d2def5;fill-opacity:1;fill-rule:nonzero;stroke:none" transform="matrix(1.33333 0 0 -1.33333 472.23 216.561)"/><path d="M0 0c4.212.964 7.605 4.511 8.889 9.052 2.36-2.488 26.744-27.36 60.444-21.875C87.927-9.796 100.066.959 104.889 5.778A144 144 0 0 1 136-3.556a144 144 0 0 1 33.995-2.01 200 200 0 0 0-10.063 2.079c-8.896 2.075-15.208 4.134-23.111 6.778a321 321 0 0 0-31.555 12.444c-4.55-3.622-27.093-20.791-58.445-17.111C24.696 1.221 9.967 12.819 4.377 17.735c2.998-6.161.478-13.345-4.889-16C-2.601.702-4.99.428-7.316.849-4.984-.215-2.423-.555 0 0" clip-path="url(#k)" style="fill:#d2def5;fill-opacity:1;fill-rule:nonzero;stroke:none" transform="matrix(1.33333 0 0 -1.33333 668.184 193.666)"/></svg>