<svg xmlns="http://www.w3.org/2000/svg" width="1340.037" height="625.521" viewBox="0 0 1340.037 625.521"><defs><clipPath id="a" clipPathUnits="userSpaceOnUse"><path d="M-1129.786 840.448h2267.717v-1716.29h-2267.717Z"/></clipPath><clipPath id="b" clipPathUnits="userSpaceOnUse"><path d="M-640.62 662.281h2267.718v-1716.289H-640.62Z"/></clipPath><clipPath id="c" clipPathUnits="userSpaceOnUse"><path d="M-692.786 659.448h2267.717v-1716.29H-692.786Z"/></clipPath><clipPath id="d" clipPathUnits="userSpaceOnUse"><path d="M-221.055 793.11h2267.717V-923.18H-221.055Z"/></clipPath><clipPath id="e" clipPathUnits="userSpaceOnUse"><path d="M-1038.058 814.449H1229.66v-1716.29h-2267.717Z"/></clipPath><clipPath id="f" clipPathUnits="userSpaceOnUse"><path d="M-624.786 694.115h2267.717v-1716.29H-624.786Z"/></clipPath><clipPath id="g" clipPathUnits="userSpaceOnUse"><path d="M-802.786 813.781h2267.717V-902.508H-802.786Z"/></clipPath><clipPath id="h" clipPathUnits="userSpaceOnUse"><path d="M-780.12 813.781h2267.718V-902.508H-780.12Z"/></clipPath><clipPath id="i" clipPathUnits="userSpaceOnUse"><path d="M-466.786 673.448h2267.717v-1716.29H-466.786Z"/></clipPath><clipPath id="j" clipPathUnits="userSpaceOnUse"><path d="M-473.825 884.24h2267.717V-832.049H-473.825Z"/></clipPath><clipPath id="k" clipPathUnits="userSpaceOnUse"><path d="M-614.786 905.448h2267.717v-1716.29H-614.786Z"/></clipPath></defs><path d="M0 0c-13.826-.063-23.993-6.505-28.333-9.667 6.23 9.842 6.305 21.677.666 28.667-7.754 9.612-26.902 10.792-39.333-2.667-1.378 5.971-4.214 14.382-10.444 22.667-1.308 1.739-9.467 9.394-20.309 15.789-5.43 3.774-11.922 7.007-19.58 8.878-25.563 6.244-53.644-5.212-70-29-.254 2.358-4.644 37.534-36 53-24.504 12.085-55.076 7.006-76-13 8.841 46.047-8.319 92.648-44 119-43.401 32.051-107.022 28.839-151-10 3.902 7.391 20.759 41.261 9 82.648-7.247 25.506-22.112 42.441-32.265 51.698-17.794 19.383-49.229 23.993-53.735 24.654-43.361 6.354-94.49-17.333-117-62-20.515-40.707-8.313-81.081-5-91-8.062 8.014-31.851 29.488-68 33-40.937 3.976-85.703-14.995-108-54-22.23-38.887-11.436-78.735-9-87-7.474 7.205-18.59 9.184-28 5-9.691-4.309-15.714-14.327-15-25-17.404-2.597-44.159-7.277-44-12 .166-4.934 29.628-7.83 47-9.167 4.393-5.306 15.207-16.819 33-21.833 31.685-8.93 57.828 10.553 61 13-13.68-53.134 3.47-107.715 42-136 51.352-37.7 135.755-25.071 182 39 2.622-9.15 9.8-15.936 18-17 11.172-1.45 23.293 7.845 25 22 12.173-14.124 32.364-32.957 62-44 85.612-31.903 167.016 32.14 173 37 7.484-5.712 23.56-16.235 46-18 44.081-3.469 73.538 29.941 77 34 7.757-5.863 43.169-31.293 93-26 44.789 4.757 72.477 31.283 80 39q64.86 4.77 66 16C40.54-13.719 20.42.093 0 0" clip-path="url(#a)" style="fill:#fff;fill-opacity:1;fill-rule:nonzero;stroke:none" transform="matrix(1.33333 0 0 -1.33333 1287.112 458.248)"/><path d="M0 0s-9.661-9.34-18.638-19.505c-4.544-5.146-9.884-20.508-11.695-23.828 0 4-3.334 17.489-3.334 17.489 0 .001-.267 4.415-2.5 13.344a96.6 96.6 0 0 0 17.5 7.333C-17.207-4.718 0 0 0 0" clip-path="url(#b)" style="fill:#dee7f6;fill-opacity:1;fill-rule:nonzero;stroke:none" transform="matrix(1.33333 0 0 -1.33333 634.89 220.692)"/><path d="M0 0c3.742-.763 19.674-4.448 30.667-19.697C40.076-32.75 40.151-46.345 40-50.667c3.452 1.699 12.977 5.821 25.333 4C78.999-48.68 87.422-56.678 90-59.333 89.149-54.106 84.517-29.119 61.333-12 34.381 7.902 4.21 1.034 0 0" clip-path="url(#c)" style="fill:#dee7f6;fill-opacity:1;fill-rule:nonzero;stroke:none" transform="matrix(1.33333 0 0 -1.33333 704.445 216.915)"/><path d="M0 0c2.403-1.096 12.812-5.518 25.165-1.462C35.738 2.009 41.312 9.582 42.986 12.06c1.239-2.355 4.889-8.535 12.54-12.545 8.461-4.434 16.426-3.388 18.948-2.953-2.602-2.577-15.36-14.666-35.291-14.807C16.013-18.408 1.934-2.291 0 0" clip-path="url(#d)" style="fill:#dee7f6;fill-opacity:1;fill-rule:nonzero;stroke:none" transform="matrix(1.33333 0 0 -1.33333 75.47 395.13)"/><path d="M0 0c-2.403 1.096-12.812 5.518-25.165 1.462C-35.738-2.009-41.312-9.582-42.986-12.06c-1.239 2.355-4.889 8.535-12.54 12.545-8.461 4.434-16.426 3.388-18.948 2.953 2.602 2.577 15.36 14.666 35.291 14.807C-16.013 18.409-1.934 2.291 0 0" clip-path="url(#e)" style="fill:#dee7f6;fill-opacity:1;fill-rule:nonzero;stroke:none" transform="matrix(1.33333 0 0 -1.33333 1164.807 423.583)"/><path d="M0 0c4.858-1.618 24.193-8.681 36-29.333 9.976-17.45 8.689-34.302 8-40l34 34.666C75.253-15.949 62.688-.26 45.333 5.989 22.014 14.385 2.079 1.405 0 0" clip-path="url(#f)" style="fill:#dee7f6;fill-opacity:1;fill-rule:nonzero;stroke:none" transform="matrix(1.33333 0 0 -1.33333 613.778 263.137)"/><path d="M0 0a42.9 42.9 0 0 1 10.667 13 42.8 42.8 0 0 1 4.666 14.667L26.667 9c4.717 3.278 20.538 13.393 42.666 12C94.795 19.397 110.489 3.696 114 0Z" clip-path="url(#g)" style="fill:#dee7f6;fill-opacity:1;fill-rule:nonzero;stroke:none" transform="matrix(1.33333 0 0 -1.33333 851.112 422.692)"/><path d="m0 0-4.667 16.333C-6.199 19.851-20.829 52.018-54 59c-31.614 6.654-66.801-12.363-82-47.333 1.088 6.284 2.867 21.692-4.609 38.666-3.587 8.147-23.425 36.579-39.724 44.667C-224 116.667-256.564 86.809-278 50.333c-.519 1.593-6.158 17.991-22 22.667-14.79 4.366-32.212-3.333-40.667-19.333-3.201 35.1-25.928 64.07-55.333 71.988-38.816 10.454-85.692-16.74-97.333-65.322 6.317-27.925 28.301-49.636 56-55.333 26.226-5.394 53.511 4.404 70.666 25.333 1.456-12.065 6.073-32.151 22-46.666C-317.089-41.466-265.71-40.685-222-9c21.318-44.634 65.296-62.124 93.333-49.333C-105.191-47.624-98.447-18.22-97.333-13c.238-7.629 4.154-14.193 9.5-16 7.474-2.526 18.88 3.864 21.166 16.667 11.72-25.243 37.364-34.115 52.667-26C-1.536-31.724 5.946-12.852 0 0" clip-path="url(#h)" style="fill:#dee7f6;fill-opacity:1;fill-rule:nonzero;stroke:none" transform="matrix(1.33333 0 0 -1.33333 820.89 422.692)"/><path d="M0 0c-5.263 8.495-24.484 41.727-15.333 82 9.42 41.458 47.726 85.187 96 82 47.575-3.141 73.192-49.76 75.083-53.333-7.185 3.617-46.28 22.435-88.045 6C24.841 99.798-3.267 52.71 0 0" clip-path="url(#i)" style="fill:#dee7f6;fill-opacity:1;fill-rule:nonzero;stroke:none" transform="matrix(1.33333 0 0 -1.33333 403.112 235.581)"/><path d="M0 0c-2.879-7.072-14.759-33.895-43.751-46.361-29.845-12.832-74.088-8.844-93.837 22.407-19.464 30.799-2.192 67.595-.836 70.37.998-6.065 6.962-38.679 35.903-57.082C-72.818-29.554-31.087-25.731 0 0" clip-path="url(#j)" style="fill:#dee7f6;fill-opacity:1;fill-rule:nonzero;stroke:none" transform="matrix(1.33333 0 0 -1.33333 412.497 516.638)"/><path d="M0 0c15.041-6.332 49.851-18.566 94-12 53.823 8.005 87.583 38.905 98.667 50 4.989-6.384 19.886-23.643 44.666-28.667 30.349-6.153 63.158 8.551 83.334 37.334 4.925-6.93 22.183-29.374 54-38 41.447-11.238 74.75 9.88 80 13.333 2.411 1.586-19.69-20.568-48-26-45.486-8.727-83.02 20.055-92 27.333C309.331 16.769 291.893-2.959 262-9.333c-42.534-9.07-74.949 16.43-79.333 20-7.568-8.754-32.478-35.296-74-42.667C49.292-42.539 5.68-5.051 0 0" clip-path="url(#k)" style="fill:#dee7f6;fill-opacity:1;fill-rule:nonzero;stroke:none" transform="matrix(1.33333 0 0 -1.33333 600.445 544.915)"/></svg>