<svg xmlns="http://www.w3.org/2000/svg" id="_Слой_1" width="6300.691" height="6250.376" data-name="Слой_1" viewBox="0 0 630.691 625.376"><defs id="defs1"><clipPath id="clipPath2" clipPathUnits="userSpaceOnUse"><path id="rect2" d="M653.356 2.984h640v670h-640z" style="fill:#b4ccf6;stroke-width:2.54988;-inkscape-stroke:none;paint-order:markers stroke fill"/></clipPath><style id="style1">.st0{fill:#12379f}.st5{fill:#2450b5}.st6{fill:#d6ffa1}.st7{fill:#2146ad}.st9{fill:#2e5fc5}.st12{fill:#f1e27f}.st15{fill:#96e0fe}.st16{fill:#dee7f6}.st18{fill:#fff}.st19{fill:#275fb9}.st20{fill:#376ed3}.st24{fill:#4f92e9}.st25{fill:#2958be}.st26{fill:#5da6f5}.st28,.st29,.st30{fill:none}.st31{fill:#477ddd}.st32{fill:#406ede}.st34{fill:#1d3daa}.st35{fill:#3773d1}.st36{fill:#b715ae}.st38{fill:#0a3ca4}.st39{fill:#4177d2}.st40{fill:#2a66c3}.st42{fill:#386fcc}.st46{fill:#3053b9}.st48{fill:#2a53b9}.st50{fill:#2964bc}.st51{fill:#2754bb}.st52{fill:#1234a7}.st56{fill:#1f54b7}.st57{fill:#3f6dd0}.st58{fill:#2c5bbd}.st59{fill:#366dcc}.st60{fill:#2656bd}.st62{fill:#f9fd30}.st28{stroke:#eeff71;stroke-linejoin:round}.st28,.st30{stroke-linecap:round;stroke-width:2px}.st66{fill:#00357d}.st68{fill:#53acf5}.st69{fill:#1d4ab1}.st74{fill:#092d77}.st77{fill:#eeff71}.st78{fill:#336ace}.st80{fill:#0d2489}.st29{stroke:#96e0fe;stroke-width:7px}.st29,.st30{stroke-miterlimit:10}.st81{fill:#1f50c1}.st82{fill:#2d6dc7}.st30{stroke:#00357d}.st84{fill:#abf1ff}.st85{fill:#1642af}.st86{fill:#2049ba}.st87{fill:#3774cf}.st90{fill:#2a53bc}.st91{fill:#57a5ef}.st92{fill:#043993}.st93{fill:#1848ab}.st94{fill:#51abeb}.st96{fill:#1f3aa9}.st97{fill:#97ddf8}</style></defs><g id="g1" clip-path="url(#clipPath2)" transform="translate(-662.665 -47.608)"><path id="path1" d="M1287.07 373.293c-5.891 21.083 1.952 44.37 19.955 58.955-9.084-4.017-13.413-6.681-25.89-8.772.234-.234-6.446-1.857-6.212-2.1-45.576-14.81-93.824-5.058-124.355 25.82-25.75 26.038-30.202 58.304-31.234 69.956-44.31-9.066-86.484 6.69-105.268 38.123-12.407 20.762-11.21 42.696-9.83 53.211-29.828 5.457-50.625 11.158-62.433 17.1-7.488 3.098-13.717 7.81-18.255 15.288-4.338 7.132-5.63 14.316-6.073 19.088-1.302-1.64-10.524-12.945-25.161-13.015-14.186-.069-27.564 10.42-32.102 26.029h460.703v-336.2c-2.828 1.11-26.687 10.931-33.836 36.509z" class="st18" style="stroke-width:.867614"/><path id="path11" d="M964.317 672.985c3.505-3.965 14.724-15.618 33.55-19.374 21.847-4.356 38.705 4.954 42.8 7.374-2.446-16.32 8.807-30.652 22.558-32.249 10.976-1.275 22.445 5.692 27.33 17.352 1.518-2.247 7.696-10.836 19.521-13.881 9.536-2.456 17.379.069 20.242 1.154-8.598-17.075-9.136-36.275 0-47.433 13.205-16.12 48.517-17.734 73.46 8.676 4.217-3.106 11.67-7.73 21.978-9.83 16.467-3.366 29.741 1.813 34.704 4.052.035-8.485 1.223-35.19 20.823-59.58 14.185-17.646 31.2-25.585 39.624-28.847v175.188z" class="st16" style="stroke-width:.867614"/><path id="path12" d="M1275.504 467.039c-8.65-20.198-4.468-42.635 9.83-55.7 13.987-12.772 32.068-11.47 35.573-11.158v45.202c-4.416-.416-14.151-.737-24.944 4.182-11.678 5.327-18.012 13.787-20.459 17.465z" class="st16" style="stroke-width:.867614"/><path id="polygon21" d="M831.33 712.17V775h5v-21l14.67 5.67V713.5z" class="st0" transform="translate(210.36 .584)scale(.86761)"/><path id="polyline21" d="M851 775v-15.33L836.33 754v21z" class="st74" transform="translate(210.36 .584)scale(.86761)"/><path id="polygon22" d="M946.83 775h-7.08l.08-19.83-18 7.5V775h-8.66l1.33-60.83 33.5-1.34z" class="st0" transform="translate(210.36 .584)scale(.86761)"/><path id="polyline22" d="M929 775h10.75l.08-19.83-18 7.5V775z" class="st74" transform="translate(210.36 .584)scale(.86761)"/><path id="polygon23" d="M892.3 270.89h-18.22l.22 35.11 18-1.34z" class="st81" transform="translate(210.36 .584)scale(.86761)"/><path id="polygon24" d="M892.3 270.89h-18.22l-2.44-19.78 10.44-4z" class="st15" transform="translate(210.36 .584)scale(.86761)"/><path id="line24" d="M941.681 360.531v34.479" class="st30"/><path id="path24" d="M931.2 360.53c4.642 3.315 8.086 5.718 9.058 6.352.182.121.581.373 1.137.433.867.096 1.518-.312 1.7-.433 3.418-2.36 6.837-4.72 10.247-7.089.312-.26.91-.815 1.301-1.735.4-.928.39-1.761.364-2.17 0-2.047 0-4.094.01-6.142H927.46v5.787c.035.512.174 1.77 1.085 3.01a5.6 5.6 0 0 0 2.654 1.988z" class="st9" style="stroke-width:.867614"/><path id="path25" d="M926.237 340.35v8.798c0 3.53 6.768 6.385 15.114 6.385s15.114-2.863 15.114-6.385v-8.798h-30.219z" class="st34" style="stroke-width:.867614"/><path id="path26" d="M931.92 345.035c2.456.564 5.058.902 7.765.998a40.4 40.4 0 0 1-7.765-1.067z" class="st90" style="stroke-width:.867614"/><path id="path27" d="M941.247 346.076h.148c-.191 0-.382 0-.573-.009.147 0 .286.01.425.01" class="st90" style="stroke-width:.867614"/><path id="path28" d="M943.095 346.033c-.373.017-.755.026-1.128.035.382 0 .755-.018 1.128-.035" class="st90" style="stroke-width:.867614"/><path id="path29" d="M950.869 309.046v35.92c11.045-2.63 18.94-9.666 18.94-17.925v-36.11c-4.79 4.06-11.383 7.07-18.94 8.45z" class="st90" style="stroke-width:.867614"/><path id="path30" d="M940.822 346.068c-.382 0-.755-.018-1.128-.035.373.017.755.026 1.128.035" class="st87" style="stroke-width:.867614"/><path id="path31" d="M950.869 345.035v-.07a42 42 0 0 1-7.765 1.068 41 41 0 0 0 7.765-.998" class="st87" style="stroke-width:.867614"/><path id="path32" d="M941.542 346.076c.148 0 .286-.009.425-.009-.19 0-.382.01-.572.01z" class="st87" style="stroke-width:.867614"/><path id="path33" d="M941.542 300.223c-3.332 0-6.55-.313-9.613-.894-7.592-1.431-14.194-4.511-18.94-8.65v36.362c0 8.268 7.904 15.296 18.94 17.925 2.455.581 5.058.945 7.765 1.067.373.017.755.026 1.128.035.19 0 .382.009.573.009s.381 0 .572-.01c.382 0 .755-.017 1.128-.034a40.4 40.4 0 0 0 7.765-1.067V299.38c-2.976.547-6.1.833-9.327.833z" class="st87" style="stroke-width:.867614"/><path id="path34" d="M950.869 294.991v4.399c7.557-1.38 14.16-4.39 18.94-8.45v-6.005c-3.956 4.781-10.758 8.451-18.94 10.056" class="st93" style="stroke-width:.867614"/><path id="path35" d="M950.869 227.898v67.093c8.182-1.605 14.984-5.275 18.94-10.056v-57.037z" class="st90" style="stroke-width:.867614"/><path id="path36" d="M931.92 294.939c-8.26-1.674-15.079-5.457-18.94-10.368v6.117c4.746 4.138 11.349 7.218 18.94 8.65z" class="st93" style="stroke-width:.867614"/><path id="path37" d="M931.92 294.939v4.399c3.063.581 6.29.893 9.613.893s6.351-.295 9.327-.832v-4.4c-2.95.582-6.082.894-9.327.894s-6.576-.338-9.613-.954" class="st93" style="stroke-width:.867614"/><path id="path38" d="M931.92 227.898h-18.94v56.673c3.87 4.902 10.68 8.685 18.94 10.368a48.4 48.4 0 0 0 9.613.954 47.5 47.5 0 0 0 9.327-.893v-67.093h-18.94z" class="st87" style="stroke-width:.867614"/><ellipse id="ellipse38" cx="941.542" cy="227.074" class="st26" rx="28.562" ry="19.035" style="stroke-width:.867614"/><path id="path39" d="m961.228 225.972-.182-.39a6.8 6.8 0 0 0-1.041-2.204l-5.614-11.869h-25.69l-5.613 11.87a6.8 6.8 0 0 0-1.041 2.203l-.182.39h.095a5.7 5.7 0 0 0-.095 1.015c0 5.718 8.815 10.36 19.686 10.36 10.87 0 19.686-4.642 19.686-10.36 0-.338-.035-.676-.096-1.015h.096z" class="st59" style="stroke-width:.867614"/><path id="path40" d="M941.542 219.7c-6.602 0-11.982-3.68-11.982-8.19 0-4.512 5.37-8.191 11.982-8.191s11.982 3.679 11.982 8.19c0 4.512-5.37 8.19-11.982 8.19" class="st94" style="stroke-width:.867614"/><path id="path41" d="M941.542 204.187c6.021 0 11.114 3.357 11.114 7.322s-5.084 7.323-11.114 7.323-11.114-3.358-11.114-7.323 5.084-7.322 11.114-7.322m0-1.736c-7.097 0-12.85 4.06-12.85 9.058s5.753 9.058 12.85 9.058 12.85-4.06 12.85-9.058c0-4.997-5.753-9.058-12.85-9.058" class="st15" style="stroke-width:.867614"/><path id="polygon44" d="M824.72 389.28V285.11l-9.33-3.5v101.5z" class="st86" transform="translate(210.36 .584)scale(.86761)"/><rect id="rect44" width="3.47" height="19.669" x="920.112" y="250.404" class="st62" rx="1.735" ry="1.735" style="stroke-width:.867614"/><rect id="rect45" width="3.47" height="16.988" x="920.112" y="273.943" class="st62" rx="1.735" ry="1.735" style="stroke-width:.867614"/><rect id="rect46" width="3.47" height="16.988" x="920.112" y="294.471" class="st62" rx="1.735" ry="1.735" style="stroke-width:.867614"/><rect id="rect47" width="3.47" height="15.374" x="920.112" y="315.588" class="st62" rx="1.735" ry="1.735" style="stroke-width:.867614"/><path id="path47" d="M941.542 260.816s10.698-.443 11.132-.582 9.977-4.338 9.977-4.338v3.757l-9.544 4.625h-11.565v-3.47z" class="st62" style="stroke-width:.867614"/><path id="polygon47" d="m841.08 306.94 15.42-.94 10.58-4.82v4.18l-11.5 5h-14.5z" class="st62" transform="translate(210.36 .584)scale(.86761)"/><path id="polygon48" d="m1096.18 349.31 39 46.88v-70.33z" class="st57" transform="translate(210.36 .584)scale(.86761)"/><path id="polygon49" d="m1123.07 309.97 15.88 13.22v76.67l-3.77-3.67v-70.33l-16.85-12.62z" style="fill:#71aefa" transform="translate(210.36 .584)scale(.86761)"/><path id="polygon50" d="m1119.95 361.81-7.72 6-4.28-4 12-8z" class="st97" transform="translate(210.36 .584)scale(.86761)"/><path id="polygon51" d="m1121.51 369.58-5.11 4.45-2.45-4.45 7.56-4.44z" class="st97" transform="translate(210.36 .584)scale(.86761)"/><path id="polygon52" d="m1131.73 387.36-4 1.78-4-5.78 8-4.67z" class="st97" transform="translate(210.36 .584)scale(.86761)"/><path id="polygon53" d="m661.07 353.79-54.94-27.66V443.9z" class="st42" transform="translate(210.36 .584)scale(.86761)"/><path id="polygon54" d="m638.05 363.68-20.44-11.55v-4.67l20.44 10.44z" class="st56" transform="translate(210.36 .584)scale(.86761)"/><path id="polygon55" d="m634.05 371.79-20.44-11.55v-4.67l20.44 10.45z" class="st56" transform="translate(210.36 .584)scale(.86761)"/><path id="polygon56" d="m635.93 390.19-29.8-17.79v-4.66l31.92 18.38z" class="st56" transform="translate(210.36 .584)scale(.86761)"/><path id="polygon57" d="m635.93 406.19-29.8-17.79v-4.67l31.92 18.38z" class="st56" transform="translate(210.36 .584)scale(.86761)"/><path id="polygon58" d="m635.93 420.52-29.8-17.79v-4.67l31.92 18.39z" class="st56" transform="translate(210.36 .584)scale(.86761)"/><path id="rect58" d="M734.13 269.223h2.117v122.863h-2.117z" class="st15" style="stroke-width:.867614"/><path id="path58" d="M1190.834 389.474c-41.698-51.172-123.748-85.972-218.145-85.972-94.396 0-176.446 34.8-218.144 85.972l-29.247 11.366v73.539h.304c6.385 86.163 114.568 154.739 247.087 154.739 132.52 0 245.691-71.795 247.349-160.769h.043v-61.618z" class="st69" style="stroke-width:.867614"/><ellipse id="ellipse58" cx="972.689" cy="404.71" rx="247.392" ry="149.516" style="fill:#55aaf1;stroke-width:.867614"/><path id="path59" d="M973.895 538.47c-128.901 0-233.77-64.395-233.77-143.547 0-79.153 104.869-143.547 233.77-143.547s233.77 64.394 233.77 143.547-104.868 143.547-233.77 143.547" class="st94" style="stroke-width:.867614"/><path id="path60" d="M973.895 254.413c31.451 0 61.948 3.809 90.64 11.322 27.616 7.227 52.378 17.56 73.617 30.705 21.022 13.014 37.49 28.102 48.934 44.856 11.643 17.04 17.551 35.086 17.551 53.627 0 18.54-5.908 36.587-17.551 53.627-11.444 16.754-27.912 31.842-48.934 44.856-21.23 13.144-46 23.469-73.617 30.705-28.692 7.513-59.189 11.322-90.64 11.322-31.45 0-61.947-3.809-90.64-11.322-27.615-7.228-52.377-17.56-73.616-30.705-21.023-13.014-37.49-28.102-48.934-44.856-11.643-17.04-17.552-35.086-17.552-53.627s5.909-36.587 17.552-53.627c11.444-16.754 27.911-31.842 48.934-44.856 21.23-13.144 46-23.469 73.617-30.705 28.692-7.513 59.188-11.322 90.64-11.322m0-6.074c-130.785 0-236.807 65.627-236.807 146.584S843.11 541.506 973.895 541.506s236.807-65.626 236.807-146.583-106.022-146.584-236.807-146.584" class="st15" style="stroke-width:.867614"/><path id="line60" d="m971.041 452.732 5.7 83.022" class="st29"/><path id="line61" d="m1020.339 459.118 39.737 67.812" class="st29"/><path id="path61" d="M1060.076 447.7c2.672.104 79.022 46.547 79.022 46.547" class="st29"/><path id="line62" d="m1088.342 417.038 106.283 27.33" class="st29"/><path id="line63" d="m1097.851 384.798 107.047-4.338" class="st29"/><path id="line64" d="m1085.115 353.876 87.924-31.815" class="st29"/><path id="line65" d="m1071.623 333.661 64.004-43.485" class="st29"/><path id="path65" d="M1030.646 305.42c3.184-1.84 29.43-43.095 29.43-43.095" class="st29"/><path id="line66" d="m874.189 264.642 43.19 57.419" class="st29"/><path id="path66" d="M802.368 296.275c1.544 1.753 73.357 42.774 73.357 42.774" class="st29"/><path id="line67" d="m772.314 321.419 85.677 35.129" class="st29"/><path id="line68" d="m742.312 382.629 109.9 3.531" class="st29"/><path id="line69" d="m756.107 444.802 96.105-25.595" class="st29"/><path id="line70" d="m882.284 448.09-70.329 50.478" class="st29"/><path id="line71" d="m925.864 466.31-38.348 60.62" class="st29"/><ellipse id="ellipse71" cx="975.084" cy="392.65" class="st15" rx="131.634" ry="89.434" style="stroke-width:.867614"/><path id="path71" d="M1081.714 352.557c-20.84-25.568-61.844-42.964-109.025-42.964-47.18 0-88.175 17.396-109.024 42.964l-14.61 13.379v29.048h.156c3.192 43.06 57.253 77.33 123.478 77.33s122.785-35.876 123.618-80.35h.017v-24.197l-14.61-15.218z" class="st69" style="stroke-width:.867614"/><path id="path72" d="M972.69 444.741c-66.495 0-120.599-33.984-120.599-75.768s54.104-75.77 120.598-75.77 120.599 33.985 120.599 75.77-54.105 75.768-120.599 75.768" class="st94" style="stroke-width:.867614"/><path id="path73" d="M972.69 296.25c31.884 0 61.773 7.86 84.158 22.132 21.543 13.726 33.403 31.703 33.403 50.6 0 18.896-11.86 36.873-33.403 50.598-22.384 14.273-52.274 22.133-84.159 22.133-31.884 0-61.774-7.86-84.158-22.133-21.543-13.725-33.403-31.702-33.403-50.599s11.86-36.873 33.403-50.599c22.384-14.272 52.274-22.133 84.158-22.133m0-6.073c-68.28 0-123.635 35.277-123.635 78.805s55.354 78.806 123.635 78.806 123.635-35.278 123.635-78.806-55.353-78.805-123.635-78.805" class="st15" style="stroke-width:.867614"/><path id="polyline74" d="m776.15 480.59 97.56-51.13 5.78 84.25" class="st29" transform="translate(210.36 .584)scale(.86761)"/><path id="polyline75" d="m981.04 484.28-107.33-54.82 5.78 84.25" class="st29" transform="translate(210.36 .584)scale(.86761)"/><path id="polyline76" d="m1014.75 416.98-141.04 12.48-134.22-9.57" class="st29" transform="translate(210.36 .584)scale(.86761)"/><path id="polyline77" d="m768.23 510.84 2.17-2.34 17.5 11.17v-17.83l-19.67-13V510" class="st80" transform="translate(210.36 .584)scale(.86761)"/><path id="polygon77" d="m791.12 499.68-.66 24.01-2.56-1.33v-20.52l-19.67-13v20.52l-3.44-2.72v-23.86z" class="st32" transform="translate(210.36 .584)scale(.86761)"/><path id="path77" d="M872.072 445.67c.286 0 4.824-3.158 4.824-3.158l1.883-2.022 15.183 10.967v7.036l-21.881-12.823z" class="st15" style="stroke-width:.867614"/><path id="polyline78" d="m984.73 513.84-2.16-2.34-17.5 11.17v-17.83l19.66-13V513" class="st80" transform="translate(210.36 .584)scale(.86761)"/><path id="polygon78" d="m961.84 502.68.67 23.24 2.56-1.33v-19.75l19.66-13v20.89l3.45-2.73v-24.22z" class="st32" transform="translate(210.36 .584)scale(.86761)"/><path id="path78" d="M1069.55 448.273c-.286 0-4.824-2.846-4.824-2.846l-1.883-1.059-15.183 9.691v7.037l21.881-12.823z" class="st15" style="stroke-width:.867614"/><path id="path79" d="M1055.573 338.085c-15.843-19.443-47.016-32.665-82.884-32.665-35.867 0-67.04 13.222-82.883 32.665l-11.114 10.178v22.09h.113c2.43 32.734 43.528 58.789 93.876 58.789 50.347 0 93.346-27.278 93.98-61.08h.017v-18.403l-11.115-11.565z" class="st69" style="stroke-width:.867614"/><path id="path80" d="M972.69 405.135c-50.149 0-90.953-25.517-90.953-56.872 0-31.356 40.804-56.873 90.952-56.873s90.952 25.508 90.952 56.873-40.804 56.872-90.952 56.872" class="st94" style="stroke-width:.867614"/><path id="path81" d="M972.69 294.427c23.963 0 46.408 5.891 63.196 16.598 15.938 10.16 24.719 23.382 24.719 37.238s-8.78 27.078-24.719 37.238c-16.788 10.697-39.233 16.597-63.197 16.597-23.963 0-46.408-5.891-63.197-16.597-15.938-10.16-24.718-23.383-24.718-37.238s8.78-27.079 24.718-37.238c16.789-10.698 39.234-16.598 63.197-16.598m0-6.073c-51.909 0-93.988 26.818-93.988 59.909s42.079 59.908 93.988 59.908 93.99-26.818 93.99-59.908-42.08-59.91-93.99-59.91" class="st15" style="stroke-width:.867614"/><path id="polyline82" d="m779.09 422.65 93.78-40.81 5.78 84.25" class="st29" transform="translate(210.36 .584)scale(.86761)"/><path id="polyline83" d="m978.21 422.65-105.34-40.81 5.78 84.25" class="st29" transform="translate(210.36 .584)scale(.86761)"/><path id="polygon83" d="M811.82 287.75v33.69l-12.17-8.65v-33.62z" class="st40" transform="translate(210.36 .584)scale(.86761)"/><path id="polygon84" d="M811.82 325.2v33.68l-12.17-8.64v-33.62z" class="st40" transform="translate(210.36 .584)scale(.86761)"/><path id="polygon85" d="M811.82 321.44v4.32l-12.17-8.65v-4.25z" class="st85" transform="translate(210.36 .584)scale(.86761)"/><path id="polygon86" d="M811.82 287.75v33.69l12.16-8.65v-33.62z" class="st48" transform="translate(210.36 .584)scale(.86761)"/><path id="polygon87" d="M811.82 325.2v33.68l12.16-8.64v-33.62z" class="st48" transform="translate(210.36 .584)scale(.86761)"/><path id="polygon88" d="M811.82 321.44v4.32l12.16-8.65v-4.25z" class="st38" transform="translate(210.36 .584)scale(.86761)"/><path id="path88" d="M914.707 249.372c-5.345 0-9.691-2.95-9.691-6.577s4.346-6.576 9.69-6.576c5.345 0 9.692 2.95 9.692 6.576 0 3.627-4.347 6.577-9.691 6.577" class="st94" style="stroke-width:.867614"/><path id="path89" d="M914.707 237.087c4.78 0 8.823 2.611 8.823 5.708s-4.043 5.71-8.823 5.71-8.824-2.612-8.824-5.71 4.043-5.708 8.824-5.708m0-1.736c-5.83 0-10.56 3.332-10.56 7.444 0 4.113 4.73 7.445 10.56 7.445s10.559-3.332 10.559-7.445c0-4.112-4.729-7.444-10.56-7.444" class="st15" style="stroke-width:.867614"/><circle id="circle90" cx="914.438" cy="261.128" r="3.809" style="fill:#155146;stroke-width:.867614"/><circle id="circle91" cx="914.438" cy="261.128" r="2.507" style="fill:#d1ffb2;stroke-width:.867614"/><path id="polygon91" d="M953.26 281.95v33.68l-12.17-8.64v-33.62z" class="st40" transform="translate(210.36 .584)scale(.86761)"/><path id="polygon92" d="M953.26 319.39V361l-12.17-8.64v-41.55z" class="st40" transform="translate(210.36 .584)scale(.86761)"/><path id="polygon93" d="M953.26 315.64v4.31l-12.17-8.64v-4.25z" class="st85" transform="translate(210.36 .584)scale(.86761)"/><path id="polygon94" d="M953.26 281.95v33.68l12.17-8.64v-33.62z" class="st48" transform="translate(210.36 .584)scale(.86761)"/><path id="polygon95" d="M953.26 319.39V361l12.17-8.64v-41.55z" class="st48" transform="translate(210.36 .584)scale(.86761)"/><path id="polygon96" d="M953.26 315.64v4.31l12.17-8.64v-4.25z" class="st38" transform="translate(210.36 .584)scale(.86761)"/><path id="path96" d="M1037.422 244.34c-5.344 0-9.691-2.95-9.691-6.577s4.347-6.576 9.691-6.576 9.691 2.95 9.691 6.576c0 3.627-4.346 6.577-9.69 6.577" class="st94" style="stroke-width:.867614"/><path id="path97" d="M1037.422 232.046c4.78 0 8.824 2.611 8.824 5.709s-4.043 5.708-8.824 5.708-8.824-2.611-8.824-5.708 4.044-5.71 8.824-5.71m0-1.735c-5.83 0-10.559 3.332-10.559 7.445 0 4.112 4.729 7.444 10.56 7.444 5.83 0 10.558-3.332 10.558-7.444 0-4.113-4.728-7.445-10.559-7.445" class="st15" style="stroke-width:.867614"/><path id="path98" d="M1041.543 314.799c-13.161-16.155-39.06-27.14-68.854-27.14s-55.692 10.985-68.853 27.14h-9.232v26.8h.096c2.012 27.2 36.162 48.838 77.99 48.838s77.547-22.662 78.076-50.746h.01v-24.892z" class="st69" style="stroke-width:.867614"/><path id="path99" d="M972.69 361.25c-41.386 0-75.05-19.33-75.05-43.094s33.664-43.094 75.05-43.094 75.048 19.33 75.048 43.094-33.663 43.095-75.049 43.095" class="st94" style="stroke-width:.867614"/><path id="path100" d="M972.69 278.099c19.79 0 38.296 4.494 52.126 12.667 12.823 7.574 19.885 17.3 19.885 27.39s-7.062 19.817-19.885 27.391c-13.83 8.164-32.336 12.667-52.127 12.667-19.79 0-38.296-4.494-52.126-12.667-12.823-7.574-19.886-17.3-19.886-27.39s7.063-19.817 19.886-27.391c13.83-8.164 32.336-12.667 52.126-12.667m0-6.074c-43.129 0-78.085 20.65-78.085 46.131s34.956 46.131 78.085 46.131c43.13 0 78.086-20.649 78.086-46.13s-34.957-46.132-78.086-46.132" class="st15" style="stroke-width:.867614"/><path id="polygon101" d="M881.65 362.75V105.09l-14.67-9.34v267z" style="fill:#2e71c8" transform="translate(210.36 .584)scale(.86761)"/><path id="polygon102" d="M881.65 362.75h14.5V96.42l-14.5 8.67z" style="fill:#1547aa" transform="translate(210.36 .584)scale(.86761)"/><path id="polygon103" d="m894.27 96.38-12.6 7.53-12.79-8.13 12.75-7.68z" class="st94" transform="translate(210.36 .584)scale(.86761)"/><path id="path103" d="m975.249 78.044 9.353 6.125-9.284 5.545-9.457-6.022 9.388-5.657m.043-2.038-12.728 7.66 12.728 8.095 12.58-7.522-12.58-8.242z" class="st15" style="stroke-width:.867614"/><path id="line103" d="M975.292 49.508v34.15" class="st30"/><circle id="circle103" cx="975.292" cy="49.508" r="1.9" class="st15" style="stroke-width:.867614"/><path id="polygon104" d="m863.65 377.58-10.33-5.38V155.09l10.33 6.66z" style="fill:#3572ce" transform="translate(210.36 .584)scale(.86761)"/><path id="polygon105" d="m863.65 377.58 11.44-6.27V153.97l-11.44 7.78z" style="fill:#1741a5" transform="translate(210.36 .584)scale(.86761)"/><path id="polygon106" d="m873.29 153.99-9.66 6.56-8.47-5.47 9.95-6.43z" class="st94" transform="translate(210.36 .584)scale(.86761)"/><path id="path106" d="m960.942 130.587 5.535 3.61-6.828 4.64-5.743-3.704 7.027-4.546m.01-2.065-10.239 6.62 8.963 5.787 9.925-6.75-8.658-5.657z" class="st15" style="stroke-width:.867614"/><path id="polygon107" d="M901.65 382.84V166.09l-14.17-9.17v217.86z" style="fill:#2f6cc5" transform="translate(210.36 .584)scale(.86761)"/><path id="polygon108" d="m901.65 382.84 14.56-9.23V156.92l-14.56 9.17z" class="st5" transform="translate(210.36 .584)scale(.86761)"/><path id="polygon109" d="m901.65 166.09-14.17-9.17 14.79-9.74 13.94 9.74z" class="st91" transform="translate(210.36 .584)scale(.86761)"/><path id="line109" d="M996.835 117.208v17.934" class="st30"/><circle id="circle109" cx="996.835" cy="115.326" r="1.9" class="st15" style="stroke-width:.867614"/><path id="polygon110" d="m876.54 382.84 11.11-7.56V216.42l-11.11 7.11z" style="fill:#253eb5" transform="translate(210.36 .584)scale(.86761)"/><path id="path110" d="m962.417 279.565 8.433 4.841v-9.778h-.026a.9.9 0 0 1-.442-.121l-8.399-4.946v9.9c.148 0 .295.026.434.104" class="st58" style="stroke-width:.867614"/><path id="polygon111" d="m876.54 329.44-10.22-5.87v52.6l10.22 6.67z" class="st58" transform="translate(210.36 .584)scale(.86761)"/><path id="path111" d="m962.426 267.809 8.39 4.936.043-.026v-78.198l-8.867-4.624v77.808c.147 0 .303.026.442.104z" class="st58" style="stroke-width:.867614"/><path id="path112" d="M970.833 274.628h.026v-1.9l-.044.026-8.39-4.937a.9.9 0 0 0-.442-.104v1.857l8.399 4.945a.9.9 0 0 0 .442.122z" class="st66" style="stroke-width:.867614"/><path id="path113" d="M962.417 279.565a.87.87 0 0 0-.434-.104v1.856l8.867 5.093v-2.004z" class="st66" style="stroke-width:.867614"/><path id="path114" d="m971.284 274.498 9.665-6.021a.87.87 0 0 0-.92-1.475l-9.179 5.717v1.9a.8.8 0 0 0 .434-.13z" class="st66" style="stroke-width:.867614"/><path id="path115" d="M981.261 280.242a.876.876 0 0 0-1.18-.347l-8.762 4.78-.469-.269v2.004h.017c.13.087.287.13.434.13a.9.9 0 0 0 .417-.104l9.188-5.014a.87.87 0 0 0 .347-1.18z" class="st66" style="stroke-width:.867614"/><path id="polygon115" d="m876.54 223.53 11.11-7.11-10.22-6.67-11.11 8.45z" class="st91" transform="translate(210.36 .584)scale(.86761)"/><circle id="circle115" cx="966.712" cy="205.67" r="2.421" class="st36" style="stroke-width:.867614"/><rect id="rect115" width="4.191" height="8.242" x="964.447" y="211.492" class="st12" rx="2.1" ry="2.1" style="stroke-width:.867614"/><rect id="rect116" width="4.191" height="8.242" x="964.447" y="222.19" class="st12" rx="2.1" ry="2.1" style="stroke-width:.867614"/><rect id="rect117" width="4.191" height="8.242" x="973.409" y="218.068" class="st12" rx="2.1" ry="2.1" style="stroke-width:.867614"/><rect id="rect118" width="4.191" height="8.242" x="973.409" y="244.218" class="st12" rx="2.1" ry="2.1" style="stroke-width:.867614"/><rect id="rect119" width="4.191" height="5.83" x="973.409" y="255.306" class="st12" rx="2.1" ry="2.1" style="stroke-width:.867614"/><rect id="rect120" width="4.191" height="12.797" x="973.409" y="228.948" class="st12" rx="2.1" ry="2.1" style="stroke-width:.867614"/><path id="polygon120" d="M894.21 197.86v49.98l8 2.25 19.88-12.56-5.88-5.5h-9.45l-5.22-29.61v-7.67z" class="st91" transform="translate(210.36 .584)scale(.86761)"/><path id="polygon121" d="m916.21 232.03-20.08 14.18.19-46.12 19.89-9.12z" class="st5" transform="translate(210.36 .584)scale(.86761)"/><path id="polygon122" d="m902.87 383.86-.25-50.64-14.97-8.26v50.68z" class="st82" transform="translate(210.36 .584)scale(.86761)"/><path id="polygon123" d="m902.61 330.92-.4-80.83-8 3.36-6.38-5.24-.18 74.47 14.95 8.25z" class="st82" transform="translate(210.36 .584)scale(.86761)"/><path id="path123" d="M1009.953 278.237a.87.87 0 0 1 .434-.104v-71.465l-17.257 10.897.347 70.138 16.476-9.457z" class="st51" style="stroke-width:.867614"/><path id="polygon124" d="M922.09 371.53v-49.49l-19.47 11.18.25 50.64z" class="st51" transform="translate(210.36 .584)scale(.86761)"/><path id="polygon125" d="M887.65 322.68v2.28l14.97 8.26-.01-2.3-.01.01z" class="st66" transform="translate(210.36 .584)scale(.86761)"/><path id="path125" d="m1009.953 278.237-16.476 9.457v1.987h.018l16.892-9.7v-1.856a.9.9 0 0 0-.433.104z" class="st66" style="stroke-width:.867614"/><rect id="rect125" width="8.06" height="2.742" x="722.792" y="719.142" class="st12" rx="1.371" ry="1.371" style="stroke-width:.867615" transform="rotate(-32.33)"/><rect id="rect126" width="4.815" height="2.742" x="731.599" y="718.891" class="st12" rx="1.371" ry="1.371" style="stroke-width:.867615" transform="rotate(-32.33)"/><rect id="rect127" width="4.191" height="9.683" x="287.389" y="967.944" class="st12" rx="2.1" ry="2.1" style="stroke-width:.867614" transform="rotate(-60)"/><rect id="rect128" width="4.191" height="9.683" x="279.857" y="971.955" class="st12" rx="2.1" ry="2.1" style="stroke-width:.867614" transform="rotate(-60)"/><path id="line128" d="m992.645 190.235 9.396-6.22" class="st30"/><path id="line129" d="m992.645 196.309 9.396-6.221" class="st30"/><path id="line130" d="m992.645 202.382 9.396-6.221" class="st30"/><path id="polygon130" d="m863.65 377.62-13.11-6.66V240.24l13.11 6.01z" style="fill:#306dc8" transform="translate(210.36 .584)scale(.86761)"/><rect id="rect130" width="4.191" height="9.683" x="277.468" y="935.272" class="st12" rx="2.1" ry="2.1" style="stroke-width:.867614" transform="rotate(-60)"/><rect id="rect131" width="4.191" height="9.683" x="269.924" y="939.289" class="st12" rx="2.1" ry="2.1" style="stroke-width:.867614" transform="rotate(-60)"/><path id="path131" d="M959.65 279.834h.025v-1.9l-.043.026-10.897-5.883a.9.9 0 0 0-.443-.104v1.857l10.906 5.882a.9.9 0 0 0 .442.122z" class="st66" style="stroke-width:.867614"/><path id="path132" d="M948.735 283.825a.87.87 0 0 0-.434-.104v1.856l11.374 6.108v-2.004l-10.94-5.865z" class="st66" style="stroke-width:.867614"/><path id="polygon132" d="M863.65 242.92v3.33l-13.11-6.01 2.78-1.9z" class="st91" transform="translate(210.36 .584)scale(.86761)"/><path id="path136" d="M896.626 335.63s1.839 2.655 4.624 6.655a41 41 0 0 0 3.47 4.338v4.052c-1.518-1.31-3.583-3.419-5.205-6.49-2.178-4.104-2.89-8.555-2.89-8.555" class="st15" style="stroke-width:.867614"/><path id="path137" d="M898.222 344.593a28 28 0 0 0 3.184 5.205 28.5 28.5 0 0 0 3.323 3.618v4.338a18.46 18.46 0 0 1-6.507-13.161" class="st15" style="stroke-width:.867614"/><path id="polygon137" d="M812.82 348.81v24.28l-12.17-8.65v-24.22z" class="st40" transform="translate(210.36 .584)scale(.86761)"/><path id="polygon138" d="M812.82 376.84v33.69l-12.17-8.64v-33.64z" class="st40" transform="translate(210.36 .584)scale(.86761)"/><path id="polygon139" d="M812.82 372.91v4.32l-12.17-8.65v-4.25z" class="st85" transform="translate(210.36 .584)scale(.86761)"/><path id="polygon140" d="M812.82 348.81v24.28l12.16-8.65v-24.22z" class="st48" transform="translate(210.36 .584)scale(.86761)"/><path id="polygon141" d="M812.82 376.5v33.14l12.16-8.64v-33.08z" class="st48" transform="translate(210.36 .584)scale(.86761)"/><path id="polygon142" d="M812.82 412.28v25.81l-12.17-8.65V403.7z" class="st40" transform="translate(210.36 .584)scale(.86761)"/><path id="polygon143" d="M812.82 412.82v25.27l6.08-3.67v-25.63z" class="st48" transform="translate(210.36 .584)scale(.86761)"/><path id="polygon144" d="M812.82 372.91v4.32l12.16-8.65v-4.25z" class="st38" transform="translate(210.36 .584)scale(.86761)"/><path id="polygon145" d="M812.82 409.58v4.31l-12.17-8.64V401z" class="st85" transform="translate(210.36 .584)scale(.86761)"/><path id="polygon146" d="M812.82 409.58v4.31l6.08-4.25v-4.25z" class="st38" transform="translate(210.36 .584)scale(.86761)"/><path id="path146" d="M915.574 302.348c-5.344 0-9.69-2.95-9.69-6.576 0-3.627 4.346-6.577 9.69-6.577 5.345 0 9.692 2.95 9.692 6.577s-4.347 6.576-9.692 6.576" class="st94" style="stroke-width:.867614"/><path id="path147" d="M915.574 290.054c4.78 0 8.824 2.612 8.824 5.71s-4.043 5.708-8.824 5.708-8.823-2.611-8.823-5.709 4.043-5.709 8.823-5.709m0-1.735c-5.83 0-10.558 3.332-10.558 7.444 0 4.113 4.728 7.444 10.558 7.444s10.56-3.331 10.56-7.444-4.73-7.444-10.56-7.444" class="st15" style="stroke-width:.867614"/><path id="line148" d="m917.544 309.237 6.706-4.381" class="st28"/><path id="line149" d="m917.544 330.928 6.706-4.382" class="st28"/><path id="polygon149" d="M945.01 348.56v24.28l12.16-8.64v-24.22z" class="st25" transform="translate(210.36 .584)scale(.86761)"/><path id="polygon150" d="M945.01 376.59v33.69l12.16-8.64v-33.63z" class="st25" transform="translate(210.36 .584)scale(.86761)"/><path id="polygon151" d="M945.01 372.67v4.31l12.16-8.64v-4.25z" class="st85" transform="translate(210.36 .584)scale(.86761)"/><path id="polygon152" d="M945.01 348.56v24.28l-12.17-8.64v-24.22z" class="st78" transform="translate(210.36 .584)scale(.86761)"/><path id="polygon153" d="M945.01 376.25v33.15l-12.17-8.65v-33.08z" class="st78" transform="translate(210.36 .584)scale(.86761)"/><path id="polygon154" d="M945.01 412.03v25.81l12.16-8.64v-25.75z" class="st25" transform="translate(210.36 .584)scale(.86761)"/><path id="polygon155" d="M945.01 412.57v25.27l-6.09-3.67v-25.62z" class="st78" transform="translate(210.36 .584)scale(.86761)"/><path id="polygon156" d="M945.01 372.67v4.31l-12.17-8.64v-4.25z" class="st38" transform="translate(210.36 .584)scale(.86761)"/><path id="polygon157" d="M945.01 384.03v4.32l-12.17-8.65v-4.25z" class="st38" transform="translate(210.36 .584)scale(.86761)"/><path id="polygon158" d="M945.01 392.92v4.32l-12.17-8.65v-4.25z" class="st38" transform="translate(210.36 .584)scale(.86761)"/><path id="polygon159" d="M945.01 409.33v4.32l12.16-8.64v-4.26z" class="st85" transform="translate(210.36 .584)scale(.86761)"/><path id="polygon160" d="M945.01 409.33v4.32l-6.09-4.25v-4.26z" class="st38" transform="translate(210.36 .584)scale(.86761)"/><path id="path160" d="M1030.264 302.132c-5.344 0-9.691-2.95-9.691-6.577s4.347-6.576 9.691-6.576 9.692 2.95 9.692 6.576c0 3.627-4.347 6.577-9.692 6.577" class="st94" style="stroke-width:.867614"/><path id="path161" d="M1030.264 289.846c4.78 0 8.824 2.612 8.824 5.709s-4.043 5.709-8.824 5.709-8.823-2.612-8.823-5.709 4.043-5.709 8.823-5.709m0-1.735c-5.83 0-10.559 3.332-10.559 7.444 0 4.113 4.729 7.444 10.56 7.444 5.83 0 10.558-3.331 10.558-7.444s-4.728-7.444-10.559-7.444" class="st15" style="stroke-width:.867614"/><circle id="circle165" cx="1035.539" cy="322.061" r="2.421" class="st36" style="stroke-width:.867614"/><circle id="circle166" cx="1024.98" cy="322.061" r="2.421" class="st15" style="stroke-width:.867614"/><path id="polygon167" d="M872.15 364.47v33.69l-12.17-8.65v-33.62z" class="st40" transform="translate(210.36 .584)scale(.86761)"/><path id="polygon168" d="M872.15 401.92v55.17l-12.17-5.98v-57.77z" class="st40" transform="translate(210.36 .584)scale(.86761)"/><path id="polygon169" d="M872.15 398.16v4.32l-12.17-8.65v-4.25z" style="fill:#144ca8" transform="translate(210.36 .584)scale(.86761)"/><path id="polygon170" d="M872.15 364.47v33.69l12.17-8.65v-33.62z" class="st60" transform="translate(210.36 .584)scale(.86761)"/><path id="polygon171" d="M872.15 401.92v55.17l12.17-6.67v-57.08z" class="st60" transform="translate(210.36 .584)scale(.86761)"/><path id="polygon172" d="M872.15 398.16v4.32l12.17-8.65v-4.25z" style="fill:#2047ac" transform="translate(210.36 .584)scale(.86761)"/><path id="path172" d="M967.05 315.935c-5.345 0-9.691-2.95-9.691-6.576 0-3.627 4.346-6.577 9.69-6.577 5.345 0 9.692 2.95 9.692 6.577s-4.347 6.576-9.691 6.576" class="st94" style="stroke-width:.867614"/><path id="path173" d="M967.05 303.65c4.78 0 8.824 2.611 8.824 5.709s-4.044 5.709-8.824 5.709-8.824-2.612-8.824-5.71 4.043-5.708 8.824-5.708m0-1.735c-5.83 0-10.559 3.331-10.559 7.444s4.729 7.444 10.559 7.444 10.559-3.332 10.559-7.444c0-4.113-4.729-7.444-10.56-7.444" class="st15" style="stroke-width:.867614"/><circle id="circle174" cx="958.842" cy="328.906" r="1.249" class="st77" style="stroke-width:.867614"/><circle id="circle175" cx="961.515" cy="330.476" r="1.249" class="st77" style="stroke-width:.867614"/><circle id="circle176" cx="964.187" cy="331.943" r="1.249" class="st77" style="stroke-width:.867614"/><circle id="circle177" cx="974.997" cy="328.906" r="1.249" class="st77" style="stroke-width:.867614"/><circle id="circle178" cx="972.325" cy="330.476" r="1.249" class="st77" style="stroke-width:.867614"/><circle id="circle179" cx="969.661" cy="331.943" r="1.249" class="st77" style="stroke-width:.867614"/><path id="polygon181" d="m613.16 302.39 38.5-28.5 53.67 29.34 5-3.5 18.33 27.33-37.33 26.33-18.84-27.16z" class="st31" transform="translate(210.36 .584)scale(.86761)"/><path id="polygon182" d="m624.66 298.39 48.17 25.84 18.33 27.5 37.5-24.67v16.33l-37.17 26.17-85.33-36v-23.83z" class="st42" transform="translate(210.36 .584)scale(.86761)"/><path id="path182" d="M734.13 269.223c.772-.772 21.7-16.25 21.7-16.25l42.53 23.52-4.243 5.397-40.743-21.846-17.127 9.179z" class="st15" style="stroke-width:.867614"/><path id="polygon183" d="m710.37 299.77-5.5 5.83-53.29-31.37-20.1 14.6 25.68-20.77z" class="st15" transform="translate(210.36 .584)scale(.86761)"/><path id="polygon184" d="M722.99 347.39v-9.33l-23.16 17.33v8.34z" style="fill:#163aab" transform="translate(210.36 .584)scale(.86761)"/><path id="polygon185" d="m694.6 344.67-13.11-18.44 24.67-17.56 12.67 19.56-9.56 6.66-9.44-12.44-9.47 5.98 7.36 13.8z" style="fill:#3069c0" transform="translate(210.36 .584)scale(.86761)"/><path id="polygon186" d="M647.05 322.62v-6.67l-17.11-9.33v6.88z" class="st77" transform="translate(210.36 .584)scale(.86761)"/><path id="polygon187" d="M657.49 327.73v-6.89l-5.77-2.67v6.67z" class="st77" transform="translate(210.36 .584)scale(.86761)"/><path id="polygon188" d="M666.38 332.17v-6.22l-6.44-3v6.33z" class="st77" transform="translate(210.36 .584)scale(.86761)"/><path id="path189" d="M773.919 408.275v7.904c0 2.985 4.19 5.397 9.353 5.397s9.353-2.42 9.353-5.397v-7.904z" class="st92" style="stroke-width:.867614"/><path id="polygon189" d="M649.55 476.46v-41.33l10.78 3.66v42.84z" class="st35" transform="translate(210.36 .584)scale(.86761)"/><path id="polygon190" d="m660.33 481.63 10.78-4.17v-42.33l-10.78 3.66z" class="st46" transform="translate(210.36 .584)scale(.86761)"/><path id="path190" d="M783.272 382.447c-4.599 0-8.485-2.074-8.485-4.53 0-2.455 3.886-4.528 8.485-4.528s8.485 2.073 8.485 4.529-3.887 4.529-8.485 4.529" class="st94" style="stroke-width:.867614"/><path id="path191" d="M783.272 374.248c4.355 0 7.618 1.934 7.618 3.661s-3.254 3.661-7.618 3.661-7.618-1.934-7.618-3.661 3.254-3.661 7.618-3.661m0-1.736c-5.162 0-9.353 2.421-9.353 5.397s4.19 5.397 9.353 5.397 9.353-2.421 9.353-5.397-4.19-5.397-9.353-5.397" class="st15" style="stroke-width:.867614"/><path id="line191" d="M783.272 346.224v30.739" class="st30"/><circle id="circle191" cx="783.272" cy="345.642" r="1.9" class="st36" style="stroke-width:.867614"/><path id="polygon192" d="m671.11 451.96-10.78 4.58v-2.58l1.2-.58 9.58-3.92z" class="st92" transform="translate(210.36 .584)scale(.86761)"/><path id="path192" d="M775.923 390.541c.217 0 4.66 2.5 4.66 2.5v3.253l-4.66-2.603v-3.14z" style="fill:#d5fffe;stroke-width:.867614"/><path id="path193" d="M1157.543 418.114v7.904c0 2.985 4.19 5.397 9.353 5.397s9.353-2.42 9.353-5.397v-7.904z" class="st92" style="stroke-width:.867614"/><path id="polygon193" d="M1091.71 487.79v-41.33l10.78 3.67v42.83z" class="st35" transform="translate(210.36 .584)scale(.86761)"/><path id="polygon194" d="m1102.49 492.96 10.77-4.17v-42.33l-10.77 3.67z" class="st46" transform="translate(210.36 .584)scale(.86761)"/><path id="path194" d="M1166.896 392.277c-4.598 0-8.485-2.074-8.485-4.53 0-2.455 3.887-4.528 8.485-4.528s8.485 2.073 8.485 4.529-3.887 4.529-8.485 4.529" class="st94" style="stroke-width:.867614"/><path id="path195" d="M1166.896 384.086c4.356 0 7.618 1.935 7.618 3.662s-3.254 3.661-7.618 3.661-7.618-1.935-7.618-3.661c0-1.727 3.254-3.662 7.618-3.662m0-1.735c-5.162 0-9.353 2.42-9.353 5.397 0 2.976 4.19 5.396 9.353 5.396s9.353-2.42 9.353-5.396-4.19-5.397-9.353-5.397" class="st15" style="stroke-width:.867614"/><path id="line195" d="M1166.896 356.054v30.739" class="st30"/><circle id="circle195" cx="1166.896" cy="355.472" r="1.9" class="st15" style="stroke-width:.867614"/><path id="polygon196" d="m1113.26 463.29-10.77 4.59v-2.59l1.19-.58 9.58-3.92z" class="st92" transform="translate(210.36 .584)scale(.86761)"/><path id="path196" d="M1159.539 400.372c.217 0 4.659 2.498 4.659 2.498v3.254l-4.66-2.603v-3.14z" style="fill:#afeee0;stroke-width:.867614"/><path id="path198" d="M957.688 591.307c-8.181 0-16.276-.217-23.408-.642-9.977-.598-46.035-4.017-90.935-23.009-49.185-20.805-90.292-52.265-122.168-93.494l8.233-6.368c30.775 39.797 70.468 70.172 117.987 90.275 34.462 14.576 67.796 21.031 87.5 22.202 10.922.651 24.214.799 36.465.408 60.16-1.909 122.36-3.887 172.464-39.91 14.515-10.438 45.767-28.926 70.025-76.012l5.024 3.835c-25.404 49.307-53.74 69.687-68.967 80.627-23.425 16.85-51.397 28.06-85.512 34.271-30.904 5.631-63.735 6.672-92.696 7.592-4.58.147-9.31.217-14.012.217z" style="fill:#386fce;stroke-width:.867614"/><path id="polygon199" d="m1076.73 283.86 43.11 30.45-46 29.22-12.44 21.89-40.67-25.56-2.44-7.78 18.44-28.89 5.78 4.67z" class="st31" transform="translate(210.36 .584)scale(.86761)"/><path id="path199" d="M1093.843 288.7s34.514 23.331 35.086 22.94c.573-.39 6.75-9.83 6.75-9.83l-3.28-10.992-6.94 11.565-15.036-11.765 2.698-9.448-1.353-1.544-5.787 10.03-3.47-2.118 10.41-16.58 29.69 20.346 39.33-18.03 13.3 10.03-65.557 43-35.858-22.75V288.71z" class="st57" style="stroke-width:.867614"/><path id="polygon200" d="m1040.29 311.64-3.56-8.45 42.22-29.72h2.67l-2.5 16.84z" class="st97" transform="translate(210.36 .584)scale(.86761)"/><path id="polygon201" d="M1112.95 330.31v-6.67l-16.77 9.78v6.22z" style="fill:#daec91" transform="translate(210.36 .584)scale(.86761)"/><path id="polygon202" d="M1087.18 345.64v-6l5.33-3.78v6.67z" class="st6" transform="translate(210.36 .584)scale(.86761)"/><path id="polygon203" d="M1078.29 351.19v-6.66l6-3.78v6.22z" class="st6" transform="translate(210.36 .584)scale(.86761)"/><path id="polygon204" d="M1050.07 369.35v-9.99l-20-12.67v10.03z" style="fill:#1943a4" transform="translate(210.36 .584)scale(.86761)"/><path id="polygon205" d="m1078.95 273.47 5.34-2.28 41.91 41.12-20.25 8.36 9.73-6.36-38.95-23.34z" class="st97" transform="translate(210.36 .584)scale(.86761)"/><circle id="circle205" cx="1107.603" cy="307.91" r="2.238" class="st36" style="stroke-width:.867614"/><path id="polygon206" d="M603.8 530.56h-18.22l.22 35.12 18-1.34z" class="st81" transform="translate(210.36 .584)scale(.86761)"/><path id="polygon207" d="M603.8 530.56h-18.22l-2.45-19.77 10.45-4z" class="st15" transform="translate(210.36 .584)scale(.86761)"/><path id="line207" d="M691.374 585.833v34.479" class="st30"/><path id="path207" d="M680.893 585.833c4.642 3.314 8.087 5.717 9.058 6.35a2.5 2.5 0 0 0 1.137.434c.867.096 1.518-.312 1.7-.433 3.419-2.36 6.837-4.72 10.247-7.089.312-.26.91-.815 1.301-1.735.4-.928.39-1.761.365-2.169 0-2.048 0-4.095.009-6.143h-27.556v5.787c.035.512.174 1.77 1.085 3.01a5.6 5.6 0 0 0 2.655 1.988z" class="st9" style="stroke-width:.867614"/><path id="path208" d="M675.922 565.652v8.798c0 3.53 6.767 6.385 15.114 6.385 8.346 0 15.114-2.863 15.114-6.385v-8.798h-30.22z" class="st34" style="stroke-width:.867614"/><path id="path209" d="M681.613 570.337c2.456.564 5.059.902 7.766.998a40.4 40.4 0 0 1-7.766-1.067z" class="st90" style="stroke-width:.867614"/><path id="path210" d="M690.94 571.378h.148c-.191 0-.382 0-.573-.009.148 0 .287.01.425.01" class="st90" style="stroke-width:.867614"/><path id="path211" d="M692.788 571.335c-.373.017-.754.026-1.128.035.382 0 .755-.018 1.128-.035" class="st90" style="stroke-width:.867614"/><path id="path212" d="M700.554 534.349v35.919c11.044-2.63 18.94-9.665 18.94-17.925v-36.11c-4.79 4.06-11.384 7.07-18.94 8.45z" class="st90" style="stroke-width:.867614"/><path id="path213" d="M690.515 571.37c-.382 0-.755-.018-1.128-.035.373.017.755.026 1.128.035" class="st87" style="stroke-width:.867614"/><path id="path214" d="M700.554 570.337v-.07a42 42 0 0 1-7.766 1.068 41 41 0 0 0 7.766-.998" class="st87" style="stroke-width:.867614"/><path id="path215" d="M691.227 571.378c.147 0 .286-.009.425-.009-.191 0-.382.01-.573.01z" class="st87" style="stroke-width:.867614"/><path id="path216" d="M691.227 525.525c-3.332 0-6.55-.312-9.614-.894-7.591-1.431-14.194-4.511-18.94-8.65v36.362c0 8.268 7.904 15.296 18.94 17.925 2.456.581 5.059.945 7.766 1.067.373.017.754.026 1.128.035.19 0 .381.009.572.009s.382 0 .573-.01c.382 0 .755-.017 1.128-.034a40.4 40.4 0 0 0 7.765-1.067v-45.585a51.7 51.7 0 0 1-9.327.833z" class="st87" style="stroke-width:.867614"/><path id="path217" d="M700.554 520.293v4.399c7.556-1.38 14.159-4.39 18.94-8.45v-6.004c-3.957 4.78-10.759 8.45-18.94 10.055" class="st93" style="stroke-width:.867614"/><path id="path218" d="M700.554 453.2v67.093c8.181-1.605 14.983-5.275 18.94-10.055V453.2z" class="st90" style="stroke-width:.867614"/><path id="path219" d="M681.613 520.232c-8.26-1.674-15.079-5.457-18.94-10.368v6.117c4.746 4.139 11.349 7.219 18.94 8.65z" class="st93" style="stroke-width:.867614"/><path id="path220" d="M681.613 520.232v4.4c3.063.58 6.29.893 9.614.893 3.323 0 6.35-.295 9.327-.833v-4.399c-2.95.581-6.082.894-9.327.894s-6.577-.339-9.614-.955" class="st93" style="stroke-width:.867614"/><path id="path221" d="M681.613 453.2h-18.94v56.673c3.87 4.902 10.68 8.685 18.94 10.368a48.4 48.4 0 0 0 9.614.954 47.5 47.5 0 0 0 9.327-.893v-67.093h-18.94z" class="st87" style="stroke-width:.867614"/><ellipse id="ellipse221" cx="691.227" cy="452.376" class="st26" rx="28.562" ry="19.035" style="stroke-width:.867614"/><path id="path222" d="m710.922 451.266-.183-.39a6.8 6.8 0 0 0-1.04-2.204l-5.614-11.87h-25.69l-5.614 11.87a6.8 6.8 0 0 0-1.041 2.203l-.182.39h.095c-.06.33-.095.669-.095 1.016 0 5.717 8.815 10.36 19.686 10.36s19.686-4.643 19.686-10.36a6 6 0 0 0-.095-1.015h.095z" class="st59" style="stroke-width:.867614"/><path id="path223" d="M691.227 445.002c-6.603 0-11.982-3.68-11.982-8.19 0-4.512 5.37-8.191 11.982-8.191 6.61 0 11.981 3.679 11.981 8.19 0 4.512-5.37 8.19-11.981 8.19" class="st94" style="stroke-width:.867614"/><path id="path224" d="M691.227 429.48c6.02 0 11.114 3.358 11.114 7.323s-5.084 7.322-11.114 7.322-11.114-3.357-11.114-7.322 5.084-7.323 11.114-7.323m0-1.735c-7.097 0-12.85 4.06-12.85 9.058 0 4.997 5.753 9.058 12.85 9.058s12.849-4.06 12.849-9.058-5.752-9.058-12.85-9.058" class="st15" style="stroke-width:.867614"/><path id="line224" d="M691.227 402.332v34.479" class="st30"/><circle id="circle224" cx="691.227" cy="401.751" r="1.9" class="st36" style="stroke-width:.867614"/><path id="polygon227" d="M536.22 648.95V544.79l-9.34-3.5v101.5z" class="st86" transform="translate(210.36 .584)scale(.86761)"/><rect id="rect227" width="3.47" height="19.669" x="669.805" y="475.706" class="st62" rx="1.735" ry="1.735" style="stroke-width:.867614"/><rect id="rect228" width="3.47" height="16.988" x="669.805" y="499.245" class="st62" rx="1.735" ry="1.735" style="stroke-width:.867614"/><rect id="rect229" width="3.47" height="16.988" x="669.805" y="519.773" class="st62" rx="1.735" ry="1.735" style="stroke-width:.867614"/><rect id="rect230" width="3.47" height="15.374" x="669.805" y="540.89" class="st62" rx="1.735" ry="1.735" style="stroke-width:.867614"/><path id="polygon231" d="M1153.53 540.92h18.23l-.23 35.11-18-1.33z" class="st81" transform="translate(210.36 .584)scale(.86761)"/><path id="polygon232" d="M1153.53 540.92h18.23l2.44-19.78-10.44-4z" class="st15" transform="translate(210.36 .584)scale(.86761)"/><path id="line232" d="M1254.039 594.821v34.471" class="st30"/><path id="path232" d="M1264.52 594.821c-4.642 3.315-8.086 5.718-9.058 6.351a2.5 2.5 0 0 1-1.136.434c-.868.095-1.519-.312-1.7-.434q-5.132-3.538-10.247-7.088a4.6 4.6 0 0 1-1.302-1.735 4.7 4.7 0 0 1-.364-2.17c0-2.047 0-4.095-.01-6.142h27.555v5.787a5.7 5.7 0 0 1-1.084 3.01 5.6 5.6 0 0 1-2.655 1.987z" class="st9" style="stroke-width:.867614"/><path id="path233" d="M1269.483 574.632v8.797c0 3.532-6.767 6.386-15.114 6.386-8.346 0-15.114-2.863-15.114-6.386v-8.797h30.22z" class="st34" style="stroke-width:.867614"/><path id="path234" d="M1263.791 579.326a41 41 0 0 1-7.765.997 40.4 40.4 0 0 0 7.765-1.067z" class="st90" style="stroke-width:.867614"/><path id="path235" d="M1254.465 580.367h-.148c.19 0 .382 0 .573-.01-.148 0-.287.01-.426.01" class="st90" style="stroke-width:.867614"/><path id="path236" d="M1252.617 580.323c.373.018.754.026 1.127.035-.381 0-.754-.017-1.127-.035" class="st90" style="stroke-width:.867614"/><path id="path237" d="M1244.851 543.337v35.919c-11.044-2.629-18.94-9.665-18.94-17.925v-36.11c4.79 4.06 11.383 7.071 18.94 8.45z" class="st90" style="stroke-width:.867614"/><path id="path238" d="M1254.898 580.358c.382 0 .755-.017 1.128-.035-.373.018-.755.026-1.128.035" class="st87" style="stroke-width:.867614"/><path id="path239" d="M1244.851 579.326v-.07c2.456.582 5.058.946 7.765 1.067a41 41 0 0 1-7.765-.997" class="st87" style="stroke-width:.867614"/><path id="path240" d="M1254.178 580.367c-.147 0-.286-.01-.425-.01.19 0 .382.01.573.01z" class="st87" style="stroke-width:.867614"/><path id="path241" d="M1254.178 534.513c3.332 0 6.55-.312 9.613-.893 7.592-1.432 14.195-4.512 18.94-8.65v36.361c0 8.269-7.904 15.296-18.94 17.925a42 42 0 0 1-7.765 1.067c-.373.018-.755.026-1.128.035-.19 0-.381.01-.572.01s-.382 0-.573-.01c-.382 0-.755-.017-1.128-.035a40.4 40.4 0 0 1-7.765-1.067v-45.584c2.976.546 6.1.833 9.327.833z" class="st87" style="stroke-width:.867614"/><path id="path242" d="M1244.851 529.282v4.398c-7.557-1.38-14.16-4.39-18.94-8.45v-6.004c3.957 4.78 10.759 8.45 18.94 10.056" class="st93" style="stroke-width:.867614"/><path id="path243" d="M1244.851 540.56v4.4c-7.557-1.38-14.16-4.39-18.94-8.451v-6.004c3.957 4.78 10.759 8.45 18.94 10.056" class="st93" style="stroke-width:.867614"/><path id="path244" d="M1244.851 462.18v67.093c-8.181-1.605-14.983-5.275-18.94-10.056V462.18z" class="st90" style="stroke-width:.867614"/><path id="path245" d="M1263.791 529.22c8.26-1.674 15.08-5.456 18.94-10.367v6.117c-4.745 4.138-11.348 7.218-18.94 8.65z" class="st93" style="stroke-width:.867614"/><path id="path246" d="M1263.791 529.22v4.4c-3.062.581-6.29.893-9.613.893s-6.35-.295-9.327-.833v-4.398c2.95.58 6.082.893 9.327.893s6.577-.338 9.613-.954" class="st93" style="stroke-width:.867614"/><path id="path247" d="M1263.791 462.18h18.94v56.682c-3.87 4.902-10.68 8.684-18.94 10.368a48.4 48.4 0 0 1-9.613.954 47.5 47.5 0 0 1-9.327-.894v-67.092h18.94z" class="st87" style="stroke-width:.867614"/><ellipse id="ellipse247" cx="1254.178" cy="461.365" class="st26" rx="28.562" ry="19.035" style="stroke-width:.867614"/><path id="path248" d="m1234.492 460.254.182-.39q.3-1.148 1.041-2.204l5.614-11.869h25.69l5.613 11.87a6.8 6.8 0 0 1 1.041 2.203l.183.39h-.096c.06.33.096.668.096 1.015 0 5.718-8.815 10.36-19.687 10.36-10.87 0-19.686-4.642-19.686-10.36 0-.338.035-.676.095-1.015h-.095z" class="st59" style="stroke-width:.867614"/><path id="path249" d="M1254.178 453.99c-6.602 0-11.982-3.679-11.982-8.19 0-4.512 5.371-8.19 11.982-8.19s11.982 3.678 11.982 8.19-5.37 8.19-11.982 8.19" class="st94" style="stroke-width:.867614"/><path id="path250" d="M1254.178 438.468c6.021 0 11.114 3.358 11.114 7.323s-5.084 7.323-11.114 7.323-11.114-3.358-11.114-7.323 5.084-7.323 11.114-7.323m0-1.735c-7.097 0-12.85 4.06-12.85 9.058s5.753 9.058 12.85 9.058 12.85-4.06 12.85-9.058c0-4.997-5.753-9.058-12.85-9.058" class="st15" style="stroke-width:.867614"/><path id="line250" d="M1254.178 411.321v34.47" class="st30"/><circle id="circle250" cx="1254.178" cy="410.74" r="1.9" class="st36" style="stroke-width:.867614"/><path id="polygon253" d="M1221.12 659.31V555.14l9.33-3.5v101.5z" class="st86" transform="translate(210.36 .584)scale(.86761)"/><rect id="rect253" width="3.47" height="19.669" x="-1275.604" y="-504.355" class="st62" rx="1.735" ry="1.735" style="stroke-width:.867614" transform="scale(-1)"/><rect id="rect254" width="3.47" height="16.988" x="-1275.604" y="-525.221" class="st62" rx="1.735" ry="1.735" style="stroke-width:.867614" transform="scale(-1)"/><rect id="rect255" width="3.47" height="16.988" x="-1275.604" y="-545.753" class="st62" rx="1.735" ry="1.735" style="stroke-width:.867614" transform="scale(-1)"/><rect id="rect256" width="3.47" height="15.374" x="-1275.604" y="-565.251" class="st62" rx="1.735" ry="1.735" style="stroke-width:.867614" transform="scale(-1)"/><path id="path258" d="M1218.962 672.985c.555-4.191 4.477-30.402 27.616-45.403 21.664-14.046 51.363-12.571 74.329 4.052v41.36h-101.945Z" class="st16" style="stroke-width:.867614"/><path id="path294" d="M933.708 364.21a102 102 0 0 1-5.406-2.196c-1.136-.503-2.412.347-2.412 1.588 0 .685.4 1.31 1.033 1.588 1.822.798 3.67 1.553 5.561 2.256 1.137.425 2.351-.4 2.351-1.614 0-.738-.45-1.371-1.128-1.631z" class="st77" style="stroke-width:.867614"/><path id="path295" d="M952.639 369.354a108 108 0 0 1-10.733-2.455c-1.11-.312-2.212.503-2.212 1.657a1.73 1.73 0 0 0 1.25 1.666 112 112 0 0 0 11.105 2.542 1.737 1.737 0 0 0 2.021-1.71c0-.85-.607-1.56-1.431-1.708z" class="st77" style="stroke-width:.867614"/><path id="path296" d="M1014.266 362.908a110 110 0 0 1-6.447 2.42 1.73 1.73 0 0 0-1.18 1.64 1.737 1.737 0 0 0 2.3 1.64 110 110 0 0 0 6.645-2.49 1.73 1.73 0 0 0 1.067-1.605c0-1.232-1.249-2.074-2.386-1.605" class="st77" style="stroke-width:.867614"/><path id="path297" d="M999.62 367.732c-3.895.98-7.895 1.752-11.982 2.308a1.72 1.72 0 0 0-1.5 1.709c0 1.05.92 1.865 1.952 1.726 4.225-.572 8.363-1.37 12.39-2.385a1.73 1.73 0 0 0 1.3-1.684 1.732 1.732 0 0 0-2.169-1.674z" class="st77" style="stroke-width:.867614"/><path id="path298" d="M942.878 376.712a107 107 0 0 1-11.366-3.8c-1.127-.452-2.35.39-2.35 1.605 0 .711.424 1.344 1.084 1.613a110 110 0 0 0 11.739 3.93c1.093.296 2.169-.537 2.169-1.674 0-.79-.53-1.466-1.276-1.674" class="st77" style="stroke-width:.867614"/><path id="path299" d="M955.016 379.288c-.234-.034-.46-.069-.694-.112a1.734 1.734 0 0 0-2.022 1.709c0 .85.616 1.579 1.45 1.718.251.043.503.078.763.121a1.737 1.737 0 0 0 .512-3.436z" class="st77" style="stroke-width:.867614"/><path id="path300" d="M986.78 379.696c-1.71.217-3.445.4-5.18.538a1.733 1.733 0 0 0-1.605 1.727c0 1.015.859 1.822 1.865 1.735 1.813-.148 3.6-.338 5.38-.564a1.73 1.73 0 0 0 1.5-1.718c0-1.05-.92-1.848-1.96-1.718" class="st77" style="stroke-width:.867614"/><path id="path301" d="M1012.851 373.024a106.5 106.5 0 0 1-14.393 4.53 1.72 1.72 0 0 0-1.328 1.674v.017c0 1.11 1.033 1.944 2.117 1.683a109 109 0 0 0 14.871-4.694 1.73 1.73 0 0 0 1.085-1.613c0-1.215-1.224-2.057-2.343-1.614z" class="st77" style="stroke-width:.867614"/><path id="path302" d="M907.445 395.539a112 112 0 0 1-9.344-6.403c-1.137-.868-2.768-.052-2.768 1.37 0 .539.252 1.06.685 1.389a115 115 0 0 0 9.614 6.585c1.153.712 2.646-.113 2.646-1.475 0-.607-.313-1.154-.825-1.475z" class="st77" style="stroke-width:.867614"/><path id="path303" d="M1050.54 385.952a110 110 0 0 1-10.48 7.782c-.486.321-.781.86-.781 1.44 0 1.389 1.536 2.213 2.69 1.45a116 116 0 0 0 10.792-8.017c.391-.33.617-.825.617-1.336 0-1.467-1.71-2.265-2.838-1.32" class="st77" style="stroke-width:.867614"/><path id="path304" d="M1011.446 410.002c0-1.163-1.128-1.987-2.247-1.648a124 124 0 0 1-15.609 3.635 1.724 1.724 0 0 0-1.449 1.7c0 1.068.955 1.892 2.005 1.718 5.5-.92 10.87-2.177 16.068-3.748a1.73 1.73 0 0 0 1.223-1.666z" class="st77" style="stroke-width:.867614"/><path id="path305" d="M957.558 412.9a128 128 0 0 1-15.539-2.76 1.73 1.73 0 0 0-2.151 1.675c0 .799.546 1.501 1.318 1.692a130 130 0 0 0 15.982 2.837c1.024.122 1.926-.694 1.926-1.726a1.73 1.73 0 0 0-1.544-1.718z" class="st77" style="stroke-width:.867614"/><path id="path306" d="m886.423 379.124-.035-.035c-1.033-1.059-2.82-.338-2.82 1.145v.234c0 .434.165.85.469 1.163l.034.035c1.033 1.05 2.82.312 2.82-1.163v-.234c0-.425-.165-.833-.468-1.145" class="st77" style="stroke-width:.867614"/><path id="path307" d="M952.387 419.78a115 115 0 0 1-6.533-1.38c-1.102-.268-2.16.547-2.16 1.675 0 .798.546 1.501 1.319 1.692a109 109 0 0 0 6.767 1.431 1.732 1.732 0 0 0 2.03-1.709c0-.85-.607-1.561-1.431-1.709z" class="st77" style="stroke-width:.867614"/><path id="path308" d="M926.775 411.876v-4.841a2.46 2.46 0 0 0-1.544-2.273l-1.718-.703c-1.614-.677-3.392.503-3.392 2.247v4.711c0 .928.52 1.787 1.353 2.195.599.295 1.197.582 1.805.868 1.622.763 3.488-.425 3.488-2.221z" class="st77" style="stroke-width:.867614"/><path id="path309" d="M905.51 401.482a117 117 0 0 1-5.266-3.713c-1.18-.885-2.855 0-2.777 1.475.026.512.278.997.694 1.301a117 117 0 0 0 5.414 3.818c1.189.79 2.777-.113 2.699-1.536a1.73 1.73 0 0 0-.773-1.345z" class="st77" style="stroke-width:.867614"/><path id="path310" d="M1007.394 418.305c0-1.171-1.137-1.995-2.256-1.648-2.082.642-4.19 1.223-6.316 1.744-.78.19-1.327.876-1.327 1.674 0 1.12 1.04 1.96 2.134 1.692a118 118 0 0 0 6.55-1.796 1.74 1.74 0 0 0 1.224-1.666z" class="st77" style="stroke-width:.867614"/><path id="path311" d="m1059.59 377.71-.035.034a1.77 1.77 0 0 0-.486 1.223v1.987c.01 1.666 2.108 2.42 3.158 1.128.017-.017.026-.034.043-.052.26-.32.399-.729.399-1.145v-1.978c-.017-1.605-1.978-2.369-3.08-1.206z" class="st77" style="stroke-width:.867614"/><path id="path312" d="M1023.965 402.836a2.36 2.36 0 0 0-1.405 2.143l-.061 4.71h-.01c0 1.788 1.909 2.95 3.488 2.109 1.414-.746 2.82-1.518 4.199-2.325a2.39 2.39 0 0 0 1.18-2.065v-4.26a2.373 2.373 0 0 0-3.401-2.143 157 157 0 0 1-3.982 1.83z" class="st77" style="stroke-width:.867614"/><path id="path313" d="M971.535 417.576v3.48a3.904 3.904 0 0 0 4 3.904h.104a3.9 3.9 0 0 0 3.8-3.905v-3.479a3.913 3.913 0 0 0-3.99-3.904h-.105a3.904 3.904 0 0 0-3.817 3.904z" class="st77" style="stroke-width:.867614"/><path id="path314" d="M1048.337 395.227a124 124 0 0 1-4.625 3.565 1.7 1.7 0 0 0-.702 1.285c-.087 1.466 1.579 2.377 2.759 1.51a121 121 0 0 0 4.745-3.662c.382-.312.608-.764.642-1.25.087-1.51-1.648-2.394-2.82-1.448" class="st77" style="stroke-width:.867614"/><path id="path315" d="M944.197 450.346a163.5 163.5 0 0 1-22.116-5.258c-1.396-.433-2.82.59-2.82 2.057 0 .945.608 1.787 1.51 2.065a168 168 0 0 0 22.74 5.405 2.163 2.163 0 0 0 .694-4.269z" class="st77" style="stroke-width:.867614"/><path id="path316" d="M903.966 438.165c-.625-.287-1.258-.582-1.874-.877-1.432-.676-3.08.365-3.08 1.944 0 .833.477 1.596 1.223 1.952.642.304 1.284.607 1.935.902 1.431.651 3.054-.39 3.054-1.96 0-.842-.495-1.605-1.267-1.961z" class="st77" style="stroke-width:.867614"/><path id="path317" d="M861.878 407.894a103 103 0 0 1-5.544-6.733c-1.25-1.657-3.879-.798-3.879 1.275 0 .478.148.937.434 1.31a106 106 0 0 0 5.77 7.002c1.327 1.475 3.774.555 3.774-1.423 0-.529-.2-1.032-.547-1.431z" class="st77" style="stroke-width:.867614"/><path id="path318" d="M958.47 452.099c-1.38-.113-2.76-.243-4.122-.382a2.164 2.164 0 0 0-2.403 2.152c0 1.11.833 2.047 1.935 2.16q2.121.221 4.268.39c1.258.105 2.334-.902 2.334-2.169a2.174 2.174 0 0 0-2.004-2.16z" class="st77" style="stroke-width:.867614"/><path id="path319" d="m871.95 417.793-.615-.538c-1.388-1.214-3.558-.225-3.558 1.623 0 .616.26 1.206.73 1.613.208.183.407.365.615.538 1.397 1.215 3.575.235 3.575-1.613 0-.625-.278-1.215-.746-1.623" class="st77" style="stroke-width:.867614"/><path id="path320" d="M1029.05 443.249c-1.432.503-2.88.998-4.338 1.466a2.13 2.13 0 0 0-1.484 2.022v.078c0 1.431 1.397 2.473 2.759 2.03 1.51-.486 3.01-.998 4.503-1.518a2.135 2.135 0 0 0 1.414-2.013v-.06c0-1.476-1.466-2.49-2.854-1.996z" class="st77" style="stroke-width:.867614"/><path id="path321" d="M1071.892 419.286c-.512.425-1.023.85-1.544 1.266a2.1 2.1 0 0 0-.798 1.666c0 1.805 2.09 2.82 3.496 1.683a60 60 0 0 0 1.614-1.327 2.14 2.14 0 0 0 .772-1.657c0-1.831-2.134-2.811-3.54-1.64z" class="st77" style="stroke-width:.867614"/><path id="path322" d="M1089.054 401.439a105 105 0 0 1-5.978 7.175 2.16 2.16 0 0 0-.564 1.44c0 1.978 2.42 2.89 3.757 1.432a106 106 0 0 0 6.212-7.444c.286-.382.442-.842.442-1.32 0-2.073-2.62-2.94-3.87-1.292z" class="st77" style="stroke-width:.867614"/><path id="path323" d="M1040.728 438.573c-.816.364-1.631.728-2.456 1.075a2.11 2.11 0 0 0-1.31 1.979 2.154 2.154 0 0 0 3.01 1.978q1.266-.546 2.517-1.102a2.16 2.16 0 0 0 1.267-1.97 2.15 2.15 0 0 0-3.037-1.96z" class="st77" style="stroke-width:.867614"/><path id="path324" d="M969.184 463.048a165 165 0 0 1-21.829-1.909 2.16 2.16 0 0 0-2.507 2.135c0 1.067.772 1.978 1.822 2.143a170 170 0 0 0 22.436 1.969 2.17 2.17 0 0 0 2.204-2.169 2.167 2.167 0 0 0-2.126-2.169" class="st77" style="stroke-width:.867614"/><path id="path325" d="M990.883 462.11c-4.225.46-8.502.764-12.832.903a2.167 2.167 0 0 0-2.108 2.16 2.174 2.174 0 0 0 2.23 2.178c4.46-.138 8.858-.45 13.205-.928a2.177 2.177 0 0 0 1.926-2.16 2.17 2.17 0 0 0-2.412-2.152z" class="st77" style="stroke-width:.867614"/><path id="path326" d="M919.262 455.656c0-.92-.573-1.727-1.432-2.039a152 152 0 0 1-13.838-5.778c-1.432-.686-3.089.364-3.089 1.96a2.17 2.17 0 0 0 1.232 1.961 157 157 0 0 0 14.22 5.935c1.423.512 2.915-.53 2.915-2.03z" class="st77" style="stroke-width:.867614"/><path id="path327" d="M1079.692 421.29a132 132 0 0 1-7.41 6.802 2.16 2.16 0 0 0-.763 1.63c0 1.84 2.152 2.847 3.549 1.667a135 135 0 0 0 7.67-7.045c.407-.408.633-.963.633-1.536 0-1.926-2.317-2.872-3.687-1.518z" class="st77" style="stroke-width:.867614"/><path id="path328" d="M1014.031 457.877a159 159 0 0 1-14.715 3.097 2.16 2.16 0 0 0-1.821 2.135c0 1.336 1.188 2.36 2.498 2.143 5.145-.833 10.186-1.9 15.123-3.184a2.164 2.164 0 0 0 1.614-2.1c0-1.406-1.328-2.455-2.69-2.1z" class="st77" style="stroke-width:.867614"/><path id="path329" d="M869.539 424.751a129 129 0 0 1-4.295-4.13c-1.397-1.405-3.687-.39-3.687 1.528a2.2 2.2 0 0 0 .624 1.535 128 128 0 0 0 4.425 4.252c1.38 1.266 3.627.277 3.627-1.605a2.13 2.13 0 0 0-.703-1.588z" class="st77" style="stroke-width:.867614"/><path id="path330" d="M1037.986 449.513a160 160 0 0 1-8.425 3.453 2.17 2.17 0 0 0-1.405 2.022c0 1.527 1.518 2.56 2.941 2.03a158 158 0 0 0 8.65-3.54 2.17 2.17 0 0 0 1.284-1.987c0-1.561-1.605-2.611-3.028-1.978z" class="st77" style="stroke-width:.867614"/><path id="path331" d="M692.574 518.544c6.802-.06 13.023-1.71 17.899-4.399a1.67 1.67 0 0 0 .85-1.475c0-1.292-1.38-2.09-2.508-1.475-4.364 2.369-10.047 3.827-16.276 3.879h-.764a1.69 1.69 0 0 0-1.709 1.691v.087a1.7 1.7 0 0 0 1.657 1.7h.842z" class="st62" style="stroke-width:.867614"/><path id="path332" d="M711.331 519.29c0-1.292-1.37-2.108-2.524-1.518-4.356 2.238-10.039 3.323-16.268 3.375-.66 0-1.319-.01-1.97-.043a1.713 1.713 0 0 0-1.796 1.717v.035c0 .92.72 1.683 1.64 1.727.59.026 1.18.043 1.77.043h.39c6.785-.06 13.006-1.206 17.882-3.826.547-.295.876-.876.876-1.501z" class="st62" style="stroke-width:.867614"/><path id="path333" d="M1251.827 498.065c-6.802-.06-13.023-1.71-17.899-4.399a1.67 1.67 0 0 1-.85-1.475c0-1.293 1.38-2.09 2.507-1.475 4.364 2.369 10.047 3.826 16.277 3.878h.763a1.69 1.69 0 0 1 1.71 1.692v.087a1.7 1.7 0 0 1-1.658 1.7h-.841z" class="st62" style="stroke-width:.867614"/><path id="path334" d="M1233.07 498.811c0-1.293 1.37-2.108 2.524-1.518 4.355 2.238 10.038 3.323 16.268 3.375.659 0 1.318-.01 1.97-.044a1.713 1.713 0 0 1 1.795 1.718v.035c0 .92-.72 1.683-1.64 1.726-.59.026-1.18.044-1.77.044h-.39c-6.785-.06-13.006-1.206-17.882-3.826a1.7 1.7 0 0 1-.876-1.501z" class="st62" style="stroke-width:.867614"/><path id="path335" d="M749.105 471.993s-.017-.026-.026-.043c-.85-1.11-2.62-.52-2.62.876v3.835c0 .33.113.66.321.92.009.008.017.025.026.034.859 1.076 2.603.46 2.603-.92v-3.834c0-.321-.104-.625-.295-.877z" class="st62" style="stroke-width:.867614"/><path id="path336" d="M960.742 559.735c-15.443-.486-30.522-1.84-45.098-3.991a2.595 2.595 0 0 0-2.985 2.568v.035a2.6 2.6 0 0 0 2.221 2.577c14.88 2.186 30.167 3.54 45.706 4.017a2.61 2.61 0 0 0 2.681-2.612 2.6 2.6 0 0 0-2.525-2.594" class="st62" style="stroke-width:.867614"/><path id="path337" d="M751.7 482.422c0 .65.234 1.275.667 1.761.86.963 1.736 1.917 2.638 2.872l3.115-4.373c-.616-.66-1.215-1.327-1.814-1.995-1.613-1.805-4.607-.686-4.607 1.735" class="st62" style="stroke-width:.867614"/><path id="path338" d="M739.093 457.695c-.4-.703-.79-1.388-1.163-2.065-1.162-2.082-4.338-1.25-4.338 1.136 0 .39.096.781.287 1.128.39.72.79 1.432 1.197 2.152 1.171 2.056 4.32 1.197 4.32-1.171v-.026c0-.4-.104-.798-.303-1.146z" class="st62" style="stroke-width:.867614"/><path id="path339" d="M743.96 464.775s-.017-.026-.026-.035c-.676-1.015-2.247-.547-2.247.668v5.006c0 .26.078.503.226.711 0 .01.017.026.026.035.694.972 2.23.477 2.23-.711v-5.006c0-.243-.07-.469-.2-.668z" class="st62" style="stroke-width:.867614"/><path id="path340" d="M905.172 554.035c-4.252-.755-8.46-1.57-12.624-2.464a2.618 2.618 0 0 0-3.176 2.56c0 1.248.86 2.324 2.074 2.576a376 376 0 0 0 12.815 2.49c1.605.286 3.08-.963 3.08-2.594 0-1.276-.92-2.351-2.17-2.577z" class="st62" style="stroke-width:.867614"/><path id="path341" d="M1211.648 449.244c-4.711 10.082-11.062 19.73-18.853 28.848-.26.304-.408.694-.408 1.094v2.889c0 .347.104.685.303.963l1.232 1.778c8.572-9.465 15.522-19.451 20.771-29.81a1.75 1.75 0 0 0 .182-.782v-4.251c0-1.805-2.455-2.369-3.227-.729" class="st62" style="stroke-width:.867614"/><path id="path342" d="M1116.202 531.928a342 342 0 0 1-3.974 1.7 2.62 2.62 0 0 0-1.614 2.421c0 1.883 1.917 3.15 3.653 2.43a244 244 0 0 0 4.025-1.727 2.64 2.64 0 0 0 1.57-2.412c0-1.892-1.934-3.167-3.67-2.412z" class="st62" style="stroke-width:.867614"/><path id="path343" d="M1014.118 560.741a2.597 2.597 0 0 0-2.854-2.585 401 401 0 0 1-37.846 1.796c-1.015 0-2.03 0-3.036-.018a2.605 2.605 0 0 0-2.63 2.603 2.6 2.6 0 0 0 2.578 2.603q1.548.016 3.097.017c12.953 0 25.76-.616 38.34-1.804a2.61 2.61 0 0 0 2.351-2.594z" class="st62" style="stroke-width:.867614"/><path id="path344" d="M1102.71 537.429c-16.25 6.16-33.733 11.192-52.16 14.923a2.63 2.63 0 0 0-2.11 2.568 2.636 2.636 0 0 0 3.142 2.585c18.54-3.74 36.31-8.823 53.002-15.166a2.63 2.63 0 0 0 1.692-2.464c0-1.848-1.848-3.106-3.575-2.446z" class="st62" style="stroke-width:.867614"/><path id="path345" d="M1041.083 554.139q-1.936.34-3.887.668a2.6 2.6 0 0 0-2.203 2.585c0 1.614 1.449 2.855 3.036 2.595q1.992-.326 3.957-.677c1.31-.234 2.16-1.31 2.16-2.586a2.626 2.626 0 0 0-3.071-2.585z" class="st62" style="stroke-width:.867614"/><path id="path346" d="M1029.449 559.006a2.62 2.62 0 0 0-2.976-2.594q-1.937.26-3.887.494a2.62 2.62 0 0 0-2.3 2.595 2.62 2.62 0 0 0 2.925 2.602 622 622 0 0 0 3.973-.503c1.328-.173 2.265-1.284 2.265-2.594" class="st62" style="stroke-width:.867614"/><path id="path347" d="M887.932 561.6c0-1.232-.85-2.29-2.039-2.568-16.866-3.87-32.874-8.832-47.788-14.75-1.718-.685-3.574.6-3.574 2.447 0 1.076.65 2.048 1.648 2.447 15.322 6.09 31.581 11.114 48.552 14.992 1.64.373 3.201-.885 3.201-2.568" class="st62" style="stroke-width:.867614"/><path id="path348" d="M1044.406 562.103a380 380 0 0 1-30.618 4.408 2.615 2.615 0 0 0-2.35 2.594 2.615 2.615 0 0 0 2.87 2.603 385 385 0 0 0 31.053-4.442 2.615 2.615 0 0 0 2.134-2.577v-.026a2.6 2.6 0 0 0-3.089-2.56" class="st62" style="stroke-width:.867614"/><path id="path349" d="M752.402 486.777c-4.104-4.685-7.687-8.112-11.001-12.372-1.059-1.362-3.236-.607-3.236 1.11 0 .408.138.807.39 1.128 3.687 4.686 7.167 8.434 11.166 12.685 1.128 1.197 3.132.4 3.132-1.24v-.113c0-.443-.165-.868-.45-1.198" class="st62" style="stroke-width:.867614"/><path id="path350" d="M1116.21 540.44a276 276 0 0 1-10.429 4.311 2.62 2.62 0 0 0-1.674 2.438v.018c0 1.839 1.857 3.123 3.575 2.446a306 306 0 0 0 10.62-4.407 2.64 2.64 0 0 0 1.57-2.412c0-1.892-1.935-3.158-3.662-2.404z" class="st62" style="stroke-width:.867614"/><path id="path351" d="M910.43 594.535c-1.536-.243-3.072-.486-4.59-.738a2.62 2.62 0 0 0-3.063 2.586c0 1.275.92 2.377 2.178 2.585 1.553.26 3.123.512 4.685.755s3.01-.989 3.01-2.594a2.62 2.62 0 0 0-2.22-2.585z" class="st62" style="stroke-width:.867614"/><path id="path352" d="M753.478 516.64c-4.399-4.71-8.399-8.242-11.964-12.52-1.501-1.795-4.434-.728-4.434 1.615 0 .52.156 1.04.46 1.466 4.78 6.715 10.333 11.418 16.615 17.795v-6.638c0-.633-.243-1.258-.677-1.726z" class="st52" style="stroke-width:.867614"/><path id="path353" d="M883.56 589.312c-20.823-4.885-40.336-11.461-58.113-19.452v5.76c17.716 7.81 36.821 14.126 56.915 18.82a2.637 2.637 0 0 0 3.228-2.569 2.63 2.63 0 0 0-2.03-2.56" class="st52" style="stroke-width:.867614"/><path id="path354" d="M940.466 598.023a397 397 0 0 1-17.317-1.71 2.603 2.603 0 0 0-2.924 2.586 2.61 2.61 0 0 0 2.29 2.603 399 399 0 0 0 17.56 1.726 2.616 2.616 0 0 0 2.803-2.602c0-1.363-1.05-2.49-2.412-2.595z" class="st62" style="stroke-width:.867614"/><path id="path355" d="M1123.594 568.706c-22.62 10.724-48.292 17.56-76.073 23.061a2.63 2.63 0 0 0-2.126 2.577 2.633 2.633 0 0 0 3.133 2.586c27.79-5.432 53.896-12.216 77.313-23.452a2.63 2.63 0 0 0 1.492-2.377c0-1.935-2.004-3.21-3.74-2.386z" class="st52" style="stroke-width:.867614"/><path id="path356" d="M1202.66 502.49c-1.215 1.648-2.49 3.288-3.81 5.058-.33.434-.503.972-.503 1.518v.39c0 2.43 3.106 3.471 4.546 1.51a147 147 0 0 0 3.905-5.578c.277-.417.416-.903.416-1.406 0-2.438-3.106-3.462-4.555-1.501z" class="st52" style="stroke-width:.867614"/><path id="path357" d="M1032.963 594.37c-1.562.252-3.124.486-4.694.72a2.62 2.62 0 0 0-2.247 2.586c0 1.596 1.414 2.828 2.993 2.594s3.193-.477 4.79-.729a2.62 2.62 0 0 0 2.203-2.585c0-1.614-1.449-2.838-3.045-2.586" class="st62" style="stroke-width:.867614"/><path id="path358" d="M1016.46 596.626q-4.817.56-9.7.989a2.605 2.605 0 0 0-2.377 2.594c0 1.527 1.32 2.742 2.838 2.603a402 402 0 0 0 9.838-.998 2.61 2.61 0 0 0 2.308-2.594 2.604 2.604 0 0 0-2.906-2.594" class="st62" style="stroke-width:.867614"/><path id="polygon358" d="M660.2 732.8v33l11.66-5.67 11.5-29.83 6.84-14.5 9.16-8.67z" class="st96" transform="translate(210.36 .584)scale(.86761)"/><path id="polygon359" d="m642.2 757.63 18 8.17v-33l-23.34-12.5 5.34 7.5z" class="st7" transform="translate(210.36 .584)scale(.86761)"/><path id="polygon360" d="m626.39 562.63 1.67 144.5 8.8 13.17 23.34 12.5 9.18-6.02V585.63z" class="st50" transform="translate(210.36 .584)scale(.86761)"/><path id="polygon361" d="m686.5 549.52 5.78 6-18.89 28.44v140.87l-4.01 1.95V585.63l-42.99-23 22.14-31.36 7.97 2.47 42.86-26.67 30.92 14.67z" class="st68" transform="translate(210.36 .584)scale(.86761)"/><path id="polygon362" d="m738.44 526.35-46.61-25.94-43.3 30.86 7.97 2.47 42.86-26.67 30.92 14.67z" class="st84" transform="translate(210.36 .584)scale(.86761)"/><path id="polygon363" d="m754.28 535.3-24-13.56-43.78 27.78 5.78 6 42.22-27.3z" class="st84" transform="translate(210.36 .584)scale(.86761)"/><path id="polygon364" d="m715.61 574.16-6.67 18.25v102.44l-9.58 12.28-25.97 17.7V583.96l18.89-28.44 42.22-27.3 19.78 7.08v14z" class="st20" transform="translate(210.36 .584)scale(.86761)"/><path id="polygon365" d="m668.45 576.96-29.11-15.82 14.88-21.77 25.56 16.89z" class="st39" transform="translate(210.36 .584)scale(.86761)"/><path id="polygon366" d="m673.71 552.24-14.6 19.64-13.57-7.37 14.71-21.16z" class="st19" transform="translate(210.36 .584)scale(.86761)"/><path id="polygon367" d="m655.36 569.85-5.12-2.78 14.36-20.85 4.54 3z" class="st24" transform="translate(210.36 .584)scale(.86761)"/><path id="polygon368" d="m662.59 718.41-6.23 3.11-23-14.39 1.23-132.97 29.11 14.69z" class="st7" transform="translate(210.36 .584)scale(.86761)"/><path id="path368" d="m786.109 520.736-21.734-11.375s-.772 96.02 0 96.02 21.734 8.727 21.734 8.727v-93.364z" class="st50" style="stroke-width:.867614"/><path id="polygon369" d="m713.78 553.41-14.89 11.66-1.33-6.22 16.22-10.89z" class="st62" transform="translate(210.36 .584)scale(.86761)"/><path id="polygon370" d="M724 546.85v-5.28l-5 3.95v4.55z" class="st62" transform="translate(210.36 .584)scale(.86761)"/><path id="polygon371" d="M733.22 540.41v-4.56l-6.89 4.56v4.55z" class="st62" transform="translate(210.36 .584)scale(.86761)"/><path id="polygon372" d="M658.88 614.74v-12.78l-16.28-8.94v12.78z" class="st62" transform="translate(210.36 .584)scale(.86761)"/><path id="polygon373" d="M658.88 624.19v-4.42l-17.28-9.97v4.41z" class="st62" transform="translate(210.36 .584)scale(.86761)"/><path id="polygon374" d="M658.88 632.19v-4.42l-17.28-9.97v4.41z" class="st62" transform="translate(210.36 .584)scale(.86761)"/><path id="polygon375" d="M658.88 640.19v-4.42l-17.28-9.97v4.41z" class="st62" transform="translate(210.36 .584)scale(.86761)"/><path id="polygon376" d="M658.88 648.19v-4.42l-17.28-9.97v4.41z" class="st62" transform="translate(210.36 .584)scale(.86761)"/><path id="polygon377" d="M658.88 656.19v-4.42l-17.28-9.97v4.41z" class="st62" transform="translate(210.36 .584)scale(.86761)"/><path id="polygon378" d="M658.88 664.19v-4.42l-17.28-9.97v4.41z" class="st62" transform="translate(210.36 .584)scale(.86761)"/><path id="polygon379" d="M658.88 672.19v-4.42l-17.28-9.97v4.41z" class="st62" transform="translate(210.36 .584)scale(.86761)"/><path id="polygon380" d="M658.88 680.19v-4.42l-17.28-9.97v4.41z" class="st62" transform="translate(210.36 .584)scale(.86761)"/><path id="polygon381" d="M658.88 688.19v-4.42l-17.28-9.97v4.41z" class="st62" transform="translate(210.36 .584)scale(.86761)"/><path id="polygon382" d="M658.88 696.19v-4.42l-17.28-9.97v4.41z" class="st62" transform="translate(210.36 .584)scale(.86761)"/><path id="polygon383" d="m663.6 632.99 7.34 3.64 29.33-18.83v5.33L671.1 641.8l-7.5-4.34z" class="st7" transform="translate(210.36 .584)scale(.86761)"/><path id="polygon384" d="m663.6 647.38 7.34 3.64 22.83-13.5v5.33l-22.67 13.34-7.5-4.34z" class="st7" transform="translate(210.36 .584)scale(.86761)"/><path id="polygon385" d="m663.6 663.38 7.34 3.64 15.66-9.22v5.33l-15.5 9.06-7.5-4.34z" class="st7" transform="translate(210.36 .584)scale(.86761)"/><path id="polygon386" d="M704.44 594.46v-6.5L684.1 600.3v6.5z" class="st7" transform="translate(210.36 .584)scale(.86761)"/><path id="polygon387" d="M704.44 605.46v-6.5L684.1 611.3v6.5z" class="st7" transform="translate(210.36 .584)scale(.86761)"/><path id="polygon388" d="M699.02 678.07v-6.5l-20.33 12.34v6.5z" class="st7" transform="translate(210.36 .584)scale(.86761)"/><path id="polygon389" d="M706.94 688.3v-6.5l-20.34 12.33v6.5z" class="st7" transform="translate(210.36 .584)scale(.86761)"/><path id="polygon390" d="M1105.64 736.51v33l-11.67-5.67-11.5-29.83-6.83-14.5-9.17-8.67z" class="st96" transform="translate(210.36 .584)scale(.86761)"/><path id="polygon391" d="m1123.64 761.34-18 8.17v-33l23.33-12.5-5.33 7.5z" class="st7" transform="translate(210.36 .584)scale(.86761)"/><path id="polygon392" d="m1139.45 566.34-1.67 144.5-8.81 13.17-23.33 12.5-9.18-6.02V589.34z" class="st50" transform="translate(210.36 .584)scale(.86761)"/><path id="polygon393" d="m1079.34 553.23-5.78 6 18.89 28.45v140.86l4.01 1.95V589.34l42.99-23-22.14-31.36-7.97 2.47-42.87-26.66-30.91 14.66z" class="st68" transform="translate(210.36 .584)scale(.86761)"/><path id="polygon394" d="m1027.4 530.06 46.6-25.94 43.31 30.86-7.97 2.47-42.87-26.66-30.91 14.66z" class="st84" transform="translate(210.36 .584)scale(.86761)"/><path id="polygon395" d="m1011.56 539.01 24-13.56 43.78 27.78-5.78 6-42.22-27.3z" class="st84" transform="translate(210.36 .584)scale(.86761)"/><path id="polygon396" d="m1050.22 577.88 6.67 18.24v102.44l9.58 12.28 25.98 17.7V587.68l-18.89-28.45-42.22-27.3-19.78 7.08v14z" class="st20" transform="translate(210.36 .584)scale(.86761)"/><path id="polygon397" d="m1097.39 580.67 29.11-15.81-14.89-21.78-25.55 16.89z" class="st39" transform="translate(210.36 .584)scale(.86761)"/><path id="polygon398" d="m1092.13 555.96 14.6 19.64 13.57-7.37-14.71-21.17z" class="st19" transform="translate(210.36 .584)scale(.86761)"/><path id="polygon399" d="m1110.48 573.56 5.11-2.78-14.35-20.85-4.54 3z" class="st24" transform="translate(210.36 .584)scale(.86761)"/><path id="polygon400" d="m1103.25 722.12 6.22 3.11 23-14.39-1.22-132.96-29.11 14.68z" class="st7" transform="translate(210.36 .584)scale(.86761)"/><path id="path400" d="m1166.67 523.954 21.734-11.374s.772 96.019 0 96.019-21.733 8.728-21.733 8.728v-93.364z" class="st50" style="stroke-width:.867614"/><path id="polygon401" d="m1052.06 557.12 14.89 11.67 1.33-6.23-16.22-10.88z" class="st62" transform="translate(210.36 .584)scale(.86761)"/><path id="polygon402" d="M1041.84 550.56v-5.28l5 3.95v4.56z" class="st62" transform="translate(210.36 .584)scale(.86761)"/><path id="polygon403" d="M1032.61 544.12v-4.56l6.89 4.56v4.56z" class="st62" transform="translate(210.36 .584)scale(.86761)"/><path id="polygon404" d="M1106.95 618.45v-12.77l16.28-8.95v12.78z" class="st62" transform="translate(210.36 .584)scale(.86761)"/><path id="polygon405" d="M1106.95 627.9v-4.42l17.28-9.97v4.42z" class="st62" transform="translate(210.36 .584)scale(.86761)"/><path id="polygon406" d="M1106.95 635.9v-4.42l17.28-9.97v4.42z" class="st62" transform="translate(210.36 .584)scale(.86761)"/><path id="polygon407" d="M1106.95 643.9v-4.42l17.28-9.97v4.42z" class="st62" transform="translate(210.36 .584)scale(.86761)"/><path id="polygon408" d="M1106.95 651.9v-4.42l17.28-9.97v4.42z" class="st62" transform="translate(210.36 .584)scale(.86761)"/><path id="polygon409" d="M1106.95 659.9v-4.42l17.28-9.97v4.42z" class="st62" transform="translate(210.36 .584)scale(.86761)"/><path id="polygon410" d="M1106.95 667.9v-4.42l17.28-9.97v4.42z" class="st62" transform="translate(210.36 .584)scale(.86761)"/><path id="polygon411" d="M1106.95 675.9v-4.42l17.28-9.97v4.42z" class="st62" transform="translate(210.36 .584)scale(.86761)"/><path id="polygon412" d="M1106.95 683.9v-4.42l17.28-9.97v4.42z" class="st62" transform="translate(210.36 .584)scale(.86761)"/><path id="polygon413" d="M1106.95 691.9v-4.42l17.28-9.97v4.42z" class="st62" transform="translate(210.36 .584)scale(.86761)"/><path id="polygon414" d="M1106.95 699.9v-4.42l17.28-9.97v4.42z" class="st62" transform="translate(210.36 .584)scale(.86761)"/><path id="polygon415" d="m1102.23 636.7-7.33 3.64-29.34-18.83v5.33l29.17 18.67 7.5-4.33z" class="st7" transform="translate(210.36 .584)scale(.86761)"/><path id="polygon416" d="m1102.23 651.09-7.33 3.64-22.84-13.5v5.33l22.67 13.34 7.5-4.34z" class="st7" transform="translate(210.36 .584)scale(.86761)"/><path id="polygon417" d="m1102.23 667.09-7.33 3.64-15.67-9.22v5.33l15.5 9.06 7.5-4.34z" class="st7" transform="translate(210.36 .584)scale(.86761)"/><path id="polygon418" d="M1061.4 598.18v-6.5l20.33 12.33v6.5z" class="st7" transform="translate(210.36 .584)scale(.86761)"/><path id="polygon419" d="M1061.4 609.18v-6.5l20.33 12.33v6.5z" class="st7" transform="translate(210.36 .584)scale(.86761)"/><path id="polygon420" d="M1066.81 681.79v-6.5l20.34 12.33v6.5z" class="st7" transform="translate(210.36 .584)scale(.86761)"/><path id="polygon421" d="M1058.9 692.01v-6.5l20.33 12.33v6.5z" class="st7" transform="translate(210.36 .584)scale(.86761)"/><path id="path421" d="M1117.017 672.985c.599-2.733 5.423-25.586 25.595-35.859 21.62-11.01 42.244-1.085 44.396 0 .512-3.071 6.403-35.26 34.123-48.005 26.662-12.268 62.434-1.449 82.137 28.345.061-1.206.616-9.396 7.522-14.463 4.035-2.959 8.251-3.393 10.125-3.47v73.46c-67.96-.867-135.929.868-203.889 0z" class="st18" style="stroke-width:.867614"/><path id="path422" d="M966.495 719.775c2.455.564 5.058.902 7.765.998a40.4 40.4 0 0 1-7.765-1.067z" class="st90" style="stroke-width:.867614"/><path id="path423" d="M975.822 720.816h.147c-.19 0-.382 0-.573-.009.148 0 .287.01.425.01" class="st90" style="stroke-width:.867614"/><path id="path424" d="M977.67 720.773a47 47 0 0 1-1.128.034c.381 0 .754-.017 1.128-.034" class="st90" style="stroke-width:.867614"/><path id="path425" d="M985.435 683.786v35.92c11.044-2.63 18.94-9.666 18.94-17.925v-36.11c-4.79 4.06-11.383 7.07-18.94 8.45z" class="st90" style="stroke-width:.867614"/><path id="path426" d="M975.396 720.807c-.381 0-.754-.017-1.128-.034.374.017.755.026 1.128.034" class="st87" style="stroke-width:.867614"/><path id="path427" d="M985.435 719.775v-.07a42 42 0 0 1-7.765 1.068 41 41 0 0 0 7.765-.998" class="st87" style="stroke-width:.867614"/><path id="path428" d="M976.108 720.816c.147 0 .286-.009.425-.009-.19 0-.382.01-.573.01z" class="st87" style="stroke-width:.867614"/><path id="path429" d="M976.108 674.963c-3.332 0-6.55-.313-9.613-.894-7.592-1.431-14.195-4.511-18.94-8.65v36.362c0 8.268 7.904 15.296 18.94 17.925a42 42 0 0 0 8.893 1.101c.19 0 .381.01.572.01s.382 0 .573-.01c.382 0 .755-.017 1.128-.034a40.4 40.4 0 0 0 7.765-1.067V674.12c-2.976.547-6.1.833-9.327.833z" class="st87" style="stroke-width:.867614"/><path id="path430" d="M985.435 669.731v4.399c7.557-1.38 14.16-4.39 18.94-8.45v-6.005c-3.957 4.781-10.759 8.451-18.94 10.056" class="st93" style="stroke-width:.867614"/><path id="path431" d="M985.435 602.63v67.092c8.181-1.605 14.983-5.275 18.94-10.055V602.63z" class="st90" style="stroke-width:.867614"/><path id="path432" d="M966.495 669.67c-8.26-1.674-15.08-5.457-18.94-10.368v6.117c4.745 4.139 11.348 7.219 18.94 8.65z" class="st93" style="stroke-width:.867614"/><path id="path433" d="M966.495 669.67v4.4c3.062.58 6.29.893 9.613.893s6.35-.295 9.327-.833v-4.399c-2.95.581-6.082.894-9.327.894s-6.577-.339-9.613-.955" class="st93" style="stroke-width:.867614"/><path id="path434" d="M966.495 602.63h-18.94v56.681c3.87 4.902 10.68 8.685 18.94 10.368 3.036.616 6.264.954 9.613.954a47.5 47.5 0 0 0 9.327-.893v-67.093h-18.94z" class="st87" style="stroke-width:.867614"/><ellipse id="ellipse434" cx="976.108" cy="601.814" class="st26" rx="28.562" ry="19.035" style="stroke-width:.867614"/><path id="path435" d="m995.803 600.704-.183-.39a6.8 6.8 0 0 0-1.04-2.205l-5.614-11.868h-25.69l-5.614 11.868a6.8 6.8 0 0 0-1.04 2.204l-.183.39h.095c-.06.33-.095.669-.095 1.016 0 5.717 8.815 10.36 19.686 10.36s19.686-4.643 19.686-10.36q-.002-.508-.095-1.015h.095z" class="st59" style="stroke-width:.867614"/><path id="path436" d="M976.108 594.44c-6.603 0-11.973-3.68-11.973-8.19 0-4.512 5.37-8.191 11.973-8.191 6.602 0 11.982 3.679 11.982 8.19 0 4.512-5.371 8.19-11.982 8.19" class="st94" style="stroke-width:.867614"/><path id="path437" d="M976.108 578.918c6.021 0 11.114 3.358 11.114 7.323s-5.084 7.322-11.114 7.322-11.114-3.357-11.114-7.322 5.084-7.323 11.114-7.323m0-1.735c-7.097 0-12.85 4.06-12.85 9.058 0 4.997 5.753 9.057 12.85 9.057s12.85-4.06 12.85-9.057-5.753-9.058-12.85-9.058" class="st15" style="stroke-width:.867614"/><path id="line437" d="M976.108 551.77v34.479" class="st30"/><circle id="circle437" cx="976.108" cy="551.189" r="1.9" class="st36" style="stroke-width:.867614"/><path id="polygon439" d="M887.09 823.64V719.48l-9.33.2v97.8z" class="st86" transform="translate(210.36 .584)scale(.86761)"/><rect id="rect439" width="3.47" height="19.669" x="974.234" y="627.27" class="st62" rx="1.735" ry="1.735" style="stroke-width:.867614"/><rect id="rect440" width="3.47" height="16.988" x="974.234" y="650.8" class="st62" rx="1.735" ry="1.735" style="stroke-width:.867614"/><rect id="rect441" width="3.47" height="16.988" x="974.234" y="671.336" class="st62" rx="1.735" ry="1.735" style="stroke-width:.867614"/><rect id="rect442" width="3.47" height="15.374" x="974.234" y="692.445" class="st62" rx="1.735" ry="1.735" style="stroke-width:.867614"/><path id="polygon442" d="m856.51 742.79-5.17-4.28v-7.5l5.17 4.54z" class="st62" transform="translate(210.36 .584)scale(.86761)"/><path id="polygon443" d="M866.68 749.43v-6.64l-6-3.61v5.79z" class="st62" transform="translate(210.36 .584)scale(.86761)"/><path id="polygon444" d="M905.01 746.01v-6.83l-8.83 5.12v6.88z" class="st62" transform="translate(210.36 .584)scale(.86761)"/><path id="polygon445" d="M913.51 736.9v-5.22l-6.67 6.66v5.96z" class="st62" transform="translate(210.36 .584)scale(.86761)"/><path id="polygon446" d="M913.51 729.34v-4.83l-5.33 5.67v4.33z" class="st62" transform="translate(210.36 .584)scale(.86761)"/><path id="path446" d="M883.594 605.718c-15.522-3.86-30.288-8.693-44.11-14.385-1.726-.711-3.617.573-3.617 2.438a2.64 2.64 0 0 0 1.622 2.438c14.194 5.857 29.204 10.75 44.838 14.628a2.63 2.63 0 0 0 3.254-2.56 2.64 2.64 0 0 0-1.996-2.559z" class="st62" style="stroke-width:.867614"/><path id="path447" d="M916.832 612.304a357 357 0 0 1-22.922-4.182 2.616 2.616 0 0 0-3.175 2.55v.018c0 1.232.858 2.308 2.064 2.568a358 358 0 0 0 23.279 4.225 2.624 2.624 0 0 0 3.002-2.594 2.615 2.615 0 0 0-2.239-2.585z" class="st62" style="stroke-width:.867614"/><path id="path448" d="M829.316 586.926a263 263 0 0 1-3.87-1.805v5.805q.836.39 1.684.78c1.744.799 3.73-.468 3.73-2.385a2.63 2.63 0 0 0-1.535-2.386z" class="st62" style="stroke-width:.867614"/><path id="path449" d="M753.999 530.913c-3.627-4.347-6.76-7.045-9.796-10.81-.841-1.042-2.516-.46-2.516.876 0 .286.087.564.243.806 3.67 5.414 7.8 10.299 12.398 15.444v-5.397c0-.33-.121-.659-.33-.91z" class="st62" style="stroke-width:.867614"/><path id="path450" d="M1204.611 512.632c-1.796 2.508-3.739 4.703-5.83 7.61-.182.26-.286.572-.286.884v6.898c3.15-4.026 6.02-9.483 8.633-13.743a1.46 1.46 0 0 0 .216-.781c0-1.475-1.882-2.065-2.741-.868z" class="st62" style="stroke-width:.867614"/><path id="path451" d="M1116.167 587.316a287 287 0 0 1-10.993 4.712 2.63 2.63 0 0 0-1.648 2.429v.026c0 1.865 1.891 3.132 3.626 2.43a294 294 0 0 0 11.175-4.807 2.63 2.63 0 0 0 1.536-2.395c0-1.909-1.961-3.184-3.696-2.395" class="st62" style="stroke-width:.867614"/><path id="path452" d="M1042.88 610.065a368 368 0 0 1-28.042 4.139 2.61 2.61 0 0 0-2.334 2.594 2.615 2.615 0 0 0 2.89 2.603 376 376 0 0 0 28.457-4.165 2.614 2.614 0 0 0 2.126-2.577v-.026a2.604 2.604 0 0 0-3.098-2.56z" class="st62" style="stroke-width:.867614"/><path id="path453" d="M1124.79 583.213s-.025.009-.034.017a1.75 1.75 0 0 0-.98 1.57v1.944c0 1.301 1.37 2.16 2.542 1.579.01 0 .026-.01.035-.018.598-.295.98-.91.98-1.579v-1.943c0-1.31-1.37-2.152-2.542-1.57" class="st62" style="stroke-width:.867614"/><path id="path454" d="M1095.5 595.74c-13.44 4.903-27.668 9.024-42.53 12.269a2.63 2.63 0 0 0-2.074 2.568c0 1.675 1.544 2.933 3.184 2.577 14.993-3.254 29.456-7.427 43.242-12.459a2.635 2.635 0 0 0 1.727-2.481 2.633 2.633 0 0 0-3.549-2.473" class="st62" style="stroke-width:.867614"/></g></svg>