<svg xmlns="http://www.w3.org/2000/svg" width="1490.247" height="374.057" viewBox="0 0 1490.247 374.057"><defs><clipPath id="a" clipPathUnits="userSpaceOnUse"><path d="M-2054.35 271.535H213.369v-1716.29H-2054.35Z"/></clipPath></defs><path d="M0 0h2267.717v1714.468H0Z" style="fill:#275fbd;fill-opacity:1;fill-rule:nonzero;stroke:none" transform="matrix(1.33333 0 0 -1.33333 -1248.91 2155.076)"/><path d="M0 0c-.61 5.979-16.846 12.449-82 15.504-8.729 7.76-43.668 36.994-97 37.722-50.914.694-85.519-25.044-95-32.611-3.199 7.152-23.834 51.325-73 65.72-27.252 7.979-50.764 3.147-62 0a262 262 0 0 1-32.666 27.836c-65.881 47.382-183.733 85.055-248.001 30.333-4.275-3.641-34.68-29.029-39.91-65.107-6.356 4.866-15.04 5.802-22.089 2.107-9.379-4.917-13.55-16.821-9-27-20.464 35.841-62.845 50.747-97 37-27.412-11.033-46.056-39.127-47-71-7.327 7.26-18.214 9.219-27 5-11.379-5.465-12.924-18.263-13-19-3.13 4.088-8.231 6.052-13 5-5.726-1.264-10.005-6.665-10-13-7.68 11.846-21.051 18.742-35 18-14.862-.791-28.089-10.132-34-24-5.865.304-14.134.511-24 0-25.445-1.317-57.166-7.179-57-12 .145-4.22 24.72-7.666 45-7 15.549.511 28.291 3.43 37 6 2.169-1.901 15.174-12.925 34-11 15.851 1.62 25.541 11.368 28 14 3.312-2.162 23.074-14.61 47-8 13.478 3.723 22.089 11.785 26 16 7.606-8.342 25.565-25.627 54-32.666 30.21-7.478 56.844.422 74.629 8.964 16.441-25.725 45.255-51.228 75.037-64.298 85.953-37.723 177.939 28.973 186 35 2.99-9.421 10.73-16.433 20-18 11.317-1.913 23.07 4.599 28 16 5.137-5.049 23.062-21.402 48-21 31.493.507 61.657 27.533 70 67 4.105-3.053 17.575-12.265 37-11.944 18.207.302 30.775 8.8 35 11.944 6.025-4.142 21.519-13.57 43-13.498 32.099.108 52.423 21.346 56 25.215 4.258-3.445 25.503-19.905 55-16.474 19.333 2.249 32.519 11.916 38 16.474 5.33-3.65 19.545-12.315 39-11.717C-21.79-17.875.751-7.361 0 0" clip-path="url(#a)" style="fill:#2e6abf;fill-opacity:1;fill-rule:nonzero;stroke:none" transform="matrix(1.33333 0 0 -1.33333 1490.222 228.737)"/></svg>