<svg xmlns="http://www.w3.org/2000/svg" width="696.002" height="248.866" viewBox="0 0 696.002 248.866"><defs><clipPath id="a" clipPathUnits="userSpaceOnUse"><path d="M-601.33 291.65h2267.716v-1716.288H-601.33Z"/></clipPath></defs><path d="M0 0h2267.717v1714.468H0Z" style="fill:#275fbd;fill-opacity:1;fill-rule:nonzero;stroke:none" transform="matrix(1.33333 0 0 -1.33333 -128.44 2092.48)"/><path d="M0 0c-4.976 7.228-2.77 14.637-8 18.389-3.964 2.843-9.785 1.852-15 0-.51 16.559-12.067 30.79-28 34.611-15.472 3.711-31.77-3.185-40-17 .074 12.751-6.736 23.864-17 28-8.443 3.402-16.384.941-19 0-1.83 10.443-6.415 27.37-19.076 43.327-5.279 6.653-12.658 15.833-25.006 21.158-15.925 11.824-40.47 14.716-47.251 15.515-56.392 6.644-97.484-34.585-104-41.333-10.175 11.274-25.966 15.499-40 10.742-12.677-4.296-22.102-15.304-24.667-28.692-3.588.976-26.578 6.816-48-7.384-26.75-17.731-26.071-50.15-26-52-4.62 7.185-13.754 9.959-21.333 6.667-7.091-3.08-11.286-10.802-10-18.667.358-5.235-.283-10.941-4-14.666C-500.168-5.176-504.914-4.544-505-6c-.166-2.818 17.302-10.589 33.333-4.667 9.552 3.529 15.041 10.608 17.334 14 3.783-3.75 21.686-20.691 50-21.333C-373.89-18.691-354.384-.018-351 3.333c6.4-9.333 21.097-27.734 46.667-37.63 7.284-2.818 40.472-15.662 66 0 8.434 5.175 13.211 11.745 17.841 20.613C-211.832-27.926-195.583-35.978-179-34c17.062 2.036 31.335 14.313 36 31 3.438-8.367 11.156-14.167 20-15 12.531-1.18 20.407 8.263 21 9 1.893-2.204 11.646-13.1 28-14.295C-54.114-24.749-41.409-10.621-40-9c4.533-2.694 13.637-7.274 26-8 15.045-.884 26.32 4.445 31 7C10.108-8.48 3.804-5.525 0 0" clip-path="url(#a)" style="fill:#2c6ac4;fill-opacity:1;fill-rule:nonzero;stroke:none" transform="matrix(1.33333 0 0 -1.33333 673.335 192.963)"/></svg>