<svg xmlns="http://www.w3.org/2000/svg" width="2138.975" height="782.243" viewBox="0 0 2138.975 782.243"><defs><clipPath id="a" clipPathUnits="userSpaceOnUse"><path d="M-2009.823 1379.319H257.894v-1716.29h-2267.717Z"/></clipPath></defs><path d="M0 0h2267.717v1714.468H0Z" style="fill:#275fbd;fill-opacity:1;fill-rule:nonzero;stroke:none" transform="matrix(1.33333 0 0 -1.33333 -598.692 972.17)"/><path d="M0 0c-24.581 6.259-51.249-4.948-65.075-27.777C-79.283-2.668-106.148 12.882-135 12.333c-29.149-.554-55.728-17.449-68.842-43.693l-.185-.036C-207.285 7.617-233.455 40.261-269 50.333c-45.161 12.797-81.333-17.675-84-20 1.076 5.739 14.839 86.405-42 139.866-49.288 46.358-130.28 52.147-194 10.134 5.224 12.693 17.776 48.109 6 89.565-15.27 53.76-60.784 80.13-84.911 90.633-62.311 46.527-180.314 45.662-236.756-29.198-49.079-65.094-23.017-148.214-20-157.333-42.161 51.92-108.311 68.235-156 44-41.909-21.298-54.817-66.422-57.333-76-60.272 64.54-153.892 82.073-226.667 45.333-85.508-43.168-126.371-153.255-85.333-250.666-26.734 27.196-67.205 28.719-90.667 8-19.417-17.148-25.823-48.329-14.666-66.667 15.162-24.922 66.921-32.96 118.666 0 20.479-21.023 60.781-55.68 120-68 93.933-19.542 196.098 25.303 264 113.333 24.735-21.68 60.504-46.752 108-62.666C-798.461-188.324-665.757-108.792-642-94c18.705-15.364 68.246-51.717 140-56 116.627-6.961 192.746 76.723 202.667 88 4.998-44.194 40.882-78.479 84-81.333 40.582-2.687 78.769 23.052 92 62.666 8.093-8.12 28.952-26.709 60.333-30.666C-17.343-117.091 40.955-93.307 43.333-58 44.821-35.911 28.595-7.281 0 0" clip-path="url(#a)" style="fill:#2c6ac4;fill-opacity:1;fill-rule:nonzero;stroke:none" transform="matrix(1.33333 0 0 -1.33333 2081.072 522.875)"/></svg>