<svg clip-rule="evenodd" fill-rule="evenodd" stroke-linejoin="round" stroke-miterlimit="1.414" viewBox="0 0 400 400" xmlns="http://www.w3.org/2000/svg"><linearGradient id="a" gradientTransform="rotate(-98.13 154.55 6.258) scale(94.9377)" gradientUnits="userSpaceOnUse" x1="0" x2="1" y1="0" y2="0"><stop offset="0" stop-color="#60baeb"/><stop offset=".04" stop-color="#60baeb"/><stop offset=".13" stop-color="#4fb4e9"/><stop offset=".82" stop-color="#4054ad"/><stop offset="1" stop-color="#4054ad"/></linearGradient><g fill-rule="nonzero"><path d="M164.051 233.393s6.123-23.2-20.477-53.104l-.886-.935c-11.19-13.287-17.375-30.115-17.375-47.446 0-40.656 33.11-73.737 73.821-73.737h1.717c40.707 0 73.821 33.081 73.821 73.737 0 17.33-6.17 34.16-17.364 47.431a27.42 27.42 0 01-.886.92c-23.601 23.65-20.492 53.134-20.492 53.134 43.119-14.864 72.26-55.409 72.503-100.887.314-56.852-45.589-105.322-102.3-108.047a50.935 50.935 0 00-2.11-.048c-.856 0-4.047.063-4.029.063-.092 0-3.175-.063-4.021-.063-.705 0-1.414.018-2.105.048-56.73 2.725-102.615 51.195-102.316 108.047.259 45.478 29.381 86.023 72.5 100.887m139.325 85.557c1.865-.78 4.048-1.415 6.452-1.88 2.242-.495 4.742-.813 7.467-.905 0 0-.122-.842-.288-2.09-.074-1.234-.661-2.873-1.222-4.494-.285-.802-.569-1.596-.828-2.338-.328-.735-.75-1.414-1.052-1.998l-1.049-1.913c-2.696-.432-5.236-1.037-7.703-1.743-2.515-.709-4.875-1.518-6.954-2.393-3.94-1.728-7.64-3.67-9.598-5.835-2.36-2.06-2.795-4.125-2.718-5.99.133-.915.554-1.805 1.274-2.633.665-.812 1.536-1.55 2.8-2.178 0 0-.946-.528-2.334-1.311-.706-.377-1.474-.828-2.375-1.293-.95-.454-1.939-.934-2.936-1.4-1.953-.934-3.907-1.868-5.55-2.485-1.566-.628-2.6-1.049-2.6-1.049-1.895.255-3.955.392-6.05.421a68.727 68.727 0 01-6.528-.18c-4.229-.362-8.53-.95-12.246-2.046-1.928-.499-3.567-1.082-4.993-1.732-1.433-.632-2.71-1.263-3.733-1.972-1.957-1.426-3.298-2.87-3.28-4.332 0 0-1.189-.196-2.965-.495-1.835-.284-5.746-.813-8.228-1.145-.044.421-.314.813-.406 1.507l-.631 3.04c-1.293 6.074 2.226 12.241 8.198 13.973 14.624 4.258 25.68 11.27 28.871 19.872 6.452 17.408-20.658 34.421-61.878 34.421-41.235 0-68.345-17.013-61.908-34.421 3.116-8.39 13.737-15.267 27.833-19.554 6.245-1.898 9.945-8.32 8.605-14.698l-.872-4.14c-1.64.196-3.549.436-5.506.68-2.452.27-4.786.705-6.573.99-1.792.287-2.995.494-2.995.494.118 1.418-.89 3.014-2.814 4.38-1.005.694-2.124 1.414-3.49 2.06-1.37.665-3.054 1.22-4.812 1.806-1.82.573-3.855.998-5.883 1.356-2.001.391-4.14.676-6.333.856-4.38.348-8.77.436-12.76-.059l-.723.288c-.436.192-1.141.447-1.85.798-1.459.687-3.43 1.636-5.418 2.585-1.95.979-3.696 2.031-5.11 2.814-.71.388-1.297.72-1.703.95-.373.254-.587.387-.587.387 2.755 1.278 4.29 3.01 4.59 4.845.69 1.939-.258 3.955-2.046 6.152-1.038 1.116-2.437 2.165-3.866 3.191-1.522 1.038-3.416 2.016-5.54 2.947-3.97 1.88-9.114 3.534-14.635 4.531 0 0-.483.78-.842 1.954-.42 1.189-.978 2.8-1.55 4.439-.24 1.625-.466 3.294-.647 4.572-.24 1.292-.122 2.138-.122 2.138 5.702.059 10.772 1.023 14.565 2.544 4.41 1.455 7.068 3.638 9.133 6.3 1.624 2.877 2.27 5.883.827 9.358-1.008 3.386-3.778 7.164-8.29 10.591 0 0 .258.226.693.602.495.362 1.22.872 2.09 1.492 1.792 1.234 4.048 2.977 6.692 4.557 2.8 1.533 5.643 3.084 7.796 4.27 1.067.605 2.153.978 2.829 1.296.709.317 1.111.48 1.111.48 6.363-2.722 13.195-4.122 20.027-4.846 3.412-.358 6.765-.446 9.974-.236 3.261.163 6.585.417 9.702 1.156 3.083.812 6.093 1.58 8.726 2.755 2.677 1.156 5.052 2.674 7.312 4.136 4.498 3.069 7.955 7.4 9.447 11.961l5.794.222c3.486.092 8.135.406 12.77.17 4.634-.152 9.284-.23 12.726-.454 3.4-.33 5.672-.543 5.672-.543.484-2.375 1.536-4.616 2.98-6.648a21.217 21.217 0 012.423-2.828c.871-.92 1.787-1.85 2.814-2.678a29.562 29.562 0 016.916-4.228c2.53-1.19 5.237-2.3 8.369-3.01 3.187-.631 6.181-1.263 9.428-1.488 3.209-.255 6.698-.103 9.93.03 6.606.361 13.933 1.883 20.296 4.287 0 0 1.414-.78 3.523-1.957 2.013-1.2 4.919-2.63 7.142-4.406 2.271-1.684 4.664-3.28 6.112-4.601 1.414-1.326 2.33-2.198 2.33-2.198-4.738-3.264-7.463-6.772-9.206-10.229-.813-1.673-1.038-3.235-1.086-4.786-.118-1.562.21-3.024 1.086-4.376 1.233-2.77 4.394-4.816 7.987-6.44" fill="#353435"/><path d="M149.193 135.528c-.033-3.67 1.743-6.987 4.615-9.325 3.553-2.892 6.466-8.746 6.636-15.134.188-7.092-.297-15.301-.595-19.477-3.797-.538-6.465-1.808-6.465-3.288 0-1.967 4.726-4.24 10.556-4.24s10.555 2.273 10.555 4.24c0 1.48-2.664 2.75-6.469 3.288-.298 4.176-.778 12.385-.591 19.477.175 6.388 3.079 12.242 6.637 15.134 2.872 2.338 4.652 5.655 4.615 9.325-.061 6.991-6.665 12.616-14.747 12.616-8.086 0-14.69-5.625-14.747-12.616" fill="url(#a)" transform="matrix(3.69291 0 0 -3.69291 -405.628 632.622)"/></g></svg>