<svg clip-rule="evenodd" fill-rule="evenodd" viewBox="0 0 400 400" xmlns="http://www.w3.org/2000/svg" xmlns:xlink="http://www.w3.org/1999/xlink"><clipPath id="a"><path clip-rule="evenodd" d="m76 2v46h-22v23h-18.419c-.078.666-.142 1.333-.206 2-1.151 12.531 1.036 24.088 6.063 33.969l1.687 3.031c1.011 1.817 2.191 3.523 3.438 5.188 1.244 1.662 1.685 2.582 2.468 3.687 13.289 14.936 33.098 22.125 55.969 22.125 50.648 0 93.633-22.438 112.656-72.844 13.497 1.385 26.444-2.076 32.344-13.593-9.399-5.424-21.478-3.686-28.437-.188l18.437-52.375-72 46h-23v-46z"/></clipPath><clipPath id="b"><path clip-rule="evenodd" d="m76 2v46h-22v23h-18.419c-.078.666-.142 1.333-.206 2-1.151 12.531 1.036 24.088 6.063 33.969l1.687 3.031c1.011 1.817 2.191 3.523 3.438 5.188 1.244 1.662 1.685 2.582 2.468 3.687 13.289 14.936 33.098 22.125 55.969 22.125 50.648 0 93.633-22.438 112.656-72.844 13.497 1.385 26.444-2.076 32.344-13.593-9.399-5.424-21.478-3.686-28.437-.188l18.437-52.375-72 46h-23v-46z"/></clipPath><clipPath id="c"><path clip-rule="evenodd" d="m76 2v46h-22v23h-18.419c-.078.666-.142 1.333-.206 2-1.151 12.531 1.036 24.088 6.063 33.969l1.687 3.031c1.011 1.817 2.191 3.523 3.438 5.188 1.244 1.662 1.685 2.582 2.468 3.687 13.289 14.936 33.098 22.125 55.969 22.125 50.648 0 93.633-22.438 112.656-72.844 13.497 1.385 26.444-2.076 32.344-13.593-9.399-5.424-21.478-3.686-28.437-.188l18.437-52.375-72 46h-23v-46z"/></clipPath><clipPath id="d"><path clip-rule="evenodd" d="m76 2v46h-22v23h-18.419c-.078.666-.142 1.333-.206 2-1.151 12.531 1.036 24.088 6.063 33.969l1.687 3.031c1.011 1.817 2.191 3.523 3.438 5.188 1.244 1.662 1.685 2.582 2.468 3.687 13.289 14.936 33.098 22.125 55.969 22.125 50.648 0 93.633-22.438 112.656-72.844 13.497 1.385 26.444-2.076 32.344-13.593-9.399-5.424-21.478-3.686-28.437-.188l18.437-52.375-72 46h-23v-46z"/></clipPath><clipPath id="e"><path clip-rule="evenodd" d="m76 2v46h-22v23h-18.419c-.078.666-.142 1.333-.206 2-1.151 12.531 1.036 24.088 6.063 33.969l1.687 3.031c1.011 1.817 2.191 3.523 3.438 5.188 1.244 1.662 1.685 2.582 2.468 3.687 13.289 14.936 33.098 22.125 55.969 22.125 50.648 0 93.633-22.438 112.656-72.844 13.497 1.385 26.444-2.076 32.344-13.593-9.399-5.424-21.478-3.686-28.437-.188l18.437-52.375-72 46h-23v-46z"/></clipPath><g transform="matrix(1.541 0 0 1.541 3.47746 77.1896)"><path d="m147.488 45.732h22.866v23.375h11.561c5.339 0 10.831-.951 15.887-2.665 2.485-.842 5.274-2.015 7.724-3.489-3.228-4.214-4.876-9.536-5.361-14.781-.658-7.134.781-16.42 5.609-22.004l2.404-2.78 2.864 2.302c7.211 5.794 13.276 13.889 14.345 23.118 8.683-2.554 18.878-1.95 26.532 2.468l3.14 1.811-1.653 3.226c-6.473 12.634-20.005 16.547-33.235 15.854-19.797 49.309-62.898 72.653-115.157 72.653-26.999 0-51.77-10.093-65.876-34.047-.827-1.488-1.535-3.044-2.286-4.572-4.768-10.544-6.352-22.095-5.278-33.637l.323-3.457h19.553v-23.375h22.866v-22.866h45.732v-22.866h27.439v45.732" fill="#394d54" fill-rule="nonzero"/><g clip-path="url(#a)" fill-rule="nonzero"><g transform="translate(0 -22.866)"><path d="m123.859 3.811h19.818v19.817h-19.818z" fill="#00acd3"/><path d="m123.859 26.676h19.818v19.818h-19.818z" fill="#20c2ef"/><g stroke="#394d54" stroke-width="1.56"><path d="m126.292 21.977v-16.516m2.972 16.516v-16.516m3.002 16.516v-16.516m3.003 16.516v-16.516m3.003 16.516v-16.516m2.972 16.516v-16.516"/><path d="m126.292 21.977v-16.516m2.972 16.516v-16.516m3.002 16.516v-16.516m3.003 16.516v-16.516m3.003 16.516v-16.516m2.972 16.516v-16.516" transform="translate(0 22.866)"/></g></g><g transform="matrix(1 0 0 -1 22.866 27.4387)"><path d="m123.859 3.811h19.818v19.817h-19.818z" fill="#00acd3"/><path d="m123.859 26.676h19.818v19.818h-19.818z" fill="#20c2ef"/><g stroke="#394d54" stroke-width="1.56"><path d="m126.292 21.977v-16.516m2.972 16.516v-16.516m3.002 16.516v-16.516m3.003 16.516v-16.516m3.003 16.516v-16.516m2.972 16.516v-16.516"/><path d="m126.292 21.977v-16.516m2.972 16.516v-16.516m3.002 16.516v-16.516m3.003 16.516v-16.516m3.003 16.516v-16.516m2.972 16.516v-16.516" transform="translate(0 22.866)"/></g></g><g transform="translate(-91.464 22.866)"><path d="m123.859 3.811h19.818v19.817h-19.818z" fill="#00acd3"/><path d="m123.859 26.676h19.818v19.818h-19.818z" fill="#20c2ef"/><g stroke="#394d54" stroke-width="1.56"><path d="m126.292 21.977v-16.516m2.972 16.516v-16.516m3.002 16.516v-16.516m3.003 16.516v-16.516m3.003 16.516v-16.516m2.972 16.516v-16.516"/><path d="m126.292 21.977v-16.516m2.972 16.516v-16.516m3.002 16.516v-16.516m3.003 16.516v-16.516m3.003 16.516v-16.516m2.972 16.516v-16.516" transform="translate(0 22.866)"/></g></g><g transform="matrix(1 0 0 -1 -68.598 73.1707)"><path d="m123.859 3.811h19.818v19.817h-19.818z" fill="#00acd3"/><path d="m123.859 26.676h19.818v19.818h-19.818z" fill="#20c2ef"/><g stroke="#394d54" stroke-width="1.56"><path d="m126.292 21.977v-16.516m2.972 16.516v-16.516m3.002 16.516v-16.516m3.003 16.516v-16.516m3.003 16.516v-16.516m2.972 16.516v-16.516"/><path d="m126.292 21.977v-16.516m2.972 16.516v-16.516m3.002 16.516v-16.516m3.003 16.516v-16.516m3.003 16.516v-16.516m2.972 16.516v-16.516" transform="translate(0 22.866)"/></g></g><g transform="translate(-45.732 22.866)"><path d="m123.859 3.811h19.818v19.817h-19.818z" fill="#00acd3"/><path d="m123.859 26.676h19.818v19.818h-19.818z" fill="#20c2ef"/><g stroke="#394d54" stroke-width="1.56"><path d="m126.292 21.977v-16.516m2.972 16.516v-16.516m3.002 16.516v-16.516m3.003 16.516v-16.516m3.003 16.516v-16.516m2.972 16.516v-16.516"/><path d="m126.292 21.977v-16.516m2.972 16.516v-16.516m3.002 16.516v-16.516m3.003 16.516v-16.516m3.003 16.516v-16.516m2.972 16.516v-16.516" transform="translate(0 22.866)"/></g></g><g transform="matrix(1 0 0 -1 -22.866 73.1707)"><path d="m123.859 3.811h19.818v19.817h-19.818z" fill="#00acd3"/><path d="m123.859 26.676h19.818v19.818h-19.818z" fill="#20c2ef"/><g stroke="#394d54" stroke-width="1.56"><path d="m126.292 21.977v-16.516m2.972 16.516v-16.516m3.002 16.516v-16.516m3.003 16.516v-16.516m3.003 16.516v-16.516m2.972 16.516v-16.516"/><path d="m126.292 21.977v-16.516m2.972 16.516v-16.516m3.002 16.516v-16.516m3.003 16.516v-16.516m3.003 16.516v-16.516m2.972 16.516v-16.516" transform="translate(0 22.866)"/></g></g><g transform="translate(0 22.866)"><path d="m123.859 3.811h19.818v19.817h-19.818z" fill="#00acd3"/><path d="m123.859 26.676h19.818v19.818h-19.818z" fill="#20c2ef"/><g stroke="#394d54" stroke-width="1.56"><path d="m126.292 21.977v-16.516m2.972 16.516v-16.516m3.002 16.516v-16.516m3.003 16.516v-16.516m3.003 16.516v-16.516m2.972 16.516v-16.516"/><path d="m126.292 21.977v-16.516m2.972 16.516v-16.516m3.002 16.516v-16.516m3.003 16.516v-16.516m3.003 16.516v-16.516m2.972 16.516v-16.516" transform="translate(0 22.866)"/></g></g><g transform="matrix(1 0 0 -1 22.866 73.1707)"><path d="m123.859 3.811h19.818v19.817h-19.818z" fill="#00acd3"/><path d="m123.859 26.676h19.818v19.818h-19.818z" fill="#20c2ef"/><g stroke="#394d54" stroke-width="1.56"><path d="m126.292 21.977v-16.516m2.972 16.516v-16.516m3.002 16.516v-16.516m3.003 16.516v-16.516m3.003 16.516v-16.516m2.972 16.516v-16.516"/><path d="m126.292 21.977v-16.516m2.972 16.516v-16.516m3.002 16.516v-16.516m3.003 16.516v-16.516m3.003 16.516v-16.516m2.972 16.516v-16.516" transform="translate(0 22.866)"/></g></g></g><g clip-path="url(#b)"><path d="m221.57 54.38c1.533-11.916-7.384-21.275-12.914-25.719-6.373 7.368-7.363 26.678 2.635 34.808-5.579 4.956-17.337 9.448-29.376 9.448h-147.915c-1.171 12.567 0 73.083 0 73.083h217l-.987-91.424c-9.398-5.424-21.484-3.694-28.443-.197" fill="#17b5eb" fill-rule="nonzero"/></g><g clip-path="url(#c)"><path d="m34 89v57h217v-57" fill-opacity=".168627" fill-rule="nonzero"/></g><g clip-path="url(#d)"><path d="m111.237 140.89c-13.539-6.425-20.971-15.159-25.106-24.694l-41.131 1.804 21 28z" fill="#d4edf1" fill-rule="nonzero"/></g><g clip-path="url(#e)"><path d="m222.5 53.938v.031c-20.861 26.889-50.783 50.378-82.906 62.719-28.655 11.007-53.639 11.06-70.875 2.218-1.856-1.048-3.676-2.211-5.5-3.312-12.637-8.832-19.755-23.442-19.156-42.688h-10.063v73.094h217v-96h-25z" fill-opacity=".082353" fill-rule="nonzero"/></g><path d="m45.625 117.031c14.165.776 29.282.915 42.469-3.218" fill="none" stroke="#394d54" stroke-linecap="round" stroke-width="3.4"/><g fill-rule="nonzero"><path d="m102.17 106.959c0 3.019-2.447 5.467-5.466 5.467-3.02 0-5.468-2.448-5.468-5.467s2.448-5.467 5.468-5.467c3.019 0 5.466 2.448 5.466 5.467z" fill="#d4edf1"/><g fill="#394d54"><path d="m98.121 103.308c-.477.276-.8.792-.8 1.384 0 .882.716 1.597 1.598 1.597.605 0 1.13-.336 1.402-.832.192.462.298.97.298 1.502 0 2.162-1.753 3.915-3.915 3.915s-3.916-1.753-3.916-3.915c0-2.163 1.754-3.916 3.916-3.916.5 0 .977.094 1.417.265z"/><path d="m0 90.162h254.327c-5.537-1.404-17.521-3.302-15.544-10.559-10.069 11.651-34.353 8.174-40.482 2.428-6.824 9.899-46.554 6.136-49.325-1.575-8.556 10.041-35.067 10.041-43.623 0-2.773 7.711-42.502 11.474-49.327 1.575-6.128 5.746-30.41 9.223-40.48-2.428 1.976 7.257-10.007 9.155-15.546 10.559"/></g></g></g></svg>