<svg clip-rule="evenodd" fill-rule="evenodd" viewBox="0 0 400 400" xmlns="http://www.w3.org/2000/svg"><clipPath id="a"><path d="M76 2v46H54v23H35.581c-.078.666-.142 1.333-.206 2-1.151 12.531 1.036 24.088 6.063 33.969L43.125 110c1.011 1.817 2.191 3.523 3.438 5.188 1.244 1.662 1.685 2.582 2.468 3.687C62.32 133.811 82.129 141 105 141c50.648 0 93.633-22.438 112.656-72.844C231.153 69.541 244.1 66.08 250 54.563c-9.399-5.424-21.478-3.686-28.437-.188L240 2l-72 46h-23V2z"/></clipPath><clipPath id="b"><path d="M76 2v46H54v23H35.581c-.078.666-.142 1.333-.206 2-1.151 12.531 1.036 24.088 6.063 33.969L43.125 110c1.011 1.817 2.191 3.523 3.438 5.188 1.244 1.662 1.685 2.582 2.468 3.687C62.32 133.811 82.129 141 105 141c50.648 0 93.633-22.438 112.656-72.844C231.153 69.541 244.1 66.08 250 54.563c-9.399-5.424-21.478-3.686-28.437-.188L240 2l-72 46h-23V2z"/></clipPath><clipPath id="c"><path d="M76 2v46H54v23H35.581c-.078.666-.142 1.333-.206 2-1.151 12.531 1.036 24.088 6.063 33.969L43.125 110c1.011 1.817 2.191 3.523 3.438 5.188 1.244 1.662 1.685 2.582 2.468 3.687C62.32 133.811 82.129 141 105 141c50.648 0 93.633-22.438 112.656-72.844C231.153 69.541 244.1 66.08 250 54.563c-9.399-5.424-21.478-3.686-28.437-.188L240 2l-72 46h-23V2z"/></clipPath><clipPath id="d"><path d="M76 2v46H54v23H35.581c-.078.666-.142 1.333-.206 2-1.151 12.531 1.036 24.088 6.063 33.969L43.125 110c1.011 1.817 2.191 3.523 3.438 5.188 1.244 1.662 1.685 2.582 2.468 3.687C62.32 133.811 82.129 141 105 141c50.648 0 93.633-22.438 112.656-72.844C231.153 69.541 244.1 66.08 250 54.563c-9.399-5.424-21.478-3.686-28.437-.188L240 2l-72 46h-23V2z"/></clipPath><clipPath id="e"><path d="M76 2v46H54v23H35.581c-.078.666-.142 1.333-.206 2-1.151 12.531 1.036 24.088 6.063 33.969L43.125 110c1.011 1.817 2.191 3.523 3.438 5.188 1.244 1.662 1.685 2.582 2.468 3.687C62.32 133.811 82.129 141 105 141c50.648 0 93.633-22.438 112.656-72.844C231.153 69.541 244.1 66.08 250 54.563c-9.399-5.424-21.478-3.686-28.437-.188L240 2l-72 46h-23V2z"/></clipPath><path d="M230.756 147.663h35.237v36.02h17.815c8.228 0 16.691-1.465 24.482-4.106 3.83-1.298 8.128-3.105 11.903-5.377-4.974-6.494-7.514-14.695-8.261-22.777-1.014-10.994 1.203-25.304 8.643-33.909l3.705-4.283 4.413 3.547c11.112 8.928 20.458 21.403 22.106 35.625 13.38-3.936 29.09-3.005 40.886 3.803l4.838 2.79-2.547 4.972c-9.975 19.469-30.828 25.499-51.215 24.43-30.507 75.986-96.926 111.96-177.457 111.96-41.605 0-79.778-15.554-101.515-52.467-1.274-2.293-2.365-4.691-3.523-7.046-7.347-16.248-9.788-34.048-8.133-51.834l.498-5.328h30.13v-36.02h35.237v-35.237h70.473V77.19h42.284v70.473" fill="#394d54" fill-rule="nonzero"/><g clip-path="url(#a)" fill-rule="nonzero" transform="translate(3.477 77.19) scale(1.541)"><path d="M123.859-19.055h19.818V.762h-19.818z" fill="#00acd3"/><path d="M123.859 3.81h19.818v19.818h-19.818z" fill="#20c2ef"/><g stroke="#394d54" stroke-width="1.56"><path d="M126.292-.889v-16.516m2.972 16.516v-16.516m3.002 16.516v-16.516m3.003 16.516v-16.516m3.003 16.516v-16.516m2.972 16.516v-16.516M126.292 21.977V5.461m2.972 16.516V5.461m3.002 16.516V5.461m3.003 16.516V5.461m3.003 16.516V5.461m2.972 16.516V5.461"/></g><path d="M146.725 23.628h19.818V3.81h-19.818z" fill="#00acd3"/><path d="M146.725.763h19.818v-19.818h-19.818z" fill="#20c2ef"/><g stroke="#394d54" stroke-width="1.56"><path d="M149.158 5.462v16.516m2.972-16.516v16.516m3.002-16.516v16.516m3.003-16.516v16.516m3.003-16.516v16.516m2.972-16.516v16.516M149.158-17.404V-.888m2.972-16.516V-.888m3.002-16.516V-.888m3.003-16.516V-.888m3.003-16.516V-.888m2.972-16.516V-.888"/></g><path d="M32.395 26.677h19.818v19.817H32.395z" fill="#00acd3"/><path d="M32.395 49.542h19.818V69.36H32.395z" fill="#20c2ef"/><g stroke="#394d54" stroke-width="1.56"><path d="M34.828 44.843V28.327M37.8 44.843V28.327m3.002 16.516V28.327m3.003 16.516V28.327m3.003 16.516V28.327m2.972 16.516V28.327M34.828 67.709V51.193M37.8 67.709V51.193m3.002 16.516V51.193m3.003 16.516V51.193m3.003 16.516V51.193m2.972 16.516V51.193"/></g><g><path d="M55.261 69.36h19.818V49.543H55.261z" fill="#00acd3"/><path d="M55.261 46.495h19.818V26.677H55.261z" fill="#20c2ef"/><g stroke="#394d54" stroke-width="1.56"><path d="M57.694 51.194V67.71m2.972-16.516V67.71m3.002-16.516V67.71m3.003-16.516V67.71m3.003-16.516V67.71m2.972-16.516V67.71M57.694 28.328v16.516m2.972-16.516v16.516m3.002-16.516v16.516m3.003-16.516v16.516m3.003-16.516v16.516m2.972-16.516v16.516"/></g></g><g><path d="M78.127 26.677h19.818v19.817H78.127z" fill="#00acd3"/><path d="M78.127 49.542h19.818V69.36H78.127z" fill="#20c2ef"/><g stroke="#394d54" stroke-width="1.56"><path d="M80.56 44.843V28.327m2.972 16.516V28.327m3.002 16.516V28.327m3.003 16.516V28.327m3.003 16.516V28.327m2.972 16.516V28.327M80.56 67.709V51.193m2.972 16.516V51.193m3.002 16.516V51.193m3.003 16.516V51.193m3.003 16.516V51.193m2.972 16.516V51.193"/></g></g><g><path d="M100.993 69.36h19.818V49.543h-19.818z" fill="#00acd3"/><path d="M100.993 46.495h19.818V26.677h-19.818z" fill="#20c2ef"/><g stroke="#394d54" stroke-width="1.56"><path d="M103.426 51.194V67.71m2.972-16.516V67.71m3.002-16.516V67.71m3.003-16.516V67.71m3.003-16.516V67.71m2.972-16.516V67.71M103.426 28.328v16.516m2.972-16.516v16.516m3.002-16.516v16.516m3.003-16.516v16.516m3.003-16.516v16.516m2.972-16.516v16.516"/></g></g><g><path d="M123.859 26.677h19.818v19.817h-19.818z" fill="#00acd3"/><path d="M123.859 49.542h19.818V69.36h-19.818z" fill="#20c2ef"/><g stroke="#394d54" stroke-width="1.56"><path d="M126.292 44.843V28.327m2.972 16.516V28.327m3.002 16.516V28.327m3.003 16.516V28.327m3.003 16.516V28.327m2.972 16.516V28.327M126.292 67.709V51.193m2.972 16.516V51.193m3.002 16.516V51.193m3.003 16.516V51.193m3.003 16.516V51.193m2.972 16.516V51.193"/></g></g><g><path d="M146.725 69.36h19.818V49.543h-19.818z" fill="#00acd3"/><path d="M146.725 46.495h19.818V26.677h-19.818z" fill="#20c2ef"/><g stroke="#394d54" stroke-width="1.56"><path d="M149.158 51.194V67.71m2.972-16.516V67.71m3.002-16.516V67.71m3.003-16.516V67.71m3.003-16.516V67.71m2.972-16.516V67.71M149.158 28.328v16.516m2.972-16.516v16.516m3.002-16.516v16.516m3.003-16.516v16.516m3.003-16.516v16.516m2.972-16.516v16.516"/></g></g></g><g clip-path="url(#b)" transform="translate(3.477 77.19) scale(1.541)"><path d="M221.57 54.38c1.533-11.916-7.384-21.275-12.914-25.719-6.373 7.368-7.363 26.678 2.635 34.808-5.579 4.956-17.337 9.448-29.376 9.448H34C32.829 85.484 34 146 34 146h217l-.987-91.424c-9.398-5.424-21.484-3.694-28.443-.197" fill="#17b5eb" fill-rule="nonzero"/></g><g clip-path="url(#c)" transform="translate(3.477 77.19) scale(1.541)"><path d="M34 89v57h217V89" fill-opacity=".169" fill-rule="nonzero"/></g><g clip-path="url(#d)" transform="translate(3.477 77.19) scale(1.541)"><path d="M111.237 140.89c-13.539-6.425-20.971-15.159-25.106-24.694L45 118l21 28z" fill="#d4edf1" fill-rule="nonzero"/></g><g clip-path="url(#e)" transform="translate(3.477 77.19) scale(1.541)"><path d="M222.5 53.938v.031c-20.861 26.889-50.783 50.378-82.906 62.719-28.655 11.007-53.639 11.06-70.875 2.218-1.856-1.048-3.676-2.211-5.5-3.312-12.637-8.832-19.755-23.442-19.156-42.688H34V146h217V50h-25z" fill-opacity=".082" fill-rule="nonzero"/></g><path d="M73.786 257.534c21.828 1.196 45.123 1.41 65.444-4.959" fill="none" stroke="#394d54" stroke-linecap="round" stroke-width="5.2394"/><g fill-rule="nonzero"><path d="M160.921 242.013a8.426 8.426 0 11-16.847-.002 8.426 8.426 0 0116.847.002z" fill="#d4edf1"/><g fill="#394d54"><path d="M154.682 236.387a2.462 2.462 0 103.39 3.312 6.033 6.033 0 11-3.39-3.312zM3.477 216.13h391.918c-8.532-2.164-27-5.09-23.953-16.272-15.516 17.954-52.938 12.596-62.383 3.741-10.515 15.255-71.74 9.456-76.01-2.427-13.184 15.473-54.038 15.473-67.223 0-4.273 11.883-65.495 17.682-76.012 2.427-9.444 8.855-46.862 14.213-62.38-3.741 3.045 11.183-15.42 14.108-23.957 16.271"/></g></g></svg>