<svg clip-rule="evenodd" fill-rule="evenodd" stroke-linejoin="round" stroke-miterlimit="1.41421" viewBox="0 0 400 400" xmlns="http://www.w3.org/2000/svg"><g transform="matrix(1.98904 0 0 1.98904 2.44591 1.09632)"><path d="m134.791 76.094h-108.383c-2.267 7.766-3.415 15.816-3.408 23.906 0 8.3 1.19 16.323 3.408 23.906h108.383c13.012 0 23.899-10.625 23.899-23.906s-10.622-23.906-23.899-23.906" fill="#06a5de"/><path d="m97.554 76.094h-71.146c-2.267 7.766-3.415 15.816-3.408 23.906 0 8.3 1.19 16.323 3.408 23.906h71.352c1.916-7.687 2.881-15.58 2.874-23.502.008-8.201-1.026-16.37-3.079-24.31" fill="#231f1f"/><path d="m143.853 33.205c-15.535-20.193-39.937-33.205-67.378-33.205-33.597 0-62.638 19.505-76.428 47.812h112.806c12.437 0 23.552-5.698 31-14.607" fill="#f0bf1a" transform="translate(31.497 15)"/><path d="m175.643 151.412c-7.401-8.705-18.432-14.225-30.761-14.225h-113.338c13.79 28.308 42.831 47.813 76.428 47.813 27.614 0 52.15-13.177 67.671-33.588" fill="#3ebeb0"/><path d="m65.149 26.57c-14.529 8.502-26.223 21.114-33.605 36.243h63.25c-6.63-14.88-16.944-27.433-29.646-36.244" fill="#d7a229"/><path d="m96.211 137.188h-64.667c7.829 16.047 20.499 29.239 36.217 37.71 12.425-9.37 22.348-22.42 28.45-37.71" fill="#019b8f"/></g></svg>