<svg clip-rule="evenodd" fill-rule="evenodd" stroke-linejoin="round" stroke-miterlimit="1.414" viewBox="0 0 400 400" xmlns="http://www.w3.org/2000/svg"><path d="M270.55 152.45H54.973A169.17 169.17 0 0 0 48.194 200c0 16.51 2.367 32.467 6.778 47.55h215.579c25.881 0 47.536-21.133 47.536-47.55s-21.128-47.55-47.536-47.55" fill="#06a5de"/><path d="M196.485 152.45H54.972A169.17 169.17 0 0 0 48.194 200c0 16.51 2.367 32.467 6.778 47.55h141.922a192.58 192.58 0 0 0 5.717-46.746 192.408 192.408 0 0 0-6.124-48.354" fill="#231f1f"/><path d="M351.224 96.978c-30.9-40.165-79.436-66.046-134.017-66.046-66.826 0-124.59 38.796-152.019 95.1h224.376c24.738 0 46.846-11.334 61.66-29.054" fill="#f0bf1a"/><path d="M351.807 302.26c-14.721-17.314-36.662-28.293-61.185-28.293H65.188c27.429 56.305 85.193 95.102 152.019 95.102 54.925 0 103.728-26.21 134.6-66.808" fill="#3ebeb0"/><path d="M132.03 53.945a169.81 169.81 0 0 0-66.842 72.089h125.807c-13.187-29.597-33.702-54.565-58.967-72.09" fill="#d7a229"/><path d="M193.813 273.969H65.188a169.79 169.79 0 0 0 72.037 75.006c24.714-18.637 44.451-44.594 56.588-75.006" fill="#019b8f"/></svg>