<svg xmlns="http://www.w3.org/2000/svg" width="40" height="40" fill="none" viewBox="0 0 40 40"><rect width="40" height="40" fill="#3273dc" rx="20"/><path fill="#e9f2ff" d="M20 6.666A13.333 13.333 0 0 0 6.665 19.999c0 5.894 3.827 10.894 9.12 12.667.667.107.88-.307.88-.667v-2.253c-3.693.8-4.48-1.787-4.48-1.787-.613-1.546-1.48-1.96-1.48-1.96-1.213-.826.093-.8.093-.8 1.334.094 2.04 1.374 2.04 1.374 1.16 2.026 3.12 1.426 3.88 1.106.12-.866.467-1.453.84-1.786-2.96-.334-6.066-1.48-6.066-6.56 0-1.48.506-2.667 1.373-3.614-.133-.333-.6-1.72.133-3.52 0 0 1.12-.36 3.667 1.36 1.053-.293 2.2-.44 3.333-.44s2.28.147 3.334.44c2.546-1.72 3.666-1.36 3.666-1.36.734 1.8.267 3.187.134 3.52.866.947 1.373 2.134 1.373 3.614 0 5.093-3.12 6.213-6.093 6.546.48.414.92 1.227.92 2.467v3.653c0 .36.213.787.893.667 5.293-1.787 9.107-6.773 9.107-12.667A13.333 13.333 0 0 0 19.999 6.666"/></svg>