<svg clip-rule="evenodd" fill-rule="evenodd" stroke-linejoin="round" stroke-miterlimit="1.414" viewBox="0 0 400 400" xmlns="http://www.w3.org/2000/svg"><path d="M72.136 214.815c.513 10.586 11.078 5.651 15.795 2.364 4.515-3.186 5.847-.515 6.258-6.683.307-4.11.718-8.12.513-12.229-6.872-.618-14.257 1.028-19.899 5.14-2.976 2.054-8.31 8.836-2.667 11.408m210.591 130.12c8.104 5.036 22.977 20.248 10.77 27.65-11.693 10.688-18.258-11.822-28.516-14.904 4.41-6.065 9.95-11.616 17.746-12.747zM137.681 362.1c-9.54 1.439-14.871 10.074-22.873 14.493-7.489 4.419-10.361-1.44-10.976-2.673-1.129-.513-1.027.514-2.872-1.337-6.976-10.997 7.181-19.013 14.566-24.46 10.258-2.055 16.72 6.886 22.157 13.977zM327.76 213.48c-.512 10.586-11.079 5.653-15.799 2.363-4.512-3.186-5.845-.515-6.256-6.68-.307-4.112-.718-8.12-.512-12.231 6.872-.619 14.259 1.027 19.9 5.139 2.873 2.054 8.309 8.837 2.667 11.408" fill="#f6d2a2"/><path d="M299.756 84.385c36.62-12.95 7.999-63.21-23.9-41.008-20.927-17.988-49.753-21.278-80.013-21.278-29.643 2.364-57.853 7.812-77.548 25.08C86.497 26.622 57.16 75.957 94.496 88.393c-10.463 40.703 1.437 82.226-.203 123.647-1.54 37.204-11.285 87.056 9.334 120.458 17.54 28.574 55.29 38.75 86.37 39.879 39.697 1.44 87.807-8.325 107.091-46.867 18.465-36.694 13.334-82.43 10.976-122.002-2.36-39.981 2.05-80.58-8.308-119.123z" fill="#69d7e2"/><path d="M330.528 207.208c-1.025-2.158-2.974-4.626-4.821-5.96-4.718-3.392-10.77-5.243-17.028-5.448-.206-6.372-.41-13.362-.41-22.201v-8.017c-.103-25.283-.41-36.385-1.847-50.259-1.129-10.896-2.872-20.968-5.334-30.423 8.309-3.186 13.745-8.429 15.9-15.213 2.052-6.268 1.027-13.362-2.462-19.63-3.591-6.168-9.334-10.792-16.001-12.643-7.182-1.953-14.978-.513-22.466 4.522-6.667-5.653-14.36-9.968-22.977-13.258-15.285-5.653-33.029-7.811-57.135-7.811v1.027l-.104-1.027c-25.745 2.054-44.824 6.064-60.623 13.772-6.36 3.084-12.002 6.783-16.925 11.101-7.59-4.727-15.49-5.858-22.771-3.598-6.77 2.054-12.618 6.886-16.107 13.156-3.487 6.27-4.309 13.465-1.949 19.631s7.796 10.998 15.9 13.978c-2.564 10.381-3.897 21.38-4.102 33.508-.205 11.82.307 21.275 2.154 42.654 1.333 15.93 1.846 23.228 2.051 32.067-6.974-.309-13.95 1.542-19.182 5.345-1.846 1.336-3.898 3.7-4.82 5.96-1.335 2.879-.822 5.448 1.845 6.99.411 4.933 3.18 7.194 7.387 6.783 3.076-.308 6.769-1.953 9.949-4.213a11.429 11.429 0 012.154-1.233c.307-.104.513-.206.822-.31 0 0 .614-.205.818-.307.309-.103.618-.207.822-.413-.206 4.832-.615 9.869-1.538 21.38-1.026 12.95-1.538 20.042-1.744 27.955-.923 29.397 2.564 50.775 13.027 67.734 3.283 5.346 7.283 10.074 12.003 14.389-.924.618-4.822 3.495-6.053 4.42-4.309 3.288-7.283 6.065-9.027 9.147-2.258 4.01-2.258 8.017.308 12.23l.101.104.104.102c1.127 1.13 1.744 1.44 2.564 1.44h.309c.102.205.203.307.307.513.307.514.614.925.924 1.336 2.563 2.98 6.154 3.7 10.975.822 2.564-1.336 4.409-2.877 8.309-6.166l.205-.206c6.256-5.346 9.334-7.297 13.95-8.017l1.642-.307c.615.307 1.231.513 1.95.822 14.564 5.859 31.49 9.045 48.62 9.66 22.157.823 43.494-1.952 61.547-8.53a109.751 109.751 0 0013.643-6.063c2.667 1.027 4.923 3.185 9.232 8.222.204.206.204.206.308.411.205.206.205.308.307.411.205.307.512.513.718.822 3.385 4.01 5.641 5.96 8.207 7.092 3.385 1.438 6.667.718 10.052-2.364 5.949-3.7 6.36-9.456 2.462-16.035-2.77-4.624-7.59-9.455-12.105-12.537a71.06 71.06 0 0013.54-18.605c9.847-19.733 13.644-42.757 13.438-72.357-.102-10.483-.512-19.631-1.642-37.104v-.515a6.192 6.192 0 011.54.925c3.18 2.159 6.873 3.906 9.95 4.216 4.206.41 6.975-1.852 7.386-6.783 2.563-1.646 3.076-4.215 1.743-7.094zm-32.62-167.636c6.155 1.646 11.49 5.963 14.772 11.718s4.205 12.23 2.358 17.986c-1.949 6.064-6.872 10.896-14.564 13.772a167.266 167.266 0 00-5.438-16.238c2.976-2.57 4.41-5.757 2.052-10.28-2.36-4.522-6.463-5.034-10.668-3.698-2.667-3.495-5.641-6.579-8.718-9.455 6.769-4.317 13.745-5.552 20.208-3.805zM79.212 74.312c-2.155-5.549-1.436-12.128 1.847-17.883S89.677 46.15 96.037 44.3c6.563-1.953 13.642-1.027 20.616 3.084a67.603 67.603 0 00-10.668 12.23c-5.332-2.772-10.77-3.289-13.846 2.365-3.18 6.064.512 9.866 5.745 12.745a85.636 85.636 0 00-2.055 5.446 139.442 139.442 0 00-2.05 6.99c-7.487-2.877-12.413-7.298-14.565-12.847zm12.414 140.092c-.104 0-.718.205-.718.307-.31.104-.617.206-.924.411-.822.31-1.642.822-2.462 1.44-2.872 2.055-6.36 3.597-9.026 3.802-3.078.31-4.822-1.027-5.13-4.727 2.155-.718 3.077-1.233 3.899-2.468l-1.642-1.233c-.616.822-1.23 1.131-3.078 1.748-.102 0-.102 0-.205.101-1.64-.923-1.95-2.363-1.026-4.418.822-1.85 2.667-4.01 4.205-5.139 4.926-3.597 11.49-5.346 18.054-4.933 0 2.57.104 5.139 0 7.604 0 .31 0 .515-.1.824-.104 1.438-.104 2.055-.207 2.773-.308 2.982-.513 3.393-1.64 3.908zM122.604 369.5l-.205.206c-3.797 3.287-5.642 4.624-8.002 5.96-3.898 2.364-6.563 1.85-8.412-.41-.307-.31-.513-.719-.718-1.028-.1-.104-.204-.31-.307-.41v-.105c.205-1.849.923-3.185 2.77-6.064.102-.102.102-.102.102-.205 1.13-1.644 1.642-2.57 2.155-3.701l-1.848-.822c-.409.926-.921 1.748-1.949 3.391-.101.104-.101.104-.101.206-1.848 2.673-2.667 4.317-3.078 6.168h-.41a3.712 3.712 0 01-.923-.718c-4.002-6.374-.822-11.822 8.205-18.604 1.129-.824 4.925-3.495 5.95-4.317.206 0 .411-.104.615-.206 5.54 4.728 12.003 8.838 19.183 12.229 0 .104.103.207.205.31-4.205 1.028-7.489 3.187-13.232 8.118zm172.228-11.203c3.18 5.344 3.076 9.661-.923 12.641-.31-.618-.513-1.336-.924-2.363 0-.104 0-.104-.102-.206-1.436-3.906-2.36-5.55-4.103-7.4l-1.436 1.44c1.538 1.436 2.256 2.98 3.69 6.577 0 .103 0 .103.104.205.513 1.337.822 2.158 1.129 2.879-2.667 2.26-5.027 2.673-7.489 1.542-2.154-.926-4.205-2.879-7.486-6.58a5.738 5.738 0 01-.617-.821c-.102-.104-.205-.206-.307-.411-.206-.206-.206-.206-.31-.411-3.794-4.42-6.05-6.783-8.511-8.12 5.745-3.29 10.872-6.99 15.488-11.306 4.309 3.186 9.13 7.913 11.797 12.334zm1.437-33.302c-8.824 17.782-24.415 30.322-45.342 37.926-17.848 6.475-38.98 9.149-60.827 8.327-37.647-1.337-70.267-14.493-85.55-39.367-10.257-16.547-13.644-37.617-12.72-66.602.309-7.914.718-15.006 1.745-27.956 1.127-14.595 1.436-18.808 1.743-25.387.206-4.728.206-9.56.102-14.698-.205-9.045-.718-16.238-2.05-32.377-1.848-21.376-2.36-30.73-2.155-42.446.307-15.418 2.36-28.985 6.667-41.832 6.976-20.867 19.797-34.946 38.261-44.093 15.49-7.606 34.262-11.512 59.804-13.567 23.899 0 41.338 2.157 56.417 7.708 18.053 6.681 31.49 18.397 40.723 36.385 5.95 14.594 9.437 30.321 11.285 48.409 1.436 13.772 1.743 24.874 1.845 50.055v8.017c.104 12.436.307 21.172.822 29.91.203 3.39.307 4.829.82 12.95 1.129 17.47 1.538 26.515 1.642 37 .205 29.498-3.49 52.212-13.234 71.638zm31.387-112.544c-.102 0-.206-.104-.307-.104-1.848-.616-2.462-1.027-3.079-1.747l-1.64 1.234c.922 1.233 1.846 1.746 3.899 2.466-.411 3.7-2.155 5.037-5.13 4.728-2.666-.206-6.155-1.85-9.028-3.802-.818-.619-1.64-1.028-2.462-1.44-.101 0-.203-.102-.307-.102-.41-5.654-.41-7.092-.614-10.074l-.31-5.55c5.746.104 11.387 1.851 15.696 5.037 1.538 1.131 3.385 3.29 4.205 5.139 1.026 1.747.82 3.29-.923 4.215z"/><path d="M211.395 128.098c.102 5.24 1.13 10.998.206 16.548-1.437 2.673-4.104 2.98-6.464 4.01a9.675 9.675 0 01-7.385-5.758c-.82-6.27.206-12.23.513-18.5 0-.206 3.898.101 7.385 1.13 2.976.924 5.745 2.466 5.745 2.57zm-29.029.411c-2.873 10.894 3.794 28.676 14.77 14.08-.82-6.164.104-12.129.411-18.193.102-.513-15.08 3.393-15.18 4.113z" fill="#fff"/><path d="M212.626 132.928c-.205-3.082-.307-4.317-.307-5.86v-.717l-.718-.206-12.927-4.01v-.718l-1.332.308h-.102v.103l-14.567 3.7-.512.103-.206.514c-2.256 5.446-1.743 13.669 1.13 18.706 3.28 5.755 8.617 5.859 14.051-.718a10.506 10.506 0 007.694 5.55h.307l.308-.104c.41-.206.822-.31 1.54-.619.101 0 .101 0 .205-.1 2.972-1.029 4.205-1.85 5.23-3.803l.104-.104v-.206c.308-1.849.41-3.802.41-5.96 0-1.542-.102-2.98-.308-5.86zm-16.412-3.802c-.103 1.849-.205 2.569-.309 3.596-.203 3.804-.203 6.683.104 9.56-4.822 6.166-8.618 6.166-11.181 1.542-2.462-4.317-2.975-11.614-1.13-16.446l12.927-3.29a523.72 523.72 0 01-.41 5.038zm14.361 15.21c-.718 1.235-1.641 1.852-4.103 2.673-.104 0-.104 0-.205.102-.617.208-1.026.413-1.335.515a8.548 8.548 0 01-6.256-4.933c-.31-2.775-.31-5.654-.104-9.456.104-1.027.104-1.748.31-3.597.203-2.364.307-3.804.307-5.14l11.18 3.39c0 1.337.103 2.572.308 5.243.206 2.775.307 4.215.307 5.86 0 1.954-.101 3.7-.409 5.345z"/><g transform="translate(118.26 43.337) scale(1.99486)"><path d="M1.183 20.042c4.73 18.446 34.195 13.705 33.063-4.791C32.91-6.904-3.342-2.628 1.183 20.042" fill="#fff"/><path d="M34.76 15.2c-.308-5.36-2.673-9.532-6.581-12.16C24.682.67 20.054-.258 15.478.31 10.9.926 6.685 2.987 3.908 6.233.823 9.841-.36 14.581.72 20.042l.463-.103-.463.103c4.833 18.96 35.172 14.375 34.04-4.843zM1.646 19.94c-1.028-5.204.103-9.635 2.983-12.984C7.25 3.916 11.21 1.906 15.58 1.34c4.37-.567 8.741.309 12.032 2.576 3.651 2.473 5.862 6.337 6.17 11.438 1.08 17.981-27.561 22.31-32.138 4.585z"/><ellipse cx="9.307" cy="17.003" rx="4.988" ry="5.41"/><ellipse cx="11.57" cy="18.239" fill="#fff" rx="1.183" ry="1.391"/></g><g transform="translate(201.818 39.333) scale(1.99486)"><path d="M.617 18.6c3.65 21.176 38.206 15.56 33.218-5.77C29.361-6.338-.617-1.03.617 18.6" fill="#fff"/><path d="M34.298 12.726C29.72-7.007-1.132-1.597.103 18.651v.052C1.8 28.698 10.696 33.799 20.517 32.15c4.474-.773 8.484-2.937 11.107-6.13 2.88-3.556 3.908-8.142 2.674-13.294zm-3.445 12.675c-2.469 2.988-6.222 5.049-10.49 5.77-9.307 1.546-17.638-3.246-19.283-12.623C-.051-.515 29.053-5.616 33.372 12.932c1.131 4.895.206 9.171-2.52 12.469z"/><ellipse cx="9.102" cy="17.672" rx="4.885" ry="5.41"/><ellipse cx="11.364" cy="18.909" fill="#fff" rx="1.131" ry="1.391"/></g><path d="M184.483 106.304c-8.103.719-14.669 10.278-10.461 17.884 5.537 10.074 17.95-.925 25.644.104 8.923.205 16.206 9.456 23.284 1.644 7.9-8.634-3.386-17.062-12.309-20.763z" fill="#f6d2a2"/><path d="M223.977 113.19c-2.771-3.494-7.593-6.68-12.823-8.837l-.206-.103h-.205l-26.26 1.027c-9.129.822-15.694 11.409-11.283 19.426 1.743 3.082 4.103 4.624 7.283 4.83 2.36.103 4.822-.411 8.618-1.748.307-.102.718-.205 1.229-.41 5.13-1.748 7.181-2.261 9.232-1.954h.104c2.461 0 4.512.72 8.41 2.262 4.309 1.748 5.641 2.26 7.796 2.466 2.976.205 5.54-.822 7.9-3.391 4-4.419 3.794-9.147.205-13.565zm-1.746 12.13c-1.949 2.158-3.898 2.876-6.256 2.772-1.847-.1-3.078-.614-7.181-2.26-4.103-1.745-6.36-2.364-9.027-2.466-2.563-.309-4.718.206-10.154 2.055-.514.206-.923.31-1.232.411-7.487 2.571-11.078 2.364-13.54-2.158-3.692-6.681 1.95-15.726 9.642-16.444l25.953-1.027c4.923 2.054 9.336 5.035 11.9 8.22 3.075 3.7 3.179 7.401-.105 10.896z" fill="#231f20"/><path d="M212.692 101.886c-3.18-11.718-29.85-9.97-29.235 4.007 1.335 10.382 32.313 7.607 29.235-4.01z"/></svg>