<svg height="50" viewBox="0 0 121 126" xmlns="http://www.w3.org/2000/svg"><g fill="none" fill-rule="evenodd"><path d="m85.218 94.1435c2.0246-1.4178 6.6492 1.6934 10.3293 6.949 3.68 5.2556 5.0218 10.6654 2.997 12.0832-2.0247 1.4177-6.6493-1.6935-10.3293-6.949-3.68-5.2557-5.022-10.6655-2.997-12.0832zm-48.436 0c-2.0246-1.4178-6.6492 1.6934-10.3293 6.949-3.68 5.2556-5.0218 10.6654-2.997 12.0832 2.0247 1.4177 6.6493-1.6935 10.3293-6.949 3.68-5.2557 5.022-10.6655 2.997-12.0832zm24.1935 8.2289c-2.4717 0-4.4755 5.201-4.4755 11.617s2.0038 11.617 4.4755 11.617c2.4718 0 4.4755-5.201 4.4755-11.617s-2.0037-11.617-4.4755-11.617z" fill="#277a9f"/><path d="m85.218 31.8565c2.0246 1.4178 6.6492-1.6934 10.3293-6.949 3.68-5.2556 5.0218-10.6654 2.997-12.0832-2.0247-1.4177-6.6493 1.6935-10.3293 6.949-3.68 5.2557-5.022 10.6655-2.997 12.0832zm-48.436 0c-2.0246 1.4178-6.6492-1.6934-10.3293-6.949-3.68-5.2556-5.0218-10.6654-2.997-12.0832 2.0247-1.4177 6.6493 1.6935 10.3293 6.949 3.68 5.2557 5.022 10.6655 2.997 12.0832zm24.1935-8.2289c-2.4717 0-4.4755-5.201-4.4755-11.617s2.0038-11.617 4.4755-11.617c2.4718 0 4.4755 5.201 4.4755 11.617s-2.0037 11.617-4.4755 11.617z" fill="#277a9f"/><path d="m95.5044 42.1636c-7.2176-11.883-20.2966-19.8232-35.2333-19.8232-14.528 0-27.2986 7.5117-34.6276 18.8568m.7842 45.6688c7.4352 10.689 19.8207 17.6872 33.8435 17.6872 14.0484 0 26.4534-7.0237 33.884-17.7455" stroke="#277a9f" stroke-width="7.1608"/><path d="m.609 47.6948h8.6217v12.1304h9.7244v-12.1304h8.6218v32.5818h-8.6219v-12.9326h-9.7242v12.9326h-8.6218zm34.186 0h21.0528v7.218h-12.4312v5.113h10.6266v7.218h-10.6266v5.8147h12.9324v7.218h-21.554v-32.5815zm27.87 0h8.6215v25.3637h12.331v7.218h-20.9525v-32.5815zm26.5666 0h8.9224l5.113 13.534 1.8044 5.3133h.2005l1.8044-5.3132 4.9124-13.534h8.9224v32.5818h-8.0202v-9.6242c0-.8354.0418-1.7544.1253-2.757.0836-1.0024.1755-2.03.2757-3.0826.1003-1.0527.2172-2.0803.351-3.0828.1336-1.0025.2505-1.9048.3508-2.7068h-.2005l-2.7068 7.6192-4.5113 10.9775h-3.208l-4.5114-10.9776-2.6066-7.6192h-.2005c.1003.802.2172 1.7043.351 2.7068.1336 1.0025.2505 2.03.3508 3.0828.1002 1.0526.192 2.0802.2757 3.0827.0835 1.0025.1253 1.9215.1253 2.757v9.624h-7.92v-32.5815z" fill="#277a9f"/></g></svg>