<svg clip-rule="evenodd" fill-rule="evenodd" viewBox="0 0 400 400" xmlns="http://www.w3.org/2000/svg"><g fill-rule="nonzero" transform="matrix(.512447 0 0 .512447 11.5482 -69.4117)"><path d="m365.313 184.813c-6.214.312-12.302 1.853-17.907 4.531l-244.343 116.75c-12.803 6.114-22.119 17.698-25.282 31.437l-60.281 262.25c-2.811 12.203-.521 25.029 6.344 35.532.824 1.271 1.71 2.502 2.656 3.687l169.125 210.281c8.862 11.015 22.323 17.441 36.531 17.438l271.219-.063c14.203.011 27.663-6.403 36.531-17.406l169.063-210.312c8.867-11.021 12.195-25.473 9.031-39.219l-60.375-262.25c-3.163-13.74-12.479-25.324-25.281-31.438l-244.375-116.687c-7.05-3.368-14.841-4.927-22.656-4.531z" fill="#326ce5"/><path d="m367.734 274.06c-8.077 0-14.626 7.276-14.625 16.25 0 .137.028.269.031.406-.012 1.219-.071 2.688-.031 3.75.192 5.176 1.321 9.137 2 13.906 1.23 10.207 2.261 18.667 1.625 26.531-.619 2.966-2.803 5.678-4.75 7.563l-.344 6.187c-8.777.728-17.612 2.059-26.438 4.063-37.974 8.622-70.67 28.183-95.562 54.594-1.615-1.102-4.441-3.13-5.281-3.75-2.612.352-5.251 1.158-8.688-.844-6.545-4.406-12.506-10.487-19.719-17.813-3.305-3.504-5.698-6.841-9.625-10.218-.891-.767-2.252-1.805-3.25-2.594-3.07-2.448-6.69-3.724-10.187-3.844-4.496-.154-8.824 1.604-11.656 5.156-5.036 6.316-3.424 15.968 3.593 21.563.072.057.147.101.219.156.964.782 2.145 1.783 3.031 2.438 4.167 3.076 7.974 4.651 12.125 7.093 8.747 5.402 15.999 9.881 21.75 15.282 2.246 2.394 2.639 6.613 2.938 8.437l4.687 4.188c-25.093 37.763-36.706 84.409-29.843 131.937l-6.125 1.781c-1.615 2.085-3.896 5.365-6.282 6.344-7.525 2.37-15.994 3.241-26.218 4.313-4.801.399-8.943.161-14.032 1.125-1.12.212-2.68.618-3.906.906-.042.009-.082.021-.125.031-.067.016-.154.048-.219.063-8.62 2.082-14.157 10.006-12.375 17.812 1.784 7.808 10.204 12.557 18.875 10.688.063-.015.154-.017.219-.032.098-.022.184-.07.281-.093 1.209-.266 2.724-.561 3.782-.844 5.003-1.34 8.627-3.308 13.125-5.031 9.677-3.471 17.691-6.371 25.5-7.5 3.261-.256 6.697 2.012 8.406 2.968l6.375-1.093c14.67 45.482 45.414 82.245 84.344 105.312l-2.657 6.375c.958 2.476 2.014 5.825 1.301 8.269-2.839 7.362-7.701 15.131-13.238 23.794-2.681 4.002-5.425 7.107-7.844 11.687-.579 1.096-1.316 2.779-1.875 3.938-3.759 8.042-1.002 17.305 6.219 20.781 7.266 3.498 16.284-.191 20.187-8.25.006-.011.026-.02.032-.031.004-.009-.004-.023 0-.031.555-1.143 1.343-2.645 1.812-3.719 2.072-4.747 2.762-8.815 4.219-13.406 3.869-9.721 5.995-19.92 11.322-26.275 1.459-1.74 3.837-2.409 6.303-3.069l3.312-6c33.939 13.027 71.927 16.522 109.875 7.906 8.657-1.966 17.015-4.509 25.094-7.562.931 1.651 2.661 4.825 3.125 5.625 2.506.815 5.241 1.236 7.469 4.531 3.985 6.809 6.711 14.864 10.031 24.594 1.457 4.591 2.178 8.659 4.25 13.406.472 1.082 1.256 2.605 1.813 3.75 3.894 8.085 12.942 11.786 20.218 8.281 7.22-3.478 9.98-12.74 6.219-20.781-.559-1.158-1.327-2.842-1.906-3.938-2.42-4.579-5.163-7.654-7.844-11.656-5.537-8.662-10.13-15.858-12.969-23.219-1.187-3.796.201-6.157 1.125-8.625-.553-.635-1.738-4.22-2.437-5.906 40.457-23.888 70.298-62.021 84.312-106.062 1.893.297 5.182.879 6.25 1.093 2.2-1.45 4.222-3.343 8.188-3.031 7.808 1.129 15.823 4.03 25.5 7.5 4.498 1.723 8.121 3.723 13.125 5.063 1.057.283 2.572.547 3.781.812.097.024.183.071.281.094.066.014.156.017.219.031 8.672 1.867 17.094-2.879 18.875-10.688 1.781-7.807-3.754-15.732-12.375-17.812-1.254-.285-3.032-.769-4.25-1-5.089-.964-9.231-.726-14.031-1.125-10.225-1.071-18.694-1.943-26.219-4.313-3.068-1.19-5.251-4.841-6.312-6.343l-5.907-1.719c3.063-22.154 2.237-45.211-3.062-68.281-5.349-23.285-14.801-44.581-27.406-63.344 1.515-1.377 4.376-3.911 5.187-4.656.237-2.624.033-5.376 2.75-8.282 5.751-5.4 13.003-9.879 21.75-15.281 4.152-2.442 7.99-4.017 12.156-7.094.943-.695 2.229-1.797 3.219-2.593 7.015-5.597 8.631-15.249 3.594-21.563s-14.797-6.909-21.813-1.312c-.998.791-2.353 1.822-3.25 2.593-3.926 3.378-6.351 6.715-9.656 10.219-7.212 7.326-13.174 13.438-19.719 17.844-2.836 1.651-6.99 1.08-8.875.969l-5.562 3.968c-31.719-33.26-74.905-54.525-121.406-58.656-.13-1.949-.301-5.471-.344-6.531-1.904-1.822-4.204-3.377-4.781-7.313-.637-7.864.426-16.324 1.656-26.531.679-4.769 1.807-8.73 2-13.906.044-1.177-.027-2.884-.031-4.156-.001-8.974-6.548-16.251-14.625-16.25zm-18.313 113.437-4.344 76.719-.312.156c-.291 6.863-5.94 12.344-12.875 12.344-2.841 0-5.463-.912-7.594-2.469l-.125.063-62.906-44.594c19.334-19.011 44.063-33.061 72.562-39.531 5.206-1.182 10.41-2.059 15.594-2.688zm36.656 0c33.274 4.092 64.045 19.159 87.625 42.25l-62.5 44.313-.218-.094c-5.548 4.052-13.364 3.046-17.688-2.375-1.771-2.221-2.701-4.832-2.812-7.469l-.063-.031zm-147.625 70.875 57.438 51.375-.063.313c5.185 4.507 5.949 12.328 1.625 17.75-1.771 2.221-4.142 3.71-6.687 4.406l-.063.25-73.625 21.25c-3.747-34.265 4.329-67.574 21.375-95.344zm258.157.031c8.534 13.833 14.996 29.282 18.843 46.032 3.801 16.548 4.755 33.067 3.188 49.031l-74-21.313-.063-.312c-6.626-1.811-10.699-8.552-9.156-15.313.632-2.769 2.102-5.112 4.094-6.843l-.031-.157zm-140.657 55.313h23.532l14.625 18.281-5.25 22.813-21.125 10.156-21.188-10.188-5.25-22.812zm75.438 62.562c1-.05 1.995.04 2.969.219l.125-.156 76.156 12.875c-11.146 31.313-32.473 58.44-60.969 76.594l-29.562-71.407.093-.125c-2.715-6.31.002-13.709 6.25-16.718 1.6-.771 3.271-1.197 4.938-1.282zm-127.906.313c5.811.081 11.024 4.115 12.375 10.031.632 2.77.324 5.514-.719 7.938l.219.281-29.25 70.687c-27.347-17.548-49.13-43.824-60.782-76.062l75.5-12.813.125.157c.845-.156 1.701-.231 2.532-.219zm63.781 30.969c2.024-.075 4.079.341 6.031 1.281 2.56 1.232 4.537 3.173 5.781 5.5h.282l37.218 67.25c-4.83 1.619-9.796 3.003-14.875 4.156-28.464 6.463-56.838 4.505-82.531-4.25l37.125-67.125h.063c2.227-4.164 6.452-6.649 10.906-6.812z" fill="#fff" stroke="#fff" stroke-width=".25"/></g></svg>