<svg clip-rule="evenodd" fill-rule="evenodd" viewBox="0 0 400 400" xmlns="http://www.w3.org/2000/svg"><g fill-rule="nonzero"><path d="M198.752 25.295a24.09 24.09 0 00-9.177 2.322L64.363 87.445c-6.561 3.133-11.335 9.07-12.956 16.11l-30.891 134.39a23.596 23.596 0 003.251 18.208c.422.65.876 1.282 1.361 1.889L111.796 365.8c4.54 5.644 11.439 8.937 18.72 8.936l138.985-.032c7.278.005 14.176-3.282 18.72-8.92l86.636-107.774a23.614 23.614 0 004.628-20.097l-30.939-134.39c-1.62-7.04-6.395-12.977-12.955-16.11l-125.23-59.796a24.11 24.11 0 00-11.61-2.322z" fill="#326ce5"/><path d="M199.992 71.03c-4.139 0-7.495 3.728-7.494 8.327 0 .07.014.138.016.208-.006.625-.037 1.377-.016 1.922.098 2.652.677 4.682 1.025 7.126.63 5.23 1.158 9.565.832 13.595-.317 1.52-1.436 2.91-2.434 3.876l-.176 3.17a97.595 97.595 0 00-13.548 2.083c-19.46 4.418-36.215 14.442-48.97 27.976a127.213 127.213 0 01-2.707-1.922c-1.338.18-2.69.594-4.452-.432-3.354-2.258-6.409-5.374-10.105-9.128-1.693-1.796-2.92-3.506-4.932-5.236-.457-.394-1.154-.925-1.666-1.33-1.573-1.254-3.428-1.908-5.22-1.97-2.304-.079-4.522.822-5.973 2.643-2.58 3.236-1.755 8.182 1.841 11.05.037.029.076.051.113.08.494.4 1.099.913 1.553 1.249 2.135 1.576 4.086 2.383 6.213 3.635 4.483 2.768 8.199 5.063 11.146 7.83 1.15 1.228 1.352 3.39 1.505 4.324l2.402 2.146c-12.859 19.352-18.81 43.256-15.293 67.611l-3.138.913c-.828 1.068-1.997 2.749-3.22 3.25-3.856 1.215-8.196 1.662-13.435 2.21-2.46.205-4.583.083-7.19.577-.575.11-1.374.317-2.002.465-.022.004-.042.01-.064.016-.035.008-.08.024-.112.032-4.418 1.067-7.255 5.127-6.342 9.128.914 4 5.229 6.434 9.672 5.477.033-.008.08-.01.113-.017.05-.011.094-.036.144-.047.62-.137 1.396-.288 1.938-.433 2.564-.687 4.42-1.695 6.726-2.578 4.959-1.779 9.065-3.265 13.067-3.843 1.671-.132 3.432 1.03 4.308 1.52l3.266-.56c7.518 23.308 23.273 42.147 43.222 53.967l-1.361 3.267c.49 1.269 1.032 2.985.666 4.237-1.454 3.773-3.946 7.754-6.783 12.194-1.374 2.05-2.78 3.642-4.02 5.989-.297.561-.674 1.424-.96 2.018-1.927 4.12-.514 8.868 3.186 10.649 3.724 1.792 8.345-.098 10.345-4.228.003-.006.013-.01.016-.016.002-.004-.002-.012 0-.016.285-.585.688-1.355.929-1.905 1.062-2.433 1.415-4.518 2.162-6.87 1.982-4.982 3.072-10.208 5.802-13.465.747-.892 1.966-1.234 3.23-1.573l1.697-3.074c17.392 6.675 36.859 8.466 56.305 4.051a97.278 97.278 0 0012.86-3.875c.476.846 1.363 2.473 1.6 2.883 1.285.417 2.687.633 3.828 2.321 2.042 3.49 3.44 7.617 5.14 12.604.747 2.352 1.117 4.437 2.179 6.87.241.554.643 1.334.929 1.921 1.995 4.143 6.632 6.04 10.36 4.244 3.7-1.783 5.114-6.529 3.187-10.65-.286-.593-.68-1.456-.977-2.017-1.24-2.347-2.645-3.923-4.02-5.974-2.837-4.438-5.19-8.126-6.645-11.898-.608-1.945.103-3.155.576-4.42-.283-.325-.89-2.162-1.248-3.026 20.732-12.242 36.024-31.783 43.205-54.352.97.153 2.655.45 3.203.56 1.127-.743 2.163-1.713 4.196-1.553 4 .579 8.108 2.065 13.067 3.844 2.305.883 4.162 1.907 6.726 2.594.542.145 1.318.28 1.937.416.05.013.094.037.144.048.034.008.08.01.113.016 4.444.957 8.76-1.475 9.672-5.477.913-4-1.924-8.062-6.341-9.127-.643-.146-1.554-.394-2.178-.513-2.608-.494-4.73-.372-7.19-.576-5.24-.55-9.58-.996-13.436-2.21-1.572-.61-2.691-2.481-3.235-3.251l-3.027-.88c1.57-11.354 1.146-23.17-1.569-34.991a97.032 97.032 0 00-14.044-32.46c.776-.706 2.242-2.005 2.658-2.387.121-1.344.017-2.755 1.41-4.244 2.946-2.767 6.663-5.062 11.145-7.83 2.128-1.252 4.094-2.059 6.23-3.636.482-.356 1.141-.92 1.649-1.329 3.595-2.868 4.423-7.814 1.842-11.05s-7.583-3.54-11.178-.672c-.512.406-1.206.934-1.666 1.329-2.012 1.731-3.254 3.441-4.948 5.237-3.696 3.754-6.751 6.886-10.105 9.144-1.453.846-3.582.553-4.548.496l-2.85 2.034c-16.255-17.044-38.385-27.941-62.214-30.058a180.21 180.21 0 01-.177-3.347c-.975-.934-2.154-1.73-2.45-3.748-.326-4.03.219-8.365.849-13.595.348-2.444.926-4.474 1.025-7.126.022-.604-.014-1.478-.016-2.13 0-4.599-3.356-8.328-7.495-8.327zm-9.384 58.13l-2.226 39.314-.16.08a6.607 6.607 0 01-10.49 5.06l-.063.033-32.236-22.852c9.907-9.742 22.58-16.942 37.184-20.258a79.077 79.077 0 017.99-1.377zm18.784 0c17.051 2.097 32.82 9.818 44.903 21.65l-32.028 22.709-.111-.048a6.614 6.614 0 01-9.064-1.217 6.56 6.56 0 01-1.441-3.828l-.033-.016zm-75.65 36.32l29.434 26.327-.032.16a6.599 6.599 0 01.833 9.096 6.608 6.608 0 01-3.427 2.258l-.032.128-37.73 10.89a77.191 77.191 0 0110.954-48.86zm132.292.016a78.153 78.153 0 019.656 23.589c1.948 8.48 2.437 16.945 1.634 25.125l-37.921-10.921-.033-.16a6.61 6.61 0 01-4.692-7.847 6.55 6.55 0 012.098-3.507l-.016-.08zm-72.08 28.345h12.06l7.494 9.368-2.69 11.69-10.826 5.204-10.857-5.22-2.69-11.69zm38.659 32.06a6.596 6.596 0 011.521.111l.064-.08 39.026 6.598c-5.712 16.047-16.64 29.948-31.243 39.25l-15.15-36.592.048-.064a6.615 6.615 0 013.203-8.567 6.594 6.594 0 012.53-.657zm-65.545.16a6.61 6.61 0 016.341 5.14 6.547 6.547 0 01-.368 4.068l.112.144-14.99 36.223c-14.013-8.992-25.176-22.457-31.147-38.978l38.69-6.566.064.08c.433-.08.872-.118 1.298-.111zm32.684 15.87a6.538 6.538 0 013.09.656 6.557 6.557 0 012.963 2.819h.145l19.072 34.462a79.04 79.04 0 01-7.623 2.13c-14.586 3.311-29.126 2.308-42.293-2.179l19.025-34.398h.032a6.614 6.614 0 015.589-3.49z" fill="#fff" stroke="#fff" stroke-width=".128"/></g></svg>