<svg xmlns="http://www.w3.org/2000/svg" xml:space="preserve" width="1666.949" height="781.664" viewBox="0 0 1666.949 781.664"><path d="M822.333 261.39c-21.798.097-43.595.436-65.385 1.04a2707 2707 0 0 0-76.955 3.235 2589 2589 0 0 0-66.21 4.593 2409 2409 0 0 0-72.804 7.123 2195 2195 0 0 0-62.029 7.942 2001 2001 0 0 0-48.84 7.61c-21.241 3.599-42.421 7.555-63.512 11.95-17.958 3.74-35.85 7.8-53.652 12.22-16.203 4.037-32.333 8.375-48.354 13.084-14.904 4.388-29.716 9.09-44.39 14.197a768 768 0 0 0-34.452 12.895c-10.177 4.113-20.262 8.46-30.203 13.116-8.3 3.89-16.504 7.99-24.566 12.354-7.631 4.128-15.134 8.496-22.455 13.153-5.18 3.302-10.276 6.74-15.234 10.369a229 229 0 0 0-14.813 11.735c-3.668 3.185-7.24 6.486-10.638 9.958a143 143 0 0 0-8.245 9.085 121 121 0 0 0-7.017 9.259 104 104 0 0 0-5.205 8.44 93 93 0 0 0-3.72 7.555 80 80 0 0 0-3.109 8.411c-.783 2.509-1.397 5.068-1.915 7.644a82 82 0 0 0-.893 6.095c-.234 2.525-.373 5.062-.333 7.599a67 67 0 0 0 .612 8.343c.309 2.35.767 4.677 1.302 6.985a77 77 0 0 0 2.287 7.67 84 84 0 0 0 3.51 8.39 97 97 0 0 0 4.134 7.627 110 110 0 0 0 5.652 8.46 134 134 0 0 0 7.734 9.521 165 165 0 0 0 9.178 9.465 204 204 0 0 0 10.57 9.339 247 247 0 0 0 15.112 11.444 306 306 0 0 0 15.856 10.374c7.6 4.66 15.385 9.018 23.286 13.15a500 500 0 0 0 25.322 12.296c11.416 5.172 23.004 9.962 34.703 14.456 12.5 4.804 25.132 9.26 37.85 13.447 14.5 4.767 29.114 9.177 43.81 13.295 17.432 4.88 34.977 9.35 52.601 13.48 19.882 4.656 39.863 8.878 59.914 12.74 22.058 4.244 44.2 8.046 66.4 11.474 26.71 4.118 53.504 7.69 80.352 10.782a2381 2381 0 0 0 78.45 7.695 2581 2581 0 0 0 86.822 5.601 2719 2719 0 0 0 89.15 2.792c29.812.446 59.631.412 89.442-.106 29.378-.508 58.747-1.49 88.092-2.952a2585 2585 0 0 0 82.965-5.464 2408 2408 0 0 0 73.72-7.206 2196 2196 0 0 0 61.833-7.922 1999 1999 0 0 0 48.906-7.623c18.479-3.133 36.912-6.536 55.281-10.26 20.377-4.14 40.677-8.662 60.858-13.67a1196 1196 0 0 0 49.438-13.356c14.86-4.38 29.63-9.07 44.262-14.163 11.54-4.017 22.995-8.286 34.33-12.852 10.322-4.163 20.543-8.582 30.622-13.304 8.99-4.227 17.87-8.69 26.574-13.482a361 361 0 0 0 20.144-11.894c5.847-3.726 11.578-7.635 17.138-11.777a234 234 0 0 0 12.096-9.634c3.75-3.233 7.404-6.58 10.89-10.1 3.465-3.496 6.782-7.143 9.877-10.973 2.071-2.547 4.036-5.18 5.89-7.888a105 105 0 0 0 5.206-8.44 92 92 0 0 0 3.719-7.555 80 80 0 0 0 3.11-8.411c.783-2.51 1.397-5.068 1.914-7.645q.562-3.03.894-6.094c.234-2.526.373-5.062.332-7.6a67 67 0 0 0-.612-8.341c-.31-2.372-.777-4.72-1.316-7.049-.648-2.612-1.4-5.2-2.318-7.73-1.01-2.861-2.206-5.652-3.52-8.386a97 97 0 0 0-4.183-7.676c-1.761-2.925-3.68-5.752-5.7-8.506a137 137 0 0 0-7.582-9.306 164 164 0 0 0-9.178-9.465 201 201 0 0 0-13.447-11.659c-4.3-3.438-8.743-6.692-13.255-9.846a324 324 0 0 0-17.365-11.188c-6.87-4.134-13.884-8.024-20.99-11.737-9.255-4.822-18.674-9.328-28.207-13.575-10.608-4.727-21.355-9.135-32.198-13.291-12.505-4.788-25.139-9.24-37.862-13.414-14.397-4.727-28.91-9.092-43.5-13.182a1272 1272 0 0 0-52.606-13.464c-19.84-4.643-39.78-8.85-59.787-12.703-19.03-3.66-38.122-6.987-57.26-10.036-23.247-3.694-46.563-6.965-69.923-9.867a2326 2326 0 0 0-73.032-7.862 2532 2532 0 0 0-85.278-6.359 2692 2692 0 0 0-78.169-3.372 2776 2776 0 0 0-88.584-1.105z" style="display:inline;opacity:1;fill:#87d6be;fill-opacity:1;stroke:none;stroke-width:94.9998;stroke-linecap:round;stroke-linejoin:round;stroke-miterlimit:0;stroke-opacity:1"/><path d="m1407.447 413.555-1187.207.879a36.387 36.387 0 0 0-22.396 65.035l124.855 97.722 199.307 155.995a36.4 36.4 0 0 0 22.424 7.734h530.529a36.4 36.4 0 0 0 22.12-7.496l332.515-254.598a36.387 36.387 0 0 0-22.147-65.271" style="baseline-shift:baseline;display:inline;overflow:visible;opacity:1;vector-effect:none;fill:#79c0ab;fill-opacity:1;stroke:none;stroke-width:1;stroke-linecap:round;stroke-linejoin:round;stroke-miterlimit:0;stroke-opacity:1;stop-color:#000;stop-opacity:1"/><path d="M528.006 36.384c-125.797 0-246.467 61.147-308.999 174.448-62.531 113.302-44.148 254.24 43.734 254.048H793.27c87.883.192 106.266-140.746 43.735-254.048s-183.203-174.448-309-174.448" style="baseline-shift:baseline;display:inline;overflow:visible;opacity:1;vector-effect:none;fill:#fdd0a4;fill-opacity:1;stroke:none;stroke-width:1;stroke-linejoin:round;stroke-opacity:1;stop-color:#000;stop-opacity:1"/><path d="M1098.277 36.715c-125.796 0-246.467 61.147-308.999 174.449-62.531 113.302-44.148 254.24 43.734 254.047h530.53c87.882.192 106.265-140.745 43.734-254.047S1224.073 36.715 1098.277 36.715" style="baseline-shift:baseline;display:inline;overflow:visible;opacity:1;vector-effect:none;fill:#dab991;fill-opacity:1;stroke:none;stroke-width:1;stroke-linejoin:round;stroke-opacity:1;stop-color:#000;stop-opacity:1"/><path d="M809.695 276.04c-125.797 0-246.467 61.146-308.999 174.448-62.531 113.302-44.148 254.24 43.734 254.047h530.53c87.882.193 106.265-140.745 43.734-254.047s-183.203-174.449-309-174.449" style="baseline-shift:baseline;display:inline;overflow:visible;opacity:1;vector-effect:none;fill:#fdfccf;fill-opacity:1;stroke:none;stroke-width:1;stroke-linejoin:round;stroke-opacity:1;stop-color:#000;stop-opacity:1"/><path d="M528.004 0c-4.323 0-8.52.318-12.654.775C382.285 4.8 254.435 71.341 187.152 193.252c-23.946 43.389-37.546 89.743-40.798 133.67C51.026 375.297 0 432.6 0 491.279c0 77.015 87.812 150.877 244.12 205.334 156.306 54.458 368.303 85.051 589.355 85.051 38.638 0 77-.934 114.836-2.768 178.625-8.656 345.534-37.344 474.52-82.283 156.306-54.457 244.118-128.319 244.118-205.334 0-67.188-66.874-132.298-189.224-184.232-5.429-37.762-18.295-76.678-38.596-113.463C1371.846 71.673 1243.996 5.131 1110.932 1.107c-4.136-.457-8.332-.775-12.655-.775s-8.519.318-12.654.775c-102.213 3.091-201.35 43.071-272.32 116.7C742.308 43.967 643.027 3.87 540.66.775 536.525.318 532.33 0 528.006 0Zm-36.381 84.861v82.813a36.383 36.383 0 0 0 36.383 36.383c20.093 0 36.382-16.29 36.383-36.383V84.86q.764.41 1.521.832c14.39 8.01 27.902 19.766 29.932 22.192 12.89 15.405 30.076 44.253 30.076 59.789 0 20.094 16.29 36.383 36.385 36.383 20.093 0 36.382-16.29 36.383-36.383 0-21.446-5.504-40.32-13.092-56.442 30.861 16.468 58.798 38.073 82.338 64.532v.474c-3.673 5.62-7.21 11.37-10.508 17.346-9.66 17.504-17.637 35.492-23.93 53.607-17.495 3.223-34.628 7.835-51.43 13.387l-.21-.38a33 33 0 0 0-3.717-5.32c-12.446-14.597-29.274-24.042-47.346-24.345s-35.815 9.475-46.205 24.764c-8.514 12.528-11.275 22.825 6.139 33.572 5.222 3.223 10.84 4.416 16.136 4.399l.465.035c-55.17 31.556-102.68 76.763-136.008 135.193H262.662c-12.243.027-18.163-3.178-25.258-11.275s-13.895-22.751-16.994-42.457c-6.198-39.412 2.998-96.61 30.451-146.352 28.372-51.407 70.23-90.858 119.557-117.18-7.589 16.121-13.092 34.996-13.092 56.442 0 20.094 16.29 36.383 36.385 36.383 20.093 0 36.382-16.29 36.383-36.383 0-15.536 17.185-44.384 30.076-59.79 2.03-2.425 15.54-14.18 29.932-22.19q.757-.423 1.521-.833m570.27.332v82.81a36.383 36.383 0 0 0 36.384 36.386c20.095 0 36.384-16.29 36.383-36.385v-82.81q.764.409 1.52.83c14.39 8.01 27.904 19.768 29.933 22.193 12.89 15.405 30.076 44.252 30.076 59.787 0 20.094 16.289 36.384 36.383 36.385s36.384-16.29 36.383-36.385c0-21.446-5.503-40.319-13.092-56.44 49.329 26.322 91.187 65.772 119.559 117.18 27.453 49.743 36.647 106.94 30.45 146.352-3.1 19.706-9.898 34.36-16.993 42.457s-13.015 11.302-25.258 11.275h-215.359c-35.949-63.203-88.345-111.193-149.23-142.945 2.73.017 4.578 1.251 7.456 2.652 7.738 3.766 20.943 6.34 32.286-.66 17.413-10.747 14.652-21.046 6.138-33.574-10.39-15.29-28.135-25.064-46.207-24.762s-34.898 9.748-47.344 24.346c-2.388 2.8-4.266 5.892-5.49 9.101-39.462-13.68-81.228-21.275-123.521-22.554a135 135 0 0 0-6.979-.604 252 252 0 0 1 5.762-11.084c28.372-51.407 70.228-90.858 119.557-117.18-7.589 16.121-13.092 34.994-13.092 56.44 0 20.094 16.288 36.384 36.383 36.385s36.385-16.29 36.384-36.385c0-15.535 17.184-44.382 30.075-59.787 2.029-2.425 15.543-14.183 29.933-22.194q.756-.42 1.52-.83zm-686.506 143.35c-18.073.302-34.9 9.75-47.346 24.348-8.648 10.143-10.6 24.086.95 33.671 10.256 8.513 20.671 8.933 38.478.692 8.811-4.078 10.699-2.147 15.699.287 7.738 3.766 20.942 6.34 32.285-.66 17.413-10.747 14.653-21.046 6.139-33.574-10.39-15.29-28.133-25.066-46.205-24.764m887.345.996c-18.072-.302-35.814 9.473-46.205 24.762-8.514 12.528-11.276 22.827 6.137 33.574 11.343 7 24.547 4.426 32.285.66 5-2.434 6.89-4.365 15.701-.287 17.807 8.24 28.22 7.821 38.477-.691 11.55-9.586 9.597-23.53.95-33.672-12.446-14.598-29.272-24.044-47.345-24.346m-489.421 94.979v84.81a36.384 36.384 0 0 0 36.384 36.385c20.095 0 36.384-16.29 36.383-36.385v-84.81q.763.409 1.52.83c14.39 8.01 27.904 19.768 29.933 22.193 12.89 15.405 30.076 44.252 30.076 59.787 0 20.094 16.289 36.385 36.383 36.385s36.384-16.29 36.383-36.385c0-21.446-5.503-40.319-13.092-56.44 49.329 26.322 91.187 65.773 119.559 117.18 27.453 49.743 36.647 106.94 30.449 146.352-3.099 19.706-9.897 34.36-16.992 42.457s-13.015 11.302-25.258 11.275H544.35c-12.244.027-18.163-3.178-25.258-11.275s-13.895-22.751-16.994-42.457c-6.198-39.412 3-96.609 30.453-146.352 28.372-51.407 70.228-90.858 119.556-117.18-7.588 16.121-13.091 34.994-13.091 56.44 0 20.094 16.288 36.385 36.382 36.385 20.095 0 36.386-16.29 36.385-36.385 0-15.535 17.184-44.382 30.074-59.787 2.03-2.425 15.543-14.183 29.934-22.193q.756-.421 1.52-.83m707.14 34.613c95.692 38.592 147.112 84.783 147.111 132.15 0 89.636-183.062 170.949-467.785 207.781 16.11-20.824 25.133-46.228 29.397-73.337 6.05-38.47 2.357-81.381-10.34-124.131h184.627c31.698.07 61.034-14.271 80.148-36.086 19.115-21.815 29.481-49.44 34.147-79.108 1.395-8.872 2.293-17.98 2.695-27.27M147.35 376.545c.308 3.212.685 6.393 1.177 9.523 4.666 29.667 15.032 57.293 34.147 79.108s48.448 36.155 80.146 36.086h177.348c-12.698 42.857-16.016 85.897-9.951 124.463 3.859 24.537 11.707 47.62 25.09 67.232-.339-.496-.765-.937-1.096-1.437C198.55 651.63 39.386 574.8 39.387 491.28c-.001-40.291 37.212-79.862 107.85-114.681Zm785.687 90.992c-18.072-.302-35.814 9.473-46.205 24.762-8.514 12.528-11.276 22.827 6.137 33.574 11.343 7 24.549 4.426 32.287.66 5-2.433 6.888-4.365 15.7-.287 17.805 8.24 28.22 7.821 38.478-.691 11.55-9.586 9.596-23.53.949-33.672-12.445-14.598-29.274-24.043-47.346-24.346m-275.963.662c-18.072.303-34.898 9.75-47.344 24.348-8.647 10.143-10.6 24.084.95 33.67 10.256 8.512 20.67 8.934 38.476.693 8.812-4.078 10.701-2.146 15.701.287 7.738 3.766 20.943 6.339 32.286-.662 17.413-10.747 14.652-21.044 6.138-33.572-10.39-15.29-28.135-25.066-46.207-24.764" style="display:inline;opacity:1;fill:#091a28;fill-opacity:1;stroke:none;stroke-width:94.9998;stroke-linecap:round;stroke-linejoin:round;stroke-miterlimit:0;stroke-opacity:1"/></svg>