<svg clip-rule="evenodd" fill-rule="evenodd" stroke-linejoin="round" stroke-miterlimit="1.41421" viewBox="0 0 400 400" xmlns="http://www.w3.org/2000/svg"><g fill-rule="nonzero" transform="matrix(.587343 0 0 .587343 -9.430609 26.005888)"><path d="m656.779 161.204c-6.719-13.878-14.494-27.272-23.516-39.903l-96.384 35.076c11.208 11.472 20.626 24.368 28.328 38.158zm-426.059 106.604-96.413 35.077c1.233 15.463 3.903 30.734 7.643 45.698l91.587-33.346c-2.978-15.491-4.034-31.453-2.817-47.429" fill="#c22133"/><path d="m444.686 133.899c20.055 9.36 37.424 22.123 52.08 37.087l96.384-35.077c-26.7-37.468-63.068-68.774-107.622-89.562-137.797-64.256-302.193-4.43-366.434 133.353-20.802 44.583-28.534 91.939-24.895 137.798l96.398-35.077c1.599-20.89 6.69-41.825 16.035-61.894 41.751-89.518 148.536-128.364 238.054-86.628" fill="#db212e"/><path d="m547.491 310.038c-1.54 20.876-6.807 41.811-16.181 61.894-41.737 89.533-148.537 128.38-238.04 86.643-20.084-9.374-37.585-22.035-52.182-37.028l-96.193 35.003c26.641 37.468 62.965 68.789 107.548 89.592 137.798 64.241 302.163 4.416 366.419-133.382 20.817-44.554 28.49-91.91 24.822-137.725z" fill="#db212e"/><path d="m571.194 192.358-91.586 33.33c17.017 30.485 25.056 65.577 22.416 100.873l96.193-34.988c-2.758-34.519-11.957-68.217-27.023-99.215m-423.24 154.026-91.587 33.36c8.406 33.39 23.003 65.121 43.072 93.362l96.178-35.018c-24.69-25.35-41.106-57.434-47.663-91.704" fill="#eb2126"/><path d="m642.819 135.811c-3.037-4.929-6.191-9.785-9.551-14.509l-96.383 35.077c4.239 4.342 8.142 8.949 11.868 13.672zm-412.467 151.355c-.235-6.426-.133-12.881.366-19.35l-96.413 35.076c.499 6.177 1.276 12.309 2.201 18.426l93.845-34.152z" fill="#ad213b"/><path d="m643.678 275.033-96.193 35.004c-1.012 13.848-3.711 27.727-8.127 41.37l104.702-38.172c.749-12.793.63-25.556-.382-38.202m-498.774 181.531c7.408 10.43 15.609 20.377 24.514 29.766l104.716-38.187c-12.235-7.658-23.296-16.592-33.052-26.597z" fill="#ba2133"/></g></svg>