<svg height="200" width="200" xmlns="http://www.w3.org/2000/svg"><path d="M23 88.388V29.252A4.253 4.253 0 0 1 27.252 25H48.87a4.253 4.253 0 0 1 4.252 4.253v54.882h31.865V29.253A4.253 4.253 0 0 1 89.24 25h21.619a4.253 4.253 0 0 1 4.252 4.253v54.882h56.74a4.252 4.252 0 0 1 4.252 4.253v82.359A4.253 4.253 0 0 1 171.85 175H27.252A4.252 4.252 0 0 1 23 170.747zm91.114 28.238a4.252 4.252 0 0 1 4.251-4.25h16.392a4.252 4.252 0 0 1 4.252 4.25v15.963a4.252 4.252 0 0 1-4.252 4.252h-16.392a4.252 4.252 0 0 1-4.25-4.252v-15.963z" fill="#ff6602" fill-rule="evenodd"/></svg>