<svg clip-rule="evenodd" fill-rule="evenodd" stroke-linejoin="round" stroke-miterlimit="1.414" viewBox="0 0 400 400" xmlns="http://www.w3.org/2000/svg"><path d="M360.473 280.203c-18.582 9.67-114.854 49.184-135.35 59.849-20.496 10.666-31.881 10.564-48.071 2.838-16.193-7.727-118.639-49.036-137.096-57.842-9.224-4.401-14.073-8.114-14.073-11.622v-35.137s133.374-28.984 154.908-36.695c21.532-7.712 29.003-7.988 47.327-1.289 18.326 6.701 127.889 26.433 146 33.054L374.109 268c.002 3.473-4.177 7.282-13.636 12.203" fill="#912626"/><path d="M360.467 245.275c-18.583 9.664-114.852 49.18-135.346 59.844-20.494 10.669-31.881 10.565-48.069 2.838-16.193-7.722-118.637-49.035-137.091-57.837-18.455-8.806-18.842-14.865-.712-21.952 18.125-7.086 120.01-46.99 141.544-54.699 21.532-7.709 28.999-7.99 47.323-1.288 18.326 6.699 114.018 44.722 132.127 51.343 18.112 6.627 18.806 12.081.224 21.751" fill="#c6302b"/><path d="M360.473 223.352c-18.582 9.67-114.854 49.181-135.35 59.852-20.496 10.663-31.881 10.558-48.071 2.832-16.193-7.722-118.639-49.036-137.096-57.84-9.224-4.4-14.073-8.111-14.073-11.62v-35.139s133.374-28.984 154.908-36.695c21.532-7.711 29.003-7.99 47.327-1.291 18.326 6.704 127.889 26.431 146 33.054l-.009 34.643c.002 3.472-4.177 7.283-13.636 12.204" fill="#912626"/><path d="M360.467 188.424c-18.583 9.668-114.852 49.177-135.346 59.846-20.494 10.665-31.881 10.56-48.069 2.834-16.193-7.72-118.637-49.036-137.091-57.835-18.455-8.804-18.842-14.866-.712-21.954 18.125-7.085 120.01-46.988 141.544-54.697 21.532-7.711 28.999-7.99 47.323-1.289 18.326 6.699 114.018 44.718 132.127 51.341 18.112 6.625 18.806 12.084.224 21.752" fill="#c6302b"/><path d="M360.473 164.391c-18.582 9.668-114.854 49.184-135.35 59.853-20.496 10.665-31.881 10.56-48.071 2.834-16.193-7.725-118.639-49.036-137.096-57.84-9.224-4.403-14.073-8.114-14.073-11.62v-35.141s133.374-28.982 154.908-36.691c21.532-7.713 29.003-7.99 47.327-1.291 18.326 6.702 127.889 26.431 146 33.052l-.009 34.643c.002 3.469-4.177 7.28-13.636 12.201" fill="#912626"/><path d="M360.467 129.461c-18.583 9.668-114.852 49.182-135.346 59.849-20.494 10.664-31.881 10.56-48.069 2.835-16.193-7.722-118.637-49.035-137.091-57.837-18.455-8.804-18.842-14.865-.712-21.952 18.125-7.086 120.01-46.985 141.544-54.699 21.532-7.711 28.999-7.987 47.323-1.286 18.326 6.701 114.018 44.72 132.127 51.343 18.112 6.621 18.806 12.079.224 21.747" fill="#c6302b"/><path d="M242.555 95.282l-29.94 3.101-6.703 16.1-10.826-17.965-34.571-3.101 25.798-9.287-7.74-14.256 24.15 9.43 22.768-7.441-6.153 14.739zm-38.43 78.1l-55.877-23.133 80.068-12.267zm-77.469-69.153c23.636 0 42.795 7.413 42.795 16.559 0 9.145-19.161 16.558-42.798 16.558-23.634 0-42.795-7.413-42.795-16.558 0-9.146 19.161-16.559 42.795-16.559" fill="#fff"/><path d="M277.94 99.683l47.386 18.691-47.347 18.674-.042-37.365" fill="#621b1c"/><path d="M225.513 120.383l52.424-20.7.042 37.365-5.141 2.009z" fill="#9a2928"/></svg>