<svg xmlns="http://www.w3.org/2000/svg" xml:space="preserve" width="800" height="800" viewBox="-271 273 256 256"><path d="M-271 360v48.9c31.9 0 62.1 12.6 84.7 35.2s35.1 52.8 35.1 84.8v.1h49.1c0-46.6-19-88.7-49.6-119.4-30.5-30.6-72.7-49.5-119.3-49.6m34 100.9c-9.4 0-17.8 3.8-24 10s-10 14.6-10 24c0 9.3 3.8 17.7 10 23.9 6.2 6.1 14.6 9.9 24 9.9s17.8-3.7 24-9.9 10-14.6 10-23.9c0-9.4-3.8-17.8-10-24s-14.6-10-24-10" style="fill:#3273dc;fill-opacity:1"/><path d="M-90.1 348.1c-46.3-46.4-110.2-75.1-180.8-75.1v48.9c114.1.1 206.8 93 206.9 207.1h49c0-70.6-28.7-134.5-75.1-180.9" style="fill:#3273dc;fill-opacity:1"/></svg>