<svg xmlns="http://www.w3.org/2000/svg" id="_Слой_1" width="1119.717" height="698.932" data-name="Слой_1" viewBox="0 0 1119.717 698.932"><defs id="defs1"><style id="style1">.st1{fill:#51a7ea}.st2{fill:#8bd5fe}.st3{stroke:#536ba6}.st3,.st4,.st5,.st6{fill:none}.st3,.st4,.st6{stroke-linecap:round}.st3,.st4{stroke-linejoin:round}.st3{stroke-width:3px}.st4{stroke-width:6px}.st4,.st6,.st9{stroke:#1b3179}.st12{fill:#536ba6}.st13{fill:#4c6095}.st6,.st9{stroke-miterlimit:10;stroke-width:2px}.st16{fill:#1b3179}.st18{fill:#3c6ec6}.st19,.st9{fill:#f8ef76}.st22{fill:#2350aa}.st24{fill:#edce80}</style></defs><g id="g356" transform="translate(-686.52 -284.618)"><g id="g35"><path id="polygon32" d="m1039.08 435.07-2.67 10.89-212.22 15.56-.89-5.56 9.78-5.11 207.33-17.55z" class="st2"/><path id="polygon33" d="m915.3 500.41-78 8.44-131.33 12.45-.67-3.78 118-61.56 211.34-14.44z" class="st1"/><path id="polygon34" d="m705.3 517.52-18.78 11.44 5.89 6.34 191.45-23 23.44-11.89z" class="st18"/><path id="polygon35" d="m854.52 535.13 29.34-22.83-197.34 16.66 2.34 12.34z" class="st16"/><path id="path35" d="m983.08 466.96 4.05-2h-66.66l35.97-24.56-4.05.34-35.47 24.21H806.04l-3.83 2h43.03l-83.95 56.5c-.46.31-.58.93-.27 1.39.19.29.51.44.83.44.19 0 .39-.06.56-.17l86.41-58.16h65.17l-37.37 25.51-.06.06c-.05.04-.1.09-.14.15-.04.05-.08.1-.1.16-.03.06-.05.11-.07.17-.02.07-.03.13-.04.2 0 .03-.02.06-.02.09s.02.06.02.09c0 .07.02.13.04.2s.05.13.08.19c.02.03.02.06.04.09.03.04.06.07.09.11.02.02.03.03.04.05.08.08.18.14.28.19.02 0 .04.02.06.02.11.04.23.07.35.07h50.49l4.05-2h-51.31l37.11-25.33h65.53z" class="st16"/></g><g id="g158"><path id="path36" d="M1503.23 285.59c-1.43-2.68-14.22-1.74-84 28.44a170.3 170.3 0 0 0-39.56 0c-28.16 3.31-51.1 13.23-67.97 23.12 6.05 3.04 11.42 7.4 16.02 12.41 9.81-3.65 22.06-7.53 35.29-10.09 17.95-3.47 16.04-.31 34.07-3.78 3.07-.59 8.73-1.76 9.59 0 .85 1.74-3.41 5.4-6.33 8-13.63 12.11-8.4 10.21-22 22-10.94 9.49-22.25 17.59-31.03 23.47.86 4.8 1.24 10.36.31 16.25 19.06-6.88 43.55-19.17 65.39-41.61 8-8.22 14.42-16.54 19.56-24.33 64.16-41.11 72.09-51.21 70.67-53.89z" class="st24"/><path id="path37" d="M1347.31 389.17c8.78-5.88 20.09-13.98 31.03-23.47 13.6-11.79 8.37-9.89 22-22 2.92-2.6 7.19-6.26 6.33-8-.86-1.76-6.52-.59-9.59 0-18.04 3.47-16.12.31-34.07 3.78-13.23 2.56-25.48 6.44-35.29 10.09 7.73 8.42 13.29 18.66 16.29 27.46.97 2.85 2.4 7.07 3.3 12.13z" class="st19"/><path id="path38" d="M1311.71 337.16c-5.19-2.61-10.88-4.24-17.03-4.46-7-.24-13.09 1.4-17.77 3.32 7.83 2.51 14.43 6.37 19.95 10.8 4.25-3.06 9.21-6.36 14.85-9.66" class="st16"/><path id="path39" d="M1330.89 406.41c.84 4.99 1.08 9.11.92 11.86 0 .08-.02.16-.04.23.13 4.83-.24 9.84-1.32 14.88 4.52-3.43 9.87-8.69 13.55-16.35 1.89-3.93 3.01-7.84 3.61-11.61a192 192 0 0 1-14.16 4.5c-.85-1.17-1.71-2.34-2.56-3.51" class="st16"/><path id="path40" d="M1347.31 389.17c-4.24 2.84-7.9 5.17-10.64 6.87-9.22-12.89-18.44-25.78-27.67-38.67 3.9-1.8 10.44-4.72 18.71-7.8-4.6-5.01-9.97-9.37-16.02-12.41-5.64 3.31-10.6 6.61-14.85 9.66 3.96 3.18 7.37 6.64 10.29 10.11 1.03 1.12 2.04 2.27 3.02 3.48 12.79 15.71 18.63 33.56 20.72 45.99.85 1.17 1.71 2.34 2.56 3.51 4.21-1.16 8.99-2.63 14.16-4.5.93-5.9.55-11.46-.31-16.25z" class="st16"/><path id="path41" d="M1336.68 396.03c2.73-1.7 6.39-4.03 10.64-6.87-.9-5.06-2.33-9.28-3.3-12.13-2.99-8.8-8.56-19.04-16.29-27.46-8.28 3.08-14.82 5.99-18.71 7.8 9.22 12.89 18.44 25.78 27.67 38.67z" class="st16"/><path id="path42" d="M1276.91 336.02c-.12-.04-.23-.07-.35-.11.1.04.2.09.3.13.02 0 .03-.01.05-.02" class="st22"/><path id="path43" d="m1183.35 495.07-14.86 7.69 7.94 17.39 8.11-4.63c.07-5.47-.15-10.88-.69-16.18-.15-1.44-.32-2.86-.51-4.28z" class="st22"/><path id="path44" d="m1309.9 410.48-1.81.91c2.98 11.98 4.15 26.46.03 41.92a81 81 0 0 1-6.64 16.93l-5.28 3.18c4.03-6.57 7.07-13.57 9.02-20.89 3.89-14.6 2.88-28.33.12-39.76l-38.94 19.66c5.56 26.01-1.07 50.34-5.36 62.17-1.38.83-2.76 1.66-4.14 2.5 3.74-9.2 12.52-35.15 6.74-63.27l-70.67 35.68c2.82 8.85 4.78 18.34 5.79 28.34.31 3.04.52 6.11.64 9.2l24.73-14.1c.72-.41 1.64-.16 2.05.56s.16 1.64-.56 2.05l-26.11 14.88c.14 7.18-.2 14.49-1.01 21.85-.68.41-1.36.82-2.03 1.23l-3.44 2.07c-2.5 1.51-5 3.02-7.51 4.52l.36.78c41.28-24.88 82.56-49.76 123.85-74.64 4.6-3.68 10.89-9.7 15.59-18.67 2.46-4.69 4.1-9.46 5.12-14.21a52.5 52.5 0 0 1-6.12 3.99c-4.81-8.96-9.63-17.92-14.44-26.89z" class="st22"/><path id="path45" d="m1177.69 522.9 5.42 11.86c.71-5.28 1.17-10.53 1.36-15.73l-6.78 3.86z" class="st22"/><path id="path46" d="M1331.77 418.5c-.15.68-.75 1.18-1.46 1.18h-.09c-.83-.05-1.46-.76-1.41-1.58.2-3.49-.27-9.26-1.87-16.22l-17.05 8.61c4.81 8.96 9.63 17.92 14.44 26.89 1.56-.86 3.72-2.17 6.12-3.99 1.08-5.04 1.44-10.04 1.32-14.88z" class="st22"/><path id="path47" d="M1279.16 337.02c3.35 1.5 6.79 3.28 10.22 5.37 2.35 1.43 4.69 3.02 7 4.77.16-.11.31-.23.47-.34-5.52-4.43-12.12-8.29-19.95-10.8-.02 0-.03.01-.05.02.76.32 1.52.64 2.3.98z" class="st22"/><path id="path48" d="M1307.15 356.93c-2.92-3.47-6.33-6.94-10.29-10.11-.16.11-.31.23-.47.34a80.5 80.5 0 0 1 10.76 9.77" class="st22"/><path id="path49" d="M1286.09 366.16c-4.59-8.54-9.17-17.07-13.76-25.61l-15.08 7.81c8.74 4.24 18.1 10.31 26.59 18.95z" class="st1"/><path id="path50" d="M1152.78 433.4c-.97-.82-1.96-1.63-2.98-2.4-7.15-5.43-17.5-9.35-28.78-12.12l-16.69 8.64 29.4 15.62z" class="st1"/><path id="path51" d="m1214.5 370.49-74.5 38.57c7.1 2.69 13.57 5.97 18.87 10 4.49 3.41 8.64 7.27 12.45 11.53l16.3-8.59-6.73-9.75 16.89-8.22 7 8.93 38.25-20.15c-8.22-9.59-17.91-17.14-28.53-22.32" class="st1"/><path id="path52" d="m1246.13 354.12 3.65 2.58-8.44 5.78-4.64-3.48-18.9 9.79c6.57 3.41 12.76 7.73 18.48 12.84l31.94-13.59 9.12 5.44 4.08-4.36c-8.82-8.89-18.58-14.93-27.52-19.03l-7.77 4.02z" class="st1"/><path id="path53" d="M1289.38 342.39h.01z" class="st1"/><path id="path54" d="M1297.36 360.39c-2.19-3.01-4.38-6.02-6.58-9.02.97-.76 2-1.55 3.09-2.36-6.02-4.46-12.25-7.77-18.13-10.22l-3.41 1.76c4.59 8.54 9.17 17.07 13.76 25.61z" class="st1"/><path id="path55" d="m1297.36 360.39 6.01-3.08a78 78 0 0 0-9.5-8.3c-1.08.81-2.11 1.6-3.09 2.36 2.19 3.01 4.38 6.02 6.58 9.02" class="st1"/><path id="path56" d="m1308.09 411.39 1.81-.91c-1.61-3-3.22-6-4.83-8.99 1.11 3.06 2.14 6.37 3.02 9.91z" class="st18"/><path id="path57" d="m1149.87 462.01.06.13 1.35-.75c.38-.21.83-.25 1.24-.1s.73.47.89.87c1.56 4.08 3.15 9.53 3.83 15.98l11.25 24.62 14.86-7.69c-2.23-16.76-7.43-31.65-15.18-43.84l-18.3 10.77z" class="st18"/><path id="path58" d="m1151.18 464.88.1.21c-.03-.07-.05-.15-.08-.23h-.02z" class="st18"/><path id="path59" d="m1250.55 402.76-69.44 40.87c4.89 7.79 8.88 16.47 11.88 25.88l70.67-35.68c-1.7-8.29-4.66-16.76-9.4-25.05-1.18-2.07-2.42-4.07-3.72-6.02z" class="st18"/><path id="path60" d="m1290.17 379.44-37.03 21.79c1.3 1.96 2.54 3.98 3.73 6.06 4.75 8.32 7.77 16.82 9.55 25.14l38.94-19.66c-3.43-14.21-9.56-24.88-12.38-29.27-.91-1.41-1.85-2.76-2.8-4.07z" class="st18"/><path id="path61" d="m1304.92 370.76-12.15 7.15c.93 1.29 1.84 2.61 2.73 3.98 2.15 3.35 6.19 10.27 9.57 19.6 1.61 3 3.22 6 4.83 8.99l17.05-8.61c-.1-.43-.2-.87-.31-1.3-7.24-9.94-14.48-19.87-21.72-29.81" class="st18"/><path id="path62" d="M1304.92 370.76c7.24 9.94 14.48 19.87 21.72 29.81-2.43-9.97-7.12-22.16-15.26-33.61z" class="st18"/><path id="path63" d="m1149.87 462.01 18.3-10.77c-.46-.72-.92-1.43-1.39-2.13l-18.33 9.81 1.41 3.09z" class="st18"/><path id="path64" d="m1204.78 412.97 7.45 9.51-18.44 8.44-6.16-8.92-16.3 8.59c3.57 4 6.84 8.35 9.78 13.03l69.44-40.87c-2.34-3.52-4.85-6.84-7.52-9.94l-38.25 20.15z" class="st18"/><path id="path65" d="M1291.4 376.04c-1.77-3.29-3.54-6.58-5.3-9.87l-2.25 1.15c2.61 2.66 5.15 5.55 7.55 8.72" class="st18"/><path id="path66" d="m1147.21 456.18 17.83-9.55c-1.7-2.33-3.5-4.54-5.41-6.63l-20.51 10.49 8.08 5.68z" class="st18"/><path id="path67" d="m1281.42 369.12-4.08 4.36-9.12-5.44-31.94 13.59c6.26 5.6 11.94 12.16 16.86 19.61l37.03-21.79c-2.75-3.8-5.69-7.24-8.75-10.32z" class="st18"/><path id="path68" d="M1286.09 366.16c1.77 3.29 3.54 6.58 5.3 9.87.46.61.92 1.24 1.37 1.87l12.15-7.15-7.55-10.37-11.27 5.77z" class="st18"/><path id="path69" d="M1307.85 362.31a75 75 0 0 0-4.47-5l-6.01 3.08 7.55 10.37 6.46-3.8a84 84 0 0 0-3.53-4.64z" class="st18"/><path id="path70" d="M1247.56 333.81c2.5-.37 5.59-.7 9.11-.75-1.74-.33-3.3-.58-4.64-.77-1.64.14-3.14.32-4.47.52-4.62 2.45-9.24 4.91-13.86 7.36.42.09.87.2 1.31.31 4.18-2.22 8.37-4.44 12.55-6.66z" class="st2"/><path id="path71" d="M1271.27 337.06a99 99 0 0 0-14.6-4c-3.51.06-6.61.38-9.11.75-4.18 2.22-8.37 4.44-12.55 6.66 4.89 1.14 11.1 2.99 17.89 5.91l18.37-9.33z" class="st2"/><path id="path72" d="m1257.25 348.36 15.08-7.81c-.33-.62-.66-1.23-.99-1.85.55-.31 1.15-.63 1.79-.95q-.945-.36-1.86-.69l-18.37 9.33c1.43.62 2.88 1.26 4.35 1.98z" class="st2"/><path id="path73" d="M1273.13 337.75c-.64.33-1.24.65-1.79.95.33.62.66 1.23.99 1.85l3.41-1.76c-.88-.37-1.75-.71-2.61-1.04" class="st2"/><path id="path74" d="M1095.53 414.52c-.52-.06-1.04-.12-1.56-.17l-25.26 13.41 1.34.29c8.49-4.51 16.98-9.02 25.48-13.53" class="st2"/><path id="path75" d="M1113.4 417.22c-5.95-1.17-12.01-2.05-17.87-2.69-8.49 4.51-.21.11-8.7 4.62l11.15 5.91 15.42-7.83z" class="st2"/><path id="path76" d="M1121.03 418.89c-2.5-.61-5.05-1.17-7.62-1.67l-14.81 7.52 4.03 3.68z" class="st2"/><path id="path77" d="M1230.91 342.65c-.48-.09-.95-.18-1.39-.26-11.57 6.14-23.13 12.28-34.7 18.42.45.09.9.19 1.35.28 11.58-6.15 23.15-12.29 34.73-18.44z" class="st2"/><path id="path78" d="m1233.21 356.38-6.98-5.24 9.11-4.67 7.26 5.14 6.8-3.45c-7.37-2.96-13.9-4.61-18.49-5.51-11.58 6.15-23.15 12.29-34.73 18.44 5.84 1.2 11.52 3.04 16.98 5.47z" class="st2"/><path id="path79" d="M1253.9 350.09c-1.53-.7-3.03-1.34-4.51-1.93l-6.8 3.45 3.53 2.5 7.77-4.02z" class="st2"/><path id="path80" d="m1236.7 359-3.49-2.62-20.05 10.18c1.56.7 3.11 1.43 4.64 2.22l18.9-9.79z" class="st2"/><path id="path81" d="M1191.89 363.37c-.48-.08-.97-.16-1.45-.23-24.71 13.12-49.41 26.23-74.12 39.35.45.09.9.19 1.36.28 24.74-13.13 49.47-26.27 74.21-39.4" class="st2"/><path id="path82" d="M1209.66 368.34a79.5 79.5 0 0 0-17.78-4.97c-24.74 13.13-49.47 26.27-74.21 39.4 5.47 1.12 10.88 2.48 16.06 4.13z" class="st2"/><path id="path83" d="M1214.5 370.49a74 74 0 0 0-4.84-2.15l-75.93 38.56c2.13.68 4.23 1.39 6.27 2.17l74.5-38.57z" class="st2"/><path id="path84" d="M1331.77 418.5c.02-.08.03-.15.04-.23.16-2.75-.08-6.87-.92-11.86-.19-.26-.38-.52-.56-.77.79 4.07 1.33 8.39 1.45 12.87z" class="st2"/><path id="path85" d="M1313.59 365.65c3.24 4.97 5.45 9.37 6.86 12.16 1.95 3.87 7.27 14.45 9.88 27.82.19.26.38.52.56.77-2.09-12.43-7.93-30.28-20.72-45.99-.99-1.21-2-2.36-3.02-3.48 2.49 2.97 4.63 5.93 6.45 8.72z" class="st2"/><path id="path86" d="M1289.38 342.39a92 92 0 0 0-10.22-5.37l-2.85 1.48z" class="st2"/><path id="path87" d="M1296.39 347.16a86 86 0 0 0-7-4.77l5.84 5.61c.38-.28.77-.56 1.16-.84" class="st2"/><path id="path88" d="m1327.41 401.64-.47.24c1.59 6.97 2.07 12.73 1.87 16.22-.05.83.58 1.54 1.41 1.58h.09c.71 0 1.31-.5 1.46-1.18-.12-4.48-.65-8.8-1.45-12.87-.97-1.33-1.94-2.67-2.91-4z" class="st2"/><path id="path89" d="M1296.39 347.16c-.39.28-.78.57-1.16.84l9.15 8.79.4-.2 1.04 1.59 7.78 7.47a88 88 0 0 0-6.45-8.72 79 79 0 0 0-10.76-9.77" class="st2"/><path id="path90" d="m1320.44 380.48 8.02 20.63-1.05.53c.97 1.33 1.94 2.67 2.91 4-2.61-13.37-7.93-23.96-9.88-27.82-1.41-2.79-3.62-7.19-6.86-12.16l-2.08 1.22 8.92 13.61z" class="st2"/><path id="path91" d="M1275.74 338.79c5.88 2.45 12.11 5.77 18.13 10.22.44-.33.9-.67 1.36-1l-5.84-5.61h-.01l-13.07-3.89-.56.29z" class="st2"/><path id="path92" d="m1303.37 357.31 1-.51-9.15-8.79c-.46.34-.92.67-1.36 1 3.26 2.41 6.45 5.17 9.5 8.3z" class="st2"/><path id="polygon92" d="m1311.52 366.87 2.07-1.22-7.77-7.47z" class="st2"/><path id="path93" d="M1326.64 400.57c.11.44.21.87.31 1.3l.47-.24c-.26-.36-.52-.71-.78-1.07z" class="st2"/><path id="polygon93" d="m1304.78 356.59-.4.21 1.44 1.38z" class="st2"/><path id="path94" d="m1320.44 380.48-8.92-13.61-.15.09c8.15 11.45 12.83 23.64 15.26 33.61.26.36.52.71.78 1.07l1.05-.53z" class="st2"/><path id="path95" d="M1307.85 362.31c1.25 1.53 2.41 3.08 3.53 4.64l.15-.09-5.7-8.69-1.44-1.38-1 .51a75 75 0 0 1 4.47 5z" class="st2"/><path id="path96" d="M1275.56 335.59c.34.1.66.21.99.32-2.85-1.17-5.61-2.16-8.24-2.98-6.19-1.04-11.77-1.02-16.28-.64 1.34.19 2.9.43 4.64.77 5.45-.09 11.93.48 18.89 2.53" class="st2"/><path id="path97" d="M1256.67 333.06c4.06.78 9.1 2.03 14.6 4l.07-.04 2.03.61c1.05-.53 2.22-1.07 3.48-1.59-.1-.04-.2-.09-.3-.13-.33-.1-.66-.22-.99-.32-6.96-2.05-13.44-2.62-18.89-2.53" class="st2"/><path id="path98" d="M1279.16 337.02c-.77-.35-1.54-.67-2.3-.98-1.27.52-2.43 1.06-3.48 1.59l2.93.87z" class="st2"/><path id="path99" d="m1273.37 337.62-2.03-.61-.07.04q.93.33 1.86.69z" class="st2"/><path id="path100" d="m1275.74 338.79.56-.29-2.93-.87-.24.12c.86.33 1.73.67 2.61 1.04" class="st2"/><path id="path101" d="M1305.23 452.53c-1.95 7.31-4.99 14.31-9.02 20.89l5.28-3.18a81.2 81.2 0 0 0 6.64-16.93c4.12-15.45 2.95-29.94-.03-41.92l-2.74 1.38c2.76 11.43 3.77 25.16-.12 39.76z" class="st2"/><path id="path102" d="m1281.42 369.12 1.02-1.09 1.4-.72c-8.49-8.64-17.86-14.71-26.59-18.95l-3.35 1.73c8.94 4.1 18.7 10.14 27.52 19.03" class="st2"/><path id="path103" d="m1292.49 378.07-2.32 1.37c.95 1.32 1.89 2.66 2.8 4.07 2.82 4.38 8.95 15.05 12.38 29.27l2.74-1.38c-.88-3.53-1.92-6.85-3.02-9.91-4.19-7.8-8.38-15.61-12.58-23.41z" class="st2"/><path id="path104" d="M1305.07 401.48c-3.39-9.33-7.42-16.24-9.57-19.6-.88-1.37-1.8-2.69-2.73-3.98l-.28.16c4.19 7.8 8.38 15.61 12.58 23.41z" class="st2"/><path id="path105" d="m1283.85 367.31-1.4.72-1.02 1.09c3.06 3.08 5.99 6.51 8.75 10.32l2.32-1.37c-.36-.68-.73-1.36-1.09-2.03a92 92 0 0 0-7.55-8.72z" class="st2"/><path id="path106" d="m1292.49 378.07.28-.16c-.45-.63-.91-1.26-1.37-1.87.36.68.73 1.36 1.09 2.03" class="st2"/><path id="path107" d="M1235.01 340.47c-.44-.1-.89-.21-1.31-.31-1.39.74-2.79 1.48-4.18 2.22.44.08.91.17 1.39.26 1.37-.73 2.73-1.45 4.1-2.18z" class="st2"/><path id="path108" d="M1252.9 346.38c-6.79-2.92-13-4.76-17.89-5.91-1.37.73-2.73 1.45-4.1 2.18 4.59.9 11.12 2.55 18.49 5.51z" class="st2"/><path id="path109" d="M1257.25 348.36c-1.47-.72-2.92-1.36-4.35-1.98l-3.5 1.78c1.47.59 2.97 1.23 4.51 1.93l3.35-1.73z" class="st2"/><path id="path110" d="M1256.92 497.1c1.38-.83 2.76-1.66 4.14-2.5 4.28-11.83 10.91-36.15 5.36-62.17l-2.76 1.39c5.78 28.12-3 54.07-6.74 63.27z" class="st16"/><path id="path111" d="M1214.5 370.49c10.61 5.18 20.3 12.73 28.53 22.32l1.34-.7-9.66-9.82 1.57-.67c-5.71-5.11-11.91-9.42-18.48-12.84z" class="st16"/><path id="path112" d="m1253.14 401.23-2.59 1.53c1.29 1.95 2.53 3.95 3.72 6.02 4.74 8.29 7.69 16.76 9.4 25.05l2.76-1.39c-1.78-8.33-4.79-16.83-9.55-25.14-1.19-2.08-2.43-4.1-3.73-6.06z" class="st16"/><path id="path113" d="m1236.28 381.62-1.57.67 9.66 9.82-1.34.7c2.66 3.11 5.18 6.42 7.52 9.94l2.59-1.53c-4.92-7.45-10.6-14.01-16.86-19.61z" class="st16"/><path id="path114" d="M1196.18 361.09c-.45-.09-.9-.2-1.35-.28-1.46.78-2.93 1.55-4.39 2.33.49.07.97.15 1.45.23z" class="st16"/><path id="path115" d="M1213.16 366.56a83 83 0 0 0-16.98-5.47l-4.29 2.28c6.11.96 12.06 2.62 17.78 4.97l3.5-1.78z" class="st16"/><path id="path116" d="M1217.8 368.79c-1.53-.79-3.07-1.53-4.64-2.22l-3.5 1.78c1.63.67 3.25 1.38 4.84 2.15z" class="st16"/><path id="path117" d="m1135.64 446.63.77 2.36 21.16-11.15a72 72 0 0 0-4.79-4.44l-19.97 10.22 2.84 3.01z" class="st2"/><path id="path118" d="m1157.57 437.84-20.32 10.71.72 2.54 21.66-11.08c-.67-.74-1.37-1.46-2.06-2.16z" class="st2"/><path id="path119" d="M1225.64 495.56c.72-.41.97-1.33.56-2.05s-1.33-.97-2.05-.56l-24.73 14.1c.05 1.13.08 2.26.1 3.39l26.11-14.88z" class="st1"/><path id="path120" d="m1184.55 515.53-8.11 4.63 1.25 2.74 6.78-3.86c.04-1.17.07-2.34.08-3.5z" class="st1"/><path id="path121" d="m1148.46 458.92 18.33-9.81c-.57-.84-1.15-1.66-1.75-2.47l-17.83 9.55z" class="st16"/><path id="path122" d="M1151.2 464.86c.03.07.05.15.08.23l5.96 13.05c-.68-6.45-2.27-11.9-3.83-15.98a1.5 1.5 0 0 0-2.13-.77l-1.35.75 1.25 2.74h.02z" class="st2"/><path id="path123" d="M1190.65 484.82a95 95 0 0 0-4.2-10.77l3.96 17.37-7.05 3.65c.19 1.41.36 2.84.51 4.28.54 5.3.76 10.71.69 16.18l10.55-6.01c-.39-8.01-1.76-16.29-4.45-24.69z" class="st16"/><path id="path124" d="m1183.35 495.07 7.05-3.65-3.96-17.37c-3.97-8.64-9.25-16.77-15.78-24.29l-2.49 1.47c7.75 12.19 12.95 27.08 15.18 43.84" class="st16"/><path id="path125" d="M1170.67 449.76q-.81-.93-1.65-1.86l-2.24 1.2c.47.7.93 1.41 1.39 2.13l2.49-1.47z" class="st16"/><path id="path126" d="M1193.5 483.91a98.4 98.4 0 0 1 4.51 23.95l1.42-.81c-.13-3.09-.34-6.16-.64-9.2-1.01-10.01-2.97-19.5-5.79-28.34l-4.34 2.19c1.88 3.97 3.51 8.04 4.85 12.22z" class="st16"/><path id="path127" d="M1158.88 419.06c-5.3-4.02-11.78-7.31-18.87-10l-18.98 9.83c11.28 2.77 21.64 6.69 28.78 12.12 1.01.77 2 1.57 2.98 2.4l10.51-5.38a4.504 4.504 0 0 1 6.06 1.96c.24.46.36.94.43 1.43l1.55-.82c-3.81-4.26-7.96-8.12-12.45-11.53z" class="st16"/><path id="path128" d="M1173.29 448.22c6.27 7.29 11.41 15.15 15.36 23.47l4.34-2.19c-3-9.41-6.99-18.09-11.88-25.88l-7.81 4.6z" class="st16"/><path id="path129" d="M1169.78 431.41a4.49 4.49 0 0 1-2.39 4.63l-7.76 3.97c1.9 2.09 3.71 4.3 5.41 6.63l3.59-1.92c.6-.32 1.34-.2 1.81.3.98 1.06 1.92 2.13 2.85 3.21l7.81-4.6c-2.94-4.68-6.2-9.03-9.78-13.03l-1.55.82z" class="st16"/><path id="path130" d="M1184.46 519.03c-.18 5.19-.65 10.45-1.36 15.73l2.44 5.35c2.5-1.51 5-3.02 7.51-4.52 1.44-7.18 2.26-14.79 2.15-22.68z" class="st16"/><path id="path131" d="M1196.49 533.51c.68-.41 1.36-.82 2.03-1.23.8-7.36 1.15-14.66 1.01-21.85l-1.36.78c.23 7.73-.42 15.2-1.68 22.29z" class="st16"/><path id="path132" d="M1117.68 402.77c-.45-.09-.9-.19-1.36-.28-7.45 3.95-14.9 7.91-22.35 11.86.52.05 1.04.11 1.56.17l22.14-11.76z" class="st16"/><path id="path133" d="M1133.73 406.89c-5.18-1.64-10.59-3.01-16.06-4.13l-22.14 11.76c5.86.64 11.92 1.52 17.87 2.69z" class="st16"/><path id="path134" d="M1140 409.06c-2.04-.77-4.14-1.49-6.27-2.17l-20.33 10.32c2.57.5 5.12 1.06 7.62 1.67l18.98-9.83z" class="st16"/><path id="path135" d="m1163.29 428.03-10.51 5.38c1.65 1.4 3.25 2.89 4.79 4.44l12.21-6.43c-.07-.48-.2-.97-.43-1.43a4.507 4.507 0 0 0-6.06-1.96" class="st16"/><path id="path136" d="m1159.63 440.01 7.76-3.97a4.49 4.49 0 0 0 2.39-4.63l-12.21 6.43c.7.71 1.39 1.42 2.06 2.16z" class="st16"/><path id="path137" d="m1198.17 511.22 1.36-.78a189 189 0 0 0-.1-3.39l-1.42.81c.07 1.13.12 2.25.16 3.36" class="st16"/><path id="path138" d="M1184.55 515.53c-.01 1.16-.04 2.33-.08 3.5l10.74-6.12a97 97 0 0 0-.11-3.39z" class="st16"/><path id="path139" d="M1186.45 474.05c1.61 3.51 3.02 7.1 4.2 10.77 2.7 8.4 4.07 16.68 4.45 24.69l2.91-1.66c-.49-7.79-1.9-15.81-4.51-23.95a99 99 0 0 0-4.85-12.22l-2.46 1.24.25 1.12z" class="st16"/><path id="path140" d="m1186.45 474.05-.25-1.12 2.46-1.24c-3.95-8.32-9.09-16.17-15.36-23.47l-2.62 1.54c6.53 7.52 11.81 15.65 15.78 24.29z" class="st16"/><path id="path141" d="m1168.63 444.71-3.59 1.92c.59.81 1.18 1.63 1.75 2.47l2.24-1.2q.84.93 1.65 1.86l2.62-1.54c-.93-1.08-1.87-2.15-2.85-3.21a1.49 1.49 0 0 0-1.81-.3z" class="st16"/><path id="path142" d="m1198.17 511.22-2.96 1.69c.11 7.89-.71 15.49-2.15 22.68l3.44-2.07c1.26-7.09 1.91-14.57 1.68-22.29z" class="st16"/><path id="path143" d="m1195.21 512.91 2.96-1.69c-.03-1.12-.09-2.24-.16-3.36l-2.91 1.66c.05 1.14.09 2.27.11 3.39" class="st16"/><path id="polygon143" d="m1184.34 412.81 5.42 8.07 15.02-7.91-6.99-8.94-.67 1.67z" class="st22"/><path id="polygon144" d="m1204.78 412.97-15.02 7.91 4.8 7.15 17.67-5.55z" class="st22"/><path id="polygon145" d="m1184.34 412.81 12.78-7.11.67-1.67-16.89 8.22 6.73 9.75 2.13-1.12z" class="st16"/><path id="polygon146" d="m1187.63 422 6.16 8.92 18.44-8.44-17.67 5.55-4.8-7.15z" class="st16"/><path id="polygon147" d="m1238.67 357.98 2.67 1.94 8.45-3.22-3.66-2.58z" class="st1"/><path id="polygon148" d="m1235.34 346.48-5.89 4.77 5.69 4.15 7.46-3.79z" class="st2"/><path id="polygon149" d="m1242.6 351.61-7.46 3.79 3.53 2.58 7.46-3.86z" class="st2"/><path id="polygon150" d="m1241.34 359.92-2.67-1.94-1.97 1.02 4.64 3.48 8.45-5.78z" class="st1"/><path id="polygon151" d="m1235.34 346.48-9.11 4.66 6.98 5.24 1.93-.98-5.69-4.15z" class="st2"/><path id="polygon152" d="m1233.21 356.38 3.49 2.62 1.97-1.02-3.53-2.58z" class="st2"/><path id="polygon153" d="m1259.47 381.41 2.66 1.94 8.45-3.22-3.65-2.58z" class="st22"/><path id="polygon154" d="m1256.13 369.91-5.88 4.78 5.68 4.14 7.46-3.79z" class="st22"/><path id="polygon155" d="m1263.39 375.04-7.46 3.79 3.54 2.58 7.46-3.86z" class="st22"/><path id="polygon156" d="m1262.13 383.35-2.66-1.94-1.97 1.02 4.63 3.48 8.45-5.78z" class="st16"/><path id="polygon157" d="m1256.13 369.91-9.11 4.66 6.99 5.24 1.92-.98-5.68-4.14z" class="st16"/><path id="polygon158" d="m1254.01 379.81 3.49 2.62 1.97-1.02-3.54-2.58z" class="st16"/></g><g id="g355"><path id="path158" d="m1157.45 514.57 23.47-13.38-25.9-8.22c.76 4.03 1.35 8.17 1.78 12.4.31 3.04.52 6.11.64 9.2z" class="st22"/><path id="path159" d="M1019.66 565.58c1.85 8.13 3.18 16.57 3.94 25.29l8.05-4.59a281 281 0 0 0-5.74-23.93z" class="st22"/><path id="path160" d="m1141.37 502.59-31.89 16.5c-3.5 7.3-7.76 12.65-10.69 15.81a1.5 1.5 0 0 1-2.12.08 1.5 1.5 0 0 1-.08-2.12c2.27-2.45 5.39-6.29 8.27-11.38l-76.24 39.46c2.26 7.82 4.19 15.75 5.77 23.77l108.18-61.67c.07-5.47-.15-10.88-.69-16.18-.15-1.44-.32-2.86-.51-4.28z" class="st22"/><path id="path161" d="m925.59 679.99.15-.09c-.05.02-.11.05-.16.07l.02.02z" class="st22"/><path id="path162" d="M949.89 601.69c2.81 9.96 4.12 19.77 3.97 28.94l64.88-36.98c-.68-8.92-1.95-17.49-3.73-25.65l-65.11 33.7z" class="st22"/><path id="path163" d="M1221.41 495.02c-.8 2.69-1.6 5.08-2.33 7.1-1.38.83-2.76 1.66-4.14 2.5.86-2.12 1.99-5.13 3.14-8.84l-31.65 7.16-2.11-.67c-.12.33-.34.62-.67.81l-26.11 14.88c.14 7.18-.2 14.49-1.01 21.85-.68.41-1.36.82-2.03 1.23l-3.44 2.07c-3.7 2.23-7.41 4.46-11.11 6.69 1.41-7.82 2.25-15.59 2.52-23.25l-107.5 61.28c1.42 7.67 2.54 15.41 3.34 23.22l-2.85 1.71a288 288 0 0 0-3.26-23.36l-8.38 4.78c.59 8.26.7 16.75.31 25.4-1.73 1.04-3.45 2.08-5.18 3.12.5-8.8.48-17.41-.02-25.74l-65.24 37.19c-.96 16.32-6.7 30.31-16.95 39.1 100.81-60.75 201.62-121.51 302.43-182.26l-17.8 4.03z" class="st22"/><path id="path164" d="M983.17 506.21c-5.88-5.57-12.41-10.09-19.53-13.4-2.37-1.1-4.8-2.06-7.31-2.88l-71.56 37.05c9.29 2.93 18.65 8.23 27.4 15.55l70.99-36.32z" class="st1"/><path id="path165" d="m987.83 503.83 127.49-65.22c-.97-.82-1.69-5.91-2.71-6.68-7.15-5.43-13.04-7.55-24.32-10.31l-125.95 65.21c1.14.46 2.28.94 3.4 1.46 8 3.71 15.41 8.96 22.08 15.55z" class="st1"/><path id="path166" d="M929.88 561.33c3.44 4.6 6.65 9.57 9.55 14.88 4.6 8.41 8.06 17 10.45 25.48l65.11-33.7c-3.46-15.83-8.92-30.08-16.17-42.07l-68.95 35.41z" class="st18"/><path id="path167" d="m1102.63 472.62 4.85-1.2c.38-.21.72.31 1.12.46.41.15.93 2.02 1.08 2.42 2.76 7.2 7.33 14.02 5.15 27.71a61.9 61.9 0 0 1-5.36 17.09l31.89-16.5c-2.23-16.76-5.6-32.73-13.34-44.92l-25.4 14.95z" class="st18"/><path id="path168" d="M1010.45 521.08s-.04-.08-.05-.12c-.08-.22-.17-.51-.24-.84l-6.88 3.53c4.59 7.59 8.52 16.06 11.68 25.29 1.84 5.37 3.4 10.94 4.7 16.65l6.25-3.23c-1.64-5.72-3.44-11.38-5.44-16.96-2.94-8.21-6.31-16.4-10.02-24.31z" class="st18"/><path id="path169" d="m1109.23 472.38-60.13 33.48c-.72.4-1.64.14-2.04-.58s-.14-1.64.58-2.04l54.99-30.62-89.63 46.03c0 .54.11.97.2 1.22 3.74 7.98 7.13 16.23 10.09 24.51 1.95 5.46 3.72 10.98 5.33 16.57l76.24-39.46c3-5.31 5.75-11.99 7.02-19.95 1.91-12.04-.25-22.27-2.66-29.16z" class="st18"/><path id="path170" d="m989.62 513.03-70.35 35.99c3.72 3.74 7.28 7.85 10.61 12.32l68.95-35.41c-2.81-4.65-5.88-8.97-9.21-12.9" class="st18"/><path id="path171" d="M1010.4 516.36c.85-2.31 2.69-3.38 3.44-3.73l112.1-60.02c-1.7-2.33-3-4.73-4.91-6.81l-126.89 64.92c3.28 3.96 6.34 8.28 9.15 12.92l6.88-3.53a6.6 6.6 0 0 1 .24-3.74z" class="st18"/><path id="path172" d="M1015.18 515.32c-.39.19-1.49.79-1.97 2.09-.16.44-.22.87-.22 1.25l89.63-46.03 25.73-15.14c-.46-.72-.52-1.53-.99-2.23l-112.18 60.07z" class="st18"/><path id="path173" d="M1053.56 422.04c-.52-.06-1.04-.12-1.56-.17-37.45 19.88-74.89 39.76-112.34 59.64.53.05 1.05.11 1.58.16 37.44-19.88 74.88-39.76 112.32-59.63" class="st2"/><path id="path174" d="M1071.43 424.74c-5.95-1.17-12.01-2.05-17.87-2.69-37.44 19.88-74.88 39.76-112.32 59.63 4.55.47 8.96 1.29 13.2 2.47l117-59.41z" class="st2"/><path id="path175" d="M1079.05 426.41c-2.5-.61-5.05-1.17-7.62-1.67l-117 59.41c2.71.75 5.35 1.64 7.92 2.68z" class="st2"/><path id="path176" d="M932.71 486.2c-.62 0-1.23-.02-1.86-.01-25.38 13.48-50.77 26.95-76.15 40.43 1.35-.47 2.72-.86 4.1-1.18 24.63-13.08 49.27-26.16 73.9-39.23z" class="st2"/><path id="path177" d="m874.55 524.71 72.98-37.06c-4.74-.92-9.69-1.4-14.82-1.45-24.63 13.08-49.27 26.16-73.9 39.23 5.04-1.16 10.33-1.4 15.74-.73z" class="st2"/><path id="path178" d="M956.34 489.94c-2.85-.94-5.79-1.7-8.81-2.29l-72.98 37.06c3.38.42 6.8 1.19 10.23 2.28z" class="st2"/><path id="path179" d="M1214.94 504.61c1.38-.83 2.76-1.66 4.14-2.5.73-2.02 1.53-4.41 2.33-7.1l-3.32.75c-1.16 3.71-2.28 6.73-3.14 8.84z" class="st16"/><path id="path180" d="m983.17 506.21-70.99 36.32c2.36 1.98 4.68 4.09 6.94 6.35l69.72-36.74a86 86 0 0 0-5.67-5.93" class="st18"/><path id="path181" d="M919.13 548.88s.09.09.14.13l70.35-35.99c-.25-.3-.51-.59-.77-.88z" class="st18"/><path id="path182" d="M1119.79 443.15c-1.54-1.56-1.93-3.59-3.59-4.99l-128.38 65.68c1.9 1.87 3.72 3.87 5.49 5.96l126.47-66.64z" class="st18"/><path id="path183" d="m994.13 510.72 127.56-65.26c-.67-.74-.65-1.89-1.35-2.6l-127.02 66.93c.27.31.54.61.81.93" class="st18"/><path id="path184" d="M953.86 630.63c-.02 1.19-.06 2.36-.13 3.53l65.24-37.19c-.07-1.11-.14-2.22-.23-3.32z" class="st1"/><path id="path185" d="M1023.6 590.87c.1 1.1.16 2.21.24 3.31l8.38-4.78c-.19-1.04-.38-2.08-.58-3.12l-8.05 4.59z" class="st1"/><path id="path186" d="M1157.45 514.57c.05 1.13.08 2.26.1 3.39l26.11-14.88c.33-.19.55-.48.67-.81l-3.41-1.08z" class="st1"/><path id="path187" d="M1034.39 584.72c.2 1.04.4 2.07.59 3.11l107.5-61.28c.04-1.17.07-2.34.08-3.5l-108.18 61.67z" class="st1"/><path id="path188" d="m983.17 506.21 4.66-2.38c-6.67-6.59-14.08-11.84-22.08-15.55-1.12-.52-2.25-1-3.4-1.46l-6.01 3.11c2.5.83 4.94 1.78 7.31 2.88 7.12 3.3 13.64 7.83 19.53 13.4z" class="st16"/><path id="path189" d="M1018.98 622.71c1.73-1.04 3.45-2.08 5.18-3.12.38-8.66.28-17.14-.31-25.4l-4.89 2.79c.5 8.33.52 16.94.02 25.74z" class="st16"/><path id="path190" d="M1015 568c1.78 8.16 3.05 16.74 3.73 25.65l4.87-2.78c-.77-8.71-2.09-17.16-3.94-25.29l-4.66 2.41z" class="st16"/><path id="path191" d="m1003.28 523.64-4.45 2.29c7.25 11.99 12.72 26.23 16.17 42.07l4.66-2.41c-1.3-5.72-2.86-11.28-4.7-16.65-3.16-9.23-7.09-17.7-11.68-25.29z" class="st16"/><path id="path192" d="M989.62 513.03c3.33 3.93 6.4 8.25 9.21 12.9l4.45-2.29c-2.81-4.65-5.87-8.97-9.15-12.92l-4.52 2.31z" class="st16"/><path id="path193" d="M941.23 481.67c-.53-.05-1.05-.12-1.58-.16-2.93 1.56-5.87 3.11-8.8 4.67.62 0 1.24 0 1.86.01 2.84-1.51 5.68-3.02 8.52-4.52" class="st16"/><path id="path194" d="M954.43 484.14c-4.24-1.18-8.64-1.99-13.2-2.47-2.84 1.51-5.68 3.02-8.52 4.52 5.13.05 10.08.53 14.82 1.45z" class="st16"/><path id="path195" d="M962.35 486.82a73 73 0 0 0-7.92-2.68l-6.9 3.5c3.02.59 5.96 1.35 8.81 2.29z" class="st16"/><path id="path196" d="m988.85 512.15 4.47-2.36c-1.77-2.08-3.6-4.08-5.49-5.96l-4.66 2.38a84 84 0 0 1 5.67 5.93z" class="st16"/><path id="path197" d="m993.32 509.79-4.47 2.36c.26.29.52.58.77.88l4.52-2.31c-.26-.32-.54-.62-.81-.93z" class="st16"/><path id="path198" d="M1018.73 593.65c.08 1.1.16 2.21.23 3.32l4.89-2.79c-.08-1.11-.15-2.22-.24-3.31l-4.87 2.78z" class="st16"/><path id="path199" d="m1035.49 612.76 2.85-1.71c-.8-7.81-1.92-15.55-3.34-23.22l-2.76 1.57c1.4 7.71 2.49 15.5 3.26 23.36z" class="st16"/><path id="path200" d="M1025.91 562.35a281 281 0 0 1 5.74 23.93l2.74-1.56c-1.58-8.02-3.51-15.95-5.77-23.77l-2.72 1.41z" class="st16"/><path id="path201" d="M1013.2 519.87c-.08-.25-.2-.69-.2-1.22l-2.84 1.46c.07.33.16.62.24.84.02.04.03.08.05.12 3.71 7.92 7.08 16.1 10.02 24.31 2 5.58 3.8 11.24 5.44 16.96l2.72-1.41c-1.61-5.58-3.38-11.11-5.33-16.57a284 284 0 0 0-10.09-24.51z" class="st16"/><path id="path202" d="M1013.22 517.4c.48-1.3 1.57-1.9 1.97-2.09l112.18-60.07c-.57-.84-.84-1.82-1.44-2.63l-112.1 60.02c-.75.35-2.58 1.42-3.44 3.73-.54 1.47-.45 2.8-.24 3.74l2.84-1.46c0-.38.05-.8.22-1.25z" class="st16"/><path id="path203" d="M1031.65 586.28c.2 1.04.39 2.08.58 3.12l2.76-1.57c-.19-1.04-.39-2.08-.59-3.11l-2.74 1.56z" class="st16"/><path id="path204" d="M1096.6 532.86a1.5 1.5 0 0 0 2.2 2.04c2.93-3.16 7.19-8.51 10.69-15.81l-4.62 2.39c-2.88 5.09-5.99 8.92-8.27 11.38" class="st2"/><path id="path205" d="m1144.47 481.57 3.96 17.37-7.05 3.65c.19 1.41.36 2.84.51 4.28.54 5.3.76 10.71.69 16.18l10.55-6.01c-.39-8.01-1.76-16.29-4.45-24.69a95 95 0 0 0-4.2-10.77z" class="st16"/><path id="path206" d="M1148.93 484.32c.95 2.33 1.82 4.7 2.59 7.1a98.4 98.4 0 0 1 4.51 23.95l1.42-.81c-.13-3.09-.34-6.16-.64-9.2-.43-4.23-1.02-8.36-1.78-12.4l-.37-.12-5.72-8.53z" class="st16"/><path id="path207" d="M1142.49 526.55c-.27 7.65-1.11 15.43-2.52 23.25 3.7-2.23 7.41-4.46 11.11-6.69 1.44-7.18 2.26-14.79 2.15-22.68z" class="st16"/><path id="path208" d="M1154.51 541.03c.68-.41 1.36-.82 2.03-1.23.8-7.36 1.15-14.66 1.01-21.85l-1.36.78c.23 7.73-.42 15.2-1.68 22.29z" class="st16"/><path id="path209" d="m1072.27 412.1-.91-.52c-6.46 3.43-12.91 6.85-19.37 10.28.52.05 1.04.11 1.56.17 6.24-3.31 12.48-6.62 18.72-9.94z" class="st2"/><path id="path210" d="m1083.63 418.54-11.36-6.43c-6.24 3.31-12.48 6.62-18.72 9.94 5.86.64 11.92 1.52 17.87 2.69z" class="st2"/><path id="path211" d="m1088.59 421.47-1.26-.84-3.7-2.09-12.21 6.2c2.57.5 5.12 1.06 7.62 1.67l9.54-4.94z" class="st2"/><path id="path212" d="M1156.03 515.37c.07 1.13.12 2.25.16 3.36l1.36-.78a189 189 0 0 0-.1-3.39z" class="st16"/><path id="path213" d="m1153.12 517.03-10.55 6.01c-.01 1.16-.04 2.33-.08 3.5l10.74-6.12a97 97 0 0 0-.11-3.39" class="st16"/><path id="path214" d="m1148.93 484.32-3.13-4.67-1.58.8.25 1.12c1.61 3.51 3.02 7.1 4.2 10.77 2.7 8.4 4.07 16.68 4.45 24.69l2.91-1.66c-.49-7.79-1.9-15.81-4.51-23.95a99 99 0 0 0-2.59-7.1" class="st16"/><path id="path215" d="M1128.69 457.28c6.53 7.52 11.81 15.65 15.78 24.29l-.25-1.12 1.58-.8-15.61-23.25z" class="st16"/><path id="path216" d="m1156.19 518.74-2.96 1.69c.11 7.89-.71 15.49-2.15 22.68l3.44-2.07c1.26-7.09 1.91-14.57 1.68-22.29z" class="st16"/><path id="path217" d="m1153.23 520.43 2.96-1.69c-.03-1.12-.09-2.24-.16-3.36l-2.91 1.66c.05 1.14.09 2.27.11 3.39" class="st16"/><path id="path218" d="M897.83 681.17c9.7 2.4 19.21 2.13 27.73-1.2-.52-.63-1.04-1.25-1.57-1.88-7.96 3.83-16.93 4.74-26.17 3.08z" class="st2"/><path id="path219" d="M930.1 677.88c2.4-1.32 4.62-2.87 6.67-4.63-3.68 2.22-7.36 4.43-11.04 6.65 1.49-.59 2.95-1.25 4.37-2.02" class="st2"/><path id="path220" d="M845.76 532.66c.09-.48.18-.96.27-1.45 2.89-1.54 5.78-3.07 8.68-4.61-2.03.7-4.01 1.56-5.92 2.61-5.82 3.18-10.58 7.73-14.29 13.29 3.12-3.98 6.87-7.31 11.26-9.84" class="st2"/><path id="path221" d="m949.89 601.69-1.63.85-5.05-5.69c4.34 12.64 6.2 25.18 5.69 36.61l4.97-2.83c.15-9.17-1.16-18.97-3.97-28.94z" class="st2"/><path id="path222" d="m953.72 634.16-4.73 2.69c-.11.06-.23.11-.35.14-1.62 18-9.37 32.83-22.86 40.21-.59.32-1.18.6-1.78.89.52.63 1.04 1.25 1.57 1.88.05-.02.11-.05.16-.07 3.68-2.22 7.36-4.43 11.04-6.65 10.26-8.79 15.99-22.78 16.95-39.1z" class="st2"/><path id="path223" d="m910.2 543.54 1.98-1.01c-8.75-7.32-18.11-12.62-27.4-15.55l-4.53 2.35-.83.08c9.79 2.69 19.72 8.13 28.96 15.86.42-.71 1.03-1.32 1.82-1.73" class="st2"/><path id="path224" d="M918.16 554.61c2.41 2.62 4.73 5.41 6.95 8.35l1.36-3.41-8.32-4.94z" class="st2"/><path id="path225" d="M949.89 601.69c-2.39-8.48-5.86-17.08-10.45-25.48-2.9-5.31-6.11-10.27-9.55-14.88l-4.31 2.22c3.36 4.49 6.49 9.33 9.32 14.51 3.39 6.2 6.16 12.51 8.32 18.8l5.05 5.69 1.63-.85z" class="st2"/><path id="path226" d="m919.26 549.02-4.35 2.23c1.1 1.09 2.18 2.21 3.25 3.37l8.32 4.94-1.36 3.41c.15.2.3.39.45.59l4.31-2.22c-3.34-4.46-6.89-8.58-10.61-12.32z" class="st2"/><path id="path227" d="M845.76 532.66c.07-.04.14-.09.21-.13l.06-.32 12.78-6.78c-1.39.32-2.76.71-4.1 1.18-2.89 1.54-5.78 3.07-8.68 4.61-.09.48-.18.96-.27 1.45z" class="st2"/><path id="path228" d="m873.58 528.13-2.66-1.58 3.63-1.84c-5.41-.67-10.7-.44-15.74.73l-12.78 6.78-.06.32c.18-.1.34-.21.52-.31 8.15-4.46 17.46-5.67 27.09-4.1" class="st2"/><path id="path229" d="m880.25 529.33 4.53-2.35c-3.43-1.08-6.86-1.86-10.23-2.28l-3.63 1.84 2.66 1.58c1.94.32 3.89.75 5.85 1.28l.83-.08z" class="st2"/><path id="path230" d="m912.19 542.53-1.98 1.01c-.79.4-1.4 1.02-1.82 1.73 2.19 1.83 4.34 3.79 6.44 5.88l4.31-2.27c-2.26-2.26-4.58-4.38-6.94-6.35z" class="st2"/><path id="path231" d="M919.26 549.02s-.09-.09-.14-.13l-4.31 2.27.09.09 4.35-2.23z" class="st2"/><path id="path232" d="M948.88 633.47c-.05 1.19-.13 2.37-.24 3.53.12-.03.24-.08.35-.14l4.73-2.69c.07-1.16.11-2.34.13-3.53z" class="st2"/><path id="path233" d="M839.46 630.89c-17.72-32.4-18.84-67.57-4.96-88.38-15.54 19.85-15.17 55.84 2.89 88.87 15.07 27.55 38.51 45.86 60.44 49.8-21.42-5.3-43.74-23.54-58.37-50.28z" class="st16"/><path id="path234" d="M924 678.09c-2.47-2.97-4.95-5.94-7.42-8.91-21.11 6.1-49.94-12.19-67.3-43.93-14.71-26.9-16.85-55.53-7.1-72.45l3.75-19.98-.19.02.03-.17c-4.39 2.53-8.14 5.86-11.26 9.84-13.88 20.81-12.76 55.98 4.96 88.38 14.63 26.75 36.95 44.99 58.37 50.28 9.24 1.66 18.21.75 26.17-3.08z" class="st16"/><path id="path235" d="M853.55 541.38c6.18-3.38 13.32-4.2 20.8-2.83 10.6-2.5 23.99 3.25 36.35 14.77l2.72-1.44c-.38.1-.77.16-1.16.16-1.64 0-3.21-.89-4.01-2.45-.18-.36-.29-.73-.38-1.1l-31.6-18.77-30.36 3.08-3.75 19.98c2.81-4.88 6.6-8.8 11.38-11.41z" class="st16"/><path id="path236" d="M946.95 636.29c-.41-.72-.16-1.64.56-2.05l1.37-.78c.51-11.43-1.35-23.98-5.69-36.61l-8.28-9.32c5.95 12.84 9.24 25.95 9.33 37.57.1 11.34-2.84 20.19-8.37 25.58-2.88 7.14-7.44 12.78-13.69 16.2-1.79.98-3.68 1.73-5.62 2.29 2.47 2.97 4.95 5.94 7.42 8.91.6-.29 1.2-.57 1.78-.89 13.49-7.38 21.24-22.21 22.86-40.21q-.195.06-.39.06c-.52 0-1.03-.27-1.3-.76z" class="st16"/><path id="path237" d="M908.38 545.27c-9.23-7.73-19.17-13.17-28.96-15.86l-3.15.32 31.6 18.77c-.24-1.12-.05-2.27.51-3.23" class="st16"/><path id="path238" d="m925.56 563.55-.87.45.41-1.03c-2.23-2.94-4.55-5.73-6.95-8.35l-4.63-2.75-.11.03-2.72 1.44c7.54 7.04 14.7 16.22 20.59 27 1.3 2.39 2.51 4.79 3.63 7.21l8.28 9.32c-2.16-6.29-4.92-12.59-8.32-18.8-2.83-5.18-5.96-10.02-9.32-14.51z" class="st16"/><path id="path239" d="m924.7 563.99.87-.45c-.15-.2-.3-.39-.45-.59l-.41 1.03z" class="st16"/><path id="path240" d="m914.91 551.24-.61.31c-.25.13-.51.22-.78.3l4.63 2.75c-1.07-1.16-2.15-2.27-3.25-3.37z" class="st16"/><path id="path241" d="m845.76 532.66-.03.17.19-.02c.02-.09.03-.18.05-.27-.07.04-.14.09-.21.13z" class="st16"/><path id="path242" d="M873.58 528.13c-9.63-1.57-18.94-.36-27.09 4.1-.18.1-.34.21-.52.31-.02.09-.03.18-.05.27l30.36-3.08z" class="st16"/><path id="path243" d="m873.58 528.13 2.7 1.6 3.15-.32c-1.96-.54-3.91-.97-5.85-1.28" class="st16"/><path id="path244" d="M907.87 548.5c.08.37.19.74.38 1.1.8 1.56 2.37 2.45 4.01 2.45.39 0 .78-.06 1.16-.16l.09-.05-5.63-3.35z" class="st16"/><path id="path245" d="M914.82 551.15c-2.1-2.09-4.25-4.05-6.44-5.88-.56.96-.75 2.11-.51 3.23l5.63 3.35 1.31-.69z" class="st16"/><path id="path246" d="m913.51 551.85-.09.05.11-.03h-.02z" class="st16"/><path id="path247" d="m914.91 551.24-.09-.09-1.31.69h.02c.26-.07.52-.16.78-.29l.61-.31z" class="st16"/><path id="path248" d="M947.51 634.25a1.504 1.504 0 0 0 .74 2.81q.195 0 .39-.06c.1-1.16.18-2.34.24-3.53z" class="st16"/><path id="path249" d="m890.94 641.76-1.18 9.8c-.09.76-.74 1.32-1.49 1.32-.06 0-.12 0-.18-.01-.82-.1-1.41-.85-1.31-1.67l1.44-12.03c-5.99-5.96-11.55-13.16-16.35-21.22l-3.17.25c-.28.05-.57.08-.86.07h-.07c-3.28-.17-7.15-4.16-9.26-9.88-1.39-3.78-1.71-7.49-1.08-10.22l-19.4-23.28c1.38-7.36 2.76-14.72 4.14-22.09-9.74 16.93-7.61 45.55 7.1 72.45 17.36 31.74 46.2 50.03 67.3 43.93l-17.34-20.81c-2.82-1.93-5.6-4.14-8.31-6.61z" class="st12"/><path id="path250" d="M857.43 598.17c.32-1.38.88-2.5 1.66-3.26v-.04l1.73-1.41c-2.46-7.88-3.81-15.5-4.05-22.45l-10.12-7.17c-.68-.48-.84-1.41-.36-2.09s1.41-.84 2.09-.36l8.37 5.93c.28-11.38 3.78-20.57 10.5-25.51l-.63-1.32c-.36-.75-.04-1.64.7-2 .75-.36 1.64-.04 2 .7l.49 1.02a19.8 19.8 0 0 1 4.52-1.68c-7.48-1.37-14.62-.55-20.8 2.83-4.77 2.61-8.57 6.53-11.38 11.41-1.38 7.36-2.76 14.72-4.14 22.09l19.4 23.28z" class="st12"/><path id="path251" d="M935.88 650.69a20 20 0 0 1-4.38 3.25c-2.42 1.32-5.07 2.11-7.9 2.39l2.18 5.44c.31.77-.06 1.64-.83 1.95-.18.07-.37.11-.56.11-.59 0-1.16-.36-1.39-.94l-2.59-6.46c-6.14-.22-12.98-2.68-20.06-7.3-.37-.24-.74-.5-1.1-.75l17.34 20.81a28 28 0 0 0 5.62-2.29c6.24-3.42 10.81-9.06 13.69-16.2z" class="st12"/><path id="path252" d="M892.79 544.11c0-.3.1-.58.25-.81-4.59-2.15-9.06-3.32-13.21-3.36 4.28 1.36 8.62 3.38 12.91 6.01z" class="st16"/><path id="path253" d="m936.59 598.14-3.52-.78c3.06 8.05 5.02 16.05 5.9 23.63l3.21 2.04c-.32-7.84-2.07-16.31-5.09-24.88-.06 0-.12.03-.18.03-.11 0-.22-.01-.33-.04z" class="st16"/><path id="path254" d="m941.38 626.07-2.04-1.29c.51 7.39-.05 14.31-1.65 20.43 2.9-4.76 4.47-11.19 4.55-18.92h-.06c-.27 0-.55-.08-.8-.23z" class="st16"/><path id="path255" d="m914.91 565.8.39-.32-8.83-9.93 2.39-1.26c-4.31-3.98-8.73-7.22-13.09-9.61l-.08 3.17c6.72 4.59 13.27 10.65 19.21 17.94z" class="st16"/><path id="path256" d="M916.77 568.14c3.5 4.54 6.76 9.52 9.69 14.88 1.99 3.63 3.73 7.3 5.26 10.97l4.16.92c-1.71-4.4-3.75-8.8-6.1-13.14l-12.5-14.06-.52.42z" class="st16"/><path id="path257" d="m917.3 567.72 12.5 14.06c-.09-.16-.17-.33-.26-.49-3.06-5.59-6.45-10.74-10.06-15.37-.06.07-.12.13-.19.18l-2 1.62z" class="st16"/><path id="path258" d="m915.3 565.48 2.1-1.71c.07-.06.15-.11.23-.15-2.83-3.44-5.77-6.56-8.77-9.33l-2.39 1.26z" class="st16"/><path id="path259" d="M891.23 639.31c.66.62 1.32 1.23 1.98 1.82l-1.92-2.31z" class="st16"/><path id="path260" d="M875.07 619.35c4.06 6.46 8.61 12.29 13.46 17.28l.12-.99c-4.52-5.43-9.05-10.86-13.57-16.3z" class="st16"/><path id="path261" d="M858.76 572.43c.36 6.14 1.61 12.81 3.72 19.7l11.28-9.08-15.01-10.62z" class="st16"/><path id="path262" d="m890.96 616.44-16.86 1.34c.32.53.65 1.05.97 1.57 4.52 5.43 9.05 10.86 13.57 16.3l2.31-19.21z" class="st16"/><path id="path263" d="m883.33 575.35-15.19-31.69c-6.33 4.82-9.48 13.85-9.49 25.01l17.54 12.42 7.13-5.74z" class="st16"/><path id="path264" d="m902.77 615.5-8.76.7-2.72 22.63 1.92 2.31c2.68 2.38 5.44 4.5 8.23 6.32 6.43 4.2 12.6 6.52 18.14 6.92l-15.63-38.91c-.39.02-.79.04-1.19.03z" class="st16"/><path id="path265" d="m892.08 572.93.66-26.98c-4.29-2.63-8.63-4.66-12.91-6.01h-.22c-3.21 0-6.21.68-8.93 2.1l15.26 31.82c1.42-.47 3.58-.91 6.14-.92z" class="st16"/><path id="path266" d="m939.34 624.78-26.7-16.91c-.88 2.82-2.53 5.75-5.69 6.99l15.88 39.54c2.79-.19 5.38-.92 7.72-2.2 2.9-1.58 5.29-3.94 7.14-6.98 1.6-6.12 2.16-13.04 1.65-20.43z" class="st16"/><path id="path267" d="m913.29 589.91 18.44 4.08c-1.53-3.66-3.28-7.33-5.26-10.97-2.93-5.36-6.2-10.34-9.69-14.88l-11.33 9.19c4.64 3.43 6.85 8.18 7.84 12.58" class="st16"/><path id="path268" d="m902.78 575.64 12.13-9.85c-5.94-7.29-12.48-13.36-19.21-17.94l-.62 25.27c2.41.32 5.04 1.07 7.7 2.52" class="st16"/><path id="path269" d="M913.75 601.44c-.06.45-.12 1.73-.39 3.33l25.61 16.22c-.88-7.59-2.84-15.58-5.9-23.63l-19.24-4.26c.47 4.15.03 7.5-.08 8.34" class="st16"/><path id="path270" d="m856.76 567.33-8.37-5.93c-.68-.48-1.61-.32-2.09.36s-.32 1.61.36 2.09l10.12 7.17c-.04-1.25-.05-2.48-.02-3.69" class="st12"/><path id="path271" d="m876.2 581.09-17.54-12.42c0 1.23.03 2.48.11 3.75l15.01 10.62 2.43-1.96z" class="st12"/><path id="path272" d="m869.82 540.23-.49-1.02a1.493 1.493 0 0 0-2-.7c-.75.36-1.06 1.25-.7 2l.63 1.32c.69-.51 1.4-.98 2.15-1.4.13-.07.27-.13.41-.2" class="st12"/><path id="path273" d="M884.3 574.57c.29-.2.86-.46 1.64-.72l-15.26-31.82c-.1.05-.21.1-.31.16-.79.43-1.53.93-2.24 1.47l15.19 31.69.97-.78z" class="st12"/><path id="path274" d="m892.79 544.11-.05 1.84c.99.61 1.97 1.23 2.95 1.9l.08-3.17c-.91-.5-1.83-.96-2.73-1.39-.15.23-.25.51-.25.81z" class="st12"/><path id="path275" d="m895.08 573.12.62-25.27c-.98-.67-1.97-1.3-2.95-1.9l-.66 26.98c.95 0 1.95.06 3 .19z" class="st12"/><path id="path276" d="m917.3 567.72-2-2.24-.39.32c.63.77 1.25 1.55 1.87 2.35l.52-.42z" class="st12"/><path id="path277" d="m915.3 565.48 2 2.24 2-1.62c.07-.06.13-.12.19-.18-.61-.78-1.22-1.55-1.84-2.3-.08.04-.16.09-.23.15l-2.1 1.71z" class="st12"/><path id="path278" d="M904.83 576.88c.22.15.42.3.62.45l11.33-9.19c-.61-.8-1.24-1.58-1.87-2.35l-12.13 9.85c.68.37 1.37.77 2.05 1.24" class="st12"/><path id="path279" d="m933.07 597.36 3.52.78c.11.02.22.04.33.04.06 0 .12-.02.18-.03-.38-1.08-.78-2.15-1.2-3.23l-4.16-.92c.47 1.12.92 2.25 1.34 3.37z" class="st12"/><path id="path280" d="m913.83 593.11 19.24 4.26c-.43-1.12-.87-2.25-1.34-3.37l-18.44-4.08c.25 1.09.43 2.17.54 3.19" class="st12"/><path id="path281" d="m939.34 624.78 2.04 1.29c.25.16.53.23.8.23h.06c0-.39.02-.77.01-1.17 0-.69-.03-1.39-.06-2.09l-3.21-2.04q.225 1.905.36 3.78" class="st12"/><path id="path282" d="m912.64 607.86 26.7 16.91a83 83 0 0 0-.36-3.78l-25.61-16.22c-.16.95-.39 2.01-.73 3.09" class="st12"/><path id="path283" d="m920.41 656.43 2.59 6.46c.24.58.8.94 1.39.94.19 0 .38-.03.56-.11.77-.31 1.14-1.18.83-1.95l-2.18-5.44c-.75.07-1.51.12-2.28.12-.3 0-.61-.01-.92-.02z" class="st12"/><path id="path284" d="M905.51 615.28c-.5.1-1.03.16-1.56.19l15.63 38.91c1.11.08 2.19.09 3.24.02l-15.88-39.54c-.45.18-.92.32-1.43.42" class="st12"/><path id="path285" d="M886.78 651.2c-.1.82.49 1.57 1.31 1.67.06 0 .12.01.18.01.75 0 1.4-.56 1.49-1.32l1.18-9.8a82 82 0 0 1-2.71-2.58l-1.44 12.03z" class="st12"/><path id="path286" d="m888.65 635.65-.12.99c.89.92 1.79 1.81 2.7 2.68l.06-.49c-.88-1.06-1.76-2.11-2.64-3.17z" class="st12"/><path id="path287" d="M888.65 635.65c.88 1.06 1.76 2.11 2.64 3.17l2.72-22.63-3.05.24-2.31 19.21z" class="st12"/><path id="path288" d="m937.06 595.17.18.04a1.5 1.5 0 0 1 1.14 1.79c-.06.28-.21.51-.4.7 3.24 9.17 4.98 18.06 5.22 26.01a1.485 1.485 0 0 1 .03 2.14c-.03 9.21-2.17 17.01-6.43 22.3-.29.87-.6 1.71-.93 2.54 5.53-5.39 8.46-14.25 8.37-25.58-.1-11.62-3.39-24.73-9.33-37.57l-2.42-2.72c1.73 3.46 3.25 6.92 4.57 10.36z" class="st16"/><path id="path289" d="M894 542.67c.1-.02.21-.03.33-.02.58.01 1.08.36 1.31.86 4.71 2.5 9.5 5.98 14.15 10.3l.91-.48c-12.35-11.52-25.75-17.27-36.35-14.77.85.16 1.71.34 2.57.55 5.24-.63 11.08.65 17.08 3.56" class="st16"/><path id="path290" d="m910.69 553.33-.91.48c3.1 2.88 6.14 6.13 9.05 9.72.25.09.49.24.67.47s.29.49.32.76c3.8 4.82 7.37 10.2 10.58 16.06.73 1.33 1.42 2.67 2.08 4.01l2.42 2.72c-1.12-2.42-2.32-4.82-3.63-7.21-5.89-10.78-13.05-19.96-20.59-27z" class="st16"/><path id="path291" d="m891.08 640.53-.15 1.23c2.71 2.47 5.48 4.69 8.31 6.61-.86-1.03-1.72-2.06-2.58-3.1a79 79 0 0 1-5.58-4.74" class="st16"/><path id="path292" d="m872.99 617.87-1.11.09c4.8 8.06 10.36 15.26 16.35 21.22l.15-1.27c-5.51-5.58-10.76-12.34-15.39-20.03z" class="st16"/><path id="path293" d="m857.74 571.7-.96-.68c.24 6.95 1.58 14.57 4.05 22.45l.83-.66c-2.3-7.4-3.61-14.55-3.91-21.1z" class="st16"/><path id="path294" d="M896.66 645.27c.86 1.03 1.72 2.06 2.58 3.1.37.25.73.51 1.1.75 7.09 4.63 13.92 7.08 20.06 7.3l-.42-1.05c-7.26-.4-15.37-3.98-23.33-10.11z" class="st16"/><path id="path295" d="M931.02 653.07c-2.4 1.31-5.03 2.05-7.82 2.28l.4.99c2.83-.27 5.48-1.06 7.9-2.39 1.6-.88 3.06-1.97 4.38-3.25.33-.83.64-1.67.93-2.54-1.62 2.02-3.55 3.69-5.79 4.92z" class="st16"/><path id="path296" d="m867.7 542.74-.44-.92c-6.72 4.94-10.22 14.13-10.5 25.51l.93.65c.14-11.27 3.48-20.37 10.02-25.25z" class="st16"/><path id="path297" d="M876.92 539.11c-.86-.21-1.72-.4-2.57-.55-1.58.37-3.08.93-4.52 1.68l.43.9c2.07-1.08 4.31-1.74 6.66-2.03" class="st16"/><path id="path298" d="M937.1 598.15c3.03 8.57 4.77 17.04 5.09 24.88l.79.5c.08.05.16.11.23.18-.24-7.95-1.98-16.84-5.22-26.01-.24.25-.54.4-.89.45" class="st16"/><path id="path299" d="m935.89 594.92 1.17.26c-1.31-3.43-2.84-6.9-4.57-10.36l-2.7-3.04c2.35 4.34 4.39 8.74 6.1 13.14" class="st16"/><path id="path300" d="M942.24 626.29c-.08 7.72-1.65 14.16-4.55 18.92q-.39 1.5-.87 2.94c4.25-5.29 6.39-13.09 6.43-22.3-.27.28-.63.43-1.01.44" class="st16"/><path id="path301" d="M895.79 544.18v.5c4.34 2.39 8.76 5.63 13.08 9.61l.92-.49c-4.65-4.32-9.43-7.8-14.15-10.3.1.21.16.43.15.68" class="st16"/><path id="path302" d="M893.05 543.3c.21-.32.55-.56.96-.63-6-2.91-11.84-4.18-17.08-3.56.97.24 1.94.52 2.92.83 4.15.04 8.62 1.21 13.21 3.36z" class="st16"/><path id="path303" d="M919.48 565.92c3.6 4.63 7 9.78 10.06 15.37.09.16.17.33.26.49l2.7 3.04c-.67-1.34-1.35-2.67-2.08-4.01-3.21-5.86-6.78-11.24-10.58-16.06.05.41-.07.84-.35 1.17z" class="st16"/><path id="path304" d="M917.64 563.62c.38-.2.81-.23 1.2-.09-2.92-3.58-5.95-6.84-9.05-9.72l-.92.49c3 2.77 5.94 5.89 8.77 9.33z" class="st16"/><path id="path305" d="M875.07 619.35c-.43-.52-.86-1.03-1.29-1.55l-.79.06c4.63 7.69 9.88 14.45 15.39 20.03l.15-1.26c-4.85-5-9.4-10.83-13.46-17.28" class="st16"/><path id="path306" d="m891.23 639.31-.15 1.21c1.84 1.71 3.71 3.3 5.58 4.74l-3.45-4.14c-.67-.59-1.33-1.2-1.98-1.82z" class="st16"/><path id="path307" d="M901.44 647.45c-2.79-1.82-5.54-3.94-8.23-6.32l3.45 4.14c7.96 6.12 16.06 9.7 23.33 10.11l-.41-1.01c-5.54-.41-11.71-2.72-18.14-6.92" class="st16"/><path id="path308" d="M879.62 539.93h.22c-.98-.31-1.95-.59-2.92-.83-2.35.28-4.59.95-6.66 2.03l.43.9c2.72-1.42 5.72-2.1 8.93-2.1" class="st16"/><path id="path309" d="M873.78 617.81c.43.52.86 1.03 1.29 1.55-.33-.52-.65-1.05-.97-1.57l-.32.03z" class="st16"/><path id="path310" d="m858.76 572.43-1.02-.72c.31 6.55 1.61 13.7 3.91 21.1l.84-.67c-2.12-6.9-3.36-13.57-3.72-19.7z" class="st16"/><path id="path311" d="M930.54 652.19c-2.34 1.28-4.93 2.01-7.72 2.2l.38.95c2.78-.23 5.41-.96 7.82-2.28 2.24-1.23 4.16-2.89 5.79-4.92q.48-1.44.87-2.94c-1.85 3.04-4.25 5.4-7.14 6.98z" class="st16"/><path id="path312" d="m868.14 543.66-.44-.92c-6.54 4.88-9.87 13.98-10.02 25.25l.97.69c0-11.17 3.16-20.19 9.49-25.01z" class="st16"/><path id="path313" d="m857.68 567.99-.93-.65c-.03 1.21-.03 2.43.02 3.69l.96.68c-.06-1.26-.07-2.5-.05-3.71z" class="st16"/><path id="path314" d="m858.65 568.68-.97-.69c-.02 1.22 0 2.45.05 3.71l1.02.72c-.08-1.28-.11-2.52-.11-3.75z" class="st16"/><path id="path315" d="M869.9 541.31c.12-.06.24-.11.36-.18l-.43-.9c-.13.07-.27.13-.41.2-.76.41-1.47.89-2.15 1.4l.44.92c.7-.52 1.42-1.01 2.2-1.43z" class="st16"/><path id="path316" d="M870.38 542.19c.1-.06.21-.1.31-.16l-.43-.9c-.12.06-.24.11-.36.18-.77.42-1.5.91-2.2 1.43l.44.92c.71-.54 1.45-1.04 2.24-1.47" class="st16"/><path id="path317" d="M894.33 542.64c-.11 0-.22 0-.33.02.55.26 1.09.55 1.64.84-.24-.49-.73-.84-1.31-.86" class="st16"/><path id="path318" d="M893.05 543.3c.91.43 1.82.89 2.73 1.39v-.5c.02-.24-.04-.47-.14-.68-.55-.29-1.09-.57-1.64-.84-.4.07-.74.3-.96.63z" class="st16"/><path id="path319" d="M919.51 563.99a1.55 1.55 0 0 0-.67-.47c.33.41.66.81.99 1.23-.03-.27-.14-.53-.32-.76" class="st16"/><path id="path320" d="M917.64 563.62c.62.75 1.23 1.52 1.84 2.3.28-.33.4-.75.35-1.17-.33-.42-.66-.82-.99-1.23-.39-.14-.83-.11-1.2.09z" class="st16"/><path id="path321" d="M938.38 597a1.5 1.5 0 0 0-1.14-1.79l-.18-.04c.32.84.63 1.69.93 2.53.18-.19.33-.42.4-.7z" class="st16"/><path id="path322" d="M937.1 598.15c.34-.04.65-.2.89-.45-.3-.84-.6-1.68-.93-2.53l-1.17-.26c.42 1.08.82 2.16 1.2 3.23z" class="st16"/><path id="path323" d="M943.24 625.85c.07-.07.15-.15.2-.25.39-.62.27-1.41-.23-1.89q.03 1.08.03 2.13z" class="st16"/><path id="path324" d="M942.19 623.03c.03.7.05 1.4.06 2.09 0 .4 0 .78-.01 1.17.37-.01.73-.17 1.01-.44 0-.7 0-1.42-.03-2.13-.07-.07-.15-.13-.23-.18l-.79-.5z" class="st16"/><path id="path325" d="m919.99 655.38.42 1.05c.31.01.61.02.92.02q1.155 0 2.28-.12l-.4-.99c-1.05.09-2.13.1-3.22.04" class="st16"/><path id="path326" d="m919.58 654.37.41 1.01c1.09.06 2.17.05 3.22-.04l-.38-.95c-1.05.07-2.14.06-3.24-.02z" class="st16"/><path id="path327" d="m888.38 637.9-.15 1.27c.89.89 1.8 1.75 2.71 2.58l.15-1.23c-.91-.84-1.81-1.72-2.71-2.63z" class="st16"/><path id="path328" d="m888.53 636.64-.15 1.26c.9.91 1.8 1.78 2.71 2.63l.15-1.21a85 85 0 0 1-2.7-2.68z" class="st16"/><path id="path329" d="M867.77 618.28h.07s-.05-.01-.08-.01z" class="st12"/><path id="path330" d="M869.28 618.06c-.19.07-.38.11-.58.15l3.17-.25c-.26-.44-.52-.87-.78-1.31-.49.66-1.09 1.15-1.81 1.41" class="st12"/><path id="path331" d="M860.43 594.04c.18-.06.36-.11.54-.14-.05-.14-.1-.29-.14-.43l-1.75 1.41v.04c.4-.38.85-.68 1.35-.87z" class="st12"/><path id="path332" d="m890.96 616.44.92-7.65c.1-.82.85-1.41 1.67-1.31s1.41.85 1.31 1.67l-.85 7.05 8.76-.7c.4 0 .8 0 1.19-.03l-1.8-4.47c-.31-.77.06-1.64.83-1.95s1.64.06 1.95.83l2 4.98c3.16-1.24 4.81-4.17 5.69-6.99l-4.58-2.9c-.7-.44-.91-1.37-.46-2.07.44-.7 1.37-.91 2.07-.46l3.7 2.34c.26-1.6.33-2.88.39-3.33.11-.83.56-4.19.08-8.34l-2.84-.63a1.5 1.5 0 0 1-1.14-1.79 1.5 1.5 0 0 1 1.79-1.14l1.65.37c-1-4.39-3.2-9.14-7.84-12.58l-5.14 4.17c-.28.23-.61.34-.94.34-.44 0-.87-.19-1.17-.55-.52-.64-.42-1.59.22-2.11l4.35-3.53c-2.66-1.45-5.29-2.2-7.7-2.52l-.21 8.71c-.02.82-.69 1.46-1.5 1.46h-.04c-.83-.02-1.48-.71-1.46-1.54l.22-8.83c-2.57 0-4.72.45-6.14.92l4.89 10.21a1.5 1.5 0 0 1-1.35 2.15c-.56 0-1.1-.31-1.35-.85l-4.8-10-7.13 5.74 9.54 6.75a1.494 1.494 0 0 1-.87 2.72c-.3 0-.6-.09-.87-.28l-10.24-7.25-11.28 9.08c.19.63.39 1.27.6 1.9 3 .9 6.25 4.61 8.11 9.67 1.48 4.02 1.74 7.96.94 10.73.64 1.13 1.29 2.25 1.95 3.34l16.86-1.34z" class="st12"/><path id="path333" d="M884.01 590.3c.26.19.57.28.87.28.47 0 .93-.22 1.23-.63.48-.68.32-1.61-.36-2.09l-9.54-6.75-2.43 1.96 10.24 7.25z" class="st12"/><path id="path334" d="m883.33 575.35 4.8 10a1.49 1.49 0 0 0 2 .7c.75-.36 1.06-1.25.7-2l-4.89-10.21c-.78.26-1.35.52-1.64.72l-.97.78z" class="st12"/><path id="path335" d="M891.86 581.76c-.02.83.63 1.52 1.46 1.54h.04c.81 0 1.48-.65 1.5-1.46l.21-8.71c-1.05-.14-2.05-.2-3-.19l-.22 8.83z" class="st12"/><path id="path336" d="m902.78 575.64-4.35 3.53c-.64.52-.74 1.47-.22 2.11.3.37.73.55 1.17.55.33 0 .67-.11.94-.34l5.14-4.17c-.21-.15-.41-.31-.62-.45-.68-.47-1.37-.87-2.05-1.24z" class="st12"/><path id="path337" d="M911.64 589.55a1.5 1.5 0 0 0-1.79 1.14 1.5 1.5 0 0 0 1.14 1.79l2.84.63c-.12-1.02-.29-2.1-.54-3.19z" class="st12"/><path id="path338" d="M909.66 602.43a1.51 1.51 0 0 0-2.07.46c-.44.7-.24 1.63.46 2.07l4.58 2.9c.34-1.08.57-2.14.73-3.09z" class="st12"/><path id="path339" d="M902.99 609.04c-.77.31-1.14 1.18-.83 1.95l1.8 4.47c.53-.03 1.05-.08 1.56-.19.51-.1.98-.25 1.43-.42l-2-4.98a1.495 1.495 0 0 0-1.95-.83z" class="st12"/><path id="path340" d="M893.54 607.47c-.82-.1-1.57.49-1.67 1.31l-.92 7.65 3.05-.24.85-7.05c.1-.82-.49-1.57-1.31-1.67" class="st12"/><path id="path341" d="M871.69 615.66c-.17.36-.37.69-.59.99.26.44.52.88.78 1.31l1.11-.09c-.44-.73-.87-1.46-1.3-2.21" class="st12"/><path id="path342" d="M861.97 593.83c-.11-.34-.22-.69-.32-1.03l-.83.66c.04.14.09.29.14.43.33-.07.67-.09 1.01-.07z" class="st12"/><path id="path343" d="M871.8 615.42c-.04.08-.07.16-.11.23.43.75.86 1.48 1.3 2.21l.79-.06c-.66-.79-1.32-1.59-1.98-2.38" class="st12"/><path id="path344" d="m862.49 592.13-.84.67c.11.34.21.68.32 1.03.37.02.74.09 1.12.2-.21-.64-.41-1.27-.6-1.9" class="st12"/><path id="path345" d="M872.15 614.44c-.1.35-.21.68-.35.99.66.79 1.32 1.59 1.98 2.38l.32-.03c-.67-1.1-1.32-2.21-1.95-3.34" class="st12"/><path id="path346" d="m868.7 618.21-.86.07c.29 0 .58-.01.86-.07" class="st13"/><path id="path347" d="M857.43 598.17c-.63 2.73-.32 6.44 1.08 10.22 2.11 5.72 5.98 9.71 9.26 9.88l-5.15-13.88c-1.73-2.08-3.46-4.15-5.19-6.23z" class="st13"/><path id="path348" d="M859.09 594.91c-.78.76-1.35 1.88-1.66 3.26 1.73 2.08 3.46 4.15 5.19 6.23l-3.52-9.49z" class="st13"/><path id="path349" d="M871.1 616.64c-.5-.86-.99-1.72-1.46-2.59-.61-1.11-1.18-2.22-1.75-3.32-1.76-2.11-3.52-4.22-5.27-6.33l5.15 13.88h.08l.86-.07c.2-.04.39-.08.58-.15.72-.27 1.32-.76 1.81-1.41z" class="st13"/><path id="path350" d="M867.89 610.73c-2.86-5.63-5.16-11.29-6.92-16.83-.18.04-.36.08-.54.14-.5.19-.94.49-1.33.87l3.52 9.49c1.76 2.11 3.52 4.22 5.27 6.33" class="st13"/><path id="path351" d="M871.2 603.71c-1.87-5.06-5.12-8.77-8.11-9.67 2.06 6.27 4.82 12.69 8.3 19.06.25.45.51.9.76 1.35.8-2.77.54-6.71-.94-10.73z" class="st13"/><path id="path352" d="M867.89 610.73a96 96 0 0 0 1.75 3.32c.48.87.97 1.74 1.46 2.59.22-.3.42-.62.59-.99-.22-.38-.43-.76-.65-1.14-1.05-1.26-2.1-2.53-3.16-3.79z" class="st13"/><path id="path353" d="M870.51 613.57c-3.61-6.59-6.45-13.25-8.54-19.74-.34-.02-.68 0-1.01.07 1.76 5.54 4.07 11.19 6.92 16.83 1.05 1.26 2.1 2.53 3.16 3.79-.18-.32-.36-.63-.53-.95" class="st13"/><path id="path354" d="M871.04 614.52c.21.38.43.76.65 1.14.04-.08.08-.15.11-.23-.25-.3-.5-.61-.76-.91" class="st13"/><path id="path355" d="M871.04 614.52c.25.3.5.61.76.91.13-.31.25-.64.35-.99-.25-.45-.51-.89-.76-1.35-3.48-6.36-6.24-12.79-8.3-19.06-.38-.11-.75-.18-1.12-.2 2.09 6.49 4.93 13.15 8.54 19.74.17.32.36.63.53.95" class="st13"/></g></g><g id="g374" transform="translate(-686.52 -284.618)"><path id="polygon356" d="m1455.63 476.3-31.76 34.64-360.85 190.72-50.5 111.3-13.69 34-80.67 10-92.14-58.33 42.13-114.86 44.04-65.5 154.02-102.99 156.58-80.98 125.37-12.54z" class="st1"/><path id="polygon357" d="m907.3 613.85-13.59-2.65 123.03-67.29 7.9 3.14-66.67 41.9z" class="st1"/><path id="polygon358" d="m865.97 693.63-39.95 105-2.72-4.86 19.56-87.64 50.85-94.93 13.59 2.65 117.34-66.8-113.34 73.02z" class="st18"/><path id="polygon359" d="M1012.52 524.46v30.2l26.5-16.7z" class="st16"/><path id="polygon360" d="m1012.52 524.46 26.5 13.5 127.39-69.89-15.11-16.66z" class="st1"/><path id="polygon361" d="m1026.69 519.63-14.17-19.17-5.33-6.5v-9.83l14 9.83 11.67 26.34z" class="st16"/><path id="polygon362" d="m1096.36 453.46-75.17 40.5 9.45 21.32 9.44-5.33 71.15-37.53z" class="st22"/><path id="polygon363" d="m1007.19 484.13 14 9.83 75.17-40.5-12.67-8.33z" style="fill:#62b9f4"/><path id="polygon364" d="m1093.52 462.3 11.5 13.33-64.94 34.32-8.33-14.54z" class="st16"/><path id="polygon365" d="m1046.69 497.96 8-5 24.67 15.84-12 7.5z" class="st16"/><path id="polygon366" d="m1079.36 508.8-24.67-15.84 7-3.33 24 15z" class="st22"/><path id="polygon367" d="m1089.47 480.11 13.44-5.81 20.95 13-10.5 6.66z" class="st16"/><path id="polygon368" d="m1105.02 475.63 6.21-3.21 23.44 8.38-10.81 6.5z" class="st22"/><path id="polygon369" d="m1058.69 467.46-5.17-3.33-21.77 15.73-10.56-8.4 3.45-2.83 6.38 3 22.34-14.33 9.66 6.83z" class="st16"/><path id="polygon370" d="m1049.36 453.46 4 3.84-22.34 14.33-6.38-3 1.13-1z" class="st22"/><g id="g373"><path id="path370" d="M1037.16 429.59c12.44-13.79 24.72-21.2 36.5-22.02 3.37-.23 6.41-.14 9.21.2-3.91-.65-7.8-.91-11.58-.74-19.41.87-32.99 16.81-38.78 23.62-.5.58-.93 1.09-1.3 1.51-.31.35-.57.73-.79 1.13 2.21-1.17 4.42-2.35 6.63-3.52.04-.06.06-.12.1-.17z" class="st16"/><path id="path371" d="M1143.86 468.53c-3.52-18.13-13.6-34.47-28.38-46.01-7.57-5.91-15.97-10.28-24.48-12.86 7.23 2.55 12.88 7.01 19.03 11.88.78.62 1.57 1.25 2.38 1.88 17.59 13.81 23.07 28.64 27.46 40.56l.66 1.79c.29.78-.11 1.64-.88 1.93-.17.06-.35.09-.52.09-.61 0-1.18-.37-1.41-.98l-.66-1.79c-4.27-11.56-9.58-25.96-26.5-39.24-.81-.63-1.6-1.26-2.39-1.89-10.19-8.08-18.23-14.47-34.29-13.34-6.45.45-16.23 3.5-28.18 14.62 2.1-1.11 4.2-2.23 6.3-3.34 5.01-2.66 3.45-1.05 6.5-1.18 3.64-1.28 9.36-1.47 13.33-1.64 24.03-1.09 53.98 19.48 60.25 51.8a6.004 6.004 0 0 0 5.88 4.86 6.003 6.003 0 0 0 5.9-7.14" class="st16"/><path id="path372" d="M1082.88 407.76c2.7.45 5.42 1.08 8.13 1.9-2.49-.88-5.17-1.54-8.13-1.9" class="st18"/><path id="path373" d="M1073.67 407.57c-11.78.82-24.06 8.23-36.5 22.02-.05.05-.06.12-.1.17 2.88-1.53 5.76-3.06 8.64-4.58 11.96-11.12 21.73-14.17 28.18-14.62 16.06-1.13 24.11 5.26 34.29 13.34.79.62 1.58 1.25 2.39 1.89 16.92 13.28 22.23 27.67 26.5 39.24l.66 1.79a1.51 1.51 0 0 0 1.93.89c.78-.29 1.17-1.15.88-1.93l-.66-1.79c-4.4-11.92-9.87-26.75-27.46-40.56-.8-.63-1.59-1.26-2.38-1.88-6.14-4.87-11.8-9.33-19.03-11.88-2.71-.82-5.42-1.45-8.13-1.9-2.8-.34-5.84-.43-9.21-.2" class="st18"/></g></g><path id="polygon374" d="m1155.8 707.96 1.78 56.89-100 52.45-46.67-4.89-29.78 9.33-18.67-3.11-66.66 15.55-69.78-35.55v7.11l92.33 51.22 87.34-10.33 59.66-21 40 10.67 416.67-225.67-54.22-68z" class="st16" transform="translate(-686.52 -284.618)"/><path id="polygon375" d="m1094.19 736.89-40.38 80.01-42.9-4.49 52.11-110.75 20.5 8.72z" class="st18" transform="translate(-686.52 -284.618)"/><path id="polygon376" d="m1094.19 736.89-40.38 80.01 3.77.4 100-52.45-1.78-56.89z" style="fill:#316bbc" transform="translate(-686.52 -284.618)"/><path id="line376" d="m402.78 490.812 48.22-24.69" class="st6"/><path id="line377" d="m403.67 503.622 52-28.29" class="st6"/><path id="line378" d="m447.65 456.722 13.34-7.56" class="st6"/><path id="line379" d="m403.67 479.282 28.21-15.23" class="st6"/><path id="line380" d="m460.99 434.492-57.32 29.56" class="st6"/><path id="line381" d="M403.67 479.282v-15.23" class="st6"/><path id="line382" d="m407.67 450.902-38 78.11" style="fill:none;stroke-linecap:round;stroke-linejoin:round;stroke-width:3px;stroke:#51a7ea"/><path id="polygon382" d="m1455.63 476.3 14.01 16.67v9.62l-386.12 207.79-20.5-8.72 360.85-190.72z" class="st2" transform="translate(-686.52 -284.618)"/><path id="polygon383" d="m1469.64 502.59-386.12 207.79 10.67 26.51 61.61-28.93 312-165.33z" class="st1" transform="translate(-686.52 -284.618)"/><path id="polygon384" d="m1174.19 683.17-5.78 3.55v14.45l21.78-11.33z" class="st18" transform="translate(-686.52 -284.618)"/><g id="g455" transform="translate(-686.52 -284.618)"><g id="g442"><g id="g426"><path id="path384" d="M1593.64 531.77c15.79-12.31 46.4-32.34 88.89-37.33 14.89-1.75 28.29-1.31 39.56 0 69.78-30.18 82.57-31.13 84-28.44 1.43 2.68-6.51 12.78-70.67 53.89a165 165 0 0 1-19.56 24.33c-27.77 28.53-59.84 40.67-79.56 46.11-14.22-19.52-28.44-39.04-42.67-58.56z" class="st24"/><path id="path385" d="M1611.86 537.77c8.52-3.94 29.61-13.17 54-17.89 17.95-3.47 16.04-.31 34.07-3.78 3.07-.59 8.73-1.76 9.59 0 .85 1.74-3.41 5.4-6.33 8-13.63 12.11-8.4 10.21-22 22-16.22 14.07-33.28 25.11-41.67 30.33-9.22-12.89-18.44-25.78-27.67-38.67z" class="st19"/><path id="path386" d="M1574.19 519.11c4.8-2.67 13.09-6.36 23.33-6 25.35.88 43.03 25.8 49.33 44.33 2.48 7.29 7.96 23.42 0 40-5.62 11.71-15.16 17.84-19.67 20.33-17.67-32.89-35.33-65.78-53-98.67z" class="st16"/><path id="path387" d="M1182.86 747.77c2.67-14.22 5.33-28.44 8-42.67 119.85-63.63 239.7-127.26 359.56-190.89 6.39-.96 16.55-1.6 28 1.78 27.74 8.19 40.42 33.34 44.89 42.22 3.78 7.51 20.32 40.34 4.89 69.78-4.7 8.96-10.99 14.99-15.59 18.67-114.06 68.74-228.13 137.48-342.19 206.22z" class="st22"/><path id="polygon387" d="m1269.52 736.89 1.78-4.45-55.55-33 358.44-182.01 18.04 5.37 24.21 23.26-168.98 99.45z" class="st1"/><path id="polygon388" d="m1607.63 537 15.66 23.89 8.02 20.63-142.27 71.82 4.21 18.49-200.17 103.6-41.78-46.99 295.91-155.92-9.66-9.82 33.52-14.26 9.12 5.45 5.1-5.45z" class="st18"/><g id="g425"><path id="path388" d="M1550.41 513.22c-4.62 2.45-9.24 4.91-13.86 7.36 6.04 1.33 14.45 3.77 23.55 8.19l18.49-9.57c-9.67-4.03-18.39-5.76-23.71-6.5-1.64.14-3.14.32-4.47.52" class="st2"/><path id="path389" d="M1423.87 599.3c-8.82-2.17-18.19-3.63-27.05-4.54-37.45 19.88-74.89 39.76-112.34 59.64 8.05.69 15.63 2.46 22.7 5.31l116.7-60.42z" class="st2"/><path id="path390" d="M1497.68 541.22c7.99 1.5 15.7 4.2 22.97 7.98l36.1-18.69c-9.99-4.58-18.94-6.73-24.38-7.7-11.57 6.14-23.13 12.28-34.7 18.42z" class="st2"/><path id="path391" d="M1419.17 582.9c8.18 1.61 16.27 3.76 23.69 6.57l74.5-38.57c-7.62-3.71-15.71-6.2-24.07-7.35-24.71 13.12-49.41 26.23-74.12 39.35" class="st2"/><path id="path392" d="M1301.17 662.83c-7.87-2.6-16.39-3.85-25.49-3.75-28.27 15.01-56.55 30.02-84.82 45.03-.1.54-.2 1.08-.3 1.61l34.53-3.5 76.09-39.39z" class="st2"/><path id="path393" d="M1610.7 542.72c17.26 21.19 21.51 46.51 20.97 55.78-.05.83.58 1.54 1.41 1.58h.09c.79 0 1.45-.62 1.5-1.41.56-9.62-3.71-35.84-21.64-57.85-9.3-11.42-20.57-18.73-31.01-23.4l-3.41 1.77c10.67 4.45 22.47 11.71 32.1 23.53z" class="st2"/><path id="path394" d="M1554.88 512.7c5.32.73 14.04 2.46 23.71 6.5l3.41-1.77a98 98 0 0 0-10.84-4.09c-6.19-1.04-11.77-1.02-16.28-.64" class="st2"/><path id="path395" d="M1598.34 562.3c-10.85-16.88-25.24-27.22-38.24-33.53l-3.35 1.73c13.11 6.01 28 16.2 39.07 33.42 5.08 7.91 20.99 36.27 12.26 69.02-1.95 7.31-4.99 14.31-9.02 20.89l5.28-3.18a81.2 81.2 0 0 0 6.64-16.93c9.05-33.94-7.38-63.25-12.63-71.42z" class="st2"/><path id="path396" d="M1532.37 522.8c5.44.97 14.39 3.12 24.38 7.7l3.35-1.73c-9.1-4.42-17.51-6.86-23.55-8.19-1.39.74-2.79 1.48-4.18 2.22" class="st2"/><path id="path397" d="M1559.72 587.7c-9.83-17.19-23.41-30.36-39.07-38.5l-3.3 1.71c15.95 7.78 29.83 20.91 39.76 38.28 20.82 36.43 7.5 76.41 2.66 88.32 1.38-.83 2.76-1.66 4.14-2.5 5.65-15.61 15.42-53-4.19-87.31" class="st16"/><path id="path398" d="M1493.28 543.55c8.36 1.15 16.45 3.64 24.07 7.35l3.3-1.71c-7.27-3.78-14.98-6.47-22.97-7.98-1.46.78-2.93 1.55-4.39 2.33z" class="st16"/><path id="path399" d="m1328 679.1-72.97 37.33a4.507 4.507 0 0 0-1.96 6.06 4.49 4.49 0 0 0 6.06 1.95l75.31-38.53c-2.05-2.42-4.2-4.69-6.44-6.81" class="st2"/><path id="path400" d="m1338.96 683.61 123.52-63.19a75 75 0 0 0-6.85-6.61l-122.97 62.91c2.18 2.15 4.28 4.45 6.3 6.89" class="st2"/><path id="path401" d="M1292.34 807.14a1.504 1.504 0 0 0 .74 2.81c.25 0 .51-.06.74-.2l69.96-39.88c-.07-1.11-.14-2.22-.23-3.32l-71.22 40.6z" class="st1"/><path id="path402" d="M1368.43 763.76c.1 1.1.16 2.21.24 3.31l8.38-4.78c-.19-1.04-.38-2.08-.58-3.12l-8.05 4.59z" class="st1"/><path id="path403" d="M1528.49 675.97c.72-.41.97-1.33.56-2.05s-1.33-.97-2.05-.56l-24.73 14.1c.05 1.13.08 2.26.1 3.39l26.11-14.88z" class="st1"/><path id="path404" d="M1379.22 757.61c.2 1.04.4 2.07.59 3.11l107.5-61.28c.04-1.17.07-2.34.08-3.5l-108.18 61.67z" class="st1"/><path id="path405" d="M1310.58 661.17c-1.12-.52-2.25-1-3.4-1.46l-6.01 3.11c2.5.83 4.94 1.78 7.31 2.88 7.12 3.3 13.64 7.83 19.53 13.4l4.66-2.38c-6.67-6.59-14.08-11.84-22.08-15.55z" class="st16"/><path id="path406" d="m1368.67 767.07-4.89 2.79c.5 8.33.52 16.94.02 25.74 1.73-1.04 3.45-2.08 5.18-3.12.38-8.66.28-17.14-.31-25.4z" class="st16"/><path id="path407" d="M1359.79 721.82c-5.1-14.88-12.19-27.79-20.83-38.21l-4.52 2.31c16.37 19.29 26.6 47.71 29.12 80.62l4.87-2.78c-1.3-14.85-4.19-28.94-8.64-41.94" class="st16"/><path id="path408" d="M1284.48 654.4c-2.93 1.56-5.87 3.11-8.8 4.67 9.1-.1 17.62 1.15 25.49 3.75l6.01-3.11c-7.07-2.85-14.65-4.62-22.7-5.31" class="st16"/><path id="path409" d="m1332.66 676.72-4.66 2.38c2.24 2.12 4.39 4.4 6.44 6.81l4.52-2.31a97 97 0 0 0-6.3-6.89z" class="st16"/><path id="path410" d="M1363.56 766.54c.08 1.1.16 2.21.23 3.32l4.89-2.79c-.08-1.11-.15-2.22-.24-3.31l-4.87 2.78z" class="st16"/><path id="path411" d="M1377.06 762.29c1.4 7.71 2.49 15.5 3.26 23.36l2.85-1.71c-.8-7.81-1.92-15.55-3.34-23.22l-2.76 1.57z" class="st16"/><path id="path412" d="M1355.23 689.26a6.68 6.68 0 0 0 0 4.59c.02.04.03.08.05.12 3.71 7.92 7.08 16.1 10.02 24.31 4.75 13.27 8.48 26.95 11.18 40.89l2.74-1.56a282 282 0 0 0-11.1-40.34 284 284 0 0 0-10.09-24.51c-.14-.42-.38-1.39.02-2.47.48-1.3 1.57-1.9 1.97-2.09l109.63-58.7c-.57-.84-1.15-1.66-1.75-2.47l-109.23 58.49c-.75.35-2.58 1.42-3.44 3.73z" class="st16"/><path id="path413" d="M1376.48 759.17c.2 1.04.39 2.08.58 3.12l2.76-1.57c-.19-1.04-.39-2.08-.59-3.11l-2.74 1.56z" class="st16"/><path id="path414" d="M1455.37 641.7c-.41-.15-.86-.11-1.24.1l-61.67 34.33c-.72.4-.98 1.32-.58 2.04s1.32.98 2.04.58l60.13-33.48c2.41 6.89 4.57 17.12 2.66 29.16-2.47 15.58-10.64 26.31-15.29 31.33a1.5 1.5 0 0 0 2.2 2.04c4.88-5.26 13.45-16.54 16.05-32.89 2.17-13.68-.66-25.13-3.41-32.33a1.5 1.5 0 0 0-.89-.87z" class="st2"/><path id="path415" d="m1471.87 628.31-2.24 1.2c9.2 13.57 15.1 30.74 17.07 50.25.54 5.3.76 10.71.69 16.18l10.55-6.01c-.39-8.01-1.76-16.29-4.45-24.69-4.32-13.46-11.59-25.87-21.62-36.92z" class="st16"/><path id="path416" d="M1452.66 611.41c1.01.77 2 1.57 2.98 2.4l10.51-5.38a4.504 4.504 0 0 1 4.1 8.02l-7.76 3.97c1.9 2.09 3.71 4.3 5.41 6.63l3.59-1.92c.6-.32 1.34-.2 1.81.3 10.74 11.58 18.5 24.67 23.06 38.89a98.4 98.4 0 0 1 4.51 23.95l1.42-.81c-.13-3.09-.34-6.16-.64-9.2-3.42-33.86-17.59-61.84-39.91-78.79-5.3-4.02-11.78-7.31-18.87-10l-18.98 9.83c11.28 2.77 21.64 6.69 28.78 12.12z" class="st16"/><path id="path417" d="m1498.06 693.32-10.74 6.12c-.27 7.65-1.11 15.43-2.52 23.25 3.7-2.23 7.41-4.46 11.11-6.69 1.44-7.18 2.26-14.79 2.15-22.68" class="st16"/><path id="path418" d="m1502.38 690.85-1.36.78c.23 7.73-.42 15.2-1.68 22.29.68-.41 1.36-.82 2.03-1.23.8-7.36 1.15-14.66 1.01-21.85z" class="st16"/><path id="path419" d="M1396.82 594.76c8.86.91 18.24 2.37 27.05 4.54l18.98-9.83c-7.42-2.81-15.51-4.96-23.69-6.57-7.45 3.95-14.9 7.91-22.35 11.86z" class="st16"/><path id="path420" d="m1462.48 620.42 7.76-3.97a4.507 4.507 0 0 0 1.96-6.06 4.507 4.507 0 0 0-6.06-1.96l-10.51 5.38c2.41 2.04 4.69 4.24 6.85 6.61" class="st16"/><path id="path421" d="m1501.02 691.63 1.36-.78a189 189 0 0 0-.1-3.39l-1.42.81c.07 1.13.12 2.25.16 3.36" class="st16"/><path id="path422" d="M1487.4 695.94c-.01 1.16-.04 2.33-.08 3.5l10.74-6.12a97 97 0 0 0-.11-3.39z" class="st16"/><path id="path423" d="M1471.87 628.31c10.03 11.05 17.3 23.46 21.62 36.92 2.7 8.4 4.07 16.68 4.45 24.69l2.91-1.66c-.49-7.79-1.9-15.81-4.51-23.95-4.57-14.23-12.32-27.31-23.06-38.89a1.49 1.49 0 0 0-1.81-.3l-3.59 1.92c.59.81 1.18 1.63 1.75 2.47z" class="st16"/><path id="path424" d="m1495.9 715.99 3.44-2.07c1.26-7.09 1.91-14.57 1.68-22.29l-2.96 1.69c.11 7.89-.71 15.49-2.15 22.68z" class="st16"/><path id="path425" d="M1497.95 689.92c.05 1.14.09 2.27.11 3.39l2.96-1.69c-.03-1.12-.09-2.24-.16-3.36z" class="st16"/></g></g><g id="g429"><path id="polygon426" d="m1496.64 611.33 18.44-8.44-14.44-18.45-16.89 8.22z" class="st22"/><path id="polygon427" d="m1500.64 584.44-.67 1.67-12.78 7.11 10.22 15.22 17.67-5.55-18.44 8.44-12.89-18.67z" class="st16"/><path id="polygon428" d="m1544.19 542.89 8.45-5.78-14.45-10.22-9.11 4.66z" class="st22"/><path id="polygon429" d="m1544.19 540.33-11.89-8.67 5.89-4.77-9.11 4.66 15.11 11.34 8.45-5.78z" class="st16"/></g><g id="g441"><ellipse id="ellipse429" cx="1234.27" cy="776.44" class="st2" rx="56.97" ry="84.73" transform="rotate(-28.68 1234.126 776.384)"/><ellipse id="ellipse430" cx="1230.96" cy="777.61" class="st16" rx="55.56" ry="82.62" transform="rotate(-28.68 1230.805 777.557)"/><ellipse id="ellipse431" cx="1232.7" cy="777.03" class="st12" rx="43.99" ry="71.53" transform="rotate(-28.68 1232.536 776.978)"/><ellipse id="ellipse432" cx="1245.29" cy="770.08" class="st16" rx="34.14" ry="63.69" transform="rotate(-28.68 1245.127 770.029)"/><g id="g439"><path id="line432" d="m1192.35 735.52 37.35 26.44" class="st3"/><path id="line433" d="m1212.81 712.75 21.5 44.85" class="st3"/><path id="line434" d="m1239.12 717.03-.93 37.65" class="st3"/><path id="line435" d="m1263.18 737.83-18.99 15.4" class="st3"/><path id="line436" d="m1281.75 769.57-25.61-5.67" class="st3"/><path id="line437" d="m1287.01 797.69-33.33-21.1" class="st3"/><path id="line438" d="m1269.22 835.22-20.84-51.9" class="st3"/><path id="line439" d="m1238.19 781.85-5.09 42.42" class="st3"/></g><ellipse id="ellipse439" cx="1245.29" cy="770.08" rx="34.14" ry="63.69" style="fill:none;stroke-linecap:round;stroke-linejoin:round;stroke:#1b3179;stroke-width:2px" transform="rotate(-28.68 1245.127 770.029)"/><g id="g440"><path id="path439" d="M1249.65 749.77c-9.34-6.38-18.93-3.4-20.52-2.31l-25.22 20.3 8.69 23.41 35-2.79c.94.01 1.87-.04 2.74-.22 7.83-1.58 8.03-12.32 8.23-13.84.25-1.9 2.26-16.93-8.92-24.56z" class="st12"/><ellipse id="ellipse440" cx="1209.68" cy="778.94" class="st13" rx="6.77" ry="12.8" transform="rotate(-20.24 1209.813 778.99)"/></g></g></g><g id="g450"><g id="g446"><path id="polygon442" d="m1554.88 973.77 126.2-66.22v6.22l-128.44 69.78-124-154.22-104.45-8.89 6.27-52.89 100.4 31.56z" class="st16"/><path id="polygon443" d="m1455.63 793.33-111.88-32.45-13.29 6.67 100.4 31.56 124.02 174.66 19.31-10.13z" class="st18"/><path id="polygon444" d="m1562.19 679.66 111.55 231.74-99.55 52.24-118.56-170.31-111.88-32.45 183.44-96.55z" class="st1"/><path id="polygon445" d="m1570.86 674.95 110.22 232.6-7.34 3.85-111.55-231.74-35-15.33 16.67-8.33z" class="st2"/><path id="polygon446" d="m1519.19 884.63-63.56-87.52-49.57-18.16 51.91 8.82z" class="st2"/></g><g id="g449"><path id="polygon447" d="m1673.74 911.4-12.62 6.62 19.96-10.47z" class="st5"/><path id="polygon448" d="m1659.34 918.96-85.15 44.68-19.31 10.13z" class="st5"/><path id="path448" d="M1363.75 785.35c.18.34.53.53.89.53.16 0 .32-.04.46-.12l206.74-108.73-.86-1.81-206.82 108.77c-.49.26-.68.86-.42 1.35z" class="st16"/><path id="path449" d="M1540.34 749.38s-.04.01-.06.03c-.04.03-.06.07-.09.1-.05.05-.1.09-.14.15-.04.05-.06.11-.09.17s-.05.12-.07.18c-.01.06-.02.12-.02.19v.19c.01.07.03.13.06.19.02.04.02.09.04.13.01.02.03.04.05.07 0 .01 0 .03.02.04l43.71 61.61-49.09 28.51-75.46-94.88a.99.99 0 0 0-1.4-.16 1 1 0 0 0-.16 1.4l76 95.56s.02.01.03.02c.09.1.19.19.31.24.02 0 .04.02.06.02.12.05.25.09.39.09.1 0 .2-.02.29-.05.03 0 .06-.02.09-.04.04-.02.08-.03.12-.05l50-29.04 41.61 58.66-109.45 54.84c-.49.25-.69.85-.45 1.34a.99.99 0 0 0 1.34.44l109.72-54.98 31.8 44.82 1.76-.97-47.77-67.34 31.97-18.5-.86-1.81-32.27 18.68-70-98.67 51.36-27.42-.86-1.81-52.45 28s-.03.03-.05.04z" class="st16"/></g></g><g id="g454"><path id="polygon450" d="m1427.19 756.13-32.5-43.33-15.5-7.17 87.8-47.87-5.47-1.63-85.33 44.67 1.83 39.16 53.17 24.67 87.5-46.67-8-9.5z" class="st16"/><path id="polygon451" d="m1379.19 705.63 87.8-47.87 12.2 9.2-84.5 45.84z" class="st1"/><path id="polygon452" d="m1394.69 712.8 32.5 43.33 83.5-47.67-31.5-41.5z" class="st18"/><path id="polygon453" d="m1414.88 720.83 74.55-40.38-5.12-6.74-74.06 40.54.89 1.27z" class="st1"/><path id="line453" d="m1409.41 713.06 16.38 23.27" class="st4"/><path id="line454" d="m1469.19 682.43 16.38 23.27" class="st4"/></g></g><path id="polygon455" d="m1455.63 478.14-108.01 16.93-166.51 87.21-142.06 107.56-8.9 6.1-59.51 124.05 10.49 1.75 25.45-7.75 56.44-112.33 207.33-104.3 151.24-85.21z" class="st18" transform="translate(-686.52 -284.618)"/><path id="polygon456" d="m1060.03 699.44 16.5-4.57-13.51 6.79-52.86 112.33-8.98 4.24z" class="st16" transform="translate(-686.52 -284.618)"/><path id="polygon457" d="m1132.81 666.96-49.29 24.39 293.54-156.46 40.54-24.17 24.95-19.51-22.71 24.07L1258 604.24z" class="st16" transform="translate(-686.52 -284.618)"/><path id="path457" d="m664.92 138.202-125.04 9.62-166.37 87.86-148.73 99.78 127.14 70.22 142.63-107 166.54-88.22-110.28-56.99 114.1-7.49 93.16 49.22 11.03-1.67-104.19-55.33zm-175.01 155.29-138.1 100.99-111.86-60.82L379 239.842l160.71-84.45 104.66 53.95z" class="st2"/><path id="polygon458" d="m1042.11 654.44-79.76-44.24 6.17-5.96 73.59 40.21 56.49-47.48-66.37-35.64 4.83-2.54 68.76 39.39z" class="st16" transform="translate(-686.52 -284.618)"/><path id="polygon459" d="m1032.23 561.33-63.71 42.91 7.3 3.98 1.87-1.61 52.46-36.4 54.64 28.51-49.51 41.81 6.83 3.92 56.49-47.48z" class="st2" transform="translate(-686.52 -284.618)"/><path id="polygon460" d="m994.13 595.17-18.31 13.05 3.61 1.98 1.87-1.75 12.83-8.15 42.93 24.48-11.05 10.87 9.27 4.88 15.84-13.37z" class="st16" transform="translate(-686.52 -284.618)"/><path id="polygon461" d="m1051.12 627.16-56.99-31.99 3.84-2.63 58.03 30.49z" class="st2" transform="translate(-686.52 -284.618)"/><path id="polygon462" d="m1047.99 561.33-7.58-5.89 1.7-2.64 3.58 3.48 11.82-8.43-3.7-3.17 3.7-2.17 7.79 5.34z" class="st16" transform="translate(-686.52 -284.618)"/><path id="polygon463" d="m1132.81 589.91-6.88-4.08-14.7 10.26 6.45 4.21z" class="st16" transform="translate(-686.52 -284.618)"/><path id="polygon464" d="m1157.55 492.76 71.32-37.51.56 1.15-61.46 33.23 61.46 31.67 66.07-36.58 4.69 3.96-72.67 40.82z" class="st16" transform="translate(-686.52 -284.618)"/><path id="polygon465" d="m1193.05 482.55 37.64-22.09 2.17 2.09-29 17.31 40.5 21.74 34.88-19.53 5.95 4.05-42.16 22.68z" class="st16" transform="translate(-686.52 -284.618)"/><path id="polygon466" d="m1286.09 485.46-52.73-26.54-2.67 1.54 2.17 2.09 44.3 20.69 4.26 4.06 3.77-1.18z" class="st16" transform="translate(-686.52 -284.618)"/><path id="polygon467" d="m1232.19 457.67-40.67 23.74-1.12-1.76 40.29-22.35z" class="st2" transform="translate(-686.52 -284.618)"/><path id="polygon468" d="m1228.87 465.09 1.82.87 35.64 16.67-26.17 16.72 4.2 2.25 32.8-18.36-44.3-20.69z" class="st2" transform="translate(-686.52 -284.618)"/><path id="polygon469" d="m1208.41 544.68 13.97 8.65-7.44 3.56-6.53-5.74-6-1.09-9.36 5.18-3.29.2-79.95-41.17-.32-4.7 12.2-14.78 12.98-10.07-.94 3.66-17.41 19.48v3.55l73.51 37.09 3.22.52 9.36-4.34z" class="st2" transform="translate(-686.52 -284.618)"/><path id="polygon470" d="m1274.72 435.71 60.47 32.87 66.79-11.28-8.86-4.68-56.93 10.1-52.32-27.69z" class="st16" transform="translate(-686.52 -284.618)"/><path id="polygon471" d="m1301.08 433.9 38.44 23.4 49.23-7-5.55-2.93-41.86 5.72-32.33-19.71z" class="st16" transform="translate(-686.52 -284.618)"/><path id="polygon472" d="m1405.99 485.92-41.95-22.22 7.64-1.29 40.81 22.49z" class="st16" transform="translate(-686.52 -284.618)"/><path id="polygon473" d="m1179.18 584.72 1.9-1.43 3.48-1.84-118.81-64.42-5.72 3.27z" class="st16" transform="translate(-686.52 -284.618)"/><path id="polygon474" d="m828.27 799.71 40.52-104.84 71.44 37.43-50.29 99.41z" class="st18" transform="translate(-686.52 -284.618)"/><path id="polygon475" d="M1021.29 697.22 959.17 820.3l-63.37 13.88 48.45-100.4z" class="st22" transform="translate(-686.52 -284.618)"/><path id="polygon476" d="m944.25 733.78-48.45 100.4-6.11-1.55 48.68-101.22-72.4-37.78 37.99-62.5 3.34 3.86-31.1 50.93 68.05 39.02 74.71-33.59 2.71 1.76-.38 4.11z" class="st2" transform="translate(-686.52 -284.618)"/><path id="polygon477" d="m906.47 627.85 43.42 24.39-5.64 4.21-36.95-21.46-3.34-3.86z" class="st16" transform="translate(-686.52 -284.618)"/><path id="polygon478" d="m1021.67 693.11-2.71-1.76-44.6-21-39.95 27.95-20.36-10.84 2.99-4.29 16.03 10.01 40.9-29.35 53.95 29.35-2.01 5.12-4.62-1.08z" class="st16" transform="translate(-686.52 -284.618)"/><path id="polygon479" d="m933.07 693.18-16.03-10.01 11.65-14.71 21.2 12.71z" class="st22" transform="translate(-686.52 -284.618)"/><path id="polygon480" d="m951.25 652.88-20.99 17.47-1.57-1.89 15.56-12.01 5.64-4.21z" class="st22" transform="translate(-686.52 -284.618)"/><path id="polygon481" d="m953.72 670.35 11.97-9.06-8.83-5.95-10.11 10.29z" class="st16" transform="translate(-686.52 -284.618)"/><path id="path481" d="M266.12 541.452c.44-1.11 68.65-128.86 68.65-128.86l4.62 1.08 2.01-5.11 2.24 2.75-60.29 125.69-4.17 8.44-13.06-4z" class="st16"/><g id="g482" transform="translate(-686.52 -284.618)"><path id="polygon482" d="m930.35 732.21-41.01 83.16-52.29-28.85 33.44-84.43z" class="st19"/><path id="path482" d="m871.02 703.47 57.99 29.18-40.1 81.33-50.61-27.91zm-1.05-2.77-.81 2.03-32.72 82.6-.65 1.64 1.54.85 50.61 27.91 1.83 1.01.93-1.88 40.1-81.33.88-1.78-1.77-.89-57.99-29.18z" class="st16"/></g><path id="line482" d="m173.52 443.852 56.93 29.94" class="st9"/><path id="line483" d="m174.44 515.902 27.79-56.95" class="st9"/><path id="polygon483" d="m929.01 815.63 33.34-50.89 19.62-8.45 22.67-44.46-55.67 23.69-40.43 83.44z" class="st9" transform="translate(-686.52 -284.618)"/><path id="path483" d="M241.68 494.172c1.49 0 17.34 10.39 17.34 10.39" class="st9"/><path id="line484" d="m262.45 450.902 13.38 28.38" class="st9"/></svg>