<svg xmlns="http://www.w3.org/2000/svg" xmlns:xlink="http://www.w3.org/1999/xlink" id="_Слой_1" width="799.55" height="543.89" data-name="Слой_1" viewBox="0 0 799.55 543.89"><defs id="defs12"><linearGradient id="_Безымянный_градиент_54" x1="904.93" x2="662.9" y1="650.51" y2="481.04" data-name="Безымянный градиент 54" gradientUnits="userSpaceOnUse"><stop id="stop1" offset="0" stop-color="#336cca" stop-opacity=".05"/><stop id="stop2" offset=".1" stop-color="#3970cb" stop-opacity=".1"/><stop id="stop3" offset=".27" stop-color="#4c7ed0" stop-opacity=".24"/><stop id="stop4" offset=".51" stop-color="#6993d7" stop-opacity=".46"/><stop id="stop5" offset=".8" stop-color="#92b1e2" stop-opacity=".76"/><stop id="stop6" offset="1" stop-color="#b2c8ea"/></linearGradient><linearGradient id="_Безымянный_градиент_46" x1="1061.15" x2="819.12" y1="559.39" y2="389.93" data-name="Безымянный градиент 46" gradientUnits="userSpaceOnUse"><stop id="stop7" offset="0" stop-color="#336cca" stop-opacity=".05"/><stop id="stop8" offset=".1" stop-color="#3970cb" stop-opacity=".1"/><stop id="stop9" offset=".27" stop-color="#4c7ed0" stop-opacity=".24"/><stop id="stop10" offset=".51" stop-color="#6993d7" stop-opacity=".46"/><stop id="stop11" offset=".8" stop-color="#92b1e2" stop-opacity=".76"/><stop id="stop12" offset="1" stop-color="#b2c8ea"/></linearGradient><linearGradient xlink:href="#_%D0%91%D0%B5%D0%B7%D1%8B%D0%BC%D1%8F%D0%BD%D0%BD%D1%8B%D0%B9_%D0%B3%D1%80%D0%B0%D0%B4%D0%B8%D0%B5%D0%BD%D1%82_46" id="_Безымянный_градиент_461" x1="1061.07" x2="819.05" y1="559.63" y2="390.16" data-name="Безымянный градиент 46"/><linearGradient xlink:href="#_%D0%91%D0%B5%D0%B7%D1%8B%D0%BC%D1%8F%D0%BD%D0%BD%D1%8B%D0%B9_%D0%B3%D1%80%D0%B0%D0%B4%D0%B8%D0%B5%D0%BD%D1%82_46" id="_Безымянный_градиент_462" x1="904.85" x2="662.83" y1="650.74" y2="481.27" data-name="Безымянный градиент 46"/><linearGradient xlink:href="#_%D0%91%D0%B5%D0%B7%D1%8B%D0%BC%D1%8F%D0%BD%D0%BD%D1%8B%D0%B9_%D0%B3%D1%80%D0%B0%D0%B4%D0%B8%D0%B5%D0%BD%D1%82_46" id="linearGradient87" x1="1061.15" x2="819.12" y1="559.39" y2="389.93" gradientUnits="userSpaceOnUse"/><style id="style1">.st0{fill:#2b4284}.st7{fill:#f1e27f}.st10{fill:#92cde9}.st12{fill:#4564ad}.st16{fill:#86c1ea}.st20{fill:#4b74be}.st22{fill:#ddcd5b}.st23{fill:#4460b1}.st26{fill:#65a2da}.st28{fill:#1b2756}</style></defs><path id="polygon33" d="M883.67 676.44 645.89 505.33l32.44-42.66 245.78 160.44z" style="fill:url(#_%D0%91%D0%B5%D0%B7%D1%8B%D0%BC%D1%8F%D0%BD%D0%BD%D1%8B%D0%B9_%D0%B3%D1%80%D0%B0%D0%B4%D0%B8%D0%B5%D0%BD%D1%82_54)" transform="translate(-280.78 -132.79)"/><ellipse id="ellipse33" cx="-43.792" cy="510.385" class="st7" rx="32.84" ry="20.05" transform="rotate(-52.16)"/><path id="polygon34" d="M1039.89 585.33 802.11 414.22l32.45-42.66L1080.33 532z" style="fill:url(#linearGradient87)" transform="translate(-280.78 -132.79)"/><ellipse id="ellipse34" cx="123.999" cy="577.864" class="st7" rx="32.84" ry="20.05" transform="rotate(-52.16)"/><g id="g87" transform="translate(-280.78 -132.79)"><path id="polygon35" d="m280.78 191.45 12.44-5.66.78 18.11z" class="st7"/><path id="polygon36" d="m305.34 176.23 70.88 53.11 29.78 54 46.22 42.67-13.11 8.72-64.22-61.61-50-34.89-33.33-34.33-1.78-19.54 10.22-9.02z" class="st0"/><path id="polygon37" d="m452.22 307.4-107.57-86.34 7.13-24.66 30.5-27.34 119.83 71.67-17 54.17z" style="fill:#5183c6"/><path id="path37" d="M303.61 179.06v-5L326 159.12l22.61-7.5 35.5 15.78s2 2 1.5 2.17-34.83 45-34.83 45l-47.17-35.5z" style="fill:#5c96d2"/><path id="polygon38" d="m457.78 308.15-15.33 19.19-72.45-64-5.78-10.89 4.51-12.06z" style="fill:#4162ae"/><path id="polygon39" d="m326 159.12 19.34-12.22 33.77 1.66 131.11 73.23-13.27 22.22-142.73-89.11z" class="st16"/><path id="path39" d="M345.34 146.9s7.71-5.43 19.78-9.11c34.77-3.11 61.75-4.26 82.67-3.11 27.86 1.53 38.92 4.21 45.56 6.11 19.18 5.49 32.58 13.34 54.44 26.33 11.53 6.85 26.95 16.66 44.44 29.78 8.89 1.04 9 .63 17.89 1.67 35.26 24.15 79.3 49.74 114.56 73.89-2.89 7.96-5.78 15.93-8.67 23.89-39.33-20.04-78.67-40.07-118-60.11-31.63.07-63.26.15-94.89.22-14-8.81-28-17.63-42-26.44.67-2.3 1.33-4.59 2-6.89-26.59-14.07-79.78-42.22-79.78-42.22l-38-14z" style="fill:#a4d6f2"/><path id="polygon40" d="m493.56 210.01-66.22-34.45L390 161.12l37.78-23.33h33.33l42 10.77L568 190.68l-56.66 32.22z" class="st28"/><path id="polygon41" d="m439.95 175.51 20.66 2.22 46.29-26.65-3.79-2.52-37.55 17.45-8.22 3.11-7.39-4.06 6.5-5.16 7.66 2.58 33.03-15.45-15.69-4.03-54.17 26.51z" class="st0"/><path id="polygon42" d="m452.22 188.23 6.67-10.67 44.22-29 59.78 38.34-55.33 33.26-5.6-4.37z" class="st22"/><path id="polygon43" d="m448 132.79 22.03 7.27-52.92 30.39-16.89-8.66 17.89-13.23z" class="st22"/><path id="polygon44" d="m460.61 177.73 44.06-28.17 37.02 24.58-44.74 24.42z" class="st7"/><path id="polygon45" d="M391.34 161.79h10.33l63.55 32.89 39.45 22.66-4.33 8.34z" class="st23"/><path id="polygon46" d="M480.11 282.9v-4.34l7.45-7.33 136 66.59 15.89 10.86-12.61 15.21-20.65-12.55z" class="st16"/><path id="polygon47" d="m497.78 226.9 120.17 78 26 27.66-42.33-24.41-104.67-59.92z" style="fill:#6099d5"/><path id="polygon48" d="M615.07 305.23 497.78 226.9l3-9.56 60.67-30.11-58.34-38.67 61.67 37.23 146.68 88.43 23.65 23.01 4.89 49.18-57.48 25.38z" class="st16"/><path id="path48" d="m661.5 334.28 51.02-27.39s-6.57-20.89-9.85-31.33c-16.15-10.81-32.3-21.63-48.44-32.44-1.81-1.28-5.07-3.21-9.56-3.94-7.54-1.23-13.42 1.75-15.33 2.83-7.71 3.56-15.43 7.11-23.14 10.67-1.33.9-7.65 5.38-9.52 14.11-1.88 8.73 2.05 15.42 2.89 16.78 2.95 3.68 6.3 7.49 10.1 11.33 9.69 9.78 17.77 16.92 26.34 22.09 6.22 3.47 25.5 17.3 25.5 17.3z" style="fill:#548bcb"/><path id="polygon49" d="m648.86 333.56-47.24-25.41 25.27 29.67 4.39 9.91 50.33 36.06 2.21-4.89-3.77-11.86z" style="fill:#578bcd"/><path id="polygon50" d="m800.45 210.23 89.77 56.56-175 13-12.11-17.89-93-63.34z" class="st10"/><path id="polygon51" d="m681.61 366.34 9.95 25.56 50-22.5 1.86-3.06-1.86-31.61z" style="fill:#619ad8"/><path id="polygon52" d="m681.61 366.34-1.56.7 2.47 9.64-51.24-28.95-10.72 7.83 12.71 35.17 60.01 2.7z" class="st26"/><path id="path52" d="M610.11 358.45c1.52-3.09 4.87-6.32 10.44-2.89 3.13 5.17 18.3 25.63 42.56 32.22 11.45 3.11 21.45 2.32 27.78 1.24 17-8.89 34-17.79 51-26.68 2.85 7.46 5.7 14.93 8.56 22.39-16.44 8.72-32.89 17.44-49.33 26.17-14.41-.67-28.81-1.33-43.22-2-3.54.67-7.08 1.33-10.62 2-4.67-2.99-9.34-5.98-14.01-8.96l-19.65-11.7c1.17-6.78 2.33-13.56 3.5-20.33-6.22-2.25-8.53-8.33-7-11.44z" class="st20"/><path id="polygon53" d="m374.89 465.58 79.56-172.35 14.83-8.5 104.06 54.39L588 374.23l-124 148-37.11-8.04z" class="st10"/><path id="polygon54" d="m584.34 379.56 3.66-4.33 6.11-32 1.19-1.16 25.26 13.49.66 33.79 24.59 17.1-2.36 6z" class="st0"/><path id="polygon55" d="m471.11 573.12-94.22-63.71-2-43.83 86.22 55.1z" style="fill:#2e4691"/><path id="polygon56" d="m471.11 573.12-9.03-6.11-11.12-52.82 10.15 6.49z" class="st12"/><path id="polygon57" d="m585.56 382.23-51.11 62.75-11.78 24.81 2.07 6.89-8.07-4.45-45.56 50.67 7.11 46.89-7.11 3.33-10-52.44 87.56-109.78 33.55-39.11-27.77-16.23 14.89-15.14-100.06-55.69 10.83-6.17 117.89 65-3.11 30.89 15.22 6.89-24-1.78z" class="st28"/><path id="path57" d="M544.89 488.9c32.66 18.67 45.28 20.58 70.53 32.44.42.2 5.55 2.69 12.86 4.17 6.13 1.24 12 2.42 13.33.44 1.41-2.09-1.86-8.25-19.33-24.72 3.78-30.25 14.52-43.15 24.17-49.24 15.73-9.91 36.36-6.61 37.33-12.43.8-4.77-12.23-10.55-15.67-12.1-18.03-8.11-44.6-22.07-82-47.9-27.57 25.56-43.32 43.61-53.5 58.06-1.96 2.78-7.99 11.42-11 20.61-1.99 6.07-2.25 11.46-2.17 15a462 462 0 0 0 25.44 15.67z" style="fill:#272c7c"/><path id="polygon58" d="m784.92 360.01-32.47-18.22-25.11-38.89 9.11-8.45 5.11-2.22 89.78 42.22v4.45l-25.23 6z" class="st12"/><path id="path58" d="M737.78 346.41 736 335.56l-8.67-32.67 36.44 36.22 23.72 19.33-10.83 23.78h-17.33s-12.67-7.78-12.67-8.89-6.67-14.89-6.67-14.89l-2.22-12.04z" class="st20"/><path id="path59" d="M835.56 338.45c-3.06-.5-27.22-4.07-46.07 13.33-13.94 12.87-16.31 29.21-16.82 33.78h12.25l31.52-32c13.32 2.2 22.93-.67 24.22-5.33 1.08-3.89-3.76-8.51-5.11-9.78z" class="st26"/><path id="polygon59" d="m766.67 418.79 10 14 10.83 3.64-8.61-31.09 3.78-24.55-8.65-4.11-7.35 11z" class="st12"/><path id="path60" d="M745.11 287.56c1.33.22 90.89 47.78 90.89 47.78l6.46 11.07-12.69-9.96-88.22-44.22z" class="st0"/><ellipse id="ellipse60" cx="811.46" cy="389.02" class="st28" rx="53.29" ry="30.38" transform="rotate(-60 811.465 389.021)"/><path id="polygon60" d="M1039.81 585.57 802.03 414.46l32.45-42.67 245.78 160.44z" style="fill:url(#_%D0%91%D0%B5%D0%B7%D1%8B%D0%BC%D1%8F%D0%BD%D0%BD%D1%8B%D0%B9_%D0%B3%D1%80%D0%B0%D0%B4%D0%B8%D0%B5%D0%BD%D1%82_461)"/><g id="g62"><path id="path61" d="M792 385.57c-6.19 12.11-6.13 24.44.97 29.96 3.47 2.7 8.11 3.35 13.13 2.28-3.83-.03-7.3-1.08-10.13-3.28-7.14-5.54-8.27-16.89-3.97-28.96" class="st22"/><path id="path62" d="M828.96 401.9c11.12-14.32 13.05-31.44 4.31-38.23s-24.85-.69-35.98 13.63a52 52 0 0 0-5.28 8.27c-4.29 12.07-3.16 23.42 3.97 28.96 2.83 2.19 6.3 3.24 10.13 3.28 7.62-1.63 16.14-7.27 22.85-15.91" class="st7"/></g><path id="path63" d="M553.45 432.79c.37-2.56 1.96-11.67 15.22-28.12 4.58-5.68 10.11-13.14 19.33-20.89 23.39 13.18 47.97 26.35 71.36 39.53-13.37 8.43-28.1 20.12-41.42 36.33-2.45 2.99-5.73 5.97-7.83 8.92-19.22-7.97-37.44-15.94-56.67-23.92-.4-2.8-.72-6.96 0-11.86z" class="st20"/><path id="path64" d="M645.81 406.45c17.84.81 35.68 1.63 53.52 2.44l48.89-26.22-8.22-24.22 15.56 19.78 4.67-17.34 1.78 10.9 12.01 4.89a77.7 77.7 0 0 0-4.01 25.26c.11 13.81 3.9 24.59 6.67 30.86-5.48-3.08-10.96-6.15-16.44-9.23-2.81 4.37-6.96 9.69-9.78 14.06-.88.48-.45 0-1.37.44-10.47 5.07-28.23 10.25-54.86 4.17-3.53-3.15-7.06-6.29-10.59-9.44-13.89-7.58-27.78-15.15-41.67-22.73 1.29-1.2 2.58-2.41 3.87-3.61z" class="st28"/><path id="path65" d="M610.11 468.56c4.06 1.94 8.11 3.89 12.17 5.83 17.33-14.11 34.67-28.22 52-42.33-5.46-3.17-10.92-6.33-16.38-9.5a87.6 87.6 0 0 0-27.45 17.33 87.2 87.2 0 0 0-20.33 28.67z" class="st26"/><path id="path66" d="M646.08 525.21c-.92 2.73-10.57 1.69-11.89 1.55-6.22-.67-14.04-1.51-20.3-7.4-6.89-6.48-7.73-15.14-8.44-22.38-1.19-12.21 2.12-22.36 4.82-28.41 4.35 1.94 8.41 3.83 12.57 6.03.96 8.02 1.84 16.72 2.8 24.73 6.39 7.65 12.78 15.3 19.18 22.95.8.87 1.58 2 1.26 2.93" class="st12"/><path id="polygon66" d="m590.21 382.38 51.74 27.68 46.5 24.84 8.07 10.72-12.74-6.06L588 383.79z" class="st12"/><path id="polygon67" d="M718.28 455.73 695.45 452l-1.47 13.58-7.53-25.02 15.66 1.17-24.83-26h25.67l47.5-26.38v48.27z" class="st0"/><ellipse id="ellipse67" cx="654.81" cy="479.93" class="st28" rx="52.06" ry="32.6" transform="rotate(-56.98 654.794 479.923)"/><path id="polygon68" d="m542.89 361.69-27.78 49.21-68.44-38.67 27.11-50.44z" class="st23"/><path id="polygon69" d="m485.78 457.34 25.11-41.11-66.67-36.67-21.22 43z" class="st23"/><path id="polygon70" d="m455.56 502.45 25.89-39.55-60.56-35.44-19.33 41.1z" class="st23"/><path id="polygon71" d="m707.36 380.31-13.91 9.04 4.5 17.2-7.5-17.2z" class="st12"/><path id="polygon72" d="m888.89 281.56 10.67 53.17-77.34-46.05z" style="fill:#0f1b3f"/><path id="path72" d="M715.22 279.79s1.76 3.1 10.89 20.78c.66 1.27 1.2 2.34 1.58 3.08 3.94-2.1 8.57-4.21 13.86-6 11.31-3.83 21.5-4.84 29.14-4.92 39.29-3.17 78.57-6.33 117.86-9.5 3.67 17.41 7.33 34.81 11 52.22 1.11-.78 2.22-1.56 3.33-2.33-4.22-22.11-12.67-66.33-12.67-66.33l-175 13z" style="fill:#192450"/><path id="polygon73" d="m858.45 256.23-54.14 3.11-54.14-40.11 51.86 1.22z" class="st23"/><path id="polygon74" d="m798.89 259.34-52.89 2-57.55-44 53.11 1.89z" class="st23"/><path id="polygon75" d="m740 261.34-37.11 2-63.44-47.55 39.44 1.55z" class="st23"/><path id="polygon76" d="m617.78 271.23 69.17 12.67 2.77.83-34.11 26.33h-9.8l-35.7-23.5-1.22-2.83z" class="st20"/><path id="polygon77" d="m608.89 284.73-.89-14.72 20.89-8.67 39.33 6.45 6.06-1 15.44 11.77v6.17l-34.61 23.42h-6.66z" class="st22"/><path id="polygon78" d="m677.28 268.9-35.33 20.22L608 270.01l7.07-9.83L644 248.23z" class="st7"/><path id="path78" d="M487.56 271.23s.89-4.33 1.11-4.44 8.28-22.78 8.28-22.78l109.25 67.06 34.48 37.61-9.39-.94-143.72-76.5z" style="fill:#4a7cc1"/><path id="polygon79" d="M883.59 676.68 645.81 505.57l32.45-42.67 245.77 160.45z" style="fill:url(#_%D0%91%D0%B5%D0%B7%D1%8B%D0%BC%D1%8F%D0%BD%D0%BD%D1%8B%D0%B9_%D0%B3%D1%80%D0%B0%D0%B4%D0%B8%D0%B5%D0%BD%D1%82_462)"/><g id="g80"><path id="path79" d="M635.78 476.68c-6.19 12.11-6.13 24.44.97 29.96 3.47 2.7 8.11 3.35 13.13 2.28-3.83-.03-7.3-1.08-10.13-3.28-7.14-5.54-8.27-16.89-3.97-28.96" class="st22"/><path id="path80" d="M672.73 493c11.12-14.32 13.05-31.44 4.31-38.23s-24.85-.69-35.98 13.63a52 52 0 0 0-5.28 8.27c-4.29 12.07-3.16 23.42 3.97 28.96 2.83 2.19 6.3 3.24 10.13 3.28 7.62-1.63 16.14-7.27 22.85-15.91" class="st7"/></g><path id="polygon80" d="m460 137.79-41.78 24-10.67-5.42 11.57-8.34L448 132.79l13.08 4.32z" class="st7"/><path id="path81" d="m293.66 186.94-1.56-1.27 10.44-9.03 1.07 1.09 6.71 5.18s47.83 32.37 49.6 33.68c.72.53 16.83 13.72 16.83 13.72l-4.44 25.38-41.33-28.44-16.22-16.44-17.33-14.5-3.78-9.37z" class="st0"/><path id="polygon81" d="m291.93 182.46 3.18 8.6 35.82 34.79-4.71-2.51-33.33-29.67-2.8-9.58z" class="st28"/><path id="polygon82" d="m372.98 265.97-.66-10.28-49.65-35.53 1.11 12.52z" style="fill:#497bc7"/><path id="polygon83" d="m327.07 215.16 8.47-14.89-16.28-11.22 12.52 11.76z" class="st28"/><ellipse id="ellipse83" cx="343.36" cy="219.43" class="st28" rx="7.17" ry="9.66"/><ellipse id="ellipse84" cx="343.63" cy="219.27" class="st7" rx="5.66" ry="8.26" transform="rotate(-2.41 343.31 219.112)"/><path id="path84" d="M339.51 218.68c-.03-.7.01-1.37.1-2.02-.44 1.04-.67 2.29-.62 3.62.15 3.5 2.21 6.25 4.61 6.15q.465-.015.9-.18c-2.65-.41-4.82-3.6-4.99-7.58z" class="st22"/><path id="path85" d="M368.6 231.32c1.15 5.53-.88 10.79-4.53 11.76-3.66.96-7.56-2.74-8.71-8.27s.88-10.79 4.53-11.76 7.56 2.74 8.71 8.27" class="st28"/><path id="path86" d="M367.36 231.21c1.16 4.68-.21 9.2-3.07 10.09s-6.12-2.17-7.28-6.85.21-9.2 3.07-10.09 6.12 2.17 7.28 6.85" class="st7"/><path id="path87" d="M358.25 233.22c-.18-.71-.29-1.42-.34-2.11-.18 1.19-.13 2.54.21 3.9.89 3.59 3.39 5.95 5.59 5.26.28-.09.55-.23.79-.4-2.54.22-5.23-2.56-6.25-6.65" class="st22"/></g></svg>