<svg clip-rule="evenodd" fill-rule="evenodd" viewBox="0 0 4255 1897" xmlns="http://www.w3.org/2000/svg" xmlns:xlink="http://www.w3.org/1999/xlink"><clipPath id="a"><path clip-rule="evenodd" d="m0 0h200v200h-200z"/></clipPath><clipPath id="b"><path clip-rule="evenodd" d="m0 0h256v279h-256z"/></clipPath><clipPath id="c"><path clip-rule="evenodd" d="m0 0h512v512h-512z"/></clipPath><g transform="scale(.83098 .592634)"><path d="m0 0h5120v3200h-5120z" fill="none"/><g fill="#3273dc"><g fill-rule="nonzero" transform="matrix(3.50367 0 0 4.91278 172.4089925 80.29925)"><path d="m40.2 101.1c-.4 0-.5-.2-.3-.5l2.1-2.7c.2-.3.7-.5 1.1-.5h35.7c.4 0 .5.3.3.6l-1.7 2.6c-.2.3-.7.6-1 .6z"/><path d="m25.1 110.3c-.4 0-.5-.2-.3-.5l2.1-2.7c.2-.3.7-.5 1.1-.5h45.6c.4 0 .6.3.5.6l-.8 2.4c-.1.4-.5.6-.9.6z"/><path d="m49.3 119.5c-.4 0-.5-.3-.3-.6l1.4-2.5c.2-.3.6-.6 1-.6h20c.4 0 .6.3.6.7l-.2 2.4c0 .4-.4.7-.7.7z"/><path d="m153.1 99.3c-6.3 1.6-10.6 2.8-16.8 4.4-1.5.4-1.6.5-2.9-1-1.5-1.7-2.6-2.8-4.7-3.8-6.3-3.1-12.4-2.2-18.1 1.5-6.8 4.4-10.3 10.9-10.2 19 .1 8 5.6 14.6 13.5 15.7 6.8.9 12.5-1.5 17-6.6.9-1.1 1.7-2.3 2.7-3.7h-19.3c-2.1 0-2.6-1.3-1.9-3 1.3-3.1 3.7-8.3 5.1-10.9.3-.6 1-1.6 2.5-1.6h36.4c-.2 2.7-.2 5.4-.6 8.1-1.1 7.2-3.8 13.8-8.2 19.6-7.2 9.5-16.6 15.4-28.5 17-9.8 1.3-18.9-.6-26.9-6.6-7.4-5.6-11.6-13-12.7-22.2-1.3-10.9 1.9-20.7 8.5-29.3 7.1-9.3 16.5-15.2 28-17.3 9.4-1.7 18.4-.6 26.5 4.9 5.3 3.5 9.1 8.3 11.6 14.1.6.9.2 1.4-1 1.7z"/><path d="m186.2 154.6c-9.1-.2-17.4-2.8-24.4-8.8-5.9-5.1-9.6-11.6-10.8-19.3-1.8-11.3 1.3-21.3 8.1-30.2 7.3-9.6 16.1-14.6 28-16.7 10.2-1.8 19.8-.8 28.5 5.1 7.9 5.4 12.8 12.7 14.1 22.3 1.7 13.5-2.2 24.5-11.5 33.9-6.6 6.7-14.7 10.9-24 12.8-2.7.5-5.4.6-8 .9zm23.8-40.4c-.1-1.3-.1-2.3-.3-3.3-1.8-9.9-10.9-15.5-20.4-13.3-9.3 2.1-15.3 8-17.5 17.4-1.8 7.8 2 15.7 9.2 18.9 5.5 2.4 11 2.1 16.3-.6 7.9-4.1 12.2-10.5 12.7-19.1z"/></g><g fill-rule="nonzero" transform="matrix(1.34368 0 0 1.88408 729.998 1221.094)"><path d="m122-.4h16.6v320.3h-16.6z" transform="matrix(-.866 -.5 .5 -.866 163.32 363.314)"/><path d="m39.8 272.2h320.3v16.6h-320.3z"/><path d="m37.9 312.2h185v16.6h-185z" transform="matrix(-.866 -.5 .5 -.866 83.0693 663.341)"/><path d="m177.1 71.1h185v16.6h-185z" transform="matrix(-.866 -.5 .5 -.866 463.341 283.069)"/><path d="m122.1-13h16.6v185h-16.6z" transform="matrix(-.5 -.866 .866 -.5 126.79 232.122)"/><path d="m109.6 151.6h320.3v16.6h-320.3z" transform="matrix(-.5 -.866 .866 -.5 266.083 473.377)"/><path d="m52.5 107.5h16.6v185h-16.6z"/><path d="m330.9 107.5h16.6v185h-16.6z"/><path d="m262.4 240.1h14.5v160.9h-14.5z" transform="matrix(-.5 -.866 .866 -.5 126.795 714.288)"/><path d="m369.5 297.9c-9.6 16.7-31 22.4-47.7 12.8s-22.4-31-12.8-47.7 31-22.4 47.7-12.8c16.8 9.7 22.5 31 12.8 47.7"/><path d="m90.9 137c-9.6 16.7-31 22.4-47.7 12.8s-22.4-31-12.8-47.7 31-22.4 47.7-12.8c16.7 9.7 22.4 31 12.8 47.7"/><path d="m30.5 297.9c-9.6-16.7-3.9-38 12.8-47.7 16.7-9.6 38-3.9 47.7 12.8 9.6 16.7 3.9 38-12.8 47.7-16.8 9.6-38.1 3.9-47.7-12.8"/><path d="m309.1 137c-9.6-16.7-3.9-38 12.8-47.7 16.7-9.6 38-3.9 47.7 12.8 9.6 16.7 3.9 38-12.8 47.7-16.7 9.6-38.1 3.9-47.7-12.8"/><path d="m200 395.8c-19.3 0-34.9-15.6-34.9-34.9s15.6-34.9 34.9-34.9 34.9 15.6 34.9 34.9c0 19.2-15.6 34.9-34.9 34.9"/><path d="m200 74c-19.3 0-34.9-15.6-34.9-34.9s15.6-34.9 34.9-34.9 34.9 15.6 34.9 34.9-15.6 34.9-34.9 34.9"/></g><g transform="matrix(9.5817354473 0 0 13.4352985711 1582.282031772 242.0334881251)"><path d="m18.2 10.72 16.4 9.48v18.93l-16.4-9.47z"/><path d="m36.4 20.2v18.93l16.4-9.46v-18.95z"/><path d="m0 .15v18.94l16.4 9.47v-18.94z"/><path d="m18.2 50.68 16.4 9.47v-18.81-.13l-16.4-9.47z"/></g><path d="m275.801 220.568c-14.867 0-28.195 6.587-37.323 16.957l-23.388-16.557c2.483-6.836 3.908-14.176 3.908-21.858 0-7.549-1.376-14.766-3.777-21.501l23.336-16.382c9.127 10.318 22.42 16.869 37.244 16.869 27.441 0 49.77-22.325 49.77-49.769 0-27.445-22.329-49.77-49.77-49.77-27.44 0-49.769 22.325-49.769 49.77 0 4.912.743 9.649 2.074 14.135l-23.351 16.39c-9.755-12.102-23.8-20.551-39.802-23.13v-28.144c22.544-4.735 39.53-24.765 39.53-48.699 0-27.445-22.328-49.769-49.769-49.769s-49.769 22.324-49.769 49.769c0 23.613 16.546 43.397 38.639 48.47v28.509c-30.151 5.292-53.155 31.606-53.155 63.252 0 31.8 23.232 58.21 53.601 63.323v30.104c-22.319 4.905-39.085 24.81-39.085 48.584 0 27.445 22.328 49.769 49.769 49.769s49.769-22.324 49.769-49.769c0-23.774-16.766-43.679-39.085-48.584v-30.105c15.688-2.642 29.475-10.924 39.129-22.757l23.544 16.664c-1.307 4.446-2.039 9.136-2.039 13.999 0 27.444 22.329 49.769 49.769 49.769 27.441 0 49.77-22.325 49.77-49.769 0-27.445-22.329-49.77-49.77-49.77zm0-116.372c13.307 0 24.13 10.828 24.13 24.131s-10.823 24.129-24.13 24.129c-13.306 0-24.129-10.826-24.129-24.129s10.823-24.131 24.129-24.131zm-145.218-45.317c0-13.303 10.824-24.13 24.131-24.13s24.129 10.827 24.129 24.13-10.822 24.13-24.129 24.13-24.131-10.827-24.131-24.13zm48.26 282.242c0 13.303-10.822 24.13-24.129 24.13s-24.131-10.827-24.131-24.13 10.824-24.13 24.131-24.13 24.129 10.827 24.129 24.13zm-24.131-108.358c-18.559 0-33.656-15.095-33.656-33.653 0-18.559 15.097-33.657 33.656-33.657 18.558 0 33.656 15.098 33.656 33.657 0 18.558-15.098 33.653-33.656 33.653zm121.089 61.705c-13.306 0-24.129-10.827-24.129-24.13s10.823-24.13 24.129-24.13c13.307 0 24.13 10.827 24.13 24.13s-10.823 24.13-24.13 24.13z" fill-rule="nonzero" transform="matrix(1.39771 0 0 1.95984 3389.238 266.275)"/><g transform="matrix(2.76733 0 0 3.88029 256.747 2171.351)"><path d="m109.379 171.315c-.177.12-5.134-20.857-5.356-31.396-2.823 34.75-10.123 31.561-10.123 31.561 7.28 10.597 3.824 28.52 3.824 28.52h6.83s-1.24-14.861.26-21.659c.456-2.062 3.324-5.511 4.565-7.026"/><path d="m101.434 177.597s-48.846-32.43-46.34-84.873c2.497-52.449 43.253-88.644 43.559-92.724 2.716 5.835 18.118 86.998 18.411 96.497 1.11 37.013-15.631 81.1-15.631 81.1"/><path d="m142.9 78.384c-10.554-46.099-44.112-78.384-44.112-78.384v.07c12.844 53.983 2.6 176.712 2.6 176.712s52.49-34.95 41.512-98.398"/></g></g><g clip-path="url(#a)" transform="matrix(2.4068 0 0 3.37477 3847.11 1206.583)"><path d="m99.66 200c-2.68 0-5.34-.701-7.683-2.057l-24.473-14.48c-3.652-2.044-1.87-2.767-.667-3.188 4.88-1.692 5.865-2.082 11.068-5.032.542-.304 1.26-.19 1.82.139l18.795 11.161c.686.377 1.645.377 2.275 0l73.286-42.301c.686-.39 1.122-1.176 1.122-1.984v-84.58c0-.828-.436-1.602-1.134-2.021l-73.262-42.267c-.702-.394-1.56-.394-2.262 0l-73.243 42.28c-.711.419-1.152 1.182-1.159 2.007v84.58c0 .81.449 1.576 1.153 1.96l20.079 11.6c10.893 5.446 17.568-.969 17.568-7.412v-83.51c0-1.18.947-2.113 2.125-2.113h9.298c1.159 0 2.118.933 2.118 2.113v83.51c0 14.537-7.914 22.875-21.699 22.875-4.238 0-7.572 0-16.882-4.589l-19.22-11.064c-4.748-2.743-7.683-7.875-7.683-13.37v-84.58c0-5.496 2.935-10.625 7.684-13.359l73.293-42.35c4.636-2.624 10.8-2.624 15.399 0l73.286 42.35c4.755 2.763 7.692 7.861 7.697 13.36v84.58c-.009 5.501-2.945 10.6-7.697 13.37l-73.286 42.315c-2.346 1.353-5.008 2.063-7.716 2.057zm22.641-58.273c-32.075 0-38.793-14.72-38.793-27.07 0-1.173.947-2.11 2.118-2.11h9.48c1.059 0 1.937.76 2.106 1.794 1.427 9.648 5.695 14.516 25.089 14.516 15.436 0 22.01-3.493 22.01-11.685 0-4.722-1.862-8.228-25.855-10.577-20.054-1.984-32.456-6.414-32.456-22.457 0-14.788 12.464-23.607 33.36-23.607 23.481 0 35.097 8.15 36.568 25.633.05.597-.151 1.189-.555 1.631-.405.42-.966.677-1.551.677h-9.516c-.985-.002-1.844-.694-2.057-1.656-2.28-10.15-7.833-13.396-22.89-13.396-16.857 0-18.813 5.874-18.813 10.273 0 5.331 2.312 6.884 25.07 9.895 22.522 2.978 33.222 7.194 33.222 23.025 0 15.969-13.317 25.114-36.537 25.114z" fill="#3273dc"/></g><g fill="#3273dc" transform="matrix(1.49354 0 0 2.09421 1900.102 1199.398)"><path d="m388.61 200.038c0-24.989-31.294-48.671-79.273-63.356 11.072-48.902 6.151-87.808-15.532-100.264-4.998-2.922-10.841-4.306-17.223-4.306v17.146c3.537 0 6.382.692 8.765 1.999 10.457 5.998 14.994 28.834 11.457 58.206-.846 7.227-2.23 14.839-3.922 22.605-15.07-3.69-31.524-6.535-48.824-8.381-10.38-14.224-21.145-27.142-31.986-38.444 25.066-23.298 48.594-36.062 64.587-36.062v-17.146c-21.145 0-48.825 15.07-76.813 41.213-27.988-25.989-55.668-40.905-76.812-40.905v17.146c15.916 0 39.521 12.687 64.587 35.83-10.765 11.303-21.529 24.144-31.756 38.368-17.377 1.846-33.831 4.691-48.901 8.458-1.769-7.689-3.076-15.147-3.998-22.298-3.614-29.372.845-52.208 11.225-58.282 2.307-1.384 5.306-1.999 8.843-1.999v-17.146c-6.459 0-12.303 1.384-17.377 4.305-21.606 12.456-26.45 51.286-15.301 100.033-47.826 14.763-78.966 38.368-78.966 63.28 0 24.99 31.294 48.671 79.273 63.357-11.072 48.902-6.151 87.808 15.532 100.264 4.998 2.922 10.841 4.306 17.3 4.306 21.145 0 48.825-15.07 76.813-41.213 27.987 25.989 55.667 40.905 76.812 40.905 6.459 0 12.302-1.384 17.377-4.305 21.606-12.457 26.45-51.286 15.301-100.034 47.672-14.685 78.812-38.367 78.812-63.28zm-100.11-51.285c-2.845 9.919-6.382 20.145-10.38 30.372-3.153-6.152-6.459-12.303-10.073-18.454-3.537-6.151-7.304-12.148-11.072-17.992 10.918 1.615 21.452 3.614 31.525 6.074zm-35.216 81.887c-5.997 10.38-12.148 20.222-18.53 29.372-11.457 1-23.067 1.538-34.754 1.538-11.61 0-23.221-.538-34.6-1.461-6.382-9.15-12.61-18.915-18.607-29.218-5.844-10.072-11.149-20.299-15.993-30.602 4.767-10.303 10.149-20.606 15.916-30.679 5.997-10.38 12.148-20.222 18.53-29.372 11.457-.999 23.067-1.537 34.754-1.537 11.61 0 23.221.538 34.6 1.461 6.382 9.149 12.61 18.914 18.607 29.218 5.844 10.072 11.149 20.298 15.993 30.602-4.844 10.303-10.149 20.606-15.916 30.678zm24.836-9.995c4.152 10.303 7.689 20.606 10.61 30.602-10.072 2.46-20.683 4.536-31.678 6.151 3.768-5.921 7.535-11.995 11.072-18.223 3.537-6.151 6.843-12.379 9.996-18.53zm-77.966 82.041c-7.151-7.382-14.302-15.609-21.375-24.605 6.92.308 13.993.538 21.144.538 7.228 0 14.378-.153 21.375-.538-6.92 8.996-14.07 17.223-21.144 24.605zm-57.206-45.288c-10.918-1.615-21.452-3.614-31.525-6.074 2.845-9.919 6.382-20.145 10.38-30.372 3.153 6.152 6.459 12.303 10.073 18.454s7.304 12.148 11.072 17.992zm56.821-160.007c7.151 7.381 14.302 15.609 21.376 24.605-6.92-.308-13.994-.539-21.145-.539-7.228 0-14.378.154-21.375.539 6.92-8.996 14.071-17.224 21.144-24.605zm-56.898 45.288c-3.767 5.92-7.535 11.995-11.072 18.223-3.537 6.151-6.843 12.302-9.996 18.453-4.152-10.303-7.688-20.606-10.61-30.602 10.072-2.383 20.683-4.459 31.678-6.074zm-69.585 96.265c-27.219-11.61-44.826-26.834-44.826-38.906 0-12.071 17.607-27.372 44.826-38.906 6.613-2.845 13.84-5.382 21.299-7.765 4.382 15.07 10.149 30.755 17.3 46.825-7.074 15.993-12.764 31.602-17.07 46.595-7.612-2.383-14.839-4.998-21.529-7.843zm41.367 109.875c-10.457-5.997-14.994-28.833-11.457-58.205.846-7.227 2.23-14.839 3.922-22.605 15.07 3.69 31.524 6.535 48.824 8.381 10.38 14.224 21.145 27.142 31.986 38.444-25.066 23.298-48.594 36.061-64.587 36.061-3.46-.076-6.382-.768-8.688-2.076zm182.381-58.589c3.614 29.371-.845 52.208-11.225 58.282-2.307 1.384-5.306 1.999-8.843 1.999-15.916 0-39.521-12.687-64.587-35.83 10.765-11.303 21.529-24.144 31.756-38.368 17.377-1.846 33.831-4.691 48.901-8.458 1.769 7.766 3.153 15.224 3.998 22.375zm29.603-51.286c-6.613 2.845-13.84 5.383-21.299 7.766-4.382-15.07-10.149-30.755-17.3-46.825 7.074-15.993 12.764-31.602 17.07-46.595 7.612 2.383 14.839 4.997 21.606 7.842 27.219 11.611 44.826 26.835 44.826 38.906-.077 12.072-17.684 27.373-44.903 38.906z" fill-rule="nonzero"/><circle cx="199.923" cy="200.038" r="35.138"/></g><g fill="#3273dc" fill-rule="nonzero" transform="matrix(2.4068 0 0 3.37477 2815.736 1294.1176)"><path d="m0 210h160l-100 30z"/><path d="m0 200 60-10v-110z"/><path d="m70 190 90 10-90-200z"/></g><g transform="matrix(11.9445 0 0 16.7483 3853.06775 330.9485)"><path d="m70.309 37.359c.803-.563 2.638.672 4.099 2.757 1.46 2.086 1.992 4.232 1.189 4.795-.804.563-2.639-.672-4.099-2.758-1.46-2.085-1.993-4.232-1.189-4.794zm-19.221 0c-.803-.563-2.638.672-4.099 2.757-1.46 2.086-1.993 4.232-1.189 4.795.803.563 2.638-.672 4.099-2.758 1.46-2.085 1.993-4.232 1.189-4.794zm9.601 3.265c-.981 0-1.776 2.064-1.776 4.61s.795 4.61 1.776 4.61 1.776-2.064 1.776-4.61-.795-4.61-1.776-4.61z" fill="#3273dc"/><path d="m70.309 12.641c.803.563 2.638-.672 4.099-2.757 1.46-2.086 1.992-4.232 1.189-4.795-.804-.563-2.639.672-4.099 2.758-1.46 2.085-1.993 4.232-1.189 4.794zm-19.221 0c-.803.563-2.638-.672-4.099-2.757-1.46-2.086-1.993-4.232-1.189-4.795.803-.563 2.638.672 4.099 2.758 1.46 2.085 1.993 4.232 1.189 4.794zm9.601-3.265c-.981 0-1.776-2.064-1.776-4.61s.795-4.61 1.776-4.61 1.776 2.064 1.776 4.61-.795 4.61-1.776 4.61z" fill="#3273dc"/><path d="m74.391 16.732c-2.864-4.716-8.055-7.867-13.982-7.867-5.765 0-10.833 2.981-13.741 7.483m.311 18.123c2.951 4.241 7.866 7.018 13.43 7.018 5.575 0 10.498-2.787 13.446-7.041" fill="none" stroke="#3273dc" stroke-width="2.84"/><path d="m36.734 18.927h3.421v4.813h3.859v-4.813h3.421v12.929h-3.421v-5.132h-3.859v5.132h-3.421zm13.566 0h8.354v2.864h-4.933v2.029h4.217v2.864h-4.217v2.307h5.132v2.865h-8.553zm11.059 0h3.421v10.064h4.894v2.865h-8.315zm10.542 0h3.541l2.029 5.37.716 2.109h.08l.716-2.109 1.949-5.37h3.541v12.929h-3.183v-3.819c0-.332.017-.696.05-1.094s.069-.806.109-1.224c.04-.417.086-.825.139-1.223s.1-.756.14-1.074h-.08l-1.074 3.023-1.79 4.357h-1.273l-1.79-4.357-1.035-3.023h-.079c.039.318.086.676.139 1.074s.099.806.139 1.223c.04.418.076.826.109 1.224.034.397.05.762.05 1.094v3.819h-3.143z" fill="#3273dc"/></g><path d="m56.667.667c-31.295 0-56.667 25.369-56.667 56.665 0 31.295 25.372 56.666 56.667 56.666s56.666-25.371 56.666-56.666c0-31.296-25.372-56.665-56.666-56.665zm0 106.055c-8.904 0-16.123-5.948-16.123-13.283h32.246c0 7.334-7.219 13.283-16.123 13.283zm26.63-17.682h-53.263v-9.658h53.264v9.658zm-.191-14.629h-52.92c-.176-.203-.356-.403-.526-.609-5.452-6.62-6.736-10.076-7.983-13.598-.021-.116 6.611 1.355 11.314 2.413 0 0 2.42.56 5.958 1.205-3.397-3.982-5.414-9.044-5.414-14.218 0-11.359 8.712-21.285 5.569-29.308 3.059.249 6.331 6.456 6.552 16.161 3.252-4.494 4.613-12.701 4.613-17.733 0-5.21 3.433-11.262 6.867-11.469-3.061 5.045.793 9.37 4.219 20.099 1.285 4.03 1.121 10.812 2.113 15.113.329-8.933 1.865-21.967 7.532-26.467-2.5 5.667.37 12.758 2.333 16.167 3.167 5.5 5.087 9.667 5.087 17.548 0 5.284-1.951 10.259-5.242 14.148 3.742-.702 6.326-1.335 6.326-1.335l12.152-2.371c.001-.001-1.765 7.261-8.55 14.254z" fill="#3273dc" fill-rule="nonzero" transform="matrix(3.87731 0 0 5.43669 2582.199102885 431.57467)"/><g clip-path="url(#b)" transform="matrix(1.78104 0 0 2.49735 4442.28688 2128.289675)"><path d="m255.59 122.775c-.46-4.675-1.226-10.039-2.759-16.017-1.533-5.901-3.832-12.416-7.204-19.16s-7.74-13.718-13.412-20.539c-2.222-2.682-4.675-5.288-7.28-7.817 3.908-15.558-4.752-29.046-4.752-29.046-14.945-.92-24.448 4.675-27.973 7.204-.613-.23-1.15-.537-1.763-.767-2.529-.996-5.135-1.992-7.894-2.835-2.682-.843-5.441-1.61-8.277-2.299-2.835-.69-5.671-1.227-8.583-1.687-.537-.076-.996-.153-1.533-.229-6.514-20.846-25.214-29.583-25.214-29.583-20.922 13.258-24.831 31.805-24.831 31.805s-.077.383-.23 1.073c-1.149.307-2.299.69-3.449.996-1.609.46-3.218 1.073-4.751 1.686-1.61.613-3.142 1.227-4.752 1.916-3.142 1.38-6.284 2.913-9.35 4.599-2.989 1.686-5.901 3.525-8.737 5.441-.383-.153-.766-.307-.766-.307-28.969-11.036-54.643 2.223-54.643 2.223-2.376 30.809 11.572 50.198 14.331 53.724-.69 1.916-1.303 3.832-1.916 5.748-2.146 6.974-3.755 14.101-4.751 21.535-.154 1.073-.307 2.146-.384 3.219-26.823 13.258-34.717 40.312-34.717 40.312 22.302 25.674 48.359 27.283 48.359 27.283l.077-.076c3.295 5.901 7.127 11.495 11.419 16.783 1.839 2.223 3.678 4.292 5.671 6.362-8.124 23.298 1.15 42.611 1.15 42.611 24.831.919 41.155-10.883 44.603-13.565 2.453.843 4.982 1.609 7.511 2.222 7.664 1.993 15.481 3.142 23.298 3.449 1.916.076 3.909.153 5.825.076h2.759l1.226-.076v.076c11.726 16.708 32.265 19.084 32.265 19.084 14.638-15.405 15.481-30.733 15.481-34.028v-.23-.46-.69c3.065-2.145 5.978-4.445 8.737-6.974 5.824-5.288 10.959-11.342 15.251-17.857.383-.613.766-1.226 1.149-1.839 16.554.92 28.28-10.269 28.28-10.269-2.759-17.244-12.569-25.674-14.638-27.284 0 0-.077-.076-.23-.153s-.153-.153-.153-.153c-.077-.077-.23-.154-.383-.23.076-1.073.153-2.07.23-3.142.153-1.84.153-3.756.153-5.595v-1.38-.689-.384-.459l-.077-1.15-.076-1.533c0-.536-.077-.996-.154-1.456-.076-.46-.076-.996-.153-1.456l-.153-1.456-.23-1.456c-.307-1.916-.613-3.756-1.073-5.672-1.763-7.433-4.675-14.484-8.43-20.845-3.832-6.361-8.584-11.956-14.025-16.707-5.365-4.752-11.419-8.584-17.704-11.42-6.361-2.835-12.952-4.675-19.543-5.518-3.295-.459-6.591-.613-9.886-.536h-1.226-.307c-.076 0-.46 0-.383 0h-.537l-1.226.077c-.46 0-.919.076-1.303.076-1.686.153-3.372.383-4.981.69-6.591 1.226-12.799 3.602-18.24 6.897-5.441 3.296-10.193 7.358-14.025 11.956s-6.821 9.733-8.89 15.021-3.219 10.806-3.525 16.094c-.077 1.303-.077 2.683-.077 3.986v.996l.077 1.073c.076.613.076 1.303.153 1.916.23 2.682.766 5.288 1.456 7.74 1.456 4.982 3.755 9.503 6.591 13.335 2.835 3.832 6.284 6.975 9.886 9.504 3.602 2.452 7.511 4.215 11.343 5.364 3.832 1.15 7.664 1.61 11.266 1.61h1.992c.23 0 .46 0 .69-.077.383 0 .766-.077 1.15-.077.076 0 .23 0 .306-.076l.383-.077c.23 0 .46-.076.69-.076.46-.077.843-.154 1.303-.23.46-.077.843-.154 1.226-.307.843-.153 1.61-.46 2.376-.69 1.533-.536 3.066-1.149 4.368-1.839 1.38-.69 2.606-1.533 3.832-2.299.307-.23.69-.46.997-.767 1.226-.996 1.456-2.835.459-4.061-.843-1.073-2.375-1.38-3.602-.69-.306.153-.613.306-.919.46-1.073.536-2.146.996-3.296 1.379-1.149.383-2.375.69-3.602.92-.613.076-1.226.153-1.916.23-.306 0-.613.076-.996.076h-1.839c-.384 0-.767 0-1.15-.076h-.077-.153-.23c-.153 0-.383 0-.536-.077-.383-.077-.69-.077-1.073-.153-2.836-.383-5.671-1.226-8.354-2.453-2.759-1.226-5.364-2.912-7.74-5.058s-4.445-4.675-6.055-7.587c-1.609-2.912-2.759-6.131-3.295-9.503-.23-1.686-.383-3.449-.307-5.135 0-.46.077-.92.077-1.379v-.077-.153-.384c0-.229.077-.459.077-.689.076-.92.229-1.84.383-2.759 1.303-7.358 4.981-14.562 10.653-20.003 1.456-1.38 2.988-2.606 4.598-3.755 1.609-1.15 3.372-2.146 5.211-2.989 1.84-.843 3.679-1.533 5.672-2.069 1.915-.537 3.908-.844 5.977-1.073.997-.077 1.993-.154 3.066-.154h2.376l.843.077c2.222.153 4.368.46 6.514.996 4.292.92 8.507 2.529 12.415 4.675 7.818 4.369 14.485 11.113 18.547 19.237 2.069 4.061 3.525 8.43 4.215 12.951.153 1.15.307 2.3.383 3.449l.154 1.686v3.296c0 .536-.077 1.456-.077 1.992-.077 1.227-.23 2.529-.383 3.756-.153 1.226-.383 2.452-.613 3.678-.23 1.227-.537 2.453-.843 3.602-.613 2.376-1.38 4.752-2.299 7.128-1.84 4.598-4.292 9.043-7.205 13.105-5.901 8.124-13.948 14.715-23.144 18.93-4.599 2.069-9.427 3.602-14.408 4.368-2.453.46-4.982.69-7.511.766h-.46-.383-.843-1.226-.613-.077-.23c-1.38 0-2.682-.076-4.062-.229-5.365-.384-10.653-1.38-15.864-2.836-5.135-1.456-10.116-3.525-14.868-5.978-9.427-5.058-17.933-11.956-24.524-20.309-3.296-4.139-6.208-8.66-8.584-13.335s-4.292-9.657-5.671-14.638c-1.38-5.058-2.223-10.193-2.606-15.405l-.077-.996v-.23-.23-.46-.843-.23-.306-.613-1.226-.23s0 .076 0-.077v-.46-1.916c.077-2.529.307-5.211.614-7.817.306-2.606.766-5.288 1.302-7.894.537-2.605 1.15-5.211 1.916-7.817 1.457-5.135 3.296-10.116 5.442-14.791 4.368-9.35 10.039-17.704 16.86-24.371 1.686-1.686 3.449-3.219 5.288-4.752 1.84-1.456 3.756-2.836 5.748-4.138 1.916-1.303 3.985-2.453 6.055-3.526.996-.536 2.069-1.073 3.142-1.533l3.219-1.379c2.146-.92 4.368-1.686 6.667-2.376.537-.153 1.15-.306 1.686-.536.537-.154 1.15-.307 1.686-.46 1.15-.307 2.3-.613 3.449-.843.537-.153 1.15-.23 1.763-.383.613-.154 1.149-.23 1.763-.384.613-.076 1.149-.229 1.762-.306l.843-.153.92-.154c.613-.076 1.149-.153 1.763-.23.689-.076 1.302-.153 1.992-.229.537-.077 1.456-.154 1.993-.23.383-.077.843-.077 1.226-.154l.843-.076.383-.077h.46c.69-.077 1.303-.077 1.993-.153l.996-.077s.383 0 .077 0h.689c.537 0 1.15-.076 1.686-.076 2.223-.077 4.522-.077 6.745 0 4.445.153 8.813.689 13.028 1.456 8.507 1.609 16.478 4.291 23.758 7.893 7.281 3.526 13.719 7.894 19.39 12.646.383.306.69.613 1.073.919.306.307.689.614.996.92.69.613 1.303 1.226 1.993 1.839.689.614 1.303 1.227 1.916 1.84s1.226 1.226 1.839 1.916c2.376 2.529 4.598 5.058 6.591 7.664 3.985 5.134 7.204 10.346 9.733 15.251l.92 1.839c.306.613.613 1.226.843 1.839.306.614.536 1.15.843 1.763.23.613.536 1.15.766 1.763.92 2.299 1.839 4.521 2.529 6.591 1.15 3.372 1.993 6.361 2.683 8.966.229 1.073 1.226 1.763 2.299 1.61 1.149-.077 1.992-.996 1.992-2.146.077-2.759 0-6.054-.383-9.81z" fill="#3273dc" fill-rule="nonzero"/></g><g clip-path="url(#c)" transform="matrix(.929308 0 0 1.30306 1230.357152 2076.03664)"><path d="m502.341 278.804-223.543 223.538c-12.868 12.877-33.748 12.877-46.633 0l-46.415-46.424 58.88-58.884c13.687 4.621 29.38 1.52 40.284-9.387 10.97-10.975 14.043-26.803 9.305-40.537l56.754-56.749c13.733 4.734 29.568 1.674 40.538-9.311 15.323-15.319 15.323-40.152 0-55.484-15.334-15.332-40.162-15.332-55.503 0-11.524 11.536-14.375 28.472-8.531 42.672l-52.934 52.931v-139.285c3.732-1.85 7.258-4.314 10.371-7.418 15.323-15.321 15.323-40.152 0-55.497-15.323-15.316-40.169-15.316-55.48 0-15.323 15.345-15.323 40.176 0 55.497 3.787 3.783 8.173 6.645 12.852 8.561v140.573c-4.679 1.916-9.054 4.753-12.852 8.563-11.606 11.601-14.398 28.637-8.445 42.892l-58.049 58.058-153.284-153.274c-12.875-12.887-12.875-33.768 0-46.644l223.554-223.539c12.87-12.875 33.743-12.875 46.633 0l222.498 222.503c12.879 12.879 12.879 33.77 0 46.645" fill="#3273dc" fill-rule="nonzero"/></g><g fill="#3273dc" transform="matrix(2.648008952 0 0 3.7129807488 3443.466239983 2131.0225224704)"><path d="m134.791 76.094h-108.383c-2.267 7.766-3.415 15.816-3.408 23.906 0 8.3 1.19 16.323 3.408 23.906h108.383c13.012 0 23.899-10.625 23.899-23.906s-10.622-23.906-23.899-23.906"/><path d="m97.554 76.094h-71.146c-2.267 7.766-3.415 15.816-3.408 23.906 0 8.3 1.19 16.323 3.408 23.906h71.352c1.916-7.687 2.881-15.58 2.874-23.502.008-8.201-1.026-16.37-3.079-24.31"/><path d="m143.853 33.205c-15.535-20.193-39.937-33.205-67.378-33.205-33.597 0-62.638 19.505-76.428 47.812h112.806c12.437 0 23.552-5.698 31-14.607" transform="translate(31.497 15)"/><path d="m175.643 151.412c-7.401-8.705-18.432-14.225-30.761-14.225h-113.338c13.79 28.308 42.831 47.813 76.428 47.813 27.614 0 52.15-13.177 67.671-33.588"/><path d="m65.149 26.57c-14.529 8.502-26.223 21.114-33.605 36.243h63.25c-6.63-14.88-16.944-27.433-29.646-36.244"/><path d="m96.211 137.188h-64.667c7.829 16.047 20.499 29.239 36.217 37.71 12.425-9.37 22.348-22.42 28.45-37.71"/></g><path d="m2213.27 1437.91h-102v74.59h53.87l117.69 232.22 83.07.11-.07-74.11-34.56-.38z" fill="#3273dc" transform="matrix(1.44245541 0 0 2.1237321105 -598.48530116515 -664.0414863)"/><path d="m2197.84 1644.14-43.3-89.09-96.3 202.02h86.66z" fill="#3273dc" transform="matrix(1.44245541 0 0 2.022578037 -597.27265812505 -510.4641553875)"/></g></svg>