<svg viewBox="0 0 556.51 395.58" xmlns="http://www.w3.org/2000/svg"><path d="M164.16 264.17L0 169.29v-40.66l163.16-95.39-.61 42.25-127.91 74.22 129.7 72.79z"/><path d="M365.87 28v38.41s-40.8-30-90.19-30c-53.43 0-113.13 39.12-113.13 39.12V33.32C203.84 11.23 240.49 0 276.14 0c43.55 0 89.73 28 89.73 28" fill="#4081cb"/><path d="M277 247.58A99.55 99.55 0 10177.21 148 99.67 99.67 0 00277 247.58" fill="#4081cb"/><path d="M299.61 103.1c55.22 40.92 59.1 102.11 59.1 102.11 11.18-15.26 18.1-35.9 18.1-57.18A99.68 99.68 0 00277 48.48c-25.24 0-51.45 10.44-65.87 24.76 0 0 44.18-2.95 88.47 29.86" fill="#295283"/><path d="M389.91 36.82l164.16 94.88v40.66l-163.16 95.39.6-42.25 127.92-74.22-129.7-72.79z"/><path d="M188.13 273.27v-38.41s40.79 30.05 90.18 30.05c53.43 0 113.14-39.12 113.14-39.12V268c-41.3 22.09-77.94 33.32-113.58 33.32-43.56 0-89.74-28-89.74-28" fill="#4081cb"/><path d="M272.37 394.36q-4.49-8.78-9.11-20.53t-8.76-25.61h13.86q.87 3.42 2.07 7.41t2.46 8.07c.86 2.72 1.71 5.36 2.56 7.94s1.69 4.91 2.51 7c.76-2.1 1.59-4.44 2.47-7s1.74-5.22 2.59-7.94 1.68-5.41 2.47-8.07 1.48-5.13 2.07-7.41h13.52q-4.14 13.86-8.76 25.61t-9.1 20.53zM321.25 385a13 13 0 005.09-.7 2.72 2.72 0 001.49-2.72 3.36 3.36 0 00-1.93-2.77 38.46 38.46 0 00-5.88-2.67 59.82 59.82 0 01-5.57-2.37 16.34 16.34 0 01-4.25-2.94 11.83 11.83 0 01-2.72-4.08 14.93 14.93 0 01-1-5.7 12.32 12.32 0 014.83-10.26q4.82-3.76 13.24-3.77a43 43 0 018.07.74 37 37 0 016.14 1.63l-2.28 10.17a47.35 47.35 0 00-4.95-1.4 27 27 0 00-6-.62c-4.1 0-6.14 1.14-6.14 3.42a3.65 3.65 0 00.26 1.41 3.06 3.06 0 001.05 1.18 16.36 16.36 0 002.15 1.24c.91.44 2.06.93 3.47 1.45a54.85 54.85 0 017.1 3.14 17 17 0 014.43 3.35 10.3 10.3 0 012.28 4 17.61 17.61 0 01.66 5.07q0 6.84-5.13 10.33t-14.52 3.5a41.85 41.85 0 01-10.22-1.05 40.67 40.67 0 01-5.65-1.75l2.19-10.62a41.76 41.76 0 006.84 2.06 33.1 33.1 0 006.95.73zM350.55 394.36v-66l13.07-2.1v22.1a26.74 26.74 0 013.37-.83 20.78 20.78 0 014-.4 24.74 24.74 0 019.34 1.54 14.49 14.49 0 016 4.34 16.71 16.71 0 013.16 6.67 37.22 37.22 0 01.92 8.59v26.06H377.3v-24.45q0-6.31-1.62-8.95c-1.08-1.75-3.09-2.63-6-2.63a17.1 17.1 0 00-3.29.31c-1 .21-1.94.42-2.76.66v35.09zM402.21 349.79a72.52 72.52 0 018.6-1.79 70.07 70.07 0 0111.05-.84 27 27 0 019.78 1.54 14.76 14.76 0 016.19 4.34 16.83 16.83 0 013.24 6.67 35.54 35.54 0 011 8.59v26.06H429v-24.48q0-6.31-1.67-8.95t-6.23-2.63c-.94 0-1.93.05-3 .13s-2 .19-2.81.31v35.62h-13.08zM466.68 387.43a7.31 7.31 0 01-2.5 6 8.76 8.76 0 01-11.31 0 8.46 8.46 0 010-12 8.79 8.79 0 0111.31 0 7.32 7.32 0 012.5 6zM470.63 371.29a27.2 27.2 0 011.62-9.43 22.38 22.38 0 014.7-7.72 22.15 22.15 0 017.45-5.22 24.57 24.57 0 0110-1.93 31.37 31.37 0 0112.72 2.54L504.4 360a32.53 32.53 0 00-4-1.23 21.23 21.23 0 00-4.92-.52q-5.79 0-8.64 3.59t-2.84 9.45q0 6.22 2.68 9.64c1.78 2.29 4.9 3.42 9.34 3.42a32.27 32.27 0 005.09-.43 21.71 21.71 0 005-1.41l1.84 10.7a30.28 30.28 0 01-5.7 1.67 37.51 37.51 0 01-7.55.7 28.5 28.5 0 01-10.87-1.88 20.58 20.58 0 01-7.5-5.13 20.15 20.15 0 01-4.3-7.68 32.42 32.42 0 01-1.4-9.6zM516.68 394.36v-66l13.07-2.1v22.1a27 27 0 013.38-.83 20.6 20.6 0 014-.4 24.71 24.71 0 019.34 1.54 14.46 14.46 0 016 4.34 16.85 16.85 0 013.16 6.67 37.22 37.22 0 01.92 8.59v26.06h-13.11v-24.45c0-4.21-.55-7.19-1.63-8.95s-3.08-2.63-6-2.63a17 17 0 00-3.28.31c-1 .21-1.95.42-2.77.66v35.09z"/></svg>