<svg clip-rule="evenodd" fill-rule="evenodd" stroke-linejoin="round" stroke-miterlimit="1.41421" viewBox="0 0 400 400" xmlns="http://www.w3.org/2000/svg" xmlns:xlink="http://www.w3.org/1999/xlink"><linearGradient id="a" gradientTransform="matrix(-13.4262 -93.9835 93.9835 -13.4262 170.224 160.078)" gradientUnits="userSpaceOnUse" x1="0" x2="1" y1="0" y2="0"><stop offset="0" stop-color="#60baeb"/><stop offset=".04" stop-color="#60baeb"/><stop offset=".13" stop-color="#4fb4e9"/><stop offset=".82" stop-color="#4054ad"/><stop offset="1" stop-color="#4054ad"/></linearGradient><g fill-rule="nonzero" transform="matrix(3.69291 0 0 -3.69291 -405.628 632.622)"><path d="m0 0s1.658 6.282-5.545 14.38l-.24.253c-3.03 3.598-4.705 8.155-4.705 12.848 0 11.009 8.966 19.967 19.99 19.967h.465c11.023 0 19.99-8.958 19.99-19.967 0-4.693-1.671-9.25-4.702-12.844-.036-.041-.118-.126-.24-.249-6.391-6.404-5.549-14.388-5.549-14.388 11.676 4.025 19.567 15.004 19.633 27.319.085 15.395-12.345 28.52-27.702 29.258-.192.008-.384.013-.571.013-.232 0-1.096-.017-1.091-.017-.025 0-.86.017-1.089.017-.191 0-.383-.005-.57-.013-15.362-.738-27.787-13.863-27.706-29.258.07-12.315 7.956-23.294 19.632-27.319" fill="#353435" transform="translate(154.263 108.107)"/><path d="m0 0c.505.211 1.096.383 1.747.509.607.134 1.284.22 2.022.245 0 0-.033.228-.078.566-.02.334-.179.778-.331 1.217-.077.217-.154.432-.224.633-.089.199-.203.383-.285.541-.17.31-.284.518-.284.518-.73.117-1.418.281-2.086.472-.681.192-1.32.411-1.883.648-1.067.468-2.069.994-2.599 1.58-.639.558-.757 1.117-.736 1.622.036.248.15.489.345.713.18.22.416.42.758.59 0 0-.256.143-.632.355-.191.102-.399.224-.643.35-.257.123-.525.253-.795.379-.529.253-1.058.506-1.503.673-.424.17-.704.284-.704.284-.513-.069-1.071-.106-1.638-.114-.586-.012-1.185.005-1.768.049-1.145.098-2.31.257-3.316.554-.522.135-.966.293-1.352.469-.388.171-.734.342-1.011.534-.53.386-.893.777-.888 1.173 0 0-.322.053-.803.134-.497.077-1.556.22-2.228.31-.012-.114-.085-.22-.11-.408l-.171-.823c-.35-1.645.603-3.315 2.22-3.784 3.96-1.153 6.954-3.052 7.818-5.381 1.747-4.714-5.594-9.321-16.756-9.321-11.166 0-18.507 4.607-16.764 9.321.844 2.272 3.72 4.134 7.537 5.295 1.691.514 2.693 2.253 2.33 3.98l-.236 1.121c-.444-.053-.961-.118-1.491-.184-.664-.073-1.296-.191-1.78-.268-.485-.078-.811-.134-.811-.134.032-.384-.241-.816-.762-1.186-.272-.188-.575-.383-.945-.558-.371-.18-.827-.33-1.303-.489-.493-.155-1.044-.27-1.593-.367-.542-.106-1.121-.183-1.715-.232-1.186-.094-2.375-.118-3.455.016 0 0-.073-.029-.196-.078-.118-.052-.309-.121-.501-.216-.395-.186-.929-.443-1.467-.7-.528-.265-1.001-.55-1.384-.762-.192-.105-.351-.195-.461-.257-.101-.069-.159-.105-.159-.105.746-.346 1.162-.815 1.243-1.312.187-.525-.07-1.071-.554-1.666-.281-.302-.66-.586-1.047-.864-.412-.281-.925-.546-1.5-.798-1.075-.509-2.468-.957-3.963-1.227 0 0-.131-.211-.228-.529-.114-.322-.265-.758-.42-1.202-.065-.44-.126-.892-.175-1.238-.065-.35-.033-.579-.033-.579 1.544-.016 2.917-.277 3.944-.689 1.194-.394 1.914-.985 2.473-1.706.44-.779.615-1.593.224-2.534-.273-.917-1.023-1.94-2.245-2.868 0 0 .07-.061.188-.163.134-.098.33-.236.566-.404.485-.334 1.096-.806 1.812-1.234.758-.415 1.528-.835 2.111-1.156.289-.164.583-.265.766-.351.192-.086.301-.13.301-.13 1.723.737 3.573 1.116 5.423 1.312.924.097 1.832.121 2.701.064.883-.044 1.783-.113 2.627-.313.835-.22 1.65-.428 2.363-.746.725-.313 1.368-.724 1.98-1.12 1.218-.831 2.154-2.004 2.558-3.239 0 0 .628-.024 1.569-.06.944-.025 2.203-.11 3.458-.046 1.255.041 2.514.062 3.446.123.921.089 1.536.147 1.536.147.131.643.416 1.25.807 1.8.191.269.412.526.656.766.236.249.484.501.762.725.545.448 1.169.836 1.873 1.145.685.322 1.418.623 2.266.815.863.171 1.674.342 2.553.403.869.069 1.814.028 2.689-.008 1.789-.098 3.773-.51 5.496-1.161 0 0 .383.211.954.53.545.325 1.332.712 1.934 1.193.615.456 1.263.888 1.655 1.246.383.359.631.595.631.595-1.283.884-2.021 1.834-2.493 2.77-.22.453-.281.876-.294 1.296-.032.423.057.819.294 1.185.334.75 1.19 1.304 2.163 1.744" fill="#353435" transform="translate(191.991 84.9391)"/><path d="m149.193 135.528c-.033-3.67 1.743-6.987 4.615-9.325 3.553-2.892 6.466-8.746 6.636-15.134.188-7.092-.297-15.301-.595-19.477-3.797-.538-6.465-1.808-6.465-3.288 0-1.967 4.726-4.24 10.556-4.24s10.555 2.273 10.555 4.24c0 1.48-2.664 2.75-6.469 3.288-.298 4.176-.778 12.385-.591 19.477.175 6.388 3.079 12.242 6.637 15.134 2.872 2.338 4.652 5.655 4.615 9.325-.061 6.991-6.665 12.616-14.747 12.616-8.086 0-14.69-5.625-14.747-12.616" fill="url(#a)"/></g></svg>