<svg clip-rule="evenodd" fill-rule="evenodd" stroke-linejoin="round" stroke-miterlimit="1.41421" viewBox="0 0 400 400" xmlns="http://www.w3.org/2000/svg"><path d="m145.959 150.375c9.791-.815 17.069-9.413 16.254-19.204-.815-9.792-9.413-17.069-19.205-16.255-9.791.815-17.069 9.413-16.254 19.205s9.413 17.069 19.205 16.254zm20.729-.249c-3.839 4.238-8.589 7.55-13.892 9.687l-.042.119c4.022 15.463 10.317 30.244 18.681 43.858-7.315 3.887-15.278 6.406-23.498 7.433l-1.162.151-1.381.105-2.768.211c-1.7 0-3.364.156-5.143.053-6.997-.148-13.934-1.332-20.584-3.515-3.109-.994-6.142-2.208-9.078-3.634-2.66-1.276-5.239-2.711-7.724-4.3-2.118-1.348-4.161-2.811-6.12-4.381-1.802-1.355-3.213-2.729-4.438-3.8-2.341-2.247-3.632-3.604-3.632-3.604s1.087 1.509 3.124 4.079c1.074 1.233 2.312 2.811 3.939 4.428 1.776 1.871 3.653 3.643 5.622 5.31 2.343 1.99 4.804 3.837 7.371 5.529 2.881 1.918 5.894 3.628 9.017 5.12 3.36 1.626 6.833 3.01 10.39 4.141 3.712 1.169 7.505 2.064 11.348 2.677 1.914.372 3.983.495 5.982.741l2.78.165 1.383.081 1.588.025c3.843.039 7.684-.2 11.493-.714 6.534-.899 12.933-2.593 19.056-5.045 2.331 3.172 4.779 6.255 7.343 9.252l-.354.219-3.06 1.893-.422.26-.107.066-.027.017c-.514.257.672-.331.538-.265l-.055.028-.226.116-.929.471-1.957.995-1.028.521-.527.268-.267.135-.066.033-.034.018c-.092.039.688-.283.341-.139l-.137.06-2.271.997-2.389 1.05-.306.135-.039.016c.527-.188.125-.043.232-.081l-.076.035-.157.062-.633.248-1.287.503c-11.683 4.496-24.15 6.599-36.661 6.183l-1.626-.059-1.838-.145-3.685-.295c-2.285-.362-4.571-.52-6.916-1.033-9.271-1.677-18.244-4.716-26.625-9.02-2.033-1.016-3.994-2.083-5.854-3.242-1.914-1.077-3.673-2.304-5.409-3.478-3.247-2.242-6.356-4.678-9.309-7.297-2.513-2.22-4.904-4.576-7.161-7.056-2.091-2.165-3.666-4.263-5.056-5.927-1.351-1.692-2.286-3.118-2.987-4.048l-1.045-1.447.898 1.545c.602.994 1.392 2.518 2.572 4.35 1.217 1.807 2.592 4.083 4.474 6.481 2.035 2.751 4.218 5.39 6.539 7.906 2.756 2.997 5.692 5.824 8.79 8.466 1.666 1.394 3.366 2.854 5.235 4.176 1.814 1.402 3.746 2.725 5.76 4.005 4.134 2.676 8.454 5.053 12.927 7.114 4.657 2.13 9.463 3.915 14.381 5.341 2.442.798 5.089 1.288 7.637 1.935l3.644.669 1.813.332 2.025.289c4.989.674 10.02.988 15.054.939 9.037-.103 18.023-1.358 26.742-3.735l1.332-.37.655-.181.915-.292 2.484-.801 2.359-.762 2.56-.988 2.048-.79.972-.377.237-.091.059-.022.623-.308.113-.055.446-.217 3.237-1.572 4.044-1.965c2.749 2.63 5.581 5.181 8.519 7.62 0 0 14 14.416 21.711 8.487 7.249-5.572-1.102-23.049-1.102-23.049-11.218-31.972-32.184-59.62-59.943-79.049zm-48.835-23.693-.081-.098c-15.191-4.478-30.958-6.697-46.794-6.583.47-8.614 2.576-17.061 6.205-24.888l.489-1.064.641-1.227 1.287-2.46c.899-1.441 1.649-2.937 2.679-4.391 3.833-5.856 8.512-11.112 13.887-15.596 2.49-2.109 5.127-4.039 7.891-5.773 2.491-1.579 5.075-3.004 7.739-4.269 2.266-1.082 4.589-2.04 6.959-2.87 2.108-.808 4.016-1.28 5.572-1.75 3.146-.802 4.984-1.178 4.984-1.178s-1.856.122-5.116.489c-1.615.257-3.608.471-5.842.994-2.528.517-5.025 1.17-7.482 1.958-2.93.933-5.8 2.042-8.595 3.323-3.152 1.427-6.199 3.076-9.118 4.935-3.161 1.988-6.175 4.2-9.02 6.618-2.958 2.529-5.726 5.272-8.282 8.207-1.331 1.426-2.53 3.116-3.797 4.681l-1.613 2.27-.8 1.13-.864 1.333c-2.069 3.239-3.901 6.623-5.483 10.126-2.84 6.315-4.859 12.967-6.008 19.795l-.046.275c-3.862.354-7.707.848-11.538 1.482l.009-2.013.016-3.599v-.496-.156c.055-.572-.075.744-.06.597l.005-.062.022-.253.093-1.037.192-2.183.102-1.149.052-.587.026-.297.006-.075.004-.038c.015-.099-.126.733-.063.363l.021-.15.357-2.453.376-2.583.048-.332.006-.041c-.122.548-.029.128-.054.24l.016-.083.031-.166.126-.668.256-1.355c2.375-12.291 7.197-23.979 14.178-34.37l.911-1.348 1.097-1.481 2.202-2.969c1.517-1.747 2.861-3.602 4.54-5.319 6.334-6.975 13.665-12.974 21.755-17.803 1.937-1.185 3.882-2.284 5.85-3.248 1.928-1.054 3.9-1.894 5.815-2.745 3.622-1.567 7.335-2.912 11.12-4.03 3.215-.954 6.479-1.733 9.779-2.334 2.944-.626 5.558-.85 7.706-1.147 2.154-.256 3.857-.294 5.015-.395l1.782-.119-1.782-.063c-1.163-.017-2.875-.151-5.053-.124-2.174.075-4.836.034-7.866.361-3.412.268-6.807.72-10.17 1.355-4.002.751-7.955 1.742-11.837 2.971-2.065.677-4.204 1.342-6.315 2.228-2.151.796-4.296 1.731-6.449 2.763-4.459 2.089-8.764 4.493-12.881 7.195-4.274 2.822-8.335 5.953-12.15 9.369-1.97 1.648-3.788 3.634-5.687 5.452l-2.498 2.736-1.241 1.365-1.317 1.564c-3.216 3.874-6.148 7.976-8.773 12.273-4.701 7.718-8.397 16.005-10.999 24.659l-.392 1.326-.193.652-.237.93-.637 2.532-.603 2.404c-.177.926-.35 1.825-.518 2.697l-.415 2.156-.197 1.021-.048.25-.012.062-.069.691-.013.125-.052.493-.382 3.578c-.35 3.282-.584 5.489-.677 6.363-3.724 1.011-7.421 2.14-11.079 3.421 0 0-19.566 4.574-18.457 14.236 1.044 9.086 20.323 10.929 20.323 10.929 33.183 6.856 67.681 3.129 98.636-10.655-1.658-5.474-2.051-11.252-1.151-16.9zm137.796-10.499c-.434-5.102-1.242-10.166-2.417-15.151-.504-2.518-1.38-5.065-2.068-7.604l-1.205-3.503-.602-1.742-.743-1.905c-1.864-4.677-4.064-9.213-6.581-13.573-4.53-7.819-10.04-15.029-16.395-21.454l-.979-.978-.48-.482-.705-.649-1.918-1.769-1.823-1.681-2.12-1.746-1.695-1.395-.802-.662-.195-.162-.049-.04-.575-.39-.103-.072-.407-.282-2.962-2.045-3.97-2.744c1.025-4.078 1.891-8.201 2.599-12.369.709-4.167 5.463-19.338-3.531-23.04-8.456-3.481-19.395 12.499-19.395 12.499-22.052 25.727-35.478 57.724-38.388 91.483 5.591 1.199 10.837 3.65 15.344 7.17l.124-.024c10.986-10.848 20.358-23.217 27.83-36.728 7.168 4.497 13.434 10.294 18.475 17.092l.699.938.772 1.15 1.544 2.306c.836 1.48 1.789 2.853 2.575 4.454 3.31 6.166 5.687 12.789 7.054 19.652.661 3.197 1.093 6.437 1.294 9.695.195 2.943.213 5.894.051 8.839-.134 2.507-.404 5.005-.808 7.483-.301 2.237-.798 4.142-1.13 5.733-.806 3.143-1.355 4.934-1.355 4.934s.782-1.688 2.017-4.726c.547-1.542 1.312-3.394 1.921-5.606.756-2.466 1.378-4.972 1.861-7.506.583-3.018.981-6.07 1.193-9.137.254-3.451.263-6.915.027-10.368-.234-3.726-.735-7.432-1.498-11.087-.806-3.807-1.89-7.55-3.245-11.198-.616-1.85-1.527-3.713-2.295-5.572l-1.223-2.502-.609-1.243-.758-1.396c-1.855-3.366-3.951-6.594-6.271-9.658-4.108-5.404-8.877-10.27-14.198-14.484 1.648-3.677 3.158-7.412 4.53-11.206l.621.333 3.152 1.732.435.24.11.06.028.015c.476.321-.617-.422-.496-.339l.053.035.211.14.867.577 1.825 1.218.96.639.492.327.247.165.063.041.031.021c.08.061-.583-.46-.289-.226l.122.091 1.988 1.483 2.09 1.565.268.201.033.025c-.423-.369-.098-.087-.186-.162l.197.16.527.43 1.072.873c9.657 7.965 17.616 17.79 23.403 28.89l.747 1.446.777 1.671 1.554 3.355c.808 2.168 1.794 4.236 2.499 6.531 3.097 8.899 4.86 18.206 5.231 27.621.114 2.268.151 4.502.054 6.691 0 2.197-.202 4.332-.371 6.42-.356 3.93-.951 7.835-1.78 11.693-.699 3.28-1.575 6.52-2.625 9.705-.858 2.885-1.912 5.289-2.678 7.316-.809 2.009-1.592 3.523-2.057 4.593l-.748 1.621.908-1.535c.571-1.013 1.506-2.45 2.525-4.378.971-1.946 2.282-4.264 3.444-7.081 1.397-3.125 2.623-6.323 3.672-9.581 1.256-3.873 2.275-7.819 3.053-11.816.396-2.136.828-4.334 1.064-6.61.33-2.27.533-4.602.658-6.986.297-4.917.242-9.849-.163-14.759z" fill="#4da9e1" fill-rule="nonzero" transform="matrix(1.44562 0 0 1.44179 6.96097 6.14167)"/></svg>