<svg clip-rule="evenodd" fill-rule="evenodd" stroke-linejoin="round" stroke-miterlimit="1.41421" viewBox="0 0 400 400" xmlns="http://www.w3.org/2000/svg"><g fill-rule="nonzero"><path d="m1429.8 2495.68h30.35l495.33-247.7 8.25-11.65v-1977.126l-8.25-11.713-495.33-247.491h-30.72z" fill="#5294cf" transform="matrix(.147878 0 0 .147878 36.224715 15.4721)"/><path d="m785.19 2495.68h-30.77l-494.913-247.7-10.043-17.27-5.095-1961.437 15.138-21.782 494.913-247.491h31.151z" fill="#1f5b98" transform="matrix(.147878 0 0 .147878 36.224715 15.4721)"/><path d="m147.916081132 15.4721h104.161862006v369.05616704h-104.161862006z" fill="#2d72b8" stroke-width=".147878"/><g transform="matrix(.147878 0 0 .147878 36.224715 15.4721)"><path d="m2214.77 1191.77-16.74-3.71-239-22.28-3.55 1.76-495.77-19.82h-704.416l-495.787 19.82v-378.059l-.519.277.519-1.107 495.787-114.879h704.416l495.77 114.879 182.26 96.877v-62.284l77.03-8.426-7.98-15.553-243.88-174.386-7.43 2.413-495.77-153.624h-704.416l-495.787 153.624v-379.801l-259.273 303.746v265.277l2.006-1.453 75.018 8.183v63.564l-77.024 41.22v263.952l2.006-.21 75.018 1.11v110.79l-64.723.97-12.301-1.18v264.06l77.024 41.42v64.3l-73.798 8.14-3.226-2.42v265.24l259.273 303.78v-379.76l495.787 153.62h704.416l497.24-154.07 6.61 2.9 240.66-171.82 10.55-17.12-77.03-8.49v-63.01l-10.09-4.04-164.74 88.8-5.96 12.46-497.24 114.21v.14h-704.416v-.14l-495.787-114.7v-379.44l495.787 19.76v.48h704.416l495.77-20.24 11.29 5.19 231.66-19.95 16.34-7.98-77.03-1.11v-110.79z" fill="#1a476f"/><path d="m1955.48 1868.22v379.76l259.29-303.78v-263.51l-257.79 187.08zm0-160.43 1.5-.34 257.79-138.65v-265.13l-259.29 23.85zm1.5-918.793-1.5-.346v378.889l259.29 24.23v-264.997zm0-160.217 257.79 186.038v-263.512l-259.29-303.815v379.801l1.5.519z" fill="#2d72b8"/></g></g></svg>