<svg height="200" viewBox="0 0 200 200" width="200" xmlns="http://www.w3.org/2000/svg"><path d="m23 88.388v-59.136a4.253 4.253 0 0 1 4.252-4.252h21.618a4.253 4.253 0 0 1 4.252 4.253v54.882h31.865v-54.882a4.253 4.253 0 0 1 4.253-4.253h21.619a4.253 4.253 0 0 1 4.252 4.253v54.882h56.74a4.252 4.252 0 0 1 4.252 4.253v82.359a4.253 4.253 0 0 1 -4.253 4.253h-144.598a4.252 4.252 0 0 1 -4.252-4.253zm91.114 28.238a4.252 4.252 0 0 1 4.251-4.25h16.392a4.252 4.252 0 0 1 4.252 4.25v15.963a4.252 4.252 0 0 1 -4.252 4.252h-16.392a4.252 4.252 0 0 1 -4.25-4.252v-15.963z" fill="#ff6602" fill-rule="evenodd"/></svg>